M48
;Layer_Color=9474304
;FILE_FORMAT=4:4
METRIC,LZ
;TYPE=PLATED
T1F00S00C0.2000
T2F00S00C0.3810
T3F00S00C0.9000
%
T01
X0023999Y0018537
Y0019637
Y0020737
Y0021837
Y0022937
X0025099
X0026199
X0027299
X0028399
Y0021837
X0027299
X0026199
X0025099
Y0020737
X0026199
X0027299
X0028399
Y0019637
X0027299
X0026199
X0025099
Y0018537
X0026199
X0027299
X0028399
T02
X001651Y0013589
X0017153Y0016899
X0019812Y0016891
Y0018669
X0020217Y00215792
X0017383Y0020463
X001601Y0023233
X0017018Y0024765
X0019185Y00259
X0020447Y0025781
X0018161Y0027051
X0017526Y0029591
X0026416Y003048
X0027678Y0028329
X0030734Y0027305
X0031615Y0030091
X0031369Y0032131
X0035044Y0026281
X0036703Y0025908
X0038354Y0026797
Y0023368
X0033909Y0024003
X0035171Y0020693
X0035044Y0018534
X0032512Y0018415
Y0020193
X0036822Y0019693
X003683Y0017145
Y0014732
X0036822Y0013454
X0037211Y0010922
X0032885Y0012454
X003048Y0015875
X0028702Y0014732
X00255614Y00149
X002413Y0014605
X0024392Y0012073
X0021852Y0013216
X0021717Y0015113
X0020447Y0012319
X0021844Y0009017
X0023368Y0007493
X0026873Y0008077
X0027805Y001093
X0032004Y0006477
X0014224Y0018161
X0013589Y0020828
X001347Y0022233
T03
X0002794Y0010414
Y0012954
Y0017526
Y0020066
X0008255Y0028067
Y0030607
Y0033147
X0017399Y0037719
X0019939
X0022479
X0025019
X0027559
X0030099
X0032639
X0035179
X0045466Y0034798
Y0032258
Y0029718
Y0027178
Y002286
Y002032
Y001524
Y00127
M30
