%FSTAX23Y23*%
%MOIN*%
%SFA1B1*%

%IPPOS*%
%ADD23R,0.027685X0.031622*%
%ADD24O,0.074929X0.031622*%
%ADD25R,0.047370X0.045401*%
%ADD26R,0.031622X0.027685*%
%ADD27R,0.031622X0.017842*%
%ADD28R,0.035559X0.095795*%
%ADD29R,0.027685X0.095795*%
%ADD30C,0.068000*%
%ADD31C,0.067000*%
%ADD32C,0.035559*%
%ADD33C,0.033000*%
%LNadc_breakout-1*%
%LPD*%
G54D23*
X05718Y01397D03*
X05757D03*
G54D24*
X05844Y01364D03*
Y01314D03*
Y01264D03*
Y01214D03*
X06222Y01364D03*
Y01314D03*
Y01264D03*
Y01214D03*
G54D25*
X06328Y01316D03*
Y01379D03*
Y01261D03*
Y01198D03*
X05669Y01248D03*
Y01311D03*
Y01129D03*
Y01192D03*
G54D26*
X05944Y01624D03*
Y01663D03*
G54D27*
X06003Y01682D03*
Y01656D03*
Y0163D03*
Y01605D03*
X06133Y01682D03*
Y01656D03*
Y0163D03*
Y01605D03*
G54D28*
X06039Y01643D03*
G54D29*
X06102Y01643D03*
G54D30*
X06043Y01535D03*
X0624Y01053D03*
X05728D03*
X05964Y01535D03*
X05895D03*
X06102Y01791D03*
X05964D03*
X06033D03*
G54D31*
X06318Y01053D03*
X05895Y01791D03*
G54D32*
X06328Y01427D03*
X05728Y01171D03*
X05611Y0131D03*
G54D33*
X062Y01604D03*
M02*