%FSTAX23Y23*%
%MOIN*%
%SFA1B1*%

%IPPOS*%
%ADD16R,0.019685X0.023622*%
%ADD17O,0.066929X0.023622*%
%ADD18R,0.039370X0.037401*%
%ADD19R,0.023622X0.019685*%
%ADD20R,0.023622X0.009843*%
%ADD21R,0.027559X0.087795*%
%ADD22R,0.019685X0.087795*%
%ADD34C,0.010000*%
%ADD35C,0.060000*%
%ADD36C,0.059000*%
%ADD37C,0.027559*%
%ADD38C,0.025000*%
%LNadc_breakout-1*%
%LPD*%
G54D16*
X05718Y01397D03*
X05757D03*
G54D17*
X05844Y01364D03*
Y01314D03*
Y01264D03*
Y01214D03*
X06222Y01364D03*
Y01314D03*
Y01264D03*
Y01214D03*
G54D18*
X06328Y01316D03*
Y01379D03*
Y01261D03*
Y01198D03*
X05669Y01248D03*
Y01311D03*
Y01129D03*
Y01192D03*
G54D19*
X05944Y01624D03*
Y01663D03*
G54D20*
X06003Y01682D03*
Y01656D03*
Y0163D03*
Y01605D03*
X06133Y01682D03*
Y01656D03*
Y0163D03*
Y01605D03*
G54D21*
X06039Y01643D03*
G54D22*
X06102Y01643D03*
G54D34*
X05997Y01682D02*
X06003D01*
X05991Y01688D02*
X05997Y01682D01*
X05926Y01688D02*
X05991D01*
X05888Y0165D02*
X05926Y01688D01*
X05888Y01646D02*
Y0165D01*
X0585Y01608D02*
X05888Y01646D01*
X0585Y01516D02*
Y01608D01*
Y01516D02*
X05892Y01474D01*
X06321*
X06363Y01433*
Y01148D02*
Y01433D01*
X06318Y01103D02*
X06363Y01148D01*
X06318Y01053D02*
Y01103D01*
X0583Y01485D02*
Y01616D01*
X05686Y01264D02*
X05866D01*
X0585Y01636D02*
Y01809D01*
X0583Y01485D02*
X05892Y01422D01*
Y01291D02*
Y01422D01*
X0583Y01616D02*
X0585Y01636D01*
Y01809D02*
X05877Y01835D01*
X0602Y01735D02*
X0606D01*
X05964Y01791D02*
X0602Y01735D01*
X0592Y01835D02*
X05964Y01791D01*
X06127Y01656D02*
X06134D01*
X06154Y0167D02*
Y01693D01*
X0606Y01735D02*
X0607Y01726D01*
X06102Y01791D02*
X06174Y01718D01*
X06127Y0163D02*
X06128Y0163D01*
X06121Y01682D02*
Y01693D01*
X06174Y01662D02*
Y01718D01*
X06145Y01662D02*
X06154Y0167D01*
X06121Y01682D02*
X06121Y01682D01*
X06088Y01726D02*
X06121Y01693D01*
X06143Y0163D02*
X06174Y01662D01*
X0607Y01726D02*
X06088D01*
X06121Y01682D02*
X06127D01*
X06078Y01746D02*
X06096D01*
X06101Y01746D02*
X06154Y01693D01*
X06134Y01656D02*
X0614Y01662D01*
X06145*
X06096Y01746D02*
X06097Y01746D01*
X06101*
X06128Y0163D02*
X06143D01*
X05877Y01835D02*
X0592D01*
X05866Y01264D02*
X05892Y01291D01*
X05905Y01768D02*
X05991Y01682D01*
X05895Y01791D02*
X05905Y01781D01*
Y01768D02*
Y01781D01*
X06328Y01427D02*
D01*
Y01379D02*
Y01427D01*
X06329Y01261D02*
X06363Y01228D01*
X06328Y01261D02*
X06329D01*
X0624Y01053D02*
X06318Y01188D01*
X06328Y01198*
X05998Y0157D02*
X06043Y01535D01*
X0572Y01179D02*
X05728Y01171D01*
X05682Y01179D02*
X0572D01*
X05669Y01192D02*
X05682Y01179D01*
X05718Y01062D02*
X05728Y01053D01*
X05718Y01062D02*
Y01081D01*
X0567Y01129D02*
X05718Y01081D01*
X05669Y01129D02*
X0567D01*
X05655Y01234D02*
X05669Y01248D01*
X05651Y01234D02*
X05655D01*
X05634Y01217D02*
X05651Y01234D01*
X05634Y01163D02*
Y01217D01*
Y01163D02*
X05668Y01129D01*
X05669*
X06327Y01198D02*
X06328D01*
X06312Y01214D02*
X06327Y01198D01*
X06222Y01214D02*
X06312D01*
X06328Y01261D02*
Y01316D01*
X06326Y01264D02*
X06328Y01261D01*
X06222Y01264D02*
X06326D01*
X06315Y01366D02*
X06328Y01379D01*
X06295Y01366D02*
X06315D01*
X06244Y01314D02*
X06295Y01366D01*
X06222Y01314D02*
X06244D01*
X06222Y01364D02*
X06295D01*
X05757Y01395D02*
Y01397D01*
Y01395D02*
X05789Y01364D01*
X05844*
X0567Y01248D02*
X05686Y01264D01*
X0567Y01192D02*
X05691Y01214D01*
X05844*
X05669Y01311D02*
X05672Y01314D01*
X05844*
X0567Y01311D02*
X05718Y01359D01*
Y01397*
X0561Y01309D02*
D01*
X05612Y01311D01*
X05669*
X05928Y01648D02*
X05942Y01663D01*
X05953Y01656D02*
X05998D01*
X05946Y01663D02*
X05953Y01656D01*
X05942Y01663D02*
X05944D01*
X05895Y01617D02*
X05926Y01648D01*
X05928*
X05895Y01535D02*
Y01617D01*
X06033Y01791D02*
X06078Y01746D01*
X06102Y0161D02*
Y01643D01*
Y0161D02*
X06107Y01605D01*
X06133*
X06039Y01614D02*
Y01643D01*
X0603Y01605D02*
X06039Y01614D01*
X06003Y01605D02*
X0603D01*
X06134D02*
X06168D01*
X06169Y01604D02*
X062D01*
X06168Y01605D02*
X06169Y01604D01*
X05998Y0157D02*
Y01605D01*
X05964Y01535D02*
Y01548D01*
X05944Y01568D02*
X05964Y01548D01*
X05944Y01568D02*
Y01624D01*
X05946D02*
X05953Y0163D01*
X05998*
G54D35*
X06043Y01535D03*
X0624Y01053D03*
X05728D03*
X05964Y01535D03*
X05895D03*
X06102Y01791D03*
X05964D03*
X06033D03*
G54D36*
X06318Y01053D03*
X05895Y01791D03*
G54D37*
X06328Y01427D03*
X05728Y01171D03*
X05611Y0131D03*
G54D38*
X062Y01604D03*
M02*