%FSTAX23Y23*%
%MOIN*%
%SFA1B1*%

%IPPOS*%
%ADD35C,0.060000*%
%ADD36C,0.059000*%
%ADD37C,0.027559*%
%ADD38C,0.025000*%
%LNadc_breakout-1*%
%LPD*%
G36*
X06427Y01555D02*
X06151D01*
X06092Y01614*
X05935*
Y01566*
X05926Y01563*
X05923Y01564*
X0592Y01567*
X05911Y01572*
X059Y01575*
X0589*
X0588Y01572*
X05871Y01567*
X05863Y01559*
X05858Y0155*
X05855Y0154*
Y0153*
X05858Y01519*
X05863Y0151*
X05871Y01503*
X0588Y01498*
X0589Y01495*
X059*
X05911Y01498*
X0592Y01503*
X05923Y01506*
X05926Y01507*
X05935Y01504*
Y00974*
X0557*
Y0184*
X05889*
X0589Y0183*
X0588Y01828*
X05871Y01822*
X05864Y01815*
X05858Y01806*
X05856Y01796*
Y01786*
X05858Y01776*
X05864Y01767*
X05871Y01759*
X0588Y01754*
X0589Y01751*
X059*
X0591Y01754*
X05919Y01759*
X05923Y01763*
X0593Y01765*
X05936Y01762*
X0594Y01759*
X05949Y01754*
X05959Y01751*
X05969*
X0598Y01754*
X05989Y01759*
X05992Y01762*
X05999Y01765*
X06005Y01762*
X06008Y01759*
X06018Y01754*
X06028Y01751*
X06038*
X06048Y01754*
X06058Y01759*
X06061Y01762*
X06067Y01765*
X06074Y01762*
X06077Y01759*
X06086Y01754*
X06097Y01751*
X06107*
X06117Y01754*
X06126Y01759*
X06134Y01766*
X06139Y01775*
X06142Y01786*
Y01796*
X06139Y01806*
X06134Y01815*
X06126Y01823*
X06117Y01828*
X0611Y0183*
X06111Y0184*
X06427*
Y01555*
G37*
G36*
X06141Y01535D02*
X06427D01*
Y00974*
X05964*
Y01495*
X05969*
X0598Y01498*
X05989Y01503*
X05996Y0151*
X05998Y01513*
X06009*
X06011Y0151*
X06018Y01503*
X06027Y01498*
X06038Y01495*
X06038*
Y01535*
Y01575*
X06038*
X06027Y01572*
X06018Y01567*
X06011Y01559*
X06009Y01557*
X05998*
X05996Y01559*
X05989Y01567*
X0598Y01572*
X05969Y01575*
X05964*
Y01603*
X06073*
X06141Y01535*
G37*
%LNadc_breakout-2*%
%LPC*%
G36*
X06205Y01626D02*
Y01609D01*
X06223*
X06219Y01617*
X06213Y01623*
X06205Y01626*
G37*
G36*
X06195D02*
X06188Y01623D01*
X06181Y01617*
X06178Y01609*
X06195*
Y01626*
G37*
G36*
X06223Y01599D02*
X06205D01*
Y01582*
X06213Y01585*
X06219Y01591*
X06223Y01599*
G37*
G36*
X06195D02*
X06178D01*
X06181Y01591*
X06188Y01585*
X06195Y01582*
Y01599*
G37*
G36*
X05616Y01333D02*
Y01315D01*
X05634*
X05631Y01323*
X05624Y0133*
X05616Y01333*
G37*
G36*
X05606D02*
X05597Y0133D01*
X05591Y01323*
X05587Y01315*
X05606*
Y01333*
G37*
G36*
X05634Y01305D02*
X05616D01*
Y01286*
X05624Y01289*
X05631Y01296*
X05634Y01305*
G37*
G36*
X05606D02*
X05587D01*
X05591Y01296*
X05597Y01289*
X05606Y01286*
Y01305*
G37*
G36*
X05733Y01194D02*
Y01176D01*
X05752*
X05748Y01184*
X05741Y01191*
X05733Y01194*
G37*
G36*
X05723D02*
X05714Y01191D01*
X05708Y01184*
X05704Y01176*
X05723*
Y01194*
G37*
G36*
X05752Y01166D02*
X05733D01*
Y01147*
X05741Y01151*
X05748Y01157*
X05752Y01166*
G37*
G36*
X05723D02*
X05704D01*
X05708Y01157*
X05714Y01151*
X05723Y01147*
Y01166*
G37*
G36*
X05733Y01093D02*
X05723D01*
X05712Y0109*
X05703Y01085*
X05696Y01077*
X05691Y01068*
X05688Y01058*
Y01047*
X05691Y01037*
X05696Y01028*
X05703Y01021*
X05712Y01015*
X05723Y01013*
X05733*
X05743Y01015*
X05752Y01021*
X0576Y01028*
X05765Y01037*
X05768Y01047*
Y01058*
X05765Y01068*
X0576Y01077*
X05752Y01085*
X05743Y0109*
X05733Y01093*
G37*
G36*
X06048Y01575D02*
X06048D01*
Y0154*
X06083*
Y0154*
X0608Y0155*
X06075Y01559*
X06067Y01567*
X06058Y01572*
X06048Y01575*
G37*
G36*
X06083Y0153D02*
X06048D01*
Y01495*
X06048*
X06058Y01498*
X06067Y01503*
X06075Y0151*
X0608Y01519*
X06083Y0153*
Y0153*
G37*
G36*
X06235Y01093D02*
X06234D01*
X06224Y0109*
X06215Y01085*
X06208Y01077*
X06202Y01068*
X062Y01058*
Y01058*
X06235*
Y01093*
G37*
G36*
X06245D02*
X06245D01*
Y01053*
Y01013*
X06245*
X06255Y01015*
X06264Y01021*
X06272Y01028*
X06274Y01031*
X06285*
X06287Y01028*
X06294Y01021*
X06303Y01016*
X06313Y01013*
X06324*
X06334Y01016*
X06343Y01021*
X0635Y01028*
X06355Y01037*
X06358Y01047*
Y01058*
X06355Y01068*
X0635Y01077*
X06343Y01084*
X06334Y01089*
X06324Y01092*
X06313*
X06303Y01089*
X06294Y01084*
X06287Y01077*
X06285Y01074*
X06274*
X06272Y01077*
X06264Y01085*
X06255Y0109*
X06245Y01093*
G37*
G36*
X06235Y01048D02*
X062D01*
Y01047*
X06202Y01037*
X06208Y01028*
X06215Y01021*
X06224Y01015*
X06234Y01013*
X06235*
Y01048*
G37*
%LNadc_breakout-3*%
%LPD*%
G54D35*
X06043Y01535D03*
X0624Y01053D03*
X05728D03*
X05964Y01535D03*
X05895D03*
X06102Y01791D03*
X05964D03*
X06033D03*
G54D36*
X06318Y01053D03*
X05895Y01791D03*
G54D37*
X06328Y01427D03*
X05728Y01171D03*
X05611Y0131D03*
G54D38*
X062Y01604D03*
M02*