G04*
G04 #@! TF.GenerationSoftware,Altium Limited,Altium Designer,25.8.1 (18)*
G04*
G04 Layer_Color=128*
%FSLAX44Y44*%
%MOMM*%
G71*
G04*
G04 #@! TF.SameCoordinates,1388275A-6319-4885-8B31-DF8101F49269*
G04*
G04*
G04 #@! TF.FilePolarity,Positive*
G04*
G01*
G75*
%ADD39C,0.1270*%
D39*
X1531190Y390000D02*
X1538810D01*
X1535000Y386190D02*
Y393810D01*
X1581190Y267500D02*
X1588810D01*
X1585000Y263690D02*
Y271310D01*
X1451190Y267500D02*
X1458810D01*
X1455000Y263690D02*
Y271310D01*
X1601190Y267500D02*
X1608810D01*
X1605000Y263690D02*
Y271310D01*
X1511190Y390000D02*
X1518810D01*
X1515000Y386190D02*
Y393810D01*
X1493690Y390000D02*
X1501310D01*
X1497500Y386190D02*
Y393810D01*
X1546190Y455000D02*
X1553810D01*
X1550000Y451190D02*
Y458810D01*
X1493690Y455000D02*
X1501310D01*
X1497500Y451190D02*
Y458810D01*
X1511190Y455000D02*
X1518810D01*
X1515000Y451190D02*
Y458810D01*
X1528690Y455000D02*
X1536310D01*
X1532500Y451190D02*
Y458810D01*
X1606000Y362500D02*
X1609000D01*
X1607500Y361000D02*
Y364000D01*
X1453500Y297500D02*
X1456500D01*
X1455000Y296000D02*
Y299000D01*
X1423750Y332750D02*
X1426750D01*
X1425250Y331250D02*
Y334250D01*
X1573095Y407500D02*
X1576905D01*
X1575000Y405595D02*
Y409405D01*
M02*
