%FSTAX23Y23*%
%MOIN*%
%SFA1B1*%

%IPPOS*%
%ADD12C,0.003937*%
%ADD13C,0.001969*%
%LNadc_breakout-1*%
%LPD*%
G54D12*
X06013Y01289D02*
X06053D01*
X06033Y01269D02*
Y01309D01*
X06311Y01348D02*
X06346D01*
X06328Y0133D02*
Y01366D01*
X06311Y0123D02*
X06346D01*
X06328Y01212D02*
Y01248D01*
X05651Y01279D02*
X05687D01*
X05669Y01261D02*
Y01297D01*
X05651Y01161D02*
X05687D01*
X05669Y01143D02*
Y01179D01*
X06049Y01643D02*
X06088D01*
X06068Y01624D02*
Y01663D01*
G54D13*
X05802Y01159D02*
Y01419D01*
X06264Y01159D02*
Y01419D01*
X05802D02*
X06264D01*
X05802Y01159D02*
X06264D01*
X06299Y01297D02*
Y01399D01*
X06358Y01297D02*
Y01399D01*
X06299Y01297D02*
X06358D01*
X06299Y01399D02*
X06358D01*
Y01179D02*
Y01281D01*
X06299Y01179D02*
Y01281D01*
X06358*
X06299Y01179D02*
X06358D01*
X05639Y01228D02*
Y0133D01*
X05698Y01228D02*
Y0133D01*
X05639Y01228D02*
X05698D01*
X05639Y0133D02*
X05698D01*
X05639Y0111D02*
Y01212D01*
X05698Y0111D02*
Y01212D01*
X05639Y0111D02*
X05698D01*
X05639Y01212D02*
X05698D01*
X05976Y01578D02*
Y01708D01*
X06161Y01578D02*
Y01708D01*
X05976D02*
X06161D01*
X05976Y01578D02*
X06161D01*
M02*