G04*
G04 #@! TF.GenerationSoftware,Altium Limited,Altium Designer,25.8.1 (18)*
G04*
G04 Layer_Color=8421504*
%FSLAX44Y44*%
%MOMM*%
G71*
G04*
G04 #@! TF.SameCoordinates,F538A9A0-8907-4B17-AA07-AA87C9B738B4*
G04*
G04*
G04 #@! TF.FilePolarity,Positive*
G04*
G01*
G75*
%ADD16R,0.5000X0.6000*%
%ADD17O,1.7000X0.6000*%
%ADD18R,1.0000X0.9500*%
%ADD19R,0.6000X0.5000*%
%ADD20R,0.6000X0.2500*%
%ADD21R,0.7000X2.2300*%
%ADD22R,0.5000X2.2300*%
D16*
X1452500Y355000D02*
D03*
X1462500D02*
D03*
D17*
X1484500Y346550D02*
D03*
Y333850D02*
D03*
Y321150D02*
D03*
Y308450D02*
D03*
X1580500Y346550D02*
D03*
Y333850D02*
D03*
Y321150D02*
D03*
Y308450D02*
D03*
D18*
X1607500Y334500D02*
D03*
Y350500D02*
D03*
Y320500D02*
D03*
Y304500D02*
D03*
X1440000Y317000D02*
D03*
Y333000D02*
D03*
Y287000D02*
D03*
Y303000D02*
D03*
D19*
X1510000Y412500D02*
D03*
Y422500D02*
D03*
D20*
X1525000Y427250D02*
D03*
Y420750D02*
D03*
Y414250D02*
D03*
Y407750D02*
D03*
X1558000Y427250D02*
D03*
Y420750D02*
D03*
Y414250D02*
D03*
Y407750D02*
D03*
D21*
X1534000Y417500D02*
D03*
D22*
X1550000D02*
D03*
M02*
