G04*
G04 #@! TF.GenerationSoftware,Altium Limited,Altium Designer,22.9.1 (49)*
G04*
G04 Layer_Color=8388736*
%FSLAX44Y44*%
%MOMM*%
G71*
G04*
G04 #@! TF.SameCoordinates,56138900-265E-4636-842D-A07DDEB023E3*
G04*
G04*
G04 #@! TF.FilePolarity,Negative*
G04*
G01*
G75*
%ADD23R,0.7032X0.8032*%
%ADD24O,1.9032X0.8032*%
%ADD25R,1.2032X1.1532*%
%ADD26R,0.8032X0.7032*%
%ADD27R,0.8032X0.4532*%
%ADD28R,0.9032X2.4332*%
%ADD29R,0.7032X2.4332*%
%ADD30C,1.7272*%
%ADD31C,1.7018*%
%ADD32C,0.9032*%
%ADD33C,0.8382*%
D23*
X1452500Y355000D02*
D03*
X1462500D02*
D03*
D24*
X1484500Y346550D02*
D03*
Y333850D02*
D03*
Y321150D02*
D03*
Y308450D02*
D03*
X1580500Y346550D02*
D03*
Y333850D02*
D03*
Y321150D02*
D03*
Y308450D02*
D03*
D25*
X1607500Y334500D02*
D03*
Y350500D02*
D03*
Y320500D02*
D03*
Y304500D02*
D03*
X1440000Y317000D02*
D03*
Y333000D02*
D03*
Y287000D02*
D03*
Y303000D02*
D03*
D26*
X1510000Y412500D02*
D03*
Y422500D02*
D03*
D27*
X1525000Y427250D02*
D03*
Y420750D02*
D03*
Y414250D02*
D03*
Y407750D02*
D03*
X1558000Y427250D02*
D03*
Y420750D02*
D03*
Y414250D02*
D03*
Y407750D02*
D03*
D28*
X1534000Y417500D02*
D03*
D29*
X1550000D02*
D03*
D30*
X1535000Y390000D02*
D03*
X1585000Y267500D02*
D03*
X1455000D02*
D03*
X1515000Y390000D02*
D03*
X1497500D02*
D03*
X1550000Y455000D02*
D03*
X1515000D02*
D03*
X1532500D02*
D03*
D31*
X1605000Y267500D02*
D03*
X1497500Y455000D02*
D03*
D32*
X1607500Y362500D02*
D03*
X1455000Y297500D02*
D03*
X1425250Y332750D02*
D03*
D33*
X1575000Y407500D02*
D03*
M02*
