%TF.GenerationSoftware,Altium Limited,Altium Designer,22.9.1 (49)*%
G04 Layer_Color=65535*
%FSLAX45Y45*%
%MOMM*%
%TF.SameCoordinates,B14F6F0A-716E-4177-8A15-EB0EAC97BD69*%
%TF.FilePolarity,Positive*%
%TF.FileFunction,Legend,Top*%
%TF.Part,Single*%
G01*
G75*
%TA.AperFunction,NonConductor*%
%ADD28C,0.25000*%
%ADD29C,0.05000*%
%ADD30C,0.20000*%
%ADD31C,0.10160*%
D28*
X2147400Y2478700D02*
G03*
X2147400Y2478700I-12500J0D01*
G01*
X2905155Y507184D02*
X2971800Y407216D01*
Y507184D02*
X2905155Y407216D01*
X3005123D02*
X3038445D01*
X3021784D01*
Y507184D01*
X3005123Y490523D01*
X3184555Y839016D02*
Y938984D01*
X3234539D01*
X3251200Y922323D01*
Y889000D01*
X3234539Y872339D01*
X3184555D01*
X3217877D02*
X3251200Y839016D01*
X3284523D02*
X3317845D01*
X3301184D01*
Y938984D01*
X3284523Y922323D01*
X2136030Y2693098D02*
Y2609791D01*
X2152691Y2593130D01*
X2186014D01*
X2202675Y2609791D01*
Y2693098D01*
X2235998Y2593130D02*
X2269320D01*
X2252659D01*
Y2693098D01*
X2235998Y2676436D01*
X1453394Y2464616D02*
Y2564584D01*
X1503377D01*
X1520039Y2547923D01*
Y2514600D01*
X1503377Y2497939D01*
X1453394D01*
X1486716D02*
X1520039Y2464616D01*
X1620006D02*
X1553361D01*
X1620006Y2531261D01*
Y2547923D01*
X1603345Y2564584D01*
X1570023D01*
X1553361Y2547923D01*
X2126494Y1105716D02*
Y1205684D01*
X2176477D01*
X2193139Y1189023D01*
Y1155700D01*
X2176477Y1139039D01*
X2126494D01*
X2159816D02*
X2193139Y1105716D01*
X2226461Y1189023D02*
X2243123Y1205684D01*
X2276445D01*
X2293106Y1189023D01*
Y1172361D01*
X2276445Y1155700D01*
X2259784D01*
X2276445D01*
X2293106Y1139039D01*
Y1122377D01*
X2276445Y1105716D01*
X2243123D01*
X2226461Y1122377D01*
X3396494Y927916D02*
Y1027884D01*
X3446477D01*
X3463139Y1011223D01*
Y977900D01*
X3446477Y961239D01*
X3396494D01*
X3429816D02*
X3463139Y927916D01*
X3546445D02*
Y1027884D01*
X3496461Y977900D01*
X3563106D01*
X3594100Y1620823D02*
X3577439Y1637484D01*
X3544116D01*
X3527455Y1620823D01*
Y1554177D01*
X3544116Y1537516D01*
X3577439D01*
X3594100Y1554177D01*
X3627423Y1537516D02*
X3660745D01*
X3644084D01*
Y1637484D01*
X3627423Y1620823D01*
X3117094Y1575616D02*
Y1675584D01*
X3167077D01*
X3183739Y1658923D01*
Y1625600D01*
X3167077Y1608939D01*
X3117094D01*
X3150416D02*
X3183739Y1575616D01*
X3283706Y1675584D02*
X3217061D01*
Y1625600D01*
X3250384Y1642261D01*
X3267045D01*
X3283706Y1625600D01*
Y1592277D01*
X3267045Y1575616D01*
X3233723D01*
X3217061Y1592277D01*
X1567694Y2617016D02*
Y2716984D01*
X1617677D01*
X1634339Y2700323D01*
Y2667000D01*
X1617677Y2650339D01*
X1567694D01*
X1601016D02*
X1634339Y2617016D01*
X1734306Y2716984D02*
X1700984Y2700323D01*
X1667661Y2667000D01*
Y2633677D01*
X1684323Y2617016D01*
X1717645D01*
X1734306Y2633677D01*
Y2650339D01*
X1717645Y2667000D01*
X1667661D01*
X2075285Y2903523D02*
X2058624Y2920184D01*
X2025302D01*
X2008640Y2903523D01*
Y2836877D01*
X2025302Y2820216D01*
X2058624D01*
X2075285Y2836877D01*
X2108608Y2820216D02*
X2141931D01*
X2125270D01*
Y2920184D01*
X2108608Y2903523D01*
X2258560Y2920184D02*
X2191915D01*
Y2870200D01*
X2225237Y2886861D01*
X2241898D01*
X2258560Y2870200D01*
Y2836877D01*
X2241898Y2820216D01*
X2208576D01*
X2191915Y2836877D01*
X1732385Y1265223D02*
X1715724Y1281884D01*
X1682402D01*
X1665740Y1265223D01*
Y1198577D01*
X1682402Y1181916D01*
X1715724D01*
X1732385Y1198577D01*
X1765708Y1181916D02*
X1799031D01*
X1782370D01*
Y1281884D01*
X1765708Y1265223D01*
X1898998Y1181916D02*
Y1281884D01*
X1849015Y1231900D01*
X1915660D01*
X3332585Y3043223D02*
X3315924Y3059884D01*
X3282602D01*
X3265940Y3043223D01*
Y2976577D01*
X3282602Y2959916D01*
X3315924D01*
X3332585Y2976577D01*
X3365908Y2959916D02*
X3399231D01*
X3382570D01*
Y3059884D01*
X3365908Y3043223D01*
X3449215D02*
X3465876Y3059884D01*
X3499198D01*
X3515860Y3043223D01*
Y3026561D01*
X3499198Y3009900D01*
X3482537D01*
X3499198D01*
X3515860Y2993239D01*
Y2976577D01*
X3499198Y2959916D01*
X3465876D01*
X3449215Y2976577D01*
X3840585Y2547923D02*
X3823924Y2564584D01*
X3790602D01*
X3773940Y2547923D01*
Y2481277D01*
X3790602Y2464616D01*
X3823924D01*
X3840585Y2481277D01*
X3873908Y2464616D02*
X3907231D01*
X3890570D01*
Y2564584D01*
X3873908Y2547923D01*
X4023860Y2464616D02*
X3957215D01*
X4023860Y2531261D01*
Y2547923D01*
X4007198Y2564584D01*
X3973876D01*
X3957215Y2547923D01*
X3539747Y2840023D02*
X3523086Y2856684D01*
X3489763D01*
X3473102Y2840023D01*
Y2773377D01*
X3489763Y2756716D01*
X3523086D01*
X3539747Y2773377D01*
X3573070Y2756716D02*
X3606392D01*
X3589731D01*
Y2856684D01*
X3573070Y2840023D01*
X3656376Y2756716D02*
X3689698D01*
X3673037D01*
Y2856684D01*
X3656376Y2840023D01*
X3675485Y2128823D02*
X3658824Y2145484D01*
X3625502D01*
X3608840Y2128823D01*
Y2062177D01*
X3625502Y2045516D01*
X3658824D01*
X3675485Y2062177D01*
X3708808Y2045516D02*
X3742131D01*
X3725470D01*
Y2145484D01*
X3708808Y2128823D01*
X3792115D02*
X3808776Y2145484D01*
X3842098D01*
X3858760Y2128823D01*
Y2062177D01*
X3842098Y2045516D01*
X3808776D01*
X3792115Y2062177D01*
Y2128823D01*
X3679039Y1874823D02*
X3662377Y1891484D01*
X3629055D01*
X3612394Y1874823D01*
Y1808177D01*
X3629055Y1791516D01*
X3662377D01*
X3679039Y1808177D01*
X3712361D02*
X3729023Y1791516D01*
X3762345D01*
X3779006Y1808177D01*
Y1874823D01*
X3762345Y1891484D01*
X3729023D01*
X3712361Y1874823D01*
Y1858161D01*
X3729023Y1841500D01*
X3779006D01*
X2650339Y998523D02*
X2633677Y1015184D01*
X2600355D01*
X2583694Y998523D01*
Y931877D01*
X2600355Y915216D01*
X2633677D01*
X2650339Y931877D01*
X2683661Y998523D02*
X2700323Y1015184D01*
X2733645D01*
X2750306Y998523D01*
Y981861D01*
X2733645Y965200D01*
X2750306Y948539D01*
Y931877D01*
X2733645Y915216D01*
X2700323D01*
X2683661Y931877D01*
Y948539D01*
X2700323Y965200D01*
X2683661Y981861D01*
Y998523D01*
X2700323Y965200D02*
X2733645D01*
X3450439Y1328723D02*
X3433777Y1345384D01*
X3400455D01*
X3383794Y1328723D01*
Y1262077D01*
X3400455Y1245416D01*
X3433777D01*
X3450439Y1262077D01*
X3483761Y1345384D02*
X3550406D01*
Y1328723D01*
X3483761Y1262077D01*
Y1245416D01*
X2421739Y1100123D02*
X2405077Y1116784D01*
X2371755D01*
X2355094Y1100123D01*
Y1033477D01*
X2371755Y1016816D01*
X2405077D01*
X2421739Y1033477D01*
X2521706Y1116784D02*
X2488384Y1100123D01*
X2455061Y1066800D01*
Y1033477D01*
X2471723Y1016816D01*
X2505045D01*
X2521706Y1033477D01*
Y1050139D01*
X2505045Y1066800D01*
X2455061D01*
X1532739Y1709723D02*
X1516077Y1726384D01*
X1482755D01*
X1466094Y1709723D01*
Y1643077D01*
X1482755Y1626416D01*
X1516077D01*
X1532739Y1643077D01*
X1632706Y1726384D02*
X1566061D01*
Y1676400D01*
X1599384Y1693061D01*
X1616045D01*
X1632706Y1676400D01*
Y1643077D01*
X1616045Y1626416D01*
X1582723D01*
X1566061Y1643077D01*
X1545439Y2052623D02*
X1528777Y2069284D01*
X1495455D01*
X1478794Y2052623D01*
Y1985977D01*
X1495455Y1969316D01*
X1528777D01*
X1545439Y1985977D01*
X1628745Y1969316D02*
Y2069284D01*
X1578761Y2019300D01*
X1645406D01*
X1380339Y2382823D02*
X1363677Y2399484D01*
X1330355D01*
X1313694Y2382823D01*
Y2316177D01*
X1330355Y2299516D01*
X1363677D01*
X1380339Y2316177D01*
X1413661Y2382823D02*
X1430323Y2399484D01*
X1463645D01*
X1480306Y2382823D01*
Y2366161D01*
X1463645Y2349500D01*
X1446984D01*
X1463645D01*
X1480306Y2332839D01*
Y2316177D01*
X1463645Y2299516D01*
X1430323D01*
X1413661Y2316177D01*
X2840839Y3081323D02*
X2824177Y3097984D01*
X2790855D01*
X2774194Y3081323D01*
Y3014677D01*
X2790855Y2998016D01*
X2824177D01*
X2840839Y3014677D01*
X2940806Y2998016D02*
X2874161D01*
X2940806Y3064661D01*
Y3081323D01*
X2924145Y3097984D01*
X2890823D01*
X2874161Y3081323D01*
D29*
X3051400Y977900D02*
Y1037900D01*
X2841400D02*
X3051400D01*
X2841400Y917900D02*
Y1037900D01*
Y917900D02*
X3051400D01*
Y977900D01*
X2022700Y2324100D02*
Y2384100D01*
X1812700D02*
X2022700D01*
X1812700Y2264100D02*
Y2384100D01*
Y2264100D02*
X2022700D01*
Y2324100D01*
X2251400Y1476600D02*
X2311400D01*
X2251400Y1266600D02*
Y1476600D01*
Y1266600D02*
X2371400D01*
Y1476600D01*
X2311400D02*
X2371400D01*
X3292700Y1092200D02*
Y1152200D01*
X3082700D02*
X3292700D01*
X3082700Y1032200D02*
Y1152200D01*
Y1032200D02*
X3292700D01*
Y1092200D01*
X3260500Y1413200D02*
Y1473200D01*
Y1413200D02*
X3470500D01*
Y1533200D01*
X3260500D02*
X3470500D01*
X3260500Y1473200D02*
Y1533200D01*
X3031900Y1413200D02*
Y1473200D01*
Y1413200D02*
X3241900D01*
Y1533200D01*
X3031900D02*
X3241900D01*
X3031900Y1473200D02*
Y1533200D01*
X1863500Y2391100D02*
Y2451100D01*
Y2391100D02*
X2073500D01*
Y2511100D01*
X1863500D02*
X2073500D01*
X1863500Y2451100D02*
Y2511100D01*
X1876200Y2645100D02*
Y2705100D01*
Y2645100D02*
X2086200D01*
Y2765100D01*
X1876200D02*
X2086200D01*
X1876200Y2705100D02*
Y2765100D01*
X2044700Y1292000D02*
X2104700D01*
Y1502000D01*
X1984700D02*
X2104700D01*
X1984700Y1292000D02*
Y1502000D01*
Y1292000D02*
X2044700D01*
X3216500Y2882900D02*
Y2942900D01*
X3006500D02*
X3216500D01*
X3006500Y2822900D02*
Y2942900D01*
Y2822900D02*
X3216500D01*
Y2882900D01*
X3534100Y2530700D02*
X3594100D01*
X3534100Y2320700D02*
Y2530700D01*
Y2320700D02*
X3654100D01*
Y2530700D01*
X3594100D02*
X3654100D01*
X3330900Y2683100D02*
X3390900D01*
X3330900Y2473100D02*
Y2683100D01*
Y2473100D02*
X3450900D01*
Y2683100D01*
X3390900D02*
X3450900D01*
X3318200Y2124300D02*
X3378200D01*
X3318200Y1914300D02*
Y2124300D01*
Y1914300D02*
X3438200D01*
Y2124300D01*
X3378200D02*
X3438200D01*
X3318200Y1908400D02*
X3378200D01*
X3318200Y1698400D02*
Y1908400D01*
Y1698400D02*
X3438200D01*
Y1908400D01*
X3378200D02*
X3438200D01*
X2835500Y1206500D02*
Y1266500D01*
X2625500D02*
X2835500D01*
X2625500Y1146500D02*
Y1266500D01*
Y1146500D02*
X2835500D01*
Y1206500D01*
X3162300Y1190400D02*
X3222300D01*
Y1400400D01*
X3102300D02*
X3222300D01*
X3102300Y1190400D02*
Y1400400D01*
Y1190400D02*
X3162300D01*
X2384200Y1273500D02*
Y1333500D01*
Y1273500D02*
X2594200D01*
Y1393500D01*
X2384200D02*
X2594200D01*
X2384200Y1333500D02*
Y1393500D01*
X1866900Y1634900D02*
X1926900D01*
Y1844900D01*
X1806900D02*
X1926900D01*
X1806900Y1634900D02*
Y1844900D01*
Y1634900D02*
X1866900D01*
X1879600Y1991300D02*
X1939600D01*
Y2201300D01*
X1819600D02*
X1939600D01*
X1819600Y1991300D02*
Y2201300D01*
Y1991300D02*
X1879600D01*
X1679900Y2378300D02*
X1739900D01*
X1679900Y2168300D02*
Y2378300D01*
Y2168300D02*
X1799900D01*
Y2378300D01*
X1739900D02*
X1799900D01*
X2581600Y2987900D02*
X2641600D01*
X2581600Y2777900D02*
Y2987900D01*
Y2777900D02*
X2701600D01*
Y2987900D01*
X2641600D02*
X2701600D01*
D30*
X698500Y2679700D02*
Y3441700D01*
Y2679700D02*
X952500D01*
Y3441700D01*
X698500D02*
X952500D01*
X4419600Y1143000D02*
X4673600D01*
X4419600D02*
Y1651000D01*
X4673600D01*
Y1143000D02*
Y1651000D01*
X2997400Y2493700D02*
X3039900D01*
Y2451200D02*
Y2493700D01*
X2997400Y1653700D02*
X3039900D01*
Y1696200D01*
X2199900Y1653700D02*
X2242400D01*
X2199900D02*
Y1696200D01*
Y2493700D02*
X2242400D01*
X2199900Y2451200D02*
Y2493700D01*
X4419600Y1905000D02*
X4673600D01*
X4419600D02*
Y2413000D01*
X4673600D01*
Y1905000D02*
Y2413000D01*
X152400Y1625600D02*
X406400D01*
X152400D02*
Y2133600D01*
X406400D01*
Y1625600D02*
Y2133600D01*
X152400Y914400D02*
X406400D01*
X152400D02*
Y1422400D01*
X406400D01*
Y914400D02*
Y1422400D01*
X1612900Y3644900D02*
Y3898900D01*
X3644900D01*
Y3644900D02*
Y3898900D01*
X1612900Y3644900D02*
X3644900D01*
X4419600Y2590800D02*
X4673600D01*
X4419600D02*
Y3606800D01*
X4673600Y2590800D02*
Y3606800D01*
X4419600D02*
X4673600D01*
D31*
X4834481Y3467108D02*
Y3517892D01*
X4859872D01*
X4868336Y3509428D01*
Y3492500D01*
X4859872Y3484036D01*
X4834481D01*
X4885264Y3509428D02*
X4893728Y3517892D01*
X4910656D01*
X4919120Y3509428D01*
Y3500964D01*
X4910656Y3492500D01*
X4902192D01*
X4910656D01*
X4919120Y3484036D01*
Y3475572D01*
X4910656Y3467108D01*
X4893728D01*
X4885264Y3475572D01*
X4821781Y3213108D02*
Y3263892D01*
X4847172D01*
X4855636Y3255428D01*
Y3238500D01*
X4847172Y3230036D01*
X4821781D01*
X4906420Y3213108D02*
X4872564D01*
X4906420Y3246964D01*
Y3255428D01*
X4897956Y3263892D01*
X4881028D01*
X4872564Y3255428D01*
X4830244Y2946408D02*
Y2997192D01*
X4855636D01*
X4864100Y2988728D01*
Y2971800D01*
X4855636Y2963336D01*
X4830244D01*
X4881028Y2946408D02*
X4897956D01*
X4889492D01*
Y2997192D01*
X4881028Y2988728D01*
X4821781Y2692408D02*
Y2743192D01*
X4847172D01*
X4855636Y2734728D01*
Y2717800D01*
X4847172Y2709336D01*
X4821781D01*
X4872564Y2734728D02*
X4881028Y2743192D01*
X4897956D01*
X4906420Y2734728D01*
Y2700872D01*
X4897956Y2692408D01*
X4881028D01*
X4872564Y2700872D01*
Y2734728D01*
X4809072Y2159009D02*
X4800608Y2150545D01*
Y2133617D01*
X4809072Y2125153D01*
X4842927D01*
X4851391Y2133617D01*
Y2150545D01*
X4842927Y2159009D01*
X4800608Y2175936D02*
X4851391D01*
X4825999D01*
Y2209792D01*
X4800608D01*
X4851391D01*
Y2226720D02*
Y2243648D01*
Y2235184D01*
X4800608D01*
X4809072Y2226720D01*
X4758272Y1388545D02*
X4749808Y1380081D01*
Y1363153D01*
X4758272Y1354689D01*
X4792127D01*
X4800591Y1363153D01*
Y1380081D01*
X4792127Y1388545D01*
X4749808Y1405472D02*
X4800591D01*
X4775199D01*
Y1439328D01*
X4749808D01*
X4800591D01*
X4758272Y1456256D02*
X4749808Y1464720D01*
Y1481648D01*
X4758272Y1490112D01*
X4792127D01*
X4800591Y1481648D01*
Y1464720D01*
X4792127Y1456256D01*
X4758272D01*
X516472Y1159944D02*
X508008Y1151481D01*
Y1134553D01*
X516472Y1126089D01*
X550328D01*
X558792Y1134553D01*
Y1151481D01*
X550328Y1159944D01*
X508008Y1176872D02*
X558792D01*
X533400D01*
Y1210728D01*
X508008D01*
X558792D01*
X516472Y1227656D02*
X508008Y1236120D01*
Y1253048D01*
X516472Y1261511D01*
X524936D01*
X533400Y1253048D01*
Y1244583D01*
Y1253048D01*
X541864Y1261511D01*
X550328D01*
X558792Y1253048D01*
Y1236120D01*
X550328Y1227656D01*
X503772Y1845744D02*
X495308Y1837281D01*
Y1820353D01*
X503772Y1811889D01*
X537628D01*
X546092Y1820353D01*
Y1837281D01*
X537628Y1845744D01*
X495308Y1862672D02*
X546092D01*
X520700D01*
Y1896528D01*
X495308D01*
X546092D01*
Y1947311D02*
Y1913456D01*
X512236Y1947311D01*
X503772D01*
X495308Y1938848D01*
Y1921920D01*
X503772Y1913456D01*
X461444Y2810928D02*
X452981Y2819392D01*
X436053D01*
X427589Y2810928D01*
Y2777072D01*
X436053Y2768608D01*
X452981D01*
X461444Y2777072D01*
Y2794000D01*
X444517D01*
X478372Y2768608D02*
Y2819392D01*
X512228Y2768608D01*
Y2819392D01*
X529156D02*
Y2768608D01*
X554548D01*
X563011Y2777072D01*
Y2810928D01*
X554548Y2819392D01*
X529156D01*
X431821Y3022608D02*
X448748D01*
X440285D01*
Y3073392D01*
X431821Y3064928D01*
X474140Y3073392D02*
Y3039536D01*
X491068Y3022608D01*
X507996Y3039536D01*
Y3073392D01*
X524924Y3064928D02*
X533388Y3073392D01*
X550316D01*
X558779Y3064928D01*
Y3056464D01*
X550316Y3048000D01*
X558779Y3039536D01*
Y3031072D01*
X550316Y3022608D01*
X533388D01*
X524924Y3031072D01*
Y3039536D01*
X533388Y3048000D01*
X524924Y3056464D01*
Y3064928D01*
X533388Y3048000D02*
X550316D01*
X414889Y3331628D02*
X423353Y3340092D01*
X440281D01*
X448744Y3331628D01*
Y3323164D01*
X440281Y3314700D01*
X431817D01*
X440281D01*
X448744Y3306236D01*
Y3297772D01*
X440281Y3289308D01*
X423353D01*
X414889Y3297772D01*
X465672Y3340092D02*
Y3306236D01*
X482600Y3289308D01*
X499528Y3306236D01*
Y3340092D01*
X516456Y3331628D02*
X524920Y3340092D01*
X541848D01*
X550311Y3331628D01*
Y3323164D01*
X541848Y3314700D01*
X533383D01*
X541848D01*
X550311Y3306236D01*
Y3297772D01*
X541848Y3289308D01*
X524920D01*
X516456Y3297772D01*
%TF.MD5,f47a0a46256e19ca1072748782b90c82*%
M02*
