%TF.GenerationSoftware,Altium Limited,Altium Designer,22.9.1 (49)*%
G04 Layer_Color=16711935*
%FSLAX45Y45*%
%MOMM*%
%TF.SameCoordinates,B14F6F0A-716E-4177-8A15-EB0EAC97BD69*%
%TF.FilePolarity,Negative*%
%TF.FileFunction,Soldermask,Bot*%
%TF.Part,Single*%
G01*
G75*
%TA.AperFunction,ComponentPad*%
%ADD23R,1.70320X1.70320*%
%ADD24C,1.70320*%
%ADD25R,1.70320X1.70320*%
%TA.AperFunction,ViaPad*%
%ADD26C,0.83820*%
%ADD27C,0.70320*%
D23*
X825500Y3314700D02*
D03*
X4546600Y1524000D02*
D03*
Y2286000D02*
D03*
X279400Y2006600D02*
D03*
Y1295400D02*
D03*
X4546600Y2717800D02*
D03*
D24*
X825500Y3060700D02*
D03*
Y2806700D02*
D03*
X4546600Y1270000D02*
D03*
Y2032000D02*
D03*
X279400Y1752600D02*
D03*
Y1041400D02*
D03*
X3263900Y3771900D02*
D03*
X3009900D02*
D03*
X2755900D02*
D03*
X2501900D02*
D03*
X2247900D02*
D03*
X1993900D02*
D03*
X1739900D02*
D03*
X4546600Y3479800D02*
D03*
Y3225800D02*
D03*
Y2971800D02*
D03*
D25*
X3517900Y3771900D02*
D03*
D26*
X1752600Y2959100D02*
D03*
X3136900Y3213100D02*
D03*
X3835400Y2679700D02*
D03*
Y2336800D02*
D03*
X3682200Y1969300D02*
D03*
X3683000Y1714500D02*
D03*
Y1473200D02*
D03*
X3682200Y1345400D02*
D03*
X3721100Y1092200D02*
D03*
X2336800Y749300D02*
D03*
X2184400Y901700D02*
D03*
X1651000Y1358900D02*
D03*
X1422400Y1816100D02*
D03*
X1358900Y2082800D02*
D03*
X1347000Y2223300D02*
D03*
X2641600Y3048000D02*
D03*
X2767800Y2832900D02*
D03*
X1816100Y2705100D02*
D03*
X2044700Y2578100D02*
D03*
X3161500Y3009100D02*
D03*
X3073400Y2730500D02*
D03*
X1981200Y1866900D02*
D03*
X2021700Y2157920D02*
D03*
X1738300Y2046300D02*
D03*
X3517100Y2069300D02*
D03*
X1981200Y1689100D02*
D03*
X2044700Y1231900D02*
D03*
X3670300Y2590800D02*
D03*
X3251200Y2019300D02*
D03*
X3390900Y2400300D02*
D03*
X3504400Y2628100D02*
D03*
X3251200Y1841500D02*
D03*
X3504400Y1853400D02*
D03*
X2870200Y1473200D02*
D03*
X2413000Y1460500D02*
D03*
X2556140Y1490003D02*
D03*
X2439200Y1207300D02*
D03*
X2185200Y1321600D02*
D03*
X2171700Y1511300D02*
D03*
X2687300Y807700D02*
D03*
X3200400Y647700D02*
D03*
X2780500Y1093000D02*
D03*
X3288500Y1245400D02*
D03*
X3048000Y1587500D02*
D03*
X1715300Y1689900D02*
D03*
X1601000Y2323300D02*
D03*
X1701800Y2476500D02*
D03*
X1918500Y2590000D02*
D03*
D27*
X2399900Y2293700D02*
D03*
X2509900D02*
D03*
X2619900D02*
D03*
X2729900D02*
D03*
X2839900D02*
D03*
X2399900Y2183700D02*
D03*
X2509900D02*
D03*
X2619900D02*
D03*
X2729900D02*
D03*
X2839900D02*
D03*
X2399900Y2073700D02*
D03*
X2509900D02*
D03*
X2619900D02*
D03*
X2729900D02*
D03*
X2839900D02*
D03*
X2399900Y1963700D02*
D03*
X2509900D02*
D03*
X2619900D02*
D03*
X2729900D02*
D03*
X2839900D02*
D03*
X2399900Y1853700D02*
D03*
X2509900D02*
D03*
X2619900D02*
D03*
X2729900D02*
D03*
X2839900D02*
D03*
%TF.MD5,c9c2847d34a6c004c43fc334116fbd69*%
M02*
