%TF.GenerationSoftware,Altium Limited,Altium Designer,22.9.1 (49)*%
G04 Layer_Color=255*
%FSLAX45Y45*%
%MOMM*%
%TF.SameCoordinates,B14F6F0A-716E-4177-8A15-EB0EAC97BD69*%
%TF.FilePolarity,Positive*%
%TF.FileFunction,Pads,Top*%
%TF.Part,Single*%
G01*
G75*
%TA.AperFunction,SMDPad,CuDef*%
%ADD10R,1.40000X1.20000*%
%ADD11R,0.50000X0.60000*%
%ADD12O,0.80000X0.25000*%
%ADD13O,0.25000X0.80000*%
%ADD14R,6.10000X6.10000*%
%ADD15R,0.60000X0.50000*%
%TA.AperFunction,ComponentPad*%
%ADD17R,1.50000X1.50000*%
%ADD18C,1.50000*%
%ADD19R,1.50000X1.50000*%
D10*
X2832100Y807700D02*
D03*
Y647700D02*
D03*
X3052100D02*
D03*
Y807700D02*
D03*
D11*
X2996400Y977900D02*
D03*
X2896400D02*
D03*
X1967700Y2324100D02*
D03*
X1867700D02*
D03*
X3237700Y1092200D02*
D03*
X3137700D02*
D03*
X3315500Y1473200D02*
D03*
X3415500D02*
D03*
X3086900D02*
D03*
X3186900D02*
D03*
X1918500Y2451100D02*
D03*
X2018500D02*
D03*
X1931200Y2705100D02*
D03*
X2031200D02*
D03*
X3161500Y2882900D02*
D03*
X3061500D02*
D03*
X2780500Y1206500D02*
D03*
X2680500D02*
D03*
X2439200Y1333500D02*
D03*
X2539200D02*
D03*
D12*
X2229900Y2398700D02*
D03*
Y2348700D02*
D03*
Y2298700D02*
D03*
Y2248700D02*
D03*
Y2198700D02*
D03*
Y2148700D02*
D03*
Y2098700D02*
D03*
Y2048700D02*
D03*
Y1998700D02*
D03*
Y1948700D02*
D03*
Y1898700D02*
D03*
Y1848700D02*
D03*
Y1798700D02*
D03*
Y1748700D02*
D03*
X3009900D02*
D03*
Y1798700D02*
D03*
Y1848700D02*
D03*
Y1898700D02*
D03*
Y1948700D02*
D03*
Y1998700D02*
D03*
Y2048700D02*
D03*
Y2098700D02*
D03*
Y2148700D02*
D03*
Y2198700D02*
D03*
Y2248700D02*
D03*
Y2298700D02*
D03*
Y2348700D02*
D03*
Y2398700D02*
D03*
D13*
X2294900Y1683700D02*
D03*
X2344900D02*
D03*
X2394900D02*
D03*
X2444900D02*
D03*
X2494900D02*
D03*
X2544900D02*
D03*
X2594900D02*
D03*
X2644900D02*
D03*
X2694900D02*
D03*
X2744900D02*
D03*
X2794900D02*
D03*
X2844900D02*
D03*
X2894900D02*
D03*
X2944900D02*
D03*
Y2463700D02*
D03*
X2894900D02*
D03*
X2844900D02*
D03*
X2794900D02*
D03*
X2744900D02*
D03*
X2694900D02*
D03*
X2644900D02*
D03*
X2594900D02*
D03*
X2544900D02*
D03*
X2494900D02*
D03*
X2444900D02*
D03*
X2394900D02*
D03*
X2344900D02*
D03*
X2294900D02*
D03*
D14*
X2619900Y2073700D02*
D03*
D15*
X2311400Y1421600D02*
D03*
Y1321600D02*
D03*
X2044700Y1347000D02*
D03*
Y1447000D02*
D03*
X3594100Y2475700D02*
D03*
Y2375700D02*
D03*
X3390900Y2628100D02*
D03*
Y2528100D02*
D03*
X3378200Y2069300D02*
D03*
Y1969300D02*
D03*
Y1853400D02*
D03*
Y1753400D02*
D03*
X3162300Y1245400D02*
D03*
Y1345400D02*
D03*
X1866900Y1689900D02*
D03*
Y1789900D02*
D03*
X1879600Y2046300D02*
D03*
Y2146300D02*
D03*
X1739900Y2323300D02*
D03*
Y2223300D02*
D03*
X2641600Y2932900D02*
D03*
Y2832900D02*
D03*
D17*
X825500Y3314700D02*
D03*
X4546600Y1524000D02*
D03*
Y2286000D02*
D03*
X279400Y2006600D02*
D03*
Y1295400D02*
D03*
X4546600Y2717800D02*
D03*
D18*
X825500Y3060700D02*
D03*
Y2806700D02*
D03*
X4546600Y1270000D02*
D03*
Y2032000D02*
D03*
X279400Y1752600D02*
D03*
Y1041400D02*
D03*
X3263900Y3771900D02*
D03*
X3009900D02*
D03*
X2755900D02*
D03*
X2501900D02*
D03*
X2247900D02*
D03*
X1993900D02*
D03*
X1739900D02*
D03*
X4546600Y3479800D02*
D03*
Y3225800D02*
D03*
Y2971800D02*
D03*
D19*
X3517900Y3771900D02*
D03*
%TF.MD5,7fd20272e806830a609126b7554a2175*%
M02*
