G04*
G04 #@! TF.GenerationSoftware,Altium Limited,Altium Designer,22.9.1 (49)*
G04*
G04 Layer_Color=255*
%FSLAX44Y44*%
%MOMM*%
G71*
G04*
G04 #@! TF.SameCoordinates,544A37EE-08D3-4304-B61F-9C5D6A74D4DB*
G04*
G04*
G04 #@! TF.FilePolarity,Positive*
G04*
G01*
G75*
%ADD86C,1.1000*%
%ADD87C,1.3000*%
%ADD88O,3.1999X3.2000*%
%ADD89C,1.7780*%
%ADD90R,1.5000X1.5000*%
%ADD91C,1.5000*%
%ADD92C,2.3000*%
%ADD93R,1.5080X1.5080*%
%ADD94C,7.5000*%
%ADD95C,2.5000*%
D86*
X779780Y514350D02*
D03*
Y488950D02*
D03*
Y463550D02*
D03*
X830580Y514350D02*
D03*
Y463550D02*
D03*
X204940Y248920D02*
D03*
X154940D02*
D03*
X311620D02*
D03*
X261620D02*
D03*
D87*
X568960Y676910D02*
D03*
Y549910D02*
D03*
X492760Y676910D02*
D03*
Y549910D02*
D03*
X416560Y676910D02*
D03*
Y549910D02*
D03*
X568960Y880110D02*
D03*
Y753110D02*
D03*
X492760Y880110D02*
D03*
Y753110D02*
D03*
X416560Y880110D02*
D03*
Y753110D02*
D03*
X568960Y1083310D02*
D03*
Y956310D02*
D03*
X492760Y1083310D02*
D03*
Y956310D02*
D03*
X416560Y1083310D02*
D03*
Y956310D02*
D03*
X568960Y1286510D02*
D03*
Y1159510D02*
D03*
X492760Y1286510D02*
D03*
Y1159510D02*
D03*
X416560Y1286510D02*
D03*
Y1159510D02*
D03*
X715010Y1160780D02*
D03*
Y1135380D02*
D03*
Y665480D02*
D03*
Y640080D02*
D03*
Y995680D02*
D03*
Y970280D02*
D03*
Y830580D02*
D03*
Y805180D02*
D03*
D88*
X662940Y67310D02*
D03*
D89*
X624840Y168910D02*
D03*
X650240D02*
D03*
X675640D02*
D03*
X701040D02*
D03*
D90*
X398780Y166370D02*
D03*
D91*
X424180D02*
D03*
D92*
X151130Y481340D02*
D03*
Y434340D02*
D03*
Y387340D02*
D03*
X24130Y408940D02*
D03*
Y459740D02*
D03*
D93*
X857250Y405130D02*
D03*
X831850D02*
D03*
X806450D02*
D03*
X781050D02*
D03*
X755650D02*
D03*
X730250D02*
D03*
X704850D02*
D03*
X679450D02*
D03*
X654050D02*
D03*
X628650D02*
D03*
X603250D02*
D03*
X577850D02*
D03*
X552450D02*
D03*
X527050D02*
D03*
X501650D02*
D03*
X476250D02*
D03*
X450850D02*
D03*
X425450D02*
D03*
X400050D02*
D03*
X374650D02*
D03*
X857250Y227330D02*
D03*
X831850D02*
D03*
X806450D02*
D03*
X781050D02*
D03*
X755650D02*
D03*
X730250D02*
D03*
X704850D02*
D03*
X679450D02*
D03*
X654050D02*
D03*
X628650D02*
D03*
X603250D02*
D03*
X577850D02*
D03*
X552450D02*
D03*
X527050D02*
D03*
X501650D02*
D03*
X476250D02*
D03*
X450850D02*
D03*
X425450D02*
D03*
X400050D02*
D03*
X374650D02*
D03*
D94*
X824230Y67310D02*
D03*
X72390Y72390D02*
D03*
Y1270000D02*
D03*
X824230D02*
D03*
D95*
X765810Y1186180D02*
D03*
Y1084580D02*
D03*
Y690880D02*
D03*
Y589280D02*
D03*
Y1021080D02*
D03*
Y919480D02*
D03*
Y855980D02*
D03*
Y754380D02*
D03*
M02*
