G04*
G04 #@! TF.GenerationSoftware,Altium Limited,Altium Designer,22.9.1 (49)*
G04*
G04 Layer_Physical_Order=3*
G04 Layer_Color=16711680*
%FSLAX44Y44*%
%MOMM*%
G71*
G04*
G04 #@! TF.SameCoordinates,544A37EE-08D3-4304-B61F-9C5D6A74D4DB*
G04*
G04*
G04 #@! TF.FilePolarity,Positive*
G04*
G01*
G75*
%ADD86C,1.1000*%
%ADD87C,1.3000*%
%ADD89C,1.7780*%
%ADD91C,1.5000*%
%ADD92C,2.3000*%
%ADD95C,2.5000*%
%ADD96C,0.6350*%
%ADD97C,0.5000*%
%ADD98C,1.2700*%
%ADD99C,1.9050*%
%ADD101C,1.5080*%
G36*
X894581Y1297095D02*
Y45295D01*
X851325Y2039D01*
X45295D01*
X2039Y45295D01*
Y1297095D01*
X45295Y1340351D01*
X851325D01*
X894581Y1297095D01*
D02*
G37*
%LPC*%
G36*
X255734Y1307045D02*
X253966D01*
X252332Y1306368D01*
X251082Y1305118D01*
X250405Y1303484D01*
Y1301716D01*
X251082Y1300082D01*
X252332Y1298832D01*
X253966Y1298155D01*
X255734D01*
X257368Y1298832D01*
X258618Y1300082D01*
X259295Y1301716D01*
Y1303484D01*
X258618Y1305118D01*
X257368Y1306368D01*
X255734Y1307045D01*
D02*
G37*
G36*
X286634Y1304925D02*
X284866D01*
X283232Y1304248D01*
X281982Y1302998D01*
X281305Y1301364D01*
Y1299596D01*
X281982Y1297962D01*
X283232Y1296712D01*
X284866Y1296035D01*
X286634D01*
X288268Y1296712D01*
X289518Y1297962D01*
X290195Y1299596D01*
Y1301364D01*
X289518Y1302998D01*
X288268Y1304248D01*
X286634Y1304925D01*
D02*
G37*
G36*
X347594Y1299845D02*
X345826D01*
X344192Y1299168D01*
X342942Y1297918D01*
X342265Y1296284D01*
Y1294516D01*
X342942Y1292882D01*
X344192Y1291632D01*
X345826Y1290955D01*
X347594D01*
X349228Y1291632D01*
X350478Y1292882D01*
X351155Y1294516D01*
Y1296284D01*
X350478Y1297918D01*
X349228Y1299168D01*
X347594Y1299845D01*
D02*
G37*
G36*
X569949Y1294026D02*
X567971D01*
X566059Y1293514D01*
X564345Y1292524D01*
X562946Y1291125D01*
X561956Y1289411D01*
X561444Y1287500D01*
Y1285520D01*
X561956Y1283609D01*
X562946Y1281895D01*
X564345Y1280496D01*
X566059Y1279506D01*
X567971Y1278994D01*
X569949D01*
X571861Y1279506D01*
X573575Y1280496D01*
X574974Y1281895D01*
X575964Y1283609D01*
X576476Y1285520D01*
Y1287500D01*
X575964Y1289411D01*
X574974Y1291125D01*
X573575Y1292524D01*
X571861Y1293514D01*
X569949Y1294026D01*
D02*
G37*
G36*
X493750D02*
X491771D01*
X489859Y1293514D01*
X488145Y1292524D01*
X486746Y1291125D01*
X485756Y1289411D01*
X485244Y1287500D01*
Y1285520D01*
X485756Y1283609D01*
X486746Y1281895D01*
X488145Y1280496D01*
X489859Y1279506D01*
X491771Y1278994D01*
X493750D01*
X495661Y1279506D01*
X497375Y1280496D01*
X498774Y1281895D01*
X499764Y1283609D01*
X500276Y1285520D01*
Y1287500D01*
X499764Y1289411D01*
X498774Y1291125D01*
X497375Y1292524D01*
X495661Y1293514D01*
X493750Y1294026D01*
D02*
G37*
G36*
X417550D02*
X415570D01*
X413659Y1293514D01*
X411945Y1292524D01*
X410546Y1291125D01*
X409556Y1289411D01*
X409044Y1287500D01*
Y1285520D01*
X409556Y1283609D01*
X410546Y1281895D01*
X411945Y1280496D01*
X413659Y1279506D01*
X415570Y1278994D01*
X417550D01*
X419461Y1279506D01*
X421175Y1280496D01*
X422574Y1281895D01*
X423564Y1283609D01*
X424076Y1285520D01*
Y1287500D01*
X423564Y1289411D01*
X422574Y1291125D01*
X421175Y1292524D01*
X419461Y1293514D01*
X417550Y1294026D01*
D02*
G37*
G36*
X186304Y1279525D02*
X184536D01*
X182902Y1278848D01*
X181652Y1277598D01*
X180975Y1275964D01*
Y1274196D01*
X181652Y1272562D01*
X182902Y1271312D01*
X184536Y1270635D01*
X186304D01*
X187938Y1271312D01*
X189188Y1272562D01*
X189865Y1274196D01*
Y1275964D01*
X189188Y1277598D01*
X187938Y1278848D01*
X186304Y1279525D01*
D02*
G37*
G36*
X187574Y1268095D02*
X185806D01*
X184172Y1267418D01*
X182922Y1266168D01*
X182245Y1264534D01*
Y1262766D01*
X182922Y1261132D01*
X184172Y1259882D01*
X185806Y1259205D01*
X187574D01*
X189208Y1259882D01*
X190458Y1261132D01*
X191135Y1262766D01*
Y1264534D01*
X190458Y1266168D01*
X189208Y1267418D01*
X187574Y1268095D01*
D02*
G37*
G36*
X346324Y1260475D02*
X344556D01*
X342922Y1259798D01*
X341672Y1258548D01*
X340995Y1256914D01*
Y1255146D01*
X341672Y1253512D01*
X342922Y1252262D01*
X344556Y1251585D01*
X346324D01*
X347958Y1252262D01*
X349208Y1253512D01*
X349885Y1255146D01*
Y1256914D01*
X349208Y1258548D01*
X347958Y1259798D01*
X346324Y1260475D01*
D02*
G37*
G36*
X187574Y1255395D02*
X185806D01*
X184172Y1254718D01*
X182922Y1253468D01*
X182245Y1251834D01*
Y1250066D01*
X182922Y1248432D01*
X184172Y1247182D01*
X185806Y1246505D01*
X187574D01*
X189208Y1247182D01*
X190458Y1248432D01*
X191135Y1250066D01*
Y1251834D01*
X190458Y1253468D01*
X189208Y1254718D01*
X187574Y1255395D01*
D02*
G37*
G36*
X826692Y1295000D02*
X821768D01*
X816938Y1294039D01*
X812388Y1292155D01*
X808293Y1289419D01*
X804811Y1285937D01*
X802075Y1281842D01*
X800191Y1277292D01*
X799230Y1272462D01*
Y1267538D01*
X800191Y1262708D01*
X802075Y1258158D01*
X804811Y1254063D01*
X808293Y1250581D01*
X812388Y1247845D01*
X816938Y1245961D01*
X821768Y1245000D01*
X826692D01*
X831522Y1245961D01*
X836072Y1247845D01*
X840167Y1250581D01*
X843649Y1254063D01*
X846385Y1258158D01*
X848269Y1262708D01*
X849230Y1267538D01*
Y1272462D01*
X848269Y1277292D01*
X846385Y1281842D01*
X843649Y1285937D01*
X840167Y1289419D01*
X836072Y1292155D01*
X831522Y1294039D01*
X826692Y1295000D01*
D02*
G37*
G36*
X74852D02*
X69928D01*
X65098Y1294039D01*
X60548Y1292155D01*
X56453Y1289419D01*
X52971Y1285937D01*
X50235Y1281842D01*
X48351Y1277292D01*
X47390Y1272462D01*
Y1267538D01*
X48351Y1262708D01*
X50235Y1258158D01*
X52971Y1254063D01*
X56453Y1250581D01*
X60548Y1247845D01*
X65098Y1245961D01*
X69928Y1245000D01*
X74852D01*
X79682Y1245961D01*
X84232Y1247845D01*
X88327Y1250581D01*
X91809Y1254063D01*
X94545Y1258158D01*
X96429Y1262708D01*
X97390Y1267538D01*
Y1272462D01*
X96429Y1277292D01*
X94545Y1281842D01*
X91809Y1285937D01*
X88327Y1289419D01*
X84232Y1292155D01*
X79682Y1294039D01*
X74852Y1295000D01*
D02*
G37*
G36*
X693924Y1224785D02*
X692156D01*
X690522Y1224108D01*
X689272Y1222858D01*
X688595Y1221224D01*
Y1219456D01*
X689272Y1217822D01*
X690522Y1216572D01*
X692156Y1215895D01*
X693924D01*
X695558Y1216572D01*
X696808Y1217822D01*
X697485Y1219456D01*
Y1221224D01*
X696808Y1222858D01*
X695558Y1224108D01*
X693924Y1224785D01*
D02*
G37*
G36*
X630914Y1223245D02*
X629146D01*
X627512Y1222568D01*
X626262Y1221318D01*
X625585Y1219684D01*
Y1217916D01*
X626262Y1216282D01*
X627512Y1215032D01*
X629146Y1214355D01*
X630914D01*
X632548Y1215032D01*
X633798Y1216282D01*
X634475Y1217916D01*
Y1219684D01*
X633798Y1221318D01*
X632548Y1222568D01*
X630914Y1223245D01*
D02*
G37*
G36*
X325204Y1219365D02*
X323436D01*
X321802Y1218688D01*
X320552Y1217438D01*
X319875Y1215804D01*
Y1214036D01*
X320552Y1212402D01*
X321802Y1211152D01*
X323436Y1210475D01*
X325204D01*
X326838Y1211152D01*
X328088Y1212402D01*
X328765Y1214036D01*
Y1215804D01*
X328088Y1217438D01*
X326838Y1218688D01*
X325204Y1219365D01*
D02*
G37*
G36*
X630804Y1212975D02*
X629036D01*
X627402Y1212298D01*
X626152Y1211048D01*
X625475Y1209414D01*
Y1207646D01*
X626152Y1206012D01*
X627402Y1204762D01*
X629036Y1204085D01*
X630804D01*
X632438Y1204762D01*
X633688Y1206012D01*
X634365Y1207646D01*
Y1209414D01*
X633688Y1211048D01*
X632438Y1212298D01*
X630804Y1212975D01*
D02*
G37*
G36*
X679064Y1196465D02*
X677296D01*
X675662Y1195788D01*
X674412Y1194538D01*
X673735Y1192904D01*
Y1191136D01*
X674412Y1189502D01*
X675662Y1188252D01*
X677296Y1187575D01*
X679064D01*
X680698Y1188252D01*
X681948Y1189502D01*
X682625Y1191136D01*
Y1192904D01*
X681948Y1194538D01*
X680698Y1195788D01*
X679064Y1196465D01*
D02*
G37*
G36*
X767589Y1199696D02*
X766318D01*
Y1186688D01*
X779326D01*
Y1187959D01*
X778405Y1191397D01*
X776626Y1194479D01*
X774109Y1196995D01*
X771027Y1198775D01*
X767589Y1199696D01*
D02*
G37*
G36*
X765302D02*
X764031D01*
X760593Y1198775D01*
X757511Y1196995D01*
X754995Y1194479D01*
X753215Y1191397D01*
X752294Y1187959D01*
Y1186688D01*
X765302D01*
Y1199696D01*
D02*
G37*
G36*
X107644Y1194355D02*
X105876D01*
X104242Y1193678D01*
X102992Y1192428D01*
X102315Y1190794D01*
Y1189026D01*
X102992Y1187392D01*
X104242Y1186142D01*
X105876Y1185465D01*
X107644D01*
X109278Y1186142D01*
X110528Y1187392D01*
X111205Y1189026D01*
Y1190794D01*
X110528Y1192428D01*
X109278Y1193678D01*
X107644Y1194355D01*
D02*
G37*
G36*
X338324Y1193545D02*
X336556D01*
X334922Y1192868D01*
X333672Y1191618D01*
X332995Y1189984D01*
Y1188216D01*
X333672Y1186582D01*
X334922Y1185332D01*
X336556Y1184655D01*
X338324D01*
X339958Y1185332D01*
X341208Y1186582D01*
X341885Y1188216D01*
Y1189984D01*
X341208Y1191618D01*
X339958Y1192868D01*
X338324Y1193545D01*
D02*
G37*
G36*
X217674D02*
X215906D01*
X214272Y1192868D01*
X213022Y1191618D01*
X212345Y1189984D01*
Y1188216D01*
X213022Y1186582D01*
X214272Y1185332D01*
X215906Y1184655D01*
X217674D01*
X219308Y1185332D01*
X220558Y1186582D01*
X221235Y1188216D01*
Y1189984D01*
X220558Y1191618D01*
X219308Y1192868D01*
X217674Y1193545D01*
D02*
G37*
G36*
X779326Y1185672D02*
X766318D01*
Y1172664D01*
X767589D01*
X771027Y1173585D01*
X774109Y1175365D01*
X776626Y1177881D01*
X778405Y1180963D01*
X779326Y1184401D01*
Y1185672D01*
D02*
G37*
G36*
X765302D02*
X752294D01*
Y1184401D01*
X753215Y1180963D01*
X754995Y1177881D01*
X757511Y1175365D01*
X760593Y1173585D01*
X764031Y1172664D01*
X765302D01*
Y1185672D01*
D02*
G37*
G36*
X201164Y1180845D02*
X199396D01*
X197762Y1180168D01*
X196512Y1178918D01*
X195835Y1177284D01*
Y1175516D01*
X196512Y1173882D01*
X197762Y1172632D01*
X199396Y1171955D01*
X201164D01*
X202798Y1172632D01*
X204048Y1173882D01*
X204725Y1175516D01*
Y1177284D01*
X204048Y1178918D01*
X202798Y1180168D01*
X201164Y1180845D01*
D02*
G37*
G36*
X188464D02*
X186696D01*
X185062Y1180168D01*
X183812Y1178918D01*
X183135Y1177284D01*
Y1175516D01*
X183812Y1173882D01*
X185062Y1172632D01*
X186696Y1171955D01*
X188464D01*
X190098Y1172632D01*
X191348Y1173882D01*
X192025Y1175516D01*
Y1177284D01*
X191348Y1178918D01*
X190098Y1180168D01*
X188464Y1180845D01*
D02*
G37*
G36*
X639694Y1173605D02*
X637926D01*
X636292Y1172928D01*
X635042Y1171678D01*
X634365Y1170044D01*
Y1168276D01*
X635042Y1166642D01*
X636292Y1165392D01*
X637926Y1164715D01*
X639694D01*
X641328Y1165392D01*
X642578Y1166642D01*
X643255Y1168276D01*
Y1170044D01*
X642578Y1171678D01*
X641328Y1172928D01*
X639694Y1173605D01*
D02*
G37*
G36*
X652394Y1172335D02*
X650626D01*
X648992Y1171658D01*
X647742Y1170408D01*
X647065Y1168774D01*
Y1167006D01*
X647742Y1165372D01*
X648992Y1164122D01*
X650626Y1163445D01*
X652394D01*
X654028Y1164122D01*
X655278Y1165372D01*
X655955Y1167006D01*
Y1168774D01*
X655278Y1170408D01*
X654028Y1171658D01*
X652394Y1172335D01*
D02*
G37*
G36*
X154554Y1171575D02*
X152786D01*
X151152Y1170898D01*
X149902Y1169648D01*
X149225Y1168014D01*
Y1166246D01*
X149902Y1164612D01*
X151152Y1163362D01*
X152786Y1162685D01*
X154554D01*
X156188Y1163362D01*
X157438Y1164612D01*
X158115Y1166246D01*
Y1168014D01*
X157438Y1169648D01*
X156188Y1170898D01*
X154554Y1171575D01*
D02*
G37*
G36*
X79624Y1169035D02*
X77856D01*
X76222Y1168358D01*
X74972Y1167108D01*
X74295Y1165474D01*
Y1163706D01*
X74972Y1162072D01*
X76222Y1160822D01*
X77856Y1160145D01*
X79624D01*
X81258Y1160822D01*
X82508Y1162072D01*
X83185Y1163706D01*
Y1165474D01*
X82508Y1167108D01*
X81258Y1168358D01*
X79624Y1169035D01*
D02*
G37*
G36*
X569949Y1167026D02*
X569468D01*
Y1160018D01*
X576476D01*
Y1160499D01*
X575964Y1162411D01*
X574974Y1164125D01*
X573575Y1165524D01*
X571861Y1166514D01*
X569949Y1167026D01*
D02*
G37*
G36*
X568452D02*
X567971D01*
X566059Y1166514D01*
X564345Y1165524D01*
X562946Y1164125D01*
X561956Y1162411D01*
X561444Y1160499D01*
Y1160018D01*
X568452D01*
Y1167026D01*
D02*
G37*
G36*
X258314Y1164335D02*
X256546D01*
X254912Y1163658D01*
X253662Y1162408D01*
X252985Y1160774D01*
Y1159006D01*
X253662Y1157372D01*
X254912Y1156122D01*
X256546Y1155445D01*
X258314D01*
X259948Y1156122D01*
X261198Y1157372D01*
X261875Y1159006D01*
Y1160774D01*
X261198Y1162408D01*
X259948Y1163658D01*
X258314Y1164335D01*
D02*
G37*
G36*
X716000Y1168296D02*
X714020D01*
X712109Y1167784D01*
X710395Y1166794D01*
X708996Y1165395D01*
X708006Y1163681D01*
X707494Y1161769D01*
Y1159790D01*
X708006Y1157879D01*
X708996Y1156165D01*
X710395Y1154766D01*
X712109Y1153776D01*
X714020Y1153264D01*
X716000D01*
X717911Y1153776D01*
X719625Y1154766D01*
X721024Y1156165D01*
X722014Y1157879D01*
X722526Y1159790D01*
Y1161769D01*
X722014Y1163681D01*
X721024Y1165395D01*
X719625Y1166794D01*
X717911Y1167784D01*
X716000Y1168296D01*
D02*
G37*
G36*
X576476Y1159002D02*
X569468D01*
Y1151994D01*
X569949D01*
X571861Y1152506D01*
X573575Y1153496D01*
X574974Y1154895D01*
X575964Y1156609D01*
X576476Y1158521D01*
Y1159002D01*
D02*
G37*
G36*
X568452D02*
X561444D01*
Y1158521D01*
X561956Y1156609D01*
X562946Y1154895D01*
X564345Y1153496D01*
X566059Y1152506D01*
X567971Y1151994D01*
X568452D01*
Y1159002D01*
D02*
G37*
G36*
X493750Y1167026D02*
X491771D01*
X489859Y1166514D01*
X488145Y1165524D01*
X486746Y1164125D01*
X485756Y1162411D01*
X485244Y1160499D01*
Y1158521D01*
X485756Y1156609D01*
X486746Y1154895D01*
X488145Y1153496D01*
X489859Y1152506D01*
X491771Y1151994D01*
X493750D01*
X495661Y1152506D01*
X497375Y1153496D01*
X498774Y1154895D01*
X499764Y1156609D01*
X500276Y1158521D01*
Y1160499D01*
X499764Y1162411D01*
X498774Y1164125D01*
X497375Y1165524D01*
X495661Y1166514D01*
X493750Y1167026D01*
D02*
G37*
G36*
X417550D02*
X415570D01*
X413659Y1166514D01*
X411945Y1165524D01*
X410546Y1164125D01*
X409556Y1162411D01*
X409044Y1160499D01*
Y1158521D01*
X409556Y1156609D01*
X410546Y1154895D01*
X411945Y1153496D01*
X413659Y1152506D01*
X415570Y1151994D01*
X417550D01*
X419461Y1152506D01*
X421175Y1153496D01*
X422574Y1154895D01*
X423564Y1156609D01*
X424076Y1158521D01*
Y1160499D01*
X423564Y1162411D01*
X422574Y1164125D01*
X421175Y1165524D01*
X419461Y1166514D01*
X417550Y1167026D01*
D02*
G37*
G36*
X665984Y1159255D02*
X664216D01*
X662582Y1158578D01*
X661332Y1157328D01*
X660655Y1155694D01*
Y1153926D01*
X661332Y1152292D01*
X662582Y1151042D01*
X664216Y1150365D01*
X665984D01*
X667618Y1151042D01*
X668868Y1152292D01*
X669545Y1153926D01*
Y1155694D01*
X668868Y1157328D01*
X667618Y1158578D01*
X665984Y1159255D01*
D02*
G37*
G36*
X326894Y1150365D02*
X325126D01*
X323492Y1149688D01*
X322242Y1148438D01*
X321565Y1146804D01*
Y1145036D01*
X322242Y1143402D01*
X323492Y1142152D01*
X325126Y1141475D01*
X326894D01*
X328528Y1142152D01*
X329778Y1143402D01*
X330455Y1145036D01*
Y1146804D01*
X329778Y1148438D01*
X328528Y1149688D01*
X326894Y1150365D01*
D02*
G37*
G36*
X716000Y1142896D02*
X714020D01*
X712109Y1142384D01*
X710395Y1141394D01*
X708996Y1139995D01*
X708006Y1138281D01*
X707494Y1136369D01*
Y1134390D01*
X708006Y1132479D01*
X708996Y1130765D01*
X710395Y1129366D01*
X712109Y1128376D01*
X714020Y1127864D01*
X716000D01*
X717911Y1128376D01*
X719625Y1129366D01*
X721024Y1130765D01*
X722014Y1132479D01*
X722526Y1134390D01*
Y1136369D01*
X722014Y1138281D01*
X721024Y1139995D01*
X719625Y1141394D01*
X717911Y1142384D01*
X716000Y1142896D01*
D02*
G37*
G36*
X129154Y1133475D02*
X127386D01*
X125752Y1132798D01*
X124502Y1131548D01*
X123825Y1129914D01*
Y1128146D01*
X124502Y1126512D01*
X125752Y1125262D01*
X127386Y1124585D01*
X129154D01*
X130788Y1125262D01*
X132038Y1126512D01*
X132715Y1128146D01*
Y1129914D01*
X132038Y1131548D01*
X130788Y1132798D01*
X129154Y1133475D01*
D02*
G37*
G36*
X246884Y1124965D02*
X245116D01*
X243482Y1124288D01*
X242232Y1123038D01*
X241555Y1121404D01*
Y1119636D01*
X242232Y1118002D01*
X243482Y1116752D01*
X245116Y1116075D01*
X246884D01*
X248518Y1116752D01*
X249768Y1118002D01*
X250445Y1119636D01*
Y1121404D01*
X249768Y1123038D01*
X248518Y1124288D01*
X246884Y1124965D01*
D02*
G37*
G36*
X238844Y1115225D02*
X237076D01*
X235442Y1114548D01*
X234192Y1113298D01*
X233515Y1111664D01*
Y1109896D01*
X234192Y1108262D01*
X235442Y1107012D01*
X237076Y1106335D01*
X238844D01*
X240478Y1107012D01*
X241728Y1108262D01*
X242405Y1109896D01*
Y1111664D01*
X241728Y1113298D01*
X240478Y1114548D01*
X238844Y1115225D01*
D02*
G37*
G36*
X73954Y1103585D02*
X72186D01*
X70552Y1102908D01*
X69302Y1101658D01*
X68625Y1100024D01*
Y1098256D01*
X69302Y1096622D01*
X70552Y1095372D01*
X72186Y1094695D01*
X73954D01*
X75588Y1095372D01*
X76838Y1096622D01*
X77515Y1098256D01*
Y1100024D01*
X76838Y1101658D01*
X75588Y1102908D01*
X73954Y1103585D01*
D02*
G37*
G36*
X260004Y1098715D02*
X258236D01*
X256602Y1098038D01*
X255352Y1096788D01*
X254675Y1095154D01*
Y1093386D01*
X255352Y1091752D01*
X256602Y1090502D01*
X258236Y1089825D01*
X260004D01*
X261638Y1090502D01*
X262888Y1091752D01*
X263565Y1093386D01*
Y1095154D01*
X262888Y1096788D01*
X261638Y1098038D01*
X260004Y1098715D01*
D02*
G37*
G36*
X767589Y1098096D02*
X766318D01*
Y1085088D01*
X779326D01*
Y1086359D01*
X778405Y1089797D01*
X776626Y1092879D01*
X774109Y1095396D01*
X771027Y1097175D01*
X767589Y1098096D01*
D02*
G37*
G36*
X765302D02*
X764031D01*
X760593Y1097175D01*
X757511Y1095396D01*
X754995Y1092879D01*
X753215Y1089797D01*
X752294Y1086359D01*
Y1085088D01*
X765302D01*
Y1098096D01*
D02*
G37*
G36*
X569949Y1090826D02*
X567971D01*
X566059Y1090314D01*
X564345Y1089324D01*
X562946Y1087925D01*
X561956Y1086211D01*
X561444Y1084299D01*
Y1082320D01*
X561956Y1080409D01*
X562946Y1078695D01*
X564345Y1077296D01*
X566059Y1076306D01*
X567971Y1075794D01*
X569949D01*
X571861Y1076306D01*
X573575Y1077296D01*
X574974Y1078695D01*
X575964Y1080409D01*
X576476Y1082320D01*
Y1084299D01*
X575964Y1086211D01*
X574974Y1087925D01*
X573575Y1089324D01*
X571861Y1090314D01*
X569949Y1090826D01*
D02*
G37*
G36*
X493750D02*
X491771D01*
X489859Y1090314D01*
X488145Y1089324D01*
X486746Y1087925D01*
X485756Y1086211D01*
X485244Y1084299D01*
Y1082320D01*
X485756Y1080409D01*
X486746Y1078695D01*
X488145Y1077296D01*
X489859Y1076306D01*
X491771Y1075794D01*
X493750D01*
X495661Y1076306D01*
X497375Y1077296D01*
X498774Y1078695D01*
X499764Y1080409D01*
X500276Y1082320D01*
Y1084299D01*
X499764Y1086211D01*
X498774Y1087925D01*
X497375Y1089324D01*
X495661Y1090314D01*
X493750Y1090826D01*
D02*
G37*
G36*
X417550D02*
X415570D01*
X413659Y1090314D01*
X411945Y1089324D01*
X410546Y1087925D01*
X409556Y1086211D01*
X409044Y1084299D01*
Y1082320D01*
X409556Y1080409D01*
X410546Y1078695D01*
X411945Y1077296D01*
X413659Y1076306D01*
X415570Y1075794D01*
X417550D01*
X419461Y1076306D01*
X421175Y1077296D01*
X422574Y1078695D01*
X423564Y1080409D01*
X424076Y1082320D01*
Y1084299D01*
X423564Y1086211D01*
X422574Y1087925D01*
X421175Y1089324D01*
X419461Y1090314D01*
X417550Y1090826D01*
D02*
G37*
G36*
X249424Y1084325D02*
X247656D01*
X246022Y1083648D01*
X244772Y1082398D01*
X244095Y1080764D01*
Y1078996D01*
X244772Y1077362D01*
X246022Y1076112D01*
X247656Y1075435D01*
X249424D01*
X251058Y1076112D01*
X252308Y1077362D01*
X252985Y1078996D01*
Y1080764D01*
X252308Y1082398D01*
X251058Y1083648D01*
X249424Y1084325D01*
D02*
G37*
G36*
X87244Y1081405D02*
X85476D01*
X83842Y1080728D01*
X82592Y1079478D01*
X81915Y1077844D01*
Y1076076D01*
X82592Y1074442D01*
X83842Y1073192D01*
X85476Y1072515D01*
X87244D01*
X88878Y1073192D01*
X90128Y1074442D01*
X90805Y1076076D01*
Y1077844D01*
X90128Y1079478D01*
X88878Y1080728D01*
X87244Y1081405D01*
D02*
G37*
G36*
X779326Y1084072D02*
X766318D01*
Y1071064D01*
X767589D01*
X771027Y1071985D01*
X774109Y1073764D01*
X776626Y1076281D01*
X778405Y1079363D01*
X779326Y1082801D01*
Y1084072D01*
D02*
G37*
G36*
X765302D02*
X752294D01*
Y1082801D01*
X753215Y1079363D01*
X754995Y1076281D01*
X757511Y1073764D01*
X760593Y1071985D01*
X764031Y1071064D01*
X765302D01*
Y1084072D01*
D02*
G37*
G36*
X98674Y1077595D02*
X96906D01*
X95272Y1076918D01*
X94022Y1075668D01*
X93345Y1074034D01*
Y1072266D01*
X94022Y1070632D01*
X95272Y1069382D01*
X96906Y1068705D01*
X98674D01*
X100308Y1069382D01*
X101558Y1070632D01*
X102235Y1072266D01*
Y1074034D01*
X101558Y1075668D01*
X100308Y1076918D01*
X98674Y1077595D01*
D02*
G37*
G36*
X249994Y1068515D02*
X248226D01*
X246592Y1067838D01*
X245342Y1066588D01*
X244665Y1064954D01*
Y1063186D01*
X245342Y1061552D01*
X246592Y1060302D01*
X248226Y1059625D01*
X249994D01*
X251628Y1060302D01*
X252878Y1061552D01*
X253555Y1063186D01*
Y1064954D01*
X252878Y1066588D01*
X251628Y1067838D01*
X249994Y1068515D01*
D02*
G37*
G36*
X177414Y1063625D02*
X175646D01*
X174012Y1062948D01*
X172762Y1061698D01*
X172085Y1060064D01*
Y1058296D01*
X172762Y1056662D01*
X174012Y1055412D01*
X175646Y1054735D01*
X177414D01*
X179048Y1055412D01*
X180298Y1056662D01*
X180975Y1058296D01*
Y1060064D01*
X180298Y1061698D01*
X179048Y1062948D01*
X177414Y1063625D01*
D02*
G37*
G36*
X333864Y1060935D02*
X332096D01*
X330462Y1060258D01*
X329212Y1059008D01*
X328535Y1057374D01*
Y1055606D01*
X329212Y1053972D01*
X330462Y1052722D01*
X332096Y1052045D01*
X333864D01*
X335498Y1052722D01*
X336748Y1053972D01*
X337425Y1055606D01*
Y1057374D01*
X336748Y1059008D01*
X335498Y1060258D01*
X333864Y1060935D01*
D02*
G37*
G36*
X696464Y1051305D02*
X694696D01*
X693062Y1050628D01*
X691812Y1049378D01*
X691135Y1047744D01*
Y1045976D01*
X691812Y1044342D01*
X693062Y1043092D01*
X694696Y1042415D01*
X696464D01*
X698098Y1043092D01*
X699348Y1044342D01*
X700025Y1045976D01*
Y1047744D01*
X699348Y1049378D01*
X698098Y1050628D01*
X696464Y1051305D01*
D02*
G37*
G36*
X633454Y1049765D02*
X631686D01*
X630052Y1049088D01*
X628802Y1047838D01*
X628125Y1046204D01*
Y1044436D01*
X628802Y1042802D01*
X630052Y1041552D01*
X631686Y1040875D01*
X633454D01*
X635088Y1041552D01*
X636338Y1042802D01*
X637015Y1044436D01*
Y1046204D01*
X636338Y1047838D01*
X635088Y1049088D01*
X633454Y1049765D01*
D02*
G37*
G36*
X633344Y1039495D02*
X631576D01*
X629942Y1038818D01*
X628692Y1037568D01*
X628015Y1035934D01*
Y1034166D01*
X628692Y1032532D01*
X629942Y1031282D01*
X631576Y1030605D01*
X633344D01*
X634978Y1031282D01*
X636228Y1032532D01*
X636905Y1034166D01*
Y1035934D01*
X636228Y1037568D01*
X634978Y1038818D01*
X633344Y1039495D01*
D02*
G37*
G36*
X202814Y1038225D02*
X201046D01*
X199412Y1037548D01*
X198162Y1036298D01*
X197485Y1034664D01*
Y1032896D01*
X198162Y1031262D01*
X199412Y1030012D01*
X201046Y1029335D01*
X202814D01*
X204448Y1030012D01*
X205698Y1031262D01*
X206375Y1032896D01*
Y1034664D01*
X205698Y1036298D01*
X204448Y1037548D01*
X202814Y1038225D01*
D02*
G37*
G36*
X100024Y1036875D02*
X98256D01*
X96622Y1036198D01*
X95372Y1034948D01*
X94695Y1033314D01*
Y1031546D01*
X95372Y1029912D01*
X96622Y1028662D01*
X98256Y1027985D01*
X100024D01*
X101658Y1028662D01*
X102908Y1029912D01*
X103585Y1031546D01*
Y1033314D01*
X102908Y1034948D01*
X101658Y1036198D01*
X100024Y1036875D01*
D02*
G37*
G36*
X346984Y1035115D02*
X345216D01*
X343582Y1034438D01*
X342332Y1033188D01*
X341655Y1031554D01*
Y1029786D01*
X342332Y1028152D01*
X343582Y1026902D01*
X345216Y1026225D01*
X346984D01*
X348618Y1026902D01*
X349868Y1028152D01*
X350545Y1029786D01*
Y1031554D01*
X349868Y1033188D01*
X348618Y1034438D01*
X346984Y1035115D01*
D02*
G37*
G36*
X226334D02*
X224566D01*
X222932Y1034438D01*
X221682Y1033188D01*
X221005Y1031554D01*
Y1029786D01*
X221682Y1028152D01*
X222932Y1026902D01*
X224566Y1026225D01*
X226334D01*
X227968Y1026902D01*
X229218Y1028152D01*
X229895Y1029786D01*
Y1031554D01*
X229218Y1033188D01*
X227968Y1034438D01*
X226334Y1035115D01*
D02*
G37*
G36*
X767589Y1034596D02*
X766318D01*
Y1021588D01*
X779326D01*
Y1022859D01*
X778405Y1026297D01*
X776626Y1029379D01*
X774109Y1031896D01*
X771027Y1033675D01*
X767589Y1034596D01*
D02*
G37*
G36*
X765302D02*
X764031D01*
X760593Y1033675D01*
X757511Y1031896D01*
X754995Y1029379D01*
X753215Y1026297D01*
X752294Y1022859D01*
Y1021588D01*
X765302D01*
Y1034596D01*
D02*
G37*
G36*
X681604Y1022985D02*
X679836D01*
X678202Y1022308D01*
X676952Y1021058D01*
X676275Y1019424D01*
Y1017656D01*
X676952Y1016022D01*
X678202Y1014772D01*
X679836Y1014095D01*
X681604D01*
X683238Y1014772D01*
X684488Y1016022D01*
X685165Y1017656D01*
Y1019424D01*
X684488Y1021058D01*
X683238Y1022308D01*
X681604Y1022985D01*
D02*
G37*
G36*
X209824Y1022415D02*
X208056D01*
X206422Y1021738D01*
X205172Y1020488D01*
X204495Y1018854D01*
Y1017086D01*
X205172Y1015452D01*
X206422Y1014202D01*
X208056Y1013525D01*
X209824D01*
X211458Y1014202D01*
X212708Y1015452D01*
X213385Y1017086D01*
Y1018854D01*
X212708Y1020488D01*
X211458Y1021738D01*
X209824Y1022415D01*
D02*
G37*
G36*
X197124D02*
X195356D01*
X193722Y1021738D01*
X192472Y1020488D01*
X191795Y1018854D01*
Y1017086D01*
X192472Y1015452D01*
X193722Y1014202D01*
X195356Y1013525D01*
X197124D01*
X198758Y1014202D01*
X200008Y1015452D01*
X200685Y1017086D01*
Y1018854D01*
X200008Y1020488D01*
X198758Y1021738D01*
X197124Y1022415D01*
D02*
G37*
G36*
X779326Y1020572D02*
X766318D01*
Y1007564D01*
X767589D01*
X771027Y1008485D01*
X774109Y1010265D01*
X776626Y1012781D01*
X778405Y1015863D01*
X779326Y1019301D01*
Y1020572D01*
D02*
G37*
G36*
X765302D02*
X752294D01*
Y1019301D01*
X753215Y1015863D01*
X754995Y1012781D01*
X757511Y1010265D01*
X760593Y1008485D01*
X764031Y1007564D01*
X765302D01*
Y1020572D01*
D02*
G37*
G36*
X157094Y1010285D02*
X155326D01*
X153692Y1009608D01*
X152442Y1008358D01*
X151765Y1006724D01*
Y1004956D01*
X152257Y1003769D01*
X151088Y1003278D01*
X150574Y1003792D01*
X149838Y1004528D01*
X148204Y1005205D01*
X146436D01*
X144802Y1004528D01*
X143552Y1003278D01*
X142875Y1001644D01*
Y999876D01*
X143545Y998259D01*
X143514Y998189D01*
X142808Y997190D01*
X141854Y997585D01*
X140086D01*
X138452Y996908D01*
X137202Y995658D01*
X136525Y994024D01*
Y992256D01*
X137202Y990622D01*
X138452Y989372D01*
X140086Y988695D01*
X141854D01*
X143488Y989372D01*
X144738Y990622D01*
X145415Y992256D01*
Y994024D01*
X144746Y995641D01*
X144776Y995711D01*
X145482Y996710D01*
X146436Y996315D01*
X148204D01*
X149838Y996992D01*
X151088Y998242D01*
X151765Y999876D01*
Y1001644D01*
X151273Y1002831D01*
X152442Y1003322D01*
X152956Y1002808D01*
X153692Y1002072D01*
X155326Y1001395D01*
X157094D01*
X158728Y1002072D01*
X159978Y1003322D01*
X160655Y1004956D01*
Y1006724D01*
X159978Y1008358D01*
X158728Y1009608D01*
X157094Y1010285D01*
D02*
G37*
G36*
X72004Y1011555D02*
X70236D01*
X68602Y1010878D01*
X67352Y1009628D01*
X66675Y1007994D01*
Y1006226D01*
X67352Y1004592D01*
X68602Y1003342D01*
X70236Y1002665D01*
X72004D01*
X73638Y1003342D01*
X74888Y1004592D01*
X75565Y1006226D01*
Y1007994D01*
X74888Y1009628D01*
X73638Y1010878D01*
X72004Y1011555D01*
D02*
G37*
G36*
X266974Y1005905D02*
X265206D01*
X263572Y1005228D01*
X262322Y1003978D01*
X261645Y1002344D01*
Y1000576D01*
X262322Y998942D01*
X263572Y997692D01*
X265206Y997015D01*
X266974D01*
X268608Y997692D01*
X269858Y998942D01*
X270535Y1000576D01*
Y1002344D01*
X269858Y1003978D01*
X268608Y1005228D01*
X266974Y1005905D01*
D02*
G37*
G36*
X642234Y1000125D02*
X640466D01*
X638832Y999448D01*
X637582Y998198D01*
X636905Y996564D01*
Y994796D01*
X637582Y993162D01*
X638832Y991912D01*
X640466Y991235D01*
X642234D01*
X643868Y991912D01*
X645118Y993162D01*
X645795Y994796D01*
Y996564D01*
X645118Y998198D01*
X643868Y999448D01*
X642234Y1000125D01*
D02*
G37*
G36*
X654934Y998855D02*
X653166D01*
X651532Y998178D01*
X650282Y996928D01*
X649605Y995294D01*
Y993526D01*
X650282Y991892D01*
X651532Y990642D01*
X653166Y989965D01*
X654934D01*
X656568Y990642D01*
X657818Y991892D01*
X658495Y993526D01*
Y995294D01*
X657818Y996928D01*
X656568Y998178D01*
X654934Y998855D01*
D02*
G37*
G36*
X716000Y1003196D02*
X714020D01*
X712109Y1002684D01*
X710395Y1001694D01*
X708996Y1000295D01*
X708006Y998581D01*
X707494Y996669D01*
Y994690D01*
X708006Y992779D01*
X708996Y991065D01*
X710395Y989666D01*
X712109Y988676D01*
X714020Y988164D01*
X716000D01*
X717911Y988676D01*
X719625Y989666D01*
X721024Y991065D01*
X722014Y992779D01*
X722526Y994690D01*
Y996669D01*
X722014Y998581D01*
X721024Y1000295D01*
X719625Y1001694D01*
X717911Y1002684D01*
X716000Y1003196D01*
D02*
G37*
G36*
X335554Y991935D02*
X333786D01*
X332152Y991258D01*
X330902Y990008D01*
X330225Y988374D01*
Y986606D01*
X330902Y984972D01*
X332152Y983722D01*
X333786Y983045D01*
X335554D01*
X337188Y983722D01*
X338438Y984972D01*
X339115Y986606D01*
Y988374D01*
X338438Y990008D01*
X337188Y991258D01*
X335554Y991935D01*
D02*
G37*
G36*
X668524Y985775D02*
X666756D01*
X665122Y985098D01*
X663872Y983848D01*
X663195Y982214D01*
Y980446D01*
X663872Y978812D01*
X665122Y977562D01*
X666756Y976885D01*
X668524D01*
X670158Y977562D01*
X671408Y978812D01*
X672085Y980446D01*
Y982214D01*
X671408Y983848D01*
X670158Y985098D01*
X668524Y985775D01*
D02*
G37*
G36*
X121534Y975995D02*
X119766D01*
X118132Y975318D01*
X116882Y974068D01*
X116205Y972434D01*
Y970666D01*
X116882Y969032D01*
X118132Y967782D01*
X119766Y967105D01*
X121534D01*
X123168Y967782D01*
X124418Y969032D01*
X125095Y970666D01*
Y972434D01*
X124418Y974068D01*
X123168Y975318D01*
X121534Y975995D01*
D02*
G37*
G36*
X716000Y977796D02*
X714020D01*
X712109Y977284D01*
X710395Y976294D01*
X708996Y974895D01*
X708006Y973181D01*
X707494Y971270D01*
Y969290D01*
X708006Y967379D01*
X708996Y965665D01*
X710395Y964266D01*
X712109Y963276D01*
X714020Y962764D01*
X716000D01*
X717911Y963276D01*
X719625Y964266D01*
X721024Y965665D01*
X722014Y967379D01*
X722526Y969290D01*
Y971270D01*
X722014Y973181D01*
X721024Y974895D01*
X719625Y976294D01*
X717911Y977284D01*
X716000Y977796D01*
D02*
G37*
G36*
X255544Y966535D02*
X253776D01*
X252142Y965858D01*
X250892Y964608D01*
X250215Y962974D01*
Y961206D01*
X250892Y959572D01*
X252142Y958322D01*
X253776Y957645D01*
X255544D01*
X257178Y958322D01*
X258428Y959572D01*
X259105Y961206D01*
Y962974D01*
X258428Y964608D01*
X257178Y965858D01*
X255544Y966535D01*
D02*
G37*
G36*
X569949Y963826D02*
X569468D01*
Y956818D01*
X576476D01*
Y957299D01*
X575964Y959211D01*
X574974Y960925D01*
X573575Y962324D01*
X571861Y963314D01*
X569949Y963826D01*
D02*
G37*
G36*
X568452D02*
X567971D01*
X566059Y963314D01*
X564345Y962324D01*
X562946Y960925D01*
X561956Y959211D01*
X561444Y957299D01*
Y956818D01*
X568452D01*
Y963826D01*
D02*
G37*
G36*
X576476Y955802D02*
X569468D01*
Y948794D01*
X569949D01*
X571861Y949306D01*
X573575Y950296D01*
X574974Y951695D01*
X575964Y953409D01*
X576476Y955321D01*
Y955802D01*
D02*
G37*
G36*
X568452D02*
X561444D01*
Y955321D01*
X561956Y953409D01*
X562946Y951695D01*
X564345Y950296D01*
X566059Y949306D01*
X567971Y948794D01*
X568452D01*
Y955802D01*
D02*
G37*
G36*
X493750Y963826D02*
X491771D01*
X489859Y963314D01*
X488145Y962324D01*
X486746Y960925D01*
X485756Y959211D01*
X485244Y957299D01*
Y955321D01*
X485756Y953409D01*
X486746Y951695D01*
X488145Y950296D01*
X489859Y949306D01*
X491771Y948794D01*
X493750D01*
X495661Y949306D01*
X497375Y950296D01*
X498774Y951695D01*
X499764Y953409D01*
X500276Y955321D01*
Y957299D01*
X499764Y959211D01*
X498774Y960925D01*
X497375Y962324D01*
X495661Y963314D01*
X493750Y963826D01*
D02*
G37*
G36*
X417550D02*
X415570D01*
X413659Y963314D01*
X411945Y962324D01*
X410546Y960925D01*
X409556Y959211D01*
X409044Y957299D01*
Y955321D01*
X409556Y953409D01*
X410546Y951695D01*
X411945Y950296D01*
X413659Y949306D01*
X415570Y948794D01*
X417550D01*
X419461Y949306D01*
X421175Y950296D01*
X422574Y951695D01*
X423564Y953409D01*
X424076Y955321D01*
Y957299D01*
X423564Y959211D01*
X422574Y960925D01*
X421175Y962324D01*
X419461Y963314D01*
X417550Y963826D01*
D02*
G37*
G36*
X247504Y956795D02*
X245736D01*
X244102Y956118D01*
X242852Y954868D01*
X242175Y953234D01*
Y951466D01*
X242852Y949832D01*
X244102Y948582D01*
X245736Y947905D01*
X247504D01*
X249138Y948582D01*
X250388Y949832D01*
X251065Y951466D01*
Y953234D01*
X250388Y954868D01*
X249138Y956118D01*
X247504Y956795D01*
D02*
G37*
G36*
X66334Y946105D02*
X64566D01*
X62932Y945428D01*
X61682Y944178D01*
X61005Y942544D01*
Y940776D01*
X61682Y939142D01*
X62932Y937892D01*
X64566Y937215D01*
X66334D01*
X67968Y937892D01*
X69218Y939142D01*
X69895Y940776D01*
Y942544D01*
X69218Y944178D01*
X67968Y945428D01*
X66334Y946105D01*
D02*
G37*
G36*
X268664Y940285D02*
X266896D01*
X265262Y939608D01*
X264012Y938358D01*
X263335Y936724D01*
Y934956D01*
X264012Y933322D01*
X265262Y932072D01*
X266896Y931395D01*
X268664D01*
X270298Y932072D01*
X271548Y933322D01*
X272225Y934956D01*
Y936724D01*
X271548Y938358D01*
X270298Y939608D01*
X268664Y940285D01*
D02*
G37*
G36*
X767589Y932996D02*
X766318D01*
Y919988D01*
X779326D01*
Y921259D01*
X778405Y924697D01*
X776626Y927779D01*
X774109Y930295D01*
X771027Y932075D01*
X767589Y932996D01*
D02*
G37*
G36*
X765302D02*
X764031D01*
X760593Y932075D01*
X757511Y930295D01*
X754995Y927779D01*
X753215Y924697D01*
X752294Y921259D01*
Y919988D01*
X765302D01*
Y932996D01*
D02*
G37*
G36*
X258084Y925895D02*
X256316D01*
X254682Y925218D01*
X253432Y923968D01*
X252755Y922334D01*
Y920566D01*
X253432Y918932D01*
X254682Y917682D01*
X256316Y917005D01*
X258084D01*
X259718Y917682D01*
X260968Y918932D01*
X261645Y920566D01*
Y922334D01*
X260968Y923968D01*
X259718Y925218D01*
X258084Y925895D01*
D02*
G37*
G36*
X79624Y923925D02*
X77856D01*
X76222Y923248D01*
X74972Y921998D01*
X74295Y920364D01*
Y918596D01*
X74972Y916962D01*
X76222Y915712D01*
X77856Y915035D01*
X79624D01*
X81258Y915712D01*
X82508Y916962D01*
X83185Y918596D01*
Y920364D01*
X82508Y921998D01*
X81258Y923248D01*
X79624Y923925D01*
D02*
G37*
G36*
X91054Y920115D02*
X89286D01*
X87652Y919438D01*
X86402Y918188D01*
X85725Y916554D01*
Y914786D01*
X86402Y913152D01*
X87652Y911902D01*
X89286Y911225D01*
X91054D01*
X92688Y911902D01*
X93938Y913152D01*
X94615Y914786D01*
Y916554D01*
X93938Y918188D01*
X92688Y919438D01*
X91054Y920115D01*
D02*
G37*
G36*
X779326Y918972D02*
X766318D01*
Y905964D01*
X767589D01*
X771027Y906885D01*
X774109Y908664D01*
X776626Y911181D01*
X778405Y914263D01*
X779326Y917701D01*
Y918972D01*
D02*
G37*
G36*
X765302D02*
X752294D01*
Y917701D01*
X753215Y914263D01*
X754995Y911181D01*
X757511Y908664D01*
X760593Y906885D01*
X764031Y905964D01*
X765302D01*
Y918972D01*
D02*
G37*
G36*
X258654Y910085D02*
X256886D01*
X255252Y909408D01*
X254002Y908158D01*
X253325Y906524D01*
Y904756D01*
X254002Y903122D01*
X255252Y901872D01*
X256886Y901195D01*
X258654D01*
X260288Y901872D01*
X261538Y903122D01*
X262215Y904756D01*
Y906524D01*
X261538Y908158D01*
X260288Y909408D01*
X258654Y910085D01*
D02*
G37*
G36*
X186074Y905195D02*
X184306D01*
X182672Y904518D01*
X181422Y903268D01*
X180745Y901634D01*
Y899866D01*
X181422Y898232D01*
X182672Y896982D01*
X184306Y896305D01*
X186074D01*
X187708Y896982D01*
X188958Y898232D01*
X189635Y899866D01*
Y901634D01*
X188958Y903268D01*
X187708Y904518D01*
X186074Y905195D01*
D02*
G37*
G36*
X334394Y901485D02*
X332626D01*
X330992Y900808D01*
X329742Y899558D01*
X329065Y897924D01*
Y896156D01*
X329742Y894522D01*
X330992Y893272D01*
X332626Y892595D01*
X334394D01*
X336028Y893272D01*
X337278Y894522D01*
X337955Y896156D01*
Y897924D01*
X337278Y899558D01*
X336028Y900808D01*
X334394Y901485D01*
D02*
G37*
G36*
X697734Y889505D02*
X695966D01*
X694332Y888828D01*
X693082Y887578D01*
X692405Y885944D01*
Y884176D01*
X693082Y882542D01*
X694332Y881292D01*
X695966Y880615D01*
X697734D01*
X699368Y881292D01*
X700618Y882542D01*
X701295Y884176D01*
Y885944D01*
X700618Y887578D01*
X699368Y888828D01*
X697734Y889505D01*
D02*
G37*
G36*
X634724Y887965D02*
X632956D01*
X631322Y887288D01*
X630072Y886038D01*
X629395Y884404D01*
Y882636D01*
X630072Y881002D01*
X631322Y879752D01*
X632956Y879075D01*
X634724D01*
X636358Y879752D01*
X637608Y881002D01*
X638285Y882636D01*
Y884404D01*
X637608Y886038D01*
X636358Y887288D01*
X634724Y887965D01*
D02*
G37*
G36*
X569949Y887626D02*
X567971D01*
X566059Y887114D01*
X564345Y886124D01*
X562946Y884725D01*
X561956Y883011D01*
X561444Y881099D01*
Y879120D01*
X561956Y877209D01*
X562946Y875495D01*
X564345Y874096D01*
X566059Y873106D01*
X567971Y872594D01*
X569949D01*
X571861Y873106D01*
X573575Y874096D01*
X574974Y875495D01*
X575964Y877209D01*
X576476Y879120D01*
Y881099D01*
X575964Y883011D01*
X574974Y884725D01*
X573575Y886124D01*
X571861Y887114D01*
X569949Y887626D01*
D02*
G37*
G36*
X493750D02*
X491771D01*
X489859Y887114D01*
X488145Y886124D01*
X486746Y884725D01*
X485756Y883011D01*
X485244Y881099D01*
Y879120D01*
X485756Y877209D01*
X486746Y875495D01*
X488145Y874096D01*
X489859Y873106D01*
X491771Y872594D01*
X493750D01*
X495661Y873106D01*
X497375Y874096D01*
X498774Y875495D01*
X499764Y877209D01*
X500276Y879120D01*
Y881099D01*
X499764Y883011D01*
X498774Y884725D01*
X497375Y886124D01*
X495661Y887114D01*
X493750Y887626D01*
D02*
G37*
G36*
X417550D02*
X415570D01*
X413659Y887114D01*
X411945Y886124D01*
X410546Y884725D01*
X409556Y883011D01*
X409044Y881099D01*
Y879120D01*
X409556Y877209D01*
X410546Y875495D01*
X411945Y874096D01*
X413659Y873106D01*
X415570Y872594D01*
X417550D01*
X419461Y873106D01*
X421175Y874096D01*
X422574Y875495D01*
X423564Y877209D01*
X424076Y879120D01*
Y881099D01*
X423564Y883011D01*
X422574Y884725D01*
X421175Y886124D01*
X419461Y887114D01*
X417550Y887626D01*
D02*
G37*
G36*
X101454Y881255D02*
X99686D01*
X98052Y880578D01*
X96802Y879328D01*
X96125Y877694D01*
Y875926D01*
X96802Y874292D01*
X98052Y873042D01*
X99686Y872365D01*
X101454D01*
X103088Y873042D01*
X104338Y874292D01*
X105015Y875926D01*
Y877694D01*
X104338Y879328D01*
X103088Y880578D01*
X101454Y881255D01*
D02*
G37*
G36*
X199004Y880745D02*
X197236D01*
X195602Y880068D01*
X194352Y878818D01*
X193675Y877184D01*
Y875416D01*
X194352Y873782D01*
X195602Y872532D01*
X197236Y871855D01*
X199004D01*
X200638Y872532D01*
X201888Y873782D01*
X202565Y875416D01*
Y877184D01*
X201888Y878818D01*
X200638Y880068D01*
X199004Y880745D01*
D02*
G37*
G36*
X634614Y877695D02*
X632846D01*
X631212Y877018D01*
X629962Y875768D01*
X629285Y874134D01*
Y872366D01*
X629962Y870732D01*
X631212Y869482D01*
X632846Y868805D01*
X634614D01*
X636248Y869482D01*
X637498Y870732D01*
X638175Y872366D01*
Y874134D01*
X637498Y875768D01*
X636248Y877018D01*
X634614Y877695D01*
D02*
G37*
G36*
X347514Y875665D02*
X345746D01*
X344112Y874988D01*
X342862Y873738D01*
X342185Y872104D01*
Y870336D01*
X342862Y868702D01*
X344112Y867452D01*
X345746Y866775D01*
X347514D01*
X349148Y867452D01*
X350398Y868702D01*
X351075Y870336D01*
Y872104D01*
X350398Y873738D01*
X349148Y874988D01*
X347514Y875665D01*
D02*
G37*
G36*
X226864D02*
X225096D01*
X223462Y874988D01*
X222212Y873738D01*
X221535Y872104D01*
Y870336D01*
X222212Y868702D01*
X223462Y867452D01*
X225096Y866775D01*
X226864D01*
X228498Y867452D01*
X229748Y868702D01*
X230425Y870336D01*
Y872104D01*
X229748Y873738D01*
X228498Y874988D01*
X226864Y875665D01*
D02*
G37*
G36*
X767589Y869496D02*
X766318D01*
Y856488D01*
X779326D01*
Y857759D01*
X778405Y861197D01*
X776626Y864279D01*
X774109Y866796D01*
X771027Y868575D01*
X767589Y869496D01*
D02*
G37*
G36*
X765302D02*
X764031D01*
X760593Y868575D01*
X757511Y866796D01*
X754995Y864279D01*
X753215Y861197D01*
X752294Y857759D01*
Y856488D01*
X765302D01*
Y869496D01*
D02*
G37*
G36*
X210354Y862965D02*
X208586D01*
X206952Y862288D01*
X205702Y861038D01*
X205025Y859404D01*
Y857636D01*
X205702Y856002D01*
X206952Y854752D01*
X208586Y854075D01*
X210354D01*
X211988Y854752D01*
X213238Y856002D01*
X213915Y857636D01*
Y859404D01*
X213238Y861038D01*
X211988Y862288D01*
X210354Y862965D01*
D02*
G37*
G36*
X197654D02*
X195886D01*
X194252Y862288D01*
X193002Y861038D01*
X192325Y859404D01*
Y857636D01*
X193002Y856002D01*
X194252Y854752D01*
X195886Y854075D01*
X197654D01*
X199288Y854752D01*
X200538Y856002D01*
X201215Y857636D01*
Y859404D01*
X200538Y861038D01*
X199288Y862288D01*
X197654Y862965D01*
D02*
G37*
G36*
X682874Y861185D02*
X681106D01*
X679472Y860508D01*
X678222Y859258D01*
X677545Y857624D01*
Y855856D01*
X678222Y854222D01*
X679472Y852972D01*
X681106Y852295D01*
X682874D01*
X684508Y852972D01*
X685758Y854222D01*
X686435Y855856D01*
Y857624D01*
X685758Y859258D01*
X684508Y860508D01*
X682874Y861185D01*
D02*
G37*
G36*
X73434Y855935D02*
X71666D01*
X70032Y855258D01*
X68782Y854008D01*
X68105Y852374D01*
Y850606D01*
X68782Y848972D01*
X70032Y847722D01*
X71666Y847045D01*
X73434D01*
X75068Y847722D01*
X76318Y848972D01*
X76995Y850606D01*
Y852374D01*
X76318Y854008D01*
X75068Y855258D01*
X73434Y855935D01*
D02*
G37*
G36*
X160904Y855345D02*
X159136D01*
X157502Y854668D01*
X156252Y853418D01*
X155575Y851784D01*
Y850016D01*
X156252Y848382D01*
X157502Y847132D01*
X159136Y846455D01*
X160904D01*
X162538Y847132D01*
X163788Y848382D01*
X164465Y850016D01*
Y851784D01*
X163788Y853418D01*
X162538Y854668D01*
X160904Y855345D01*
D02*
G37*
G36*
X779326Y855472D02*
X766318D01*
Y842464D01*
X767589D01*
X771027Y843385D01*
X774109Y845164D01*
X776626Y847681D01*
X778405Y850763D01*
X779326Y854201D01*
Y855472D01*
D02*
G37*
G36*
X765302D02*
X752294D01*
Y854201D01*
X753215Y850763D01*
X754995Y847681D01*
X757511Y845164D01*
X760593Y843385D01*
X764031Y842464D01*
X765302D01*
Y855472D01*
D02*
G37*
G36*
X267504Y846455D02*
X265736D01*
X264102Y845778D01*
X262852Y844528D01*
X262175Y842894D01*
Y841126D01*
X262852Y839492D01*
X264102Y838242D01*
X265736Y837565D01*
X267504D01*
X269138Y838242D01*
X270388Y839492D01*
X271065Y841126D01*
Y842894D01*
X270388Y844528D01*
X269138Y845778D01*
X267504Y846455D01*
D02*
G37*
G36*
X153284D02*
X151516D01*
X149882Y845778D01*
X148632Y844528D01*
X147955Y842894D01*
Y841126D01*
X148632Y839492D01*
X149882Y838242D01*
X151516Y837565D01*
X153284D01*
X154918Y838242D01*
X156168Y839492D01*
X156845Y841126D01*
Y842894D01*
X156168Y844528D01*
X154918Y845778D01*
X153284Y846455D01*
D02*
G37*
G36*
X643504Y838325D02*
X641736D01*
X640102Y837648D01*
X638852Y836398D01*
X638175Y834764D01*
Y832996D01*
X638852Y831362D01*
X640102Y830112D01*
X641736Y829435D01*
X643504D01*
X645138Y830112D01*
X646388Y831362D01*
X647065Y832996D01*
Y834764D01*
X646388Y836398D01*
X645138Y837648D01*
X643504Y838325D01*
D02*
G37*
G36*
X145664Y837565D02*
X143896D01*
X142262Y836888D01*
X141012Y835638D01*
X140335Y834004D01*
Y832236D01*
X141012Y830602D01*
X142262Y829352D01*
X143896Y828675D01*
X145664D01*
X147298Y829352D01*
X148548Y830602D01*
X149225Y832236D01*
Y834004D01*
X148548Y835638D01*
X147298Y836888D01*
X145664Y837565D01*
D02*
G37*
G36*
X656204Y837055D02*
X654436D01*
X652802Y836378D01*
X651552Y835128D01*
X650875Y833494D01*
Y831726D01*
X651552Y830092D01*
X652802Y828842D01*
X654436Y828165D01*
X656204D01*
X657838Y828842D01*
X659088Y830092D01*
X659765Y831726D01*
Y833494D01*
X659088Y835128D01*
X657838Y836378D01*
X656204Y837055D01*
D02*
G37*
G36*
X336084Y832485D02*
X334316D01*
X332682Y831808D01*
X331432Y830558D01*
X330755Y828924D01*
Y827156D01*
X331432Y825522D01*
X332682Y824272D01*
X334316Y823595D01*
X336084D01*
X337718Y824272D01*
X338968Y825522D01*
X339645Y827156D01*
Y828924D01*
X338968Y830558D01*
X337718Y831808D01*
X336084Y832485D01*
D02*
G37*
G36*
X716000Y838096D02*
X714020D01*
X712109Y837584D01*
X710395Y836594D01*
X708996Y835195D01*
X708006Y833481D01*
X707494Y831570D01*
Y829591D01*
X708006Y827679D01*
X708996Y825965D01*
X710395Y824566D01*
X712109Y823576D01*
X714020Y823064D01*
X716000D01*
X717911Y823576D01*
X719625Y824566D01*
X721024Y825965D01*
X722014Y827679D01*
X722526Y829591D01*
Y831570D01*
X722014Y833481D01*
X721024Y835195D01*
X719625Y836594D01*
X717911Y837584D01*
X716000Y838096D01*
D02*
G37*
G36*
X669794Y823975D02*
X668026D01*
X666392Y823298D01*
X665142Y822048D01*
X664465Y820414D01*
Y818646D01*
X665142Y817012D01*
X666392Y815762D01*
X668026Y815085D01*
X669794D01*
X671428Y815762D01*
X672678Y817012D01*
X673355Y818646D01*
Y820414D01*
X672678Y822048D01*
X671428Y823298D01*
X669794Y823975D01*
D02*
G37*
G36*
X122964Y820375D02*
X121196D01*
X119562Y819698D01*
X118312Y818448D01*
X117635Y816814D01*
Y815046D01*
X118312Y813412D01*
X119562Y812162D01*
X121196Y811485D01*
X122964D01*
X124598Y812162D01*
X125848Y813412D01*
X126525Y815046D01*
Y816814D01*
X125848Y818448D01*
X124598Y819698D01*
X122964Y820375D01*
D02*
G37*
G36*
X256074Y807085D02*
X254306D01*
X252672Y806408D01*
X251422Y805158D01*
X250745Y803524D01*
Y801756D01*
X251422Y800122D01*
X252672Y798872D01*
X254306Y798195D01*
X256074D01*
X257708Y798872D01*
X258958Y800122D01*
X259635Y801756D01*
Y803524D01*
X258958Y805158D01*
X257708Y806408D01*
X256074Y807085D01*
D02*
G37*
G36*
X716000Y812696D02*
X714020D01*
X712109Y812184D01*
X710395Y811194D01*
X708996Y809795D01*
X708006Y808081D01*
X707494Y806170D01*
Y804191D01*
X708006Y802279D01*
X708996Y800565D01*
X710395Y799166D01*
X712109Y798176D01*
X714020Y797664D01*
X716000D01*
X717911Y798176D01*
X719625Y799166D01*
X721024Y800565D01*
X722014Y802279D01*
X722526Y804191D01*
Y806170D01*
X722014Y808081D01*
X721024Y809795D01*
X719625Y811194D01*
X717911Y812184D01*
X716000Y812696D01*
D02*
G37*
G36*
X248034Y797345D02*
X246266D01*
X244632Y796668D01*
X243382Y795418D01*
X242705Y793784D01*
Y792016D01*
X243382Y790382D01*
X244632Y789132D01*
X246266Y788455D01*
X248034D01*
X249668Y789132D01*
X250918Y790382D01*
X251595Y792016D01*
Y793784D01*
X250918Y795418D01*
X249668Y796668D01*
X248034Y797345D01*
D02*
G37*
G36*
X67764Y790485D02*
X65996D01*
X64362Y789808D01*
X63112Y788558D01*
X62435Y786924D01*
Y785156D01*
X63112Y783522D01*
X64362Y782272D01*
X65996Y781595D01*
X67764D01*
X69398Y782272D01*
X70648Y783522D01*
X71325Y785156D01*
Y786924D01*
X70648Y788558D01*
X69398Y789808D01*
X67764Y790485D01*
D02*
G37*
G36*
X269194Y780835D02*
X267426D01*
X265792Y780158D01*
X264542Y778908D01*
X263865Y777274D01*
Y775506D01*
X264542Y773872D01*
X265792Y772622D01*
X267426Y771945D01*
X269194D01*
X270828Y772622D01*
X272078Y773872D01*
X272755Y775506D01*
Y777274D01*
X272078Y778908D01*
X270828Y780158D01*
X269194Y780835D01*
D02*
G37*
G36*
X81054Y768305D02*
X79286D01*
X77652Y767628D01*
X76402Y766378D01*
X75725Y764744D01*
Y762976D01*
X76402Y761342D01*
X77652Y760092D01*
X79286Y759415D01*
X81054D01*
X82688Y760092D01*
X83938Y761342D01*
X84615Y762976D01*
Y764744D01*
X83938Y766378D01*
X82688Y767628D01*
X81054Y768305D01*
D02*
G37*
G36*
X258614Y766445D02*
X256846D01*
X255212Y765768D01*
X253962Y764518D01*
X253285Y762884D01*
Y761116D01*
X253962Y759482D01*
X255212Y758232D01*
X256846Y757555D01*
X258614D01*
X260248Y758232D01*
X261498Y759482D01*
X262175Y761116D01*
Y762884D01*
X261498Y764518D01*
X260248Y765768D01*
X258614Y766445D01*
D02*
G37*
G36*
X92484Y764495D02*
X90716D01*
X89082Y763818D01*
X87832Y762568D01*
X87155Y760934D01*
Y759166D01*
X87832Y757532D01*
X89082Y756282D01*
X90716Y755605D01*
X92484D01*
X94118Y756282D01*
X95368Y757532D01*
X96045Y759166D01*
Y760934D01*
X95368Y762568D01*
X94118Y763818D01*
X92484Y764495D01*
D02*
G37*
G36*
X767589Y767896D02*
X766318D01*
Y754888D01*
X779326D01*
Y756159D01*
X778405Y759597D01*
X776626Y762679D01*
X774109Y765195D01*
X771027Y766975D01*
X767589Y767896D01*
D02*
G37*
G36*
X765302D02*
X764031D01*
X760593Y766975D01*
X757511Y765195D01*
X754995Y762679D01*
X753215Y759597D01*
X752294Y756159D01*
Y754888D01*
X765302D01*
Y767896D01*
D02*
G37*
G36*
X569949Y760626D02*
X569468D01*
Y753618D01*
X576476D01*
Y754100D01*
X575964Y756011D01*
X574974Y757725D01*
X573575Y759124D01*
X571861Y760114D01*
X569949Y760626D01*
D02*
G37*
G36*
X568452D02*
X567971D01*
X566059Y760114D01*
X564345Y759124D01*
X562946Y757725D01*
X561956Y756011D01*
X561444Y754100D01*
Y753618D01*
X568452D01*
Y760626D01*
D02*
G37*
G36*
X576476Y752602D02*
X569468D01*
Y745594D01*
X569949D01*
X571861Y746106D01*
X573575Y747096D01*
X574974Y748495D01*
X575964Y750209D01*
X576476Y752121D01*
Y752602D01*
D02*
G37*
G36*
X568452D02*
X561444D01*
Y752121D01*
X561956Y750209D01*
X562946Y748495D01*
X564345Y747096D01*
X566059Y746106D01*
X567971Y745594D01*
X568452D01*
Y752602D01*
D02*
G37*
G36*
X493750Y760626D02*
X491771D01*
X489859Y760114D01*
X488145Y759124D01*
X486746Y757725D01*
X485756Y756011D01*
X485244Y754100D01*
Y752121D01*
X485756Y750209D01*
X486746Y748495D01*
X488145Y747096D01*
X489859Y746106D01*
X491771Y745594D01*
X493750D01*
X495661Y746106D01*
X497375Y747096D01*
X498774Y748495D01*
X499764Y750209D01*
X500276Y752121D01*
Y754100D01*
X499764Y756011D01*
X498774Y757725D01*
X497375Y759124D01*
X495661Y760114D01*
X493750Y760626D01*
D02*
G37*
G36*
X417550D02*
X415570D01*
X413659Y760114D01*
X411945Y759124D01*
X410546Y757725D01*
X409556Y756011D01*
X409044Y754100D01*
Y752121D01*
X409556Y750209D01*
X410546Y748495D01*
X411945Y747096D01*
X413659Y746106D01*
X415570Y745594D01*
X417550D01*
X419461Y746106D01*
X421175Y747096D01*
X422574Y748495D01*
X423564Y750209D01*
X424076Y752121D01*
Y754100D01*
X423564Y756011D01*
X422574Y757725D01*
X421175Y759124D01*
X419461Y760114D01*
X417550Y760626D01*
D02*
G37*
G36*
X259184Y750635D02*
X257416D01*
X255782Y749958D01*
X254532Y748708D01*
X253855Y747074D01*
Y745306D01*
X254532Y743672D01*
X255782Y742422D01*
X257416Y741745D01*
X259184D01*
X260818Y742422D01*
X262068Y743672D01*
X262745Y745306D01*
Y747074D01*
X262068Y748708D01*
X260818Y749958D01*
X259184Y750635D01*
D02*
G37*
G36*
X779326Y753872D02*
X766318D01*
Y740864D01*
X767589D01*
X771027Y741785D01*
X774109Y743565D01*
X776626Y746081D01*
X778405Y749163D01*
X779326Y752601D01*
Y753872D01*
D02*
G37*
G36*
X765302D02*
X752294D01*
Y752601D01*
X753215Y749163D01*
X754995Y746081D01*
X757511Y743565D01*
X760593Y741785D01*
X764031Y740864D01*
X765302D01*
Y753872D01*
D02*
G37*
G36*
X186604Y745745D02*
X184836D01*
X183202Y745068D01*
X181952Y743818D01*
X181275Y742184D01*
Y740416D01*
X181952Y738782D01*
X183202Y737532D01*
X184836Y736855D01*
X186604D01*
X188238Y737532D01*
X189488Y738782D01*
X190165Y740416D01*
Y742184D01*
X189488Y743818D01*
X188238Y745068D01*
X186604Y745745D01*
D02*
G37*
G36*
X331934Y740195D02*
X330166D01*
X328532Y739518D01*
X327282Y738268D01*
X326605Y736634D01*
Y734866D01*
X327282Y733232D01*
X328532Y731982D01*
X330166Y731305D01*
X331934D01*
X333568Y731982D01*
X334818Y733232D01*
X335495Y734866D01*
Y736634D01*
X334818Y738268D01*
X333568Y739518D01*
X331934Y740195D01*
D02*
G37*
G36*
X697734Y724795D02*
X695966D01*
X694332Y724118D01*
X693082Y722868D01*
X692405Y721234D01*
Y719466D01*
X693082Y717832D01*
X694332Y716582D01*
X695966Y715905D01*
X697734D01*
X699368Y716582D01*
X700618Y717832D01*
X701295Y719466D01*
Y721234D01*
X700618Y722868D01*
X699368Y724118D01*
X697734Y724795D01*
D02*
G37*
G36*
X634724Y723255D02*
X632956D01*
X631322Y722578D01*
X630072Y721328D01*
X629395Y719694D01*
Y717926D01*
X630072Y716292D01*
X631322Y715042D01*
X632956Y714365D01*
X634724D01*
X636358Y715042D01*
X637608Y716292D01*
X638285Y717926D01*
Y719694D01*
X637608Y721328D01*
X636358Y722578D01*
X634724Y723255D01*
D02*
G37*
G36*
X103754Y721235D02*
X101986D01*
X100352Y720558D01*
X99102Y719308D01*
X98425Y717674D01*
Y715906D01*
X99102Y714272D01*
X100352Y713022D01*
X101986Y712345D01*
X103754D01*
X105388Y713022D01*
X106638Y714272D01*
X107315Y715906D01*
Y717674D01*
X106638Y719308D01*
X105388Y720558D01*
X103754Y721235D01*
D02*
G37*
G36*
X197814Y716995D02*
X196046D01*
X194412Y716318D01*
X193162Y715068D01*
X192485Y713434D01*
Y711666D01*
X193162Y710032D01*
X194412Y708782D01*
X196046Y708105D01*
X197814D01*
X199448Y708782D01*
X200698Y710032D01*
X201375Y711666D01*
Y713434D01*
X200698Y715068D01*
X199448Y716318D01*
X197814Y716995D01*
D02*
G37*
G36*
X345054Y714375D02*
X343286D01*
X341652Y713698D01*
X340402Y712448D01*
X339725Y710814D01*
Y709046D01*
X340402Y707412D01*
X341652Y706162D01*
X343286Y705485D01*
X345054D01*
X346688Y706162D01*
X347938Y707412D01*
X348615Y709046D01*
Y710814D01*
X347938Y712448D01*
X346688Y713698D01*
X345054Y714375D01*
D02*
G37*
G36*
X224404D02*
X222636D01*
X221002Y713698D01*
X219752Y712448D01*
X219075Y710814D01*
Y709046D01*
X219752Y707412D01*
X221002Y706162D01*
X222636Y705485D01*
X224404D01*
X226038Y706162D01*
X227288Y707412D01*
X227965Y709046D01*
Y710814D01*
X227288Y712448D01*
X226038Y713698D01*
X224404Y714375D01*
D02*
G37*
G36*
X634614Y712985D02*
X632846D01*
X631212Y712308D01*
X629962Y711058D01*
X629285Y709424D01*
Y707656D01*
X629962Y706022D01*
X631212Y704772D01*
X632846Y704095D01*
X634614D01*
X636248Y704772D01*
X637498Y706022D01*
X638175Y707656D01*
Y709424D01*
X637498Y711058D01*
X636248Y712308D01*
X634614Y712985D01*
D02*
G37*
G36*
X207894Y701675D02*
X206126D01*
X204492Y700998D01*
X203242Y699748D01*
X202565Y698114D01*
Y696346D01*
X203242Y694712D01*
X204492Y693462D01*
X206126Y692785D01*
X207894D01*
X209528Y693462D01*
X210778Y694712D01*
X211455Y696346D01*
Y698114D01*
X210778Y699748D01*
X209528Y700998D01*
X207894Y701675D01*
D02*
G37*
G36*
X195194D02*
X193426D01*
X191792Y700998D01*
X190542Y699748D01*
X189865Y698114D01*
Y696346D01*
X190542Y694712D01*
X191792Y693462D01*
X193426Y692785D01*
X195194D01*
X196828Y693462D01*
X198078Y694712D01*
X198755Y696346D01*
Y698114D01*
X198078Y699748D01*
X196828Y700998D01*
X195194Y701675D01*
D02*
G37*
G36*
X767589Y704396D02*
X766318D01*
Y691388D01*
X779326D01*
Y692659D01*
X778405Y696097D01*
X776626Y699179D01*
X774109Y701695D01*
X771027Y703475D01*
X767589Y704396D01*
D02*
G37*
G36*
X765302D02*
X764031D01*
X760593Y703475D01*
X757511Y701695D01*
X754995Y699179D01*
X753215Y696097D01*
X752294Y692659D01*
Y691388D01*
X765302D01*
Y704396D01*
D02*
G37*
G36*
X160904Y696595D02*
X159136D01*
X157502Y695918D01*
X156252Y694668D01*
X155575Y693034D01*
Y691266D01*
X156252Y689632D01*
X157502Y688382D01*
X159136Y687705D01*
X160904D01*
X162538Y688382D01*
X163788Y689632D01*
X164465Y691266D01*
Y693034D01*
X163788Y694668D01*
X162538Y695918D01*
X160904Y696595D01*
D02*
G37*
G36*
X682874Y696475D02*
X681106D01*
X679472Y695798D01*
X678222Y694548D01*
X677545Y692914D01*
Y691146D01*
X678222Y689512D01*
X679472Y688262D01*
X681106Y687585D01*
X682874D01*
X684508Y688262D01*
X685758Y689512D01*
X686435Y691146D01*
Y692914D01*
X685758Y694548D01*
X684508Y695798D01*
X682874Y696475D01*
D02*
G37*
G36*
X75734Y695915D02*
X73966D01*
X72332Y695238D01*
X71082Y693988D01*
X70405Y692354D01*
Y690586D01*
X71082Y688952D01*
X72332Y687702D01*
X73966Y687025D01*
X75734D01*
X77368Y687702D01*
X78618Y688952D01*
X79295Y690586D01*
Y692354D01*
X78618Y693988D01*
X77368Y695238D01*
X75734Y695915D01*
D02*
G37*
G36*
X779326Y690372D02*
X766318D01*
Y677364D01*
X767589D01*
X771027Y678285D01*
X774109Y680064D01*
X776626Y682581D01*
X778405Y685663D01*
X779326Y689101D01*
Y690372D01*
D02*
G37*
G36*
X765302D02*
X752294D01*
Y689101D01*
X753215Y685663D01*
X754995Y682581D01*
X757511Y680064D01*
X760593Y678285D01*
X764031Y677364D01*
X765302D01*
Y690372D01*
D02*
G37*
G36*
X265044Y685165D02*
X263276D01*
X261642Y684488D01*
X260392Y683238D01*
X259715Y681604D01*
Y679836D01*
X260392Y678202D01*
X261642Y676952D01*
X263276Y676275D01*
X265044D01*
X266678Y676952D01*
X267928Y678202D01*
X268605Y679836D01*
Y681604D01*
X267928Y683238D01*
X266678Y684488D01*
X265044Y685165D01*
D02*
G37*
G36*
X157094D02*
X155326D01*
X153692Y684488D01*
X152442Y683238D01*
X151765Y681604D01*
Y679836D01*
X152442Y678202D01*
X153692Y676952D01*
X155326Y676275D01*
X157094D01*
X158728Y676952D01*
X159978Y678202D01*
X160655Y679836D01*
Y681604D01*
X159978Y683238D01*
X158728Y684488D01*
X157094Y685165D01*
D02*
G37*
G36*
X569949Y684426D02*
X567971D01*
X566059Y683914D01*
X564345Y682924D01*
X562946Y681525D01*
X561956Y679811D01*
X561444Y677899D01*
Y675920D01*
X561956Y674009D01*
X562946Y672295D01*
X564345Y670896D01*
X566059Y669906D01*
X567971Y669394D01*
X569949D01*
X571861Y669906D01*
X573575Y670896D01*
X574974Y672295D01*
X575964Y674009D01*
X576476Y675920D01*
Y677899D01*
X575964Y679811D01*
X574974Y681525D01*
X573575Y682924D01*
X571861Y683914D01*
X569949Y684426D01*
D02*
G37*
G36*
X493750D02*
X491771D01*
X489859Y683914D01*
X488145Y682924D01*
X486746Y681525D01*
X485756Y679811D01*
X485244Y677899D01*
Y675920D01*
X485756Y674009D01*
X486746Y672295D01*
X488145Y670896D01*
X489859Y669906D01*
X491771Y669394D01*
X493750D01*
X495661Y669906D01*
X497375Y670896D01*
X498774Y672295D01*
X499764Y674009D01*
X500276Y675920D01*
Y677899D01*
X499764Y679811D01*
X498774Y681525D01*
X497375Y682924D01*
X495661Y683914D01*
X493750Y684426D01*
D02*
G37*
G36*
X417550D02*
X415570D01*
X413659Y683914D01*
X411945Y682924D01*
X410546Y681525D01*
X409556Y679811D01*
X409044Y677899D01*
Y675920D01*
X409556Y674009D01*
X410546Y672295D01*
X411945Y670896D01*
X413659Y669906D01*
X415570Y669394D01*
X417550D01*
X419461Y669906D01*
X421175Y670896D01*
X422574Y672295D01*
X423564Y674009D01*
X424076Y675920D01*
Y677899D01*
X423564Y679811D01*
X422574Y681525D01*
X421175Y682924D01*
X419461Y683914D01*
X417550Y684426D01*
D02*
G37*
G36*
X150744Y676275D02*
X148976D01*
X147342Y675598D01*
X146092Y674348D01*
X145415Y672714D01*
Y670946D01*
X146092Y669312D01*
X147342Y668062D01*
X148976Y667385D01*
X150744D01*
X152378Y668062D01*
X153628Y669312D01*
X154305Y670946D01*
Y672714D01*
X153628Y674348D01*
X152378Y675598D01*
X150744Y676275D01*
D02*
G37*
G36*
X643504Y673615D02*
X641736D01*
X640102Y672938D01*
X638852Y671688D01*
X638175Y670054D01*
Y668286D01*
X638852Y666652D01*
X640102Y665402D01*
X641736Y664725D01*
X643504D01*
X645138Y665402D01*
X646388Y666652D01*
X647065Y668286D01*
Y670054D01*
X646388Y671688D01*
X645138Y672938D01*
X643504Y673615D01*
D02*
G37*
G36*
X656204Y672345D02*
X654436D01*
X652802Y671668D01*
X651552Y670418D01*
X650875Y668784D01*
Y667016D01*
X651552Y665382D01*
X652802Y664132D01*
X654436Y663455D01*
X656204D01*
X657838Y664132D01*
X659088Y665382D01*
X659765Y667016D01*
Y668784D01*
X659088Y670418D01*
X657838Y671668D01*
X656204Y672345D01*
D02*
G37*
G36*
X333624Y671195D02*
X331856D01*
X330222Y670518D01*
X328972Y669268D01*
X328295Y667634D01*
Y665866D01*
X328972Y664232D01*
X330222Y662982D01*
X331856Y662305D01*
X333624D01*
X335258Y662982D01*
X336508Y664232D01*
X337185Y665866D01*
Y667634D01*
X336508Y669268D01*
X335258Y670518D01*
X333624Y671195D01*
D02*
G37*
G36*
X716000Y672996D02*
X714020D01*
X712109Y672484D01*
X710395Y671494D01*
X708996Y670095D01*
X708006Y668381D01*
X707494Y666469D01*
Y664491D01*
X708006Y662579D01*
X708996Y660865D01*
X710395Y659466D01*
X712109Y658476D01*
X714020Y657964D01*
X716000D01*
X717911Y658476D01*
X719625Y659466D01*
X721024Y660865D01*
X722014Y662579D01*
X722526Y664491D01*
Y666469D01*
X722014Y668381D01*
X721024Y670095D01*
X719625Y671494D01*
X717911Y672484D01*
X716000Y672996D01*
D02*
G37*
G36*
X125264Y660355D02*
X123496D01*
X121862Y659678D01*
X120612Y658428D01*
X119935Y656794D01*
Y655026D01*
X120612Y653392D01*
X121862Y652142D01*
X123496Y651465D01*
X125264D01*
X126898Y652142D01*
X128148Y653392D01*
X128825Y655026D01*
Y656794D01*
X128148Y658428D01*
X126898Y659678D01*
X125264Y660355D01*
D02*
G37*
G36*
X669794Y659265D02*
X668026D01*
X666392Y658588D01*
X665142Y657338D01*
X664465Y655704D01*
Y653936D01*
X665142Y652302D01*
X666392Y651052D01*
X668026Y650375D01*
X669794D01*
X671428Y651052D01*
X672678Y652302D01*
X673355Y653936D01*
Y655704D01*
X672678Y657338D01*
X671428Y658588D01*
X669794Y659265D01*
D02*
G37*
G36*
X253614Y645795D02*
X251846D01*
X250212Y645118D01*
X248962Y643868D01*
X248285Y642234D01*
Y640466D01*
X248962Y638832D01*
X250212Y637582D01*
X251846Y636905D01*
X253614D01*
X255248Y637582D01*
X256498Y638832D01*
X257175Y640466D01*
Y642234D01*
X256498Y643868D01*
X255248Y645118D01*
X253614Y645795D01*
D02*
G37*
G36*
X716000Y647596D02*
X714020D01*
X712109Y647084D01*
X710395Y646094D01*
X708996Y644695D01*
X708006Y642981D01*
X707494Y641069D01*
Y639090D01*
X708006Y637179D01*
X708996Y635465D01*
X710395Y634066D01*
X712109Y633076D01*
X714020Y632564D01*
X716000D01*
X717911Y633076D01*
X719625Y634066D01*
X721024Y635465D01*
X722014Y637179D01*
X722526Y639090D01*
Y641069D01*
X722014Y642981D01*
X721024Y644695D01*
X719625Y646094D01*
X717911Y647084D01*
X716000Y647596D01*
D02*
G37*
G36*
X676144Y637285D02*
X674376D01*
X672742Y636608D01*
X671492Y635358D01*
X670815Y633724D01*
Y631956D01*
X671492Y630322D01*
X672742Y629072D01*
X674376Y628395D01*
X676144D01*
X677778Y629072D01*
X679028Y630322D01*
X679705Y631956D01*
Y633724D01*
X679028Y635358D01*
X677778Y636608D01*
X676144Y637285D01*
D02*
G37*
G36*
X245574Y636055D02*
X243806D01*
X242172Y635378D01*
X240922Y634128D01*
X240245Y632494D01*
Y630726D01*
X240922Y629092D01*
X242172Y627842D01*
X243806Y627165D01*
X245574D01*
X247208Y627842D01*
X248458Y629092D01*
X249135Y630726D01*
Y632494D01*
X248458Y634128D01*
X247208Y635378D01*
X245574Y636055D01*
D02*
G37*
G36*
X70064Y630465D02*
X68296D01*
X66662Y629788D01*
X65412Y628538D01*
X64735Y626904D01*
Y625136D01*
X65412Y623502D01*
X66662Y622252D01*
X68296Y621575D01*
X70064D01*
X71698Y622252D01*
X72948Y623502D01*
X73625Y625136D01*
Y626904D01*
X72948Y628538D01*
X71698Y629788D01*
X70064Y630465D01*
D02*
G37*
G36*
X704464Y622935D02*
X702696D01*
X701062Y622258D01*
X699812Y621008D01*
X699135Y619374D01*
Y617606D01*
X699812Y615972D01*
X701062Y614722D01*
X702696Y614045D01*
X704464D01*
X706098Y614722D01*
X707348Y615972D01*
X708025Y617606D01*
Y619374D01*
X707348Y621008D01*
X706098Y622258D01*
X704464Y622935D01*
D02*
G37*
G36*
X266734Y619545D02*
X264966D01*
X263332Y618868D01*
X262082Y617618D01*
X261405Y615984D01*
Y614216D01*
X262082Y612582D01*
X263332Y611332D01*
X264966Y610655D01*
X266734D01*
X268368Y611332D01*
X269618Y612582D01*
X270295Y614216D01*
Y615984D01*
X269618Y617618D01*
X268368Y618868D01*
X266734Y619545D01*
D02*
G37*
G36*
X83354Y608285D02*
X81586D01*
X79952Y607608D01*
X78702Y606358D01*
X78025Y604724D01*
Y602956D01*
X78702Y601322D01*
X79952Y600072D01*
X81586Y599395D01*
X83354D01*
X84988Y600072D01*
X86238Y601322D01*
X86915Y602956D01*
Y604724D01*
X86238Y606358D01*
X84988Y607608D01*
X83354Y608285D01*
D02*
G37*
G36*
X256154Y605155D02*
X254386D01*
X252752Y604478D01*
X251502Y603228D01*
X250825Y601594D01*
Y599826D01*
X251502Y598192D01*
X252752Y596942D01*
X254386Y596265D01*
X256154D01*
X257788Y596942D01*
X259038Y598192D01*
X259715Y599826D01*
Y601594D01*
X259038Y603228D01*
X257788Y604478D01*
X256154Y605155D01*
D02*
G37*
G36*
X94784Y604475D02*
X93016D01*
X91382Y603798D01*
X90132Y602548D01*
X89455Y600914D01*
Y599146D01*
X90132Y597512D01*
X91382Y596262D01*
X93016Y595585D01*
X94784D01*
X96418Y596262D01*
X97668Y597512D01*
X98345Y599146D01*
Y600914D01*
X97668Y602548D01*
X96418Y603798D01*
X94784Y604475D01*
D02*
G37*
G36*
X705734Y603885D02*
X703966D01*
X702332Y603208D01*
X701082Y601958D01*
X700405Y600324D01*
Y598556D01*
X701082Y596922D01*
X702332Y595672D01*
X703966Y594995D01*
X705734D01*
X707368Y595672D01*
X708618Y596922D01*
X709295Y598556D01*
Y600324D01*
X708618Y601958D01*
X707368Y603208D01*
X705734Y603885D01*
D02*
G37*
G36*
X767589Y602796D02*
X766318D01*
Y589788D01*
X779326D01*
Y591059D01*
X778405Y594497D01*
X776626Y597579D01*
X774109Y600095D01*
X771027Y601875D01*
X767589Y602796D01*
D02*
G37*
G36*
X765302D02*
X764031D01*
X760593Y601875D01*
X757511Y600095D01*
X754995Y597579D01*
X753215Y594497D01*
X752294Y591059D01*
Y589788D01*
X765302D01*
Y602796D01*
D02*
G37*
G36*
X662554Y597535D02*
X660786D01*
X659152Y596858D01*
X657902Y595608D01*
X657225Y593974D01*
Y592206D01*
X657902Y590572D01*
X659152Y589322D01*
X660786Y588645D01*
X662554D01*
X664188Y589322D01*
X665438Y590572D01*
X666115Y592206D01*
Y593974D01*
X665438Y595608D01*
X664188Y596858D01*
X662554Y597535D01*
D02*
G37*
G36*
X649854D02*
X648086D01*
X646452Y596858D01*
X645202Y595608D01*
X644525Y593974D01*
Y592206D01*
X645202Y590572D01*
X646452Y589322D01*
X648086Y588645D01*
X649854D01*
X651488Y589322D01*
X652738Y590572D01*
X653415Y592206D01*
Y593974D01*
X652738Y595608D01*
X651488Y596858D01*
X649854Y597535D01*
D02*
G37*
G36*
X256724Y589345D02*
X254956D01*
X253322Y588668D01*
X252072Y587418D01*
X251395Y585784D01*
Y584016D01*
X252072Y582382D01*
X253322Y581132D01*
X254956Y580455D01*
X256724D01*
X258358Y581132D01*
X259608Y582382D01*
X260285Y584016D01*
Y585784D01*
X259608Y587418D01*
X258358Y588668D01*
X256724Y589345D01*
D02*
G37*
G36*
X779326Y588772D02*
X766318D01*
Y575764D01*
X767589D01*
X771027Y576685D01*
X774109Y578465D01*
X776626Y580981D01*
X778405Y584063D01*
X779326Y587501D01*
Y588772D01*
D02*
G37*
G36*
X765302D02*
X752294D01*
Y587501D01*
X753215Y584063D01*
X754995Y580981D01*
X757511Y578465D01*
X760593Y576685D01*
X764031Y575764D01*
X765302D01*
Y588772D01*
D02*
G37*
G36*
X184144Y584455D02*
X182376D01*
X180742Y583778D01*
X179492Y582528D01*
X178815Y580894D01*
Y579126D01*
X179492Y577492D01*
X180742Y576242D01*
X182376Y575565D01*
X184144D01*
X185778Y576242D01*
X187028Y577492D01*
X187705Y579126D01*
Y580894D01*
X187028Y582528D01*
X185778Y583778D01*
X184144Y584455D01*
D02*
G37*
G36*
X706744Y580765D02*
X704976D01*
X703342Y580088D01*
X702092Y578838D01*
X701415Y577204D01*
Y575436D01*
X702092Y573802D01*
X703342Y572552D01*
X704976Y571875D01*
X706744D01*
X708378Y572552D01*
X709628Y573802D01*
X710305Y575436D01*
Y577204D01*
X709628Y578838D01*
X708378Y580088D01*
X706744Y580765D01*
D02*
G37*
G36*
X324829Y578206D02*
X323238D01*
X321768Y577597D01*
X320643Y576472D01*
X320034Y575002D01*
Y573410D01*
X320643Y571940D01*
X321768Y570815D01*
X323238Y570206D01*
X324829D01*
X326300Y570815D01*
X327425Y571940D01*
X328034Y573410D01*
Y575002D01*
X327425Y576472D01*
X326300Y577597D01*
X324829Y578206D01*
D02*
G37*
G36*
X299246Y578040D02*
X297654D01*
X296184Y577431D01*
X295059Y576306D01*
X294450Y574836D01*
Y573244D01*
X295059Y571774D01*
X296184Y570649D01*
X297654Y570040D01*
X299246D01*
X300716Y570649D01*
X301841Y571774D01*
X302450Y573244D01*
Y574836D01*
X301841Y576306D01*
X300716Y577431D01*
X299246Y578040D01*
D02*
G37*
G36*
X310859Y574396D02*
X309268D01*
X307798Y573787D01*
X306673Y572662D01*
X306064Y571192D01*
Y569600D01*
X306673Y568130D01*
X307798Y567005D01*
X309268Y566396D01*
X310859D01*
X312330Y567005D01*
X313455Y568130D01*
X314064Y569600D01*
Y571192D01*
X313455Y572662D01*
X312330Y573787D01*
X310859Y574396D01*
D02*
G37*
G36*
X202814Y573405D02*
X201046D01*
X199412Y572728D01*
X198162Y571478D01*
X197485Y569844D01*
Y568076D01*
X198162Y566442D01*
X199412Y565192D01*
X201046Y564515D01*
X202814D01*
X204448Y565192D01*
X205698Y566442D01*
X206375Y568076D01*
Y569844D01*
X205698Y571478D01*
X204448Y572728D01*
X202814Y573405D01*
D02*
G37*
G36*
X439308Y569540D02*
X437716D01*
X436246Y568931D01*
X435121Y567806D01*
X434512Y566336D01*
Y564744D01*
X435121Y563274D01*
X436246Y562149D01*
X437716Y561540D01*
X439308D01*
X440778Y562149D01*
X441903Y563274D01*
X442512Y564744D01*
Y566336D01*
X441903Y567806D01*
X440778Y568931D01*
X439308Y569540D01*
D02*
G37*
G36*
X336259Y568046D02*
X334668D01*
X333198Y567437D01*
X332073Y566312D01*
X331464Y564842D01*
Y563250D01*
X332073Y561780D01*
X333198Y560655D01*
X334668Y560046D01*
X336259D01*
X337729Y560655D01*
X338855Y561780D01*
X339464Y563250D01*
Y564842D01*
X338855Y566312D01*
X337729Y567437D01*
X336259Y568046D01*
D02*
G37*
G36*
X323559Y562966D02*
X321968D01*
X320498Y562357D01*
X319373Y561232D01*
X318764Y559762D01*
Y558170D01*
X319373Y556700D01*
X320498Y555575D01*
X321968Y554966D01*
X323559D01*
X325029Y555575D01*
X326155Y556700D01*
X326764Y558170D01*
Y559762D01*
X326155Y561232D01*
X325029Y562357D01*
X323559Y562966D01*
D02*
G37*
G36*
X308319Y560426D02*
X306728D01*
X305258Y559817D01*
X304133Y558692D01*
X303524Y557222D01*
Y555630D01*
X304133Y554160D01*
X305258Y553035D01*
X306728Y552426D01*
X308319D01*
X309790Y553035D01*
X310915Y554160D01*
X311524Y555630D01*
Y557222D01*
X310915Y558692D01*
X309790Y559817D01*
X308319Y560426D01*
D02*
G37*
G36*
X569949Y557426D02*
X569468D01*
Y550418D01*
X576476D01*
Y550900D01*
X575964Y552811D01*
X574974Y554525D01*
X573575Y555924D01*
X571861Y556914D01*
X569949Y557426D01*
D02*
G37*
G36*
X568452D02*
X567971D01*
X566059Y556914D01*
X564345Y555924D01*
X562946Y554525D01*
X561956Y552811D01*
X561444Y550900D01*
Y550418D01*
X568452D01*
Y557426D01*
D02*
G37*
G36*
X292896Y556450D02*
X291304D01*
X289834Y555841D01*
X288709Y554716D01*
X288100Y553246D01*
Y551654D01*
X288709Y550184D01*
X289834Y549059D01*
X291304Y548450D01*
X292896D01*
X294366Y549059D01*
X295491Y550184D01*
X296100Y551654D01*
Y553246D01*
X295491Y554716D01*
X294366Y555841D01*
X292896Y556450D01*
D02*
G37*
G36*
X576476Y549402D02*
X569468D01*
Y542394D01*
X569949D01*
X571861Y542906D01*
X573575Y543896D01*
X574974Y545295D01*
X575964Y547009D01*
X576476Y548921D01*
Y549402D01*
D02*
G37*
G36*
X568452D02*
X561444D01*
Y548921D01*
X561956Y547009D01*
X562946Y545295D01*
X564345Y543896D01*
X566059Y542906D01*
X567971Y542394D01*
X568452D01*
Y549402D01*
D02*
G37*
G36*
X493750Y557426D02*
X491771D01*
X489859Y556914D01*
X488145Y555924D01*
X486746Y554525D01*
X485756Y552811D01*
X485244Y550900D01*
Y548921D01*
X485756Y547009D01*
X486746Y545295D01*
X488145Y543896D01*
X489859Y542906D01*
X491771Y542394D01*
X493750D01*
X495661Y542906D01*
X497375Y543896D01*
X498774Y545295D01*
X499764Y547009D01*
X500276Y548921D01*
Y550900D01*
X499764Y552811D01*
X498774Y554525D01*
X497375Y555924D01*
X495661Y556914D01*
X493750Y557426D01*
D02*
G37*
G36*
X417550D02*
X415570D01*
X413659Y556914D01*
X411945Y555924D01*
X410546Y554525D01*
X409556Y552811D01*
X409044Y550900D01*
Y548921D01*
X409556Y547009D01*
X410546Y545295D01*
X411945Y543896D01*
X413659Y542906D01*
X415570Y542394D01*
X417550D01*
X419461Y542906D01*
X421175Y543896D01*
X422574Y545295D01*
X423564Y547009D01*
X424076Y548921D01*
Y550900D01*
X423564Y552811D01*
X422574Y554525D01*
X421175Y555924D01*
X419461Y556914D01*
X417550Y557426D01*
D02*
G37*
G36*
X456909Y550266D02*
X455318D01*
X453848Y549657D01*
X452723Y548532D01*
X452114Y547062D01*
Y545470D01*
X452723Y544000D01*
X453848Y542875D01*
X455318Y542266D01*
X456909D01*
X458380Y542875D01*
X459505Y544000D01*
X460114Y545470D01*
Y547062D01*
X459505Y548532D01*
X458380Y549657D01*
X456909Y550266D01*
D02*
G37*
G36*
X440399Y546456D02*
X438808D01*
X437338Y545847D01*
X436213Y544722D01*
X435604Y543252D01*
Y541660D01*
X436213Y540190D01*
X437338Y539065D01*
X438808Y538456D01*
X440399D01*
X441870Y539065D01*
X442995Y540190D01*
X443604Y541660D01*
Y543252D01*
X442995Y544722D01*
X441870Y545847D01*
X440399Y546456D01*
D02*
G37*
G36*
X131694Y545465D02*
X129926D01*
X128292Y544788D01*
X127042Y543538D01*
X126365Y541904D01*
Y540136D01*
X127042Y538502D01*
X128292Y537252D01*
X129926Y536575D01*
X131694D01*
X133328Y537252D01*
X134578Y538502D01*
X135255Y540136D01*
Y541904D01*
X134578Y543538D01*
X133328Y544788D01*
X131694Y545465D01*
D02*
G37*
G36*
X324734Y544195D02*
X322966D01*
X321332Y543518D01*
X320082Y542268D01*
X319405Y540634D01*
Y538866D01*
X320082Y537232D01*
X321332Y535982D01*
X322966Y535305D01*
X324734D01*
X326368Y535982D01*
X327618Y537232D01*
X328295Y538866D01*
Y540634D01*
X327618Y542268D01*
X326368Y543518D01*
X324734Y544195D01*
D02*
G37*
G36*
X154554D02*
X152786D01*
X151152Y543518D01*
X149902Y542268D01*
X149225Y540634D01*
Y538866D01*
X149902Y537232D01*
X151152Y535982D01*
X152786Y535305D01*
X154554D01*
X156188Y535982D01*
X157438Y537232D01*
X158115Y538866D01*
Y540634D01*
X157438Y542268D01*
X156188Y543518D01*
X154554Y544195D01*
D02*
G37*
G36*
X142414Y541095D02*
X140646D01*
X139012Y540418D01*
X137762Y539168D01*
X137085Y537534D01*
Y535766D01*
X137762Y534132D01*
X139012Y532882D01*
X140646Y532205D01*
X142414D01*
X144048Y532882D01*
X145298Y534132D01*
X145975Y535766D01*
Y537534D01*
X145298Y539168D01*
X144048Y540418D01*
X142414Y541095D01*
D02*
G37*
G36*
X454369Y538836D02*
X452778D01*
X451308Y538227D01*
X450183Y537102D01*
X449574Y535632D01*
Y534040D01*
X450183Y532570D01*
X451308Y531445D01*
X452778Y530836D01*
X454369D01*
X455840Y531445D01*
X456965Y532570D01*
X457574Y534040D01*
Y535632D01*
X456965Y537102D01*
X455840Y538227D01*
X454369Y538836D01*
D02*
G37*
G36*
X348864Y539115D02*
X347096D01*
X345462Y538438D01*
X344212Y537188D01*
X343535Y535554D01*
Y533786D01*
X344212Y532152D01*
X345462Y530902D01*
X347096Y530225D01*
X348864D01*
X350498Y530902D01*
X351748Y532152D01*
X352425Y533786D01*
Y535554D01*
X351748Y537188D01*
X350498Y538438D01*
X348864Y539115D01*
D02*
G37*
G36*
X437859Y533756D02*
X436268D01*
X434798Y533147D01*
X433673Y532022D01*
X433064Y530552D01*
Y528960D01*
X433673Y527490D01*
X434798Y526365D01*
X436268Y525756D01*
X437859D01*
X439329Y526365D01*
X440455Y527490D01*
X441064Y528960D01*
Y530552D01*
X440455Y532022D01*
X439329Y533147D01*
X437859Y533756D01*
D02*
G37*
G36*
X422619D02*
X421028D01*
X419558Y533147D01*
X418433Y532022D01*
X417824Y530552D01*
Y528960D01*
X418433Y527490D01*
X419558Y526365D01*
X421028Y525756D01*
X422619D01*
X424090Y526365D01*
X425215Y527490D01*
X425824Y528960D01*
Y530552D01*
X425215Y532022D01*
X424090Y533147D01*
X422619Y533756D01*
D02*
G37*
G36*
X408617Y531920D02*
X407026D01*
X405556Y531311D01*
X404431Y530186D01*
X403822Y528715D01*
Y527124D01*
X404431Y525654D01*
X405556Y524529D01*
X407026Y523920D01*
X408617D01*
X410087Y524529D01*
X411213Y525654D01*
X411822Y527124D01*
Y528715D01*
X411213Y530186D01*
X410087Y531311D01*
X408617Y531920D01*
D02*
G37*
G36*
X174786Y523430D02*
X173194D01*
X171724Y522821D01*
X170599Y521696D01*
X169990Y520226D01*
Y518634D01*
X170599Y517164D01*
X171724Y516039D01*
X173194Y515430D01*
X174786D01*
X176256Y516039D01*
X177381Y517164D01*
X177990Y518634D01*
Y520226D01*
X177381Y521696D01*
X176256Y522821D01*
X174786Y523430D01*
D02*
G37*
G36*
X831438Y520866D02*
X831088D01*
Y514858D01*
X837096D01*
Y515208D01*
X836652Y516865D01*
X835794Y518351D01*
X834581Y519564D01*
X833095Y520422D01*
X831438Y520866D01*
D02*
G37*
G36*
X780638D02*
X780288D01*
Y514858D01*
X786296D01*
Y515208D01*
X785852Y516865D01*
X784994Y518351D01*
X783781Y519564D01*
X782295Y520422D01*
X780638Y520866D01*
D02*
G37*
G36*
X830072D02*
X829722D01*
X828065Y520422D01*
X826579Y519564D01*
X825366Y518351D01*
X824508Y516865D01*
X824064Y515208D01*
Y514858D01*
X830072D01*
Y520866D01*
D02*
G37*
G36*
X779272D02*
X778922D01*
X777265Y520422D01*
X775779Y519564D01*
X774566Y518351D01*
X773708Y516865D01*
X773264Y515208D01*
Y514858D01*
X779272D01*
Y520866D01*
D02*
G37*
G36*
X186216Y522160D02*
X184624D01*
X183154Y521551D01*
X182029Y520426D01*
X181420Y518956D01*
Y517364D01*
X182029Y515894D01*
X183154Y514769D01*
X184624Y514160D01*
X186216D01*
X187686Y514769D01*
X188811Y515894D01*
X189420Y517364D01*
Y518956D01*
X188811Y520426D01*
X187686Y521551D01*
X186216Y522160D01*
D02*
G37*
G36*
X458179Y519786D02*
X456588D01*
X455118Y519177D01*
X453993Y518052D01*
X453384Y516582D01*
Y514990D01*
X453993Y513520D01*
X455118Y512395D01*
X456588Y511786D01*
X458179D01*
X459650Y512395D01*
X460775Y513520D01*
X461384Y514990D01*
Y516582D01*
X460775Y518052D01*
X459650Y519177D01*
X458179Y519786D01*
D02*
G37*
G36*
X414999Y518516D02*
X413408D01*
X411938Y517907D01*
X410813Y516782D01*
X410204Y515312D01*
Y513720D01*
X410813Y512250D01*
X411938Y511125D01*
X413408Y510516D01*
X414999D01*
X416469Y511125D01*
X417595Y512250D01*
X418204Y513720D01*
Y515312D01*
X417595Y516782D01*
X416469Y517907D01*
X414999Y518516D01*
D02*
G37*
G36*
X235914Y518875D02*
X234146D01*
X232512Y518198D01*
X231262Y516948D01*
X230585Y515314D01*
Y513546D01*
X231262Y511912D01*
X232512Y510662D01*
X234146Y509985D01*
X235914D01*
X237548Y510662D01*
X238798Y511912D01*
X239475Y513546D01*
Y515314D01*
X238798Y516948D01*
X237548Y518198D01*
X235914Y518875D01*
D02*
G37*
G36*
X837096Y513842D02*
X831088D01*
Y507834D01*
X831438D01*
X833095Y508278D01*
X834581Y509136D01*
X835794Y510349D01*
X836652Y511835D01*
X837096Y513492D01*
Y513842D01*
D02*
G37*
G36*
X830072D02*
X824064D01*
Y513492D01*
X824508Y511835D01*
X825366Y510349D01*
X826579Y509136D01*
X828065Y508278D01*
X829722Y507834D01*
X830072D01*
Y513842D01*
D02*
G37*
G36*
X786296D02*
X780288D01*
Y507834D01*
X780638D01*
X782295Y508278D01*
X783781Y509136D01*
X784994Y510349D01*
X785852Y511835D01*
X786296Y513492D01*
Y513842D01*
D02*
G37*
G36*
X779272D02*
X773264D01*
Y513492D01*
X773708Y511835D01*
X774566Y510349D01*
X775779Y509136D01*
X777265Y508278D01*
X778922Y507834D01*
X779272D01*
Y513842D01*
D02*
G37*
G36*
X436589Y514706D02*
X434998D01*
X433528Y514097D01*
X432403Y512972D01*
X431794Y511502D01*
Y509910D01*
X432403Y508440D01*
X433528Y507315D01*
X434998Y506706D01*
X436589D01*
X438060Y507315D01*
X439185Y508440D01*
X439794Y509910D01*
Y511502D01*
X439185Y512972D01*
X438060Y514097D01*
X436589Y514706D01*
D02*
G37*
G36*
X167166Y513270D02*
X165574D01*
X164104Y512661D01*
X162979Y511536D01*
X162370Y510066D01*
Y508474D01*
X162979Y507004D01*
X164104Y505879D01*
X165574Y505270D01*
X167166D01*
X168636Y505879D01*
X169761Y507004D01*
X170370Y508474D01*
Y510066D01*
X169761Y511536D01*
X168636Y512661D01*
X167166Y513270D01*
D02*
G37*
G36*
X401029Y512166D02*
X399438D01*
X397968Y511557D01*
X396843Y510432D01*
X396234Y508962D01*
Y507370D01*
X396843Y505900D01*
X397968Y504775D01*
X399438Y504166D01*
X401029D01*
X402500Y504775D01*
X403625Y505900D01*
X404234Y507370D01*
Y508962D01*
X403625Y510432D01*
X402500Y511557D01*
X401029Y512166D01*
D02*
G37*
G36*
X177326Y510730D02*
X175734D01*
X174264Y510121D01*
X173139Y508996D01*
X172530Y507526D01*
Y505934D01*
X173139Y504464D01*
X174264Y503339D01*
X175734Y502730D01*
X177326D01*
X178796Y503339D01*
X179921Y504464D01*
X180530Y505934D01*
Y507526D01*
X179921Y508996D01*
X178796Y510121D01*
X177326Y510730D01*
D02*
G37*
G36*
X418809Y504546D02*
X417218D01*
X415748Y503937D01*
X414623Y502812D01*
X414014Y501342D01*
Y499750D01*
X414623Y498280D01*
X415748Y497155D01*
X417218Y496546D01*
X418809D01*
X420280Y497155D01*
X421405Y498280D01*
X422014Y499750D01*
Y501342D01*
X421405Y502812D01*
X420280Y503937D01*
X418809Y504546D01*
D02*
G37*
G36*
X169706Y500570D02*
X168114D01*
X166644Y499961D01*
X165519Y498836D01*
X164910Y497366D01*
Y495774D01*
X165519Y494304D01*
X166644Y493179D01*
X168114Y492570D01*
X169706D01*
X171176Y493179D01*
X172301Y494304D01*
X172910Y495774D01*
Y497366D01*
X172301Y498836D01*
X171176Y499961D01*
X169706Y500570D01*
D02*
G37*
G36*
X182406Y499300D02*
X180814D01*
X179344Y498691D01*
X178219Y497566D01*
X177610Y496096D01*
Y494504D01*
X178219Y493034D01*
X179344Y491909D01*
X180814Y491300D01*
X182406D01*
X183876Y491909D01*
X185001Y493034D01*
X185610Y494504D01*
Y496096D01*
X185001Y497566D01*
X183876Y498691D01*
X182406Y499300D01*
D02*
G37*
G36*
X780638Y495466D02*
X778922D01*
X777265Y495022D01*
X775779Y494164D01*
X774566Y492951D01*
X773708Y491465D01*
X773264Y489808D01*
Y488092D01*
X773708Y486435D01*
X774566Y484949D01*
X775779Y483736D01*
X777265Y482878D01*
X778922Y482434D01*
X780638D01*
X782295Y482878D01*
X783781Y483736D01*
X784994Y484949D01*
X785852Y486435D01*
X786296Y488092D01*
Y489808D01*
X785852Y491465D01*
X784994Y492951D01*
X783781Y494164D01*
X782295Y495022D01*
X780638Y495466D01*
D02*
G37*
G36*
X319654Y481965D02*
X317886D01*
X316252Y481288D01*
X315002Y480038D01*
X314325Y478404D01*
Y476636D01*
X315002Y475002D01*
X316252Y473752D01*
X317886Y473075D01*
X319654D01*
X321288Y473752D01*
X322538Y475002D01*
X323215Y476636D01*
Y478404D01*
X322538Y480038D01*
X321288Y481288D01*
X319654Y481965D01*
D02*
G37*
G36*
X152778Y493856D02*
X149482D01*
X146299Y493003D01*
X143445Y491355D01*
X141115Y489025D01*
X139467Y486171D01*
X138614Y482988D01*
Y479692D01*
X139467Y476509D01*
X141115Y473655D01*
X143445Y471325D01*
X146299Y469677D01*
X149482Y468824D01*
X152778D01*
X155961Y469677D01*
X158815Y471325D01*
X161145Y473655D01*
X162793Y476509D01*
X163646Y479692D01*
Y482988D01*
X162793Y486171D01*
X161145Y489025D01*
X158815Y491355D01*
X155961Y493003D01*
X152778Y493856D01*
D02*
G37*
G36*
X831438Y470066D02*
X831088D01*
Y464058D01*
X837096D01*
Y464408D01*
X836652Y466065D01*
X835794Y467551D01*
X834581Y468764D01*
X833095Y469622D01*
X831438Y470066D01*
D02*
G37*
G36*
X830072D02*
X829722D01*
X828065Y469622D01*
X826579Y468764D01*
X825366Y467551D01*
X824508Y466065D01*
X824064Y464408D01*
Y464058D01*
X830072D01*
Y470066D01*
D02*
G37*
G36*
X169706Y471360D02*
X168114D01*
X166644Y470751D01*
X165519Y469626D01*
X164910Y468156D01*
Y466564D01*
X165519Y465094D01*
X166644Y463969D01*
X168114Y463360D01*
X169706D01*
X171176Y463969D01*
X172301Y465094D01*
X172910Y466564D01*
Y468156D01*
X172301Y469626D01*
X171176Y470751D01*
X169706Y471360D01*
D02*
G37*
G36*
X182406Y470090D02*
X180814D01*
X179344Y469481D01*
X178219Y468356D01*
X177610Y466886D01*
Y465294D01*
X178219Y463824D01*
X179344Y462699D01*
X180814Y462090D01*
X182406D01*
X183876Y462699D01*
X185001Y463824D01*
X185610Y465294D01*
Y466886D01*
X185001Y468356D01*
X183876Y469481D01*
X182406Y470090D01*
D02*
G37*
G36*
X25778Y472256D02*
X24638D01*
Y460248D01*
X36646D01*
Y461388D01*
X35793Y464571D01*
X34145Y467425D01*
X31815Y469755D01*
X28961Y471403D01*
X25778Y472256D01*
D02*
G37*
G36*
X23622D02*
X22482D01*
X19299Y471403D01*
X16445Y469755D01*
X14115Y467425D01*
X12467Y464571D01*
X11614Y461388D01*
Y460248D01*
X23622D01*
Y472256D01*
D02*
G37*
G36*
X837096Y463042D02*
X831088D01*
Y457034D01*
X831438D01*
X833095Y457478D01*
X834581Y458336D01*
X835794Y459549D01*
X836652Y461035D01*
X837096Y462692D01*
Y463042D01*
D02*
G37*
G36*
X830072D02*
X824064D01*
Y462692D01*
X824508Y461035D01*
X825366Y459549D01*
X826579Y458336D01*
X828065Y457478D01*
X829722Y457034D01*
X830072D01*
Y463042D01*
D02*
G37*
G36*
X780638Y470066D02*
X778922D01*
X777265Y469622D01*
X775779Y468764D01*
X774566Y467551D01*
X773708Y466065D01*
X773264Y464408D01*
Y462692D01*
X773708Y461035D01*
X774566Y459549D01*
X775779Y458336D01*
X777265Y457478D01*
X778922Y457034D01*
X780638D01*
X782295Y457478D01*
X783781Y458336D01*
X784994Y459549D01*
X785852Y461035D01*
X786296Y462692D01*
Y464408D01*
X785852Y466065D01*
X784994Y467551D01*
X783781Y468764D01*
X782295Y469622D01*
X780638Y470066D01*
D02*
G37*
G36*
X36646Y459232D02*
X24638D01*
Y447224D01*
X25778D01*
X28961Y448077D01*
X31815Y449725D01*
X34145Y452055D01*
X35793Y454909D01*
X36646Y458092D01*
Y459232D01*
D02*
G37*
G36*
X23622D02*
X11614D01*
Y458092D01*
X12467Y454909D01*
X14115Y452055D01*
X16445Y449725D01*
X19299Y448077D01*
X22482Y447224D01*
X23622D01*
Y459232D01*
D02*
G37*
G36*
X662554Y443865D02*
X660786D01*
X659152Y443188D01*
X657902Y441938D01*
X657225Y440304D01*
Y438536D01*
X657902Y436902D01*
X659152Y435652D01*
X660786Y434975D01*
X662554D01*
X664188Y435652D01*
X665438Y436902D01*
X666115Y438536D01*
Y440304D01*
X665438Y441938D01*
X664188Y443188D01*
X662554Y443865D01*
D02*
G37*
G36*
X152778Y446856D02*
X149482D01*
X146299Y446003D01*
X143445Y444355D01*
X141115Y442025D01*
X139467Y439171D01*
X138614Y435988D01*
Y432692D01*
X139467Y429509D01*
X141115Y426655D01*
X143445Y424325D01*
X146299Y422677D01*
X149482Y421824D01*
X152778D01*
X155961Y422677D01*
X158815Y424325D01*
X161145Y426655D01*
X162793Y429509D01*
X163646Y432692D01*
Y435988D01*
X162793Y439171D01*
X161145Y442025D01*
X158815Y444355D01*
X155961Y446003D01*
X152778Y446856D01*
D02*
G37*
G36*
X25778Y421456D02*
X24638D01*
Y409448D01*
X36646D01*
Y410588D01*
X35793Y413771D01*
X34145Y416625D01*
X31815Y418955D01*
X28961Y420603D01*
X25778Y421456D01*
D02*
G37*
G36*
X23622D02*
X22482D01*
X19299Y420603D01*
X16445Y418955D01*
X14115Y416625D01*
X12467Y413771D01*
X11614Y410588D01*
Y409448D01*
X23622D01*
Y421456D01*
D02*
G37*
G36*
X807576Y413686D02*
X806958D01*
Y405638D01*
X815006D01*
Y406256D01*
X814423Y408433D01*
X813297Y410383D01*
X811703Y411977D01*
X809753Y413103D01*
X807576Y413686D01*
D02*
G37*
G36*
X680576D02*
X679958D01*
Y405638D01*
X688006D01*
Y406256D01*
X687423Y408433D01*
X686296Y410383D01*
X684704Y411977D01*
X682753Y413103D01*
X680576Y413686D01*
D02*
G37*
G36*
X553576D02*
X552958D01*
Y405638D01*
X561006D01*
Y406256D01*
X560423Y408433D01*
X559296Y410383D01*
X557704Y411977D01*
X555752Y413103D01*
X553576Y413686D01*
D02*
G37*
G36*
X426576D02*
X425958D01*
Y405638D01*
X434006D01*
Y406256D01*
X433423Y408433D01*
X432296Y410383D01*
X430704Y411977D01*
X428753Y413103D01*
X426576Y413686D01*
D02*
G37*
G36*
X805942D02*
X805324D01*
X803148Y413103D01*
X801197Y411977D01*
X799604Y410383D01*
X798477Y408433D01*
X797894Y406256D01*
Y405638D01*
X805942D01*
Y413686D01*
D02*
G37*
G36*
X678942D02*
X678324D01*
X676148Y413103D01*
X674196Y411977D01*
X672604Y410383D01*
X671477Y408433D01*
X670894Y406256D01*
Y405638D01*
X678942D01*
Y413686D01*
D02*
G37*
G36*
X551942D02*
X551324D01*
X549147Y413103D01*
X547197Y411977D01*
X545603Y410383D01*
X544477Y408433D01*
X543894Y406256D01*
Y405638D01*
X551942D01*
Y413686D01*
D02*
G37*
G36*
X424942D02*
X424324D01*
X422147Y413103D01*
X420196Y411977D01*
X418604Y410383D01*
X417477Y408433D01*
X416894Y406256D01*
Y405638D01*
X424942D01*
Y413686D01*
D02*
G37*
G36*
X858376D02*
X856124D01*
X853948Y413103D01*
X851997Y411977D01*
X850404Y410383D01*
X849277Y408433D01*
X848694Y406256D01*
Y404004D01*
X849277Y401828D01*
X850404Y399877D01*
X851997Y398284D01*
X853948Y397157D01*
X856124Y396574D01*
X858376D01*
X860553Y397157D01*
X862504Y398284D01*
X864097Y399877D01*
X865223Y401828D01*
X865806Y404004D01*
Y406256D01*
X865223Y408433D01*
X864097Y410383D01*
X862504Y411977D01*
X860553Y413103D01*
X858376Y413686D01*
D02*
G37*
G36*
X832976D02*
X830724D01*
X828548Y413103D01*
X826597Y411977D01*
X825004Y410383D01*
X823877Y408433D01*
X823294Y406256D01*
Y404004D01*
X823877Y401828D01*
X825004Y399877D01*
X826597Y398284D01*
X828548Y397157D01*
X830724Y396574D01*
X832976D01*
X835153Y397157D01*
X837104Y398284D01*
X838697Y399877D01*
X839823Y401828D01*
X840406Y404004D01*
Y406256D01*
X839823Y408433D01*
X838697Y410383D01*
X837104Y411977D01*
X835153Y413103D01*
X832976Y413686D01*
D02*
G37*
G36*
X815006Y404622D02*
X806958D01*
Y396574D01*
X807576D01*
X809753Y397157D01*
X811703Y398284D01*
X813297Y399877D01*
X814423Y401828D01*
X815006Y404004D01*
Y404622D01*
D02*
G37*
G36*
X805942D02*
X797894D01*
Y404004D01*
X798477Y401828D01*
X799604Y399877D01*
X801197Y398284D01*
X803148Y397157D01*
X805324Y396574D01*
X805942D01*
Y404622D01*
D02*
G37*
G36*
X782176Y413686D02*
X779924D01*
X777747Y413103D01*
X775797Y411977D01*
X774203Y410383D01*
X773077Y408433D01*
X772494Y406256D01*
Y404004D01*
X773077Y401828D01*
X774203Y399877D01*
X775797Y398284D01*
X777747Y397157D01*
X779924Y396574D01*
X782176D01*
X784352Y397157D01*
X786303Y398284D01*
X787896Y399877D01*
X789023Y401828D01*
X789606Y404004D01*
Y406256D01*
X789023Y408433D01*
X787896Y410383D01*
X786303Y411977D01*
X784352Y413103D01*
X782176Y413686D01*
D02*
G37*
G36*
X756776D02*
X754524D01*
X752347Y413103D01*
X750396Y411977D01*
X748803Y410383D01*
X747677Y408433D01*
X747094Y406256D01*
Y404004D01*
X747677Y401828D01*
X748803Y399877D01*
X750396Y398284D01*
X752347Y397157D01*
X754524Y396574D01*
X756776D01*
X758952Y397157D01*
X760903Y398284D01*
X762496Y399877D01*
X763623Y401828D01*
X764206Y404004D01*
Y406256D01*
X763623Y408433D01*
X762496Y410383D01*
X760903Y411977D01*
X758952Y413103D01*
X756776Y413686D01*
D02*
G37*
G36*
X731376D02*
X729124D01*
X726947Y413103D01*
X724996Y411977D01*
X723403Y410383D01*
X722277Y408433D01*
X721694Y406256D01*
Y404004D01*
X722277Y401828D01*
X723403Y399877D01*
X724996Y398284D01*
X726947Y397157D01*
X729124Y396574D01*
X731376D01*
X733552Y397157D01*
X735503Y398284D01*
X737096Y399877D01*
X738223Y401828D01*
X738806Y404004D01*
Y406256D01*
X738223Y408433D01*
X737096Y410383D01*
X735503Y411977D01*
X733552Y413103D01*
X731376Y413686D01*
D02*
G37*
G36*
X705976D02*
X703724D01*
X701547Y413103D01*
X699596Y411977D01*
X698003Y410383D01*
X696877Y408433D01*
X696294Y406256D01*
Y404004D01*
X696877Y401828D01*
X698003Y399877D01*
X699596Y398284D01*
X701547Y397157D01*
X703724Y396574D01*
X705976D01*
X708152Y397157D01*
X710104Y398284D01*
X711696Y399877D01*
X712823Y401828D01*
X713406Y404004D01*
Y406256D01*
X712823Y408433D01*
X711696Y410383D01*
X710104Y411977D01*
X708152Y413103D01*
X705976Y413686D01*
D02*
G37*
G36*
X688006Y404622D02*
X679958D01*
Y396574D01*
X680576D01*
X682753Y397157D01*
X684704Y398284D01*
X686296Y399877D01*
X687423Y401828D01*
X688006Y404004D01*
Y404622D01*
D02*
G37*
G36*
X678942D02*
X670894D01*
Y404004D01*
X671477Y401828D01*
X672604Y399877D01*
X674196Y398284D01*
X676148Y397157D01*
X678324Y396574D01*
X678942D01*
Y404622D01*
D02*
G37*
G36*
X655176Y413686D02*
X652924D01*
X650748Y413103D01*
X648796Y411977D01*
X647204Y410383D01*
X646077Y408433D01*
X645494Y406256D01*
Y404004D01*
X646077Y401828D01*
X647204Y399877D01*
X648796Y398284D01*
X650748Y397157D01*
X652924Y396574D01*
X655176D01*
X657353Y397157D01*
X659304Y398284D01*
X660897Y399877D01*
X662023Y401828D01*
X662606Y404004D01*
Y406256D01*
X662023Y408433D01*
X660897Y410383D01*
X659304Y411977D01*
X657353Y413103D01*
X655176Y413686D01*
D02*
G37*
G36*
X629776D02*
X627524D01*
X625348Y413103D01*
X623396Y411977D01*
X621804Y410383D01*
X620677Y408433D01*
X620094Y406256D01*
Y404004D01*
X620677Y401828D01*
X621804Y399877D01*
X623396Y398284D01*
X625348Y397157D01*
X627524Y396574D01*
X629776D01*
X631953Y397157D01*
X633904Y398284D01*
X635496Y399877D01*
X636623Y401828D01*
X637206Y404004D01*
Y406256D01*
X636623Y408433D01*
X635496Y410383D01*
X633904Y411977D01*
X631953Y413103D01*
X629776Y413686D01*
D02*
G37*
G36*
X604376D02*
X602124D01*
X599948Y413103D01*
X597996Y411977D01*
X596404Y410383D01*
X595277Y408433D01*
X594694Y406256D01*
Y404004D01*
X595277Y401828D01*
X596404Y399877D01*
X597996Y398284D01*
X599948Y397157D01*
X602124Y396574D01*
X604376D01*
X606553Y397157D01*
X608503Y398284D01*
X610097Y399877D01*
X611223Y401828D01*
X611806Y404004D01*
Y406256D01*
X611223Y408433D01*
X610097Y410383D01*
X608503Y411977D01*
X606553Y413103D01*
X604376Y413686D01*
D02*
G37*
G36*
X578976D02*
X576724D01*
X574548Y413103D01*
X572597Y411977D01*
X571003Y410383D01*
X569877Y408433D01*
X569294Y406256D01*
Y404004D01*
X569877Y401828D01*
X571003Y399877D01*
X572597Y398284D01*
X574548Y397157D01*
X576724Y396574D01*
X578976D01*
X581152Y397157D01*
X583103Y398284D01*
X584697Y399877D01*
X585823Y401828D01*
X586406Y404004D01*
Y406256D01*
X585823Y408433D01*
X584697Y410383D01*
X583103Y411977D01*
X581152Y413103D01*
X578976Y413686D01*
D02*
G37*
G36*
X561006Y404622D02*
X552958D01*
Y396574D01*
X553576D01*
X555752Y397157D01*
X557704Y398284D01*
X559296Y399877D01*
X560423Y401828D01*
X561006Y404004D01*
Y404622D01*
D02*
G37*
G36*
X551942D02*
X543894D01*
Y404004D01*
X544477Y401828D01*
X545603Y399877D01*
X547197Y398284D01*
X549147Y397157D01*
X551324Y396574D01*
X551942D01*
Y404622D01*
D02*
G37*
G36*
X528176Y413686D02*
X525924D01*
X523747Y413103D01*
X521796Y411977D01*
X520204Y410383D01*
X519077Y408433D01*
X518494Y406256D01*
Y404004D01*
X519077Y401828D01*
X520204Y399877D01*
X521796Y398284D01*
X523747Y397157D01*
X525924Y396574D01*
X528176D01*
X530353Y397157D01*
X532304Y398284D01*
X533896Y399877D01*
X535023Y401828D01*
X535606Y404004D01*
Y406256D01*
X535023Y408433D01*
X533896Y410383D01*
X532304Y411977D01*
X530353Y413103D01*
X528176Y413686D01*
D02*
G37*
G36*
X502776D02*
X500524D01*
X498348Y413103D01*
X496396Y411977D01*
X494804Y410383D01*
X493677Y408433D01*
X493094Y406256D01*
Y404004D01*
X493677Y401828D01*
X494804Y399877D01*
X496396Y398284D01*
X498348Y397157D01*
X500524Y396574D01*
X502776D01*
X504953Y397157D01*
X506903Y398284D01*
X508497Y399877D01*
X509623Y401828D01*
X510206Y404004D01*
Y406256D01*
X509623Y408433D01*
X508497Y410383D01*
X506903Y411977D01*
X504953Y413103D01*
X502776Y413686D01*
D02*
G37*
G36*
X477376D02*
X475124D01*
X472948Y413103D01*
X470997Y411977D01*
X469403Y410383D01*
X468277Y408433D01*
X467694Y406256D01*
Y404004D01*
X468277Y401828D01*
X469403Y399877D01*
X470997Y398284D01*
X472948Y397157D01*
X475124Y396574D01*
X477376D01*
X479552Y397157D01*
X481503Y398284D01*
X483097Y399877D01*
X484223Y401828D01*
X484806Y404004D01*
Y406256D01*
X484223Y408433D01*
X483097Y410383D01*
X481503Y411977D01*
X479552Y413103D01*
X477376Y413686D01*
D02*
G37*
G36*
X451976D02*
X449724D01*
X447547Y413103D01*
X445597Y411977D01*
X444003Y410383D01*
X442877Y408433D01*
X442294Y406256D01*
Y404004D01*
X442877Y401828D01*
X444003Y399877D01*
X445597Y398284D01*
X447547Y397157D01*
X449724Y396574D01*
X451976D01*
X454152Y397157D01*
X456104Y398284D01*
X457696Y399877D01*
X458823Y401828D01*
X459406Y404004D01*
Y406256D01*
X458823Y408433D01*
X457696Y410383D01*
X456104Y411977D01*
X454152Y413103D01*
X451976Y413686D01*
D02*
G37*
G36*
X434006Y404622D02*
X425958D01*
Y396574D01*
X426576D01*
X428753Y397157D01*
X430704Y398284D01*
X432296Y399877D01*
X433423Y401828D01*
X434006Y404004D01*
Y404622D01*
D02*
G37*
G36*
X424942D02*
X416894D01*
Y404004D01*
X417477Y401828D01*
X418604Y399877D01*
X420196Y398284D01*
X422147Y397157D01*
X424324Y396574D01*
X424942D01*
Y404622D01*
D02*
G37*
G36*
X401176Y413686D02*
X398924D01*
X396748Y413103D01*
X394796Y411977D01*
X393204Y410383D01*
X392077Y408433D01*
X391494Y406256D01*
Y404004D01*
X392077Y401828D01*
X393204Y399877D01*
X394796Y398284D01*
X396748Y397157D01*
X398924Y396574D01*
X401176D01*
X403353Y397157D01*
X405303Y398284D01*
X406897Y399877D01*
X408023Y401828D01*
X408606Y404004D01*
Y406256D01*
X408023Y408433D01*
X406897Y410383D01*
X405303Y411977D01*
X403353Y413103D01*
X401176Y413686D01*
D02*
G37*
G36*
X375776D02*
X373524D01*
X371348Y413103D01*
X369397Y411977D01*
X367803Y410383D01*
X366677Y408433D01*
X366094Y406256D01*
Y404004D01*
X366677Y401828D01*
X367803Y399877D01*
X369397Y398284D01*
X371348Y397157D01*
X373524Y396574D01*
X375776D01*
X377952Y397157D01*
X379903Y398284D01*
X381497Y399877D01*
X382623Y401828D01*
X383206Y404004D01*
Y406256D01*
X382623Y408433D01*
X381497Y410383D01*
X379903Y411977D01*
X377952Y413103D01*
X375776Y413686D01*
D02*
G37*
G36*
X36646Y408432D02*
X24638D01*
Y396424D01*
X25778D01*
X28961Y397277D01*
X31815Y398925D01*
X34145Y401255D01*
X35793Y404109D01*
X36646Y407292D01*
Y408432D01*
D02*
G37*
G36*
X23622D02*
X11614D01*
Y407292D01*
X12467Y404109D01*
X14115Y401255D01*
X16445Y398925D01*
X19299Y397277D01*
X22482Y396424D01*
X23622D01*
Y408432D01*
D02*
G37*
G36*
X152778Y399856D02*
X151638D01*
Y387848D01*
X163646D01*
Y388988D01*
X162793Y392171D01*
X161145Y395025D01*
X158815Y397355D01*
X155961Y399003D01*
X152778Y399856D01*
D02*
G37*
G36*
X150622D02*
X149482D01*
X146299Y399003D01*
X143445Y397355D01*
X141115Y395025D01*
X139467Y392171D01*
X138614Y388988D01*
Y387848D01*
X150622D01*
Y399856D01*
D02*
G37*
G36*
X163646Y386832D02*
X151638D01*
Y374824D01*
X152778D01*
X155961Y375677D01*
X158815Y377325D01*
X161145Y379655D01*
X162793Y382509D01*
X163646Y385692D01*
Y386832D01*
D02*
G37*
G36*
X150622D02*
X138614D01*
Y385692D01*
X139467Y382509D01*
X141115Y379655D01*
X143445Y377325D01*
X146299Y375677D01*
X149482Y374824D01*
X150622D01*
Y386832D01*
D02*
G37*
G36*
X257553Y379740D02*
X255547D01*
X253609Y379221D01*
X251871Y378218D01*
X250452Y376799D01*
X249449Y375061D01*
X248930Y373123D01*
Y371117D01*
X249449Y369179D01*
X250452Y367441D01*
X251871Y366022D01*
X253609Y365019D01*
X255547Y364500D01*
X257553D01*
X259491Y365019D01*
X261229Y366022D01*
X262647Y367441D01*
X263651Y369179D01*
X264170Y371117D01*
Y373123D01*
X263651Y375061D01*
X262647Y376799D01*
X261229Y378218D01*
X259491Y379221D01*
X257553Y379740D01*
D02*
G37*
G36*
X216903Y379730D02*
X214897D01*
X212959Y379211D01*
X211221Y378208D01*
X209802Y376789D01*
X208799Y375051D01*
X208280Y373113D01*
Y371107D01*
X208799Y369169D01*
X209802Y367431D01*
X211221Y366012D01*
X212959Y365009D01*
X214897Y364490D01*
X216903D01*
X218841Y365009D01*
X220579Y366012D01*
X221998Y367431D01*
X223001Y369169D01*
X223520Y371107D01*
Y373113D01*
X223001Y375051D01*
X221998Y376789D01*
X220579Y378208D01*
X218841Y379211D01*
X216903Y379730D01*
D02*
G37*
G36*
X312478Y255436D02*
X312128D01*
Y249428D01*
X318136D01*
Y249778D01*
X317692Y251435D01*
X316834Y252921D01*
X315621Y254134D01*
X314135Y254992D01*
X312478Y255436D01*
D02*
G37*
G36*
X155798D02*
X155448D01*
Y249428D01*
X161456D01*
Y249778D01*
X161012Y251435D01*
X160154Y252921D01*
X158941Y254134D01*
X157455Y254992D01*
X155798Y255436D01*
D02*
G37*
G36*
X311112D02*
X310762D01*
X309105Y254992D01*
X307619Y254134D01*
X306406Y252921D01*
X305548Y251435D01*
X305104Y249778D01*
Y249428D01*
X311112D01*
Y255436D01*
D02*
G37*
G36*
X154432D02*
X154082D01*
X152425Y254992D01*
X150939Y254134D01*
X149726Y252921D01*
X148868Y251435D01*
X148424Y249778D01*
Y249428D01*
X154432D01*
Y255436D01*
D02*
G37*
G36*
X318136Y248412D02*
X312128D01*
Y242404D01*
X312478D01*
X314135Y242848D01*
X315621Y243706D01*
X316834Y244919D01*
X317692Y246405D01*
X318136Y248062D01*
Y248412D01*
D02*
G37*
G36*
X311112D02*
X305104D01*
Y248062D01*
X305548Y246405D01*
X306406Y244919D01*
X307619Y243706D01*
X309105Y242848D01*
X310762Y242404D01*
X311112D01*
Y248412D01*
D02*
G37*
G36*
X262478Y255436D02*
X260762D01*
X259105Y254992D01*
X257619Y254134D01*
X256406Y252921D01*
X255548Y251435D01*
X255104Y249778D01*
Y248062D01*
X255548Y246405D01*
X256406Y244919D01*
X257619Y243706D01*
X259105Y242848D01*
X260762Y242404D01*
X262478D01*
X264135Y242848D01*
X265621Y243706D01*
X266834Y244919D01*
X267692Y246405D01*
X268136Y248062D01*
Y249778D01*
X267692Y251435D01*
X266834Y252921D01*
X265621Y254134D01*
X264135Y254992D01*
X262478Y255436D01*
D02*
G37*
G36*
X205798D02*
X204082D01*
X202425Y254992D01*
X200939Y254134D01*
X199726Y252921D01*
X198868Y251435D01*
X198424Y249778D01*
Y248062D01*
X198868Y246405D01*
X199726Y244919D01*
X200939Y243706D01*
X202425Y242848D01*
X204082Y242404D01*
X205798D01*
X207455Y242848D01*
X208941Y243706D01*
X210154Y244919D01*
X211012Y246405D01*
X211456Y248062D01*
Y249778D01*
X211012Y251435D01*
X210154Y252921D01*
X208941Y254134D01*
X207455Y254992D01*
X205798Y255436D01*
D02*
G37*
G36*
X161456Y248412D02*
X155448D01*
Y242404D01*
X155798D01*
X157455Y242848D01*
X158941Y243706D01*
X160154Y244919D01*
X161012Y246405D01*
X161456Y248062D01*
Y248412D01*
D02*
G37*
G36*
X154432D02*
X148424D01*
Y248062D01*
X148868Y246405D01*
X149726Y244919D01*
X150939Y243706D01*
X152425Y242848D01*
X154082Y242404D01*
X154432D01*
Y248412D01*
D02*
G37*
G36*
X807576Y235886D02*
X806958D01*
Y227838D01*
X815006D01*
Y228456D01*
X814423Y230632D01*
X813297Y232584D01*
X811703Y234177D01*
X809753Y235303D01*
X807576Y235886D01*
D02*
G37*
G36*
X680576D02*
X679958D01*
Y227838D01*
X688006D01*
Y228456D01*
X687423Y230632D01*
X686296Y232584D01*
X684704Y234177D01*
X682753Y235303D01*
X680576Y235886D01*
D02*
G37*
G36*
X553576D02*
X552958D01*
Y227838D01*
X561006D01*
Y228456D01*
X560423Y230632D01*
X559296Y232584D01*
X557704Y234177D01*
X555752Y235303D01*
X553576Y235886D01*
D02*
G37*
G36*
X426576D02*
X425958D01*
Y227838D01*
X434006D01*
Y228456D01*
X433423Y230632D01*
X432296Y232584D01*
X430704Y234177D01*
X428753Y235303D01*
X426576Y235886D01*
D02*
G37*
G36*
X805942D02*
X805324D01*
X803148Y235303D01*
X801197Y234177D01*
X799604Y232584D01*
X798477Y230632D01*
X797894Y228456D01*
Y227838D01*
X805942D01*
Y235886D01*
D02*
G37*
G36*
X678942D02*
X678324D01*
X676148Y235303D01*
X674196Y234177D01*
X672604Y232584D01*
X671477Y230632D01*
X670894Y228456D01*
Y227838D01*
X678942D01*
Y235886D01*
D02*
G37*
G36*
X551942D02*
X551324D01*
X549147Y235303D01*
X547197Y234177D01*
X545603Y232584D01*
X544477Y230632D01*
X543894Y228456D01*
Y227838D01*
X551942D01*
Y235886D01*
D02*
G37*
G36*
X424942D02*
X424324D01*
X422147Y235303D01*
X420196Y234177D01*
X418604Y232584D01*
X417477Y230632D01*
X416894Y228456D01*
Y227838D01*
X424942D01*
Y235886D01*
D02*
G37*
G36*
X858376D02*
X856124D01*
X853948Y235303D01*
X851997Y234177D01*
X850404Y232584D01*
X849277Y230632D01*
X848694Y228456D01*
Y226204D01*
X849277Y224028D01*
X850404Y222076D01*
X851997Y220483D01*
X853948Y219357D01*
X856124Y218774D01*
X858376D01*
X860553Y219357D01*
X862504Y220483D01*
X864097Y222076D01*
X865223Y224028D01*
X865806Y226204D01*
Y228456D01*
X865223Y230632D01*
X864097Y232584D01*
X862504Y234177D01*
X860553Y235303D01*
X858376Y235886D01*
D02*
G37*
G36*
X832976D02*
X830724D01*
X828548Y235303D01*
X826597Y234177D01*
X825004Y232584D01*
X823877Y230632D01*
X823294Y228456D01*
Y226204D01*
X823877Y224028D01*
X825004Y222076D01*
X826597Y220483D01*
X828548Y219357D01*
X830724Y218774D01*
X832976D01*
X835153Y219357D01*
X837104Y220483D01*
X838697Y222076D01*
X839823Y224028D01*
X840406Y226204D01*
Y228456D01*
X839823Y230632D01*
X838697Y232584D01*
X837104Y234177D01*
X835153Y235303D01*
X832976Y235886D01*
D02*
G37*
G36*
X815006Y226822D02*
X806958D01*
Y218774D01*
X807576D01*
X809753Y219357D01*
X811703Y220483D01*
X813297Y222076D01*
X814423Y224028D01*
X815006Y226204D01*
Y226822D01*
D02*
G37*
G36*
X805942D02*
X797894D01*
Y226204D01*
X798477Y224028D01*
X799604Y222076D01*
X801197Y220483D01*
X803148Y219357D01*
X805324Y218774D01*
X805942D01*
Y226822D01*
D02*
G37*
G36*
X782176Y235886D02*
X779924D01*
X777747Y235303D01*
X775797Y234177D01*
X774203Y232584D01*
X773077Y230632D01*
X772494Y228456D01*
Y226204D01*
X773077Y224028D01*
X774203Y222076D01*
X775797Y220483D01*
X777747Y219357D01*
X779924Y218774D01*
X782176D01*
X784352Y219357D01*
X786303Y220483D01*
X787896Y222076D01*
X789023Y224028D01*
X789606Y226204D01*
Y228456D01*
X789023Y230632D01*
X787896Y232584D01*
X786303Y234177D01*
X784352Y235303D01*
X782176Y235886D01*
D02*
G37*
G36*
X756776D02*
X754524D01*
X752347Y235303D01*
X750396Y234177D01*
X748803Y232584D01*
X747677Y230632D01*
X747094Y228456D01*
Y226204D01*
X747677Y224028D01*
X748803Y222076D01*
X750396Y220483D01*
X752347Y219357D01*
X754524Y218774D01*
X756776D01*
X758952Y219357D01*
X760903Y220483D01*
X762496Y222076D01*
X763623Y224028D01*
X764206Y226204D01*
Y228456D01*
X763623Y230632D01*
X762496Y232584D01*
X760903Y234177D01*
X758952Y235303D01*
X756776Y235886D01*
D02*
G37*
G36*
X731376D02*
X729124D01*
X726947Y235303D01*
X724996Y234177D01*
X723403Y232584D01*
X722277Y230632D01*
X721694Y228456D01*
Y226204D01*
X722277Y224028D01*
X723403Y222076D01*
X724996Y220483D01*
X726947Y219357D01*
X729124Y218774D01*
X731376D01*
X733552Y219357D01*
X735503Y220483D01*
X737096Y222076D01*
X738223Y224028D01*
X738806Y226204D01*
Y228456D01*
X738223Y230632D01*
X737096Y232584D01*
X735503Y234177D01*
X733552Y235303D01*
X731376Y235886D01*
D02*
G37*
G36*
X705976D02*
X703724D01*
X701547Y235303D01*
X699596Y234177D01*
X698003Y232584D01*
X696877Y230632D01*
X696294Y228456D01*
Y226204D01*
X696877Y224028D01*
X698003Y222076D01*
X699596Y220483D01*
X701547Y219357D01*
X703724Y218774D01*
X705976D01*
X708152Y219357D01*
X710104Y220483D01*
X711696Y222076D01*
X712823Y224028D01*
X713406Y226204D01*
Y228456D01*
X712823Y230632D01*
X711696Y232584D01*
X710104Y234177D01*
X708152Y235303D01*
X705976Y235886D01*
D02*
G37*
G36*
X688006Y226822D02*
X679958D01*
Y218774D01*
X680576D01*
X682753Y219357D01*
X684704Y220483D01*
X686296Y222076D01*
X687423Y224028D01*
X688006Y226204D01*
Y226822D01*
D02*
G37*
G36*
X678942D02*
X670894D01*
Y226204D01*
X671477Y224028D01*
X672604Y222076D01*
X674196Y220483D01*
X676148Y219357D01*
X678324Y218774D01*
X678942D01*
Y226822D01*
D02*
G37*
G36*
X655176Y235886D02*
X652924D01*
X650748Y235303D01*
X648796Y234177D01*
X647204Y232584D01*
X646077Y230632D01*
X645494Y228456D01*
Y226204D01*
X646077Y224028D01*
X647204Y222076D01*
X648796Y220483D01*
X650748Y219357D01*
X652924Y218774D01*
X655176D01*
X657353Y219357D01*
X659304Y220483D01*
X660897Y222076D01*
X662023Y224028D01*
X662606Y226204D01*
Y228456D01*
X662023Y230632D01*
X660897Y232584D01*
X659304Y234177D01*
X657353Y235303D01*
X655176Y235886D01*
D02*
G37*
G36*
X629776D02*
X627524D01*
X625348Y235303D01*
X623396Y234177D01*
X621804Y232584D01*
X620677Y230632D01*
X620094Y228456D01*
Y226204D01*
X620677Y224028D01*
X621804Y222076D01*
X623396Y220483D01*
X625348Y219357D01*
X627524Y218774D01*
X629776D01*
X631953Y219357D01*
X633904Y220483D01*
X635496Y222076D01*
X636623Y224028D01*
X637206Y226204D01*
Y228456D01*
X636623Y230632D01*
X635496Y232584D01*
X633904Y234177D01*
X631953Y235303D01*
X629776Y235886D01*
D02*
G37*
G36*
X604376D02*
X602124D01*
X599948Y235303D01*
X597996Y234177D01*
X596404Y232584D01*
X595277Y230632D01*
X594694Y228456D01*
Y226204D01*
X595277Y224028D01*
X596404Y222076D01*
X597996Y220483D01*
X599948Y219357D01*
X602124Y218774D01*
X604376D01*
X606553Y219357D01*
X608503Y220483D01*
X610097Y222076D01*
X611223Y224028D01*
X611806Y226204D01*
Y228456D01*
X611223Y230632D01*
X610097Y232584D01*
X608503Y234177D01*
X606553Y235303D01*
X604376Y235886D01*
D02*
G37*
G36*
X578976D02*
X576724D01*
X574548Y235303D01*
X572597Y234177D01*
X571003Y232584D01*
X569877Y230632D01*
X569294Y228456D01*
Y226204D01*
X569877Y224028D01*
X571003Y222076D01*
X572597Y220483D01*
X574548Y219357D01*
X576724Y218774D01*
X578976D01*
X581152Y219357D01*
X583103Y220483D01*
X584697Y222076D01*
X585823Y224028D01*
X586406Y226204D01*
Y228456D01*
X585823Y230632D01*
X584697Y232584D01*
X583103Y234177D01*
X581152Y235303D01*
X578976Y235886D01*
D02*
G37*
G36*
X561006Y226822D02*
X552958D01*
Y218774D01*
X553576D01*
X555752Y219357D01*
X557704Y220483D01*
X559296Y222076D01*
X560423Y224028D01*
X561006Y226204D01*
Y226822D01*
D02*
G37*
G36*
X551942D02*
X543894D01*
Y226204D01*
X544477Y224028D01*
X545603Y222076D01*
X547197Y220483D01*
X549147Y219357D01*
X551324Y218774D01*
X551942D01*
Y226822D01*
D02*
G37*
G36*
X528176Y235886D02*
X525924D01*
X523747Y235303D01*
X521796Y234177D01*
X520204Y232584D01*
X519077Y230632D01*
X518494Y228456D01*
Y226204D01*
X519077Y224028D01*
X520204Y222076D01*
X521796Y220483D01*
X523747Y219357D01*
X525924Y218774D01*
X528176D01*
X530353Y219357D01*
X532304Y220483D01*
X533896Y222076D01*
X535023Y224028D01*
X535606Y226204D01*
Y228456D01*
X535023Y230632D01*
X533896Y232584D01*
X532304Y234177D01*
X530353Y235303D01*
X528176Y235886D01*
D02*
G37*
G36*
X502776D02*
X500524D01*
X498348Y235303D01*
X496396Y234177D01*
X494804Y232584D01*
X493677Y230632D01*
X493094Y228456D01*
Y226204D01*
X493677Y224028D01*
X494804Y222076D01*
X496396Y220483D01*
X498348Y219357D01*
X500524Y218774D01*
X502776D01*
X504953Y219357D01*
X506903Y220483D01*
X508497Y222076D01*
X509623Y224028D01*
X510206Y226204D01*
Y228456D01*
X509623Y230632D01*
X508497Y232584D01*
X506903Y234177D01*
X504953Y235303D01*
X502776Y235886D01*
D02*
G37*
G36*
X477376D02*
X475124D01*
X472948Y235303D01*
X470997Y234177D01*
X469403Y232584D01*
X468277Y230632D01*
X467694Y228456D01*
Y226204D01*
X468277Y224028D01*
X469403Y222076D01*
X470997Y220483D01*
X472948Y219357D01*
X475124Y218774D01*
X477376D01*
X479552Y219357D01*
X481503Y220483D01*
X483097Y222076D01*
X484223Y224028D01*
X484806Y226204D01*
Y228456D01*
X484223Y230632D01*
X483097Y232584D01*
X481503Y234177D01*
X479552Y235303D01*
X477376Y235886D01*
D02*
G37*
G36*
X451976D02*
X449724D01*
X447547Y235303D01*
X445597Y234177D01*
X444003Y232584D01*
X442877Y230632D01*
X442294Y228456D01*
Y226204D01*
X442877Y224028D01*
X444003Y222076D01*
X445597Y220483D01*
X447547Y219357D01*
X449724Y218774D01*
X451976D01*
X454152Y219357D01*
X456104Y220483D01*
X457696Y222076D01*
X458823Y224028D01*
X459406Y226204D01*
Y228456D01*
X458823Y230632D01*
X457696Y232584D01*
X456104Y234177D01*
X454152Y235303D01*
X451976Y235886D01*
D02*
G37*
G36*
X434006Y226822D02*
X425958D01*
Y218774D01*
X426576D01*
X428753Y219357D01*
X430704Y220483D01*
X432296Y222076D01*
X433423Y224028D01*
X434006Y226204D01*
Y226822D01*
D02*
G37*
G36*
X424942D02*
X416894D01*
Y226204D01*
X417477Y224028D01*
X418604Y222076D01*
X420196Y220483D01*
X422147Y219357D01*
X424324Y218774D01*
X424942D01*
Y226822D01*
D02*
G37*
G36*
X401176Y235886D02*
X398924D01*
X396748Y235303D01*
X394796Y234177D01*
X393204Y232584D01*
X392077Y230632D01*
X391494Y228456D01*
Y226204D01*
X392077Y224028D01*
X393204Y222076D01*
X394796Y220483D01*
X396748Y219357D01*
X398924Y218774D01*
X401176D01*
X403353Y219357D01*
X405303Y220483D01*
X406897Y222076D01*
X408023Y224028D01*
X408606Y226204D01*
Y228456D01*
X408023Y230632D01*
X406897Y232584D01*
X405303Y234177D01*
X403353Y235303D01*
X401176Y235886D01*
D02*
G37*
G36*
X375776D02*
X373524D01*
X371348Y235303D01*
X369397Y234177D01*
X367803Y232584D01*
X366677Y230632D01*
X366094Y228456D01*
Y226204D01*
X366677Y224028D01*
X367803Y222076D01*
X369397Y220483D01*
X371348Y219357D01*
X373524Y218774D01*
X375776D01*
X377952Y219357D01*
X379903Y220483D01*
X381497Y222076D01*
X382623Y224028D01*
X383206Y226204D01*
Y228456D01*
X382623Y230632D01*
X381497Y232584D01*
X379903Y234177D01*
X377952Y235303D01*
X375776Y235886D01*
D02*
G37*
G36*
X702344Y178816D02*
X701548D01*
Y169418D01*
X710946D01*
Y170214D01*
X710271Y172734D01*
X708967Y174992D01*
X707122Y176837D01*
X704864Y178141D01*
X702344Y178816D01*
D02*
G37*
G36*
X700532D02*
X699736D01*
X697216Y178141D01*
X694958Y176837D01*
X693113Y174992D01*
X691809Y172734D01*
X691134Y170214D01*
Y169418D01*
X700532D01*
Y178816D01*
D02*
G37*
G36*
X425301Y174886D02*
X424688D01*
Y166878D01*
X432696D01*
Y167491D01*
X432116Y169657D01*
X430994Y171599D01*
X429409Y173185D01*
X427467Y174306D01*
X425301Y174886D01*
D02*
G37*
G36*
X423672D02*
X423059D01*
X420893Y174306D01*
X418951Y173185D01*
X417365Y171599D01*
X416244Y169657D01*
X415664Y167491D01*
Y166878D01*
X423672D01*
Y174886D01*
D02*
G37*
G36*
X710946Y168402D02*
X701548D01*
Y159004D01*
X702344D01*
X704864Y159679D01*
X707122Y160983D01*
X708967Y162828D01*
X710271Y165086D01*
X710946Y167606D01*
Y168402D01*
D02*
G37*
G36*
X700532D02*
X691134D01*
Y167606D01*
X691809Y165086D01*
X693113Y162828D01*
X694958Y160983D01*
X697216Y159679D01*
X699736Y159004D01*
X700532D01*
Y168402D01*
D02*
G37*
G36*
X676944Y178816D02*
X674336D01*
X671816Y178141D01*
X669558Y176837D01*
X667713Y174992D01*
X666409Y172734D01*
X665734Y170214D01*
Y167606D01*
X666409Y165086D01*
X667713Y162828D01*
X669558Y160983D01*
X671816Y159679D01*
X674336Y159004D01*
X676944D01*
X679464Y159679D01*
X681722Y160983D01*
X683567Y162828D01*
X684871Y165086D01*
X685546Y167606D01*
Y170214D01*
X684871Y172734D01*
X683567Y174992D01*
X681722Y176837D01*
X679464Y178141D01*
X676944Y178816D01*
D02*
G37*
G36*
X651544D02*
X648936D01*
X646416Y178141D01*
X644158Y176837D01*
X642313Y174992D01*
X641009Y172734D01*
X640334Y170214D01*
Y167606D01*
X641009Y165086D01*
X642313Y162828D01*
X644158Y160983D01*
X646416Y159679D01*
X648936Y159004D01*
X651544D01*
X654064Y159679D01*
X656322Y160983D01*
X658167Y162828D01*
X659471Y165086D01*
X660146Y167606D01*
Y170214D01*
X659471Y172734D01*
X658167Y174992D01*
X656322Y176837D01*
X654064Y178141D01*
X651544Y178816D01*
D02*
G37*
G36*
X626144D02*
X623536D01*
X621016Y178141D01*
X618758Y176837D01*
X616913Y174992D01*
X615609Y172734D01*
X614934Y170214D01*
Y167606D01*
X615609Y165086D01*
X616913Y162828D01*
X618758Y160983D01*
X621016Y159679D01*
X623536Y159004D01*
X626144D01*
X628664Y159679D01*
X630922Y160983D01*
X632767Y162828D01*
X634071Y165086D01*
X634746Y167606D01*
Y170214D01*
X634071Y172734D01*
X632767Y174992D01*
X630922Y176837D01*
X628664Y178141D01*
X626144Y178816D01*
D02*
G37*
G36*
X856983Y173990D02*
X854977D01*
X853039Y173471D01*
X851301Y172467D01*
X849883Y171049D01*
X848879Y169311D01*
X848360Y167373D01*
Y165367D01*
X848879Y163429D01*
X849883Y161691D01*
X851301Y160273D01*
X853039Y159269D01*
X854977Y158750D01*
X856983D01*
X858921Y159269D01*
X860659Y160273D01*
X862077Y161691D01*
X863081Y163429D01*
X863600Y165367D01*
Y167373D01*
X863081Y169311D01*
X862077Y171049D01*
X860659Y172467D01*
X858921Y173471D01*
X856983Y173990D01*
D02*
G37*
G36*
X432696Y165862D02*
X424688D01*
Y157854D01*
X425301D01*
X427467Y158434D01*
X429409Y159556D01*
X430994Y161141D01*
X432116Y163083D01*
X432696Y165249D01*
Y165862D01*
D02*
G37*
G36*
X423672D02*
X415664D01*
Y165249D01*
X416244Y163083D01*
X417365Y161141D01*
X418951Y159556D01*
X420893Y158434D01*
X423059Y157854D01*
X423672D01*
Y165862D01*
D02*
G37*
G36*
X407296Y174886D02*
X390264D01*
Y157854D01*
X407296D01*
Y174886D01*
D02*
G37*
G36*
X472591Y177165D02*
X469749D01*
X467003Y176429D01*
X464542Y175008D01*
X462532Y172998D01*
X461111Y170537D01*
X460375Y167791D01*
Y164949D01*
X461111Y162203D01*
X462532Y159742D01*
X464542Y157732D01*
X467003Y156311D01*
X469749Y155575D01*
X472591D01*
X475337Y156311D01*
X477798Y157732D01*
X479808Y159742D01*
X481229Y162203D01*
X481965Y164949D01*
Y167791D01*
X481229Y170537D01*
X479808Y172998D01*
X477798Y175008D01*
X475337Y176429D01*
X472591Y177165D01*
D02*
G37*
G36*
X662940Y84408D02*
X659604Y84080D01*
X656397Y83107D01*
X653441Y81527D01*
X650850Y79401D01*
X648724Y76810D01*
X647144Y73854D01*
X646171Y70646D01*
X645842Y67311D01*
Y67309D01*
X646171Y63974D01*
X647144Y60766D01*
X648724Y57811D01*
X650850Y55219D01*
X653441Y53093D01*
X656397Y51513D01*
X659604Y50540D01*
X662940Y50212D01*
X666276Y50540D01*
X669483Y51513D01*
X672439Y53093D01*
X675030Y55219D01*
X677156Y57811D01*
X678736Y60766D01*
X679709Y63974D01*
X680038Y67309D01*
Y67311D01*
X679709Y70646D01*
X678736Y73854D01*
X677156Y76810D01*
X675030Y79401D01*
X672439Y81527D01*
X669483Y83107D01*
X666276Y84080D01*
X662940Y84408D01*
D02*
G37*
G36*
X74852Y97390D02*
X69928D01*
X65098Y96429D01*
X60548Y94545D01*
X56453Y91809D01*
X52971Y88327D01*
X50235Y84232D01*
X48351Y79682D01*
X47390Y74852D01*
Y69928D01*
X48351Y65098D01*
X50235Y60548D01*
X52971Y56453D01*
X56453Y52971D01*
X60548Y50235D01*
X65098Y48351D01*
X69928Y47390D01*
X74852D01*
X79682Y48351D01*
X84232Y50235D01*
X88327Y52971D01*
X91809Y56453D01*
X94545Y60548D01*
X96429Y65098D01*
X97390Y69928D01*
Y74852D01*
X96429Y79682D01*
X94545Y84232D01*
X91809Y88327D01*
X88327Y91809D01*
X84232Y94545D01*
X79682Y96429D01*
X74852Y97390D01*
D02*
G37*
G36*
X826692Y92310D02*
X821768D01*
X816938Y91349D01*
X812388Y89465D01*
X808293Y86729D01*
X804811Y83247D01*
X802075Y79152D01*
X800191Y74602D01*
X799230Y69772D01*
Y64848D01*
X800191Y60018D01*
X802075Y55468D01*
X804811Y51373D01*
X808293Y47891D01*
X812388Y45155D01*
X816938Y43271D01*
X821768Y42310D01*
X826692D01*
X831522Y43271D01*
X836072Y45155D01*
X840167Y47891D01*
X843649Y51373D01*
X846385Y55468D01*
X848269Y60018D01*
X849230Y64848D01*
Y69772D01*
X848269Y74602D01*
X846385Y79152D01*
X843649Y83247D01*
X840167Y86729D01*
X836072Y89465D01*
X831522Y91349D01*
X826692Y92310D01*
D02*
G37*
%LPD*%
D86*
X779780Y514350D02*
D03*
X830580D02*
D03*
Y463550D02*
D03*
X154940Y248920D02*
D03*
X311620D02*
D03*
D87*
X568960Y549910D02*
D03*
Y753110D02*
D03*
Y956310D02*
D03*
Y1159510D02*
D03*
D89*
X701040Y168910D02*
D03*
D91*
X424180Y166370D02*
D03*
D92*
X151130Y387340D02*
D03*
X24130Y408940D02*
D03*
Y459740D02*
D03*
D95*
X765810Y1186180D02*
D03*
Y1084580D02*
D03*
Y690880D02*
D03*
Y589280D02*
D03*
Y1021080D02*
D03*
Y919480D02*
D03*
Y855980D02*
D03*
Y754380D02*
D03*
D96*
X184530Y596010D02*
D03*
X278550Y735750D02*
D03*
X318350Y616370D02*
D03*
X179920Y631610D02*
D03*
X251460Y623570D02*
D03*
X228600Y567690D02*
D03*
X687070Y497840D02*
D03*
X372110Y450850D02*
D03*
X385320Y464060D02*
D03*
X356870Y509270D02*
D03*
X284480Y477520D02*
D03*
X246380Y501650D02*
D03*
X260350Y527050D02*
D03*
X660400Y461010D02*
D03*
X647700Y439420D02*
D03*
X699135D02*
D03*
Y458470D02*
D03*
X330200Y457200D02*
D03*
X244730Y1102740D02*
D03*
X177800Y1075180D02*
D03*
X221870Y1046860D02*
D03*
X173190Y1110780D02*
D03*
X311620Y1095540D02*
D03*
X271820Y1214920D02*
D03*
X203200Y1192530D02*
D03*
X181610Y91440D02*
D03*
X728980Y109220D02*
D03*
X485060Y54690D02*
D03*
X835660Y146050D02*
D03*
X731520Y173990D02*
D03*
X595630Y105410D02*
D03*
X553065Y120035D02*
D03*
X596900Y80010D02*
D03*
X168910Y1184910D02*
D03*
X133350Y1196340D02*
D03*
X270510Y1250950D02*
D03*
X306070Y1256030D02*
D03*
X346710Y1285240D02*
D03*
X284480Y1289050D02*
D03*
X186990Y757300D02*
D03*
X281010Y897040D02*
D03*
X320810Y777660D02*
D03*
X182380Y792900D02*
D03*
X253920Y784860D02*
D03*
X231060Y728980D02*
D03*
X186460Y916750D02*
D03*
X280480Y1056490D02*
D03*
X320280Y937110D02*
D03*
X181850Y952350D02*
D03*
X253390Y944310D02*
D03*
X230530Y888430D02*
D03*
X684910Y654310D02*
D03*
X633860Y685810D02*
D03*
X633730Y698380D02*
D03*
X684910Y819020D02*
D03*
X633860Y850520D02*
D03*
X633730Y863090D02*
D03*
X683640Y980820D02*
D03*
X632590Y1012320D02*
D03*
X632460Y1024890D02*
D03*
X681100Y1154300D02*
D03*
X629920Y1198370D02*
D03*
X630050Y1185800D02*
D03*
X124380Y705440D02*
D03*
Y691470D02*
D03*
X80010Y716790D02*
D03*
X104060Y605110D02*
D03*
X86280Y692740D02*
D03*
X122080Y865460D02*
D03*
Y851490D02*
D03*
X77710Y876810D02*
D03*
X101760Y765130D02*
D03*
X83980Y852760D02*
D03*
X120650Y1021080D02*
D03*
Y1007110D02*
D03*
X76280Y1032430D02*
D03*
X100330Y920750D02*
D03*
X82550Y1008380D02*
D03*
X107950Y1078230D02*
D03*
X128270Y1178560D02*
D03*
X83900Y1189910D02*
D03*
X90170Y1165860D02*
D03*
X128270Y1164590D02*
D03*
X138430Y618490D02*
D03*
X121240Y601390D02*
D03*
X142240Y930910D02*
D03*
X143510Y772160D02*
D03*
X126320Y755060D02*
D03*
X125050Y913810D02*
D03*
X171450Y580390D02*
D03*
X176530Y734060D02*
D03*
X175260Y892810D02*
D03*
X138430Y1085850D02*
D03*
X121240Y1068750D02*
D03*
X171450Y1047750D02*
D03*
D97*
X193860Y664360D02*
D03*
Y651360D02*
D03*
X232860Y664360D02*
D03*
Y651360D02*
D03*
X219860Y664360D02*
D03*
Y651360D02*
D03*
X206860Y664360D02*
D03*
Y651360D02*
D03*
X285600Y628200D02*
D03*
X298600D02*
D03*
X285600Y667200D02*
D03*
X298600D02*
D03*
X285600Y654200D02*
D03*
X298600D02*
D03*
X285600Y641200D02*
D03*
X298600D02*
D03*
X311300Y723080D02*
D03*
X298300D02*
D03*
X311300Y684080D02*
D03*
X298300D02*
D03*
X311300Y697080D02*
D03*
X298300D02*
D03*
X311300Y710080D02*
D03*
X298300D02*
D03*
X187130Y1143530D02*
D03*
Y1130530D02*
D03*
X226130Y1143530D02*
D03*
Y1130530D02*
D03*
X213130Y1143530D02*
D03*
Y1130530D02*
D03*
X200130Y1143530D02*
D03*
Y1130530D02*
D03*
X278870Y1107370D02*
D03*
X291870D02*
D03*
X278870Y1146370D02*
D03*
X291870D02*
D03*
X278870Y1133370D02*
D03*
X291870D02*
D03*
X278870Y1120370D02*
D03*
X291870D02*
D03*
X304570Y1202250D02*
D03*
X291570D02*
D03*
X304570Y1163250D02*
D03*
X291570D02*
D03*
X304570Y1176250D02*
D03*
X291570D02*
D03*
X304570Y1189250D02*
D03*
X291570D02*
D03*
X300760Y871370D02*
D03*
X313760D02*
D03*
X300760Y858370D02*
D03*
X313760D02*
D03*
X300760Y845370D02*
D03*
X313760D02*
D03*
X300760Y884370D02*
D03*
X313760D02*
D03*
X209320Y812650D02*
D03*
Y825650D02*
D03*
X222320Y812650D02*
D03*
Y825650D02*
D03*
X235320Y812650D02*
D03*
Y825650D02*
D03*
X196320Y812650D02*
D03*
Y825650D02*
D03*
X301060Y802490D02*
D03*
X288060D02*
D03*
X301060Y815490D02*
D03*
X288060D02*
D03*
X301060Y828490D02*
D03*
X288060D02*
D03*
X301060Y789490D02*
D03*
X288060D02*
D03*
X300230Y1030820D02*
D03*
X313230D02*
D03*
X300230Y1017820D02*
D03*
X313230D02*
D03*
X300230Y1004820D02*
D03*
X313230D02*
D03*
X300230Y1043820D02*
D03*
X313230D02*
D03*
X208790Y972100D02*
D03*
Y985100D02*
D03*
X221790Y972100D02*
D03*
Y985100D02*
D03*
X234790Y972100D02*
D03*
Y985100D02*
D03*
X195790Y972100D02*
D03*
Y985100D02*
D03*
X300530Y961940D02*
D03*
X287530D02*
D03*
X300530Y974940D02*
D03*
X287530D02*
D03*
X300530Y987940D02*
D03*
X287530D02*
D03*
X300530Y948940D02*
D03*
X287530D02*
D03*
X532550Y75360D02*
D03*
X521550D02*
D03*
X532550Y86360D02*
D03*
X521550D02*
D03*
X532550Y97360D02*
D03*
X521550D02*
D03*
X235100Y1263500D02*
D03*
X222100D02*
D03*
X235100Y1276500D02*
D03*
X222100D02*
D03*
X235100Y1289500D02*
D03*
X222100D02*
D03*
X235100Y1250500D02*
D03*
X222100D02*
D03*
D98*
X316230Y325120D02*
D03*
X147320D02*
D03*
D99*
X510374Y166667D02*
D03*
D101*
X806450Y405130D02*
D03*
X679450D02*
D03*
X552450D02*
D03*
X425450D02*
D03*
X806450Y227330D02*
D03*
X679450D02*
D03*
X552450D02*
D03*
X425450D02*
D03*
M02*
