M48
;Layer_Color=9474304
;FILE_FORMAT=4:4
METRIC,LZ
;TYPE=PLATED
T1F00S00C0.2000
T2F00S00C0.3000
T3F00S00C0.3810
T4F00S00C0.7620
T5F00S00C0.8000
T6F00S00C0.8900
T7F00S00C0.9000
T8F00S00C1.0000
T9F00S00C1.1430
T10F00S00C1.8500
T11F00S00C2.0000
T12F00S00C2.5001
T13F00S00C4.5000
%
T01
X0052155Y0007536
X0053255
Y0008636
X0052155
Y0009736
X0053255
X0021986Y0065136
Y0066436
X0020686
X0019386
Y0065136
X0020686
X0020932Y0081265
X0019632
Y0082565
X0020932
X0022232
Y0081265
X0023532
Y0082565
X0028806Y0082849
Y0081549
Y0080249
Y0078949
X0030106
Y0080249
Y0081549
Y0082849
X0030076Y0084537
Y0085837
Y0087137
Y0088437
X0031376
Y0087137
Y0085837
Y0084537
X003113Y0072308
Y0071008
Y0069708
Y0068408
X002983
Y0069708
Y0071008
Y0072308
X002986Y006672
Y006542
X002856
Y006672
Y006412
Y006282
X002986
Y006412
X0023286Y0065136
Y0066436
X0023479Y009721
Y009851
X0028753Y0098794
Y0097494
Y0096194
Y0094894
X0030053
Y0096194
Y0097494
Y0098794
X0030023Y0100482
Y0101782
Y0103082
Y0104382
X0031323
Y0103082
Y0101782
Y0100482
X0029187Y0110737
Y0112037
Y0113337
Y0114637
X0027887
Y0113337
Y0112037
Y0110737
X0029157Y0116325
Y0117625
X0030457
Y0116325
Y0118925
Y0120225
X0029157
Y0118925
X0022613Y0114353
Y0113053
X002351Y012505
Y012635
Y012765
Y012895
X002221
Y012765
Y012635
Y012505
X0021313Y0114353
Y0113053
X0020013
X0018713
Y0114353
X0020013
X0019579Y009851
X0020879
Y009721
X0019579
X0022179
Y009851
T02
X00400234Y00508166
X00418014Y00500546
X0018161Y004953
X0016891Y0049657
X0017653Y0050673
X0018161Y0046609
X0016891Y0046736
X0016637Y0050927
X0017399Y0051943
X0018542Y0051816
X002921Y0055245
X00307524Y00556426
X00310064Y00570396
X0029845Y0057404
X00324034Y00574206
X00322764Y00558966
X00335464Y00564046
X00438512Y0056554
X00439604Y00542456
X00437064Y00529756
X00421824
X00407822Y0052792
X00414204Y00514516
X00435794Y00510706
X00457384Y00515786
X00453574Y00534836
X00456114Y00546266
T03
X0018161Y0009144
X0048506Y0005469
X005969Y0008001
X0059563Y0010541
X0072898Y0010922
X0073152Y0017399
X0083566Y0014605
X00699135Y0043942
Y0045847
X006604Y0046101
X0066167Y0043942
X006477
X0068707Y0049784
X0038532Y0046406
X0037211Y0045085
X003302Y004572
X0031877Y0047752
X0028448
X0024638Y0050165
X00553065Y00120035
X0020193Y0056896
X0018326Y0058001
X0017145Y0058039
X0018453Y0059601
X0017992Y0063161
X0013843Y0061849
X0012124Y0060139
X0010406Y0060511
X000939Y0060003
X0008247Y0060384
X0006918Y0062602
X0007485Y0069147
X0008628Y0069274
X0008001Y0071679
X0010287Y0071679
X0012438Y0070544
Y0069147
Y0065591
X0014986Y0067183
X0015621Y0068072
X0016002Y0069215
X0019431Y0069723
X0020701
X0019693Y0071255
X0022352Y0070993
X0018572Y007413
X0017653Y0073406
X0018699Y007573
X0018238Y007929
X0014351Y0077216
X0012632Y0075506
X0010176Y0076513
X000916Y0076005
X0008017Y0076386
X0006688Y0078604
X0007255Y0085149
X0008398Y0085276
X0007771Y0087681
X0010057Y0087681
X0012208Y0086546
Y0085149
Y0081593
X0014478Y0083312
X001524Y0084201
X0016002Y008509
X0019677Y0085852
X0020947
X0019812Y008763
X0018519Y0090075
X0017526Y0089281
X0015367Y0053975
X0014153Y0053665
X0013081Y0054102
X002286Y0056769
X0025584Y005849
X0025527Y0060071
X0026585Y006151
X0025146Y0062357
X0024469Y0063161
X0025273Y0064135
X0026416Y0068072
X0027855Y0073575
X002583Y0074619
X0025773Y00762
X0026831Y0077639
X0025392Y0078486
X0024715Y007929
X0025519Y0080264
X0026662Y0084201
X0028101Y0089704
X0025777Y0090564
X0023053Y0088843
X0022598Y0087122
X0034663
X0033351Y0089704
X003352Y0082804
X0032081Y0077766
X0033105Y0073575
X0034417Y0070993
X0033274Y0066675
X0031835Y0061637
X0032385Y0053975
X0034798Y0053467
X0035687Y0050927
X0026035Y0052705
X0023503Y0051443
X0023106Y0072898
X0063384Y0071881
X0063373Y0070854
Y0069838
X0063386Y0068581
X0064262Y0066917
X0065532Y006679
X0066891Y0065482
X0068491Y0065431
X0067526Y0063284
X0070358Y0061849
X0070485Y0059944
X0070586Y0057632
X0066167Y0059309
X0064897
X0068199Y0069203
X0069685Y0072035
X0068491Y0081902
X0066891Y0081953
X0065532Y0083261
X0064262Y0083388
X0063386Y0085052
X0063373Y0086309
Y0087325
X0063384Y0088352
X0069685Y0088506
X0068199Y0085674
X0068364Y0098082
X0066764Y0098133
X0065405Y0099441
X0064135Y0099568
X0063259Y0101232
X0063246Y0102489
Y0103505
X0063257Y0104532
X0069558Y0104686
X0068072Y0101854
X006811Y011543
X006651Y0115481
X0065151Y0116789
X0063881Y0116916
X0063005Y011858
X0062992Y0119837
Y0120853
X0063003Y012188
X0069304Y0122034
X0067818Y0119202
X0033744Y011891
X0032432Y0121492
X0027182Y0121492
X0027051Y0125095
X0030607Y0125603
X0034544
X0034671Y0128524
Y012954
X0028575Y0130048
X0028448Y0128905
X0025485Y013026
X0025743Y0115989
X00246Y0112052
X0023796Y0111078
X0024473Y0110274
X0025912Y0109427
X0024854Y0107988
X0024911Y0106407
X0028048Y0105649
X0033298Y0105649
X003461Y0103067
X0033467Y0098749
X0032028Y0093711
X0026778Y0093584
X0025339Y0094431
X0024662Y0095235
X0025466Y0096209
X002572Y0092145
X0026609Y0100146
X0022545Y0103067
X0031162Y0109554
X0032601Y0114592
X0021679Y011891
X002032Y0119253
X0020028Y011764
X0018758
X0016891Y0118491
X0015367Y0116713
X0012827Y0116459
Y0117856
X0013335Y0119634
X0010676Y0118991
X000839Y0118991
X0009017Y0116586
X0007874Y0116459
X0007307Y0109914
X0008636Y0107696
X0009779Y0107315
X0010795Y0107823
X0012124Y0106875
X0013843Y0108585
X001778Y0107518
X0017653Y0105918
X0017145Y0104775
X0020193Y0103378
X0019624Y0101797
X0020894
X0022187Y0104686
X0015621Y0100584
X0014732Y0100076
X0014097Y0099314
X0012065Y0100711
Y0102108
X0009914Y0103243
X0007628Y0103243
X0008255Y0100838
X0007112Y0100711
X0006545Y0094166
X0007874Y0091948
X0009017Y0091567
X0010033Y0092075
X0012505Y0091381
X0014224Y0093091
X0018646Y0091675
X0018185Y0095235
X0012065Y0097155
X0012827Y0112903
X0017319Y0111078
X0018669Y0125095
Y0126365
X0018542Y0127508
T04
X0085598Y0016637
X0031623Y0032512
X0025655Y0037212
X002159Y0037211
X0014732Y0032512
T05
X0077978Y0046355
Y0048895
X0083058Y0046355
X0031162Y0024892
X0026162
X0020494
X0015494
X0077978Y0051435
X0083058
T06
X0071501Y0064008
Y0066548
Y0080518
Y0083058
Y0097028
Y0099568
Y0113538
Y0116078
T07
X0039878Y0016637
X0042418
T08
X0062484Y0016891
X0065024
X0067564
X0070104
X0070485Y0022733
X0073025
X0075565
X0078105
X0080645
X0083185
X0085725
Y0040513
X0083185
X0080645
X0078105
X0075565
X0073025
X0070485
X0067945
X0065405
X0062865
Y0022733
X0065405
X0067945
X0060325
X0057785
X0055245
X0052705
X0050165
X0047625
X0045085
X0042545
X0040005
X0037465
Y0040513
X0040005
X0042545
X0045085
X0047625
X0050165
X0052705
X0055245
X0057785
X0060325
X0056896Y0054991
X0049276
X0041656
Y0067691
X0049276
X0056896
Y0075311
X0049276
X0041656
Y0088011
X0049276
X0056896
Y0095631
X0049276
X0041656
Y0108331
X0049276
X0056896
Y0115951
X0049276
X0041656
Y0128651
X0049276
X0056896
T09
X0047117Y0016637
X00510374Y00166667
T10
X0002413Y0040894
Y0045974
X0015113Y0048134
Y0043434
Y0038734
T11
X0076581Y0058928
Y0069088
Y0075438
Y0085598
Y0091948
Y0102108
Y0108458
Y0118618
T12
X0066294Y0006731
T13
X0007239Y0007239
X0082423Y0006731
Y0127
X0007239
M30
