G04*
G04 #@! TF.GenerationSoftware,Altium Limited,Altium Designer,22.9.1 (49)*
G04*
G04 Layer_Physical_Order=4*
G04 Layer_Color=8242323*
%FSLAX44Y44*%
%MOMM*%
G71*
G04*
G04 #@! TF.SameCoordinates,544A37EE-08D3-4304-B61F-9C5D6A74D4DB*
G04*
G04*
G04 #@! TF.FilePolarity,Positive*
G04*
G01*
G75*
%ADD85C,0.2540*%
%ADD86C,1.1000*%
%ADD87C,1.3000*%
%ADD88O,3.1999X3.2000*%
%ADD89C,1.7780*%
%ADD90R,1.5000X1.5000*%
%ADD91C,1.5000*%
%ADD92C,2.3000*%
%ADD93R,1.5080X1.5080*%
%ADD94C,7.5000*%
%ADD95C,2.5000*%
%ADD96C,0.6350*%
%ADD97C,0.5000*%
%ADD98C,1.2700*%
%ADD99C,1.9050*%
G36*
X477520Y567690D02*
Y510540D01*
X448310Y481330D01*
X402590D01*
X389890Y494030D01*
Y516890D01*
X360680Y546100D01*
X287020D01*
Y574040D01*
X295910Y582930D01*
X462280D01*
X477520Y567690D01*
D02*
G37*
G36*
X275590Y544830D02*
X358140D01*
X377190Y525780D01*
Y519430D01*
X317500Y459740D01*
Y458470D01*
X167640D01*
X158750Y467360D01*
Y471287D01*
X158815Y471325D01*
X161145Y473655D01*
X162793Y476509D01*
X163646Y479692D01*
Y482988D01*
X162793Y486171D01*
X161145Y489025D01*
X158815Y491355D01*
X158750Y491393D01*
Y519430D01*
X177800Y538480D01*
Y588010D01*
X232410D01*
X275590Y544830D01*
D02*
G37*
%LPC*%
G36*
X417550Y557426D02*
X415570D01*
X413659Y556914D01*
X411945Y555924D01*
X410546Y554525D01*
X409556Y552811D01*
X409044Y550900D01*
Y548921D01*
X409556Y547009D01*
X410546Y545295D01*
X411945Y543896D01*
X413659Y542906D01*
X415570Y542394D01*
X417550D01*
X419461Y542906D01*
X421175Y543896D01*
X422574Y545295D01*
X423564Y547009D01*
X424076Y548921D01*
Y550900D01*
X423564Y552811D01*
X422574Y554525D01*
X421175Y555924D01*
X419461Y556914D01*
X417550Y557426D01*
D02*
G37*
G36*
X202814Y573405D02*
X201046D01*
X199412Y572728D01*
X198162Y571478D01*
X197485Y569844D01*
Y568076D01*
X198162Y566442D01*
X199412Y565192D01*
X201046Y564515D01*
X202814D01*
X204448Y565192D01*
X205698Y566442D01*
X206375Y568076D01*
Y569844D01*
X205698Y571478D01*
X204448Y572728D01*
X202814Y573405D01*
D02*
G37*
G36*
X229484Y572135D02*
X227716D01*
X226082Y571458D01*
X224832Y570208D01*
X224155Y568574D01*
Y566806D01*
X224832Y565172D01*
X226082Y563922D01*
X227716Y563245D01*
X229484D01*
X231118Y563922D01*
X232368Y565172D01*
X233045Y566806D01*
Y568574D01*
X232368Y570208D01*
X231118Y571458D01*
X229484Y572135D01*
D02*
G37*
G36*
X261234Y531495D02*
X259466D01*
X257832Y530818D01*
X256582Y529568D01*
X255905Y527934D01*
Y526166D01*
X256582Y524532D01*
X257832Y523282D01*
X259466Y522605D01*
X261234D01*
X262868Y523282D01*
X264118Y524532D01*
X264795Y526166D01*
Y527934D01*
X264118Y529568D01*
X262868Y530818D01*
X261234Y531495D01*
D02*
G37*
G36*
X357754Y513715D02*
X355986D01*
X354352Y513038D01*
X353102Y511788D01*
X352425Y510154D01*
Y508386D01*
X353102Y506752D01*
X354352Y505502D01*
X355986Y504825D01*
X357754D01*
X359388Y505502D01*
X360638Y506752D01*
X361315Y508386D01*
Y510154D01*
X360638Y511788D01*
X359388Y513038D01*
X357754Y513715D01*
D02*
G37*
G36*
X247264Y506095D02*
X245496D01*
X243862Y505418D01*
X242612Y504168D01*
X241935Y502534D01*
Y500766D01*
X242612Y499132D01*
X243862Y497882D01*
X245496Y497205D01*
X247264D01*
X248898Y497882D01*
X250148Y499132D01*
X250825Y500766D01*
Y502534D01*
X250148Y504168D01*
X248898Y505418D01*
X247264Y506095D01*
D02*
G37*
G36*
X285364Y481965D02*
X283596D01*
X281962Y481288D01*
X280712Y480038D01*
X280035Y478404D01*
Y476636D01*
X280712Y475002D01*
X281962Y473752D01*
X283596Y473075D01*
X285364D01*
X286998Y473752D01*
X288248Y475002D01*
X288925Y476636D01*
Y478404D01*
X288248Y480038D01*
X286998Y481288D01*
X285364Y481965D01*
D02*
G37*
%LPD*%
D85*
X497840Y600710D02*
X603250Y495300D01*
Y405130D02*
Y495300D01*
X255270Y600710D02*
X497840D01*
X577850Y405130D02*
Y502920D01*
X262760Y591820D02*
X488950D01*
X577850Y502920D01*
X255840Y584900D02*
X262760Y591820D01*
X255270Y600710D02*
Y619298D01*
X269875Y633903D01*
X257730Y762000D02*
X269875Y749855D01*
Y633903D02*
Y749855D01*
X257730Y762000D02*
Y780588D01*
X272335Y795193D01*
Y906315D01*
X257200Y921450D02*
X272335Y906315D01*
X257200Y921450D02*
Y940038D01*
X271805Y954643D01*
Y1049457D01*
X248540Y1072722D02*
X271805Y1049457D01*
X248540Y1072722D02*
Y1079880D01*
X238975Y601765D02*
X255840Y584900D01*
X238975Y601765D02*
Y677538D01*
X258300Y696863D01*
Y746190D01*
X241435Y763055D02*
X258300Y746190D01*
X241435Y763055D02*
Y889305D01*
X257770Y905640D01*
X240905Y922505D02*
X257770Y905640D01*
X240905Y922505D02*
Y1002408D01*
X249110Y1010613D01*
Y1064070D01*
X48260Y378460D02*
X224282Y202438D01*
X672871D02*
X691493Y221060D01*
X224282Y202438D02*
X672871D01*
X691493Y221060D02*
X698580D01*
X704850Y227330D01*
X48260Y378460D02*
Y1167381D01*
X189194Y1308315D01*
X59690Y1173782D02*
X167448Y1281540D01*
X59690Y383159D02*
Y1173782D01*
X167448Y1281540D02*
X241872D01*
X65405Y941705D02*
Y1029637D01*
X59690Y383159D02*
X236855Y205994D01*
X65405Y941705D02*
X65450Y941660D01*
X189194Y1308315D02*
X333795D01*
X346710Y1295400D01*
X241872Y1281540D02*
X260812Y1300480D01*
X236855Y205994D02*
X625627D01*
X640693Y221060D01*
X647780D01*
X654050Y227330D01*
X69180Y415960D02*
Y626020D01*
X275590Y209550D02*
X466090D01*
X69180Y415960D02*
X275590Y209550D01*
X260812Y1300480D02*
X285750D01*
X654050Y405130D02*
X680720Y431800D01*
Y488950D01*
X624840Y544830D02*
X680720Y488950D01*
X624840Y544830D02*
Y575361D01*
X623824Y576377D02*
Y832053D01*
Y576377D02*
X624840Y575361D01*
Y987252D02*
X638810Y1001222D01*
X624840Y833069D02*
Y987252D01*
X623824Y832053D02*
X624840Y833069D01*
X627380Y577850D02*
Y830580D01*
X718185Y514134D02*
Y553085D01*
Y514134D02*
X781050Y451269D01*
X638810Y1001222D02*
Y1169160D01*
X704850Y405130D02*
Y500380D01*
X627380Y577850D02*
X704850Y500380D01*
X730250Y405130D02*
Y483870D01*
X633730Y580390D02*
Y669290D01*
Y580390D02*
X730250Y483870D01*
X633730Y669290D02*
X642620Y678180D01*
Y584670D02*
Y669170D01*
Y584670D02*
X755650Y471640D01*
Y405130D02*
Y471640D01*
X655320Y615950D02*
X718185Y553085D01*
X781050Y405130D02*
Y451269D01*
X655320Y615950D02*
Y667900D01*
X226830Y943607D02*
Y999136D01*
X224815Y941592D02*
X226830Y943607D01*
X124460Y543560D02*
X149860Y568960D01*
X124460Y441514D02*
Y543560D01*
Y441514D02*
X145959Y420015D01*
X373380Y304800D02*
X450850Y227330D01*
X189332Y304800D02*
X373380D01*
X82470Y411662D02*
X189332Y304800D01*
X93900Y407750D02*
X190500Y311150D01*
X93900Y407750D02*
Y600030D01*
X190500Y311150D02*
X417830D01*
X82470Y411662D02*
Y603840D01*
X105156Y402844D02*
Y590245D01*
X191770Y316230D02*
X438150D01*
X105156Y402844D02*
X191770Y316230D01*
X474008Y225088D02*
X476250Y227330D01*
X466090Y209550D02*
X474008Y217468D01*
Y225088D01*
X417830Y311150D02*
X501650Y227330D01*
X108712Y410262D02*
Y588772D01*
Y410262D02*
X164644Y354330D01*
X450850D01*
X112268Y438619D02*
X149761Y401126D01*
X156840D02*
X162662Y395304D01*
X460676D01*
X149761Y401126D02*
X156840D01*
X112268Y438619D02*
Y577088D01*
X438150Y316230D02*
X527050Y227330D01*
X109775Y594864D02*
Y669149D01*
X105156Y590245D02*
X109775Y594864D01*
X450850Y354330D02*
X577850Y227330D01*
X108712Y588772D02*
X114300Y594360D01*
Y763270D01*
X112268Y577088D02*
X129540Y594360D01*
Y607060D01*
X460676Y395304D02*
X628650Y227330D01*
X144516Y411400D02*
X368380D01*
X115824Y440092D02*
X144516Y411400D01*
X115824Y440092D02*
Y547624D01*
X368380Y411400D02*
X374650Y405130D01*
X119380Y441565D02*
Y544830D01*
Y441565D02*
X144486Y416459D01*
X388721D01*
X400050Y405130D01*
X145959Y420015D02*
X435965D01*
X450850Y405130D01*
X313529Y455238D02*
X329347Y439420D01*
X306315Y451682D02*
X323657Y434340D01*
X154790Y448126D02*
X156840D01*
X174182Y430784D01*
X450596D01*
X130048Y539227D02*
X130810Y539989D01*
Y541020D01*
X156263Y451682D02*
X306315D01*
X157736Y455238D02*
X313529D01*
X130048Y472868D02*
Y539227D01*
X133604Y474341D02*
X156263Y451682D01*
X137160Y475814D02*
X157736Y455238D01*
X450596Y430784D02*
X476250Y405130D01*
X130048Y472868D02*
X154790Y448126D01*
X323657Y434340D02*
X472440D01*
X501650Y405130D01*
X329347Y439420D02*
X492760D01*
X133604Y474341D02*
Y500634D01*
X141530Y508560D01*
Y536650D01*
X492760Y439420D02*
X527050Y405130D01*
X137160Y475814D02*
Y497324D01*
X153670Y513834D01*
Y539750D01*
X132715Y614045D02*
X137160Y609600D01*
X115824Y547624D02*
X137160Y568960D01*
Y609600D01*
X117856Y618744D02*
X129540Y607060D01*
X132715Y614045D02*
Y830407D01*
X147955Y845647D01*
X140970Y940262D02*
X147955Y933277D01*
X140970Y940262D02*
Y993140D01*
X147955Y845647D02*
Y933277D01*
X137795Y768985D02*
Y797448D01*
X144780Y804433D01*
X137795Y768985D02*
X144145Y762635D01*
X144780Y804433D02*
Y833120D01*
X119380Y544830D02*
X144145Y569595D01*
Y762635D01*
X149860Y568960D02*
Y671830D01*
X152400Y842010D02*
Y995680D01*
Y691688D02*
Y842010D01*
Y691688D02*
X156210Y687878D01*
X141530Y536650D02*
X156210Y551330D01*
Y680720D01*
X161925Y548005D02*
Y683087D01*
X160020Y684992D02*
Y692150D01*
Y684992D02*
X161925Y683087D01*
X153670Y539750D02*
X161925Y548005D01*
X160020Y692150D02*
Y850900D01*
X156210Y855741D02*
X160020Y851931D01*
Y850900D02*
Y851931D01*
X156210Y855741D02*
Y1005840D01*
X147320Y1000760D02*
X152400Y995680D01*
X156210Y680720D02*
Y687878D01*
X223520Y709930D02*
Y767429D01*
X227360Y771269D01*
Y827738D01*
X225980Y829118D02*
X227360Y827738D01*
X225980Y829118D02*
Y871220D01*
Y872251D01*
X224815Y873416D02*
X225980Y872251D01*
X225450Y1000516D02*
X226830Y999136D01*
X224815Y873416D02*
Y941592D01*
X225450Y1000516D02*
Y1030670D01*
Y1031701D01*
X227585Y1033836D01*
Y1105555D01*
X221090Y1112050D02*
X227585Y1105555D01*
X221090Y1112050D02*
Y1142698D01*
X216790Y1146998D02*
X221090Y1142698D01*
X216790Y1146998D02*
Y1189100D01*
Y1243710D01*
X185420Y1275080D02*
X216790Y1243710D01*
X627380Y830580D02*
X641350Y844550D01*
Y995680D01*
X642620Y678180D02*
Y833880D01*
X655320Y667900D02*
Y832610D01*
X654050Y834911D02*
X655320Y833641D01*
Y832610D02*
Y833641D01*
X654050Y834911D02*
Y994410D01*
X651510Y997981D02*
X654050Y995441D01*
X651510Y997981D02*
Y1167890D01*
X654050Y994410D02*
Y995441D01*
X117856Y618744D02*
Y766064D01*
X106680Y777240D02*
X117856Y766064D01*
X106680Y777240D02*
Y925830D01*
X93425Y939085D02*
X106680Y925830D01*
X93425Y939085D02*
Y1048908D01*
X97790Y1053273D01*
Y1073150D01*
X94855Y782715D02*
X114300Y763270D01*
X94855Y782715D02*
Y910477D01*
X90170Y915162D02*
X94855Y910477D01*
X90170Y915162D02*
Y915670D01*
X89695Y773385D02*
Y908063D01*
X78740Y919018D02*
X89695Y908063D01*
X78740Y919018D02*
Y919480D01*
X97155Y681769D02*
X109775Y669149D01*
X97155Y681769D02*
Y754495D01*
X91600Y760050D02*
X97155Y754495D01*
X91995Y613365D02*
Y751573D01*
X80170Y763398D02*
X91995Y751573D01*
X82470Y603840D02*
X91995Y613365D01*
X80170Y763398D02*
Y763860D01*
X89695Y773385D01*
X86360Y1012652D02*
Y1076960D01*
Y1012652D02*
X88265Y1010747D01*
Y929005D02*
Y1010747D01*
X78740Y919480D02*
X88265Y929005D01*
X69180Y626020D02*
Y627051D01*
X66880Y629351D02*
Y786040D01*
Y629351D02*
X69180Y627051D01*
X65450Y788501D02*
X66880Y787071D01*
X65450Y788501D02*
Y941660D01*
X66880Y786040D02*
Y787071D01*
X65405Y1029637D02*
X73070Y1037302D01*
Y1099140D01*
D86*
X779780Y514350D02*
D03*
Y488950D02*
D03*
Y463550D02*
D03*
X830580Y514350D02*
D03*
Y463550D02*
D03*
X204940Y248920D02*
D03*
X154940D02*
D03*
X311620D02*
D03*
X261620D02*
D03*
D87*
X568960Y676910D02*
D03*
Y549910D02*
D03*
X492760Y676910D02*
D03*
Y549910D02*
D03*
X416560Y676910D02*
D03*
Y549910D02*
D03*
X568960Y880110D02*
D03*
Y753110D02*
D03*
X492760Y880110D02*
D03*
Y753110D02*
D03*
X416560Y880110D02*
D03*
Y753110D02*
D03*
X568960Y1083310D02*
D03*
Y956310D02*
D03*
X492760Y1083310D02*
D03*
Y956310D02*
D03*
X416560Y1083310D02*
D03*
Y956310D02*
D03*
X568960Y1286510D02*
D03*
Y1159510D02*
D03*
X492760Y1286510D02*
D03*
Y1159510D02*
D03*
X416560Y1286510D02*
D03*
Y1159510D02*
D03*
X715010Y1160780D02*
D03*
Y1135380D02*
D03*
Y665480D02*
D03*
Y640080D02*
D03*
Y995680D02*
D03*
Y970280D02*
D03*
Y830580D02*
D03*
Y805180D02*
D03*
D88*
X662940Y67310D02*
D03*
D89*
X624840Y168910D02*
D03*
X650240D02*
D03*
X675640D02*
D03*
X701040D02*
D03*
D90*
X398780Y166370D02*
D03*
D91*
X424180D02*
D03*
D92*
X151130Y481340D02*
D03*
Y434340D02*
D03*
Y387340D02*
D03*
X24130Y408940D02*
D03*
Y459740D02*
D03*
D93*
X857250Y405130D02*
D03*
X831850D02*
D03*
X806450D02*
D03*
X781050D02*
D03*
X755650D02*
D03*
X730250D02*
D03*
X704850D02*
D03*
X679450D02*
D03*
X654050D02*
D03*
X628650D02*
D03*
X603250D02*
D03*
X577850D02*
D03*
X552450D02*
D03*
X527050D02*
D03*
X501650D02*
D03*
X476250D02*
D03*
X450850D02*
D03*
X425450D02*
D03*
X400050D02*
D03*
X374650D02*
D03*
X857250Y227330D02*
D03*
X831850D02*
D03*
X806450D02*
D03*
X781050D02*
D03*
X755650D02*
D03*
X730250D02*
D03*
X704850D02*
D03*
X679450D02*
D03*
X654050D02*
D03*
X628650D02*
D03*
X603250D02*
D03*
X577850D02*
D03*
X552450D02*
D03*
X527050D02*
D03*
X501650D02*
D03*
X476250D02*
D03*
X450850D02*
D03*
X425450D02*
D03*
X400050D02*
D03*
X374650D02*
D03*
D94*
X824230Y67310D02*
D03*
X72390Y72390D02*
D03*
Y1270000D02*
D03*
X824230D02*
D03*
D95*
X765810Y1186180D02*
D03*
Y1084580D02*
D03*
Y690880D02*
D03*
Y589280D02*
D03*
Y1021080D02*
D03*
Y919480D02*
D03*
Y855980D02*
D03*
Y754380D02*
D03*
D96*
X183260Y580010D02*
D03*
X184530Y596010D02*
D03*
X223520Y709930D02*
D03*
X278550Y735750D02*
D03*
X264160Y680720D02*
D03*
X331050Y735750D02*
D03*
X344170Y709930D02*
D03*
X318350Y616370D02*
D03*
X332740Y666750D02*
D03*
X265850Y615100D02*
D03*
X252730Y641350D02*
D03*
X179920Y631610D02*
D03*
X244690D02*
D03*
X194310Y697230D02*
D03*
X207010D02*
D03*
X251460Y623570D02*
D03*
X255270Y600710D02*
D03*
X255840Y584900D02*
D03*
X228600Y567690D02*
D03*
X687070Y497840D02*
D03*
X372110Y450850D02*
D03*
X385320Y464060D02*
D03*
X356870Y509270D02*
D03*
X284480Y477520D02*
D03*
X318770D02*
D03*
X246380Y501650D02*
D03*
X235030Y514430D02*
D03*
X260350Y527050D02*
D03*
X347980Y534670D02*
D03*
X323850Y539750D02*
D03*
X661670Y439420D02*
D03*
X660400Y461010D02*
D03*
X647700Y439420D02*
D03*
X648970Y593090D02*
D03*
X699135Y439420D02*
D03*
Y458470D02*
D03*
X330200Y457200D02*
D03*
X216790Y1189100D02*
D03*
X244730Y1102740D02*
D03*
X248540Y1079880D02*
D03*
X249110Y1064070D02*
D03*
X177800Y1075180D02*
D03*
X176530Y1059180D02*
D03*
X221870Y1046860D02*
D03*
X173190Y1110780D02*
D03*
X187580Y1176400D02*
D03*
X200280D02*
D03*
X237960Y1110780D02*
D03*
X257430Y1159890D02*
D03*
X246000Y1120520D02*
D03*
X259120Y1094270D02*
D03*
X311620Y1095540D02*
D03*
X326010Y1145920D02*
D03*
X337440Y1189100D02*
D03*
X324320Y1214920D02*
D03*
X271820Y1214920D02*
D03*
X201930Y568960D02*
D03*
X196930Y712550D02*
D03*
X198120Y876300D02*
D03*
X201930Y1033780D02*
D03*
X203200Y1192530D02*
D03*
X149860Y671830D02*
D03*
X181610Y91440D02*
D03*
X728980Y109220D02*
D03*
X485060Y54690D02*
D03*
X835660Y146050D02*
D03*
X731520Y173990D02*
D03*
X595630Y105410D02*
D03*
X553065Y120035D02*
D03*
X596900Y80010D02*
D03*
X168910Y1184910D02*
D03*
X133350Y1196340D02*
D03*
X153670Y1167130D02*
D03*
X130810Y541020D02*
D03*
X141530Y536650D02*
D03*
X153670Y539750D02*
D03*
X156210Y680720D02*
D03*
X160020Y692150D02*
D03*
X144780Y833120D02*
D03*
X152400Y842010D02*
D03*
X160020Y850900D02*
D03*
X140970Y993140D02*
D03*
X147320Y1000760D02*
D03*
X156210Y1005840D02*
D03*
X185420Y1275080D02*
D03*
X186690Y1250950D02*
D03*
X270510D02*
D03*
X306070Y1256030D02*
D03*
X345440D02*
D03*
X346710Y1295400D02*
D03*
Y1285240D02*
D03*
X285750Y1300480D02*
D03*
X284480Y1289050D02*
D03*
X254850Y1302600D02*
D03*
X186690Y1263650D02*
D03*
X704850Y599440D02*
D03*
X703580Y618490D02*
D03*
X675260Y632840D02*
D03*
X705860Y576320D02*
D03*
X661670Y593090D02*
D03*
X185720Y741300D02*
D03*
X186990Y757300D02*
D03*
X225980Y871220D02*
D03*
X281010Y897040D02*
D03*
X266620Y842010D02*
D03*
X333510Y897040D02*
D03*
X346630Y871220D02*
D03*
X320810Y777660D02*
D03*
X335200Y828040D02*
D03*
X268310Y776390D02*
D03*
X255190Y802640D02*
D03*
X182380Y792900D02*
D03*
X247150D02*
D03*
X196770Y858520D02*
D03*
X209470D02*
D03*
X253920Y784860D02*
D03*
X257730Y762000D02*
D03*
X258300Y746190D02*
D03*
X231060Y728980D02*
D03*
X185190Y900750D02*
D03*
X186460Y916750D02*
D03*
X225450Y1030670D02*
D03*
X280480Y1056490D02*
D03*
X266090Y1001460D02*
D03*
X332980Y1056490D02*
D03*
X346100Y1030670D02*
D03*
X320280Y937110D02*
D03*
X334670Y987490D02*
D03*
X267780Y935840D02*
D03*
X254660Y962090D02*
D03*
X181850Y952350D02*
D03*
X246620D02*
D03*
X196240Y1017970D02*
D03*
X208940D02*
D03*
X253390Y944310D02*
D03*
X257200Y921450D02*
D03*
X257770Y905640D02*
D03*
X230530Y888430D02*
D03*
X696850Y720350D02*
D03*
X681990Y692030D02*
D03*
X668910Y654820D02*
D03*
X684910Y654310D02*
D03*
X633840Y718810D02*
D03*
X655320Y667900D02*
D03*
X642620Y669170D02*
D03*
X633860Y685810D02*
D03*
X633730Y708540D02*
D03*
Y698380D02*
D03*
X696850Y885060D02*
D03*
X681990Y856740D02*
D03*
X668910Y819530D02*
D03*
X684910Y819020D02*
D03*
X633840Y883520D02*
D03*
X655320Y832610D02*
D03*
X642620Y833880D02*
D03*
X633860Y850520D02*
D03*
X633730Y873250D02*
D03*
Y863090D02*
D03*
X695580Y1046860D02*
D03*
X680720Y1018540D02*
D03*
X667640Y981330D02*
D03*
X683640Y980820D02*
D03*
X632570Y1045320D02*
D03*
X654050Y994410D02*
D03*
X641350Y995680D02*
D03*
X632590Y1012320D02*
D03*
X632460Y1035050D02*
D03*
Y1024890D02*
D03*
X681100Y1154300D02*
D03*
X638810Y1169160D02*
D03*
X651510Y1167890D02*
D03*
X629920Y1198370D02*
D03*
Y1208530D02*
D03*
X678180Y1192020D02*
D03*
X693040Y1220340D02*
D03*
X665100Y1154810D02*
D03*
X630050Y1185800D02*
D03*
X630030Y1218800D02*
D03*
X124380Y655910D02*
D03*
X102870Y716790D02*
D03*
X124380Y705440D02*
D03*
Y691470D02*
D03*
X80010Y716790D02*
D03*
X69180Y626020D02*
D03*
X82470Y603840D02*
D03*
X93900Y600030D02*
D03*
X104060Y605110D02*
D03*
X74850Y691470D02*
D03*
X86280Y692740D02*
D03*
X122080Y815930D02*
D03*
X100570Y876810D02*
D03*
X122080Y865460D02*
D03*
Y851490D02*
D03*
X77710Y876810D02*
D03*
X66880Y786040D02*
D03*
X80170Y763860D02*
D03*
X91600Y760050D02*
D03*
X101760Y765130D02*
D03*
X72550Y851490D02*
D03*
X83980Y852760D02*
D03*
X120650Y971550D02*
D03*
X99140Y1032430D02*
D03*
X120650Y1021080D02*
D03*
Y1007110D02*
D03*
X76280Y1032430D02*
D03*
X65450Y941660D02*
D03*
X78740Y919480D02*
D03*
X90170Y915670D02*
D03*
X100330Y920750D02*
D03*
X71120Y1007110D02*
D03*
X82550Y1008380D02*
D03*
X86360Y1076960D02*
D03*
X97790Y1073150D02*
D03*
X107950Y1078230D02*
D03*
X73070Y1099140D02*
D03*
X78740Y1164590D02*
D03*
X128270Y1178560D02*
D03*
X106760Y1189910D02*
D03*
X83900Y1189910D02*
D03*
X90170Y1165860D02*
D03*
X128270Y1164590D02*
D03*
Y1129030D02*
D03*
X138430Y618490D02*
D03*
X121240Y601390D02*
D03*
X142240Y930910D02*
D03*
X143510Y772160D02*
D03*
X126320Y755060D02*
D03*
X125050Y913810D02*
D03*
X171450Y580390D02*
D03*
X176530Y734060D02*
D03*
X175260Y892810D02*
D03*
X138430Y1085850D02*
D03*
X121240Y1068750D02*
D03*
X171450Y1047750D02*
D03*
D97*
X193860Y664360D02*
D03*
Y651360D02*
D03*
X232860Y664360D02*
D03*
Y651360D02*
D03*
X219860Y664360D02*
D03*
Y651360D02*
D03*
X206860Y664360D02*
D03*
Y651360D02*
D03*
X285600Y628200D02*
D03*
X298600D02*
D03*
X285600Y667200D02*
D03*
X298600D02*
D03*
X285600Y654200D02*
D03*
X298600D02*
D03*
X285600Y641200D02*
D03*
X298600D02*
D03*
X311300Y723080D02*
D03*
X298300D02*
D03*
X311300Y684080D02*
D03*
X298300D02*
D03*
X311300Y697080D02*
D03*
X298300D02*
D03*
X311300Y710080D02*
D03*
X298300D02*
D03*
X187130Y1143530D02*
D03*
Y1130530D02*
D03*
X226130Y1143530D02*
D03*
Y1130530D02*
D03*
X213130Y1143530D02*
D03*
Y1130530D02*
D03*
X200130Y1143530D02*
D03*
Y1130530D02*
D03*
X278870Y1107370D02*
D03*
X291870D02*
D03*
X278870Y1146370D02*
D03*
X291870D02*
D03*
X278870Y1133370D02*
D03*
X291870D02*
D03*
X278870Y1120370D02*
D03*
X291870D02*
D03*
X304570Y1202250D02*
D03*
X291570D02*
D03*
X304570Y1163250D02*
D03*
X291570D02*
D03*
X304570Y1176250D02*
D03*
X291570D02*
D03*
X304570Y1189250D02*
D03*
X291570D02*
D03*
X181610Y495300D02*
D03*
X168910Y496570D02*
D03*
X181610Y466090D02*
D03*
X168910Y467360D02*
D03*
X176530Y506730D02*
D03*
X166370Y509270D02*
D03*
X185420Y518160D02*
D03*
X173990Y519430D02*
D03*
X438512Y565540D02*
D03*
X456114Y546266D02*
D03*
X453574Y534836D02*
D03*
X457384Y515786D02*
D03*
X418014Y500546D02*
D03*
X400234Y508166D02*
D03*
X414204Y514516D02*
D03*
X421824Y529756D02*
D03*
X407822Y527920D02*
D03*
X439604Y542456D02*
D03*
X435794Y510706D02*
D03*
X437064Y529756D02*
D03*
X335464Y564046D02*
D03*
X322764Y558966D02*
D03*
X324034Y574206D02*
D03*
X310064Y570396D02*
D03*
X307524Y556426D02*
D03*
X292100Y552450D02*
D03*
X298450Y574040D02*
D03*
X300760Y871370D02*
D03*
X313760D02*
D03*
X300760Y858370D02*
D03*
X313760D02*
D03*
X300760Y845370D02*
D03*
X313760D02*
D03*
X300760Y884370D02*
D03*
X313760D02*
D03*
X209320Y812650D02*
D03*
Y825650D02*
D03*
X222320Y812650D02*
D03*
Y825650D02*
D03*
X235320Y812650D02*
D03*
Y825650D02*
D03*
X196320Y812650D02*
D03*
Y825650D02*
D03*
X301060Y802490D02*
D03*
X288060D02*
D03*
X301060Y815490D02*
D03*
X288060D02*
D03*
X301060Y828490D02*
D03*
X288060D02*
D03*
X301060Y789490D02*
D03*
X288060D02*
D03*
X300230Y1030820D02*
D03*
X313230D02*
D03*
X300230Y1017820D02*
D03*
X313230D02*
D03*
X300230Y1004820D02*
D03*
X313230D02*
D03*
X300230Y1043820D02*
D03*
X313230D02*
D03*
X208790Y972100D02*
D03*
Y985100D02*
D03*
X221790Y972100D02*
D03*
Y985100D02*
D03*
X234790Y972100D02*
D03*
Y985100D02*
D03*
X195790Y972100D02*
D03*
Y985100D02*
D03*
X300530Y961940D02*
D03*
X287530D02*
D03*
X300530Y974940D02*
D03*
X287530D02*
D03*
X300530Y987940D02*
D03*
X287530D02*
D03*
X300530Y948940D02*
D03*
X287530D02*
D03*
X532550Y75360D02*
D03*
X521550D02*
D03*
X532550Y86360D02*
D03*
X521550D02*
D03*
X532550Y97360D02*
D03*
X521550D02*
D03*
X235100Y1263500D02*
D03*
X222100D02*
D03*
X235100Y1276500D02*
D03*
X222100D02*
D03*
X235100Y1289500D02*
D03*
X222100D02*
D03*
X235100Y1250500D02*
D03*
X222100D02*
D03*
D98*
X215900Y372110D02*
D03*
X256550Y372120D02*
D03*
X316230Y325120D02*
D03*
X147320D02*
D03*
X855980Y166370D02*
D03*
D99*
X510374Y166667D02*
D03*
X471170Y166370D02*
D03*
M02*
