G04*
G04 #@! TF.GenerationSoftware,Altium Limited,Altium Designer,22.9.1 (49)*
G04*
G04 Layer_Physical_Order=2*
G04 Layer_Color=6740479*
%FSLAX44Y44*%
%MOMM*%
G71*
G04*
G04 #@! TF.SameCoordinates,544A37EE-08D3-4304-B61F-9C5D6A74D4DB*
G04*
G04*
G04 #@! TF.FilePolarity,Positive*
G04*
G01*
G75*
%ADD86C,1.1000*%
%ADD96C,0.6350*%
%ADD97C,0.5000*%
%ADD98C,1.2700*%
%ADD100C,0.5080*%
%ADD101C,1.5080*%
G36*
X894581Y1297095D02*
Y45295D01*
X851325Y2039D01*
X45295D01*
X2039Y45295D01*
Y1297095D01*
X45295Y1340351D01*
X851325D01*
X894581Y1297095D01*
D02*
G37*
%LPC*%
G36*
X286634Y1304925D02*
X284866D01*
X283232Y1304248D01*
X281982Y1302998D01*
X281305Y1301364D01*
Y1299596D01*
X281982Y1297962D01*
X283232Y1296712D01*
X284866Y1296035D01*
X286634D01*
X288268Y1296712D01*
X289518Y1297962D01*
X290195Y1299596D01*
Y1301364D01*
X289518Y1302998D01*
X288268Y1304248D01*
X286634Y1304925D01*
D02*
G37*
G36*
X347594Y1299845D02*
X345826D01*
X344192Y1299168D01*
X342942Y1297918D01*
X342265Y1296284D01*
Y1294516D01*
X342942Y1292882D01*
X344192Y1291632D01*
X345826Y1290955D01*
X347594D01*
X349228Y1291632D01*
X350478Y1292882D01*
X351155Y1294516D01*
Y1296284D01*
X350478Y1297918D01*
X349228Y1299168D01*
X347594Y1299845D01*
D02*
G37*
G36*
X235850Y1293270D02*
X234350D01*
X232964Y1292696D01*
X231904Y1291635D01*
X231330Y1290250D01*
Y1288750D01*
X231904Y1287365D01*
X232964Y1286304D01*
X234350Y1285730D01*
X235850D01*
X237236Y1286304D01*
X238296Y1287365D01*
X238870Y1288750D01*
Y1290250D01*
X238296Y1291635D01*
X237236Y1292696D01*
X235850Y1293270D01*
D02*
G37*
G36*
X222850D02*
X221350D01*
X219965Y1292696D01*
X218904Y1291635D01*
X218330Y1290250D01*
Y1288750D01*
X218904Y1287365D01*
X219965Y1286304D01*
X221350Y1285730D01*
X222850D01*
X224235Y1286304D01*
X225296Y1287365D01*
X225870Y1288750D01*
Y1290250D01*
X225296Y1291635D01*
X224235Y1292696D01*
X222850Y1293270D01*
D02*
G37*
G36*
X285364Y1293495D02*
X283596D01*
X281962Y1292818D01*
X280712Y1291568D01*
X280035Y1289934D01*
Y1288166D01*
X280712Y1286532D01*
X281962Y1285282D01*
X283596Y1284605D01*
X285364D01*
X286998Y1285282D01*
X288248Y1286532D01*
X288925Y1288166D01*
Y1289934D01*
X288248Y1291568D01*
X286998Y1292818D01*
X285364Y1293495D01*
D02*
G37*
G36*
X347594Y1289685D02*
X345826D01*
X344192Y1289008D01*
X342942Y1287758D01*
X342265Y1286124D01*
Y1284356D01*
X342942Y1282722D01*
X344192Y1281472D01*
X345826Y1280795D01*
X347594D01*
X349228Y1281472D01*
X350478Y1282722D01*
X351155Y1284356D01*
Y1286124D01*
X350478Y1287758D01*
X349228Y1289008D01*
X347594Y1289685D01*
D02*
G37*
G36*
X569949Y1294026D02*
X567971D01*
X566059Y1293514D01*
X564345Y1292524D01*
X562946Y1291125D01*
X561956Y1289411D01*
X561444Y1287500D01*
Y1285520D01*
X561956Y1283609D01*
X562946Y1281895D01*
X564345Y1280496D01*
X566059Y1279506D01*
X567971Y1278994D01*
X569949D01*
X571861Y1279506D01*
X573575Y1280496D01*
X574974Y1281895D01*
X575964Y1283609D01*
X576476Y1285520D01*
Y1287500D01*
X575964Y1289411D01*
X574974Y1291125D01*
X573575Y1292524D01*
X571861Y1293514D01*
X569949Y1294026D01*
D02*
G37*
G36*
X493750D02*
X491771D01*
X489859Y1293514D01*
X488145Y1292524D01*
X486746Y1291125D01*
X485756Y1289411D01*
X485244Y1287500D01*
Y1285520D01*
X485756Y1283609D01*
X486746Y1281895D01*
X488145Y1280496D01*
X489859Y1279506D01*
X491771Y1278994D01*
X493750D01*
X495661Y1279506D01*
X497375Y1280496D01*
X498774Y1281895D01*
X499764Y1283609D01*
X500276Y1285520D01*
Y1287500D01*
X499764Y1289411D01*
X498774Y1291125D01*
X497375Y1292524D01*
X495661Y1293514D01*
X493750Y1294026D01*
D02*
G37*
G36*
X417550D02*
X415570D01*
X413659Y1293514D01*
X411945Y1292524D01*
X410546Y1291125D01*
X409556Y1289411D01*
X409044Y1287500D01*
Y1285520D01*
X409556Y1283609D01*
X410546Y1281895D01*
X411945Y1280496D01*
X413659Y1279506D01*
X415570Y1278994D01*
X417550D01*
X419461Y1279506D01*
X421175Y1280496D01*
X422574Y1281895D01*
X423564Y1283609D01*
X424076Y1285520D01*
Y1287500D01*
X423564Y1289411D01*
X422574Y1291125D01*
X421175Y1292524D01*
X419461Y1293514D01*
X417550Y1294026D01*
D02*
G37*
G36*
X235850Y1280270D02*
X234350D01*
X232964Y1279696D01*
X231904Y1278635D01*
X231330Y1277250D01*
Y1275750D01*
X231904Y1274364D01*
X232964Y1273304D01*
X234350Y1272730D01*
X235850D01*
X237236Y1273304D01*
X238296Y1274364D01*
X238870Y1275750D01*
Y1277250D01*
X238296Y1278635D01*
X237236Y1279696D01*
X235850Y1280270D01*
D02*
G37*
G36*
X222850D02*
X221350D01*
X219965Y1279696D01*
X218904Y1278635D01*
X218330Y1277250D01*
Y1275750D01*
X218904Y1274364D01*
X219965Y1273304D01*
X221350Y1272730D01*
X222850D01*
X224235Y1273304D01*
X225296Y1274364D01*
X225870Y1275750D01*
Y1277250D01*
X225296Y1278635D01*
X224235Y1279696D01*
X222850Y1280270D01*
D02*
G37*
G36*
X186304Y1279525D02*
X184536D01*
X182902Y1278848D01*
X181652Y1277598D01*
X180975Y1275964D01*
Y1274196D01*
X181652Y1272562D01*
X182902Y1271312D01*
X184536Y1270635D01*
X186304D01*
X187938Y1271312D01*
X189188Y1272562D01*
X189865Y1274196D01*
Y1275964D01*
X189188Y1277598D01*
X187938Y1278848D01*
X186304Y1279525D01*
D02*
G37*
G36*
X235850Y1267270D02*
X234350D01*
X232964Y1266696D01*
X231904Y1265636D01*
X231330Y1264250D01*
Y1262750D01*
X231904Y1261365D01*
X232964Y1260304D01*
X234350Y1259730D01*
X235850D01*
X237236Y1260304D01*
X238296Y1261365D01*
X238870Y1262750D01*
Y1264250D01*
X238296Y1265636D01*
X237236Y1266696D01*
X235850Y1267270D01*
D02*
G37*
G36*
X222850D02*
X221350D01*
X219965Y1266696D01*
X218904Y1265636D01*
X218330Y1264250D01*
Y1262750D01*
X218904Y1261365D01*
X219965Y1260304D01*
X221350Y1259730D01*
X222850D01*
X224235Y1260304D01*
X225296Y1261365D01*
X225870Y1262750D01*
Y1264250D01*
X225296Y1265636D01*
X224235Y1266696D01*
X222850Y1267270D01*
D02*
G37*
G36*
X235850Y1254270D02*
X234350D01*
X232964Y1253696D01*
X231904Y1252635D01*
X231330Y1251250D01*
Y1249750D01*
X231904Y1248364D01*
X232964Y1247304D01*
X234350Y1246730D01*
X235850D01*
X237236Y1247304D01*
X238296Y1248364D01*
X238870Y1249750D01*
Y1251250D01*
X238296Y1252635D01*
X237236Y1253696D01*
X235850Y1254270D01*
D02*
G37*
G36*
X222850D02*
X221350D01*
X219965Y1253696D01*
X218904Y1252635D01*
X218330Y1251250D01*
Y1249750D01*
X218904Y1248364D01*
X219965Y1247304D01*
X221350Y1246730D01*
X222850D01*
X224235Y1247304D01*
X225296Y1248364D01*
X225870Y1249750D01*
Y1251250D01*
X225296Y1252635D01*
X224235Y1253696D01*
X222850Y1254270D01*
D02*
G37*
G36*
X826692Y1295000D02*
X821768D01*
X816938Y1294039D01*
X812388Y1292155D01*
X808293Y1289419D01*
X804811Y1285937D01*
X802075Y1281842D01*
X800191Y1277292D01*
X799230Y1272462D01*
Y1267538D01*
X800191Y1262708D01*
X802075Y1258158D01*
X804811Y1254063D01*
X808293Y1250581D01*
X812388Y1247845D01*
X816938Y1245961D01*
X821768Y1245000D01*
X826692D01*
X831522Y1245961D01*
X836072Y1247845D01*
X840167Y1250581D01*
X843649Y1254063D01*
X846385Y1258158D01*
X848269Y1262708D01*
X849230Y1267538D01*
Y1272462D01*
X848269Y1277292D01*
X846385Y1281842D01*
X843649Y1285937D01*
X840167Y1289419D01*
X836072Y1292155D01*
X831522Y1294039D01*
X826692Y1295000D01*
D02*
G37*
G36*
X74852D02*
X69928D01*
X65098Y1294039D01*
X60548Y1292155D01*
X56453Y1289419D01*
X52971Y1285937D01*
X50235Y1281842D01*
X48351Y1277292D01*
X47390Y1272462D01*
Y1267538D01*
X48351Y1262708D01*
X50235Y1258158D01*
X52971Y1254063D01*
X56453Y1250581D01*
X60548Y1247845D01*
X65098Y1245961D01*
X69928Y1245000D01*
X74852D01*
X79682Y1245961D01*
X84232Y1247845D01*
X88327Y1250581D01*
X91809Y1254063D01*
X94545Y1258158D01*
X96429Y1262708D01*
X97390Y1267538D01*
Y1272462D01*
X96429Y1277292D01*
X94545Y1281842D01*
X91809Y1285937D01*
X88327Y1289419D01*
X84232Y1292155D01*
X79682Y1294039D01*
X74852Y1295000D01*
D02*
G37*
G36*
X134234Y1200785D02*
X132466D01*
X130832Y1200108D01*
X129582Y1198858D01*
X128905Y1197224D01*
Y1195456D01*
X129582Y1193822D01*
X130832Y1192572D01*
X132466Y1191895D01*
X134234D01*
X135868Y1192572D01*
X137118Y1193822D01*
X137795Y1195456D01*
Y1197224D01*
X137118Y1198858D01*
X135868Y1200108D01*
X134234Y1200785D01*
D02*
G37*
G36*
X204084Y1196975D02*
X202316D01*
X200682Y1196298D01*
X199432Y1195048D01*
X198755Y1193414D01*
Y1191646D01*
X199432Y1190012D01*
X200682Y1188762D01*
X202316Y1188085D01*
X204084D01*
X205718Y1188762D01*
X206968Y1190012D01*
X207645Y1191646D01*
Y1193414D01*
X206968Y1195048D01*
X205718Y1196298D01*
X204084Y1196975D01*
D02*
G37*
G36*
X84784Y1194355D02*
X83016D01*
X81382Y1193678D01*
X80132Y1192428D01*
X79455Y1190794D01*
Y1189026D01*
X80132Y1187392D01*
X81382Y1186142D01*
X83016Y1185465D01*
X84784D01*
X86418Y1186142D01*
X87668Y1187392D01*
X88345Y1189026D01*
Y1190794D01*
X87668Y1192428D01*
X86418Y1193678D01*
X84784Y1194355D01*
D02*
G37*
G36*
X217674Y1193545D02*
X215906D01*
X214272Y1192868D01*
X213022Y1191618D01*
X212345Y1189984D01*
Y1188216D01*
X213022Y1186582D01*
X214272Y1185332D01*
X215906Y1184655D01*
X217674D01*
X219308Y1185332D01*
X220558Y1186582D01*
X221235Y1188216D01*
Y1189984D01*
X220558Y1191618D01*
X219308Y1192868D01*
X217674Y1193545D01*
D02*
G37*
G36*
X630934Y1190245D02*
X629166D01*
X627532Y1189568D01*
X626282Y1188318D01*
X625605Y1186684D01*
Y1184916D01*
X626282Y1183282D01*
X627532Y1182032D01*
X629166Y1181355D01*
X630934D01*
X632568Y1182032D01*
X633818Y1183282D01*
X634495Y1184916D01*
Y1186684D01*
X633818Y1188318D01*
X632568Y1189568D01*
X630934Y1190245D01*
D02*
G37*
G36*
X129154Y1183005D02*
X127386D01*
X125752Y1182328D01*
X124502Y1181078D01*
X123825Y1179444D01*
Y1177676D01*
X124502Y1176042D01*
X125752Y1174792D01*
X127386Y1174115D01*
X129154D01*
X130788Y1174792D01*
X132038Y1176042D01*
X132715Y1177676D01*
Y1179444D01*
X132038Y1181078D01*
X130788Y1182328D01*
X129154Y1183005D01*
D02*
G37*
G36*
X767589Y1199696D02*
X764031D01*
X760593Y1198775D01*
X757511Y1196995D01*
X754995Y1194479D01*
X753215Y1191397D01*
X752294Y1187959D01*
Y1184401D01*
X753215Y1180963D01*
X754995Y1177881D01*
X757511Y1175365D01*
X760593Y1173585D01*
X764031Y1172664D01*
X767589D01*
X771027Y1173585D01*
X774109Y1175365D01*
X776626Y1177881D01*
X778405Y1180963D01*
X779326Y1184401D01*
Y1187959D01*
X778405Y1191397D01*
X776626Y1194479D01*
X774109Y1196995D01*
X771027Y1198775D01*
X767589Y1199696D01*
D02*
G37*
G36*
X639694Y1173605D02*
X637926D01*
X636292Y1172928D01*
X635042Y1171678D01*
X634365Y1170044D01*
Y1168276D01*
X635042Y1166642D01*
X636292Y1165392D01*
X637926Y1164715D01*
X639694D01*
X641328Y1165392D01*
X642578Y1166642D01*
X643255Y1168276D01*
Y1170044D01*
X642578Y1171678D01*
X641328Y1172928D01*
X639694Y1173605D01*
D02*
G37*
G36*
X652394Y1172335D02*
X650626D01*
X648992Y1171658D01*
X647742Y1170408D01*
X647065Y1168774D01*
Y1167006D01*
X647742Y1165372D01*
X648992Y1164122D01*
X650626Y1163445D01*
X652394D01*
X654028Y1164122D01*
X655278Y1165372D01*
X655955Y1167006D01*
Y1168774D01*
X655278Y1170408D01*
X654028Y1171658D01*
X652394Y1172335D01*
D02*
G37*
G36*
X91054Y1170305D02*
X89286D01*
X87652Y1169628D01*
X86402Y1168378D01*
X85725Y1166744D01*
Y1164976D01*
X86402Y1163342D01*
X87652Y1162092D01*
X89286Y1161415D01*
X91054D01*
X92688Y1162092D01*
X93938Y1163342D01*
X94615Y1164976D01*
Y1166744D01*
X93938Y1168378D01*
X92688Y1169628D01*
X91054Y1170305D01*
D02*
G37*
G36*
X129154Y1169035D02*
X127386D01*
X125752Y1168358D01*
X124502Y1167108D01*
X123825Y1165474D01*
Y1163706D01*
X124502Y1162072D01*
X125752Y1160822D01*
X127386Y1160145D01*
X129154D01*
X130788Y1160822D01*
X132038Y1162072D01*
X132715Y1163706D01*
Y1165474D01*
X132038Y1167108D01*
X130788Y1168358D01*
X129154Y1169035D01*
D02*
G37*
G36*
X79624D02*
X77856D01*
X76222Y1168358D01*
X74972Y1167108D01*
X74295Y1165474D01*
Y1163706D01*
X74972Y1162072D01*
X76222Y1160822D01*
X77856Y1160145D01*
X79624D01*
X81258Y1160822D01*
X82508Y1162072D01*
X83185Y1163706D01*
Y1165474D01*
X82508Y1167108D01*
X81258Y1168358D01*
X79624Y1169035D01*
D02*
G37*
G36*
X716000Y1168296D02*
X714020D01*
X712109Y1167784D01*
X710395Y1166794D01*
X708996Y1165395D01*
X708006Y1163681D01*
X707494Y1161769D01*
Y1159790D01*
X708006Y1157879D01*
X708996Y1156165D01*
X710395Y1154766D01*
X712109Y1153776D01*
X714020Y1153264D01*
X716000D01*
X717911Y1153776D01*
X719625Y1154766D01*
X721024Y1156165D01*
X722014Y1157879D01*
X722526Y1159790D01*
Y1161769D01*
X722014Y1163681D01*
X721024Y1165395D01*
X719625Y1166794D01*
X717911Y1167784D01*
X716000Y1168296D01*
D02*
G37*
G36*
X569949Y1167026D02*
X567971D01*
X566059Y1166514D01*
X564345Y1165524D01*
X562946Y1164125D01*
X561956Y1162411D01*
X561444Y1160499D01*
Y1158521D01*
X561956Y1156609D01*
X562946Y1154895D01*
X564345Y1153496D01*
X566059Y1152506D01*
X567971Y1151994D01*
X569949D01*
X571861Y1152506D01*
X573575Y1153496D01*
X574974Y1154895D01*
X575964Y1156609D01*
X576476Y1158521D01*
Y1160499D01*
X575964Y1162411D01*
X574974Y1164125D01*
X573575Y1165524D01*
X571861Y1166514D01*
X569949Y1167026D01*
D02*
G37*
G36*
X493750D02*
X491771D01*
X489859Y1166514D01*
X488145Y1165524D01*
X486746Y1164125D01*
X485756Y1162411D01*
X485244Y1160499D01*
Y1158521D01*
X485756Y1156609D01*
X486746Y1154895D01*
X488145Y1153496D01*
X489859Y1152506D01*
X491771Y1151994D01*
X493750D01*
X495661Y1152506D01*
X497375Y1153496D01*
X498774Y1154895D01*
X499764Y1156609D01*
X500276Y1158521D01*
Y1160499D01*
X499764Y1162411D01*
X498774Y1164125D01*
X497375Y1165524D01*
X495661Y1166514D01*
X493750Y1167026D01*
D02*
G37*
G36*
X716000Y1142896D02*
X714020D01*
X712109Y1142384D01*
X710395Y1141394D01*
X708996Y1139995D01*
X708006Y1138281D01*
X707494Y1136369D01*
Y1134390D01*
X708006Y1132479D01*
X708996Y1130765D01*
X710395Y1129366D01*
X712109Y1128376D01*
X714020Y1127864D01*
X716000D01*
X717911Y1128376D01*
X719625Y1129366D01*
X721024Y1130765D01*
X722014Y1132479D01*
X722526Y1134390D01*
Y1136369D01*
X722014Y1138281D01*
X721024Y1139995D01*
X719625Y1141394D01*
X717911Y1142384D01*
X716000Y1142896D01*
D02*
G37*
G36*
X255734Y1307045D02*
X253966D01*
X252332Y1306368D01*
X251082Y1305118D01*
X250405Y1303484D01*
Y1301716D01*
X251082Y1300082D01*
X252332Y1298832D01*
X253724Y1298255D01*
X253804Y1298174D01*
Y1162551D01*
X253662Y1162408D01*
X252985Y1160774D01*
Y1159006D01*
X253662Y1157372D01*
X253804Y1157230D01*
Y1117452D01*
X250758Y1114406D01*
X240620D01*
X240478Y1114548D01*
X238844Y1115225D01*
X237076D01*
X235442Y1114548D01*
X234192Y1113298D01*
X233515Y1111664D01*
Y1109896D01*
X234119Y1108437D01*
Y1029805D01*
X234119Y1029805D01*
X234395Y1028418D01*
X235181Y1027241D01*
X261645Y1000778D01*
Y1000576D01*
X262322Y998942D01*
X262464Y998800D01*
Y959742D01*
X258698Y955976D01*
X249280D01*
X249138Y956118D01*
X247504Y956795D01*
X245736D01*
X244102Y956118D01*
X242852Y954868D01*
X242175Y953234D01*
Y951466D01*
X242779Y950007D01*
Y862225D01*
X242779Y862225D01*
X243055Y860837D01*
X243841Y859661D01*
X262175Y841328D01*
Y841126D01*
X262852Y839492D01*
X262994Y839350D01*
Y798982D01*
X260538Y796526D01*
X249811D01*
X249668Y796668D01*
X249398Y796780D01*
X248957Y798337D01*
X249271Y798771D01*
X252915D01*
X254306Y798195D01*
X256074D01*
X257708Y798872D01*
X258958Y800122D01*
X259635Y801756D01*
Y803524D01*
X258958Y805158D01*
X258816Y805301D01*
Y814704D01*
X258816Y814704D01*
X258540Y816091D01*
X257754Y817268D01*
X231717Y843304D01*
X230541Y844090D01*
X229154Y844366D01*
X229154Y844366D01*
X228752D01*
X213915Y859202D01*
Y859404D01*
X213238Y861038D01*
X213096Y861180D01*
Y931868D01*
X239692Y958464D01*
X251999D01*
X252142Y958322D01*
X253776Y957645D01*
X255544D01*
X257178Y958322D01*
X258428Y959572D01*
X259105Y961206D01*
Y962974D01*
X258428Y964608D01*
X258286Y964751D01*
Y983590D01*
X258010Y984977D01*
X257224Y986154D01*
X257224Y986154D01*
X222844Y1020534D01*
X221667Y1021320D01*
X220280Y1021596D01*
X220280Y1021596D01*
X212566D01*
Y1096438D01*
X233022Y1116894D01*
X243340D01*
X243482Y1116752D01*
X245116Y1116075D01*
X246884D01*
X248518Y1116752D01*
X249768Y1118002D01*
X250445Y1119636D01*
Y1121404D01*
X249768Y1123038D01*
X249626Y1123180D01*
Y1132584D01*
X249626Y1132584D01*
X249350Y1133971D01*
X248564Y1135147D01*
X219997Y1163714D01*
X218821Y1164500D01*
X217433Y1164776D01*
X217433Y1164776D01*
X217031D01*
X204725Y1177083D01*
Y1177284D01*
X204048Y1178918D01*
X202798Y1180168D01*
X201407Y1180745D01*
X197301Y1184850D01*
Y1256321D01*
X197301Y1256321D01*
X197025Y1257709D01*
X196239Y1258885D01*
X196239Y1258885D01*
X191135Y1263989D01*
Y1264534D01*
X190458Y1266168D01*
X189208Y1267418D01*
X187574Y1268095D01*
X185806D01*
X184172Y1267418D01*
X182922Y1266168D01*
X182268Y1264590D01*
X182245Y1264600D01*
X171450D01*
X170672Y1264278D01*
X170350Y1263500D01*
Y1189727D01*
X169794Y1189355D01*
X168026D01*
X166392Y1188678D01*
X165142Y1187428D01*
X164465Y1185794D01*
Y1184026D01*
X165142Y1182392D01*
X166392Y1181142D01*
X168026Y1180465D01*
X169794D01*
X170350Y1180093D01*
Y1141730D01*
X170672Y1140952D01*
X181409Y1130216D01*
X181610Y1130132D01*
X181764Y1129978D01*
X181984Y1129978D01*
X182187Y1129894D01*
X183360Y1129780D01*
X183934Y1128394D01*
X184995Y1127334D01*
X186380Y1126760D01*
X186494Y1125587D01*
X186578Y1125384D01*
X186578Y1125164D01*
X186732Y1125010D01*
X186816Y1124809D01*
X190670Y1120955D01*
Y1046936D01*
X183372Y1039638D01*
X183050Y1038860D01*
X183050Y975360D01*
X183372Y974582D01*
X194480Y963475D01*
Y893266D01*
X182102Y880888D01*
X181780Y880110D01*
X181780Y825500D01*
X182102Y824722D01*
X192582Y814243D01*
X192853Y814131D01*
X192550Y813400D01*
Y811900D01*
X193124Y810515D01*
X194184Y809454D01*
X194640Y809265D01*
X194480Y808880D01*
Y733245D01*
X179562Y718328D01*
X179240Y717550D01*
Y681990D01*
X179562Y681212D01*
X191880Y668894D01*
X191842Y667605D01*
X191724Y667556D01*
X190664Y666496D01*
X190090Y665110D01*
Y663610D01*
X190664Y662225D01*
X191724Y661164D01*
X191855Y661110D01*
X191961Y660758D01*
X191983Y660647D01*
X191940Y660543D01*
Y655177D01*
X191983Y655073D01*
X191961Y654962D01*
X191855Y654610D01*
X191724Y654556D01*
X190664Y653495D01*
X190090Y652110D01*
Y650610D01*
X190664Y649224D01*
X191724Y648164D01*
X191855Y648110D01*
X191961Y647758D01*
X191983Y647647D01*
X191940Y647543D01*
Y400050D01*
Y370840D01*
X192097Y370462D01*
X192244Y370082D01*
X229024Y331462D01*
X303392Y253376D01*
X303392Y253376D01*
X304403Y252315D01*
X304484Y252279D01*
X304528Y252202D01*
X305223Y251679D01*
X305365Y250863D01*
X305367Y250760D01*
X305104Y249778D01*
Y248062D01*
X305548Y246405D01*
X306406Y244919D01*
X307619Y243706D01*
X309105Y242848D01*
X310762Y242404D01*
X312478D01*
X313061Y242560D01*
X313159Y242560D01*
X313402Y242532D01*
X314480Y241744D01*
X314540Y241709D01*
X314564Y241645D01*
X388288Y164235D01*
X388494Y164143D01*
X388652Y163982D01*
X388864Y163979D01*
X389058Y163894D01*
X390264Y163303D01*
Y157854D01*
X395023D01*
X395567Y157317D01*
X395896Y156713D01*
X395977Y156503D01*
X395974Y156278D01*
X396123Y156126D01*
X396199Y155928D01*
X471644Y76712D01*
X471657Y76706D01*
X471662Y76692D01*
X472040Y76536D01*
X472413Y76371D01*
X472427Y76376D01*
X472440Y76370D01*
X517606D01*
X517780Y76110D01*
Y74610D01*
X518354Y73225D01*
X519414Y72164D01*
X520800Y71590D01*
X522300D01*
X523685Y72164D01*
X524746Y73225D01*
X525320Y74610D01*
Y76110D01*
X525494Y76370D01*
X528606D01*
X528780Y76110D01*
Y74610D01*
X529354Y73225D01*
X530415Y72164D01*
X531800Y71590D01*
X533300D01*
X534686Y72164D01*
X535746Y73225D01*
X536320Y74610D01*
Y76110D01*
X536494Y76370D01*
X591766D01*
X591870Y76413D01*
X591981Y76391D01*
X592248Y76570D01*
X592544Y76692D01*
X593117Y76773D01*
X594030Y76593D01*
X594382Y76242D01*
X596016Y75565D01*
X597784D01*
X599418Y76242D01*
X599770Y76593D01*
X600083Y76655D01*
X601256Y76692D01*
X601819Y76391D01*
X601930Y76413D01*
X602034Y76370D01*
X602441Y76370D01*
X647254D01*
X647907Y75281D01*
X647144Y73854D01*
X646171Y70646D01*
X645842Y67311D01*
Y67309D01*
X646171Y63974D01*
X647144Y60766D01*
X648724Y57811D01*
X650850Y55219D01*
X653441Y53093D01*
X656397Y51513D01*
X659604Y50540D01*
X662940Y50212D01*
X666276Y50540D01*
X669483Y51513D01*
X672439Y53093D01*
X675030Y55219D01*
X677156Y57811D01*
X678736Y60766D01*
X679709Y63974D01*
X680038Y67309D01*
Y67311D01*
X679709Y70646D01*
X678736Y73854D01*
X677973Y75281D01*
X678626Y76370D01*
X799780D01*
X800486Y75314D01*
X800191Y74602D01*
X799230Y69772D01*
Y64848D01*
X800191Y60018D01*
X802075Y55468D01*
X804811Y51373D01*
X808293Y47891D01*
X812388Y45155D01*
X816938Y43271D01*
X821768Y42310D01*
X826692D01*
X831522Y43271D01*
X836072Y45155D01*
X840167Y47891D01*
X843649Y51373D01*
X846385Y55468D01*
X848269Y60018D01*
X849230Y64848D01*
Y69772D01*
X848269Y74602D01*
X846385Y79152D01*
X843649Y83247D01*
X840167Y86729D01*
X836072Y89465D01*
X831522Y91349D01*
X826692Y92310D01*
X821768D01*
X819013Y91762D01*
X818388Y92933D01*
X869458Y144002D01*
X869780Y144780D01*
Y193040D01*
X869458Y193818D01*
X868680Y194140D01*
X841196D01*
X838978Y196358D01*
X838200Y196680D01*
X837422Y196358D01*
X797104Y156040D01*
X715465D01*
X708822Y162683D01*
X708967Y162828D01*
X710271Y165086D01*
X710946Y167606D01*
Y170214D01*
X710271Y172734D01*
X708967Y174992D01*
X707122Y176837D01*
X704864Y178141D01*
X702344Y178816D01*
X699736D01*
X697216Y178141D01*
X694958Y176837D01*
X694813Y176692D01*
X654001Y217504D01*
X654527Y218774D01*
X655176D01*
X657353Y219357D01*
X659304Y220483D01*
X660897Y222076D01*
X662023Y224028D01*
X662606Y226204D01*
Y228456D01*
X662023Y230632D01*
X660897Y232584D01*
X659304Y234177D01*
X657353Y235303D01*
X655176Y235886D01*
X652924D01*
X650748Y235303D01*
X648796Y234177D01*
X647204Y232584D01*
X646077Y230632D01*
X645494Y228456D01*
Y227807D01*
X644224Y227281D01*
X545930Y325575D01*
Y397891D01*
X547103Y398377D01*
X547197Y398284D01*
X549147Y397157D01*
X551324Y396574D01*
X553576D01*
X555752Y397157D01*
X557704Y398284D01*
X559296Y399877D01*
X560423Y401828D01*
X561006Y404004D01*
Y406256D01*
X560423Y408433D01*
X559296Y410383D01*
X557704Y411977D01*
X555752Y413103D01*
X553576Y413686D01*
X551324D01*
X549147Y413103D01*
X547197Y411977D01*
X547103Y411883D01*
X545930Y412369D01*
Y1070610D01*
X545608Y1071388D01*
X418608Y1198388D01*
X417830Y1198710D01*
X381455D01*
X315888Y1264278D01*
X315110Y1264600D01*
X261056D01*
Y1299676D01*
X261056Y1299676D01*
X260780Y1301064D01*
X259994Y1302240D01*
X259994Y1302240D01*
X259295Y1302939D01*
Y1303484D01*
X258618Y1305118D01*
X257368Y1306368D01*
X255734Y1307045D01*
D02*
G37*
G36*
X174074Y1115225D02*
X172306D01*
X170672Y1114548D01*
X169422Y1113298D01*
X168745Y1111664D01*
Y1109896D01*
X169422Y1108262D01*
X170672Y1107012D01*
X172306Y1106335D01*
X174074D01*
X175708Y1107012D01*
X176958Y1108262D01*
X177635Y1109896D01*
Y1111664D01*
X176958Y1113298D01*
X175708Y1114548D01*
X174074Y1115225D01*
D02*
G37*
G36*
X73954Y1103585D02*
X72186D01*
X70552Y1102908D01*
X69302Y1101658D01*
X68625Y1100024D01*
Y1098256D01*
X69302Y1096622D01*
X70552Y1095372D01*
X72186Y1094695D01*
X73954D01*
X75588Y1095372D01*
X76838Y1096622D01*
X77515Y1098256D01*
Y1100024D01*
X76838Y1101658D01*
X75588Y1102908D01*
X73954Y1103585D01*
D02*
G37*
G36*
X139314Y1090295D02*
X137546D01*
X135912Y1089618D01*
X134662Y1088368D01*
X133985Y1086734D01*
Y1084966D01*
X134662Y1083332D01*
X135912Y1082082D01*
X137546Y1081405D01*
X139314D01*
X140948Y1082082D01*
X142198Y1083332D01*
X142875Y1084966D01*
Y1086734D01*
X142198Y1088368D01*
X140948Y1089618D01*
X139314Y1090295D01*
D02*
G37*
G36*
X569949Y1090826D02*
X567971D01*
X566059Y1090314D01*
X564345Y1089324D01*
X562946Y1087925D01*
X561956Y1086211D01*
X561444Y1084299D01*
Y1082320D01*
X561956Y1080409D01*
X562946Y1078695D01*
X564345Y1077296D01*
X566059Y1076306D01*
X567971Y1075794D01*
X569949D01*
X571861Y1076306D01*
X573575Y1077296D01*
X574974Y1078695D01*
X575964Y1080409D01*
X576476Y1082320D01*
Y1084299D01*
X575964Y1086211D01*
X574974Y1087925D01*
X573575Y1089324D01*
X571861Y1090314D01*
X569949Y1090826D01*
D02*
G37*
G36*
X108834Y1082675D02*
X107066D01*
X105432Y1081998D01*
X104182Y1080748D01*
X103505Y1079114D01*
Y1077346D01*
X104182Y1075712D01*
X105432Y1074462D01*
X107066Y1073785D01*
X108834D01*
X110468Y1074462D01*
X111718Y1075712D01*
X112395Y1077346D01*
Y1079114D01*
X111718Y1080748D01*
X110468Y1081998D01*
X108834Y1082675D01*
D02*
G37*
G36*
X87244Y1081405D02*
X85476D01*
X83842Y1080728D01*
X82592Y1079478D01*
X81915Y1077844D01*
Y1076076D01*
X82592Y1074442D01*
X83842Y1073192D01*
X85476Y1072515D01*
X87244D01*
X88878Y1073192D01*
X90128Y1074442D01*
X90805Y1076076D01*
Y1077844D01*
X90128Y1079478D01*
X88878Y1080728D01*
X87244Y1081405D01*
D02*
G37*
G36*
X767589Y1098096D02*
X764031D01*
X760593Y1097175D01*
X757511Y1095396D01*
X754995Y1092879D01*
X753215Y1089797D01*
X752294Y1086359D01*
Y1082801D01*
X753215Y1079363D01*
X754995Y1076281D01*
X757511Y1073764D01*
X760593Y1071985D01*
X764031Y1071064D01*
X767589D01*
X771027Y1071985D01*
X774109Y1073764D01*
X776626Y1076281D01*
X778405Y1079363D01*
X779326Y1082801D01*
Y1086359D01*
X778405Y1089797D01*
X776626Y1092879D01*
X774109Y1095396D01*
X771027Y1097175D01*
X767589Y1098096D01*
D02*
G37*
G36*
X178684Y1079625D02*
X176916D01*
X175282Y1078948D01*
X174032Y1077698D01*
X173355Y1076064D01*
Y1074296D01*
X174032Y1072662D01*
X175282Y1071412D01*
X176916Y1070735D01*
X178684D01*
X180318Y1071412D01*
X181568Y1072662D01*
X182245Y1074296D01*
Y1076064D01*
X181568Y1077698D01*
X180318Y1078948D01*
X178684Y1079625D01*
D02*
G37*
G36*
X98674Y1077595D02*
X96906D01*
X95272Y1076918D01*
X94022Y1075668D01*
X93345Y1074034D01*
Y1072266D01*
X94022Y1070632D01*
X95272Y1069382D01*
X96906Y1068705D01*
X98674D01*
X100308Y1069382D01*
X101558Y1070632D01*
X102235Y1072266D01*
Y1074034D01*
X101558Y1075668D01*
X100308Y1076918D01*
X98674Y1077595D01*
D02*
G37*
G36*
X122124Y1073195D02*
X120356D01*
X118722Y1072518D01*
X117472Y1071268D01*
X116795Y1069634D01*
Y1067866D01*
X117472Y1066232D01*
X118722Y1064982D01*
X120356Y1064305D01*
X122124D01*
X123758Y1064982D01*
X125008Y1066232D01*
X125685Y1067866D01*
Y1069634D01*
X125008Y1071268D01*
X123758Y1072518D01*
X122124Y1073195D01*
D02*
G37*
G36*
X172334Y1052195D02*
X170566D01*
X168932Y1051518D01*
X167682Y1050268D01*
X167005Y1048634D01*
Y1046866D01*
X167682Y1045232D01*
X168932Y1043982D01*
X170566Y1043305D01*
X172334D01*
X173968Y1043982D01*
X175218Y1045232D01*
X175895Y1046866D01*
Y1048634D01*
X175218Y1050268D01*
X173968Y1051518D01*
X172334Y1052195D01*
D02*
G37*
G36*
X222754Y1051305D02*
X220986D01*
X219352Y1050628D01*
X218102Y1049378D01*
X217425Y1047744D01*
Y1045976D01*
X218102Y1044342D01*
X219352Y1043092D01*
X220986Y1042415D01*
X222754D01*
X224388Y1043092D01*
X225638Y1044342D01*
X226315Y1045976D01*
Y1047744D01*
X225638Y1049378D01*
X224388Y1050628D01*
X222754Y1051305D01*
D02*
G37*
G36*
X77164Y1036875D02*
X75396D01*
X73762Y1036198D01*
X72512Y1034948D01*
X71835Y1033314D01*
Y1031546D01*
X72512Y1029912D01*
X73762Y1028662D01*
X75396Y1027985D01*
X77164D01*
X78798Y1028662D01*
X80048Y1029912D01*
X80725Y1031546D01*
Y1033314D01*
X80048Y1034948D01*
X78798Y1036198D01*
X77164Y1036875D01*
D02*
G37*
G36*
X226334Y1035115D02*
X224566D01*
X222932Y1034438D01*
X221682Y1033188D01*
X221005Y1031554D01*
Y1029786D01*
X221682Y1028152D01*
X222932Y1026902D01*
X224566Y1026225D01*
X226334D01*
X227968Y1026902D01*
X229218Y1028152D01*
X229895Y1029786D01*
Y1031554D01*
X229218Y1033188D01*
X227968Y1034438D01*
X226334Y1035115D01*
D02*
G37*
G36*
X121534Y1025525D02*
X119766D01*
X118132Y1024848D01*
X116882Y1023598D01*
X116205Y1021964D01*
Y1020196D01*
X116882Y1018562D01*
X118132Y1017312D01*
X119766Y1016635D01*
X121534D01*
X123168Y1017312D01*
X124418Y1018562D01*
X125095Y1020196D01*
Y1021964D01*
X124418Y1023598D01*
X123168Y1024848D01*
X121534Y1025525D01*
D02*
G37*
G36*
X633474Y1016765D02*
X631706D01*
X630072Y1016088D01*
X628822Y1014838D01*
X628145Y1013204D01*
Y1011436D01*
X628822Y1009802D01*
X630072Y1008552D01*
X631706Y1007875D01*
X633474D01*
X635108Y1008552D01*
X636358Y1009802D01*
X637035Y1011436D01*
Y1013204D01*
X636358Y1014838D01*
X635108Y1016088D01*
X633474Y1016765D01*
D02*
G37*
G36*
X767589Y1034596D02*
X764031D01*
X760593Y1033675D01*
X757511Y1031896D01*
X754995Y1029379D01*
X753215Y1026297D01*
X752294Y1022859D01*
Y1019301D01*
X753215Y1015863D01*
X754995Y1012781D01*
X757511Y1010265D01*
X760593Y1008485D01*
X764031Y1007564D01*
X767589D01*
X771027Y1008485D01*
X774109Y1010265D01*
X776626Y1012781D01*
X778405Y1015863D01*
X779326Y1019301D01*
Y1022859D01*
X778405Y1026297D01*
X776626Y1029379D01*
X774109Y1031896D01*
X771027Y1033675D01*
X767589Y1034596D01*
D02*
G37*
G36*
X83434Y1012825D02*
X81666D01*
X80032Y1012148D01*
X78782Y1010898D01*
X78105Y1009264D01*
Y1007496D01*
X78782Y1005862D01*
X80032Y1004612D01*
X81666Y1003935D01*
X83434D01*
X85068Y1004612D01*
X86318Y1005862D01*
X86995Y1007496D01*
Y1009264D01*
X86318Y1010898D01*
X85068Y1012148D01*
X83434Y1012825D01*
D02*
G37*
G36*
X157094Y1010285D02*
X155326D01*
X153692Y1009608D01*
X152442Y1008358D01*
X151765Y1006724D01*
Y1004956D01*
X152257Y1003769D01*
X151088Y1003278D01*
X150574Y1003792D01*
X149838Y1004528D01*
X148204Y1005205D01*
X146436D01*
X144802Y1004528D01*
X143552Y1003278D01*
X142875Y1001644D01*
Y999876D01*
X143545Y998259D01*
X143514Y998189D01*
X142808Y997190D01*
X141854Y997585D01*
X140086D01*
X138452Y996908D01*
X137202Y995658D01*
X136525Y994024D01*
Y992256D01*
X137202Y990622D01*
X138452Y989372D01*
X140086Y988695D01*
X141854D01*
X143488Y989372D01*
X144738Y990622D01*
X145415Y992256D01*
Y994024D01*
X144746Y995641D01*
X144776Y995711D01*
X145482Y996710D01*
X146436Y996315D01*
X148204D01*
X149838Y996992D01*
X151088Y998242D01*
X151765Y999876D01*
Y1001644D01*
X151273Y1002831D01*
X152442Y1003322D01*
X152956Y1002808D01*
X153692Y1002072D01*
X155326Y1001395D01*
X157094D01*
X158728Y1002072D01*
X159978Y1003322D01*
X160655Y1004956D01*
Y1006724D01*
X159978Y1008358D01*
X158728Y1009608D01*
X157094Y1010285D01*
D02*
G37*
G36*
X121534Y1011555D02*
X119766D01*
X118132Y1010878D01*
X116882Y1009628D01*
X116205Y1007994D01*
Y1006226D01*
X116882Y1004592D01*
X118132Y1003342D01*
X119766Y1002665D01*
X121534D01*
X123168Y1003342D01*
X124418Y1004592D01*
X125095Y1006226D01*
Y1007994D01*
X124418Y1009628D01*
X123168Y1010878D01*
X121534Y1011555D01*
D02*
G37*
G36*
X72004D02*
X70236D01*
X68602Y1010878D01*
X67352Y1009628D01*
X66675Y1007994D01*
Y1006226D01*
X67352Y1004592D01*
X68602Y1003342D01*
X70236Y1002665D01*
X72004D01*
X73638Y1003342D01*
X74888Y1004592D01*
X75565Y1006226D01*
Y1007994D01*
X74888Y1009628D01*
X73638Y1010878D01*
X72004Y1011555D01*
D02*
G37*
G36*
X642234Y1000125D02*
X640466D01*
X638832Y999448D01*
X637582Y998198D01*
X636905Y996564D01*
Y994796D01*
X637582Y993162D01*
X638832Y991912D01*
X640466Y991235D01*
X642234D01*
X643868Y991912D01*
X645118Y993162D01*
X645795Y994796D01*
Y996564D01*
X645118Y998198D01*
X643868Y999448D01*
X642234Y1000125D01*
D02*
G37*
G36*
X654934Y998855D02*
X653166D01*
X651532Y998178D01*
X650282Y996928D01*
X649605Y995294D01*
Y993526D01*
X650282Y991892D01*
X651532Y990642D01*
X653166Y989965D01*
X654934D01*
X656568Y990642D01*
X657818Y991892D01*
X658495Y993526D01*
Y995294D01*
X657818Y996928D01*
X656568Y998178D01*
X654934Y998855D01*
D02*
G37*
G36*
X716000Y1003196D02*
X714020D01*
X712109Y1002684D01*
X710395Y1001694D01*
X708996Y1000295D01*
X708006Y998581D01*
X707494Y996669D01*
Y994690D01*
X708006Y992779D01*
X708996Y991065D01*
X710395Y989666D01*
X712109Y988676D01*
X714020Y988164D01*
X716000D01*
X717911Y988676D01*
X719625Y989666D01*
X721024Y991065D01*
X722014Y992779D01*
X722526Y994690D01*
Y996669D01*
X722014Y998581D01*
X721024Y1000295D01*
X719625Y1001694D01*
X717911Y1002684D01*
X716000Y1003196D01*
D02*
G37*
G36*
Y977796D02*
X714020D01*
X712109Y977284D01*
X710395Y976294D01*
X708996Y974895D01*
X708006Y973181D01*
X707494Y971270D01*
Y969290D01*
X708006Y967379D01*
X708996Y965665D01*
X710395Y964266D01*
X712109Y963276D01*
X714020Y962764D01*
X716000D01*
X717911Y963276D01*
X719625Y964266D01*
X721024Y965665D01*
X722014Y967379D01*
X722526Y969290D01*
Y971270D01*
X722014Y973181D01*
X721024Y974895D01*
X719625Y976294D01*
X717911Y977284D01*
X716000Y977796D01*
D02*
G37*
G36*
X569949Y963826D02*
X567971D01*
X566059Y963314D01*
X564345Y962324D01*
X562946Y960925D01*
X561956Y959211D01*
X561444Y957299D01*
Y955321D01*
X561956Y953409D01*
X562946Y951695D01*
X564345Y950296D01*
X566059Y949306D01*
X567971Y948794D01*
X569949D01*
X571861Y949306D01*
X573575Y950296D01*
X574974Y951695D01*
X575964Y953409D01*
X576476Y955321D01*
Y957299D01*
X575964Y959211D01*
X574974Y960925D01*
X573575Y962324D01*
X571861Y963314D01*
X569949Y963826D01*
D02*
G37*
G36*
X182734Y956795D02*
X180966D01*
X179332Y956118D01*
X178082Y954868D01*
X177405Y953234D01*
Y951466D01*
X178082Y949832D01*
X179332Y948582D01*
X180966Y947905D01*
X182734D01*
X184368Y948582D01*
X185618Y949832D01*
X186295Y951466D01*
Y953234D01*
X185618Y954868D01*
X184368Y956118D01*
X182734Y956795D01*
D02*
G37*
G36*
X66334Y946105D02*
X64566D01*
X62932Y945428D01*
X61682Y944178D01*
X61005Y942544D01*
Y940776D01*
X61682Y939142D01*
X62932Y937892D01*
X64566Y937215D01*
X66334D01*
X67968Y937892D01*
X69218Y939142D01*
X69895Y940776D01*
Y942544D01*
X69218Y944178D01*
X67968Y945428D01*
X66334Y946105D01*
D02*
G37*
G36*
X143124Y935355D02*
X141356D01*
X139722Y934678D01*
X138472Y933428D01*
X137795Y931794D01*
Y930026D01*
X138472Y928392D01*
X139722Y927142D01*
X141356Y926465D01*
X143124D01*
X144758Y927142D01*
X146008Y928392D01*
X146685Y930026D01*
Y931794D01*
X146008Y933428D01*
X144758Y934678D01*
X143124Y935355D01*
D02*
G37*
G36*
X101214Y925195D02*
X99446D01*
X97812Y924518D01*
X96562Y923268D01*
X95885Y921634D01*
Y919866D01*
X96562Y918232D01*
X97812Y916982D01*
X99446Y916305D01*
X101214D01*
X102848Y916982D01*
X104098Y918232D01*
X104775Y919866D01*
Y921634D01*
X104098Y923268D01*
X102848Y924518D01*
X101214Y925195D01*
D02*
G37*
G36*
X79624Y923925D02*
X77856D01*
X76222Y923248D01*
X74972Y921998D01*
X74295Y920364D01*
Y918596D01*
X74972Y916962D01*
X76222Y915712D01*
X77856Y915035D01*
X79624D01*
X81258Y915712D01*
X82508Y916962D01*
X83185Y918596D01*
Y920364D01*
X82508Y921998D01*
X81258Y923248D01*
X79624Y923925D01*
D02*
G37*
G36*
X187344Y921195D02*
X185576D01*
X183942Y920518D01*
X182692Y919268D01*
X182015Y917634D01*
Y915866D01*
X182692Y914232D01*
X183942Y912982D01*
X185576Y912305D01*
X187344D01*
X188978Y912982D01*
X190228Y914232D01*
X190905Y915866D01*
Y917634D01*
X190228Y919268D01*
X188978Y920518D01*
X187344Y921195D01*
D02*
G37*
G36*
X91054Y920115D02*
X89286D01*
X87652Y919438D01*
X86402Y918188D01*
X85725Y916554D01*
Y914786D01*
X86402Y913152D01*
X87652Y911902D01*
X89286Y911225D01*
X91054D01*
X92688Y911902D01*
X93938Y913152D01*
X94615Y914786D01*
Y916554D01*
X93938Y918188D01*
X92688Y919438D01*
X91054Y920115D01*
D02*
G37*
G36*
X125934Y918255D02*
X124166D01*
X122532Y917578D01*
X121282Y916328D01*
X120605Y914694D01*
Y912926D01*
X121282Y911292D01*
X122532Y910042D01*
X124166Y909365D01*
X125934D01*
X127568Y910042D01*
X128818Y911292D01*
X129495Y912926D01*
Y914694D01*
X128818Y916328D01*
X127568Y917578D01*
X125934Y918255D01*
D02*
G37*
G36*
X767589Y932996D02*
X764031D01*
X760593Y932075D01*
X757511Y930295D01*
X754995Y927779D01*
X753215Y924697D01*
X752294Y921259D01*
Y917701D01*
X753215Y914263D01*
X754995Y911181D01*
X757511Y908664D01*
X760593Y906885D01*
X764031Y905964D01*
X767589D01*
X771027Y906885D01*
X774109Y908664D01*
X776626Y911181D01*
X778405Y914263D01*
X779326Y917701D01*
Y921259D01*
X778405Y924697D01*
X776626Y927779D01*
X774109Y930295D01*
X771027Y932075D01*
X767589Y932996D01*
D02*
G37*
G36*
X176144Y897255D02*
X174376D01*
X172742Y896578D01*
X171492Y895328D01*
X170815Y893694D01*
Y891926D01*
X171492Y890292D01*
X172742Y889042D01*
X174376Y888365D01*
X176144D01*
X177778Y889042D01*
X179028Y890292D01*
X179705Y891926D01*
Y893694D01*
X179028Y895328D01*
X177778Y896578D01*
X176144Y897255D01*
D02*
G37*
G36*
X231414Y892875D02*
X229646D01*
X228012Y892198D01*
X226762Y890948D01*
X226085Y889314D01*
Y887546D01*
X226762Y885912D01*
X228012Y884662D01*
X229646Y883985D01*
X231414D01*
X233048Y884662D01*
X234298Y885912D01*
X234975Y887546D01*
Y889314D01*
X234298Y890948D01*
X233048Y892198D01*
X231414Y892875D01*
D02*
G37*
G36*
X569949Y887626D02*
X567971D01*
X566059Y887114D01*
X564345Y886124D01*
X562946Y884725D01*
X561956Y883011D01*
X561444Y881099D01*
Y879120D01*
X561956Y877209D01*
X562946Y875495D01*
X564345Y874096D01*
X566059Y873106D01*
X567971Y872594D01*
X569949D01*
X571861Y873106D01*
X573575Y874096D01*
X574974Y875495D01*
X575964Y877209D01*
X576476Y879120D01*
Y881099D01*
X575964Y883011D01*
X574974Y884725D01*
X573575Y886124D01*
X571861Y887114D01*
X569949Y887626D01*
D02*
G37*
G36*
X78594Y881255D02*
X76826D01*
X75192Y880578D01*
X73942Y879328D01*
X73265Y877694D01*
Y875926D01*
X73942Y874292D01*
X75192Y873042D01*
X76826Y872365D01*
X78594D01*
X80228Y873042D01*
X81478Y874292D01*
X82155Y875926D01*
Y877694D01*
X81478Y879328D01*
X80228Y880578D01*
X78594Y881255D01*
D02*
G37*
G36*
X226864Y875665D02*
X225096D01*
X223462Y874988D01*
X222212Y873738D01*
X221535Y872104D01*
Y870336D01*
X222212Y868702D01*
X223462Y867452D01*
X225096Y866775D01*
X226864D01*
X228498Y867452D01*
X229748Y868702D01*
X230425Y870336D01*
Y872104D01*
X229748Y873738D01*
X228498Y874988D01*
X226864Y875665D01*
D02*
G37*
G36*
X122964Y869905D02*
X121196D01*
X119562Y869228D01*
X118312Y867978D01*
X117635Y866344D01*
Y864576D01*
X118312Y862942D01*
X119562Y861692D01*
X121196Y861015D01*
X122964D01*
X124598Y861692D01*
X125848Y862942D01*
X126525Y864576D01*
Y866344D01*
X125848Y867978D01*
X124598Y869228D01*
X122964Y869905D01*
D02*
G37*
G36*
X84864Y857205D02*
X83096D01*
X81462Y856528D01*
X80212Y855278D01*
X79535Y853644D01*
Y851876D01*
X80212Y850242D01*
X81462Y848992D01*
X83096Y848315D01*
X84864D01*
X86498Y848992D01*
X87748Y850242D01*
X88425Y851876D01*
Y853644D01*
X87748Y855278D01*
X86498Y856528D01*
X84864Y857205D01*
D02*
G37*
G36*
X122964Y855935D02*
X121196D01*
X119562Y855258D01*
X118312Y854008D01*
X117635Y852374D01*
Y850606D01*
X118312Y848972D01*
X119562Y847722D01*
X121196Y847045D01*
X122964D01*
X124598Y847722D01*
X125848Y848972D01*
X126525Y850606D01*
Y852374D01*
X125848Y854008D01*
X124598Y855258D01*
X122964Y855935D01*
D02*
G37*
G36*
X73434D02*
X71666D01*
X70032Y855258D01*
X68782Y854008D01*
X68105Y852374D01*
Y850606D01*
X68782Y848972D01*
X70032Y847722D01*
X71666Y847045D01*
X73434D01*
X75068Y847722D01*
X76318Y848972D01*
X76995Y850606D01*
Y852374D01*
X76318Y854008D01*
X75068Y855258D01*
X73434Y855935D01*
D02*
G37*
G36*
X160904Y855345D02*
X159136D01*
X157502Y854668D01*
X156252Y853418D01*
X155575Y851784D01*
Y850016D01*
X156252Y848382D01*
X157502Y847132D01*
X159136Y846455D01*
X160904D01*
X162538Y847132D01*
X163788Y848382D01*
X164465Y850016D01*
Y851784D01*
X163788Y853418D01*
X162538Y854668D01*
X160904Y855345D01*
D02*
G37*
G36*
X634744Y854965D02*
X632976D01*
X631342Y854288D01*
X630092Y853038D01*
X629415Y851404D01*
Y849636D01*
X630092Y848002D01*
X631342Y846752D01*
X632976Y846075D01*
X634744D01*
X636378Y846752D01*
X637628Y848002D01*
X638305Y849636D01*
Y851404D01*
X637628Y853038D01*
X636378Y854288D01*
X634744Y854965D01*
D02*
G37*
G36*
X767589Y869496D02*
X764031D01*
X760593Y868575D01*
X757511Y866796D01*
X754995Y864279D01*
X753215Y861197D01*
X752294Y857759D01*
Y854201D01*
X753215Y850763D01*
X754995Y847681D01*
X757511Y845164D01*
X760593Y843385D01*
X764031Y842464D01*
X767589D01*
X771027Y843385D01*
X774109Y845164D01*
X776626Y847681D01*
X778405Y850763D01*
X779326Y854201D01*
Y857759D01*
X778405Y861197D01*
X776626Y864279D01*
X774109Y866796D01*
X771027Y868575D01*
X767589Y869496D01*
D02*
G37*
G36*
X153284Y846455D02*
X151516D01*
X149882Y845778D01*
X148632Y844528D01*
X147955Y842894D01*
Y841126D01*
X148632Y839492D01*
X149882Y838242D01*
X151516Y837565D01*
X153284D01*
X154918Y838242D01*
X156168Y839492D01*
X156845Y841126D01*
Y842894D01*
X156168Y844528D01*
X154918Y845778D01*
X153284Y846455D01*
D02*
G37*
G36*
X643504Y838325D02*
X641736D01*
X640102Y837648D01*
X638852Y836398D01*
X638175Y834764D01*
Y832996D01*
X638852Y831362D01*
X640102Y830112D01*
X641736Y829435D01*
X643504D01*
X645138Y830112D01*
X646388Y831362D01*
X647065Y832996D01*
Y834764D01*
X646388Y836398D01*
X645138Y837648D01*
X643504Y838325D01*
D02*
G37*
G36*
X145664Y837565D02*
X143896D01*
X142262Y836888D01*
X141012Y835638D01*
X140335Y834004D01*
Y832236D01*
X141012Y830602D01*
X142262Y829352D01*
X143896Y828675D01*
X145664D01*
X147298Y829352D01*
X148548Y830602D01*
X149225Y832236D01*
Y834004D01*
X148548Y835638D01*
X147298Y836888D01*
X145664Y837565D01*
D02*
G37*
G36*
X656204Y837055D02*
X654436D01*
X652802Y836378D01*
X651552Y835128D01*
X650875Y833494D01*
Y831726D01*
X651552Y830092D01*
X652802Y828842D01*
X654436Y828165D01*
X656204D01*
X657838Y828842D01*
X659088Y830092D01*
X659765Y831726D01*
Y833494D01*
X659088Y835128D01*
X657838Y836378D01*
X656204Y837055D01*
D02*
G37*
G36*
X716000Y838096D02*
X714020D01*
X712109Y837584D01*
X710395Y836594D01*
X708996Y835195D01*
X708006Y833481D01*
X707494Y831570D01*
Y829591D01*
X708006Y827679D01*
X708996Y825965D01*
X710395Y824566D01*
X712109Y823576D01*
X714020Y823064D01*
X716000D01*
X717911Y823576D01*
X719625Y824566D01*
X721024Y825965D01*
X722014Y827679D01*
X722526Y829591D01*
Y831570D01*
X722014Y833481D01*
X721024Y835195D01*
X719625Y836594D01*
X717911Y837584D01*
X716000Y838096D01*
D02*
G37*
G36*
Y812696D02*
X714020D01*
X712109Y812184D01*
X710395Y811194D01*
X708996Y809795D01*
X708006Y808081D01*
X707494Y806170D01*
Y804191D01*
X708006Y802279D01*
X708996Y800565D01*
X710395Y799166D01*
X712109Y798176D01*
X714020Y797664D01*
X716000D01*
X717911Y798176D01*
X719625Y799166D01*
X721024Y800565D01*
X722014Y802279D01*
X722526Y804191D01*
Y806170D01*
X722014Y808081D01*
X721024Y809795D01*
X719625Y811194D01*
X717911Y812184D01*
X716000Y812696D01*
D02*
G37*
G36*
X183264Y797345D02*
X181496D01*
X179862Y796668D01*
X178612Y795418D01*
X177935Y793784D01*
Y792016D01*
X178612Y790382D01*
X179862Y789132D01*
X181496Y788455D01*
X183264D01*
X184898Y789132D01*
X186148Y790382D01*
X186825Y792016D01*
Y793784D01*
X186148Y795418D01*
X184898Y796668D01*
X183264Y797345D01*
D02*
G37*
G36*
X67764Y790485D02*
X65996D01*
X64362Y789808D01*
X63112Y788558D01*
X62435Y786924D01*
Y785156D01*
X63112Y783522D01*
X64362Y782272D01*
X65996Y781595D01*
X67764D01*
X69398Y782272D01*
X70648Y783522D01*
X71325Y785156D01*
Y786924D01*
X70648Y788558D01*
X69398Y789808D01*
X67764Y790485D01*
D02*
G37*
G36*
X144394Y776605D02*
X142626D01*
X140992Y775928D01*
X139742Y774678D01*
X139065Y773044D01*
Y771276D01*
X139742Y769642D01*
X140992Y768392D01*
X142626Y767715D01*
X144394D01*
X146028Y768392D01*
X147278Y769642D01*
X147955Y771276D01*
Y773044D01*
X147278Y774678D01*
X146028Y775928D01*
X144394Y776605D01*
D02*
G37*
G36*
X102644Y769575D02*
X100876D01*
X99242Y768898D01*
X97992Y767648D01*
X97315Y766014D01*
Y764246D01*
X97992Y762612D01*
X99242Y761362D01*
X100876Y760685D01*
X102644D01*
X104278Y761362D01*
X105528Y762612D01*
X106205Y764246D01*
Y766014D01*
X105528Y767648D01*
X104278Y768898D01*
X102644Y769575D01*
D02*
G37*
G36*
X81054Y768305D02*
X79286D01*
X77652Y767628D01*
X76402Y766378D01*
X75725Y764744D01*
Y762976D01*
X76402Y761342D01*
X77652Y760092D01*
X79286Y759415D01*
X81054D01*
X82688Y760092D01*
X83938Y761342D01*
X84615Y762976D01*
Y764744D01*
X83938Y766378D01*
X82688Y767628D01*
X81054Y768305D01*
D02*
G37*
G36*
X92484Y764495D02*
X90716D01*
X89082Y763818D01*
X87832Y762568D01*
X87155Y760934D01*
Y759166D01*
X87832Y757532D01*
X89082Y756282D01*
X90716Y755605D01*
X92484D01*
X94118Y756282D01*
X95368Y757532D01*
X96045Y759166D01*
Y760934D01*
X95368Y762568D01*
X94118Y763818D01*
X92484Y764495D01*
D02*
G37*
G36*
X187874Y761745D02*
X186106D01*
X184472Y761068D01*
X183222Y759818D01*
X182545Y758184D01*
Y756416D01*
X183222Y754782D01*
X184472Y753532D01*
X186106Y752855D01*
X187874D01*
X189508Y753532D01*
X190758Y754782D01*
X191435Y756416D01*
Y758184D01*
X190758Y759818D01*
X189508Y761068D01*
X187874Y761745D01*
D02*
G37*
G36*
X127204Y759505D02*
X125436D01*
X123802Y758828D01*
X122552Y757578D01*
X121875Y755944D01*
Y754176D01*
X122552Y752542D01*
X123802Y751292D01*
X125436Y750615D01*
X127204D01*
X128838Y751292D01*
X130088Y752542D01*
X130765Y754176D01*
Y755944D01*
X130088Y757578D01*
X128838Y758828D01*
X127204Y759505D01*
D02*
G37*
G36*
X569949Y760626D02*
X567971D01*
X566059Y760114D01*
X564345Y759124D01*
X562946Y757725D01*
X561956Y756011D01*
X561444Y754100D01*
Y752121D01*
X561956Y750209D01*
X562946Y748495D01*
X564345Y747096D01*
X566059Y746106D01*
X567971Y745594D01*
X569949D01*
X571861Y746106D01*
X573575Y747096D01*
X574974Y748495D01*
X575964Y750209D01*
X576476Y752121D01*
Y754100D01*
X575964Y756011D01*
X574974Y757725D01*
X573575Y759124D01*
X571861Y760114D01*
X569949Y760626D01*
D02*
G37*
G36*
X767589Y767896D02*
X764031D01*
X760593Y766975D01*
X757511Y765195D01*
X754995Y762679D01*
X753215Y759597D01*
X752294Y756159D01*
Y752601D01*
X753215Y749163D01*
X754995Y746081D01*
X757511Y743565D01*
X760593Y741785D01*
X764031Y740864D01*
X767589D01*
X771027Y741785D01*
X774109Y743565D01*
X776626Y746081D01*
X778405Y749163D01*
X779326Y752601D01*
Y756159D01*
X778405Y759597D01*
X776626Y762679D01*
X774109Y765195D01*
X771027Y766975D01*
X767589Y767896D01*
D02*
G37*
G36*
X177414Y738505D02*
X175646D01*
X174012Y737828D01*
X172762Y736578D01*
X172085Y734944D01*
Y733176D01*
X172762Y731542D01*
X174012Y730292D01*
X175646Y729615D01*
X177414D01*
X179048Y730292D01*
X180298Y731542D01*
X180975Y733176D01*
Y734944D01*
X180298Y736578D01*
X179048Y737828D01*
X177414Y738505D01*
D02*
G37*
G36*
X80894Y721235D02*
X79126D01*
X77492Y720558D01*
X76242Y719308D01*
X75565Y717674D01*
Y715906D01*
X76242Y714272D01*
X77492Y713022D01*
X79126Y712345D01*
X80894D01*
X82528Y713022D01*
X83778Y714272D01*
X84455Y715906D01*
Y717674D01*
X83778Y719308D01*
X82528Y720558D01*
X80894Y721235D01*
D02*
G37*
G36*
X125264Y709885D02*
X123496D01*
X121862Y709208D01*
X120612Y707958D01*
X119935Y706324D01*
Y704556D01*
X120612Y702922D01*
X121862Y701672D01*
X123496Y700995D01*
X125264D01*
X126898Y701672D01*
X128148Y702922D01*
X128825Y704556D01*
Y706324D01*
X128148Y707958D01*
X126898Y709208D01*
X125264Y709885D01*
D02*
G37*
G36*
X87164Y697185D02*
X85396D01*
X83762Y696508D01*
X82512Y695258D01*
X81835Y693624D01*
Y691856D01*
X82512Y690222D01*
X83762Y688972D01*
X85396Y688295D01*
X87164D01*
X88798Y688972D01*
X90048Y690222D01*
X90725Y691856D01*
Y693624D01*
X90048Y695258D01*
X88798Y696508D01*
X87164Y697185D01*
D02*
G37*
G36*
X160904Y696595D02*
X159136D01*
X157502Y695918D01*
X156252Y694668D01*
X155575Y693034D01*
Y691266D01*
X156252Y689632D01*
X157502Y688382D01*
X159136Y687705D01*
X160904D01*
X162538Y688382D01*
X163788Y689632D01*
X164465Y691266D01*
Y693034D01*
X163788Y694668D01*
X162538Y695918D01*
X160904Y696595D01*
D02*
G37*
G36*
X125264Y695915D02*
X123496D01*
X121862Y695238D01*
X120612Y693988D01*
X119935Y692354D01*
Y690586D01*
X120612Y688952D01*
X121862Y687702D01*
X123496Y687025D01*
X125264D01*
X126898Y687702D01*
X128148Y688952D01*
X128825Y690586D01*
Y692354D01*
X128148Y693988D01*
X126898Y695238D01*
X125264Y695915D01*
D02*
G37*
G36*
X75734D02*
X73966D01*
X72332Y695238D01*
X71082Y693988D01*
X70405Y692354D01*
Y690586D01*
X71082Y688952D01*
X72332Y687702D01*
X73966Y687025D01*
X75734D01*
X77368Y687702D01*
X78618Y688952D01*
X79295Y690586D01*
Y692354D01*
X78618Y693988D01*
X77368Y695238D01*
X75734Y695915D01*
D02*
G37*
G36*
X634744Y690255D02*
X632976D01*
X631342Y689578D01*
X630092Y688328D01*
X629415Y686694D01*
Y684926D01*
X630092Y683292D01*
X631342Y682042D01*
X632976Y681365D01*
X634744D01*
X636378Y682042D01*
X637628Y683292D01*
X638305Y684926D01*
Y686694D01*
X637628Y688328D01*
X636378Y689578D01*
X634744Y690255D01*
D02*
G37*
G36*
X767589Y704396D02*
X764031D01*
X760593Y703475D01*
X757511Y701695D01*
X754995Y699179D01*
X753215Y696097D01*
X752294Y692659D01*
Y689101D01*
X753215Y685663D01*
X754995Y682581D01*
X757511Y680064D01*
X760593Y678285D01*
X764031Y677364D01*
X767589D01*
X771027Y678285D01*
X774109Y680064D01*
X776626Y682581D01*
X778405Y685663D01*
X779326Y689101D01*
Y692659D01*
X778405Y696097D01*
X776626Y699179D01*
X774109Y701695D01*
X771027Y703475D01*
X767589Y704396D01*
D02*
G37*
G36*
X157094Y685165D02*
X155326D01*
X153692Y684488D01*
X152442Y683238D01*
X151765Y681604D01*
Y679836D01*
X152442Y678202D01*
X153692Y676952D01*
X155326Y676275D01*
X157094D01*
X158728Y676952D01*
X159978Y678202D01*
X160655Y679836D01*
Y681604D01*
X159978Y683238D01*
X158728Y684488D01*
X157094Y685165D01*
D02*
G37*
G36*
X569949Y684426D02*
X567971D01*
X566059Y683914D01*
X564345Y682924D01*
X562946Y681525D01*
X561956Y679811D01*
X561444Y677899D01*
Y675920D01*
X561956Y674009D01*
X562946Y672295D01*
X564345Y670896D01*
X566059Y669906D01*
X567971Y669394D01*
X569949D01*
X571861Y669906D01*
X573575Y670896D01*
X574974Y672295D01*
X575964Y674009D01*
X576476Y675920D01*
Y677899D01*
X575964Y679811D01*
X574974Y681525D01*
X573575Y682924D01*
X571861Y683914D01*
X569949Y684426D01*
D02*
G37*
G36*
X150744Y676275D02*
X148976D01*
X147342Y675598D01*
X146092Y674348D01*
X145415Y672714D01*
Y670946D01*
X146092Y669312D01*
X147342Y668062D01*
X148976Y667385D01*
X150744D01*
X152378Y668062D01*
X153628Y669312D01*
X154305Y670946D01*
Y672714D01*
X153628Y674348D01*
X152378Y675598D01*
X150744Y676275D01*
D02*
G37*
G36*
X643504Y673615D02*
X641736D01*
X640102Y672938D01*
X638852Y671688D01*
X638175Y670054D01*
Y668286D01*
X638852Y666652D01*
X640102Y665402D01*
X641736Y664725D01*
X643504D01*
X645138Y665402D01*
X646388Y666652D01*
X647065Y668286D01*
Y670054D01*
X646388Y671688D01*
X645138Y672938D01*
X643504Y673615D01*
D02*
G37*
G36*
X656204Y672345D02*
X654436D01*
X652802Y671668D01*
X651552Y670418D01*
X650875Y668784D01*
Y667016D01*
X651552Y665382D01*
X652802Y664132D01*
X654436Y663455D01*
X656204D01*
X657838Y664132D01*
X659088Y665382D01*
X659765Y667016D01*
Y668784D01*
X659088Y670418D01*
X657838Y671668D01*
X656204Y672345D01*
D02*
G37*
G36*
X716000Y672996D02*
X714020D01*
X712109Y672484D01*
X710395Y671494D01*
X708996Y670095D01*
X708006Y668381D01*
X707494Y666469D01*
Y664491D01*
X708006Y662579D01*
X708996Y660865D01*
X710395Y659466D01*
X712109Y658476D01*
X714020Y657964D01*
X716000D01*
X717911Y658476D01*
X719625Y659466D01*
X721024Y660865D01*
X722014Y662579D01*
X722526Y664491D01*
Y666469D01*
X722014Y668381D01*
X721024Y670095D01*
X719625Y671494D01*
X717911Y672484D01*
X716000Y672996D01*
D02*
G37*
G36*
Y647596D02*
X714020D01*
X712109Y647084D01*
X710395Y646094D01*
X708996Y644695D01*
X708006Y642981D01*
X707494Y641069D01*
Y639090D01*
X708006Y637179D01*
X708996Y635465D01*
X710395Y634066D01*
X712109Y633076D01*
X714020Y632564D01*
X716000D01*
X717911Y633076D01*
X719625Y634066D01*
X721024Y635465D01*
X722014Y637179D01*
X722526Y639090D01*
Y641069D01*
X722014Y642981D01*
X721024Y644695D01*
X719625Y646094D01*
X717911Y647084D01*
X716000Y647596D01*
D02*
G37*
G36*
X680720Y1229190D02*
X626110D01*
X625332Y1228868D01*
X622792Y1226328D01*
X622470Y1225550D01*
Y1203960D01*
X622792Y1203182D01*
X623570Y1202860D01*
X626328D01*
X626854Y1201590D01*
X626152Y1200888D01*
X625475Y1199254D01*
Y1197486D01*
X626152Y1195852D01*
X627402Y1194602D01*
X629036Y1193925D01*
X630804D01*
X632438Y1194602D01*
X633688Y1195852D01*
X634365Y1197486D01*
Y1199254D01*
X633688Y1200888D01*
X632986Y1201590D01*
X633512Y1202860D01*
X637085D01*
X672000Y1167944D01*
Y1149806D01*
X625332Y1103138D01*
X625010Y1102360D01*
Y1029970D01*
X625332Y1029192D01*
X626110Y1028870D01*
X628358D01*
X628884Y1027600D01*
X628692Y1027408D01*
X628015Y1025774D01*
Y1024006D01*
X628692Y1022372D01*
X629942Y1021122D01*
X631576Y1020445D01*
X633344D01*
X634978Y1021122D01*
X636228Y1022372D01*
X636905Y1024006D01*
Y1025774D01*
X636228Y1027408D01*
X636036Y1027600D01*
X636562Y1028870D01*
X638354D01*
X675810Y991414D01*
Y974546D01*
X626602Y925338D01*
X626280Y924560D01*
Y868680D01*
X626602Y867902D01*
X627380Y867580D01*
X630138D01*
X630664Y866310D01*
X629962Y865608D01*
X629285Y863974D01*
Y862206D01*
X629962Y860572D01*
X631212Y859322D01*
X632846Y858645D01*
X634614D01*
X636248Y859322D01*
X637498Y860572D01*
X638175Y862206D01*
Y863974D01*
X637498Y865608D01*
X636796Y866310D01*
X637322Y867580D01*
X640894D01*
X677080Y831395D01*
Y813255D01*
X626602Y762778D01*
X626280Y762000D01*
Y703580D01*
X626602Y702802D01*
X627380Y702480D01*
X629748D01*
X630274Y701210D01*
X629962Y700898D01*
X629285Y699264D01*
Y697496D01*
X629962Y695862D01*
X631212Y694612D01*
X632846Y693935D01*
X634614D01*
X636248Y694612D01*
X637498Y695862D01*
X638175Y697496D01*
Y699264D01*
X637498Y700898D01*
X637186Y701210D01*
X637712Y702480D01*
X652325D01*
X674540Y680265D01*
Y650695D01*
X647244Y623400D01*
X633730D01*
X632952Y623078D01*
X632630Y622300D01*
Y570230D01*
X632952Y569452D01*
X644382Y558022D01*
X645160Y557700D01*
X707390D01*
X708168Y558022D01*
X717058Y566912D01*
X717380Y567690D01*
Y619760D01*
X717058Y620538D01*
X711978Y625618D01*
X711200Y625940D01*
X673100D01*
X672322Y625618D01*
X670390Y623685D01*
X669120Y624211D01*
Y630298D01*
X670029Y631086D01*
X671291Y630806D01*
X671492Y630322D01*
X672742Y629072D01*
X674376Y628395D01*
X676144D01*
X677778Y629072D01*
X679028Y630322D01*
X679705Y631956D01*
Y632158D01*
X699414Y651866D01*
X699414Y651866D01*
X700200Y653043D01*
X700476Y654430D01*
X700476Y654430D01*
Y717690D01*
X700618Y717832D01*
X701295Y719466D01*
Y721234D01*
X700618Y722868D01*
X700476Y723010D01*
Y882400D01*
X700618Y882542D01*
X701295Y884176D01*
Y885944D01*
X700618Y887578D01*
X700476Y887720D01*
Y1045246D01*
X700476Y1045246D01*
X700200Y1046634D01*
X700025Y1046895D01*
Y1047744D01*
X699348Y1049378D01*
X699206Y1049520D01*
Y1217456D01*
X698930Y1218844D01*
X698144Y1220020D01*
X698144Y1220020D01*
X697485Y1220679D01*
Y1221224D01*
X696808Y1222858D01*
X695558Y1224108D01*
X693924Y1224785D01*
X692156D01*
X690522Y1224108D01*
X689272Y1222858D01*
X688595Y1221224D01*
Y1219456D01*
X689272Y1217822D01*
X690522Y1216572D01*
X691914Y1215995D01*
X691954Y1215955D01*
Y1201020D01*
X690781Y1200534D01*
X681820Y1209495D01*
Y1228090D01*
X681498Y1228868D01*
X680720Y1229190D01*
D02*
G37*
G36*
X180804Y636055D02*
X179036D01*
X177402Y635378D01*
X176152Y634128D01*
X175475Y632494D01*
Y630726D01*
X176152Y629092D01*
X177402Y627842D01*
X179036Y627165D01*
X180804D01*
X182438Y627842D01*
X183688Y629092D01*
X184365Y630726D01*
Y632494D01*
X183688Y634128D01*
X182438Y635378D01*
X180804Y636055D01*
D02*
G37*
G36*
X70064Y630465D02*
X68296D01*
X66662Y629788D01*
X65412Y628538D01*
X64735Y626904D01*
Y625136D01*
X65412Y623502D01*
X66662Y622252D01*
X68296Y621575D01*
X70064D01*
X71698Y622252D01*
X72948Y623502D01*
X73625Y625136D01*
Y626904D01*
X72948Y628538D01*
X71698Y629788D01*
X70064Y630465D01*
D02*
G37*
G36*
X139314Y622935D02*
X137546D01*
X135912Y622258D01*
X134662Y621008D01*
X133985Y619374D01*
Y617606D01*
X134662Y615972D01*
X135912Y614722D01*
X137546Y614045D01*
X139314D01*
X140948Y614722D01*
X142198Y615972D01*
X142875Y617606D01*
Y619374D01*
X142198Y621008D01*
X140948Y622258D01*
X139314Y622935D01*
D02*
G37*
G36*
X104944Y609555D02*
X103176D01*
X101542Y608878D01*
X100292Y607628D01*
X99615Y605994D01*
Y604226D01*
X100292Y602592D01*
X101542Y601342D01*
X103176Y600665D01*
X104944D01*
X106578Y601342D01*
X107828Y602592D01*
X108505Y604226D01*
Y605994D01*
X107828Y607628D01*
X106578Y608878D01*
X104944Y609555D01*
D02*
G37*
G36*
X83354Y608285D02*
X81586D01*
X79952Y607608D01*
X78702Y606358D01*
X78025Y604724D01*
Y602956D01*
X78702Y601322D01*
X79952Y600072D01*
X81586Y599395D01*
X83354D01*
X84988Y600072D01*
X86238Y601322D01*
X86915Y602956D01*
Y604724D01*
X86238Y606358D01*
X84988Y607608D01*
X83354Y608285D01*
D02*
G37*
G36*
X122124Y605835D02*
X120356D01*
X118722Y605158D01*
X117472Y603908D01*
X116795Y602274D01*
Y600506D01*
X117472Y598872D01*
X118722Y597622D01*
X120356Y596945D01*
X122124D01*
X123758Y597622D01*
X125008Y598872D01*
X125685Y600506D01*
Y602274D01*
X125008Y603908D01*
X123758Y605158D01*
X122124Y605835D01*
D02*
G37*
G36*
X94784Y604475D02*
X93016D01*
X91382Y603798D01*
X90132Y602548D01*
X89455Y600914D01*
Y599146D01*
X90132Y597512D01*
X91382Y596262D01*
X93016Y595585D01*
X94784D01*
X96418Y596262D01*
X97668Y597512D01*
X98345Y599146D01*
Y600914D01*
X97668Y602548D01*
X96418Y603798D01*
X94784Y604475D01*
D02*
G37*
G36*
X185414Y600455D02*
X183646D01*
X182012Y599778D01*
X180762Y598528D01*
X180085Y596894D01*
Y595126D01*
X180762Y593492D01*
X182012Y592242D01*
X183646Y591565D01*
X185414D01*
X187048Y592242D01*
X188298Y593492D01*
X188975Y595126D01*
Y596894D01*
X188298Y598528D01*
X187048Y599778D01*
X185414Y600455D01*
D02*
G37*
G36*
X172334Y584835D02*
X170566D01*
X168932Y584158D01*
X167682Y582908D01*
X167005Y581274D01*
Y579506D01*
X167682Y577872D01*
X168932Y576622D01*
X170566Y575945D01*
X172334D01*
X173968Y576622D01*
X175218Y577872D01*
X175895Y579506D01*
Y581274D01*
X175218Y582908D01*
X173968Y584158D01*
X172334Y584835D01*
D02*
G37*
G36*
X767589Y602796D02*
X764031D01*
X760593Y601875D01*
X757511Y600095D01*
X754995Y597579D01*
X753215Y594497D01*
X752294Y591059D01*
Y587501D01*
X753215Y584063D01*
X754995Y580981D01*
X757511Y578465D01*
X760593Y576685D01*
X764031Y575764D01*
X767589D01*
X771027Y576685D01*
X774109Y578465D01*
X776626Y580981D01*
X778405Y584063D01*
X779326Y587501D01*
Y591059D01*
X778405Y594497D01*
X776626Y597579D01*
X774109Y600095D01*
X771027Y601875D01*
X767589Y602796D01*
D02*
G37*
G36*
X569949Y557426D02*
X567971D01*
X566059Y556914D01*
X564345Y555924D01*
X562946Y554525D01*
X561956Y552811D01*
X561444Y550900D01*
Y548921D01*
X561956Y547009D01*
X562946Y545295D01*
X564345Y543896D01*
X566059Y542906D01*
X567971Y542394D01*
X569949D01*
X571861Y542906D01*
X573575Y543896D01*
X574974Y545295D01*
X575964Y547009D01*
X576476Y548921D01*
Y550900D01*
X575964Y552811D01*
X574974Y554525D01*
X573575Y555924D01*
X571861Y556914D01*
X569949Y557426D01*
D02*
G37*
G36*
X131694Y545465D02*
X129926D01*
X128292Y544788D01*
X127042Y543538D01*
X126365Y541904D01*
Y540136D01*
X127042Y538502D01*
X128292Y537252D01*
X129926Y536575D01*
X131694D01*
X133328Y537252D01*
X134578Y538502D01*
X135255Y540136D01*
Y541904D01*
X134578Y543538D01*
X133328Y544788D01*
X131694Y545465D01*
D02*
G37*
G36*
X154554Y544195D02*
X152786D01*
X151152Y543518D01*
X149902Y542268D01*
X149225Y540634D01*
Y538866D01*
X149902Y537232D01*
X151152Y535982D01*
X152786Y535305D01*
X154554D01*
X156188Y535982D01*
X157438Y537232D01*
X158115Y538866D01*
Y540634D01*
X157438Y542268D01*
X156188Y543518D01*
X154554Y544195D01*
D02*
G37*
G36*
X142414Y541095D02*
X140646D01*
X139012Y540418D01*
X137762Y539168D01*
X137085Y537534D01*
Y535766D01*
X137762Y534132D01*
X139012Y532882D01*
X140646Y532205D01*
X142414D01*
X144048Y532882D01*
X145298Y534132D01*
X145975Y535766D01*
Y537534D01*
X145298Y539168D01*
X144048Y540418D01*
X142414Y541095D01*
D02*
G37*
G36*
X831438Y520866D02*
X829722D01*
X828065Y520422D01*
X826579Y519564D01*
X825366Y518351D01*
X824508Y516865D01*
X824064Y515208D01*
Y513492D01*
X824508Y511835D01*
X825366Y510349D01*
X826579Y509136D01*
X828065Y508278D01*
X829722Y507834D01*
X831438D01*
X833095Y508278D01*
X834581Y509136D01*
X835794Y510349D01*
X836652Y511835D01*
X837096Y513492D01*
Y515208D01*
X836652Y516865D01*
X835794Y518351D01*
X834581Y519564D01*
X833095Y520422D01*
X831438Y520866D01*
D02*
G37*
G36*
X780638D02*
X778922D01*
X777265Y520422D01*
X775779Y519564D01*
X774566Y518351D01*
X773708Y516865D01*
X773264Y515208D01*
Y513492D01*
X773708Y511835D01*
X774566Y510349D01*
X775779Y509136D01*
X777265Y508278D01*
X778922Y507834D01*
X780638D01*
X782295Y508278D01*
X783781Y509136D01*
X784994Y510349D01*
X785852Y511835D01*
X786296Y513492D01*
Y515208D01*
X785852Y516865D01*
X784994Y518351D01*
X783781Y519564D01*
X782295Y520422D01*
X780638Y520866D01*
D02*
G37*
G36*
X687954Y502285D02*
X686186D01*
X684552Y501608D01*
X683302Y500358D01*
X682625Y498724D01*
Y496956D01*
X683302Y495322D01*
X684552Y494072D01*
X686186Y493395D01*
X687954D01*
X689588Y494072D01*
X690838Y495322D01*
X691515Y496956D01*
Y498724D01*
X690838Y500358D01*
X689588Y501608D01*
X687954Y502285D01*
D02*
G37*
G36*
X780638Y495466D02*
X778922D01*
X777265Y495022D01*
X775779Y494164D01*
X774566Y492951D01*
X773708Y491465D01*
X773264Y489808D01*
Y488092D01*
X773708Y486435D01*
X774566Y484949D01*
X775779Y483736D01*
X777265Y482878D01*
X778922Y482434D01*
X780638D01*
X782295Y482878D01*
X783781Y483736D01*
X784994Y484949D01*
X785852Y486435D01*
X786296Y488092D01*
Y489808D01*
X785852Y491465D01*
X784994Y492951D01*
X783781Y494164D01*
X782295Y495022D01*
X780638Y495466D01*
D02*
G37*
G36*
X152778Y493856D02*
X149482D01*
X146299Y493003D01*
X143445Y491355D01*
X141115Y489025D01*
X139467Y486171D01*
X138614Y482988D01*
Y479692D01*
X139467Y476509D01*
X141115Y473655D01*
X143445Y471325D01*
X146299Y469677D01*
X149482Y468824D01*
X152778D01*
X155961Y469677D01*
X158815Y471325D01*
X161145Y473655D01*
X162793Y476509D01*
X163646Y479692D01*
Y482988D01*
X162793Y486171D01*
X161145Y489025D01*
X158815Y491355D01*
X155961Y493003D01*
X152778Y493856D01*
D02*
G37*
G36*
X780638Y470066D02*
X780288D01*
Y464058D01*
X786296D01*
Y464408D01*
X785852Y466065D01*
X784994Y467551D01*
X783781Y468764D01*
X782295Y469622D01*
X780638Y470066D01*
D02*
G37*
G36*
X779272D02*
X778922D01*
X777265Y469622D01*
X775779Y468764D01*
X774566Y467551D01*
X773708Y466065D01*
X773264Y464408D01*
Y464058D01*
X779272D01*
Y470066D01*
D02*
G37*
G36*
X831438D02*
X829722D01*
X828065Y469622D01*
X826579Y468764D01*
X825366Y467551D01*
X824508Y466065D01*
X824064Y464408D01*
Y462692D01*
X824508Y461035D01*
X825366Y459549D01*
X826579Y458336D01*
X828065Y457478D01*
X829722Y457034D01*
X831438D01*
X833095Y457478D01*
X834581Y458336D01*
X835794Y459549D01*
X836652Y461035D01*
X837096Y462692D01*
Y464408D01*
X836652Y466065D01*
X835794Y467551D01*
X834581Y468764D01*
X833095Y469622D01*
X831438Y470066D01*
D02*
G37*
G36*
X786296Y463042D02*
X780288D01*
Y457034D01*
X780638D01*
X782295Y457478D01*
X783781Y458336D01*
X784994Y459549D01*
X785852Y461035D01*
X786296Y462692D01*
Y463042D01*
D02*
G37*
G36*
X779272D02*
X773264D01*
Y462692D01*
X773708Y461035D01*
X774566Y459549D01*
X775779Y458336D01*
X777265Y457478D01*
X778922Y457034D01*
X779272D01*
Y463042D01*
D02*
G37*
G36*
X661284Y465455D02*
X659516D01*
X657882Y464778D01*
X656632Y463528D01*
X655955Y461894D01*
Y460126D01*
X656632Y458492D01*
X657882Y457242D01*
X659516Y456565D01*
X661284D01*
X662918Y457242D01*
X664168Y458492D01*
X664845Y460126D01*
Y461894D01*
X664168Y463528D01*
X662918Y464778D01*
X661284Y465455D01*
D02*
G37*
G36*
X700019Y462915D02*
X698251D01*
X696617Y462238D01*
X695367Y460988D01*
X694690Y459354D01*
Y457586D01*
X695367Y455952D01*
X696617Y454702D01*
X698251Y454025D01*
X700019D01*
X701653Y454702D01*
X702903Y455952D01*
X703580Y457586D01*
Y459354D01*
X702903Y460988D01*
X701653Y462238D01*
X700019Y462915D01*
D02*
G37*
G36*
X25778Y472256D02*
X22482D01*
X19299Y471403D01*
X16445Y469755D01*
X14115Y467425D01*
X12467Y464571D01*
X11614Y461388D01*
Y458092D01*
X12467Y454909D01*
X14115Y452055D01*
X16445Y449725D01*
X19299Y448077D01*
X22482Y447224D01*
X25778D01*
X28961Y448077D01*
X31815Y449725D01*
X34145Y452055D01*
X35793Y454909D01*
X36646Y458092D01*
Y461388D01*
X35793Y464571D01*
X34145Y467425D01*
X31815Y469755D01*
X28961Y471403D01*
X25778Y472256D01*
D02*
G37*
G36*
X700019Y443865D02*
X698251D01*
X696617Y443188D01*
X695367Y441938D01*
X694690Y440304D01*
Y438536D01*
X695367Y436902D01*
X696617Y435652D01*
X698251Y434975D01*
X700019D01*
X701653Y435652D01*
X702903Y436902D01*
X703580Y438536D01*
Y440304D01*
X702903Y441938D01*
X701653Y443188D01*
X700019Y443865D01*
D02*
G37*
G36*
X648584D02*
X646816D01*
X645182Y443188D01*
X643932Y441938D01*
X643255Y440304D01*
Y438536D01*
X643932Y436902D01*
X645182Y435652D01*
X646816Y434975D01*
X648584D01*
X650218Y435652D01*
X651468Y436902D01*
X652145Y438536D01*
Y440304D01*
X651468Y441938D01*
X650218Y443188D01*
X648584Y443865D01*
D02*
G37*
G36*
X152778Y446856D02*
X149482D01*
X146299Y446003D01*
X143445Y444355D01*
X141115Y442025D01*
X139467Y439171D01*
X138614Y435988D01*
Y432692D01*
X139467Y429509D01*
X141115Y426655D01*
X143445Y424325D01*
X146299Y422677D01*
X149482Y421824D01*
X152778D01*
X155961Y422677D01*
X158815Y424325D01*
X161145Y426655D01*
X162793Y429509D01*
X163646Y432692D01*
Y435988D01*
X162793Y439171D01*
X161145Y442025D01*
X158815Y444355D01*
X155961Y446003D01*
X152778Y446856D01*
D02*
G37*
G36*
X858376Y413686D02*
X856124D01*
X853948Y413103D01*
X851997Y411977D01*
X850404Y410383D01*
X849277Y408433D01*
X848694Y406256D01*
Y404004D01*
X849277Y401828D01*
X850404Y399877D01*
X851997Y398284D01*
X853948Y397157D01*
X856124Y396574D01*
X858376D01*
X860553Y397157D01*
X862504Y398284D01*
X864097Y399877D01*
X865223Y401828D01*
X865806Y404004D01*
Y406256D01*
X865223Y408433D01*
X864097Y410383D01*
X862504Y411977D01*
X860553Y413103D01*
X858376Y413686D01*
D02*
G37*
G36*
X832976D02*
X830724D01*
X828548Y413103D01*
X826597Y411977D01*
X825004Y410383D01*
X823877Y408433D01*
X823294Y406256D01*
Y404004D01*
X823877Y401828D01*
X825004Y399877D01*
X826597Y398284D01*
X828548Y397157D01*
X830724Y396574D01*
X832976D01*
X835153Y397157D01*
X837104Y398284D01*
X838697Y399877D01*
X839823Y401828D01*
X840406Y404004D01*
Y406256D01*
X839823Y408433D01*
X838697Y410383D01*
X837104Y411977D01*
X835153Y413103D01*
X832976Y413686D01*
D02*
G37*
G36*
X807576D02*
X805324D01*
X803148Y413103D01*
X801197Y411977D01*
X799604Y410383D01*
X798477Y408433D01*
X797894Y406256D01*
Y404004D01*
X798477Y401828D01*
X799604Y399877D01*
X801197Y398284D01*
X803148Y397157D01*
X805324Y396574D01*
X807576D01*
X809753Y397157D01*
X811703Y398284D01*
X813297Y399877D01*
X814423Y401828D01*
X815006Y404004D01*
Y406256D01*
X814423Y408433D01*
X813297Y410383D01*
X811703Y411977D01*
X809753Y413103D01*
X807576Y413686D01*
D02*
G37*
G36*
X782176D02*
X779924D01*
X777747Y413103D01*
X775797Y411977D01*
X774203Y410383D01*
X773077Y408433D01*
X772494Y406256D01*
Y404004D01*
X773077Y401828D01*
X774203Y399877D01*
X775797Y398284D01*
X777747Y397157D01*
X779924Y396574D01*
X782176D01*
X784352Y397157D01*
X786303Y398284D01*
X787896Y399877D01*
X789023Y401828D01*
X789606Y404004D01*
Y406256D01*
X789023Y408433D01*
X787896Y410383D01*
X786303Y411977D01*
X784352Y413103D01*
X782176Y413686D01*
D02*
G37*
G36*
X756776D02*
X754524D01*
X752347Y413103D01*
X750396Y411977D01*
X748803Y410383D01*
X747677Y408433D01*
X747094Y406256D01*
Y404004D01*
X747677Y401828D01*
X748803Y399877D01*
X750396Y398284D01*
X752347Y397157D01*
X754524Y396574D01*
X756776D01*
X758952Y397157D01*
X760903Y398284D01*
X762496Y399877D01*
X763623Y401828D01*
X764206Y404004D01*
Y406256D01*
X763623Y408433D01*
X762496Y410383D01*
X760903Y411977D01*
X758952Y413103D01*
X756776Y413686D01*
D02*
G37*
G36*
X731376D02*
X729124D01*
X726947Y413103D01*
X724996Y411977D01*
X723403Y410383D01*
X722277Y408433D01*
X721694Y406256D01*
Y404004D01*
X722277Y401828D01*
X723403Y399877D01*
X724996Y398284D01*
X726947Y397157D01*
X729124Y396574D01*
X731376D01*
X733552Y397157D01*
X735503Y398284D01*
X737096Y399877D01*
X738223Y401828D01*
X738806Y404004D01*
Y406256D01*
X738223Y408433D01*
X737096Y410383D01*
X735503Y411977D01*
X733552Y413103D01*
X731376Y413686D01*
D02*
G37*
G36*
X705976D02*
X703724D01*
X701547Y413103D01*
X699596Y411977D01*
X698003Y410383D01*
X696877Y408433D01*
X696294Y406256D01*
Y404004D01*
X696877Y401828D01*
X698003Y399877D01*
X699596Y398284D01*
X701547Y397157D01*
X703724Y396574D01*
X705976D01*
X708152Y397157D01*
X710104Y398284D01*
X711696Y399877D01*
X712823Y401828D01*
X713406Y404004D01*
Y406256D01*
X712823Y408433D01*
X711696Y410383D01*
X710104Y411977D01*
X708152Y413103D01*
X705976Y413686D01*
D02*
G37*
G36*
X680576D02*
X678324D01*
X676148Y413103D01*
X674196Y411977D01*
X672604Y410383D01*
X671477Y408433D01*
X670894Y406256D01*
Y404004D01*
X671477Y401828D01*
X672604Y399877D01*
X674196Y398284D01*
X676148Y397157D01*
X678324Y396574D01*
X680576D01*
X682753Y397157D01*
X684704Y398284D01*
X686296Y399877D01*
X687423Y401828D01*
X688006Y404004D01*
Y406256D01*
X687423Y408433D01*
X686296Y410383D01*
X684704Y411977D01*
X682753Y413103D01*
X680576Y413686D01*
D02*
G37*
G36*
X655176D02*
X652924D01*
X650748Y413103D01*
X648796Y411977D01*
X647204Y410383D01*
X646077Y408433D01*
X645494Y406256D01*
Y404004D01*
X646077Y401828D01*
X647204Y399877D01*
X648796Y398284D01*
X650748Y397157D01*
X652924Y396574D01*
X655176D01*
X657353Y397157D01*
X659304Y398284D01*
X660897Y399877D01*
X662023Y401828D01*
X662606Y404004D01*
Y406256D01*
X662023Y408433D01*
X660897Y410383D01*
X659304Y411977D01*
X657353Y413103D01*
X655176Y413686D01*
D02*
G37*
G36*
X629776D02*
X627524D01*
X625348Y413103D01*
X623396Y411977D01*
X621804Y410383D01*
X620677Y408433D01*
X620094Y406256D01*
Y404004D01*
X620677Y401828D01*
X621804Y399877D01*
X623396Y398284D01*
X625348Y397157D01*
X627524Y396574D01*
X629776D01*
X631953Y397157D01*
X633904Y398284D01*
X635496Y399877D01*
X636623Y401828D01*
X637206Y404004D01*
Y406256D01*
X636623Y408433D01*
X635496Y410383D01*
X633904Y411977D01*
X631953Y413103D01*
X629776Y413686D01*
D02*
G37*
G36*
X604376D02*
X602124D01*
X599948Y413103D01*
X597996Y411977D01*
X596404Y410383D01*
X595277Y408433D01*
X594694Y406256D01*
Y404004D01*
X595277Y401828D01*
X596404Y399877D01*
X597996Y398284D01*
X599948Y397157D01*
X602124Y396574D01*
X604376D01*
X606553Y397157D01*
X608503Y398284D01*
X610097Y399877D01*
X611223Y401828D01*
X611806Y404004D01*
Y406256D01*
X611223Y408433D01*
X610097Y410383D01*
X608503Y411977D01*
X606553Y413103D01*
X604376Y413686D01*
D02*
G37*
G36*
X578976D02*
X576724D01*
X574548Y413103D01*
X572597Y411977D01*
X571003Y410383D01*
X569877Y408433D01*
X569294Y406256D01*
Y404004D01*
X569877Y401828D01*
X571003Y399877D01*
X572597Y398284D01*
X574548Y397157D01*
X576724Y396574D01*
X578976D01*
X581152Y397157D01*
X583103Y398284D01*
X584697Y399877D01*
X585823Y401828D01*
X586406Y404004D01*
Y406256D01*
X585823Y408433D01*
X584697Y410383D01*
X583103Y411977D01*
X581152Y413103D01*
X578976Y413686D01*
D02*
G37*
G36*
X25778Y421456D02*
X22482D01*
X19299Y420603D01*
X16445Y418955D01*
X14115Y416625D01*
X12467Y413771D01*
X11614Y410588D01*
Y407292D01*
X12467Y404109D01*
X14115Y401255D01*
X16445Y398925D01*
X19299Y397277D01*
X22482Y396424D01*
X25778D01*
X28961Y397277D01*
X31815Y398925D01*
X34145Y401255D01*
X35793Y404109D01*
X36646Y407292D01*
Y410588D01*
X35793Y413771D01*
X34145Y416625D01*
X31815Y418955D01*
X28961Y420603D01*
X25778Y421456D01*
D02*
G37*
G36*
X152778Y399856D02*
X149482D01*
X146299Y399003D01*
X143445Y397355D01*
X141115Y395025D01*
X139467Y392171D01*
X138614Y388988D01*
Y385692D01*
X139467Y382509D01*
X141115Y379655D01*
X143445Y377325D01*
X146299Y375677D01*
X149482Y374824D01*
X152778D01*
X155961Y375677D01*
X158815Y377325D01*
X161145Y379655D01*
X162793Y382509D01*
X163646Y385692D01*
Y388988D01*
X162793Y392171D01*
X161145Y395025D01*
X158815Y397355D01*
X155961Y399003D01*
X152778Y399856D01*
D02*
G37*
G36*
X148323Y332740D02*
X146317D01*
X144379Y332221D01*
X142641Y331217D01*
X141222Y329799D01*
X140219Y328061D01*
X139700Y326123D01*
Y324117D01*
X140219Y322179D01*
X141222Y320441D01*
X142641Y319023D01*
X144379Y318019D01*
X146317Y317500D01*
X148323D01*
X150261Y318019D01*
X151999Y319023D01*
X153418Y320441D01*
X154421Y322179D01*
X154940Y324117D01*
Y326123D01*
X154421Y328061D01*
X153418Y329799D01*
X151999Y331217D01*
X150261Y332221D01*
X148323Y332740D01*
D02*
G37*
G36*
X262478Y255436D02*
X260762D01*
X259105Y254992D01*
X257619Y254134D01*
X256406Y252921D01*
X255548Y251435D01*
X255104Y249778D01*
Y248062D01*
X255548Y246405D01*
X256406Y244919D01*
X257619Y243706D01*
X259105Y242848D01*
X260762Y242404D01*
X262478D01*
X264135Y242848D01*
X265621Y243706D01*
X266834Y244919D01*
X267692Y246405D01*
X268136Y248062D01*
Y249778D01*
X267692Y251435D01*
X266834Y252921D01*
X265621Y254134D01*
X264135Y254992D01*
X262478Y255436D01*
D02*
G37*
G36*
X205798D02*
X204082D01*
X202425Y254992D01*
X200939Y254134D01*
X199726Y252921D01*
X198868Y251435D01*
X198424Y249778D01*
Y248062D01*
X198868Y246405D01*
X199726Y244919D01*
X200939Y243706D01*
X202425Y242848D01*
X204082Y242404D01*
X205798D01*
X207455Y242848D01*
X208941Y243706D01*
X210154Y244919D01*
X211012Y246405D01*
X211456Y248062D01*
Y249778D01*
X211012Y251435D01*
X210154Y252921D01*
X208941Y254134D01*
X207455Y254992D01*
X205798Y255436D01*
D02*
G37*
G36*
X155798D02*
X154082D01*
X152425Y254992D01*
X150939Y254134D01*
X149726Y252921D01*
X148868Y251435D01*
X148424Y249778D01*
Y248062D01*
X148868Y246405D01*
X149726Y244919D01*
X150939Y243706D01*
X152425Y242848D01*
X154082Y242404D01*
X155798D01*
X157455Y242848D01*
X158941Y243706D01*
X160154Y244919D01*
X161012Y246405D01*
X161456Y248062D01*
Y249778D01*
X161012Y251435D01*
X160154Y252921D01*
X158941Y254134D01*
X157455Y254992D01*
X155798Y255436D01*
D02*
G37*
G36*
X756776Y235886D02*
X756158D01*
Y227838D01*
X764206D01*
Y228456D01*
X763623Y230632D01*
X762496Y232584D01*
X760903Y234177D01*
X758952Y235303D01*
X756776Y235886D01*
D02*
G37*
G36*
X755142D02*
X754524D01*
X752347Y235303D01*
X750396Y234177D01*
X748803Y232584D01*
X747677Y230632D01*
X747094Y228456D01*
Y227838D01*
X755142D01*
Y235886D01*
D02*
G37*
G36*
X858376D02*
X856124D01*
X853948Y235303D01*
X851997Y234177D01*
X850404Y232584D01*
X849277Y230632D01*
X848694Y228456D01*
Y226204D01*
X849277Y224028D01*
X850404Y222076D01*
X851997Y220483D01*
X853948Y219357D01*
X856124Y218774D01*
X858376D01*
X860553Y219357D01*
X862504Y220483D01*
X864097Y222076D01*
X865223Y224028D01*
X865806Y226204D01*
Y228456D01*
X865223Y230632D01*
X864097Y232584D01*
X862504Y234177D01*
X860553Y235303D01*
X858376Y235886D01*
D02*
G37*
G36*
X832976D02*
X830724D01*
X828548Y235303D01*
X826597Y234177D01*
X825004Y232584D01*
X823877Y230632D01*
X823294Y228456D01*
Y226204D01*
X823877Y224028D01*
X825004Y222076D01*
X826597Y220483D01*
X828548Y219357D01*
X830724Y218774D01*
X832976D01*
X835153Y219357D01*
X837104Y220483D01*
X838697Y222076D01*
X839823Y224028D01*
X840406Y226204D01*
Y228456D01*
X839823Y230632D01*
X838697Y232584D01*
X837104Y234177D01*
X835153Y235303D01*
X832976Y235886D01*
D02*
G37*
G36*
X807576D02*
X805324D01*
X803148Y235303D01*
X801197Y234177D01*
X799604Y232584D01*
X798477Y230632D01*
X797894Y228456D01*
Y226204D01*
X798477Y224028D01*
X799604Y222076D01*
X801197Y220483D01*
X803148Y219357D01*
X805324Y218774D01*
X807576D01*
X809753Y219357D01*
X811703Y220483D01*
X813297Y222076D01*
X814423Y224028D01*
X815006Y226204D01*
Y228456D01*
X814423Y230632D01*
X813297Y232584D01*
X811703Y234177D01*
X809753Y235303D01*
X807576Y235886D01*
D02*
G37*
G36*
X782176D02*
X779924D01*
X777747Y235303D01*
X775797Y234177D01*
X774203Y232584D01*
X773077Y230632D01*
X772494Y228456D01*
Y226204D01*
X773077Y224028D01*
X774203Y222076D01*
X775797Y220483D01*
X777747Y219357D01*
X779924Y218774D01*
X782176D01*
X784352Y219357D01*
X786303Y220483D01*
X787896Y222076D01*
X789023Y224028D01*
X789606Y226204D01*
Y228456D01*
X789023Y230632D01*
X787896Y232584D01*
X786303Y234177D01*
X784352Y235303D01*
X782176Y235886D01*
D02*
G37*
G36*
X764206Y226822D02*
X756158D01*
Y218774D01*
X756776D01*
X758952Y219357D01*
X760903Y220483D01*
X762496Y222076D01*
X763623Y224028D01*
X764206Y226204D01*
Y226822D01*
D02*
G37*
G36*
X755142D02*
X747094D01*
Y226204D01*
X747677Y224028D01*
X748803Y222076D01*
X750396Y220483D01*
X752347Y219357D01*
X754524Y218774D01*
X755142D01*
Y226822D01*
D02*
G37*
G36*
X731376Y235886D02*
X729124D01*
X726947Y235303D01*
X724996Y234177D01*
X723403Y232584D01*
X722277Y230632D01*
X721694Y228456D01*
Y226204D01*
X722277Y224028D01*
X723403Y222076D01*
X724996Y220483D01*
X726947Y219357D01*
X729124Y218774D01*
X731376D01*
X733552Y219357D01*
X735503Y220483D01*
X737096Y222076D01*
X738223Y224028D01*
X738806Y226204D01*
Y228456D01*
X738223Y230632D01*
X737096Y232584D01*
X735503Y234177D01*
X733552Y235303D01*
X731376Y235886D01*
D02*
G37*
G36*
X705976D02*
X703724D01*
X701547Y235303D01*
X699596Y234177D01*
X698003Y232584D01*
X696877Y230632D01*
X696294Y228456D01*
Y226204D01*
X696877Y224028D01*
X698003Y222076D01*
X699596Y220483D01*
X701547Y219357D01*
X703724Y218774D01*
X705976D01*
X708152Y219357D01*
X710104Y220483D01*
X711696Y222076D01*
X712823Y224028D01*
X713406Y226204D01*
Y228456D01*
X712823Y230632D01*
X711696Y232584D01*
X710104Y234177D01*
X708152Y235303D01*
X705976Y235886D01*
D02*
G37*
G36*
X680576D02*
X678324D01*
X676148Y235303D01*
X674196Y234177D01*
X672604Y232584D01*
X671477Y230632D01*
X670894Y228456D01*
Y226204D01*
X671477Y224028D01*
X672604Y222076D01*
X674196Y220483D01*
X676148Y219357D01*
X678324Y218774D01*
X680576D01*
X682753Y219357D01*
X684704Y220483D01*
X686296Y222076D01*
X687423Y224028D01*
X688006Y226204D01*
Y228456D01*
X687423Y230632D01*
X686296Y232584D01*
X684704Y234177D01*
X682753Y235303D01*
X680576Y235886D01*
D02*
G37*
G36*
X732404Y178435D02*
X730636D01*
X729002Y177758D01*
X727752Y176508D01*
X727075Y174874D01*
Y173106D01*
X727752Y171472D01*
X729002Y170222D01*
X730636Y169545D01*
X732404D01*
X734038Y170222D01*
X735288Y171472D01*
X735965Y173106D01*
Y174874D01*
X735288Y176508D01*
X734038Y177758D01*
X732404Y178435D01*
D02*
G37*
G36*
X182494Y95885D02*
X180726D01*
X179092Y95208D01*
X177842Y93958D01*
X177165Y92324D01*
Y90556D01*
X177842Y88922D01*
X179092Y87672D01*
X180726Y86995D01*
X182494D01*
X184128Y87672D01*
X185378Y88922D01*
X186055Y90556D01*
Y92324D01*
X185378Y93958D01*
X184128Y95208D01*
X182494Y95885D01*
D02*
G37*
G36*
X485944Y59135D02*
X484176D01*
X482542Y58458D01*
X481292Y57208D01*
X480615Y55574D01*
Y53806D01*
X481292Y52172D01*
X482542Y50922D01*
X484176Y50245D01*
X485944D01*
X487578Y50922D01*
X488828Y52172D01*
X489505Y53806D01*
Y55574D01*
X488828Y57208D01*
X487578Y58458D01*
X485944Y59135D01*
D02*
G37*
G36*
X74852Y97390D02*
X69928D01*
X65098Y96429D01*
X60548Y94545D01*
X56453Y91809D01*
X52971Y88327D01*
X50235Y84232D01*
X48351Y79682D01*
X47390Y74852D01*
Y69928D01*
X48351Y65098D01*
X50235Y60548D01*
X52971Y56453D01*
X56453Y52971D01*
X60548Y50235D01*
X65098Y48351D01*
X69928Y47390D01*
X74852D01*
X79682Y48351D01*
X84232Y50235D01*
X88327Y52971D01*
X91809Y56453D01*
X94545Y60548D01*
X96429Y65098D01*
X97390Y69928D01*
Y74852D01*
X96429Y79682D01*
X94545Y84232D01*
X91809Y88327D01*
X88327Y91809D01*
X84232Y94545D01*
X79682Y96429D01*
X74852Y97390D01*
D02*
G37*
%LPD*%
G36*
X381000Y1197610D02*
X417830D01*
X544830Y1070610D01*
Y409044D01*
X544477Y408433D01*
X543894Y406256D01*
Y404004D01*
X544477Y401828D01*
X544830Y401216D01*
Y325120D01*
X646288Y223662D01*
X647204Y222076D01*
X648796Y220483D01*
X650382Y219568D01*
X694035Y175915D01*
X693113Y174992D01*
X691809Y172734D01*
X691134Y170214D01*
Y167606D01*
X691809Y165086D01*
X693113Y162828D01*
X694958Y160983D01*
X697216Y159679D01*
X699736Y159004D01*
X702344D01*
X704864Y159679D01*
X707122Y160983D01*
X708045Y161905D01*
X715010Y154940D01*
X797560D01*
X838200Y195580D01*
X840740Y193040D01*
X868680D01*
Y144780D01*
X814055Y90155D01*
X812388Y89465D01*
X808293Y86729D01*
X804811Y83247D01*
X802075Y79152D01*
X801385Y77485D01*
X801370Y77470D01*
X676614D01*
X675030Y79401D01*
X672439Y81527D01*
X669483Y83107D01*
X666276Y84080D01*
X662940Y84408D01*
X659604Y84080D01*
X656397Y83107D01*
X653441Y81527D01*
X650850Y79401D01*
X649266Y77470D01*
X602034D01*
X601185Y78740D01*
X601345Y79126D01*
Y80894D01*
X600668Y82528D01*
X599418Y83778D01*
X597784Y84455D01*
X596016D01*
X594382Y83778D01*
X593132Y82528D01*
X592455Y80894D01*
Y79126D01*
X592615Y78740D01*
X591766Y77470D01*
X535757D01*
X535746Y77495D01*
X534686Y78556D01*
X533300Y79130D01*
X531800D01*
X530415Y78556D01*
X529354Y77495D01*
X529343Y77470D01*
X524757D01*
X524746Y77495D01*
X523685Y78556D01*
X522300Y79130D01*
X520800D01*
X519414Y78556D01*
X518354Y77495D01*
X518343Y77470D01*
X472440D01*
X396996Y156687D01*
X397496Y157854D01*
X407296D01*
Y174886D01*
X390264D01*
Y165465D01*
X389085Y164993D01*
X315361Y242403D01*
X315542Y243660D01*
X315621Y243706D01*
X316834Y244919D01*
X317692Y246405D01*
X318136Y248062D01*
Y249778D01*
X317692Y251435D01*
X316834Y252921D01*
X315621Y254134D01*
X314135Y254992D01*
X312478Y255436D01*
X310762D01*
X309105Y254992D01*
X307619Y254134D01*
X306760Y253275D01*
X305199Y253073D01*
X304188Y254134D01*
X229820Y332221D01*
X193040Y370840D01*
Y400050D01*
Y647543D01*
X193110Y647590D01*
X194610D01*
X195996Y648164D01*
X197056Y649224D01*
X197630Y650610D01*
Y652110D01*
X197056Y653495D01*
X195996Y654556D01*
X194610Y655130D01*
X193110D01*
X193040Y655177D01*
Y660543D01*
X193110Y660590D01*
X194610D01*
X195996Y661164D01*
X197056Y662225D01*
X197630Y663610D01*
Y665110D01*
X197056Y666496D01*
X195996Y667556D01*
X194610Y668130D01*
X193110D01*
X193040Y668177D01*
Y669290D01*
X180340Y681990D01*
Y717550D01*
X195580Y732790D01*
Y808880D01*
X197070D01*
X198456Y809454D01*
X199516Y810515D01*
X200090Y811900D01*
Y813400D01*
X199516Y814786D01*
X198456Y815846D01*
X197070Y816420D01*
X195570D01*
X194184Y815846D01*
X193359Y815021D01*
X182880Y825500D01*
X182880Y880110D01*
X195580Y892810D01*
Y963930D01*
X184150Y975360D01*
X184150Y1038860D01*
X191770Y1046480D01*
Y1121410D01*
X187593Y1125587D01*
X188118Y1126859D01*
X189265Y1127334D01*
X190326Y1128394D01*
X190900Y1129780D01*
Y1131280D01*
X190326Y1132665D01*
X189265Y1133726D01*
X187880Y1134300D01*
X186380D01*
X184995Y1133726D01*
X183934Y1132665D01*
X183458Y1131518D01*
X182187Y1130993D01*
X171450Y1141730D01*
Y1181164D01*
X172678Y1182392D01*
X173355Y1184026D01*
Y1185794D01*
X172678Y1187428D01*
X171450Y1188656D01*
Y1263500D01*
X182245D01*
Y1262766D01*
X182922Y1261132D01*
X184172Y1259882D01*
X185563Y1259305D01*
X190049Y1254819D01*
Y1183349D01*
X190049Y1183349D01*
X190325Y1181961D01*
X191111Y1180785D01*
X195835Y1176061D01*
Y1175516D01*
X196512Y1173882D01*
X197762Y1172632D01*
X199396Y1171955D01*
X199597D01*
X212966Y1158587D01*
X212966Y1158587D01*
X214142Y1157801D01*
X215530Y1157525D01*
X215530Y1157525D01*
X215931D01*
X224983Y1148473D01*
X224659Y1147001D01*
X223995Y1146726D01*
X222934Y1145666D01*
X222360Y1144280D01*
Y1142780D01*
X222934Y1141395D01*
X223995Y1140334D01*
X225380Y1139760D01*
X226880D01*
X228266Y1140334D01*
X229326Y1141395D01*
X229601Y1142059D01*
X231073Y1142383D01*
X242374Y1131082D01*
Y1124146D01*
X231520D01*
X231520Y1124146D01*
X230133Y1123870D01*
X228956Y1123084D01*
X228956Y1123084D01*
X206376Y1100504D01*
X205590Y1099327D01*
X205314Y1097940D01*
X205314Y1097940D01*
Y1020630D01*
X205172Y1020488D01*
X204495Y1018854D01*
Y1017086D01*
X205172Y1015452D01*
X206422Y1014202D01*
X208056Y1013525D01*
X209824D01*
X211458Y1014202D01*
X211600Y1014344D01*
X218778D01*
X251034Y982088D01*
Y965716D01*
X238190D01*
X238190Y965716D01*
X236803Y965440D01*
X235626Y964654D01*
X235626Y964654D01*
X206906Y935934D01*
X206120Y934758D01*
X205844Y933370D01*
X205844Y933370D01*
Y861180D01*
X205702Y861038D01*
X205025Y859404D01*
Y857636D01*
X205702Y856002D01*
X206952Y854752D01*
X208586Y854075D01*
X208787D01*
X224686Y838176D01*
X224686Y838176D01*
X225863Y837390D01*
X227250Y837114D01*
X227652D01*
X234173Y830593D01*
X233849Y829121D01*
X233185Y828846D01*
X232124Y827785D01*
X231550Y826400D01*
Y824900D01*
X232124Y823514D01*
X233185Y822454D01*
X234570Y821880D01*
X236070D01*
X237456Y822454D01*
X238516Y823514D01*
X238791Y824179D01*
X240263Y824503D01*
X251564Y813202D01*
Y806023D01*
X246769D01*
X245381Y805747D01*
X244205Y804961D01*
X244205Y804961D01*
X204446Y765202D01*
X203660Y764026D01*
X203384Y762638D01*
X203384Y762638D01*
Y699891D01*
X203242Y699748D01*
X202565Y698114D01*
Y696346D01*
X203242Y694712D01*
X204492Y693462D01*
X206126Y692785D01*
X206327D01*
X223496Y675616D01*
X223496Y675616D01*
X224673Y674830D01*
X226060Y674554D01*
X226060Y674554D01*
X226462D01*
X231713Y669303D01*
X231389Y667831D01*
X230725Y667556D01*
X229664Y666496D01*
X229090Y665110D01*
Y663610D01*
X229664Y662225D01*
X230725Y661164D01*
X232110Y660590D01*
X233610D01*
X234995Y661164D01*
X236056Y662225D01*
X236331Y662889D01*
X237803Y663213D01*
X249104Y651912D01*
Y644976D01*
X233680D01*
X232292Y644700D01*
X231116Y643914D01*
X231116Y643914D01*
X213336Y626134D01*
X212550Y624958D01*
X212274Y623570D01*
X212274Y623570D01*
Y378815D01*
X211221Y378208D01*
X209802Y376789D01*
X208799Y375051D01*
X208280Y373113D01*
Y371107D01*
X208799Y369169D01*
X209802Y367431D01*
X211221Y366012D01*
X212959Y365009D01*
X214897Y364490D01*
X216903D01*
X218078Y364805D01*
X228576Y354306D01*
X228576Y354306D01*
X229753Y353520D01*
X231140Y353244D01*
X231140Y353244D01*
X276860D01*
X276860Y353244D01*
X278248Y353520D01*
X279424Y354306D01*
X312444Y387326D01*
X312444Y387326D01*
X313230Y388503D01*
X313506Y389890D01*
X313506Y389890D01*
Y406168D01*
X386104Y478766D01*
X386104Y478766D01*
X386890Y479943D01*
X387166Y481330D01*
Y610063D01*
X387166Y610063D01*
X386890Y611451D01*
X386104Y612627D01*
X347796Y650935D01*
Y707270D01*
X347938Y707412D01*
X348615Y709046D01*
Y709783D01*
X349194Y710170D01*
X349980Y711346D01*
X350256Y712734D01*
Y868559D01*
X350398Y868702D01*
X351075Y870336D01*
Y872104D01*
X350398Y873738D01*
X350256Y873880D01*
Y950801D01*
X350256Y950801D01*
X349980Y952189D01*
X349726Y952569D01*
Y1028009D01*
X349868Y1028152D01*
X350545Y1029786D01*
Y1031554D01*
X349868Y1033188D01*
X349726Y1033331D01*
Y1105555D01*
X349726Y1105555D01*
X349450Y1106942D01*
X348664Y1108119D01*
X341066Y1115717D01*
Y1186440D01*
X341208Y1186582D01*
X341885Y1188216D01*
Y1189984D01*
X341208Y1191618D01*
X339958Y1192868D01*
X338324Y1193545D01*
X336556D01*
X334922Y1192868D01*
X333672Y1191618D01*
X332995Y1189984D01*
Y1188216D01*
X333672Y1186582D01*
X333814Y1186440D01*
Y1114215D01*
X333814Y1114215D01*
X334090Y1112828D01*
X334876Y1111651D01*
X342474Y1104053D01*
Y1087295D01*
X341301Y1086809D01*
X329636Y1098474D01*
Y1143260D01*
X329778Y1143402D01*
X330455Y1145036D01*
Y1146804D01*
X329778Y1148438D01*
X328528Y1149688D01*
X326894Y1150365D01*
X325126D01*
X323492Y1149688D01*
X322242Y1148438D01*
X321565Y1146804D01*
Y1145036D01*
X322242Y1143402D01*
X322384Y1143260D01*
Y1096972D01*
X322384Y1096972D01*
X322660Y1095585D01*
X323446Y1094408D01*
X336339Y1081516D01*
Y1039575D01*
X332106Y1035342D01*
X331320Y1034165D01*
X331044Y1032778D01*
X331044Y1032778D01*
Y990151D01*
X330902Y990008D01*
X330225Y988374D01*
Y986606D01*
X330902Y984972D01*
X331044Y984829D01*
Y943559D01*
X331044Y943559D01*
X331320Y942171D01*
X332106Y940995D01*
X336869Y936232D01*
Y887208D01*
X332636Y882975D01*
X331850Y881799D01*
X331574Y880411D01*
X331574Y880411D01*
Y830701D01*
X331432Y830558D01*
X330755Y828924D01*
Y827156D01*
X331432Y825522D01*
X331574Y825379D01*
Y772102D01*
X331574Y772102D01*
X331850Y770715D01*
X332636Y769538D01*
X334409Y767766D01*
Y722330D01*
X330176Y718097D01*
X329390Y716920D01*
X329114Y715533D01*
X329114Y715533D01*
Y669410D01*
X328972Y669268D01*
X328295Y667634D01*
Y665866D01*
X328972Y664232D01*
X329114Y664090D01*
Y596728D01*
X329114Y596728D01*
X329390Y595341D01*
X330176Y594164D01*
X360864Y563476D01*
Y513358D01*
X359594Y512832D01*
X359388Y513038D01*
X357754Y513715D01*
X355986D01*
X354352Y513038D01*
X353102Y511788D01*
X352425Y510154D01*
Y508386D01*
X353102Y506752D01*
X354352Y505502D01*
X355986Y504825D01*
X357754D01*
X359388Y505502D01*
X359594Y505708D01*
X360864Y505182D01*
Y481562D01*
X335915Y456613D01*
X334645Y457139D01*
Y458084D01*
X333968Y459718D01*
X332718Y460968D01*
X331084Y461645D01*
X329316D01*
X327682Y460968D01*
X326432Y459718D01*
X325755Y458084D01*
Y456316D01*
X326432Y454682D01*
X327682Y453432D01*
X329316Y452755D01*
X330261D01*
X330788Y451485D01*
X261349Y382047D01*
X260176Y382533D01*
Y501358D01*
X259900Y502746D01*
X259114Y503922D01*
X259114Y503922D01*
X248101Y514935D01*
Y618984D01*
X249371Y619624D01*
X250576Y619125D01*
X252344D01*
X253978Y619802D01*
X255228Y621052D01*
X255905Y622686D01*
Y624454D01*
X255228Y626088D01*
X254602Y626714D01*
X255128Y627984D01*
X261184D01*
X261184Y627984D01*
X262572Y628260D01*
X263748Y629046D01*
X266724Y632022D01*
X266724Y632022D01*
X267510Y633198D01*
X267786Y634586D01*
Y678059D01*
X267928Y678202D01*
X268605Y679836D01*
Y681604D01*
X267928Y683238D01*
X267786Y683381D01*
Y721360D01*
X267786Y721360D01*
X267510Y722747D01*
X266724Y723924D01*
X266724Y723924D01*
X250561Y740087D01*
Y780274D01*
X251831Y780914D01*
X253036Y780415D01*
X254804D01*
X256438Y781092D01*
X257688Y782342D01*
X258365Y783976D01*
Y785744D01*
X257688Y787378D01*
X257062Y788004D01*
X257588Y789274D01*
X262040D01*
X262040Y789274D01*
X263428Y789550D01*
X264604Y790336D01*
X269184Y794916D01*
X269184Y794916D01*
X269970Y796093D01*
X270246Y797480D01*
Y839350D01*
X270388Y839492D01*
X271065Y841126D01*
Y842894D01*
X270388Y844528D01*
X269138Y845778D01*
X267504Y846455D01*
X267302D01*
X250031Y863727D01*
Y939724D01*
X251301Y940364D01*
X252506Y939865D01*
X254274D01*
X255908Y940542D01*
X257158Y941792D01*
X257835Y943426D01*
Y945194D01*
X257158Y946828D01*
X256532Y947454D01*
X257058Y948724D01*
X260200D01*
X260200Y948724D01*
X261588Y949000D01*
X262764Y949786D01*
X268654Y955676D01*
X268654Y955676D01*
X269440Y956852D01*
X269716Y958240D01*
Y998800D01*
X269858Y998942D01*
X270535Y1000576D01*
Y1002344D01*
X269858Y1003978D01*
X268608Y1005228D01*
X266974Y1005905D01*
X266772D01*
X241371Y1031307D01*
Y1098154D01*
X242641Y1098794D01*
X243846Y1098295D01*
X245614D01*
X247248Y1098972D01*
X248498Y1100222D01*
X249175Y1101856D01*
Y1103624D01*
X248498Y1105258D01*
X247872Y1105884D01*
X248398Y1107154D01*
X252260D01*
X252260Y1107154D01*
X253647Y1107430D01*
X254824Y1108216D01*
X259994Y1113386D01*
X259994Y1113386D01*
X260780Y1114563D01*
X261056Y1115950D01*
X261056Y1115950D01*
Y1157230D01*
X261198Y1157372D01*
X261875Y1159006D01*
Y1160774D01*
X261198Y1162408D01*
X261056Y1162551D01*
Y1263500D01*
X315110D01*
X381000Y1197610D01*
D02*
G37*
G36*
X343004Y881429D02*
Y873880D01*
X342862Y873738D01*
X342185Y872104D01*
Y870336D01*
X342862Y868702D01*
X343004Y868559D01*
Y714258D01*
X341652Y713698D01*
X340402Y712448D01*
X339725Y710814D01*
Y709046D01*
X340402Y707412D01*
X340544Y707270D01*
Y649433D01*
X340544Y649433D01*
X340820Y648046D01*
X341606Y646869D01*
X379914Y608561D01*
Y482832D01*
X307316Y410234D01*
X306530Y409058D01*
X306254Y407670D01*
X306254Y407670D01*
Y391392D01*
X275358Y360496D01*
X232642D01*
X223205Y369932D01*
X223520Y371107D01*
Y373113D01*
X223001Y375051D01*
X221998Y376789D01*
X220579Y378208D01*
X219526Y378815D01*
Y622068D01*
X235182Y637724D01*
X250070D01*
X250212Y637582D01*
X251846Y636905D01*
X253614D01*
X255248Y637582D01*
X256498Y638832D01*
X257175Y640466D01*
Y642234D01*
X256498Y643868D01*
X256356Y644010D01*
Y653414D01*
X256080Y654801D01*
X255294Y655977D01*
X255294Y655977D01*
X230527Y680744D01*
X229351Y681530D01*
X227964Y681806D01*
X227964Y681806D01*
X227562D01*
X211455Y697913D01*
Y698114D01*
X210778Y699748D01*
X210636Y699891D01*
Y761136D01*
X241532Y792032D01*
X242882Y791587D01*
X243309Y790557D01*
Y738585D01*
X243309Y738585D01*
X243585Y737197D01*
X244371Y736021D01*
X260534Y719858D01*
Y683381D01*
X260392Y683238D01*
X259715Y681604D01*
Y679836D01*
X260392Y678202D01*
X260534Y678059D01*
Y636088D01*
X259682Y635236D01*
X247351D01*
X247208Y635378D01*
X245574Y636055D01*
X243806D01*
X242172Y635378D01*
X240922Y634128D01*
X240245Y632494D01*
Y630726D01*
X240849Y629267D01*
Y513433D01*
X240849Y513433D01*
X241125Y512046D01*
X241911Y510869D01*
X245512Y507268D01*
X245067Y505918D01*
X243862Y505418D01*
X242612Y504168D01*
X241935Y502534D01*
Y500766D01*
X242612Y499132D01*
X243862Y497882D01*
X245496Y497205D01*
X247264D01*
X248898Y497882D01*
X250148Y499132D01*
X250648Y500337D01*
X251998Y500782D01*
X252924Y499856D01*
Y378825D01*
X251871Y378218D01*
X250452Y376799D01*
X249449Y375061D01*
X248930Y373123D01*
Y371117D01*
X249449Y369179D01*
X250452Y367441D01*
X251871Y366022D01*
X253609Y365019D01*
X255547Y364500D01*
X257553D01*
X259491Y365019D01*
X261229Y366022D01*
X262647Y367441D01*
X263651Y369179D01*
X264170Y371117D01*
Y373123D01*
X263855Y374298D01*
X367054Y477496D01*
X367054Y477496D01*
X367840Y478672D01*
X368116Y480060D01*
X368116Y480060D01*
Y564978D01*
X368116Y564978D01*
X367840Y566366D01*
X367054Y567542D01*
X336366Y598230D01*
Y664090D01*
X336508Y664232D01*
X337185Y665866D01*
Y667634D01*
X336508Y669268D01*
X336366Y669410D01*
Y714031D01*
X340599Y718264D01*
X340599Y718264D01*
X341385Y719441D01*
X341661Y720828D01*
X341661Y720828D01*
Y769267D01*
X341661Y769267D01*
X341385Y770655D01*
X340599Y771831D01*
X340599Y771831D01*
X338826Y773604D01*
Y825379D01*
X338968Y825522D01*
X339645Y827156D01*
Y828924D01*
X338968Y830558D01*
X338826Y830701D01*
Y878910D01*
X341831Y881915D01*
X343004Y881429D01*
D02*
G37*
%LPC*%
G36*
X306954Y1260475D02*
X305186D01*
X303552Y1259798D01*
X302302Y1258548D01*
X301625Y1256914D01*
Y1255146D01*
X302302Y1253512D01*
X303552Y1252262D01*
X305186Y1251585D01*
X306954D01*
X308588Y1252262D01*
X309838Y1253512D01*
X310515Y1255146D01*
Y1256914D01*
X309838Y1258548D01*
X308588Y1259798D01*
X306954Y1260475D01*
D02*
G37*
G36*
X271394Y1255395D02*
X269626D01*
X267992Y1254718D01*
X266742Y1253468D01*
X266065Y1251834D01*
Y1250066D01*
X266742Y1248432D01*
X267992Y1247182D01*
X269626Y1246505D01*
X271394D01*
X273028Y1247182D01*
X274278Y1248432D01*
X274955Y1250066D01*
Y1251834D01*
X274278Y1253468D01*
X273028Y1254718D01*
X271394Y1255395D01*
D02*
G37*
G36*
X272704Y1219365D02*
X270936D01*
X269302Y1218688D01*
X268052Y1217438D01*
X267375Y1215804D01*
Y1214036D01*
X268052Y1212402D01*
X269302Y1211152D01*
X270936Y1210475D01*
X272704D01*
X274338Y1211152D01*
X275588Y1212402D01*
X276265Y1214036D01*
Y1215804D01*
X275588Y1217438D01*
X274338Y1218688D01*
X272704Y1219365D01*
D02*
G37*
G36*
X305320Y1206020D02*
X303820D01*
X302435Y1205446D01*
X301374Y1204386D01*
X300800Y1203000D01*
Y1201500D01*
X301374Y1200115D01*
X302435Y1199054D01*
X303820Y1198480D01*
X305320D01*
X306706Y1199054D01*
X307766Y1200115D01*
X308340Y1201500D01*
Y1203000D01*
X307766Y1204386D01*
X306706Y1205446D01*
X305320Y1206020D01*
D02*
G37*
G36*
X292320D02*
X290820D01*
X289435Y1205446D01*
X288374Y1204386D01*
X287800Y1203000D01*
Y1201500D01*
X288374Y1200115D01*
X289435Y1199054D01*
X290820Y1198480D01*
X292320D01*
X293706Y1199054D01*
X294766Y1200115D01*
X295340Y1201500D01*
Y1203000D01*
X294766Y1204386D01*
X293706Y1205446D01*
X292320Y1206020D01*
D02*
G37*
G36*
X305320Y1193020D02*
X303820D01*
X302435Y1192446D01*
X301374Y1191385D01*
X300800Y1190000D01*
Y1188500D01*
X301374Y1187114D01*
X302435Y1186054D01*
X303820Y1185480D01*
X305320D01*
X306706Y1186054D01*
X307766Y1187114D01*
X308340Y1188500D01*
Y1190000D01*
X307766Y1191385D01*
X306706Y1192446D01*
X305320Y1193020D01*
D02*
G37*
G36*
X292320D02*
X290820D01*
X289435Y1192446D01*
X288374Y1191385D01*
X287800Y1190000D01*
Y1188500D01*
X288374Y1187114D01*
X289435Y1186054D01*
X290820Y1185480D01*
X292320D01*
X293706Y1186054D01*
X294766Y1187114D01*
X295340Y1188500D01*
Y1190000D01*
X294766Y1191385D01*
X293706Y1192446D01*
X292320Y1193020D01*
D02*
G37*
G36*
X305320Y1180020D02*
X303820D01*
X302435Y1179446D01*
X301374Y1178385D01*
X300800Y1177000D01*
Y1175500D01*
X301374Y1174114D01*
X302435Y1173054D01*
X303820Y1172480D01*
X305320D01*
X306706Y1173054D01*
X307766Y1174114D01*
X308340Y1175500D01*
Y1177000D01*
X307766Y1178385D01*
X306706Y1179446D01*
X305320Y1180020D01*
D02*
G37*
G36*
X292320D02*
X290820D01*
X289435Y1179446D01*
X288374Y1178385D01*
X287800Y1177000D01*
Y1175500D01*
X288374Y1174114D01*
X289435Y1173054D01*
X290820Y1172480D01*
X292320D01*
X293706Y1173054D01*
X294766Y1174114D01*
X295340Y1175500D01*
Y1177000D01*
X294766Y1178385D01*
X293706Y1179446D01*
X292320Y1180020D01*
D02*
G37*
G36*
X305320Y1167020D02*
X303820D01*
X302435Y1166446D01*
X301374Y1165386D01*
X300800Y1164000D01*
Y1162500D01*
X301374Y1161114D01*
X302435Y1160054D01*
X303820Y1159480D01*
X305320D01*
X306706Y1160054D01*
X307766Y1161114D01*
X308340Y1162500D01*
Y1164000D01*
X307766Y1165386D01*
X306706Y1166446D01*
X305320Y1167020D01*
D02*
G37*
G36*
X292320D02*
X290820D01*
X289435Y1166446D01*
X288374Y1165386D01*
X287800Y1164000D01*
Y1162500D01*
X288374Y1161114D01*
X289435Y1160054D01*
X290820Y1159480D01*
X292320D01*
X293706Y1160054D01*
X294766Y1161114D01*
X295340Y1162500D01*
Y1164000D01*
X294766Y1165386D01*
X293706Y1166446D01*
X292320Y1167020D01*
D02*
G37*
G36*
X417550Y1167026D02*
X415570D01*
X413659Y1166514D01*
X411945Y1165524D01*
X410546Y1164125D01*
X409556Y1162411D01*
X409044Y1160499D01*
Y1158521D01*
X409556Y1156609D01*
X410546Y1154895D01*
X411945Y1153496D01*
X413659Y1152506D01*
X415570Y1151994D01*
X417550D01*
X419461Y1152506D01*
X421175Y1153496D01*
X422574Y1154895D01*
X423564Y1156609D01*
X424076Y1158521D01*
Y1160499D01*
X423564Y1162411D01*
X422574Y1164125D01*
X421175Y1165524D01*
X419461Y1166514D01*
X417550Y1167026D01*
D02*
G37*
G36*
X292620Y1150140D02*
X291120D01*
X289734Y1149566D01*
X288674Y1148505D01*
X288100Y1147120D01*
Y1145620D01*
X288674Y1144234D01*
X289734Y1143174D01*
X291120Y1142600D01*
X292620D01*
X294006Y1143174D01*
X295066Y1144234D01*
X295640Y1145620D01*
Y1147120D01*
X295066Y1148505D01*
X294006Y1149566D01*
X292620Y1150140D01*
D02*
G37*
G36*
X279620D02*
X278120D01*
X276735Y1149566D01*
X275674Y1148505D01*
X275100Y1147120D01*
Y1145620D01*
X275674Y1144234D01*
X276735Y1143174D01*
X278120Y1142600D01*
X279620D01*
X281005Y1143174D01*
X282066Y1144234D01*
X282640Y1145620D01*
Y1147120D01*
X282066Y1148505D01*
X281005Y1149566D01*
X279620Y1150140D01*
D02*
G37*
G36*
X213880Y1147300D02*
X212380D01*
X210994Y1146726D01*
X209934Y1145666D01*
X209360Y1144280D01*
Y1142780D01*
X209934Y1141395D01*
X210994Y1140334D01*
X212380Y1139760D01*
X213880D01*
X215266Y1140334D01*
X216326Y1141395D01*
X216900Y1142780D01*
Y1144280D01*
X216326Y1145666D01*
X215266Y1146726D01*
X213880Y1147300D01*
D02*
G37*
G36*
X200880D02*
X199380D01*
X197994Y1146726D01*
X196934Y1145666D01*
X196360Y1144280D01*
Y1142780D01*
X196934Y1141395D01*
X197994Y1140334D01*
X199380Y1139760D01*
X200880D01*
X202265Y1140334D01*
X203326Y1141395D01*
X203900Y1142780D01*
Y1144280D01*
X203326Y1145666D01*
X202265Y1146726D01*
X200880Y1147300D01*
D02*
G37*
G36*
X187880D02*
X186380D01*
X184995Y1146726D01*
X183934Y1145666D01*
X183360Y1144280D01*
Y1142780D01*
X183934Y1141395D01*
X184995Y1140334D01*
X186380Y1139760D01*
X187880D01*
X189265Y1140334D01*
X190326Y1141395D01*
X190900Y1142780D01*
Y1144280D01*
X190326Y1145666D01*
X189265Y1146726D01*
X187880Y1147300D01*
D02*
G37*
G36*
X292620Y1137140D02*
X291120D01*
X289734Y1136566D01*
X288674Y1135506D01*
X288100Y1134120D01*
Y1132620D01*
X288674Y1131235D01*
X289734Y1130174D01*
X291120Y1129600D01*
X292620D01*
X294006Y1130174D01*
X295066Y1131235D01*
X295640Y1132620D01*
Y1134120D01*
X295066Y1135506D01*
X294006Y1136566D01*
X292620Y1137140D01*
D02*
G37*
G36*
X279620D02*
X278120D01*
X276735Y1136566D01*
X275674Y1135506D01*
X275100Y1134120D01*
Y1132620D01*
X275674Y1131235D01*
X276735Y1130174D01*
X278120Y1129600D01*
X279620D01*
X281005Y1130174D01*
X282066Y1131235D01*
X282640Y1132620D01*
Y1134120D01*
X282066Y1135506D01*
X281005Y1136566D01*
X279620Y1137140D01*
D02*
G37*
G36*
X226880Y1134300D02*
X225380D01*
X223995Y1133726D01*
X222934Y1132665D01*
X222360Y1131280D01*
Y1129780D01*
X222934Y1128394D01*
X223995Y1127334D01*
X225380Y1126760D01*
X226880D01*
X228266Y1127334D01*
X229326Y1128394D01*
X229900Y1129780D01*
Y1131280D01*
X229326Y1132665D01*
X228266Y1133726D01*
X226880Y1134300D01*
D02*
G37*
G36*
X213880D02*
X212380D01*
X210994Y1133726D01*
X209934Y1132665D01*
X209360Y1131280D01*
Y1129780D01*
X209934Y1128394D01*
X210994Y1127334D01*
X212380Y1126760D01*
X213880D01*
X215266Y1127334D01*
X216326Y1128394D01*
X216900Y1129780D01*
Y1131280D01*
X216326Y1132665D01*
X215266Y1133726D01*
X213880Y1134300D01*
D02*
G37*
G36*
X200880D02*
X199380D01*
X197994Y1133726D01*
X196934Y1132665D01*
X196360Y1131280D01*
Y1129780D01*
X196934Y1128394D01*
X197994Y1127334D01*
X199380Y1126760D01*
X200880D01*
X202265Y1127334D01*
X203326Y1128394D01*
X203900Y1129780D01*
Y1131280D01*
X203326Y1132665D01*
X202265Y1133726D01*
X200880Y1134300D01*
D02*
G37*
G36*
X292620Y1124140D02*
X291120D01*
X289734Y1123566D01*
X288674Y1122505D01*
X288100Y1121120D01*
Y1119620D01*
X288674Y1118234D01*
X289734Y1117174D01*
X291120Y1116600D01*
X292620D01*
X294006Y1117174D01*
X295066Y1118234D01*
X295640Y1119620D01*
Y1121120D01*
X295066Y1122505D01*
X294006Y1123566D01*
X292620Y1124140D01*
D02*
G37*
G36*
X279620D02*
X278120D01*
X276735Y1123566D01*
X275674Y1122505D01*
X275100Y1121120D01*
Y1119620D01*
X275674Y1118234D01*
X276735Y1117174D01*
X278120Y1116600D01*
X279620D01*
X281005Y1117174D01*
X282066Y1118234D01*
X282640Y1119620D01*
Y1121120D01*
X282066Y1122505D01*
X281005Y1123566D01*
X279620Y1124140D01*
D02*
G37*
G36*
X292620Y1111140D02*
X291120D01*
X289734Y1110566D01*
X288674Y1109505D01*
X288100Y1108120D01*
Y1106620D01*
X288674Y1105234D01*
X289734Y1104174D01*
X291120Y1103600D01*
X292620D01*
X294006Y1104174D01*
X295066Y1105234D01*
X295640Y1106620D01*
Y1108120D01*
X295066Y1109505D01*
X294006Y1110566D01*
X292620Y1111140D01*
D02*
G37*
G36*
X279620D02*
X278120D01*
X276735Y1110566D01*
X275674Y1109505D01*
X275100Y1108120D01*
Y1106620D01*
X275674Y1105234D01*
X276735Y1104174D01*
X278120Y1103600D01*
X279620D01*
X281005Y1104174D01*
X282066Y1105234D01*
X282640Y1106620D01*
Y1108120D01*
X282066Y1109505D01*
X281005Y1110566D01*
X279620Y1111140D01*
D02*
G37*
G36*
X312504Y1099985D02*
X310736D01*
X309102Y1099308D01*
X307852Y1098058D01*
X307175Y1096424D01*
Y1094656D01*
X307852Y1093022D01*
X309102Y1091772D01*
X310736Y1091095D01*
X312504D01*
X314138Y1091772D01*
X315388Y1093022D01*
X316065Y1094656D01*
Y1096424D01*
X315388Y1098058D01*
X314138Y1099308D01*
X312504Y1099985D01*
D02*
G37*
G36*
X493750Y1090826D02*
X491771D01*
X489859Y1090314D01*
X488145Y1089324D01*
X486746Y1087925D01*
X485756Y1086211D01*
X485244Y1084299D01*
Y1082320D01*
X485756Y1080409D01*
X486746Y1078695D01*
X488145Y1077296D01*
X489859Y1076306D01*
X491771Y1075794D01*
X493750D01*
X495661Y1076306D01*
X497375Y1077296D01*
X498774Y1078695D01*
X499764Y1080409D01*
X500276Y1082320D01*
Y1084299D01*
X499764Y1086211D01*
X498774Y1087925D01*
X497375Y1089324D01*
X495661Y1090314D01*
X493750Y1090826D01*
D02*
G37*
G36*
X417550D02*
X415570D01*
X413659Y1090314D01*
X411945Y1089324D01*
X410546Y1087925D01*
X409556Y1086211D01*
X409044Y1084299D01*
Y1082320D01*
X409556Y1080409D01*
X410546Y1078695D01*
X411945Y1077296D01*
X413659Y1076306D01*
X415570Y1075794D01*
X417550D01*
X419461Y1076306D01*
X421175Y1077296D01*
X422574Y1078695D01*
X423564Y1080409D01*
X424076Y1082320D01*
Y1084299D01*
X423564Y1086211D01*
X422574Y1087925D01*
X421175Y1089324D01*
X419461Y1090314D01*
X417550Y1090826D01*
D02*
G37*
G36*
X249424Y1084325D02*
X247656D01*
X246022Y1083648D01*
X244772Y1082398D01*
X244095Y1080764D01*
Y1078996D01*
X244772Y1077362D01*
X246022Y1076112D01*
X247656Y1075435D01*
X249424D01*
X251058Y1076112D01*
X252308Y1077362D01*
X252985Y1078996D01*
Y1080764D01*
X252308Y1082398D01*
X251058Y1083648D01*
X249424Y1084325D01*
D02*
G37*
G36*
X249994Y1068515D02*
X248226D01*
X246592Y1067838D01*
X245342Y1066588D01*
X244665Y1064954D01*
Y1063186D01*
X245342Y1061552D01*
X246592Y1060302D01*
X248226Y1059625D01*
X249994D01*
X251628Y1060302D01*
X252878Y1061552D01*
X253555Y1063186D01*
Y1064954D01*
X252878Y1066588D01*
X251628Y1067838D01*
X249994Y1068515D01*
D02*
G37*
G36*
X281364Y1060935D02*
X279596D01*
X277962Y1060258D01*
X276712Y1059008D01*
X276035Y1057374D01*
Y1055606D01*
X276712Y1053972D01*
X277962Y1052722D01*
X279596Y1052045D01*
X281364D01*
X282998Y1052722D01*
X284248Y1053972D01*
X284925Y1055606D01*
Y1057374D01*
X284248Y1059008D01*
X282998Y1060258D01*
X281364Y1060935D01*
D02*
G37*
G36*
X313980Y1047590D02*
X312480D01*
X311094Y1047016D01*
X310034Y1045956D01*
X309460Y1044570D01*
Y1043070D01*
X310034Y1041684D01*
X311094Y1040624D01*
X312480Y1040050D01*
X313980D01*
X315366Y1040624D01*
X316426Y1041684D01*
X317000Y1043070D01*
Y1044570D01*
X316426Y1045956D01*
X315366Y1047016D01*
X313980Y1047590D01*
D02*
G37*
G36*
X300980D02*
X299480D01*
X298095Y1047016D01*
X297034Y1045956D01*
X296460Y1044570D01*
Y1043070D01*
X297034Y1041684D01*
X298095Y1040624D01*
X299480Y1040050D01*
X300980D01*
X302365Y1040624D01*
X303426Y1041684D01*
X304000Y1043070D01*
Y1044570D01*
X303426Y1045956D01*
X302365Y1047016D01*
X300980Y1047590D01*
D02*
G37*
G36*
X313980Y1034590D02*
X312480D01*
X311094Y1034016D01*
X310034Y1032955D01*
X309460Y1031570D01*
Y1030070D01*
X310034Y1028684D01*
X311094Y1027624D01*
X312480Y1027050D01*
X313980D01*
X315366Y1027624D01*
X316426Y1028684D01*
X317000Y1030070D01*
Y1031570D01*
X316426Y1032955D01*
X315366Y1034016D01*
X313980Y1034590D01*
D02*
G37*
G36*
X300980D02*
X299480D01*
X298095Y1034016D01*
X297034Y1032955D01*
X296460Y1031570D01*
Y1030070D01*
X297034Y1028684D01*
X298095Y1027624D01*
X299480Y1027050D01*
X300980D01*
X302365Y1027624D01*
X303426Y1028684D01*
X304000Y1030070D01*
Y1031570D01*
X303426Y1032955D01*
X302365Y1034016D01*
X300980Y1034590D01*
D02*
G37*
G36*
X313980Y1021590D02*
X312480D01*
X311094Y1021016D01*
X310034Y1019956D01*
X309460Y1018570D01*
Y1017070D01*
X310034Y1015685D01*
X311094Y1014624D01*
X312480Y1014050D01*
X313980D01*
X315366Y1014624D01*
X316426Y1015685D01*
X317000Y1017070D01*
Y1018570D01*
X316426Y1019956D01*
X315366Y1021016D01*
X313980Y1021590D01*
D02*
G37*
G36*
X300980D02*
X299480D01*
X298095Y1021016D01*
X297034Y1019956D01*
X296460Y1018570D01*
Y1017070D01*
X297034Y1015685D01*
X298095Y1014624D01*
X299480Y1014050D01*
X300980D01*
X302365Y1014624D01*
X303426Y1015685D01*
X304000Y1017070D01*
Y1018570D01*
X303426Y1019956D01*
X302365Y1021016D01*
X300980Y1021590D01*
D02*
G37*
G36*
X313980Y1008590D02*
X312480D01*
X311094Y1008016D01*
X310034Y1006955D01*
X309460Y1005570D01*
Y1004070D01*
X310034Y1002684D01*
X311094Y1001624D01*
X312480Y1001050D01*
X313980D01*
X315366Y1001624D01*
X316426Y1002684D01*
X317000Y1004070D01*
Y1005570D01*
X316426Y1006955D01*
X315366Y1008016D01*
X313980Y1008590D01*
D02*
G37*
G36*
X300980D02*
X299480D01*
X298095Y1008016D01*
X297034Y1006955D01*
X296460Y1005570D01*
Y1004070D01*
X297034Y1002684D01*
X298095Y1001624D01*
X299480Y1001050D01*
X300980D01*
X302365Y1001624D01*
X303426Y1002684D01*
X304000Y1004070D01*
Y1005570D01*
X303426Y1006955D01*
X302365Y1008016D01*
X300980Y1008590D01*
D02*
G37*
G36*
X301280Y991710D02*
X299780D01*
X298395Y991136D01*
X297334Y990076D01*
X296760Y988690D01*
Y987190D01*
X297334Y985805D01*
X298395Y984744D01*
X299780Y984170D01*
X301280D01*
X302666Y984744D01*
X303726Y985805D01*
X304300Y987190D01*
Y988690D01*
X303726Y990076D01*
X302666Y991136D01*
X301280Y991710D01*
D02*
G37*
G36*
X288280D02*
X286780D01*
X285394Y991136D01*
X284334Y990076D01*
X283760Y988690D01*
Y987190D01*
X284334Y985805D01*
X285394Y984744D01*
X286780Y984170D01*
X288280D01*
X289666Y984744D01*
X290726Y985805D01*
X291300Y987190D01*
Y988690D01*
X290726Y990076D01*
X289666Y991136D01*
X288280Y991710D01*
D02*
G37*
G36*
X235540Y988870D02*
X234040D01*
X232654Y988296D01*
X231594Y987235D01*
X231020Y985850D01*
Y984350D01*
X231594Y982964D01*
X232654Y981904D01*
X234040Y981330D01*
X235540D01*
X236926Y981904D01*
X237986Y982964D01*
X238560Y984350D01*
Y985850D01*
X237986Y987235D01*
X236926Y988296D01*
X235540Y988870D01*
D02*
G37*
G36*
X222540D02*
X221040D01*
X219655Y988296D01*
X218594Y987235D01*
X218020Y985850D01*
Y984350D01*
X218594Y982964D01*
X219655Y981904D01*
X221040Y981330D01*
X222540D01*
X223926Y981904D01*
X224986Y982964D01*
X225560Y984350D01*
Y985850D01*
X224986Y987235D01*
X223926Y988296D01*
X222540Y988870D01*
D02*
G37*
G36*
X209540D02*
X208040D01*
X206654Y988296D01*
X205594Y987235D01*
X205020Y985850D01*
Y984350D01*
X205594Y982964D01*
X206654Y981904D01*
X208040Y981330D01*
X209540D01*
X210926Y981904D01*
X211986Y982964D01*
X212560Y984350D01*
Y985850D01*
X211986Y987235D01*
X210926Y988296D01*
X209540Y988870D01*
D02*
G37*
G36*
X196540D02*
X195040D01*
X193654Y988296D01*
X192594Y987235D01*
X192020Y985850D01*
Y984350D01*
X192594Y982964D01*
X193654Y981904D01*
X195040Y981330D01*
X196540D01*
X197925Y981904D01*
X198986Y982964D01*
X199560Y984350D01*
Y985850D01*
X198986Y987235D01*
X197925Y988296D01*
X196540Y988870D01*
D02*
G37*
G36*
X301280Y978710D02*
X299780D01*
X298395Y978136D01*
X297334Y977076D01*
X296760Y975690D01*
Y974190D01*
X297334Y972804D01*
X298395Y971744D01*
X299780Y971170D01*
X301280D01*
X302666Y971744D01*
X303726Y972804D01*
X304300Y974190D01*
Y975690D01*
X303726Y977076D01*
X302666Y978136D01*
X301280Y978710D01*
D02*
G37*
G36*
X288280D02*
X286780D01*
X285394Y978136D01*
X284334Y977076D01*
X283760Y975690D01*
Y974190D01*
X284334Y972804D01*
X285394Y971744D01*
X286780Y971170D01*
X288280D01*
X289666Y971744D01*
X290726Y972804D01*
X291300Y974190D01*
Y975690D01*
X290726Y977076D01*
X289666Y978136D01*
X288280Y978710D01*
D02*
G37*
G36*
X235540Y975870D02*
X234040D01*
X232654Y975296D01*
X231594Y974236D01*
X231020Y972850D01*
Y971350D01*
X231594Y969965D01*
X232654Y968904D01*
X234040Y968330D01*
X235540D01*
X236926Y968904D01*
X237986Y969965D01*
X238560Y971350D01*
Y972850D01*
X237986Y974236D01*
X236926Y975296D01*
X235540Y975870D01*
D02*
G37*
G36*
X222540D02*
X221040D01*
X219655Y975296D01*
X218594Y974236D01*
X218020Y972850D01*
Y971350D01*
X218594Y969965D01*
X219655Y968904D01*
X221040Y968330D01*
X222540D01*
X223926Y968904D01*
X224986Y969965D01*
X225560Y971350D01*
Y972850D01*
X224986Y974236D01*
X223926Y975296D01*
X222540Y975870D01*
D02*
G37*
G36*
X209540D02*
X208040D01*
X206654Y975296D01*
X205594Y974236D01*
X205020Y972850D01*
Y971350D01*
X205594Y969965D01*
X206654Y968904D01*
X208040Y968330D01*
X209540D01*
X210926Y968904D01*
X211986Y969965D01*
X212560Y971350D01*
Y972850D01*
X211986Y974236D01*
X210926Y975296D01*
X209540Y975870D01*
D02*
G37*
G36*
X196540D02*
X195040D01*
X193654Y975296D01*
X192594Y974236D01*
X192020Y972850D01*
Y971350D01*
X192594Y969965D01*
X193654Y968904D01*
X195040Y968330D01*
X196540D01*
X197925Y968904D01*
X198986Y969965D01*
X199560Y971350D01*
Y972850D01*
X198986Y974236D01*
X197925Y975296D01*
X196540Y975870D01*
D02*
G37*
G36*
X301280Y965710D02*
X299780D01*
X298395Y965136D01*
X297334Y964075D01*
X296760Y962690D01*
Y961190D01*
X297334Y959805D01*
X298395Y958744D01*
X299780Y958170D01*
X301280D01*
X302666Y958744D01*
X303726Y959805D01*
X304300Y961190D01*
Y962690D01*
X303726Y964075D01*
X302666Y965136D01*
X301280Y965710D01*
D02*
G37*
G36*
X288280D02*
X286780D01*
X285394Y965136D01*
X284334Y964075D01*
X283760Y962690D01*
Y961190D01*
X284334Y959805D01*
X285394Y958744D01*
X286780Y958170D01*
X288280D01*
X289666Y958744D01*
X290726Y959805D01*
X291300Y961190D01*
Y962690D01*
X290726Y964075D01*
X289666Y965136D01*
X288280Y965710D01*
D02*
G37*
G36*
X493750Y963826D02*
X491771D01*
X489859Y963314D01*
X488145Y962324D01*
X486746Y960925D01*
X485756Y959211D01*
X485244Y957299D01*
Y955321D01*
X485756Y953409D01*
X486746Y951695D01*
X488145Y950296D01*
X489859Y949306D01*
X491771Y948794D01*
X493750D01*
X495661Y949306D01*
X497375Y950296D01*
X498774Y951695D01*
X499764Y953409D01*
X500276Y955321D01*
Y957299D01*
X499764Y959211D01*
X498774Y960925D01*
X497375Y962324D01*
X495661Y963314D01*
X493750Y963826D01*
D02*
G37*
G36*
X417550D02*
X415570D01*
X413659Y963314D01*
X411945Y962324D01*
X410546Y960925D01*
X409556Y959211D01*
X409044Y957299D01*
Y955321D01*
X409556Y953409D01*
X410546Y951695D01*
X411945Y950296D01*
X413659Y949306D01*
X415570Y948794D01*
X417550D01*
X419461Y949306D01*
X421175Y950296D01*
X422574Y951695D01*
X423564Y953409D01*
X424076Y955321D01*
Y957299D01*
X423564Y959211D01*
X422574Y960925D01*
X421175Y962324D01*
X419461Y963314D01*
X417550Y963826D01*
D02*
G37*
G36*
X301280Y952710D02*
X299780D01*
X298395Y952136D01*
X297334Y951076D01*
X296760Y949690D01*
Y948190D01*
X297334Y946805D01*
X298395Y945744D01*
X299780Y945170D01*
X301280D01*
X302666Y945744D01*
X303726Y946805D01*
X304300Y948190D01*
Y949690D01*
X303726Y951076D01*
X302666Y952136D01*
X301280Y952710D01*
D02*
G37*
G36*
X288280D02*
X286780D01*
X285394Y952136D01*
X284334Y951076D01*
X283760Y949690D01*
Y948190D01*
X284334Y946805D01*
X285394Y945744D01*
X286780Y945170D01*
X288280D01*
X289666Y945744D01*
X290726Y946805D01*
X291300Y948190D01*
Y949690D01*
X290726Y951076D01*
X289666Y952136D01*
X288280Y952710D01*
D02*
G37*
G36*
X321164Y941555D02*
X319396D01*
X317762Y940878D01*
X316512Y939628D01*
X315835Y937994D01*
Y936226D01*
X316512Y934592D01*
X317762Y933342D01*
X319396Y932665D01*
X321164D01*
X322798Y933342D01*
X324048Y934592D01*
X324725Y936226D01*
Y937994D01*
X324048Y939628D01*
X322798Y940878D01*
X321164Y941555D01*
D02*
G37*
G36*
X258084Y925895D02*
X256316D01*
X254682Y925218D01*
X253432Y923968D01*
X252755Y922334D01*
Y920566D01*
X253432Y918932D01*
X254682Y917682D01*
X256316Y917005D01*
X258084D01*
X259718Y917682D01*
X260968Y918932D01*
X261645Y920566D01*
Y922334D01*
X260968Y923968D01*
X259718Y925218D01*
X258084Y925895D01*
D02*
G37*
G36*
X258654Y910085D02*
X256886D01*
X255252Y909408D01*
X254002Y908158D01*
X253325Y906524D01*
Y904756D01*
X254002Y903122D01*
X255252Y901872D01*
X256886Y901195D01*
X258654D01*
X260288Y901872D01*
X261538Y903122D01*
X262215Y904756D01*
Y906524D01*
X261538Y908158D01*
X260288Y909408D01*
X258654Y910085D01*
D02*
G37*
G36*
X281894Y901485D02*
X280126D01*
X278492Y900808D01*
X277242Y899558D01*
X276565Y897924D01*
Y896156D01*
X277242Y894522D01*
X278492Y893272D01*
X280126Y892595D01*
X281894D01*
X283528Y893272D01*
X284778Y894522D01*
X285455Y896156D01*
Y897924D01*
X284778Y899558D01*
X283528Y900808D01*
X281894Y901485D01*
D02*
G37*
G36*
X314510Y888140D02*
X313010D01*
X311625Y887566D01*
X310564Y886506D01*
X309990Y885120D01*
Y883620D01*
X310564Y882234D01*
X311625Y881174D01*
X313010Y880600D01*
X314510D01*
X315896Y881174D01*
X316956Y882234D01*
X317530Y883620D01*
Y885120D01*
X316956Y886506D01*
X315896Y887566D01*
X314510Y888140D01*
D02*
G37*
G36*
X301510D02*
X300010D01*
X298624Y887566D01*
X297564Y886506D01*
X296990Y885120D01*
Y883620D01*
X297564Y882234D01*
X298624Y881174D01*
X300010Y880600D01*
X301510D01*
X302896Y881174D01*
X303956Y882234D01*
X304530Y883620D01*
Y885120D01*
X303956Y886506D01*
X302896Y887566D01*
X301510Y888140D01*
D02*
G37*
G36*
X493750Y887626D02*
X491771D01*
X489859Y887114D01*
X488145Y886124D01*
X486746Y884725D01*
X485756Y883011D01*
X485244Y881099D01*
Y879120D01*
X485756Y877209D01*
X486746Y875495D01*
X488145Y874096D01*
X489859Y873106D01*
X491771Y872594D01*
X493750D01*
X495661Y873106D01*
X497375Y874096D01*
X498774Y875495D01*
X499764Y877209D01*
X500276Y879120D01*
Y881099D01*
X499764Y883011D01*
X498774Y884725D01*
X497375Y886124D01*
X495661Y887114D01*
X493750Y887626D01*
D02*
G37*
G36*
X417550D02*
X415570D01*
X413659Y887114D01*
X411945Y886124D01*
X410546Y884725D01*
X409556Y883011D01*
X409044Y881099D01*
Y879120D01*
X409556Y877209D01*
X410546Y875495D01*
X411945Y874096D01*
X413659Y873106D01*
X415570Y872594D01*
X417550D01*
X419461Y873106D01*
X421175Y874096D01*
X422574Y875495D01*
X423564Y877209D01*
X424076Y879120D01*
Y881099D01*
X423564Y883011D01*
X422574Y884725D01*
X421175Y886124D01*
X419461Y887114D01*
X417550Y887626D01*
D02*
G37*
G36*
X314510Y875140D02*
X313010D01*
X311625Y874566D01*
X310564Y873505D01*
X309990Y872120D01*
Y870620D01*
X310564Y869234D01*
X311625Y868174D01*
X313010Y867600D01*
X314510D01*
X315896Y868174D01*
X316956Y869234D01*
X317530Y870620D01*
Y872120D01*
X316956Y873505D01*
X315896Y874566D01*
X314510Y875140D01*
D02*
G37*
G36*
X301510D02*
X300010D01*
X298624Y874566D01*
X297564Y873505D01*
X296990Y872120D01*
Y870620D01*
X297564Y869234D01*
X298624Y868174D01*
X300010Y867600D01*
X301510D01*
X302896Y868174D01*
X303956Y869234D01*
X304530Y870620D01*
Y872120D01*
X303956Y873505D01*
X302896Y874566D01*
X301510Y875140D01*
D02*
G37*
G36*
X314510Y862140D02*
X313010D01*
X311625Y861566D01*
X310564Y860506D01*
X309990Y859120D01*
Y857620D01*
X310564Y856235D01*
X311625Y855174D01*
X313010Y854600D01*
X314510D01*
X315896Y855174D01*
X316956Y856235D01*
X317530Y857620D01*
Y859120D01*
X316956Y860506D01*
X315896Y861566D01*
X314510Y862140D01*
D02*
G37*
G36*
X301510D02*
X300010D01*
X298624Y861566D01*
X297564Y860506D01*
X296990Y859120D01*
Y857620D01*
X297564Y856235D01*
X298624Y855174D01*
X300010Y854600D01*
X301510D01*
X302896Y855174D01*
X303956Y856235D01*
X304530Y857620D01*
Y859120D01*
X303956Y860506D01*
X302896Y861566D01*
X301510Y862140D01*
D02*
G37*
G36*
X314510Y849140D02*
X313010D01*
X311625Y848566D01*
X310564Y847505D01*
X309990Y846120D01*
Y844620D01*
X310564Y843234D01*
X311625Y842174D01*
X313010Y841600D01*
X314510D01*
X315896Y842174D01*
X316956Y843234D01*
X317530Y844620D01*
Y846120D01*
X316956Y847505D01*
X315896Y848566D01*
X314510Y849140D01*
D02*
G37*
G36*
X301510D02*
X300010D01*
X298624Y848566D01*
X297564Y847505D01*
X296990Y846120D01*
Y844620D01*
X297564Y843234D01*
X298624Y842174D01*
X300010Y841600D01*
X301510D01*
X302896Y842174D01*
X303956Y843234D01*
X304530Y844620D01*
Y846120D01*
X303956Y847505D01*
X302896Y848566D01*
X301510Y849140D01*
D02*
G37*
G36*
X301810Y832260D02*
X300310D01*
X298925Y831686D01*
X297864Y830626D01*
X297290Y829240D01*
Y827740D01*
X297864Y826355D01*
X298925Y825294D01*
X300310Y824720D01*
X301810D01*
X303196Y825294D01*
X304256Y826355D01*
X304830Y827740D01*
Y829240D01*
X304256Y830626D01*
X303196Y831686D01*
X301810Y832260D01*
D02*
G37*
G36*
X288810D02*
X287310D01*
X285924Y831686D01*
X284864Y830626D01*
X284290Y829240D01*
Y827740D01*
X284864Y826355D01*
X285924Y825294D01*
X287310Y824720D01*
X288810D01*
X290196Y825294D01*
X291256Y826355D01*
X291830Y827740D01*
Y829240D01*
X291256Y830626D01*
X290196Y831686D01*
X288810Y832260D01*
D02*
G37*
G36*
X223070Y829420D02*
X221570D01*
X220184Y828846D01*
X219124Y827785D01*
X218550Y826400D01*
Y824900D01*
X219124Y823514D01*
X220184Y822454D01*
X221570Y821880D01*
X223070D01*
X224456Y822454D01*
X225516Y823514D01*
X226090Y824900D01*
Y826400D01*
X225516Y827785D01*
X224456Y828846D01*
X223070Y829420D01*
D02*
G37*
G36*
X210070D02*
X208570D01*
X207185Y828846D01*
X206124Y827785D01*
X205550Y826400D01*
Y824900D01*
X206124Y823514D01*
X207185Y822454D01*
X208570Y821880D01*
X210070D01*
X211455Y822454D01*
X212516Y823514D01*
X213090Y824900D01*
Y826400D01*
X212516Y827785D01*
X211455Y828846D01*
X210070Y829420D01*
D02*
G37*
G36*
X197070D02*
X195570D01*
X194184Y828846D01*
X193124Y827785D01*
X192550Y826400D01*
Y824900D01*
X193124Y823514D01*
X194184Y822454D01*
X195570Y821880D01*
X197070D01*
X198456Y822454D01*
X199516Y823514D01*
X200090Y824900D01*
Y826400D01*
X199516Y827785D01*
X198456Y828846D01*
X197070Y829420D01*
D02*
G37*
G36*
X301810Y819260D02*
X300310D01*
X298925Y818686D01*
X297864Y817626D01*
X297290Y816240D01*
Y814740D01*
X297864Y813354D01*
X298925Y812294D01*
X300310Y811720D01*
X301810D01*
X303196Y812294D01*
X304256Y813354D01*
X304830Y814740D01*
Y816240D01*
X304256Y817626D01*
X303196Y818686D01*
X301810Y819260D01*
D02*
G37*
G36*
X288810D02*
X287310D01*
X285924Y818686D01*
X284864Y817626D01*
X284290Y816240D01*
Y814740D01*
X284864Y813354D01*
X285924Y812294D01*
X287310Y811720D01*
X288810D01*
X290196Y812294D01*
X291256Y813354D01*
X291830Y814740D01*
Y816240D01*
X291256Y817626D01*
X290196Y818686D01*
X288810Y819260D01*
D02*
G37*
G36*
X236070Y816420D02*
X234570D01*
X233185Y815846D01*
X232124Y814786D01*
X231550Y813400D01*
Y811900D01*
X232124Y810515D01*
X233185Y809454D01*
X234570Y808880D01*
X236070D01*
X237456Y809454D01*
X238516Y810515D01*
X239090Y811900D01*
Y813400D01*
X238516Y814786D01*
X237456Y815846D01*
X236070Y816420D01*
D02*
G37*
G36*
X223070D02*
X221570D01*
X220184Y815846D01*
X219124Y814786D01*
X218550Y813400D01*
Y811900D01*
X219124Y810515D01*
X220184Y809454D01*
X221570Y808880D01*
X223070D01*
X224456Y809454D01*
X225516Y810515D01*
X226090Y811900D01*
Y813400D01*
X225516Y814786D01*
X224456Y815846D01*
X223070Y816420D01*
D02*
G37*
G36*
X210070D02*
X208570D01*
X207185Y815846D01*
X206124Y814786D01*
X205550Y813400D01*
Y811900D01*
X206124Y810515D01*
X207185Y809454D01*
X208570Y808880D01*
X210070D01*
X211455Y809454D01*
X212516Y810515D01*
X213090Y811900D01*
Y813400D01*
X212516Y814786D01*
X211455Y815846D01*
X210070Y816420D01*
D02*
G37*
G36*
X301810Y806260D02*
X300310D01*
X298925Y805686D01*
X297864Y804625D01*
X297290Y803240D01*
Y801740D01*
X297864Y800355D01*
X298925Y799294D01*
X300310Y798720D01*
X301810D01*
X303196Y799294D01*
X304256Y800355D01*
X304830Y801740D01*
Y803240D01*
X304256Y804625D01*
X303196Y805686D01*
X301810Y806260D01*
D02*
G37*
G36*
X288810D02*
X287310D01*
X285924Y805686D01*
X284864Y804625D01*
X284290Y803240D01*
Y801740D01*
X284864Y800355D01*
X285924Y799294D01*
X287310Y798720D01*
X288810D01*
X290196Y799294D01*
X291256Y800355D01*
X291830Y801740D01*
Y803240D01*
X291256Y804625D01*
X290196Y805686D01*
X288810Y806260D01*
D02*
G37*
G36*
X301810Y793260D02*
X300310D01*
X298925Y792686D01*
X297864Y791626D01*
X297290Y790240D01*
Y788740D01*
X297864Y787355D01*
X298925Y786294D01*
X300310Y785720D01*
X301810D01*
X303196Y786294D01*
X304256Y787355D01*
X304830Y788740D01*
Y790240D01*
X304256Y791626D01*
X303196Y792686D01*
X301810Y793260D01*
D02*
G37*
G36*
X288810D02*
X287310D01*
X285924Y792686D01*
X284864Y791626D01*
X284290Y790240D01*
Y788740D01*
X284864Y787355D01*
X285924Y786294D01*
X287310Y785720D01*
X288810D01*
X290196Y786294D01*
X291256Y787355D01*
X291830Y788740D01*
Y790240D01*
X291256Y791626D01*
X290196Y792686D01*
X288810Y793260D01*
D02*
G37*
G36*
X321694Y782105D02*
X319926D01*
X318292Y781428D01*
X317042Y780178D01*
X316365Y778544D01*
Y776776D01*
X317042Y775142D01*
X318292Y773892D01*
X319926Y773215D01*
X321694D01*
X323328Y773892D01*
X324578Y775142D01*
X325255Y776776D01*
Y778544D01*
X324578Y780178D01*
X323328Y781428D01*
X321694Y782105D01*
D02*
G37*
G36*
X258614Y766445D02*
X256846D01*
X255212Y765768D01*
X253962Y764518D01*
X253285Y762884D01*
Y761116D01*
X253962Y759482D01*
X255212Y758232D01*
X256846Y757555D01*
X258614D01*
X260248Y758232D01*
X261498Y759482D01*
X262175Y761116D01*
Y762884D01*
X261498Y764518D01*
X260248Y765768D01*
X258614Y766445D01*
D02*
G37*
G36*
X493750Y760626D02*
X491771D01*
X489859Y760114D01*
X488145Y759124D01*
X486746Y757725D01*
X485756Y756011D01*
X485244Y754100D01*
Y752121D01*
X485756Y750209D01*
X486746Y748495D01*
X488145Y747096D01*
X489859Y746106D01*
X491771Y745594D01*
X493750D01*
X495661Y746106D01*
X497375Y747096D01*
X498774Y748495D01*
X499764Y750209D01*
X500276Y752121D01*
Y754100D01*
X499764Y756011D01*
X498774Y757725D01*
X497375Y759124D01*
X495661Y760114D01*
X493750Y760626D01*
D02*
G37*
G36*
X417550D02*
X415570D01*
X413659Y760114D01*
X411945Y759124D01*
X410546Y757725D01*
X409556Y756011D01*
X409044Y754100D01*
Y752121D01*
X409556Y750209D01*
X410546Y748495D01*
X411945Y747096D01*
X413659Y746106D01*
X415570Y745594D01*
X417550D01*
X419461Y746106D01*
X421175Y747096D01*
X422574Y748495D01*
X423564Y750209D01*
X424076Y752121D01*
Y754100D01*
X423564Y756011D01*
X422574Y757725D01*
X421175Y759124D01*
X419461Y760114D01*
X417550Y760626D01*
D02*
G37*
G36*
X259184Y750635D02*
X257416D01*
X255782Y749958D01*
X254532Y748708D01*
X253855Y747074D01*
Y745306D01*
X254532Y743672D01*
X255782Y742422D01*
X257416Y741745D01*
X259184D01*
X260818Y742422D01*
X262068Y743672D01*
X262745Y745306D01*
Y747074D01*
X262068Y748708D01*
X260818Y749958D01*
X259184Y750635D01*
D02*
G37*
G36*
X279434Y740195D02*
X277666D01*
X276032Y739518D01*
X274782Y738268D01*
X274105Y736634D01*
Y734866D01*
X274782Y733232D01*
X276032Y731982D01*
X277666Y731305D01*
X279434D01*
X281068Y731982D01*
X282318Y733232D01*
X282995Y734866D01*
Y736634D01*
X282318Y738268D01*
X281068Y739518D01*
X279434Y740195D01*
D02*
G37*
G36*
X312050Y726850D02*
X310550D01*
X309165Y726276D01*
X308104Y725216D01*
X307530Y723830D01*
Y722330D01*
X308104Y720945D01*
X309165Y719884D01*
X310550Y719310D01*
X312050D01*
X313435Y719884D01*
X314496Y720945D01*
X315070Y722330D01*
Y723830D01*
X314496Y725216D01*
X313435Y726276D01*
X312050Y726850D01*
D02*
G37*
G36*
X299050D02*
X297550D01*
X296164Y726276D01*
X295104Y725216D01*
X294530Y723830D01*
Y722330D01*
X295104Y720945D01*
X296164Y719884D01*
X297550Y719310D01*
X299050D01*
X300436Y719884D01*
X301496Y720945D01*
X302070Y722330D01*
Y723830D01*
X301496Y725216D01*
X300436Y726276D01*
X299050Y726850D01*
D02*
G37*
G36*
X312050Y713850D02*
X310550D01*
X309165Y713276D01*
X308104Y712215D01*
X307530Y710830D01*
Y709330D01*
X308104Y707944D01*
X309165Y706884D01*
X310550Y706310D01*
X312050D01*
X313435Y706884D01*
X314496Y707944D01*
X315070Y709330D01*
Y710830D01*
X314496Y712215D01*
X313435Y713276D01*
X312050Y713850D01*
D02*
G37*
G36*
X299050D02*
X297550D01*
X296164Y713276D01*
X295104Y712215D01*
X294530Y710830D01*
Y709330D01*
X295104Y707944D01*
X296164Y706884D01*
X297550Y706310D01*
X299050D01*
X300436Y706884D01*
X301496Y707944D01*
X302070Y709330D01*
Y710830D01*
X301496Y712215D01*
X300436Y713276D01*
X299050Y713850D01*
D02*
G37*
G36*
X312050Y700850D02*
X310550D01*
X309165Y700276D01*
X308104Y699215D01*
X307530Y697830D01*
Y696330D01*
X308104Y694945D01*
X309165Y693884D01*
X310550Y693310D01*
X312050D01*
X313435Y693884D01*
X314496Y694945D01*
X315070Y696330D01*
Y697830D01*
X314496Y699215D01*
X313435Y700276D01*
X312050Y700850D01*
D02*
G37*
G36*
X299050D02*
X297550D01*
X296164Y700276D01*
X295104Y699215D01*
X294530Y697830D01*
Y696330D01*
X295104Y694945D01*
X296164Y693884D01*
X297550Y693310D01*
X299050D01*
X300436Y693884D01*
X301496Y694945D01*
X302070Y696330D01*
Y697830D01*
X301496Y699215D01*
X300436Y700276D01*
X299050Y700850D01*
D02*
G37*
G36*
X312050Y687850D02*
X310550D01*
X309165Y687276D01*
X308104Y686216D01*
X307530Y684830D01*
Y683330D01*
X308104Y681945D01*
X309165Y680884D01*
X310550Y680310D01*
X312050D01*
X313435Y680884D01*
X314496Y681945D01*
X315070Y683330D01*
Y684830D01*
X314496Y686216D01*
X313435Y687276D01*
X312050Y687850D01*
D02*
G37*
G36*
X299050D02*
X297550D01*
X296164Y687276D01*
X295104Y686216D01*
X294530Y684830D01*
Y683330D01*
X295104Y681945D01*
X296164Y680884D01*
X297550Y680310D01*
X299050D01*
X300436Y680884D01*
X301496Y681945D01*
X302070Y683330D01*
Y684830D01*
X301496Y686216D01*
X300436Y687276D01*
X299050Y687850D01*
D02*
G37*
G36*
X493750Y684426D02*
X491771D01*
X489859Y683914D01*
X488145Y682924D01*
X486746Y681525D01*
X485756Y679811D01*
X485244Y677899D01*
Y675920D01*
X485756Y674009D01*
X486746Y672295D01*
X488145Y670896D01*
X489859Y669906D01*
X491771Y669394D01*
X493750D01*
X495661Y669906D01*
X497375Y670896D01*
X498774Y672295D01*
X499764Y674009D01*
X500276Y675920D01*
Y677899D01*
X499764Y679811D01*
X498774Y681525D01*
X497375Y682924D01*
X495661Y683914D01*
X493750Y684426D01*
D02*
G37*
G36*
X417550D02*
X415570D01*
X413659Y683914D01*
X411945Y682924D01*
X410546Y681525D01*
X409556Y679811D01*
X409044Y677899D01*
Y675920D01*
X409556Y674009D01*
X410546Y672295D01*
X411945Y670896D01*
X413659Y669906D01*
X415570Y669394D01*
X417550D01*
X419461Y669906D01*
X421175Y670896D01*
X422574Y672295D01*
X423564Y674009D01*
X424076Y675920D01*
Y677899D01*
X423564Y679811D01*
X422574Y681525D01*
X421175Y682924D01*
X419461Y683914D01*
X417550Y684426D01*
D02*
G37*
G36*
X299350Y670970D02*
X297850D01*
X296465Y670396D01*
X295404Y669335D01*
X294830Y667950D01*
Y666450D01*
X295404Y665064D01*
X296465Y664004D01*
X297850Y663430D01*
X299350D01*
X300735Y664004D01*
X301796Y665064D01*
X302370Y666450D01*
Y667950D01*
X301796Y669335D01*
X300735Y670396D01*
X299350Y670970D01*
D02*
G37*
G36*
X286350D02*
X284850D01*
X283465Y670396D01*
X282404Y669335D01*
X281830Y667950D01*
Y666450D01*
X282404Y665064D01*
X283465Y664004D01*
X284850Y663430D01*
X286350D01*
X287736Y664004D01*
X288796Y665064D01*
X289370Y666450D01*
Y667950D01*
X288796Y669335D01*
X287736Y670396D01*
X286350Y670970D01*
D02*
G37*
G36*
X220610Y668130D02*
X219110D01*
X217724Y667556D01*
X216664Y666496D01*
X216090Y665110D01*
Y663610D01*
X216664Y662225D01*
X217724Y661164D01*
X219110Y660590D01*
X220610D01*
X221996Y661164D01*
X223056Y662225D01*
X223630Y663610D01*
Y665110D01*
X223056Y666496D01*
X221996Y667556D01*
X220610Y668130D01*
D02*
G37*
G36*
X207610D02*
X206110D01*
X204725Y667556D01*
X203664Y666496D01*
X203090Y665110D01*
Y663610D01*
X203664Y662225D01*
X204725Y661164D01*
X206110Y660590D01*
X207610D01*
X208995Y661164D01*
X210056Y662225D01*
X210630Y663610D01*
Y665110D01*
X210056Y666496D01*
X208995Y667556D01*
X207610Y668130D01*
D02*
G37*
G36*
X299350Y657970D02*
X297850D01*
X296465Y657396D01*
X295404Y656336D01*
X294830Y654950D01*
Y653450D01*
X295404Y652065D01*
X296465Y651004D01*
X297850Y650430D01*
X299350D01*
X300735Y651004D01*
X301796Y652065D01*
X302370Y653450D01*
Y654950D01*
X301796Y656336D01*
X300735Y657396D01*
X299350Y657970D01*
D02*
G37*
G36*
X286350D02*
X284850D01*
X283465Y657396D01*
X282404Y656336D01*
X281830Y654950D01*
Y653450D01*
X282404Y652065D01*
X283465Y651004D01*
X284850Y650430D01*
X286350D01*
X287736Y651004D01*
X288796Y652065D01*
X289370Y653450D01*
Y654950D01*
X288796Y656336D01*
X287736Y657396D01*
X286350Y657970D01*
D02*
G37*
G36*
X233610Y655130D02*
X232110D01*
X230725Y654556D01*
X229664Y653495D01*
X229090Y652110D01*
Y650610D01*
X229664Y649224D01*
X230725Y648164D01*
X232110Y647590D01*
X233610D01*
X234995Y648164D01*
X236056Y649224D01*
X236630Y650610D01*
Y652110D01*
X236056Y653495D01*
X234995Y654556D01*
X233610Y655130D01*
D02*
G37*
G36*
X220610D02*
X219110D01*
X217724Y654556D01*
X216664Y653495D01*
X216090Y652110D01*
Y650610D01*
X216664Y649224D01*
X217724Y648164D01*
X219110Y647590D01*
X220610D01*
X221996Y648164D01*
X223056Y649224D01*
X223630Y650610D01*
Y652110D01*
X223056Y653495D01*
X221996Y654556D01*
X220610Y655130D01*
D02*
G37*
G36*
X207610D02*
X206110D01*
X204725Y654556D01*
X203664Y653495D01*
X203090Y652110D01*
Y650610D01*
X203664Y649224D01*
X204725Y648164D01*
X206110Y647590D01*
X207610D01*
X208995Y648164D01*
X210056Y649224D01*
X210630Y650610D01*
Y652110D01*
X210056Y653495D01*
X208995Y654556D01*
X207610Y655130D01*
D02*
G37*
G36*
X299350Y644970D02*
X297850D01*
X296465Y644396D01*
X295404Y643335D01*
X294830Y641950D01*
Y640450D01*
X295404Y639064D01*
X296465Y638004D01*
X297850Y637430D01*
X299350D01*
X300735Y638004D01*
X301796Y639064D01*
X302370Y640450D01*
Y641950D01*
X301796Y643335D01*
X300735Y644396D01*
X299350Y644970D01*
D02*
G37*
G36*
X286350D02*
X284850D01*
X283465Y644396D01*
X282404Y643335D01*
X281830Y641950D01*
Y640450D01*
X282404Y639064D01*
X283465Y638004D01*
X284850Y637430D01*
X286350D01*
X287736Y638004D01*
X288796Y639064D01*
X289370Y640450D01*
Y641950D01*
X288796Y643335D01*
X287736Y644396D01*
X286350Y644970D01*
D02*
G37*
G36*
X299350Y631970D02*
X297850D01*
X296465Y631396D01*
X295404Y630336D01*
X294830Y628950D01*
Y627450D01*
X295404Y626064D01*
X296465Y625004D01*
X297850Y624430D01*
X299350D01*
X300735Y625004D01*
X301796Y626064D01*
X302370Y627450D01*
Y628950D01*
X301796Y630336D01*
X300735Y631396D01*
X299350Y631970D01*
D02*
G37*
G36*
X286350D02*
X284850D01*
X283465Y631396D01*
X282404Y630336D01*
X281830Y628950D01*
Y627450D01*
X282404Y626064D01*
X283465Y625004D01*
X284850Y624430D01*
X286350D01*
X287736Y625004D01*
X288796Y626064D01*
X289370Y627450D01*
Y628950D01*
X288796Y630336D01*
X287736Y631396D01*
X286350Y631970D01*
D02*
G37*
G36*
X319234Y620815D02*
X317466D01*
X315832Y620138D01*
X314582Y618888D01*
X313905Y617254D01*
Y615486D01*
X314582Y613852D01*
X315832Y612602D01*
X317466Y611925D01*
X319234D01*
X320868Y612602D01*
X322118Y613852D01*
X322795Y615486D01*
Y617254D01*
X322118Y618888D01*
X320868Y620138D01*
X319234Y620815D01*
D02*
G37*
G36*
X256154Y605155D02*
X254386D01*
X252752Y604478D01*
X251502Y603228D01*
X250825Y601594D01*
Y599826D01*
X251502Y598192D01*
X252752Y596942D01*
X254386Y596265D01*
X256154D01*
X257788Y596942D01*
X259038Y598192D01*
X259715Y599826D01*
Y601594D01*
X259038Y603228D01*
X257788Y604478D01*
X256154Y605155D01*
D02*
G37*
G36*
X256724Y589345D02*
X254956D01*
X253322Y588668D01*
X252072Y587418D01*
X251395Y585784D01*
Y584016D01*
X252072Y582382D01*
X253322Y581132D01*
X254956Y580455D01*
X256724D01*
X258358Y581132D01*
X259608Y582382D01*
X260285Y584016D01*
Y585784D01*
X259608Y587418D01*
X258358Y588668D01*
X256724Y589345D01*
D02*
G37*
G36*
X493750Y557426D02*
X491771D01*
X489859Y556914D01*
X488145Y555924D01*
X486746Y554525D01*
X485756Y552811D01*
X485244Y550900D01*
Y548921D01*
X485756Y547009D01*
X486746Y545295D01*
X488145Y543896D01*
X489859Y542906D01*
X491771Y542394D01*
X493750D01*
X495661Y542906D01*
X497375Y543896D01*
X498774Y545295D01*
X499764Y547009D01*
X500276Y548921D01*
Y550900D01*
X499764Y552811D01*
X498774Y554525D01*
X497375Y555924D01*
X495661Y556914D01*
X493750Y557426D01*
D02*
G37*
G36*
X417550D02*
X415570D01*
X413659Y556914D01*
X411945Y555924D01*
X410546Y554525D01*
X409556Y552811D01*
X409044Y550900D01*
Y548921D01*
X409556Y547009D01*
X410546Y545295D01*
X411945Y543896D01*
X413659Y542906D01*
X415570Y542394D01*
X417550D01*
X419461Y542906D01*
X421175Y543896D01*
X422574Y545295D01*
X423564Y547009D01*
X424076Y548921D01*
Y550900D01*
X423564Y552811D01*
X422574Y554525D01*
X421175Y555924D01*
X419461Y556914D01*
X417550Y557426D01*
D02*
G37*
G36*
X324734Y544195D02*
X322966D01*
X321332Y543518D01*
X320082Y542268D01*
X319405Y540634D01*
Y538866D01*
X320082Y537232D01*
X321332Y535982D01*
X322966Y535305D01*
X324734D01*
X326368Y535982D01*
X327618Y537232D01*
X328295Y538866D01*
Y540634D01*
X327618Y542268D01*
X326368Y543518D01*
X324734Y544195D01*
D02*
G37*
G36*
X348864Y539115D02*
X347096D01*
X345462Y538438D01*
X344212Y537188D01*
X343535Y535554D01*
Y533786D01*
X344212Y532152D01*
X345462Y530902D01*
X347096Y530225D01*
X348864D01*
X350498Y530902D01*
X351748Y532152D01*
X352425Y533786D01*
Y535554D01*
X351748Y537188D01*
X350498Y538438D01*
X348864Y539115D01*
D02*
G37*
G36*
X261234Y531495D02*
X259466D01*
X257832Y530818D01*
X256582Y529568D01*
X255905Y527934D01*
Y526166D01*
X256582Y524532D01*
X257832Y523282D01*
X259466Y522605D01*
X261234D01*
X262868Y523282D01*
X264118Y524532D01*
X264795Y526166D01*
Y527934D01*
X264118Y529568D01*
X262868Y530818D01*
X261234Y531495D01*
D02*
G37*
G36*
X319654Y481965D02*
X317886D01*
X316252Y481288D01*
X315002Y480038D01*
X314325Y478404D01*
Y476636D01*
X315002Y475002D01*
X316252Y473752D01*
X317886Y473075D01*
X319654D01*
X321288Y473752D01*
X322538Y475002D01*
X323215Y476636D01*
Y478404D01*
X322538Y480038D01*
X321288Y481288D01*
X319654Y481965D01*
D02*
G37*
G36*
X285364D02*
X283596D01*
X281962Y481288D01*
X280712Y480038D01*
X280035Y478404D01*
Y476636D01*
X280712Y475002D01*
X281962Y473752D01*
X283596Y473075D01*
X285364D01*
X286998Y473752D01*
X288248Y475002D01*
X288925Y476636D01*
Y478404D01*
X288248Y480038D01*
X286998Y481288D01*
X285364Y481965D01*
D02*
G37*
G36*
X386204Y468505D02*
X384436D01*
X382802Y467828D01*
X381552Y466578D01*
X380875Y464944D01*
Y463176D01*
X381552Y461542D01*
X382802Y460292D01*
X384436Y459615D01*
X386204D01*
X387838Y460292D01*
X389088Y461542D01*
X389765Y463176D01*
Y464944D01*
X389088Y466578D01*
X387838Y467828D01*
X386204Y468505D01*
D02*
G37*
G36*
X372994Y455295D02*
X371226D01*
X369592Y454618D01*
X368342Y453368D01*
X367665Y451734D01*
Y449966D01*
X368342Y448332D01*
X369592Y447082D01*
X371226Y446405D01*
X372994D01*
X374628Y447082D01*
X375878Y448332D01*
X376555Y449966D01*
Y451734D01*
X375878Y453368D01*
X374628Y454618D01*
X372994Y455295D01*
D02*
G37*
G36*
X528176Y413686D02*
X525924D01*
X523747Y413103D01*
X521796Y411977D01*
X520204Y410383D01*
X519077Y408433D01*
X518494Y406256D01*
Y404004D01*
X519077Y401828D01*
X520204Y399877D01*
X521796Y398284D01*
X523747Y397157D01*
X525924Y396574D01*
X528176D01*
X530353Y397157D01*
X532304Y398284D01*
X533896Y399877D01*
X535023Y401828D01*
X535606Y404004D01*
Y406256D01*
X535023Y408433D01*
X533896Y410383D01*
X532304Y411977D01*
X530353Y413103D01*
X528176Y413686D01*
D02*
G37*
G36*
X502776D02*
X500524D01*
X498348Y413103D01*
X496396Y411977D01*
X494804Y410383D01*
X493677Y408433D01*
X493094Y406256D01*
Y404004D01*
X493677Y401828D01*
X494804Y399877D01*
X496396Y398284D01*
X498348Y397157D01*
X500524Y396574D01*
X502776D01*
X504953Y397157D01*
X506903Y398284D01*
X508497Y399877D01*
X509623Y401828D01*
X510206Y404004D01*
Y406256D01*
X509623Y408433D01*
X508497Y410383D01*
X506903Y411977D01*
X504953Y413103D01*
X502776Y413686D01*
D02*
G37*
G36*
X477376D02*
X475124D01*
X472948Y413103D01*
X470997Y411977D01*
X469403Y410383D01*
X468277Y408433D01*
X467694Y406256D01*
Y404004D01*
X468277Y401828D01*
X469403Y399877D01*
X470997Y398284D01*
X472948Y397157D01*
X475124Y396574D01*
X477376D01*
X479552Y397157D01*
X481503Y398284D01*
X483097Y399877D01*
X484223Y401828D01*
X484806Y404004D01*
Y406256D01*
X484223Y408433D01*
X483097Y410383D01*
X481503Y411977D01*
X479552Y413103D01*
X477376Y413686D01*
D02*
G37*
G36*
X451976D02*
X449724D01*
X447547Y413103D01*
X445597Y411977D01*
X444003Y410383D01*
X442877Y408433D01*
X442294Y406256D01*
Y404004D01*
X442877Y401828D01*
X444003Y399877D01*
X445597Y398284D01*
X447547Y397157D01*
X449724Y396574D01*
X451976D01*
X454152Y397157D01*
X456104Y398284D01*
X457696Y399877D01*
X458823Y401828D01*
X459406Y404004D01*
Y406256D01*
X458823Y408433D01*
X457696Y410383D01*
X456104Y411977D01*
X454152Y413103D01*
X451976Y413686D01*
D02*
G37*
G36*
X426576D02*
X424324D01*
X422147Y413103D01*
X420196Y411977D01*
X418604Y410383D01*
X417477Y408433D01*
X416894Y406256D01*
Y404004D01*
X417477Y401828D01*
X418604Y399877D01*
X420196Y398284D01*
X422147Y397157D01*
X424324Y396574D01*
X426576D01*
X428753Y397157D01*
X430704Y398284D01*
X432296Y399877D01*
X433423Y401828D01*
X434006Y404004D01*
Y406256D01*
X433423Y408433D01*
X432296Y410383D01*
X430704Y411977D01*
X428753Y413103D01*
X426576Y413686D01*
D02*
G37*
G36*
X401176D02*
X398924D01*
X396748Y413103D01*
X394796Y411977D01*
X393204Y410383D01*
X392077Y408433D01*
X391494Y406256D01*
Y404004D01*
X392077Y401828D01*
X393204Y399877D01*
X394796Y398284D01*
X396748Y397157D01*
X398924Y396574D01*
X401176D01*
X403353Y397157D01*
X405303Y398284D01*
X406897Y399877D01*
X408023Y401828D01*
X408606Y404004D01*
Y406256D01*
X408023Y408433D01*
X406897Y410383D01*
X405303Y411977D01*
X403353Y413103D01*
X401176Y413686D01*
D02*
G37*
G36*
X375776D02*
X373524D01*
X371348Y413103D01*
X369397Y411977D01*
X367803Y410383D01*
X366677Y408433D01*
X366094Y406256D01*
Y404004D01*
X366677Y401828D01*
X367803Y399877D01*
X369397Y398284D01*
X371348Y397157D01*
X373524Y396574D01*
X375776D01*
X377952Y397157D01*
X379903Y398284D01*
X381497Y399877D01*
X382623Y401828D01*
X383206Y404004D01*
Y406256D01*
X382623Y408433D01*
X381497Y410383D01*
X379903Y411977D01*
X377952Y413103D01*
X375776Y413686D01*
D02*
G37*
G36*
X317233Y332740D02*
X315227D01*
X313289Y332221D01*
X311551Y331217D01*
X310133Y329799D01*
X309129Y328061D01*
X308610Y326123D01*
Y324117D01*
X309129Y322179D01*
X310133Y320441D01*
X311551Y319023D01*
X313289Y318019D01*
X315227Y317500D01*
X317233D01*
X319171Y318019D01*
X320909Y319023D01*
X322327Y320441D01*
X323331Y322179D01*
X323850Y324117D01*
Y326123D01*
X323331Y328061D01*
X322327Y329799D01*
X320909Y331217D01*
X319171Y332221D01*
X317233Y332740D01*
D02*
G37*
G36*
X629776Y235886D02*
X627524D01*
X625348Y235303D01*
X623396Y234177D01*
X621804Y232584D01*
X620677Y230632D01*
X620094Y228456D01*
Y226204D01*
X620677Y224028D01*
X621804Y222076D01*
X623396Y220483D01*
X625348Y219357D01*
X627524Y218774D01*
X629776D01*
X631953Y219357D01*
X633904Y220483D01*
X635496Y222076D01*
X636623Y224028D01*
X637206Y226204D01*
Y228456D01*
X636623Y230632D01*
X635496Y232584D01*
X633904Y234177D01*
X631953Y235303D01*
X629776Y235886D01*
D02*
G37*
G36*
X604376D02*
X602124D01*
X599948Y235303D01*
X597996Y234177D01*
X596404Y232584D01*
X595277Y230632D01*
X594694Y228456D01*
Y226204D01*
X595277Y224028D01*
X596404Y222076D01*
X597996Y220483D01*
X599948Y219357D01*
X602124Y218774D01*
X604376D01*
X606553Y219357D01*
X608503Y220483D01*
X610097Y222076D01*
X611223Y224028D01*
X611806Y226204D01*
Y228456D01*
X611223Y230632D01*
X610097Y232584D01*
X608503Y234177D01*
X606553Y235303D01*
X604376Y235886D01*
D02*
G37*
G36*
X578976D02*
X576724D01*
X574548Y235303D01*
X572597Y234177D01*
X571003Y232584D01*
X569877Y230632D01*
X569294Y228456D01*
Y226204D01*
X569877Y224028D01*
X571003Y222076D01*
X572597Y220483D01*
X574548Y219357D01*
X576724Y218774D01*
X578976D01*
X581152Y219357D01*
X583103Y220483D01*
X584697Y222076D01*
X585823Y224028D01*
X586406Y226204D01*
Y228456D01*
X585823Y230632D01*
X584697Y232584D01*
X583103Y234177D01*
X581152Y235303D01*
X578976Y235886D01*
D02*
G37*
G36*
X553576D02*
X551324D01*
X549147Y235303D01*
X547197Y234177D01*
X545603Y232584D01*
X544477Y230632D01*
X543894Y228456D01*
Y226204D01*
X544477Y224028D01*
X545603Y222076D01*
X547197Y220483D01*
X549147Y219357D01*
X551324Y218774D01*
X553576D01*
X555752Y219357D01*
X557704Y220483D01*
X559296Y222076D01*
X560423Y224028D01*
X561006Y226204D01*
Y228456D01*
X560423Y230632D01*
X559296Y232584D01*
X557704Y234177D01*
X555752Y235303D01*
X553576Y235886D01*
D02*
G37*
G36*
X528176D02*
X525924D01*
X523747Y235303D01*
X521796Y234177D01*
X520204Y232584D01*
X519077Y230632D01*
X518494Y228456D01*
Y226204D01*
X519077Y224028D01*
X520204Y222076D01*
X521796Y220483D01*
X523747Y219357D01*
X525924Y218774D01*
X528176D01*
X530353Y219357D01*
X532304Y220483D01*
X533896Y222076D01*
X535023Y224028D01*
X535606Y226204D01*
Y228456D01*
X535023Y230632D01*
X533896Y232584D01*
X532304Y234177D01*
X530353Y235303D01*
X528176Y235886D01*
D02*
G37*
G36*
X502776D02*
X500524D01*
X498348Y235303D01*
X496396Y234177D01*
X494804Y232584D01*
X493677Y230632D01*
X493094Y228456D01*
Y226204D01*
X493677Y224028D01*
X494804Y222076D01*
X496396Y220483D01*
X498348Y219357D01*
X500524Y218774D01*
X502776D01*
X504953Y219357D01*
X506903Y220483D01*
X508497Y222076D01*
X509623Y224028D01*
X510206Y226204D01*
Y228456D01*
X509623Y230632D01*
X508497Y232584D01*
X506903Y234177D01*
X504953Y235303D01*
X502776Y235886D01*
D02*
G37*
G36*
X477376D02*
X475124D01*
X472948Y235303D01*
X470997Y234177D01*
X469403Y232584D01*
X468277Y230632D01*
X467694Y228456D01*
Y226204D01*
X468277Y224028D01*
X469403Y222076D01*
X470997Y220483D01*
X472948Y219357D01*
X475124Y218774D01*
X477376D01*
X479552Y219357D01*
X481503Y220483D01*
X483097Y222076D01*
X484223Y224028D01*
X484806Y226204D01*
Y228456D01*
X484223Y230632D01*
X483097Y232584D01*
X481503Y234177D01*
X479552Y235303D01*
X477376Y235886D01*
D02*
G37*
G36*
X451976D02*
X449724D01*
X447547Y235303D01*
X445597Y234177D01*
X444003Y232584D01*
X442877Y230632D01*
X442294Y228456D01*
Y226204D01*
X442877Y224028D01*
X444003Y222076D01*
X445597Y220483D01*
X447547Y219357D01*
X449724Y218774D01*
X451976D01*
X454152Y219357D01*
X456104Y220483D01*
X457696Y222076D01*
X458823Y224028D01*
X459406Y226204D01*
Y228456D01*
X458823Y230632D01*
X457696Y232584D01*
X456104Y234177D01*
X454152Y235303D01*
X451976Y235886D01*
D02*
G37*
G36*
X426576D02*
X424324D01*
X422147Y235303D01*
X420196Y234177D01*
X418604Y232584D01*
X417477Y230632D01*
X416894Y228456D01*
Y226204D01*
X417477Y224028D01*
X418604Y222076D01*
X420196Y220483D01*
X422147Y219357D01*
X424324Y218774D01*
X426576D01*
X428753Y219357D01*
X430704Y220483D01*
X432296Y222076D01*
X433423Y224028D01*
X434006Y226204D01*
Y228456D01*
X433423Y230632D01*
X432296Y232584D01*
X430704Y234177D01*
X428753Y235303D01*
X426576Y235886D01*
D02*
G37*
G36*
X401176D02*
X398924D01*
X396748Y235303D01*
X394796Y234177D01*
X393204Y232584D01*
X392077Y230632D01*
X391494Y228456D01*
Y226204D01*
X392077Y224028D01*
X393204Y222076D01*
X394796Y220483D01*
X396748Y219357D01*
X398924Y218774D01*
X401176D01*
X403353Y219357D01*
X405303Y220483D01*
X406897Y222076D01*
X408023Y224028D01*
X408606Y226204D01*
Y228456D01*
X408023Y230632D01*
X406897Y232584D01*
X405303Y234177D01*
X403353Y235303D01*
X401176Y235886D01*
D02*
G37*
G36*
X375776D02*
X373524D01*
X371348Y235303D01*
X369397Y234177D01*
X367803Y232584D01*
X366677Y230632D01*
X366094Y228456D01*
Y226204D01*
X366677Y224028D01*
X367803Y222076D01*
X369397Y220483D01*
X371348Y219357D01*
X373524Y218774D01*
X375776D01*
X377952Y219357D01*
X379903Y220483D01*
X381497Y222076D01*
X382623Y224028D01*
X383206Y226204D01*
Y228456D01*
X382623Y230632D01*
X381497Y232584D01*
X379903Y234177D01*
X377952Y235303D01*
X375776Y235886D01*
D02*
G37*
G36*
X676944Y178816D02*
X674336D01*
X671816Y178141D01*
X669558Y176837D01*
X667713Y174992D01*
X666409Y172734D01*
X665734Y170214D01*
Y167606D01*
X666409Y165086D01*
X667713Y162828D01*
X669558Y160983D01*
X671816Y159679D01*
X674336Y159004D01*
X676944D01*
X679464Y159679D01*
X681722Y160983D01*
X683567Y162828D01*
X684871Y165086D01*
X685546Y167606D01*
Y170214D01*
X684871Y172734D01*
X683567Y174992D01*
X681722Y176837D01*
X679464Y178141D01*
X676944Y178816D01*
D02*
G37*
G36*
X651544D02*
X648936D01*
X646416Y178141D01*
X644158Y176837D01*
X642313Y174992D01*
X641009Y172734D01*
X640334Y170214D01*
Y167606D01*
X641009Y165086D01*
X642313Y162828D01*
X644158Y160983D01*
X646416Y159679D01*
X648936Y159004D01*
X651544D01*
X654064Y159679D01*
X656322Y160983D01*
X658167Y162828D01*
X659471Y165086D01*
X660146Y167606D01*
Y170214D01*
X659471Y172734D01*
X658167Y174992D01*
X656322Y176837D01*
X654064Y178141D01*
X651544Y178816D01*
D02*
G37*
G36*
X626144D02*
X623536D01*
X621016Y178141D01*
X618758Y176837D01*
X616913Y174992D01*
X615609Y172734D01*
X614934Y170214D01*
Y167606D01*
X615609Y165086D01*
X616913Y162828D01*
X618758Y160983D01*
X621016Y159679D01*
X623536Y159004D01*
X626144D01*
X628664Y159679D01*
X630922Y160983D01*
X632767Y162828D01*
X634071Y165086D01*
X634746Y167606D01*
Y170214D01*
X634071Y172734D01*
X632767Y174992D01*
X630922Y176837D01*
X628664Y178141D01*
X626144Y178816D01*
D02*
G37*
G36*
X425301Y174886D02*
X423059D01*
X420893Y174306D01*
X418951Y173185D01*
X417365Y171599D01*
X416244Y169657D01*
X415664Y167491D01*
Y165249D01*
X416244Y163083D01*
X417365Y161141D01*
X418951Y159556D01*
X420893Y158434D01*
X423059Y157854D01*
X425301D01*
X427467Y158434D01*
X429409Y159556D01*
X430994Y161141D01*
X432116Y163083D01*
X432696Y165249D01*
Y167491D01*
X432116Y169657D01*
X430994Y171599D01*
X429409Y173185D01*
X427467Y174306D01*
X425301Y174886D01*
D02*
G37*
G36*
X511796Y177462D02*
X508953D01*
X506208Y176726D01*
X503746Y175305D01*
X501736Y173295D01*
X500315Y170833D01*
X499579Y168088D01*
Y165245D01*
X500315Y162500D01*
X501736Y160038D01*
X503746Y158028D01*
X506208Y156607D01*
X508953Y155872D01*
X511796D01*
X514541Y156607D01*
X517003Y158028D01*
X519012Y160038D01*
X520434Y162500D01*
X521169Y165245D01*
Y168088D01*
X520434Y170833D01*
X519012Y173295D01*
X517003Y175305D01*
X514541Y176726D01*
X511796Y177462D01*
D02*
G37*
G36*
X472591Y177165D02*
X469749D01*
X467003Y176429D01*
X464542Y175008D01*
X462532Y172998D01*
X461111Y170537D01*
X460375Y167791D01*
Y164949D01*
X461111Y162203D01*
X462532Y159742D01*
X464542Y157732D01*
X467003Y156311D01*
X469749Y155575D01*
X472591D01*
X475337Y156311D01*
X477798Y157732D01*
X479808Y159742D01*
X481229Y162203D01*
X481965Y164949D01*
Y167791D01*
X481229Y170537D01*
X479808Y172998D01*
X477798Y175008D01*
X475337Y176429D01*
X472591Y177165D01*
D02*
G37*
G36*
X836544Y150495D02*
X834776D01*
X833142Y149818D01*
X831892Y148568D01*
X831215Y146934D01*
Y145166D01*
X831892Y143532D01*
X833142Y142282D01*
X834776Y141605D01*
X836544D01*
X838178Y142282D01*
X839428Y143532D01*
X840105Y145166D01*
Y146934D01*
X839428Y148568D01*
X838178Y149818D01*
X836544Y150495D01*
D02*
G37*
G36*
X553949Y124480D02*
X552181D01*
X550547Y123803D01*
X549297Y122553D01*
X548620Y120919D01*
Y119151D01*
X549297Y117517D01*
X550547Y116267D01*
X552181Y115590D01*
X553949D01*
X555583Y116267D01*
X556833Y117517D01*
X557510Y119151D01*
Y120919D01*
X556833Y122553D01*
X555583Y123803D01*
X553949Y124480D01*
D02*
G37*
G36*
X729864Y113665D02*
X728096D01*
X726462Y112988D01*
X725212Y111738D01*
X724535Y110104D01*
Y108336D01*
X725212Y106702D01*
X726462Y105452D01*
X728096Y104775D01*
X729864D01*
X731498Y105452D01*
X732748Y106702D01*
X733425Y108336D01*
Y110104D01*
X732748Y111738D01*
X731498Y112988D01*
X729864Y113665D01*
D02*
G37*
G36*
X596514Y109855D02*
X594746D01*
X593112Y109178D01*
X591862Y107928D01*
X591185Y106294D01*
Y104526D01*
X591862Y102892D01*
X593112Y101642D01*
X594746Y100965D01*
X596514D01*
X598148Y101642D01*
X599398Y102892D01*
X600075Y104526D01*
Y106294D01*
X599398Y107928D01*
X598148Y109178D01*
X596514Y109855D01*
D02*
G37*
G36*
X533300Y101130D02*
X531800D01*
X530415Y100556D01*
X529354Y99495D01*
X528780Y98110D01*
Y96610D01*
X529354Y95225D01*
X530415Y94164D01*
X531800Y93590D01*
X533300D01*
X534686Y94164D01*
X535746Y95225D01*
X536320Y96610D01*
Y98110D01*
X535746Y99495D01*
X534686Y100556D01*
X533300Y101130D01*
D02*
G37*
G36*
X522300D02*
X520800D01*
X519414Y100556D01*
X518354Y99495D01*
X517780Y98110D01*
Y96610D01*
X518354Y95225D01*
X519414Y94164D01*
X520800Y93590D01*
X522300D01*
X523685Y94164D01*
X524746Y95225D01*
X525320Y96610D01*
Y98110D01*
X524746Y99495D01*
X523685Y100556D01*
X522300Y101130D01*
D02*
G37*
G36*
X533300Y90130D02*
X531800D01*
X530415Y89556D01*
X529354Y88496D01*
X528780Y87110D01*
Y85610D01*
X529354Y84225D01*
X530415Y83164D01*
X531800Y82590D01*
X533300D01*
X534686Y83164D01*
X535746Y84225D01*
X536320Y85610D01*
Y87110D01*
X535746Y88496D01*
X534686Y89556D01*
X533300Y90130D01*
D02*
G37*
G36*
X522300D02*
X520800D01*
X519414Y89556D01*
X518354Y88496D01*
X517780Y87110D01*
Y85610D01*
X518354Y84225D01*
X519414Y83164D01*
X520800Y82590D01*
X522300D01*
X523685Y83164D01*
X524746Y84225D01*
X525320Y85610D01*
Y87110D01*
X524746Y88496D01*
X523685Y89556D01*
X522300Y90130D01*
D02*
G37*
G36*
X231944Y733425D02*
X230176D01*
X228542Y732748D01*
X227292Y731498D01*
X226615Y729864D01*
Y728096D01*
X227292Y726462D01*
X228542Y725212D01*
X230176Y724535D01*
X231944D01*
X233578Y725212D01*
X234828Y726462D01*
X235505Y728096D01*
Y729864D01*
X234828Y731498D01*
X233578Y732748D01*
X231944Y733425D01*
D02*
G37*
G36*
X224404Y714375D02*
X222636D01*
X221002Y713698D01*
X219752Y712448D01*
X219075Y710814D01*
Y709046D01*
X219752Y707412D01*
X221002Y706162D01*
X222636Y705485D01*
X224404D01*
X226038Y706162D01*
X227288Y707412D01*
X227965Y709046D01*
Y710814D01*
X227288Y712448D01*
X226038Y713698D01*
X224404Y714375D01*
D02*
G37*
G36*
X229484Y572135D02*
X227716D01*
X226082Y571458D01*
X224832Y570208D01*
X224155Y568574D01*
Y566806D01*
X224832Y565172D01*
X226082Y563922D01*
X227716Y563245D01*
X229484D01*
X231118Y563922D01*
X232368Y565172D01*
X233045Y566806D01*
Y568574D01*
X232368Y570208D01*
X231118Y571458D01*
X229484Y572135D01*
D02*
G37*
%LPD*%
G36*
X680720Y1209040D02*
X691954Y1197806D01*
Y1049520D01*
X691812Y1049378D01*
X691135Y1047744D01*
Y1045976D01*
X691812Y1044342D01*
X692150Y1044004D01*
Y655320D01*
X690625Y653795D01*
X689355Y654321D01*
Y655194D01*
X688678Y656828D01*
X687428Y658078D01*
X685794Y658755D01*
X684026D01*
X682392Y658078D01*
X681142Y656828D01*
X680465Y655194D01*
Y653426D01*
X681142Y651792D01*
X682392Y650542D01*
X684026Y649865D01*
X684899D01*
X685425Y648595D01*
X673931Y637100D01*
X672742Y636608D01*
X671492Y635358D01*
X671000Y634170D01*
X668020Y631190D01*
Y622300D01*
X669290Y621030D01*
X673100Y624840D01*
X711200D01*
X716280Y619760D01*
Y567690D01*
X707390Y558800D01*
X645160D01*
X633730Y570230D01*
Y622300D01*
X647700D01*
X675640Y650240D01*
Y680720D01*
X652780Y703580D01*
X627380D01*
Y762000D01*
X678180Y812800D01*
Y831850D01*
X641350Y868680D01*
X627380D01*
Y924560D01*
X676910Y974090D01*
Y991870D01*
X638810Y1029970D01*
X626110D01*
Y1102360D01*
X673100Y1149350D01*
Y1168400D01*
X637540Y1203960D01*
X623570D01*
Y1225550D01*
X626110Y1228090D01*
X680720D01*
Y1209040D01*
D02*
G37*
%LPC*%
G36*
X681984Y1158745D02*
X680216D01*
X678582Y1158068D01*
X677332Y1156818D01*
X676655Y1155184D01*
Y1153416D01*
X677332Y1151782D01*
X678582Y1150532D01*
X680216Y1149855D01*
X681984D01*
X683618Y1150532D01*
X684868Y1151782D01*
X685545Y1153416D01*
Y1155184D01*
X684868Y1156818D01*
X683618Y1158068D01*
X681984Y1158745D01*
D02*
G37*
G36*
X684524Y985265D02*
X682756D01*
X681122Y984588D01*
X679872Y983338D01*
X679195Y981704D01*
Y979936D01*
X679872Y978302D01*
X681122Y977052D01*
X682756Y976375D01*
X684524D01*
X686158Y977052D01*
X687408Y978302D01*
X688085Y979936D01*
Y981704D01*
X687408Y983338D01*
X686158Y984588D01*
X684524Y985265D01*
D02*
G37*
G36*
X685794Y823465D02*
X684026D01*
X682392Y822788D01*
X681142Y821538D01*
X680465Y819904D01*
Y818136D01*
X681142Y816502D01*
X682392Y815252D01*
X684026Y814575D01*
X685794D01*
X687428Y815252D01*
X688678Y816502D01*
X689355Y818136D01*
Y819904D01*
X688678Y821538D01*
X687428Y822788D01*
X685794Y823465D01*
D02*
G37*
%LPD*%
D86*
X779780Y463550D02*
D03*
D96*
X183260Y580010D02*
D03*
X264160Y680720D02*
D03*
X331050Y735750D02*
D03*
X344170Y709930D02*
D03*
X332740Y666750D02*
D03*
X265850Y615100D02*
D03*
X252730Y641350D02*
D03*
X244690Y631610D02*
D03*
X194310Y697230D02*
D03*
X207010D02*
D03*
X235030Y514430D02*
D03*
X661670Y439420D02*
D03*
X648970Y593090D02*
D03*
X176530Y1059180D02*
D03*
X187580Y1176400D02*
D03*
X200280D02*
D03*
X237960Y1110780D02*
D03*
X257430Y1159890D02*
D03*
X246000Y1120520D02*
D03*
X259120Y1094270D02*
D03*
X326010Y1145920D02*
D03*
X337440Y1189100D02*
D03*
X324320Y1214920D02*
D03*
X201930Y568960D02*
D03*
X196930Y712550D02*
D03*
X198120Y876300D02*
D03*
X201930Y1033780D02*
D03*
X153670Y1167130D02*
D03*
X186690Y1250950D02*
D03*
X345440Y1256030D02*
D03*
X254850Y1302600D02*
D03*
X186690Y1263650D02*
D03*
X704850Y599440D02*
D03*
X703580Y618490D02*
D03*
X675260Y632840D02*
D03*
X705860Y576320D02*
D03*
X661670Y593090D02*
D03*
X185720Y741300D02*
D03*
X266620Y842010D02*
D03*
X333510Y897040D02*
D03*
X346630Y871220D02*
D03*
X335200Y828040D02*
D03*
X268310Y776390D02*
D03*
X255190Y802640D02*
D03*
X247150Y792900D02*
D03*
X196770Y858520D02*
D03*
X209470D02*
D03*
X185190Y900750D02*
D03*
X266090Y1001460D02*
D03*
X332980Y1056490D02*
D03*
X346100Y1030670D02*
D03*
X334670Y987490D02*
D03*
X267780Y935840D02*
D03*
X254660Y962090D02*
D03*
X246620Y952350D02*
D03*
X196240Y1017970D02*
D03*
X208940D02*
D03*
X696850Y720350D02*
D03*
X681990Y692030D02*
D03*
X668910Y654820D02*
D03*
X633840Y718810D02*
D03*
X633730Y708540D02*
D03*
X696850Y885060D02*
D03*
X681990Y856740D02*
D03*
X668910Y819530D02*
D03*
X633840Y883520D02*
D03*
X633730Y873250D02*
D03*
X695580Y1046860D02*
D03*
X680720Y1018540D02*
D03*
X667640Y981330D02*
D03*
X632570Y1045320D02*
D03*
X632460Y1035050D02*
D03*
X629920Y1208530D02*
D03*
X678180Y1192020D02*
D03*
X693040Y1220340D02*
D03*
X665100Y1154810D02*
D03*
X630030Y1218800D02*
D03*
X124380Y655910D02*
D03*
X102870Y716790D02*
D03*
X122080Y815930D02*
D03*
X100570Y876810D02*
D03*
X120650Y971550D02*
D03*
X99140Y1032430D02*
D03*
X106760Y1189910D02*
D03*
X128270Y1129030D02*
D03*
D97*
X181610Y495300D02*
D03*
X168910Y496570D02*
D03*
X181610Y466090D02*
D03*
X168910Y467360D02*
D03*
X176530Y506730D02*
D03*
X166370Y509270D02*
D03*
X185420Y518160D02*
D03*
X173990Y519430D02*
D03*
X438512Y565540D02*
D03*
X456114Y546266D02*
D03*
X453574Y534836D02*
D03*
X457384Y515786D02*
D03*
X418014Y500546D02*
D03*
X400234Y508166D02*
D03*
X414204Y514516D02*
D03*
X421824Y529756D02*
D03*
X407822Y527920D02*
D03*
X439604Y542456D02*
D03*
X435794Y510706D02*
D03*
X437064Y529756D02*
D03*
X335464Y564046D02*
D03*
X322764Y558966D02*
D03*
X324034Y574206D02*
D03*
X310064Y570396D02*
D03*
X307524Y556426D02*
D03*
X292100Y552450D02*
D03*
X298450Y574040D02*
D03*
D98*
X215900Y372110D02*
D03*
X256550Y372120D02*
D03*
X855980Y166370D02*
D03*
D100*
X215900Y372110D02*
Y623570D01*
Y372110D02*
X231140Y356870D01*
X208940Y1017970D02*
Y1097940D01*
X231520Y1120520D01*
X383540Y481330D02*
Y610063D01*
X309880Y389890D02*
Y407670D01*
X383540Y481330D01*
X231140Y356870D02*
X276860D01*
X309880Y389890D01*
X344170Y649433D02*
X383540Y610063D01*
X344170Y649433D02*
Y709930D01*
X215900Y623570D02*
X233680Y641350D01*
X252730D01*
X364490Y480060D02*
Y564978D01*
X256550Y372120D02*
X364490Y480060D01*
X332740Y596728D02*
X364490Y564978D01*
X332740Y596728D02*
Y666750D01*
X256550Y372120D02*
Y501358D01*
X244475Y513433D02*
X256550Y501358D01*
X244475Y513433D02*
Y631395D01*
X244690Y631610D01*
X332740Y715533D02*
X338035Y720828D01*
Y769267D01*
X335200Y772102D02*
X338035Y769267D01*
X335200Y772102D02*
Y828040D01*
X332740Y666750D02*
Y715533D01*
X335200Y828040D02*
Y880411D01*
X340495Y885706D01*
Y937734D01*
X334670Y943559D02*
X340495Y937734D01*
X334670Y943559D02*
Y987490D01*
X326010Y1096972D02*
X339965Y1083017D01*
X326010Y1096972D02*
Y1145920D01*
X339965Y1038073D02*
Y1083017D01*
X334670Y1032778D02*
X339965Y1038073D01*
X334670Y987490D02*
Y1032778D01*
X254850Y1302256D02*
X257430Y1299676D01*
X254850Y1302256D02*
Y1302600D01*
X257430Y1159890D02*
Y1299676D01*
X252260Y1110780D02*
X257430Y1115950D01*
Y1159890D01*
X237960Y1110780D02*
X252260D01*
X237745Y1110565D02*
X237960Y1110780D01*
X237745Y1029805D02*
X266090Y1001460D01*
X237745Y1029805D02*
Y1110565D01*
X260200Y952350D02*
X266090Y958240D01*
Y1001460D01*
X246620Y952350D02*
X260200D01*
X246405Y862225D02*
Y952135D01*
X246620Y952350D01*
X246405Y862225D02*
X266620Y842010D01*
X262040Y792900D02*
X266620Y797480D01*
Y842010D01*
X247150Y792900D02*
X262040D01*
X246935Y738585D02*
Y792685D01*
Y738585D02*
X264160Y721360D01*
X246935Y792685D02*
X247150Y792900D01*
X264160Y680720D02*
Y721360D01*
Y634586D02*
Y680720D01*
X244690Y631610D02*
X261184D01*
X264160Y634586D01*
X227964Y678180D02*
X252730Y653414D01*
X226060Y678180D02*
X227964D01*
X252730Y641350D02*
Y653414D01*
X207010Y697230D02*
X226060Y678180D01*
X207010Y697230D02*
Y762638D01*
X246769Y802397D01*
X254947D01*
X255190Y802640D01*
X227250Y840740D02*
X229154D01*
X255190Y802640D02*
Y814704D01*
X229154Y840740D02*
X255190Y814704D01*
X209470Y858520D02*
X227250Y840740D01*
X209470Y933370D02*
X238190Y962090D01*
X209470Y858520D02*
Y933370D01*
X238190Y962090D02*
X254660D01*
X220280Y1017970D02*
X254660Y983590D01*
Y962090D02*
Y983590D01*
X208940Y1017970D02*
X220280D01*
X231520Y1120520D02*
X246000D01*
X217433Y1161150D02*
X246000Y1132584D01*
Y1120520D02*
Y1132584D01*
X200280Y1176400D02*
X215530Y1161150D01*
X217433D01*
X186690Y1263306D02*
Y1263650D01*
Y1263306D02*
X193675Y1256321D01*
Y1183349D02*
Y1256321D01*
Y1183349D02*
X200280Y1176744D01*
Y1176400D02*
Y1176744D01*
X346630Y712734D02*
Y871220D01*
X346100Y951331D02*
X346630Y950801D01*
X346100Y951331D02*
Y1030670D01*
X346630Y871220D02*
Y950801D01*
X337440Y1114215D02*
Y1189100D01*
Y1114215D02*
X346100Y1105555D01*
Y1030670D02*
Y1105555D01*
X693040Y1219996D02*
X695580Y1217456D01*
Y1046860D02*
Y1217456D01*
X693040Y1219996D02*
Y1220340D01*
X695580Y1046516D02*
X696850Y1045246D01*
Y885060D02*
Y1045246D01*
X695580Y1046516D02*
Y1046860D01*
X696850Y720350D02*
Y885060D01*
Y654430D02*
Y720350D01*
X675260Y632840D02*
X696850Y654430D01*
D101*
X755650Y227330D02*
D03*
M02*
