G04*
G04 #@! TF.GenerationSoftware,Altium Limited,Altium Designer,22.9.1 (49)*
G04*
G04 Layer_Color=16711935*
%FSLAX44Y44*%
%MOMM*%
G71*
G04*
G04 #@! TF.SameCoordinates,544A37EE-08D3-4304-B61F-9C5D6A74D4DB*
G04*
G04*
G04 #@! TF.FilePolarity,Positive*
G04*
G01*
G75*
%ADD11C,0.1000*%
%ADD103R,0.6187X2.9200*%
%ADD104R,2.9200X0.6389*%
%ADD105R,0.6389X2.9200*%
%ADD106R,0.6523X3.9400*%
D11*
X296750Y498190D02*
G03*
X296750Y498190I-5000J0D01*
G01*
X665320Y1037820D02*
G03*
X665320Y1037820I-5000J0D01*
G01*
X102940Y969160D02*
G03*
X102940Y969160I-5000J0D01*
G01*
X104370Y813540D02*
G03*
X104370Y813540I-5000J0D01*
G01*
X106670Y653520D02*
G03*
X106670Y653520I-5000J0D01*
G01*
X110560Y1126640D02*
G03*
X110560Y1126640I-5000J0D01*
G01*
X156280Y586890D02*
G03*
X156280Y586890I-5000J0D01*
G01*
X161360Y740560D02*
G03*
X161360Y740560I-5000J0D01*
G01*
X160090Y899310D02*
G03*
X160090Y899310I-5000J0D01*
G01*
X156280Y1054250D02*
G03*
X156280Y1054250I-5000J0D01*
G01*
X666590Y711310D02*
G03*
X666590Y711310I-5000J0D01*
G01*
Y876020D02*
G03*
X666590Y876020I-5000J0D01*
G01*
X662780Y1211300D02*
G03*
X662780Y1211300I-5000J0D01*
G01*
X651520Y499320D02*
G03*
X651520Y499320I-5000J0D01*
G01*
X542545Y70845D02*
G03*
X542545Y70845I-5000J0D01*
G01*
X244100Y587900D02*
Y605900D01*
X213100Y587900D02*
Y605900D01*
X244100D01*
X213100Y587900D02*
X244100D01*
X193620Y580010D02*
Y596010D01*
X202620Y580010D02*
Y596010D01*
X193620Y580010D02*
X202620D01*
X193620Y596010D02*
X202620D01*
X300750Y489190D02*
Y519190D01*
X270750Y489190D02*
Y519190D01*
Y489190D02*
X300750D01*
X270750Y519190D02*
X300750D01*
X237370Y1067070D02*
Y1085070D01*
X206370Y1067070D02*
Y1085070D01*
X237370D01*
X206370Y1067070D02*
X237370D01*
X186890Y1059180D02*
Y1075180D01*
X195890Y1059180D02*
Y1075180D01*
X186890Y1059180D02*
X195890D01*
X186890Y1075180D02*
X195890D01*
X362760Y515910D02*
Y710910D01*
X622760Y515910D02*
Y710910D01*
X362760D02*
X622760D01*
X362760Y515910D02*
X622760D01*
X362760Y719110D02*
Y914110D01*
X622760Y719110D02*
Y914110D01*
X362760D02*
X622760D01*
X362760Y719110D02*
X622760D01*
X362760Y922310D02*
Y1117310D01*
X622760Y922310D02*
Y1117310D01*
X362760D02*
X622760D01*
X362760Y922310D02*
X622760D01*
X362760Y1125510D02*
Y1320510D01*
X622760Y1125510D02*
Y1320510D01*
X362760D02*
X622760D01*
X362760Y1125510D02*
X622760D01*
X641320Y1046820D02*
X669320D01*
X641320Y1010820D02*
X669320D01*
Y1046820D01*
X641320Y1010820D02*
Y1046820D01*
X75940Y947160D02*
Y978160D01*
X106940Y947160D02*
Y978160D01*
X75940Y947160D02*
X106940D01*
X75940Y978160D02*
X106940D01*
X77370Y791540D02*
Y822540D01*
X108370Y791540D02*
Y822540D01*
X77370Y791540D02*
X108370D01*
X77370Y822540D02*
X108370D01*
X79670Y631520D02*
Y662520D01*
X110670Y631520D02*
Y662520D01*
X79670Y631520D02*
X110670D01*
X79670Y662520D02*
X110670D01*
X83560Y1104640D02*
Y1135640D01*
X114560Y1104640D02*
Y1135640D01*
X83560Y1104640D02*
X114560D01*
X83560Y1135640D02*
X114560D01*
X129280Y564890D02*
Y595890D01*
X160280Y564890D02*
Y595890D01*
X129280Y564890D02*
X160280D01*
X129280Y595890D02*
X160280D01*
X134360Y718560D02*
Y749560D01*
X165360Y718560D02*
Y749560D01*
X134360Y718560D02*
X165360D01*
X134360Y749560D02*
X165360D01*
X133090Y877310D02*
Y908310D01*
X164090Y877310D02*
Y908310D01*
X133090Y877310D02*
X164090D01*
X133090Y908310D02*
X164090D01*
X129280Y1032250D02*
Y1063250D01*
X160280Y1032250D02*
Y1063250D01*
X129280Y1032250D02*
X160280D01*
X129280Y1063250D02*
X160280D01*
X215560Y749190D02*
X246560D01*
X215560Y767190D02*
X246560D01*
X215560Y749190D02*
Y767190D01*
X246560Y749190D02*
Y767190D01*
X196080Y757300D02*
X205080D01*
X196080Y741300D02*
X205080D01*
Y757300D01*
X196080Y741300D02*
Y757300D01*
X215030Y908640D02*
X246030D01*
X215030Y926640D02*
X246030D01*
X215030Y908640D02*
Y926640D01*
X246030Y908640D02*
Y926640D01*
X195550Y916750D02*
X204550D01*
X195550Y900750D02*
X204550D01*
Y916750D01*
X195550Y900750D02*
Y916750D01*
X642590Y684310D02*
Y720310D01*
X670590Y684310D02*
Y720310D01*
X642590Y684310D02*
X670590D01*
X642590Y720310D02*
X670590D01*
X684910Y663400D02*
Y672400D01*
X668910Y663400D02*
Y672400D01*
Y663400D02*
X684910D01*
X668910Y672400D02*
X684910D01*
X677490Y704350D02*
X686490D01*
X677490Y720350D02*
X686490D01*
X677490Y704350D02*
Y720350D01*
X686490Y704350D02*
Y720350D01*
X642590Y849020D02*
Y885020D01*
X670590Y849020D02*
Y885020D01*
X642590Y849020D02*
X670590D01*
X642590Y885020D02*
X670590D01*
X684910Y828110D02*
Y837110D01*
X668910Y828110D02*
Y837110D01*
Y828110D02*
X684910D01*
X668910Y837110D02*
X684910D01*
X677490Y869060D02*
X686490D01*
X677490Y885060D02*
X686490D01*
X677490Y869060D02*
Y885060D01*
X686490Y869060D02*
Y885060D01*
X683640Y989910D02*
Y998910D01*
X667640Y989910D02*
Y998910D01*
Y989910D02*
X683640D01*
X667640Y998910D02*
X683640D01*
X676220Y1030860D02*
X685220D01*
X676220Y1046860D02*
X685220D01*
X676220Y1030860D02*
Y1046860D01*
X685220Y1030860D02*
Y1046860D01*
X638780Y1184300D02*
Y1220300D01*
X666780Y1184300D02*
Y1220300D01*
X638780Y1184300D02*
X666780D01*
X638780Y1220300D02*
X666780D01*
X681100Y1163390D02*
Y1172390D01*
X665100Y1163390D02*
Y1172390D01*
Y1163390D02*
X681100D01*
X665100Y1172390D02*
X681100D01*
X673680Y1204340D02*
X682680D01*
X673680Y1220340D02*
X682680D01*
X673680Y1204340D02*
Y1220340D01*
X682680Y1204340D02*
Y1220340D01*
X637520Y490320D02*
X698520D01*
X637520Y566320D02*
X698520D01*
X637520Y490320D02*
Y566320D01*
X698520Y490320D02*
Y566320D01*
X691260Y613990D02*
Y622990D01*
X675260Y613990D02*
Y622990D01*
Y613990D02*
X691260D01*
X675260Y622990D02*
X691260D01*
Y594940D02*
Y603940D01*
X675260Y594940D02*
Y603940D01*
Y594940D02*
X691260D01*
X675260Y603940D02*
X691260D01*
X689990Y453970D02*
Y462970D01*
X673990Y453970D02*
Y462970D01*
Y453970D02*
X689990D01*
X673990Y462970D02*
X689990D01*
Y434920D02*
Y443920D01*
X673990Y434920D02*
Y443920D01*
Y434920D02*
X689990D01*
X673990Y443920D02*
X689990D01*
X175750Y1197600D02*
Y1228100D01*
X161750Y1197600D02*
Y1228100D01*
Y1197600D02*
X175750D01*
X161750Y1228100D02*
X175750D01*
X198700Y1204850D02*
X207700D01*
X198700Y1220850D02*
X207700D01*
X198700Y1204850D02*
Y1220850D01*
X207700Y1204850D02*
Y1220850D01*
X140590Y1177870D02*
Y1186870D01*
X156590Y1177870D02*
Y1186870D01*
X140590D02*
X156590D01*
X140590Y1177870D02*
X156590D01*
X831160Y158370D02*
X840160D01*
X831160Y174370D02*
X840160D01*
X831160Y158370D02*
Y174370D01*
X840160Y158370D02*
Y174370D01*
X724480Y121540D02*
X733480D01*
X724480Y137540D02*
X733480D01*
X724480Y121540D02*
Y137540D01*
X733480Y121540D02*
Y137540D01*
X343480Y99950D02*
X352480D01*
X343480Y115950D02*
X352480D01*
X343480Y99950D02*
Y115950D01*
X352480Y99950D02*
Y115950D01*
X366380Y128900D02*
X412380D01*
X366380Y99700D02*
X412380D01*
X366380D02*
Y128900D01*
X412380Y99700D02*
Y128900D01*
X427360Y122810D02*
X456560D01*
X427360Y75310D02*
X456560D01*
Y122810D01*
X427360Y75310D02*
Y122810D01*
X156590Y163200D02*
Y192400D01*
X204090Y163200D02*
Y192400D01*
X156590D02*
X204090D01*
X156590Y163200D02*
X204090D01*
X546545Y61845D02*
Y110875D01*
X507550Y61845D02*
Y110875D01*
Y61845D02*
X546545D01*
X507550Y110875D02*
X546545D01*
X167520Y344820D02*
X216020D01*
X167520Y305420D02*
X216020D01*
X167520D02*
Y344820D01*
X216020Y305420D02*
Y344820D01*
X583310Y100910D02*
Y109910D01*
X567310Y100910D02*
Y109910D01*
Y100910D02*
X583310D01*
X567310Y109910D02*
X583310D01*
X248800Y344820D02*
X297300D01*
X248800Y305420D02*
X297300D01*
X248800D02*
Y344820D01*
X297300Y305420D02*
Y344820D01*
X249300Y164470D02*
Y193670D01*
X296800Y164470D02*
Y193670D01*
X249300D02*
X296800D01*
X249300Y164470D02*
X296800D01*
X584580Y75510D02*
Y84510D01*
X568580Y75510D02*
Y84510D01*
Y75510D02*
X584580D01*
X568580Y84510D02*
X584580D01*
X325230Y1269740D02*
Y1300740D01*
X307230Y1269740D02*
Y1300740D01*
Y1269740D02*
X325230D01*
X307230Y1300740D02*
X325230D01*
X318390Y1251530D02*
Y1260530D01*
X334390Y1251530D02*
Y1260530D01*
X318390D02*
X334390D01*
X318390Y1251530D02*
X334390D01*
D103*
X409286Y114300D02*
D03*
D104*
X441960Y119616D02*
D03*
D105*
X159784Y177800D02*
D03*
X252494Y179070D02*
D03*
D106*
X212758Y325120D02*
D03*
X294038D02*
D03*
M02*
