G04*
G04 #@! TF.GenerationSoftware,Altium Limited,Altium Designer,22.9.1 (49)*
G04*
G04 Layer_Color=8388736*
%FSLAX44Y44*%
%MOMM*%
G71*
G04*
G04 #@! TF.SameCoordinates,544A37EE-08D3-4304-B61F-9C5D6A74D4DB*
G04*
G04*
G04 #@! TF.FilePolarity,Negative*
G04*
G01*
G75*
G04:AMPARAMS|DCode=16|XSize=2.49mm|YSize=3mm|CornerRadius=0.0498mm|HoleSize=0mm|Usage=FLASHONLY|Rotation=90.000|XOffset=0mm|YOffset=0mm|HoleType=Round|Shape=RoundedRectangle|*
%AMROUNDEDRECTD16*
21,1,2.4900,2.9004,0,0,90.0*
21,1,2.3904,3.0000,0,0,90.0*
1,1,0.0996,1.4502,1.1952*
1,1,0.0996,1.4502,-1.1952*
1,1,0.0996,-1.4502,-1.1952*
1,1,0.0996,-1.4502,1.1952*
%
%ADD16ROUNDEDRECTD16*%
G04:AMPARAMS|DCode=17|XSize=2.49mm|YSize=3mm|CornerRadius=0.0498mm|HoleSize=0mm|Usage=FLASHONLY|Rotation=180.000|XOffset=0mm|YOffset=0mm|HoleType=Round|Shape=RoundedRectangle|*
%AMROUNDEDRECTD17*
21,1,2.4900,2.9004,0,0,180.0*
21,1,2.3904,3.0000,0,0,180.0*
1,1,0.0996,-1.1952,1.4502*
1,1,0.0996,1.1952,1.4502*
1,1,0.0996,1.1952,-1.4502*
1,1,0.0996,-1.1952,-1.4502*
%
%ADD17ROUNDEDRECTD17*%
%ADD35R,1.5000X3.3000*%
%ADD36R,1.5000X1.2000*%
%ADD44R,0.8500X1.4500*%
G04:AMPARAMS|DCode=45|XSize=0.7mm|YSize=1.4mm|CornerRadius=0.1245mm|HoleSize=0mm|Usage=FLASHONLY|Rotation=180.000|XOffset=0mm|YOffset=0mm|HoleType=Round|Shape=RoundedRectangle|*
%AMROUNDEDRECTD45*
21,1,0.7000,1.1510,0,0,180.0*
21,1,0.4510,1.4000,0,0,180.0*
1,1,0.2490,-0.2255,0.5755*
1,1,0.2490,0.2255,0.5755*
1,1,0.2490,0.2255,-0.5755*
1,1,0.2490,-0.2255,-0.5755*
%
%ADD45ROUNDEDRECTD45*%
G04:AMPARAMS|DCode=46|XSize=0.7mm|YSize=1.4mm|CornerRadius=0.1245mm|HoleSize=0mm|Usage=FLASHONLY|Rotation=270.000|XOffset=0mm|YOffset=0mm|HoleType=Round|Shape=RoundedRectangle|*
%AMROUNDEDRECTD46*
21,1,0.7000,1.1510,0,0,270.0*
21,1,0.4510,1.4000,0,0,270.0*
1,1,0.2490,-0.5755,-0.2255*
1,1,0.2490,-0.5755,0.2255*
1,1,0.2490,0.5755,0.2255*
1,1,0.2490,0.5755,-0.2255*
%
%ADD46ROUNDEDRECTD46*%
%ADD47R,0.6500X0.7500*%
%ADD48R,0.7500X0.6500*%
%ADD49R,1.1500X1.1000*%
%ADD50R,1.5500X1.3500*%
%ADD51O,1.8000X0.5000*%
%ADD52R,1.9700X1.3700*%
%ADD53R,0.4000X0.7500*%
%ADD54R,2.3800X0.8500*%
%ADD55R,2.3800X0.6500*%
%ADD56O,0.4500X2.1500*%
%ADD57O,0.6000X1.8500*%
%ADD58R,1.1000X1.1500*%
%ADD59O,0.7500X1.8500*%
%ADD60R,1.9500X0.7500*%
%ADD61R,2.6500X1.8500*%
%ADD62R,1.7000X2.6500*%
%ADD63R,2.6500X1.7000*%
%ADD64O,1.2930X0.9100*%
%ADD65R,2.4100X3.1400*%
%ADD66R,2.7500X2.3000*%
%ADD67R,1.4500X0.8500*%
%ADD68C,1.2500*%
%ADD69C,1.4500*%
%ADD70O,3.3499X3.3500*%
%ADD71C,1.9280*%
%ADD72R,1.6500X1.6500*%
%ADD73C,1.6500*%
%ADD74C,2.4500*%
%ADD75R,1.6580X1.6580*%
%ADD76C,7.6500*%
%ADD77C,2.6500*%
%ADD78C,0.7850*%
%ADD79C,0.6500*%
%ADD80C,1.4200*%
%ADD81C,2.0550*%
D16*
X213360Y657860D02*
D03*
X206630Y1137030D02*
D03*
X215820Y819150D02*
D03*
X215290Y978600D02*
D03*
D17*
X292100Y647700D02*
D03*
X304800Y703580D02*
D03*
X285370Y1126870D02*
D03*
X298070Y1182750D02*
D03*
X307260Y864870D02*
D03*
X294560Y808990D02*
D03*
X306730Y1024320D02*
D03*
X294030Y968440D02*
D03*
X228600Y1270000D02*
D03*
D35*
X813050Y161290D02*
D03*
D36*
X749050Y138290D02*
D03*
Y161290D02*
D03*
Y184290D02*
D03*
D44*
X219100Y608900D02*
D03*
X228600D02*
D03*
X238100D02*
D03*
Y584900D02*
D03*
X228600D02*
D03*
X219100D02*
D03*
X212370Y1088070D02*
D03*
X221870D02*
D03*
X231370D02*
D03*
Y1064070D02*
D03*
X221870D02*
D03*
X212370D02*
D03*
X221560Y746190D02*
D03*
X231060D02*
D03*
X240560D02*
D03*
Y770190D02*
D03*
X231060D02*
D03*
X221560D02*
D03*
X221030Y905640D02*
D03*
X230530D02*
D03*
X240030D02*
D03*
Y929640D02*
D03*
X230530D02*
D03*
X221030D02*
D03*
D45*
X194310Y631610D02*
D03*
X207010D02*
D03*
X219710D02*
D03*
X232410D02*
D03*
X194310Y684110D02*
D03*
X207010D02*
D03*
X219710D02*
D03*
X232410D02*
D03*
X187580Y1110780D02*
D03*
X200280D02*
D03*
X212980D02*
D03*
X225680D02*
D03*
X187580Y1163280D02*
D03*
X200280D02*
D03*
X212980D02*
D03*
X225680D02*
D03*
X234870Y845400D02*
D03*
X222170D02*
D03*
X209470D02*
D03*
X196770D02*
D03*
X234870Y792900D02*
D03*
X222170D02*
D03*
X209470D02*
D03*
X196770D02*
D03*
X234340Y1004850D02*
D03*
X221640D02*
D03*
X208940D02*
D03*
X196240D02*
D03*
X234340Y952350D02*
D03*
X221640D02*
D03*
X208940D02*
D03*
X196240D02*
D03*
D46*
X318350Y628650D02*
D03*
Y641350D02*
D03*
Y654050D02*
D03*
Y666750D02*
D03*
X265850Y628650D02*
D03*
Y641350D02*
D03*
Y654050D02*
D03*
Y666750D02*
D03*
X278550Y722630D02*
D03*
Y709930D02*
D03*
Y697230D02*
D03*
Y684530D02*
D03*
X331050Y722630D02*
D03*
Y709930D02*
D03*
Y697230D02*
D03*
Y684530D02*
D03*
X311620Y1107820D02*
D03*
Y1120520D02*
D03*
Y1133220D02*
D03*
Y1145920D02*
D03*
X259120Y1107820D02*
D03*
Y1120520D02*
D03*
Y1133220D02*
D03*
Y1145920D02*
D03*
X271820Y1201800D02*
D03*
Y1189100D02*
D03*
Y1176400D02*
D03*
Y1163700D02*
D03*
X324320Y1201800D02*
D03*
Y1189100D02*
D03*
Y1176400D02*
D03*
Y1163700D02*
D03*
X333510Y845820D02*
D03*
Y858520D02*
D03*
Y871220D02*
D03*
Y883920D02*
D03*
X281010Y845820D02*
D03*
Y858520D02*
D03*
Y871220D02*
D03*
Y883920D02*
D03*
X268310Y828040D02*
D03*
Y815340D02*
D03*
Y802640D02*
D03*
Y789940D02*
D03*
X320810Y828040D02*
D03*
Y815340D02*
D03*
Y802640D02*
D03*
Y789940D02*
D03*
X332980Y1005270D02*
D03*
Y1017970D02*
D03*
Y1030670D02*
D03*
Y1043370D02*
D03*
X280480Y1005270D02*
D03*
Y1017970D02*
D03*
Y1030670D02*
D03*
Y1043370D02*
D03*
X267780Y987490D02*
D03*
Y974790D02*
D03*
Y962090D02*
D03*
Y949390D02*
D03*
X320280Y987490D02*
D03*
Y974790D02*
D03*
Y962090D02*
D03*
Y949390D02*
D03*
X202350Y1289050D02*
D03*
Y1276350D02*
D03*
Y1263650D02*
D03*
Y1250950D02*
D03*
X254850Y1289050D02*
D03*
Y1276350D02*
D03*
Y1263650D02*
D03*
Y1250950D02*
D03*
D47*
X200580Y609600D02*
D03*
X190580D02*
D03*
X251540Y695960D02*
D03*
X261540D02*
D03*
X236300Y709930D02*
D03*
X246300D02*
D03*
X307260Y477520D02*
D03*
X297260D02*
D03*
X339170Y497840D02*
D03*
X349170D02*
D03*
X835740Y195580D02*
D03*
X845740D02*
D03*
X193850Y1088770D02*
D03*
X183850D02*
D03*
X244810Y1175130D02*
D03*
X254810D02*
D03*
X229570Y1189100D02*
D03*
X239570D02*
D03*
X86280Y1021080D02*
D03*
X76280D02*
D03*
X99140Y1007110D02*
D03*
X109140D02*
D03*
X99140Y1021080D02*
D03*
X109140D02*
D03*
X87710Y865460D02*
D03*
X77710D02*
D03*
X100570Y851490D02*
D03*
X110570D02*
D03*
X100570Y865460D02*
D03*
X110570D02*
D03*
X90010Y705440D02*
D03*
X80010D02*
D03*
X102870Y691470D02*
D03*
X112870D02*
D03*
X102870Y705440D02*
D03*
X112870D02*
D03*
X93900Y1178560D02*
D03*
X83900D02*
D03*
X106760Y1164590D02*
D03*
X116760D02*
D03*
X106760Y1178560D02*
D03*
X116760D02*
D03*
X248760Y871220D02*
D03*
X238760D02*
D03*
X264000Y857250D02*
D03*
X254000D02*
D03*
X193040Y770890D02*
D03*
X203040D02*
D03*
X248230Y1030670D02*
D03*
X238230D02*
D03*
X263470Y1016700D02*
D03*
X253470D02*
D03*
X192510Y930340D02*
D03*
X202510D02*
D03*
X661590Y733940D02*
D03*
X651590D02*
D03*
X661590Y898650D02*
D03*
X651590D02*
D03*
X660320Y1060450D02*
D03*
X650320D02*
D03*
X657780Y1233930D02*
D03*
X647780D02*
D03*
D48*
X248920Y664130D02*
D03*
Y654130D02*
D03*
X347980Y697150D02*
D03*
Y687150D02*
D03*
X260350Y720010D02*
D03*
Y710010D02*
D03*
X325120Y500300D02*
D03*
Y490300D02*
D03*
X323850Y528240D02*
D03*
Y518240D02*
D03*
X341630Y521890D02*
D03*
Y511890D02*
D03*
X246380Y514430D02*
D03*
Y524430D02*
D03*
X330200Y477440D02*
D03*
Y467440D02*
D03*
X242190Y1143300D02*
D03*
Y1133300D02*
D03*
X341250Y1176320D02*
D03*
Y1166320D02*
D03*
X253620Y1199180D02*
D03*
Y1189180D02*
D03*
X120650Y983060D02*
D03*
Y993060D02*
D03*
X122080Y827440D02*
D03*
Y837440D02*
D03*
X124380Y667420D02*
D03*
Y677420D02*
D03*
X128270Y1140540D02*
D03*
Y1150540D02*
D03*
X171450Y568880D02*
D03*
Y558880D02*
D03*
X176530Y722550D02*
D03*
Y712550D02*
D03*
X175260Y881300D02*
D03*
Y871300D02*
D03*
X171450Y1036240D02*
D03*
Y1026240D02*
D03*
X262810Y871300D02*
D03*
Y881300D02*
D03*
X350440Y848440D02*
D03*
Y858440D02*
D03*
X251380Y815420D02*
D03*
Y825420D02*
D03*
X262280Y1030750D02*
D03*
Y1040750D02*
D03*
X349910Y1007890D02*
D03*
Y1017890D02*
D03*
X250850Y974870D02*
D03*
Y984870D02*
D03*
X647700Y452200D02*
D03*
Y462200D02*
D03*
X355600Y75010D02*
D03*
Y85010D02*
D03*
X486410Y105330D02*
D03*
Y95330D02*
D03*
Y66120D02*
D03*
Y76120D02*
D03*
X472440Y54690D02*
D03*
Y64690D02*
D03*
X284480Y1266270D02*
D03*
Y1276270D02*
D03*
D49*
X198120Y580010D02*
D03*
Y596010D02*
D03*
X191390Y1059180D02*
D03*
Y1075180D02*
D03*
X200580Y757300D02*
D03*
Y741300D02*
D03*
X200050Y916750D02*
D03*
Y900750D02*
D03*
X681990Y704350D02*
D03*
Y720350D02*
D03*
Y869060D02*
D03*
Y885060D02*
D03*
X680720Y1030860D02*
D03*
Y1046860D02*
D03*
X678180Y1204340D02*
D03*
Y1220340D02*
D03*
X203200Y1204850D02*
D03*
Y1220850D02*
D03*
X835660Y158370D02*
D03*
Y174370D02*
D03*
X728980Y121540D02*
D03*
Y137540D02*
D03*
X347980Y99950D02*
D03*
Y115950D02*
D03*
D50*
X350110Y464060D02*
D03*
Y480060D02*
D03*
X372110D02*
D03*
Y464060D02*
D03*
D51*
X306000Y494190D02*
D03*
Y499190D02*
D03*
Y504190D02*
D03*
Y509190D02*
D03*
Y514190D02*
D03*
X265500Y494190D02*
D03*
Y499190D02*
D03*
Y504190D02*
D03*
Y509190D02*
D03*
Y514190D02*
D03*
D52*
X311150Y116840D02*
D03*
Y91440D02*
D03*
Y66040D02*
D03*
X196650D02*
D03*
Y91440D02*
D03*
Y116840D02*
D03*
D53*
X665070Y1045320D02*
D03*
X658570D02*
D03*
X652070D02*
D03*
X645570D02*
D03*
X665070Y1012320D02*
D03*
X658570D02*
D03*
X652070D02*
D03*
X645570D02*
D03*
X646840Y685810D02*
D03*
X653340D02*
D03*
X659840D02*
D03*
X666340D02*
D03*
X646840Y718810D02*
D03*
X653340D02*
D03*
X659840D02*
D03*
X666340D02*
D03*
X646840Y850520D02*
D03*
X653340D02*
D03*
X659840D02*
D03*
X666340D02*
D03*
X646840Y883520D02*
D03*
X653340D02*
D03*
X659840D02*
D03*
X666340D02*
D03*
X643030Y1185800D02*
D03*
X649530D02*
D03*
X656030D02*
D03*
X662530D02*
D03*
X643030Y1218800D02*
D03*
X649530D02*
D03*
X656030D02*
D03*
X662530D02*
D03*
D54*
X655320Y1036320D02*
D03*
X656590Y709810D02*
D03*
Y874520D02*
D03*
X652780Y1209800D02*
D03*
D55*
X655320Y1020320D02*
D03*
X656590Y693810D02*
D03*
Y858520D02*
D03*
X652780Y1193800D02*
D03*
D56*
X81440Y941660D02*
D03*
X86440D02*
D03*
X91440D02*
D03*
X96440D02*
D03*
X101440D02*
D03*
X81440Y983660D02*
D03*
X86440D02*
D03*
X91440D02*
D03*
X96440D02*
D03*
X101440D02*
D03*
X82870Y786040D02*
D03*
X87870D02*
D03*
X92870D02*
D03*
X97870D02*
D03*
X102870D02*
D03*
X82870Y828040D02*
D03*
X87870D02*
D03*
X92870D02*
D03*
X97870D02*
D03*
X102870D02*
D03*
X85170Y626020D02*
D03*
X90170D02*
D03*
X95170D02*
D03*
X100170D02*
D03*
X105170D02*
D03*
X85170Y668020D02*
D03*
X90170D02*
D03*
X95170D02*
D03*
X100170D02*
D03*
X105170D02*
D03*
X89060Y1099140D02*
D03*
X94060D02*
D03*
X99060D02*
D03*
X104060D02*
D03*
X109060D02*
D03*
X89060Y1141140D02*
D03*
X94060D02*
D03*
X99060D02*
D03*
X104060D02*
D03*
X109060D02*
D03*
D57*
X135030Y559390D02*
D03*
X141530D02*
D03*
X148030D02*
D03*
X154530D02*
D03*
X135030Y601390D02*
D03*
X141530D02*
D03*
X148030D02*
D03*
X154530D02*
D03*
X140110Y713060D02*
D03*
X146610D02*
D03*
X153110D02*
D03*
X159610D02*
D03*
X140110Y755060D02*
D03*
X146610D02*
D03*
X153110D02*
D03*
X159610D02*
D03*
X138840Y871810D02*
D03*
X145340D02*
D03*
X151840D02*
D03*
X158340D02*
D03*
X138840Y913810D02*
D03*
X145340D02*
D03*
X151840D02*
D03*
X158340D02*
D03*
X135030Y1026750D02*
D03*
X141530D02*
D03*
X148030D02*
D03*
X154530D02*
D03*
X135030Y1068750D02*
D03*
X141530D02*
D03*
X148030D02*
D03*
X154530D02*
D03*
D58*
X684910Y667900D02*
D03*
X668910D02*
D03*
X684910Y832610D02*
D03*
X668910D02*
D03*
X683640Y994410D02*
D03*
X667640D02*
D03*
X681100Y1167890D02*
D03*
X665100D02*
D03*
X691260Y618490D02*
D03*
X675260D02*
D03*
X691260Y599440D02*
D03*
X675260D02*
D03*
X689990Y458470D02*
D03*
X673990D02*
D03*
X689990Y439420D02*
D03*
X673990D02*
D03*
X140590Y1182370D02*
D03*
X156590D02*
D03*
X583310Y105410D02*
D03*
X567310D02*
D03*
X584580Y80010D02*
D03*
X568580D02*
D03*
X318390Y1256030D02*
D03*
X334390D02*
D03*
D59*
X648970Y480320D02*
D03*
X661670D02*
D03*
X674370D02*
D03*
X687070D02*
D03*
X648970Y576320D02*
D03*
X661670D02*
D03*
X674370D02*
D03*
X687070D02*
D03*
D60*
X178750Y1203350D02*
D03*
Y1222350D02*
D03*
X158750Y1212850D02*
D03*
D61*
X373630Y114300D02*
D03*
X405130D02*
D03*
D62*
X441960Y115060D02*
D03*
Y83060D02*
D03*
D63*
X164340Y177800D02*
D03*
X196340D02*
D03*
X257050Y179070D02*
D03*
X289050D02*
D03*
D64*
X553065Y67310D02*
D03*
Y80010D02*
D03*
Y92710D02*
D03*
Y105410D02*
D03*
X501035Y67310D02*
D03*
Y80010D02*
D03*
Y92710D02*
D03*
Y105410D02*
D03*
D65*
X527050Y86360D02*
D03*
D66*
X175270Y325120D02*
D03*
X208270D02*
D03*
X256550D02*
D03*
X289550D02*
D03*
D67*
X328230Y1275740D02*
D03*
Y1285240D02*
D03*
Y1294740D02*
D03*
X304230D02*
D03*
Y1285240D02*
D03*
Y1275740D02*
D03*
D68*
X779780Y514350D02*
D03*
Y488950D02*
D03*
Y463550D02*
D03*
X830580Y514350D02*
D03*
Y463550D02*
D03*
X204940Y248920D02*
D03*
X154940D02*
D03*
X311620D02*
D03*
X261620D02*
D03*
D69*
X568960Y676910D02*
D03*
Y549910D02*
D03*
X492760Y676910D02*
D03*
Y549910D02*
D03*
X416560Y676910D02*
D03*
Y549910D02*
D03*
X568960Y880110D02*
D03*
Y753110D02*
D03*
X492760Y880110D02*
D03*
Y753110D02*
D03*
X416560Y880110D02*
D03*
Y753110D02*
D03*
X568960Y1083310D02*
D03*
Y956310D02*
D03*
X492760Y1083310D02*
D03*
Y956310D02*
D03*
X416560Y1083310D02*
D03*
Y956310D02*
D03*
X568960Y1286510D02*
D03*
Y1159510D02*
D03*
X492760Y1286510D02*
D03*
Y1159510D02*
D03*
X416560Y1286510D02*
D03*
Y1159510D02*
D03*
X715010Y1160780D02*
D03*
Y1135380D02*
D03*
Y665480D02*
D03*
Y640080D02*
D03*
Y995680D02*
D03*
Y970280D02*
D03*
Y830580D02*
D03*
Y805180D02*
D03*
D70*
X662940Y67310D02*
D03*
D71*
X624840Y168910D02*
D03*
X650240D02*
D03*
X675640D02*
D03*
X701040D02*
D03*
D72*
X398780Y166370D02*
D03*
D73*
X424180D02*
D03*
D74*
X151130Y481340D02*
D03*
Y434340D02*
D03*
Y387340D02*
D03*
X24130Y408940D02*
D03*
Y459740D02*
D03*
D75*
X857250Y405130D02*
D03*
X831850D02*
D03*
X806450D02*
D03*
X781050D02*
D03*
X755650D02*
D03*
X730250D02*
D03*
X704850D02*
D03*
X679450D02*
D03*
X654050D02*
D03*
X628650D02*
D03*
X603250D02*
D03*
X577850D02*
D03*
X552450D02*
D03*
X527050D02*
D03*
X501650D02*
D03*
X476250D02*
D03*
X450850D02*
D03*
X425450D02*
D03*
X400050D02*
D03*
X374650D02*
D03*
X857250Y227330D02*
D03*
X831850D02*
D03*
X806450D02*
D03*
X781050D02*
D03*
X755650D02*
D03*
X730250D02*
D03*
X704850D02*
D03*
X679450D02*
D03*
X654050D02*
D03*
X628650D02*
D03*
X603250D02*
D03*
X577850D02*
D03*
X552450D02*
D03*
X527050D02*
D03*
X501650D02*
D03*
X476250D02*
D03*
X450850D02*
D03*
X425450D02*
D03*
X400050D02*
D03*
X374650D02*
D03*
D76*
X824230Y67310D02*
D03*
X72390Y72390D02*
D03*
Y1270000D02*
D03*
X824230D02*
D03*
D77*
X765810Y1186180D02*
D03*
Y1084580D02*
D03*
Y690880D02*
D03*
Y589280D02*
D03*
Y1021080D02*
D03*
Y919480D02*
D03*
Y855980D02*
D03*
Y754380D02*
D03*
D78*
X183260Y580010D02*
D03*
X184530Y596010D02*
D03*
X223520Y709930D02*
D03*
X278550Y735750D02*
D03*
X264160Y680720D02*
D03*
X331050Y735750D02*
D03*
X344170Y709930D02*
D03*
X318350Y616370D02*
D03*
X332740Y666750D02*
D03*
X265850Y615100D02*
D03*
X252730Y641350D02*
D03*
X179920Y631610D02*
D03*
X244690D02*
D03*
X194310Y697230D02*
D03*
X207010D02*
D03*
X251460Y623570D02*
D03*
X255270Y600710D02*
D03*
X255840Y584900D02*
D03*
X228600Y567690D02*
D03*
X687070Y497840D02*
D03*
X372110Y450850D02*
D03*
X385320Y464060D02*
D03*
X356870Y509270D02*
D03*
X284480Y477520D02*
D03*
X318770D02*
D03*
X246380Y501650D02*
D03*
X235030Y514430D02*
D03*
X260350Y527050D02*
D03*
X347980Y534670D02*
D03*
X323850Y539750D02*
D03*
X661670Y439420D02*
D03*
X660400Y461010D02*
D03*
X647700Y439420D02*
D03*
X648970Y593090D02*
D03*
X699135Y439420D02*
D03*
Y458470D02*
D03*
X330200Y457200D02*
D03*
X216790Y1189100D02*
D03*
X244730Y1102740D02*
D03*
X248540Y1079880D02*
D03*
X249110Y1064070D02*
D03*
X177800Y1075180D02*
D03*
X176530Y1059180D02*
D03*
X221870Y1046860D02*
D03*
X173190Y1110780D02*
D03*
X187580Y1176400D02*
D03*
X200280D02*
D03*
X237960Y1110780D02*
D03*
X257430Y1159890D02*
D03*
X246000Y1120520D02*
D03*
X259120Y1094270D02*
D03*
X311620Y1095540D02*
D03*
X326010Y1145920D02*
D03*
X337440Y1189100D02*
D03*
X324320Y1214920D02*
D03*
X271820Y1214920D02*
D03*
X201930Y568960D02*
D03*
X196930Y712550D02*
D03*
X198120Y876300D02*
D03*
X201930Y1033780D02*
D03*
X203200Y1192530D02*
D03*
X149860Y671830D02*
D03*
X181610Y91440D02*
D03*
X728980Y109220D02*
D03*
X485060Y54690D02*
D03*
X835660Y146050D02*
D03*
X731520Y173990D02*
D03*
X595630Y105410D02*
D03*
X553065Y120035D02*
D03*
X596900Y80010D02*
D03*
X168910Y1184910D02*
D03*
X133350Y1196340D02*
D03*
X153670Y1167130D02*
D03*
X130810Y541020D02*
D03*
X141530Y536650D02*
D03*
X153670Y539750D02*
D03*
X156210Y680720D02*
D03*
X160020Y692150D02*
D03*
X144780Y833120D02*
D03*
X152400Y842010D02*
D03*
X160020Y850900D02*
D03*
X140970Y993140D02*
D03*
X147320Y1000760D02*
D03*
X156210Y1005840D02*
D03*
X185420Y1275080D02*
D03*
X186690Y1250950D02*
D03*
X270510D02*
D03*
X306070Y1256030D02*
D03*
X345440D02*
D03*
X346710Y1295400D02*
D03*
Y1285240D02*
D03*
X285750Y1300480D02*
D03*
X284480Y1289050D02*
D03*
X254850Y1302600D02*
D03*
X186690Y1263650D02*
D03*
X704850Y599440D02*
D03*
X703580Y618490D02*
D03*
X675260Y632840D02*
D03*
X705860Y576320D02*
D03*
X661670Y593090D02*
D03*
X185720Y741300D02*
D03*
X186990Y757300D02*
D03*
X225980Y871220D02*
D03*
X281010Y897040D02*
D03*
X266620Y842010D02*
D03*
X333510Y897040D02*
D03*
X346630Y871220D02*
D03*
X320810Y777660D02*
D03*
X335200Y828040D02*
D03*
X268310Y776390D02*
D03*
X255190Y802640D02*
D03*
X182380Y792900D02*
D03*
X247150D02*
D03*
X196770Y858520D02*
D03*
X209470D02*
D03*
X253920Y784860D02*
D03*
X257730Y762000D02*
D03*
X258300Y746190D02*
D03*
X231060Y728980D02*
D03*
X185190Y900750D02*
D03*
X186460Y916750D02*
D03*
X225450Y1030670D02*
D03*
X280480Y1056490D02*
D03*
X266090Y1001460D02*
D03*
X332980Y1056490D02*
D03*
X346100Y1030670D02*
D03*
X320280Y937110D02*
D03*
X334670Y987490D02*
D03*
X267780Y935840D02*
D03*
X254660Y962090D02*
D03*
X181850Y952350D02*
D03*
X246620D02*
D03*
X196240Y1017970D02*
D03*
X208940D02*
D03*
X253390Y944310D02*
D03*
X257200Y921450D02*
D03*
X257770Y905640D02*
D03*
X230530Y888430D02*
D03*
X696850Y720350D02*
D03*
X681990Y692030D02*
D03*
X668910Y654820D02*
D03*
X684910Y654310D02*
D03*
X633840Y718810D02*
D03*
X655320Y667900D02*
D03*
X642620Y669170D02*
D03*
X633860Y685810D02*
D03*
X633730Y708540D02*
D03*
Y698380D02*
D03*
X696850Y885060D02*
D03*
X681990Y856740D02*
D03*
X668910Y819530D02*
D03*
X684910Y819020D02*
D03*
X633840Y883520D02*
D03*
X655320Y832610D02*
D03*
X642620Y833880D02*
D03*
X633860Y850520D02*
D03*
X633730Y873250D02*
D03*
Y863090D02*
D03*
X695580Y1046860D02*
D03*
X680720Y1018540D02*
D03*
X667640Y981330D02*
D03*
X683640Y980820D02*
D03*
X632570Y1045320D02*
D03*
X654050Y994410D02*
D03*
X641350Y995680D02*
D03*
X632590Y1012320D02*
D03*
X632460Y1035050D02*
D03*
Y1024890D02*
D03*
X681100Y1154300D02*
D03*
X638810Y1169160D02*
D03*
X651510Y1167890D02*
D03*
X629920Y1198370D02*
D03*
Y1208530D02*
D03*
X678180Y1192020D02*
D03*
X693040Y1220340D02*
D03*
X665100Y1154810D02*
D03*
X630050Y1185800D02*
D03*
X630030Y1218800D02*
D03*
X124380Y655910D02*
D03*
X102870Y716790D02*
D03*
X124380Y705440D02*
D03*
Y691470D02*
D03*
X80010Y716790D02*
D03*
X69180Y626020D02*
D03*
X82470Y603840D02*
D03*
X93900Y600030D02*
D03*
X104060Y605110D02*
D03*
X74850Y691470D02*
D03*
X86280Y692740D02*
D03*
X122080Y815930D02*
D03*
X100570Y876810D02*
D03*
X122080Y865460D02*
D03*
Y851490D02*
D03*
X77710Y876810D02*
D03*
X66880Y786040D02*
D03*
X80170Y763860D02*
D03*
X91600Y760050D02*
D03*
X101760Y765130D02*
D03*
X72550Y851490D02*
D03*
X83980Y852760D02*
D03*
X120650Y971550D02*
D03*
X99140Y1032430D02*
D03*
X120650Y1021080D02*
D03*
Y1007110D02*
D03*
X76280Y1032430D02*
D03*
X65450Y941660D02*
D03*
X78740Y919480D02*
D03*
X90170Y915670D02*
D03*
X100330Y920750D02*
D03*
X71120Y1007110D02*
D03*
X82550Y1008380D02*
D03*
X86360Y1076960D02*
D03*
X97790Y1073150D02*
D03*
X107950Y1078230D02*
D03*
X73070Y1099140D02*
D03*
X78740Y1164590D02*
D03*
X128270Y1178560D02*
D03*
X106760Y1189910D02*
D03*
X83900Y1189910D02*
D03*
X90170Y1165860D02*
D03*
X128270Y1164590D02*
D03*
Y1129030D02*
D03*
X138430Y618490D02*
D03*
X121240Y601390D02*
D03*
X142240Y930910D02*
D03*
X143510Y772160D02*
D03*
X126320Y755060D02*
D03*
X125050Y913810D02*
D03*
X171450Y580390D02*
D03*
X176530Y734060D02*
D03*
X175260Y892810D02*
D03*
X138430Y1085850D02*
D03*
X121240Y1068750D02*
D03*
X171450Y1047750D02*
D03*
D79*
X219860Y664360D02*
D03*
Y651360D02*
D03*
X206860Y664360D02*
D03*
Y651360D02*
D03*
X285600Y654200D02*
D03*
X298600D02*
D03*
X285600Y641200D02*
D03*
X298600D02*
D03*
X311300Y697080D02*
D03*
X298300D02*
D03*
X311300Y710080D02*
D03*
X298300D02*
D03*
X213130Y1143530D02*
D03*
Y1130530D02*
D03*
X200130Y1143530D02*
D03*
Y1130530D02*
D03*
X278870Y1133370D02*
D03*
X291870D02*
D03*
X278870Y1120370D02*
D03*
X291870D02*
D03*
X304570Y1176250D02*
D03*
X291570D02*
D03*
X304570Y1189250D02*
D03*
X291570D02*
D03*
X181610Y495300D02*
D03*
X168910Y496570D02*
D03*
X181610Y466090D02*
D03*
X168910Y467360D02*
D03*
X176530Y506730D02*
D03*
X166370Y509270D02*
D03*
X185420Y518160D02*
D03*
X173990Y519430D02*
D03*
X438512Y565540D02*
D03*
X456114Y546266D02*
D03*
X453574Y534836D02*
D03*
X457384Y515786D02*
D03*
X418014Y500546D02*
D03*
X400234Y508166D02*
D03*
X414204Y514516D02*
D03*
X421824Y529756D02*
D03*
X407822Y527920D02*
D03*
X439604Y542456D02*
D03*
X435794Y510706D02*
D03*
X437064Y529756D02*
D03*
X335464Y564046D02*
D03*
X322764Y558966D02*
D03*
X324034Y574206D02*
D03*
X310064Y570396D02*
D03*
X307524Y556426D02*
D03*
X292100Y552450D02*
D03*
X298450Y574040D02*
D03*
X300760Y871370D02*
D03*
X313760D02*
D03*
X300760Y858370D02*
D03*
X313760D02*
D03*
X209320Y812650D02*
D03*
Y825650D02*
D03*
X222320Y812650D02*
D03*
Y825650D02*
D03*
X301060Y802490D02*
D03*
X288060D02*
D03*
X301060Y815490D02*
D03*
X288060D02*
D03*
X300230Y1030820D02*
D03*
X313230D02*
D03*
X300230Y1017820D02*
D03*
X313230D02*
D03*
X208790Y972100D02*
D03*
Y985100D02*
D03*
X221790Y972100D02*
D03*
Y985100D02*
D03*
X300530Y961940D02*
D03*
X287530D02*
D03*
X300530Y974940D02*
D03*
X287530D02*
D03*
X532550Y75360D02*
D03*
X521550D02*
D03*
X532550Y86360D02*
D03*
X521550D02*
D03*
X532550Y97360D02*
D03*
X521550D02*
D03*
X235100Y1263500D02*
D03*
X222100D02*
D03*
X235100Y1276500D02*
D03*
X222100D02*
D03*
D80*
X215900Y372110D02*
D03*
X256550Y372120D02*
D03*
X316230Y325120D02*
D03*
X147320D02*
D03*
X855980Y166370D02*
D03*
D81*
X510374Y166667D02*
D03*
X471170Y166370D02*
D03*
M02*
