G04*
G04 #@! TF.GenerationSoftware,Altium Limited,Altium Designer,22.9.1 (49)*
G04*
G04 Layer_Color=65535*
%FSLAX44Y44*%
%MOMM*%
G71*
G04*
G04 #@! TF.SameCoordinates,544A37EE-08D3-4304-B61F-9C5D6A74D4DB*
G04*
G04*
G04 #@! TF.FilePolarity,Positive*
G04*
G01*
G75*
%ADD10C,0.2500*%
%ADD11C,0.1000*%
%ADD12C,0.6000*%
%ADD13C,0.2000*%
%ADD14C,0.0500*%
%ADD15C,0.1524*%
D10*
X211350Y584900D02*
G03*
X211350Y584900I-1250J0D01*
G01*
X307250Y486940D02*
G03*
X307250Y486940I-1250J0D01*
G01*
X204620Y1064070D02*
G03*
X204620Y1064070I-1250J0D01*
G01*
X109690Y983660D02*
G03*
X109690Y983660I-1250J0D01*
G01*
X111120Y828040D02*
G03*
X111120Y828040I-1250J0D01*
G01*
X113420Y668020D02*
G03*
X113420Y668020I-1250J0D01*
G01*
X117310Y1141140D02*
G03*
X117310Y1141140I-1250J0D01*
G01*
X163530Y601390D02*
G03*
X163530Y601390I-1250J0D01*
G01*
X168610Y755060D02*
G03*
X168610Y755060I-1250J0D01*
G01*
X167340Y913810D02*
G03*
X167340Y913810I-1250J0D01*
G01*
X163530Y1068750D02*
G03*
X163530Y1068750I-1250J0D01*
G01*
X213810Y746190D02*
G03*
X213810Y746190I-1250J0D01*
G01*
X213280Y905640D02*
G03*
X213280Y905640I-1250J0D01*
G01*
X641720Y480320D02*
G03*
X641720Y480320I-1250J0D01*
G01*
X180000Y1194850D02*
G03*
X180000Y1194850I-1250J0D01*
G01*
X735300Y184790D02*
G03*
X735300Y184790I-1250J0D01*
G01*
X420130Y100300D02*
G03*
X420130Y100300I-1250J0D01*
G01*
X456460Y129560D02*
G03*
X456460Y129560I-1250J0D01*
G01*
X151090Y191050D02*
G03*
X151090Y191050I-1250J0D01*
G01*
X554315Y58010D02*
G03*
X554315Y58010I-1250J0D01*
G01*
X224020Y308870D02*
G03*
X224020Y308870I-1250J0D01*
G01*
X305300D02*
G03*
X305300Y308870I-1250J0D01*
G01*
X243800Y192320D02*
G03*
X243800Y192320I-1250J0D01*
G01*
X329480Y1266740D02*
G03*
X329480Y1266740I-1250J0D01*
G01*
D11*
X670820Y1051320D02*
G03*
X670820Y1051320I-500J0D01*
G01*
X672090Y724810D02*
G03*
X672090Y724810I-500J0D01*
G01*
Y889520D02*
G03*
X672090Y889520I-500J0D01*
G01*
X668280Y1224800D02*
G03*
X668280Y1224800I-500J0D01*
G01*
X669820Y1047820D02*
X670320D01*
X640320D02*
X640820D01*
X669820Y1009820D02*
X670320D01*
X640320D02*
X640820D01*
X670320Y1041270D02*
Y1047820D01*
Y1009820D02*
Y1016370D01*
X640320Y1041270D02*
Y1047820D01*
Y1009820D02*
Y1016370D01*
X641590Y683310D02*
Y689860D01*
Y714760D02*
Y721310D01*
X671590Y683310D02*
Y689860D01*
Y714760D02*
Y721310D01*
X641590Y683310D02*
X642090D01*
X671090D02*
X671590D01*
X641590Y721310D02*
X642090D01*
X671090D02*
X671590D01*
X641590Y848020D02*
Y854570D01*
Y879470D02*
Y886020D01*
X671590Y848020D02*
Y854570D01*
Y879470D02*
Y886020D01*
X641590Y848020D02*
X642090D01*
X671090D02*
X671590D01*
X641590Y886020D02*
X642090D01*
X671090D02*
X671590D01*
X637780Y1183300D02*
Y1189850D01*
Y1214750D02*
Y1221300D01*
X667780Y1183300D02*
Y1189850D01*
Y1214750D02*
Y1221300D01*
X637780Y1183300D02*
X638280D01*
X667280D02*
X667780D01*
X637780Y1221300D02*
X638280D01*
X667280D02*
X667780D01*
D12*
X650520Y502820D02*
G03*
X650520Y502820I-3000J0D01*
G01*
D13*
X213100Y598400D02*
X244100D01*
X213100Y595400D02*
X244100D01*
Y598400D01*
X213100Y595400D02*
Y598400D01*
X188360Y627110D02*
Y649110D01*
Y645860D02*
Y669860D01*
X238110Y646610D02*
Y669110D01*
X300850Y622700D02*
X322850D01*
X280100D02*
X304100D01*
X280850Y672450D02*
X303350D01*
X274050Y728580D02*
X296050D01*
X292800D02*
X316800D01*
X293550Y678830D02*
X316050D01*
X293750Y489190D02*
Y519190D01*
X277750Y489190D02*
Y519190D01*
Y489190D02*
X293750D01*
X277750Y519190D02*
X293750D01*
X206370Y1077570D02*
X237370D01*
X206370Y1074570D02*
X237370D01*
Y1077570D01*
X206370Y1074570D02*
Y1077570D01*
X181630Y1106280D02*
Y1128280D01*
Y1125030D02*
Y1149030D01*
X231380Y1125780D02*
Y1148280D01*
X294120Y1101870D02*
X316120D01*
X273370D02*
X297370D01*
X274120Y1151620D02*
X296620D01*
X267320Y1207750D02*
X289320D01*
X286070D02*
X310070D01*
X286820Y1158000D02*
X309320D01*
X436880Y153670D02*
Y179070D01*
X386080Y153670D02*
X436880D01*
X386080D02*
Y179070D01*
X436880D01*
X75940Y955660D02*
Y969660D01*
X106940Y955660D02*
Y969660D01*
X75940Y955660D02*
X106940D01*
X75940Y969660D02*
X106940D01*
X77370Y800040D02*
Y814040D01*
X108370Y800040D02*
Y814040D01*
X77370Y800040D02*
X108370D01*
X77370Y814040D02*
X108370D01*
X79670Y640020D02*
Y654020D01*
X110670Y640020D02*
Y654020D01*
X79670Y640020D02*
X110670D01*
X79670Y654020D02*
X110670D01*
X83560Y1113140D02*
Y1127140D01*
X114560Y1113140D02*
Y1127140D01*
X83560Y1113140D02*
X114560D01*
X83560Y1127140D02*
X114560D01*
X129280Y571890D02*
Y588890D01*
X160280Y571890D02*
Y588890D01*
X129280Y571890D02*
X160280D01*
X129280Y588890D02*
X160280D01*
X134360Y725560D02*
Y742560D01*
X165360Y725560D02*
Y742560D01*
X134360Y725560D02*
X165360D01*
X134360Y742560D02*
X165360D01*
X133090Y884310D02*
Y901310D01*
X164090Y884310D02*
Y901310D01*
X133090Y884310D02*
X164090D01*
X133090Y901310D02*
X164090D01*
X129280Y1039250D02*
Y1056250D01*
X160280Y1039250D02*
Y1056250D01*
X129280Y1039250D02*
X160280D01*
X129280Y1056250D02*
X160280D01*
X296010Y840120D02*
X318510D01*
X295260Y889870D02*
X319260D01*
X276510D02*
X298510D01*
X240570Y807900D02*
Y830400D01*
X190820Y807150D02*
Y831150D01*
Y788400D02*
Y810400D01*
X283310Y833740D02*
X305810D01*
X282560Y783990D02*
X306560D01*
X303310D02*
X325310D01*
X215560Y756690D02*
Y759690D01*
X246560Y756690D02*
Y759690D01*
X215560Y756690D02*
X246560D01*
X215560Y759690D02*
X246560D01*
X295480Y999570D02*
X317980D01*
X294730Y1049320D02*
X318730D01*
X275980D02*
X297980D01*
X240040Y967350D02*
Y989850D01*
X190290Y966600D02*
Y990600D01*
Y947850D02*
Y969850D01*
X282780Y993190D02*
X305280D01*
X282030Y943440D02*
X306030D01*
X302780D02*
X324780D01*
X215030Y916140D02*
Y919140D01*
X246030Y916140D02*
Y919140D01*
X215030Y916140D02*
X246030D01*
X215030Y919140D02*
X246030D01*
X637520Y492820D02*
X698520D01*
X637520Y563820D02*
X698520D01*
X637520Y492820D02*
Y563820D01*
X698520Y492820D02*
Y563820D01*
X161750Y1197350D02*
X165750D01*
X161750D02*
Y1205850D01*
Y1228350D02*
X165750D01*
X161750Y1219850D02*
Y1228350D01*
X762550Y127790D02*
Y194790D01*
Y127790D02*
X799550D01*
Y194790D01*
X762550D02*
X799550D01*
X366380Y126800D02*
Y129300D01*
X412380Y126800D02*
Y129300D01*
X366380Y99300D02*
Y101800D01*
X412380Y99300D02*
Y101800D01*
X366380Y129300D02*
X412380D01*
X366380Y99300D02*
X412380D01*
X456960Y75060D02*
Y123060D01*
X426960Y75060D02*
Y123060D01*
X453710D02*
X456960D01*
X453710Y75060D02*
X456960D01*
X426960Y123060D02*
X430210D01*
X426960Y75060D02*
X430210D01*
X156340Y192800D02*
X204340D01*
X156340Y162800D02*
X204340D01*
X156340Y189550D02*
Y192800D01*
X204340Y189550D02*
Y192800D01*
X156340Y162800D02*
Y166050D01*
X204340Y162800D02*
Y166050D01*
X543300Y61360D02*
Y111360D01*
X510800Y61360D02*
Y111360D01*
Y61360D02*
X543300D01*
X510800Y111360D02*
X543300D01*
X167270Y339870D02*
Y345120D01*
X216270Y339870D02*
Y345120D01*
X167270Y305120D02*
Y310370D01*
X216270Y305120D02*
Y310370D01*
X167270Y345120D02*
X216270D01*
X167270Y305120D02*
X216270D01*
X248550Y339870D02*
Y345120D01*
X297550Y339870D02*
Y345120D01*
X248550Y305120D02*
Y310370D01*
X297550Y305120D02*
Y310370D01*
X248550Y345120D02*
X297550D01*
X248550Y305120D02*
X297550D01*
X249050Y194070D02*
X297050D01*
X249050Y164070D02*
X297050D01*
X249050Y190820D02*
Y194070D01*
X297050Y190820D02*
Y194070D01*
X249050Y164070D02*
Y167320D01*
X297050Y164070D02*
Y167320D01*
X217350Y1294750D02*
X239850D01*
X216600Y1245000D02*
X240600D01*
X237350D02*
X259350D01*
X314730Y1269740D02*
X317730D01*
X314730Y1300740D02*
X317730D01*
Y1269740D02*
Y1300740D01*
X314730Y1269740D02*
Y1300740D01*
D14*
X185080Y609600D02*
Y615600D01*
X206080D01*
Y603600D02*
Y615600D01*
X185080Y603600D02*
X206080D01*
X185080D02*
Y609600D01*
X242920Y648630D02*
X248920D01*
X242920D02*
Y669630D01*
X254920D01*
Y648630D02*
Y669630D01*
X248920Y648630D02*
X254920D01*
X267040Y689960D02*
Y695960D01*
X246040Y689960D02*
X267040D01*
X246040D02*
Y701960D01*
X267040D01*
Y695960D02*
Y701960D01*
X341980Y681650D02*
X347980D01*
X341980D02*
Y702650D01*
X353980D01*
Y681650D02*
Y702650D01*
X347980Y681650D02*
X353980D01*
X251800Y703930D02*
Y709930D01*
X230800Y703930D02*
X251800D01*
X230800D02*
Y715930D01*
X251800D01*
Y709930D02*
Y715930D01*
X254350Y704510D02*
X260350D01*
X254350D02*
Y725510D01*
X266350D01*
Y704510D02*
Y725510D01*
X260350Y704510D02*
X266350D01*
X319120Y484800D02*
X325120D01*
X319120D02*
Y505800D01*
X331120D01*
Y484800D02*
Y505800D01*
X325120Y484800D02*
X331120D01*
X317850Y512740D02*
X323850D01*
X317850D02*
Y533740D01*
X329850D01*
Y512740D02*
Y533740D01*
X323850Y512740D02*
X329850D01*
X335630Y506390D02*
X341630D01*
X335630D02*
Y527390D01*
X347630D01*
Y506390D02*
Y527390D01*
X341630Y506390D02*
X347630D01*
X246380Y529930D02*
X252380D01*
Y508930D02*
Y529930D01*
X240380Y508930D02*
X252380D01*
X240380D02*
Y529930D01*
X246380D01*
X291760Y477520D02*
Y483520D01*
X312760D01*
Y471520D02*
Y483520D01*
X291760Y471520D02*
X312760D01*
X291760D02*
Y477520D01*
X324200Y461940D02*
X330200D01*
X324200D02*
Y482940D01*
X336200D01*
Y461940D02*
Y482940D01*
X330200Y461940D02*
X336200D01*
X354670Y491840D02*
Y497840D01*
X333670Y491840D02*
X354670D01*
X333670D02*
Y503840D01*
X354670D01*
Y497840D02*
Y503840D01*
X830240Y189580D02*
Y195580D01*
Y189580D02*
X851240D01*
Y201580D01*
X830240D02*
X851240D01*
X830240Y195580D02*
Y201580D01*
X178350Y1088770D02*
Y1094770D01*
X199350D01*
Y1082770D02*
Y1094770D01*
X178350Y1082770D02*
X199350D01*
X178350D02*
Y1088770D01*
X236190Y1127800D02*
X242190D01*
X236190D02*
Y1148800D01*
X248190D01*
Y1127800D02*
Y1148800D01*
X242190Y1127800D02*
X248190D01*
X260310Y1169130D02*
Y1175130D01*
X239310Y1169130D02*
X260310D01*
X239310D02*
Y1181130D01*
X260310D01*
Y1175130D02*
Y1181130D01*
X335250Y1160820D02*
X341250D01*
X335250D02*
Y1181820D01*
X347250D01*
Y1160820D02*
Y1181820D01*
X341250Y1160820D02*
X347250D01*
X245070Y1183100D02*
Y1189100D01*
X224070Y1183100D02*
X245070D01*
X224070D02*
Y1195100D01*
X245070D01*
Y1189100D02*
Y1195100D01*
X247620Y1183680D02*
X253620D01*
X247620D02*
Y1204680D01*
X259620D01*
Y1183680D02*
Y1204680D01*
X253620Y1183680D02*
X259620D01*
X70780Y1021080D02*
Y1027080D01*
X91780D01*
Y1015080D02*
Y1027080D01*
X70780Y1015080D02*
X91780D01*
X70780D02*
Y1021080D01*
X114640Y1001110D02*
Y1007110D01*
X93640Y1001110D02*
X114640D01*
X93640D02*
Y1013110D01*
X114640D01*
Y1007110D02*
Y1013110D01*
Y1015080D02*
Y1021080D01*
X93640Y1015080D02*
X114640D01*
X93640D02*
Y1027080D01*
X114640D01*
Y1021080D02*
Y1027080D01*
X120650Y998560D02*
X126650D01*
Y977560D02*
Y998560D01*
X114650Y977560D02*
X126650D01*
X114650D02*
Y998560D01*
X120650D01*
X72210Y865460D02*
Y871460D01*
X93210D01*
Y859460D02*
Y871460D01*
X72210Y859460D02*
X93210D01*
X72210D02*
Y865460D01*
X116070Y845490D02*
Y851490D01*
X95070Y845490D02*
X116070D01*
X95070D02*
Y857490D01*
X116070D01*
Y851490D02*
Y857490D01*
Y859460D02*
Y865460D01*
X95070Y859460D02*
X116070D01*
X95070D02*
Y871460D01*
X116070D01*
Y865460D02*
Y871460D01*
X122080Y842940D02*
X128080D01*
Y821940D02*
Y842940D01*
X116080Y821940D02*
X128080D01*
X116080D02*
Y842940D01*
X122080D01*
X74510Y705440D02*
Y711440D01*
X95510D01*
Y699440D02*
Y711440D01*
X74510Y699440D02*
X95510D01*
X74510D02*
Y705440D01*
X118370Y685470D02*
Y691470D01*
X97370Y685470D02*
X118370D01*
X97370D02*
Y697470D01*
X118370D01*
Y691470D02*
Y697470D01*
Y699440D02*
Y705440D01*
X97370Y699440D02*
X118370D01*
X97370D02*
Y711440D01*
X118370D01*
Y705440D02*
Y711440D01*
X124380Y682920D02*
X130380D01*
Y661920D02*
Y682920D01*
X118380Y661920D02*
X130380D01*
X118380D02*
Y682920D01*
X124380D01*
X78400Y1178560D02*
Y1184560D01*
X99400D01*
Y1172560D02*
Y1184560D01*
X78400Y1172560D02*
X99400D01*
X78400D02*
Y1178560D01*
X122260Y1158590D02*
Y1164590D01*
X101260Y1158590D02*
X122260D01*
X101260D02*
Y1170590D01*
X122260D01*
Y1164590D02*
Y1170590D01*
Y1172560D02*
Y1178560D01*
X101260Y1172560D02*
X122260D01*
X101260D02*
Y1184560D01*
X122260D01*
Y1178560D02*
Y1184560D01*
X128270Y1156040D02*
X134270D01*
Y1135040D02*
Y1156040D01*
X122270Y1135040D02*
X134270D01*
X122270D02*
Y1156040D01*
X128270D01*
X165450Y574380D02*
X171450D01*
X165450Y553380D02*
Y574380D01*
Y553380D02*
X177450D01*
Y574380D01*
X171450D02*
X177450D01*
X170530Y728050D02*
X176530D01*
X170530Y707050D02*
Y728050D01*
Y707050D02*
X182530D01*
Y728050D01*
X176530D02*
X182530D01*
X169260Y886800D02*
X175260D01*
X169260Y865800D02*
Y886800D01*
Y865800D02*
X181260D01*
Y886800D01*
X175260D02*
X181260D01*
X165450Y1041740D02*
X171450D01*
X165450Y1020740D02*
Y1041740D01*
Y1020740D02*
X177450D01*
Y1041740D01*
X171450D02*
X177450D01*
X262810Y865800D02*
X268810D01*
Y886800D01*
X256810D02*
X268810D01*
X256810Y865800D02*
Y886800D01*
Y865800D02*
X262810D01*
X254260Y871220D02*
Y877220D01*
X233260D02*
X254260D01*
X233260Y865220D02*
Y877220D01*
Y865220D02*
X254260D01*
Y871220D01*
X350440Y842940D02*
X356440D01*
Y863940D01*
X344440D02*
X356440D01*
X344440Y842940D02*
Y863940D01*
Y842940D02*
X350440D01*
X269500Y857250D02*
Y863250D01*
X248500D02*
X269500D01*
X248500Y851250D02*
Y863250D01*
Y851250D02*
X269500D01*
Y857250D01*
X251380Y809920D02*
X257380D01*
Y830920D01*
X245380D02*
X257380D01*
X245380Y809920D02*
Y830920D01*
Y809920D02*
X251380D01*
X187540Y764890D02*
Y770890D01*
Y764890D02*
X208540D01*
Y776890D01*
X187540D02*
X208540D01*
X187540Y770890D02*
Y776890D01*
X262280Y1025250D02*
X268280D01*
Y1046250D01*
X256280D02*
X268280D01*
X256280Y1025250D02*
Y1046250D01*
Y1025250D02*
X262280D01*
X253730Y1030670D02*
Y1036670D01*
X232730D02*
X253730D01*
X232730Y1024670D02*
Y1036670D01*
Y1024670D02*
X253730D01*
Y1030670D01*
X349910Y1002390D02*
X355910D01*
Y1023390D01*
X343910D02*
X355910D01*
X343910Y1002390D02*
Y1023390D01*
Y1002390D02*
X349910D01*
X268970Y1016700D02*
Y1022700D01*
X247970D02*
X268970D01*
X247970Y1010700D02*
Y1022700D01*
Y1010700D02*
X268970D01*
Y1016700D01*
X250850Y969370D02*
X256850D01*
Y990370D01*
X244850D02*
X256850D01*
X244850Y969370D02*
Y990370D01*
Y969370D02*
X250850D01*
X187010Y924340D02*
Y930340D01*
Y924340D02*
X208010D01*
Y936340D01*
X187010D02*
X208010D01*
X187010Y930340D02*
Y936340D01*
X667090Y733940D02*
Y739940D01*
X646090D02*
X667090D01*
X646090Y727940D02*
Y739940D01*
Y727940D02*
X667090D01*
Y733940D01*
Y898650D02*
Y904650D01*
X646090D02*
X667090D01*
X646090Y892650D02*
Y904650D01*
Y892650D02*
X667090D01*
Y898650D01*
X665820Y1060450D02*
Y1066450D01*
X644820D02*
X665820D01*
X644820Y1054450D02*
Y1066450D01*
Y1054450D02*
X665820D01*
Y1060450D01*
X663280Y1233930D02*
Y1239930D01*
X642280D02*
X663280D01*
X642280Y1227930D02*
Y1239930D01*
Y1227930D02*
X663280D01*
Y1233930D01*
X647700Y446700D02*
X653700D01*
Y467700D01*
X641700D02*
X653700D01*
X641700Y446700D02*
Y467700D01*
Y446700D02*
X647700D01*
X355600Y69510D02*
X361600D01*
Y90510D01*
X349600D02*
X361600D01*
X349600Y69510D02*
Y90510D01*
Y69510D02*
X355600D01*
X480410Y110830D02*
X486410D01*
X480410Y89830D02*
Y110830D01*
Y89830D02*
X492410D01*
Y110830D01*
X486410D02*
X492410D01*
X486410Y60620D02*
X492410D01*
Y81620D01*
X480410D02*
X492410D01*
X480410Y60620D02*
Y81620D01*
Y60620D02*
X486410D01*
X472440Y49190D02*
X478440D01*
Y70190D01*
X466440D02*
X478440D01*
X466440Y49190D02*
Y70190D01*
Y49190D02*
X472440D01*
X284480Y1260770D02*
X290480D01*
Y1281770D01*
X278480D02*
X290480D01*
X278480Y1260770D02*
Y1281770D01*
Y1260770D02*
X284480D01*
D15*
X349250Y430530D02*
X882650D01*
X349250Y201930D02*
Y430530D01*
Y201930D02*
X882650D01*
Y430530D01*
X857250Y355163D02*
X908050D01*
X857250Y278130D02*
Y355163D01*
Y278130D02*
X908050D01*
Y355163D01*
M02*
