G04*
G04 #@! TF.GenerationSoftware,Altium Limited,Altium Designer,22.9.1 (49)*
G04*
G04 Layer_Color=32768*
%FSLAX44Y44*%
%MOMM*%
G71*
G04*
G04 #@! TF.SameCoordinates,4F58AA59-1FC8-4CD4-8C03-AE197A2B088C*
G04*
G04*
G04 #@! TF.FilePolarity,Positive*
G04*
G01*
G75*
%ADD11C,0.1000*%
%ADD14C,0.0500*%
%ADD85C,0.2540*%
D11*
X223600Y596900D02*
X233600D01*
X228600Y591900D02*
Y601900D01*
X213360Y652860D02*
Y662860D01*
X208360Y657860D02*
X218360D01*
X287100Y647700D02*
X297100D01*
X292100Y642700D02*
Y652700D01*
X299800Y703580D02*
X309800D01*
X304800Y698580D02*
Y708580D01*
X193620Y588010D02*
X202620D01*
X198120Y583510D02*
Y592510D01*
X280750Y504190D02*
X290750D01*
X285750Y499190D02*
Y509190D01*
X216870Y1076070D02*
X226870D01*
X221870Y1071070D02*
Y1081070D01*
X206630Y1132030D02*
Y1142030D01*
X201630Y1137030D02*
X211630D01*
X280370Y1126870D02*
X290370D01*
X285370Y1121870D02*
Y1131870D01*
X293070Y1182750D02*
X303070D01*
X298070Y1177750D02*
Y1187750D01*
X186890Y1067180D02*
X195890D01*
X191390Y1062680D02*
Y1071680D01*
X655320Y1023820D02*
Y1033820D01*
X650320Y1028820D02*
X660320D01*
X86440Y962660D02*
X96440D01*
X91440Y957660D02*
Y967660D01*
X87870Y807040D02*
X97870D01*
X92870Y802040D02*
Y812040D01*
X90170Y647020D02*
X100170D01*
X95170Y642020D02*
Y652020D01*
X94060Y1120140D02*
X104060D01*
X99060Y1115140D02*
Y1125140D01*
X139780Y580390D02*
X149780D01*
X144780Y575390D02*
Y585390D01*
X144860Y734060D02*
X154860D01*
X149860Y729060D02*
Y739060D01*
X143590Y892810D02*
X153590D01*
X148590Y887810D02*
Y897810D01*
X139780Y1047750D02*
X149780D01*
X144780Y1042750D02*
Y1052750D01*
X307260Y859870D02*
Y869870D01*
X302260Y864870D02*
X312260D01*
X210820Y819150D02*
X220820D01*
X215820Y814150D02*
Y824150D01*
X294560Y803990D02*
Y813990D01*
X289560Y808990D02*
X299560D01*
X231060Y753190D02*
Y763190D01*
X226060Y758190D02*
X236060D01*
X200580Y744800D02*
Y753800D01*
X196080Y749300D02*
X205080D01*
X306730Y1019320D02*
Y1029320D01*
X301730Y1024320D02*
X311730D01*
X210290Y978600D02*
X220290D01*
X215290Y973600D02*
Y983600D01*
X294030Y963440D02*
Y973440D01*
X289030Y968440D02*
X299030D01*
X230530Y912640D02*
Y922640D01*
X225530Y917640D02*
X235530D01*
X200050Y904250D02*
Y913250D01*
X195550Y908750D02*
X204550D01*
X651590Y702310D02*
X661590D01*
X656590Y697310D02*
Y707310D01*
X672410Y667900D02*
X681410D01*
X676910Y663400D02*
Y672400D01*
X681990Y707850D02*
Y716850D01*
X677490Y712350D02*
X686490D01*
X651590Y867020D02*
X661590D01*
X656590Y862020D02*
Y872020D01*
X672410Y832610D02*
X681410D01*
X676910Y828110D02*
Y837110D01*
X681990Y872560D02*
Y881560D01*
X677490Y877060D02*
X686490D01*
X671140Y994410D02*
X680140D01*
X675640Y989910D02*
Y998910D01*
X680720Y1034360D02*
Y1043360D01*
X676220Y1038860D02*
X685220D01*
X647780Y1202300D02*
X657780D01*
X652780Y1197300D02*
Y1207300D01*
X668600Y1167890D02*
X677600D01*
X673100Y1163390D02*
Y1172390D01*
X678180Y1207840D02*
Y1216840D01*
X673680Y1212340D02*
X682680D01*
X668020Y523320D02*
Y533320D01*
X663020Y528320D02*
X673020D01*
X678760Y618490D02*
X687760D01*
X683260Y613990D02*
Y622990D01*
X678760Y599440D02*
X687760D01*
X683260Y594940D02*
Y603940D01*
X677490Y458470D02*
X686490D01*
X681990Y453970D02*
Y462970D01*
X677490Y439420D02*
X686490D01*
X681990Y434920D02*
Y443920D01*
X163750Y1212850D02*
X173750D01*
X168750Y1207850D02*
Y1217850D01*
X203200Y1208350D02*
Y1217350D01*
X198700Y1212850D02*
X207700D01*
X144090Y1182370D02*
X153090D01*
X148590Y1177870D02*
Y1186870D01*
X835660Y161870D02*
Y170870D01*
X831160Y166370D02*
X840160D01*
X728980Y125040D02*
Y134040D01*
X724480Y129540D02*
X733480D01*
X347980Y103450D02*
Y112450D01*
X343480Y107950D02*
X352480D01*
X389380Y109300D02*
Y119300D01*
X384380Y114300D02*
X394380D01*
X441960Y94060D02*
Y104060D01*
X436960Y99060D02*
X446960D01*
X175340Y177800D02*
X185340D01*
X180340Y172800D02*
Y182800D01*
X522050Y86360D02*
X532050D01*
X527050Y81360D02*
Y91360D01*
X191770Y320120D02*
Y330120D01*
X186770Y325120D02*
X196770D01*
X570810Y105410D02*
X579810D01*
X575310Y100910D02*
Y109910D01*
X273050Y320120D02*
Y330120D01*
X268050Y325120D02*
X278050D01*
X268050Y179070D02*
X278050D01*
X273050Y174070D02*
Y184070D01*
X572080Y80010D02*
X581080D01*
X576580Y75510D02*
Y84510D01*
X228600Y1265000D02*
Y1275000D01*
X223600Y1270000D02*
X233600D01*
X311230Y1285240D02*
X321230D01*
X316230Y1280240D02*
Y1290240D01*
X321890Y1256030D02*
X330890D01*
X326390Y1251530D02*
Y1260530D01*
D14*
X249100Y573400D02*
Y620400D01*
X208100Y573400D02*
Y620400D01*
X249100D01*
X208100Y573400D02*
X249100D01*
X187360Y624360D02*
X239360D01*
X187360Y691360D02*
X239360D01*
X187360Y624360D02*
Y691360D01*
X239360Y624360D02*
Y691360D01*
X325600Y621700D02*
Y673700D01*
X258600Y621700D02*
Y673700D01*
Y621700D02*
X325600D01*
X258600Y673700D02*
X325600D01*
X271300Y677580D02*
Y729580D01*
X338300Y677580D02*
Y729580D01*
X271300D02*
X338300D01*
X271300Y677580D02*
X338300D01*
X190620Y575010D02*
Y601010D01*
X205620Y575010D02*
Y601010D01*
X190620Y575010D02*
X205620D01*
X190620Y601010D02*
X205620D01*
X316750Y486690D02*
Y521690D01*
X254750Y486690D02*
Y521690D01*
Y486690D02*
X316750D01*
X254750Y521690D02*
X316750D01*
X242370Y1052570D02*
Y1099570D01*
X201370Y1052570D02*
Y1099570D01*
X242370D01*
X201370Y1052570D02*
X242370D01*
X180630Y1103530D02*
X232630D01*
X180630Y1170530D02*
X232630D01*
X180630Y1103530D02*
Y1170530D01*
X232630Y1103530D02*
Y1170530D01*
X318870Y1100870D02*
Y1152870D01*
X251870Y1100870D02*
Y1152870D01*
Y1100870D02*
X318870D01*
X251870Y1152870D02*
X318870D01*
X264570Y1156750D02*
Y1208750D01*
X331570Y1156750D02*
Y1208750D01*
X264570D02*
X331570D01*
X264570Y1156750D02*
X331570D01*
X183890Y1054180D02*
Y1080180D01*
X198890Y1054180D02*
Y1080180D01*
X183890Y1054180D02*
X198890D01*
X183890Y1080180D02*
X198890D01*
X638820Y1052370D02*
X671820D01*
X638820Y1005270D02*
X671820D01*
Y1052370D01*
X638820Y1005270D02*
Y1052370D01*
X70940Y926660D02*
Y998660D01*
X111940Y926660D02*
Y998660D01*
X70940Y926660D02*
X111940D01*
X70940Y998660D02*
X111940D01*
X72370Y771040D02*
Y843040D01*
X113370Y771040D02*
Y843040D01*
X72370Y771040D02*
X113370D01*
X72370Y843040D02*
X113370D01*
X74670Y611020D02*
Y683020D01*
X115670Y611020D02*
Y683020D01*
X74670Y611020D02*
X115670D01*
X74670Y683020D02*
X115670D01*
X78560Y1084140D02*
Y1156140D01*
X119560Y1084140D02*
Y1156140D01*
X78560Y1084140D02*
X119560D01*
X78560Y1156140D02*
X119560D01*
X126780Y548390D02*
Y612390D01*
X162780Y548390D02*
Y612390D01*
X126780Y548390D02*
X162780D01*
X126780Y612390D02*
X162780D01*
X131860Y702060D02*
Y766060D01*
X167860Y702060D02*
Y766060D01*
X131860Y702060D02*
X167860D01*
X131860Y766060D02*
X167860D01*
X130590Y860810D02*
Y924810D01*
X166590Y860810D02*
Y924810D01*
X130590Y860810D02*
X166590D01*
X130590Y924810D02*
X166590D01*
X126780Y1015750D02*
Y1079750D01*
X162780Y1015750D02*
Y1079750D01*
X126780Y1015750D02*
X162780D01*
X126780Y1079750D02*
X162780D01*
X273760Y838870D02*
X340760D01*
X273760Y890870D02*
X340760D01*
Y838870D02*
Y890870D01*
X273760Y838870D02*
Y890870D01*
X241820Y785650D02*
Y852650D01*
X189820Y785650D02*
Y852650D01*
X241820D01*
X189820Y785650D02*
X241820D01*
X261060Y834990D02*
X328060D01*
X261060Y782990D02*
X328060D01*
X261060D02*
Y834990D01*
X328060Y782990D02*
Y834990D01*
X210560Y734690D02*
X251560D01*
X210560Y781690D02*
X251560D01*
X210560Y734690D02*
Y781690D01*
X251560Y734690D02*
Y781690D01*
X193080Y762300D02*
X208080D01*
X193080Y736300D02*
X208080D01*
Y762300D01*
X193080Y736300D02*
Y762300D01*
X273230Y998320D02*
X340230D01*
X273230Y1050320D02*
X340230D01*
Y998320D02*
Y1050320D01*
X273230Y998320D02*
Y1050320D01*
X241290Y945100D02*
Y1012100D01*
X189290Y945100D02*
Y1012100D01*
X241290D01*
X189290Y945100D02*
X241290D01*
X260530Y994440D02*
X327530D01*
X260530Y942440D02*
X327530D01*
X260530D02*
Y994440D01*
X327530Y942440D02*
Y994440D01*
X210030Y894140D02*
X251030D01*
X210030Y941140D02*
X251030D01*
X210030Y894140D02*
Y941140D01*
X251030Y894140D02*
Y941140D01*
X192550Y921750D02*
X207550D01*
X192550Y895750D02*
X207550D01*
Y921750D01*
X192550Y895750D02*
Y921750D01*
X640090Y678760D02*
Y725860D01*
X673090Y678760D02*
Y725860D01*
X640090Y678760D02*
X673090D01*
X640090Y725860D02*
X673090D01*
X689910Y660400D02*
Y675400D01*
X663910Y660400D02*
Y675400D01*
Y660400D02*
X689910D01*
X663910Y675400D02*
X689910D01*
X674490Y699350D02*
X689490D01*
X674490Y725350D02*
X689490D01*
X674490Y699350D02*
Y725350D01*
X689490Y699350D02*
Y725350D01*
X640090Y843470D02*
Y890570D01*
X673090Y843470D02*
Y890570D01*
X640090Y843470D02*
X673090D01*
X640090Y890570D02*
X673090D01*
X689910Y825110D02*
Y840110D01*
X663910Y825110D02*
Y840110D01*
Y825110D02*
X689910D01*
X663910Y840110D02*
X689910D01*
X674490Y864060D02*
X689490D01*
X674490Y890060D02*
X689490D01*
X674490Y864060D02*
Y890060D01*
X689490Y864060D02*
Y890060D01*
X688640Y986910D02*
Y1001910D01*
X662640Y986910D02*
Y1001910D01*
Y986910D02*
X688640D01*
X662640Y1001910D02*
X688640D01*
X673220Y1025860D02*
X688220D01*
X673220Y1051860D02*
X688220D01*
X673220Y1025860D02*
Y1051860D01*
X688220Y1025860D02*
Y1051860D01*
X636280Y1178750D02*
Y1225850D01*
X669280Y1178750D02*
Y1225850D01*
X636280Y1178750D02*
X669280D01*
X636280Y1225850D02*
X669280D01*
X686100Y1160390D02*
Y1175390D01*
X660100Y1160390D02*
Y1175390D01*
Y1160390D02*
X686100D01*
X660100Y1175390D02*
X686100D01*
X670680Y1199340D02*
X685680D01*
X670680Y1225340D02*
X685680D01*
X670680Y1199340D02*
Y1225340D01*
X685680Y1199340D02*
Y1225340D01*
X635020Y469570D02*
X701020D01*
X635020Y587070D02*
X701020D01*
X635020Y469570D02*
Y587070D01*
X701020Y469570D02*
Y587070D01*
X696260Y610990D02*
Y625990D01*
X670260Y610990D02*
Y625990D01*
Y610990D02*
X696260D01*
X670260Y625990D02*
X696260D01*
Y591940D02*
Y606940D01*
X670260Y591940D02*
Y606940D01*
Y591940D02*
X696260D01*
X670260Y606940D02*
X696260D01*
X694990Y450970D02*
Y465970D01*
X668990Y450970D02*
Y465970D01*
Y450970D02*
X694990D01*
X668990Y465970D02*
X694990D01*
Y431920D02*
Y446920D01*
X668990Y431920D02*
Y446920D01*
Y431920D02*
X694990D01*
X668990Y446920D02*
X694990D01*
X192750Y1192350D02*
Y1233350D01*
X144750Y1192350D02*
Y1233350D01*
Y1192350D02*
X192750D01*
X144750Y1233350D02*
X192750D01*
X195700Y1199850D02*
X210700D01*
X195700Y1225850D02*
X210700D01*
X195700Y1199850D02*
Y1225850D01*
X210700Y1199850D02*
Y1225850D01*
X135590Y1174870D02*
Y1189870D01*
X161590Y1174870D02*
Y1189870D01*
X135590D02*
X161590D01*
X135590Y1174870D02*
X161590D01*
X828160Y153370D02*
X843160D01*
X828160Y179370D02*
X843160D01*
X828160Y153370D02*
Y179370D01*
X843160Y153370D02*
Y179370D01*
X721480Y116540D02*
X736480D01*
X721480Y142540D02*
X736480D01*
X721480Y116540D02*
Y142540D01*
X736480Y116540D02*
Y142540D01*
X340480Y94950D02*
X355480D01*
X340480Y120950D02*
X355480D01*
X340480Y94950D02*
Y120950D01*
X355480Y94950D02*
Y120950D01*
X358880Y131800D02*
X419880D01*
X358880Y96800D02*
X419880D01*
X358880D02*
Y131800D01*
X419880Y96800D02*
Y131800D01*
X424460Y130310D02*
X459460D01*
X424460Y67810D02*
X459460D01*
Y130310D01*
X424460Y67810D02*
Y130310D01*
X149090Y160300D02*
Y195300D01*
X211590Y160300D02*
Y195300D01*
X149090D02*
X211590D01*
X149090Y160300D02*
X211590D01*
X559780Y59860D02*
Y112860D01*
X494320Y59860D02*
Y112860D01*
Y59860D02*
X559780D01*
X494320Y112860D02*
X559780D01*
X160020Y347620D02*
X223520D01*
X160020Y302620D02*
X223520D01*
X160020D02*
Y347620D01*
X223520Y302620D02*
Y347620D01*
X588310Y97910D02*
Y112910D01*
X562310Y97910D02*
Y112910D01*
Y97910D02*
X588310D01*
X562310Y112910D02*
X588310D01*
X241300Y347620D02*
X304800D01*
X241300Y302620D02*
X304800D01*
X241300D02*
Y347620D01*
X304800Y302620D02*
Y347620D01*
X241800Y161570D02*
Y196570D01*
X304300Y161570D02*
Y196570D01*
X241800D02*
X304300D01*
X241800Y161570D02*
X304300D01*
X589580Y72510D02*
Y87510D01*
X563580Y72510D02*
Y87510D01*
Y72510D02*
X589580D01*
X563580Y87510D02*
X589580D01*
X195100Y1296000D02*
X262100D01*
X195100Y1244000D02*
X262100D01*
X195100D02*
Y1296000D01*
X262100Y1244000D02*
Y1296000D01*
X339730Y1264740D02*
Y1305740D01*
X292730Y1264740D02*
Y1305740D01*
Y1264740D02*
X339730D01*
X292730Y1305740D02*
X339730D01*
X313390Y1248530D02*
Y1263530D01*
X339390Y1248530D02*
Y1263530D01*
X313390D02*
X339390D01*
X313390Y1248530D02*
X339390D01*
D85*
X174630Y364340D02*
Y504340D01*
X-92370Y364340D02*
Y504340D01*
Y364340D02*
X174630D01*
X-92370Y504340D02*
X174630D01*
X715010Y1209880D02*
X863010D01*
X715010Y1060880D02*
X863010D01*
Y1209880D01*
X715010Y1060880D02*
Y1209880D01*
Y714580D02*
X863010D01*
X715010Y565580D02*
X863010D01*
Y714580D01*
X715010Y565580D02*
Y714580D01*
Y1044780D02*
X863010D01*
X715010Y895780D02*
X863010D01*
Y1044780D01*
X715010Y895780D02*
Y1044780D01*
Y879680D02*
X863010D01*
X715010Y730680D02*
X863010D01*
Y879680D01*
X715010Y730680D02*
Y879680D01*
M02*
