G04*
G04 #@! TF.GenerationSoftware,Altium Limited,Altium Designer,22.9.1 (49)*
G04*
G04 Layer_Color=8421504*
%FSLAX44Y44*%
%MOMM*%
G71*
G04*
G04 #@! TF.SameCoordinates,4F58AA59-1FC8-4CD4-8C03-AE197A2B088C*
G04*
G04*
G04 #@! TF.FilePolarity,Positive*
G04*
G01*
G75*
G04:AMPARAMS|DCode=16|XSize=2.49mm|YSize=3mm|CornerRadius=0.0498mm|HoleSize=0mm|Usage=FLASHONLY|Rotation=90.000|XOffset=0mm|YOffset=0mm|HoleType=Round|Shape=RoundedRectangle|*
%AMROUNDEDRECTD16*
21,1,2.4900,2.9004,0,0,90.0*
21,1,2.3904,3.0000,0,0,90.0*
1,1,0.0996,1.4502,1.1952*
1,1,0.0996,1.4502,-1.1952*
1,1,0.0996,-1.4502,-1.1952*
1,1,0.0996,-1.4502,1.1952*
%
%ADD16ROUNDEDRECTD16*%
G04:AMPARAMS|DCode=17|XSize=2.49mm|YSize=3mm|CornerRadius=0.0498mm|HoleSize=0mm|Usage=FLASHONLY|Rotation=180.000|XOffset=0mm|YOffset=0mm|HoleType=Round|Shape=RoundedRectangle|*
%AMROUNDEDRECTD17*
21,1,2.4900,2.9004,0,0,180.0*
21,1,2.3904,3.0000,0,0,180.0*
1,1,0.0996,-1.1952,1.4502*
1,1,0.0996,1.1952,1.4502*
1,1,0.0996,1.1952,-1.4502*
1,1,0.0996,-1.1952,-1.4502*
%
%ADD17ROUNDEDRECTD17*%
%ADD18R,0.7000X1.3000*%
G04:AMPARAMS|DCode=19|XSize=0.55mm|YSize=1.25mm|CornerRadius=0.0495mm|HoleSize=0mm|Usage=FLASHONLY|Rotation=180.000|XOffset=0mm|YOffset=0mm|HoleType=Round|Shape=RoundedRectangle|*
%AMROUNDEDRECTD19*
21,1,0.5500,1.1510,0,0,180.0*
21,1,0.4510,1.2500,0,0,180.0*
1,1,0.0990,-0.2255,0.5755*
1,1,0.0990,0.2255,0.5755*
1,1,0.0990,0.2255,-0.5755*
1,1,0.0990,-0.2255,-0.5755*
%
%ADD19ROUNDEDRECTD19*%
G04:AMPARAMS|DCode=20|XSize=0.55mm|YSize=1.25mm|CornerRadius=0.0495mm|HoleSize=0mm|Usage=FLASHONLY|Rotation=270.000|XOffset=0mm|YOffset=0mm|HoleType=Round|Shape=RoundedRectangle|*
%AMROUNDEDRECTD20*
21,1,0.5500,1.1510,0,0,270.0*
21,1,0.4510,1.2500,0,0,270.0*
1,1,0.0990,-0.5755,-0.2255*
1,1,0.0990,-0.5755,0.2255*
1,1,0.0990,0.5755,0.2255*
1,1,0.0990,0.5755,-0.2255*
%
%ADD20ROUNDEDRECTD20*%
%ADD21R,0.5000X0.6000*%
%ADD22R,0.6000X0.5000*%
%ADD23R,1.0000X0.9500*%
%ADD24R,1.4000X1.2000*%
%ADD25O,1.6500X0.3500*%
%ADD26R,1.8200X1.2200*%
%ADD27R,0.2500X0.6000*%
%ADD28R,2.2300X0.7000*%
%ADD29R,2.2300X0.5000*%
%ADD30O,0.3000X2.0000*%
%ADD31O,0.4500X1.7000*%
%ADD32R,0.9500X1.0000*%
%ADD33O,0.6000X1.7000*%
%ADD34R,1.8000X0.6000*%
%ADD35R,1.5000X3.3000*%
%ADD36R,1.5000X1.2000*%
%ADD37R,2.5000X1.7000*%
%ADD38R,1.5500X2.5000*%
%ADD39R,2.5000X1.5500*%
%ADD40O,1.1430X0.7600*%
%ADD41R,2.2600X2.9900*%
%ADD42R,2.6000X2.1500*%
%ADD43R,1.3000X0.7000*%
D16*
X213360Y657860D02*
D03*
X206630Y1137030D02*
D03*
X215820Y819150D02*
D03*
X215290Y978600D02*
D03*
D17*
X292100Y647700D02*
D03*
X304800Y703580D02*
D03*
X285370Y1126870D02*
D03*
X298070Y1182750D02*
D03*
X307260Y864870D02*
D03*
X294560Y808990D02*
D03*
X306730Y1024320D02*
D03*
X294030Y968440D02*
D03*
X228600Y1270000D02*
D03*
D18*
X219100Y608900D02*
D03*
X228600D02*
D03*
X238100D02*
D03*
Y584900D02*
D03*
X228600D02*
D03*
X219100D02*
D03*
X212370Y1088070D02*
D03*
X221870D02*
D03*
X231370D02*
D03*
Y1064070D02*
D03*
X221870D02*
D03*
X212370D02*
D03*
X221560Y746190D02*
D03*
X231060D02*
D03*
X240560D02*
D03*
Y770190D02*
D03*
X231060D02*
D03*
X221560D02*
D03*
X221030Y905640D02*
D03*
X230530D02*
D03*
X240030D02*
D03*
Y929640D02*
D03*
X230530D02*
D03*
X221030D02*
D03*
D19*
X194310Y631610D02*
D03*
X207010D02*
D03*
X219710D02*
D03*
X232410D02*
D03*
X194310Y684110D02*
D03*
X207010D02*
D03*
X219710D02*
D03*
X232410D02*
D03*
X187580Y1110780D02*
D03*
X200280D02*
D03*
X212980D02*
D03*
X225680D02*
D03*
X187580Y1163280D02*
D03*
X200280D02*
D03*
X212980D02*
D03*
X225680D02*
D03*
X234870Y845400D02*
D03*
X222170D02*
D03*
X209470D02*
D03*
X196770D02*
D03*
X234870Y792900D02*
D03*
X222170D02*
D03*
X209470D02*
D03*
X196770D02*
D03*
X234340Y1004850D02*
D03*
X221640D02*
D03*
X208940D02*
D03*
X196240D02*
D03*
X234340Y952350D02*
D03*
X221640D02*
D03*
X208940D02*
D03*
X196240D02*
D03*
D20*
X318350Y628650D02*
D03*
Y641350D02*
D03*
Y654050D02*
D03*
Y666750D02*
D03*
X265850Y628650D02*
D03*
Y641350D02*
D03*
Y654050D02*
D03*
Y666750D02*
D03*
X278550Y722630D02*
D03*
Y709930D02*
D03*
Y697230D02*
D03*
Y684530D02*
D03*
X331050Y722630D02*
D03*
Y709930D02*
D03*
Y697230D02*
D03*
Y684530D02*
D03*
X311620Y1107820D02*
D03*
Y1120520D02*
D03*
Y1133220D02*
D03*
Y1145920D02*
D03*
X259120Y1107820D02*
D03*
Y1120520D02*
D03*
Y1133220D02*
D03*
Y1145920D02*
D03*
X271820Y1201800D02*
D03*
Y1189100D02*
D03*
Y1176400D02*
D03*
Y1163700D02*
D03*
X324320Y1201800D02*
D03*
Y1189100D02*
D03*
Y1176400D02*
D03*
Y1163700D02*
D03*
X333510Y845820D02*
D03*
Y858520D02*
D03*
Y871220D02*
D03*
Y883920D02*
D03*
X281010Y845820D02*
D03*
Y858520D02*
D03*
Y871220D02*
D03*
Y883920D02*
D03*
X268310Y828040D02*
D03*
Y815340D02*
D03*
Y802640D02*
D03*
Y789940D02*
D03*
X320810Y828040D02*
D03*
Y815340D02*
D03*
Y802640D02*
D03*
Y789940D02*
D03*
X332980Y1005270D02*
D03*
Y1017970D02*
D03*
Y1030670D02*
D03*
Y1043370D02*
D03*
X280480Y1005270D02*
D03*
Y1017970D02*
D03*
Y1030670D02*
D03*
Y1043370D02*
D03*
X267780Y987490D02*
D03*
Y974790D02*
D03*
Y962090D02*
D03*
Y949390D02*
D03*
X320280Y987490D02*
D03*
Y974790D02*
D03*
Y962090D02*
D03*
Y949390D02*
D03*
X202350Y1289050D02*
D03*
Y1276350D02*
D03*
Y1263650D02*
D03*
Y1250950D02*
D03*
X254850Y1289050D02*
D03*
Y1276350D02*
D03*
Y1263650D02*
D03*
Y1250950D02*
D03*
D21*
X200580Y609600D02*
D03*
X190580D02*
D03*
X251540Y695960D02*
D03*
X261540D02*
D03*
X236300Y709930D02*
D03*
X246300D02*
D03*
X307260Y477520D02*
D03*
X297260D02*
D03*
X339170Y497840D02*
D03*
X349170D02*
D03*
X835740Y195580D02*
D03*
X845740D02*
D03*
X193850Y1088770D02*
D03*
X183850D02*
D03*
X244810Y1175130D02*
D03*
X254810D02*
D03*
X229570Y1189100D02*
D03*
X239570D02*
D03*
X86280Y1021080D02*
D03*
X76280D02*
D03*
X99140Y1007110D02*
D03*
X109140D02*
D03*
X99140Y1021080D02*
D03*
X109140D02*
D03*
X87710Y865460D02*
D03*
X77710D02*
D03*
X100570Y851490D02*
D03*
X110570D02*
D03*
X100570Y865460D02*
D03*
X110570D02*
D03*
X90010Y705440D02*
D03*
X80010D02*
D03*
X102870Y691470D02*
D03*
X112870D02*
D03*
X102870Y705440D02*
D03*
X112870D02*
D03*
X93900Y1178560D02*
D03*
X83900D02*
D03*
X106760Y1164590D02*
D03*
X116760D02*
D03*
X106760Y1178560D02*
D03*
X116760D02*
D03*
X248760Y871220D02*
D03*
X238760D02*
D03*
X264000Y857250D02*
D03*
X254000D02*
D03*
X193040Y770890D02*
D03*
X203040D02*
D03*
X248230Y1030670D02*
D03*
X238230D02*
D03*
X263470Y1016700D02*
D03*
X253470D02*
D03*
X192510Y930340D02*
D03*
X202510D02*
D03*
X661590Y733940D02*
D03*
X651590D02*
D03*
X661590Y898650D02*
D03*
X651590D02*
D03*
X660320Y1060450D02*
D03*
X650320D02*
D03*
X657780Y1233930D02*
D03*
X647780D02*
D03*
D22*
X248920Y664130D02*
D03*
Y654130D02*
D03*
X347980Y697150D02*
D03*
Y687150D02*
D03*
X260350Y720010D02*
D03*
Y710010D02*
D03*
X325120Y500300D02*
D03*
Y490300D02*
D03*
X323850Y528240D02*
D03*
Y518240D02*
D03*
X341630Y521890D02*
D03*
Y511890D02*
D03*
X246380Y514430D02*
D03*
Y524430D02*
D03*
X330200Y477440D02*
D03*
Y467440D02*
D03*
X242190Y1143300D02*
D03*
Y1133300D02*
D03*
X341250Y1176320D02*
D03*
Y1166320D02*
D03*
X253620Y1199180D02*
D03*
Y1189180D02*
D03*
X120650Y983060D02*
D03*
Y993060D02*
D03*
X122080Y827440D02*
D03*
Y837440D02*
D03*
X124380Y667420D02*
D03*
Y677420D02*
D03*
X128270Y1140540D02*
D03*
Y1150540D02*
D03*
X171450Y568880D02*
D03*
Y558880D02*
D03*
X176530Y722550D02*
D03*
Y712550D02*
D03*
X175260Y881300D02*
D03*
Y871300D02*
D03*
X171450Y1036240D02*
D03*
Y1026240D02*
D03*
X262810Y871300D02*
D03*
Y881300D02*
D03*
X350440Y848440D02*
D03*
Y858440D02*
D03*
X251380Y815420D02*
D03*
Y825420D02*
D03*
X262280Y1030750D02*
D03*
Y1040750D02*
D03*
X349910Y1007890D02*
D03*
Y1017890D02*
D03*
X250850Y974870D02*
D03*
Y984870D02*
D03*
X647700Y452200D02*
D03*
Y462200D02*
D03*
X355600Y75010D02*
D03*
Y85010D02*
D03*
X486410Y105330D02*
D03*
Y95330D02*
D03*
Y66120D02*
D03*
Y76120D02*
D03*
X472440Y54690D02*
D03*
Y64690D02*
D03*
X284480Y1266270D02*
D03*
Y1276270D02*
D03*
D23*
X198120Y580010D02*
D03*
Y596010D02*
D03*
X191390Y1059180D02*
D03*
Y1075180D02*
D03*
X200580Y757300D02*
D03*
Y741300D02*
D03*
X200050Y916750D02*
D03*
Y900750D02*
D03*
X681990Y704350D02*
D03*
Y720350D02*
D03*
Y869060D02*
D03*
Y885060D02*
D03*
X680720Y1030860D02*
D03*
Y1046860D02*
D03*
X678180Y1204340D02*
D03*
Y1220340D02*
D03*
X203200Y1204850D02*
D03*
Y1220850D02*
D03*
X835660Y158370D02*
D03*
Y174370D02*
D03*
X728980Y121540D02*
D03*
Y137540D02*
D03*
X347980Y99950D02*
D03*
Y115950D02*
D03*
D24*
X350110Y464060D02*
D03*
Y480060D02*
D03*
X372110D02*
D03*
Y464060D02*
D03*
D25*
X306000Y494190D02*
D03*
Y499190D02*
D03*
Y504190D02*
D03*
Y509190D02*
D03*
Y514190D02*
D03*
X265500Y494190D02*
D03*
Y499190D02*
D03*
Y504190D02*
D03*
Y509190D02*
D03*
Y514190D02*
D03*
D26*
X311150Y116840D02*
D03*
Y91440D02*
D03*
Y66040D02*
D03*
X196650D02*
D03*
Y91440D02*
D03*
Y116840D02*
D03*
D27*
X665070Y1045320D02*
D03*
X658570D02*
D03*
X652070D02*
D03*
X645570D02*
D03*
X665070Y1012320D02*
D03*
X658570D02*
D03*
X652070D02*
D03*
X645570D02*
D03*
X646840Y685810D02*
D03*
X653340D02*
D03*
X659840D02*
D03*
X666340D02*
D03*
X646840Y718810D02*
D03*
X653340D02*
D03*
X659840D02*
D03*
X666340D02*
D03*
X646840Y850520D02*
D03*
X653340D02*
D03*
X659840D02*
D03*
X666340D02*
D03*
X646840Y883520D02*
D03*
X653340D02*
D03*
X659840D02*
D03*
X666340D02*
D03*
X643030Y1185800D02*
D03*
X649530D02*
D03*
X656030D02*
D03*
X662530D02*
D03*
X643030Y1218800D02*
D03*
X649530D02*
D03*
X656030D02*
D03*
X662530D02*
D03*
D28*
X655320Y1036320D02*
D03*
X656590Y709810D02*
D03*
Y874520D02*
D03*
X652780Y1209800D02*
D03*
D29*
X655320Y1020320D02*
D03*
X656590Y693810D02*
D03*
Y858520D02*
D03*
X652780Y1193800D02*
D03*
D30*
X81440Y941660D02*
D03*
X86440D02*
D03*
X91440D02*
D03*
X96440D02*
D03*
X101440D02*
D03*
X81440Y983660D02*
D03*
X86440D02*
D03*
X91440D02*
D03*
X96440D02*
D03*
X101440D02*
D03*
X82870Y786040D02*
D03*
X87870D02*
D03*
X92870D02*
D03*
X97870D02*
D03*
X102870D02*
D03*
X82870Y828040D02*
D03*
X87870D02*
D03*
X92870D02*
D03*
X97870D02*
D03*
X102870D02*
D03*
X85170Y626020D02*
D03*
X90170D02*
D03*
X95170D02*
D03*
X100170D02*
D03*
X105170D02*
D03*
X85170Y668020D02*
D03*
X90170D02*
D03*
X95170D02*
D03*
X100170D02*
D03*
X105170D02*
D03*
X89060Y1099140D02*
D03*
X94060D02*
D03*
X99060D02*
D03*
X104060D02*
D03*
X109060D02*
D03*
X89060Y1141140D02*
D03*
X94060D02*
D03*
X99060D02*
D03*
X104060D02*
D03*
X109060D02*
D03*
D31*
X135030Y559390D02*
D03*
X141530D02*
D03*
X148030D02*
D03*
X154530D02*
D03*
X135030Y601390D02*
D03*
X141530D02*
D03*
X148030D02*
D03*
X154530D02*
D03*
X140110Y713060D02*
D03*
X146610D02*
D03*
X153110D02*
D03*
X159610D02*
D03*
X140110Y755060D02*
D03*
X146610D02*
D03*
X153110D02*
D03*
X159610D02*
D03*
X138840Y871810D02*
D03*
X145340D02*
D03*
X151840D02*
D03*
X158340D02*
D03*
X138840Y913810D02*
D03*
X145340D02*
D03*
X151840D02*
D03*
X158340D02*
D03*
X135030Y1026750D02*
D03*
X141530D02*
D03*
X148030D02*
D03*
X154530D02*
D03*
X135030Y1068750D02*
D03*
X141530D02*
D03*
X148030D02*
D03*
X154530D02*
D03*
D32*
X684910Y667900D02*
D03*
X668910D02*
D03*
X684910Y832610D02*
D03*
X668910D02*
D03*
X683640Y994410D02*
D03*
X667640D02*
D03*
X681100Y1167890D02*
D03*
X665100D02*
D03*
X691260Y618490D02*
D03*
X675260D02*
D03*
X691260Y599440D02*
D03*
X675260D02*
D03*
X689990Y458470D02*
D03*
X673990D02*
D03*
X689990Y439420D02*
D03*
X673990D02*
D03*
X140590Y1182370D02*
D03*
X156590D02*
D03*
X583310Y105410D02*
D03*
X567310D02*
D03*
X584580Y80010D02*
D03*
X568580D02*
D03*
X318390Y1256030D02*
D03*
X334390D02*
D03*
D33*
X648970Y480320D02*
D03*
X661670D02*
D03*
X674370D02*
D03*
X687070D02*
D03*
X648970Y576320D02*
D03*
X661670D02*
D03*
X674370D02*
D03*
X687070D02*
D03*
D34*
X178750Y1203350D02*
D03*
Y1222350D02*
D03*
X158750Y1212850D02*
D03*
D35*
X813050Y161290D02*
D03*
D36*
X749050Y138290D02*
D03*
Y161290D02*
D03*
Y184290D02*
D03*
D37*
X373630Y114300D02*
D03*
X405130D02*
D03*
D38*
X441960Y115060D02*
D03*
Y83060D02*
D03*
D39*
X164340Y177800D02*
D03*
X196340D02*
D03*
X257050Y179070D02*
D03*
X289050D02*
D03*
D40*
X553065Y67310D02*
D03*
Y80010D02*
D03*
Y92710D02*
D03*
Y105410D02*
D03*
X501035Y67310D02*
D03*
Y80010D02*
D03*
Y92710D02*
D03*
Y105410D02*
D03*
D41*
X527050Y86360D02*
D03*
D42*
X175270Y325120D02*
D03*
X208270D02*
D03*
X256550D02*
D03*
X289550D02*
D03*
D43*
X328230Y1275740D02*
D03*
Y1285240D02*
D03*
Y1294740D02*
D03*
X304230D02*
D03*
Y1285240D02*
D03*
Y1275740D02*
D03*
M02*
