G04*
G04 #@! TF.GenerationSoftware,Altium Limited,Altium Designer,22.9.1 (49)*
G04*
G04 Layer_Physical_Order=1*
G04 Layer_Color=10066410*
%FSLAX44Y44*%
%MOMM*%
G71*
G04*
G04 #@! TF.SameCoordinates,4F58AA59-1FC8-4CD4-8C03-AE197A2B088C*
G04*
G04*
G04 #@! TF.FilePolarity,Positive*
G04*
G01*
G75*
%ADD18R,0.7000X1.3000*%
G04:AMPARAMS|DCode=19|XSize=0.55mm|YSize=1.25mm|CornerRadius=0.0495mm|HoleSize=0mm|Usage=FLASHONLY|Rotation=180.000|XOffset=0mm|YOffset=0mm|HoleType=Round|Shape=RoundedRectangle|*
%AMROUNDEDRECTD19*
21,1,0.5500,1.1510,0,0,180.0*
21,1,0.4510,1.2500,0,0,180.0*
1,1,0.0990,-0.2255,0.5755*
1,1,0.0990,0.2255,0.5755*
1,1,0.0990,0.2255,-0.5755*
1,1,0.0990,-0.2255,-0.5755*
%
%ADD19ROUNDEDRECTD19*%
G04:AMPARAMS|DCode=20|XSize=0.55mm|YSize=1.25mm|CornerRadius=0.0495mm|HoleSize=0mm|Usage=FLASHONLY|Rotation=270.000|XOffset=0mm|YOffset=0mm|HoleType=Round|Shape=RoundedRectangle|*
%AMROUNDEDRECTD20*
21,1,0.5500,1.1510,0,0,270.0*
21,1,0.4510,1.2500,0,0,270.0*
1,1,0.0990,-0.5755,-0.2255*
1,1,0.0990,-0.5755,0.2255*
1,1,0.0990,0.5755,0.2255*
1,1,0.0990,0.5755,-0.2255*
%
%ADD20ROUNDEDRECTD20*%
%ADD21R,0.5000X0.6000*%
%ADD22R,0.6000X0.5000*%
%ADD23R,1.0000X0.9500*%
%ADD24R,1.4000X1.2000*%
%ADD25O,1.6500X0.3500*%
%ADD26R,1.8200X1.2200*%
%ADD27R,0.2500X0.6000*%
%ADD28R,2.2300X0.7000*%
%ADD29R,2.2300X0.5000*%
%ADD30O,0.3000X2.0000*%
%ADD31O,0.4500X1.7000*%
%ADD32R,0.9500X1.0000*%
%ADD33O,0.6000X1.7000*%
%ADD34R,1.8000X0.6000*%
%ADD35R,1.5000X3.3000*%
%ADD36R,1.5000X1.2000*%
%ADD37R,2.5000X1.7000*%
%ADD38R,1.5500X2.5000*%
%ADD39R,2.5000X1.5500*%
%ADD40O,1.1430X0.7600*%
%ADD41R,2.2600X2.9900*%
%ADD42R,2.6000X2.1500*%
%ADD43R,1.3000X0.7000*%
G04:AMPARAMS|DCode=82|XSize=2.95mm|YSize=4.9mm|CornerRadius=0.059mm|HoleSize=0mm|Usage=FLASHONLY|Rotation=90.000|XOffset=0mm|YOffset=0mm|HoleType=Round|Shape=RoundedRectangle|*
%AMROUNDEDRECTD82*
21,1,2.9500,4.7820,0,0,90.0*
21,1,2.8320,4.9000,0,0,90.0*
1,1,0.1180,2.3910,1.4160*
1,1,0.1180,2.3910,-1.4160*
1,1,0.1180,-2.3910,-1.4160*
1,1,0.1180,-2.3910,1.4160*
%
%ADD82ROUNDEDRECTD82*%
G04:AMPARAMS|DCode=83|XSize=2.95mm|YSize=4.9mm|CornerRadius=0.059mm|HoleSize=0mm|Usage=FLASHONLY|Rotation=180.000|XOffset=0mm|YOffset=0mm|HoleType=Round|Shape=RoundedRectangle|*
%AMROUNDEDRECTD83*
21,1,2.9500,4.7820,0,0,180.0*
21,1,2.8320,4.9000,0,0,180.0*
1,1,0.1180,-1.4160,2.3910*
1,1,0.1180,1.4160,2.3910*
1,1,0.1180,1.4160,-2.3910*
1,1,0.1180,-1.4160,-2.3910*
%
%ADD83ROUNDEDRECTD83*%
%ADD84C,0.3810*%
%ADD85C,0.2540*%
%ADD86C,1.1000*%
%ADD87C,1.3000*%
%ADD88O,3.1999X3.2000*%
%ADD89C,1.7780*%
%ADD90R,1.5000X1.5000*%
%ADD91C,1.5000*%
%ADD92C,2.3000*%
%ADD93R,1.5080X1.5080*%
%ADD94C,7.5000*%
%ADD95C,2.5000*%
%ADD96C,0.6350*%
%ADD97C,0.5000*%
%ADD98C,1.2700*%
%ADD99C,1.9050*%
D18*
X219100Y608900D02*
D03*
X228600D02*
D03*
X238100D02*
D03*
Y584900D02*
D03*
X228600D02*
D03*
X219100D02*
D03*
X212370Y1088070D02*
D03*
X221870D02*
D03*
X231370D02*
D03*
Y1064070D02*
D03*
X221870D02*
D03*
X212370D02*
D03*
X221560Y746190D02*
D03*
X231060D02*
D03*
X240560D02*
D03*
Y770190D02*
D03*
X231060D02*
D03*
X221560D02*
D03*
X221030Y905640D02*
D03*
X230530D02*
D03*
X240030D02*
D03*
Y929640D02*
D03*
X230530D02*
D03*
X221030D02*
D03*
D19*
X194310Y631610D02*
D03*
X207010D02*
D03*
X219710D02*
D03*
X232410D02*
D03*
X194310Y684110D02*
D03*
X207010D02*
D03*
X219710D02*
D03*
X232410D02*
D03*
X187580Y1110780D02*
D03*
X200280D02*
D03*
X212980D02*
D03*
X225680D02*
D03*
X187580Y1163280D02*
D03*
X200280D02*
D03*
X212980D02*
D03*
X225680D02*
D03*
X234870Y845400D02*
D03*
X222170D02*
D03*
X209470D02*
D03*
X196770D02*
D03*
X234870Y792900D02*
D03*
X222170D02*
D03*
X209470D02*
D03*
X196770D02*
D03*
X234340Y1004850D02*
D03*
X221640D02*
D03*
X208940D02*
D03*
X196240D02*
D03*
X234340Y952350D02*
D03*
X221640D02*
D03*
X208940D02*
D03*
X196240D02*
D03*
D20*
X318350Y628650D02*
D03*
Y641350D02*
D03*
Y654050D02*
D03*
Y666750D02*
D03*
X265850Y628650D02*
D03*
Y641350D02*
D03*
Y654050D02*
D03*
Y666750D02*
D03*
X278550Y722630D02*
D03*
Y709930D02*
D03*
Y697230D02*
D03*
Y684530D02*
D03*
X331050Y722630D02*
D03*
Y709930D02*
D03*
Y697230D02*
D03*
Y684530D02*
D03*
X311620Y1107820D02*
D03*
Y1120520D02*
D03*
Y1133220D02*
D03*
Y1145920D02*
D03*
X259120Y1107820D02*
D03*
Y1120520D02*
D03*
Y1133220D02*
D03*
Y1145920D02*
D03*
X271820Y1201800D02*
D03*
Y1189100D02*
D03*
Y1176400D02*
D03*
Y1163700D02*
D03*
X324320Y1201800D02*
D03*
Y1189100D02*
D03*
Y1176400D02*
D03*
Y1163700D02*
D03*
X333510Y845820D02*
D03*
Y858520D02*
D03*
Y871220D02*
D03*
Y883920D02*
D03*
X281010Y845820D02*
D03*
Y858520D02*
D03*
Y871220D02*
D03*
Y883920D02*
D03*
X268310Y828040D02*
D03*
Y815340D02*
D03*
Y802640D02*
D03*
Y789940D02*
D03*
X320810Y828040D02*
D03*
Y815340D02*
D03*
Y802640D02*
D03*
Y789940D02*
D03*
X332980Y1005270D02*
D03*
Y1017970D02*
D03*
Y1030670D02*
D03*
Y1043370D02*
D03*
X280480Y1005270D02*
D03*
Y1017970D02*
D03*
Y1030670D02*
D03*
Y1043370D02*
D03*
X267780Y987490D02*
D03*
Y974790D02*
D03*
Y962090D02*
D03*
Y949390D02*
D03*
X320280Y987490D02*
D03*
Y974790D02*
D03*
Y962090D02*
D03*
Y949390D02*
D03*
X202350Y1289050D02*
D03*
Y1276350D02*
D03*
Y1263650D02*
D03*
Y1250950D02*
D03*
X254850Y1289050D02*
D03*
Y1276350D02*
D03*
Y1263650D02*
D03*
Y1250950D02*
D03*
D21*
X200580Y609600D02*
D03*
X190580D02*
D03*
X251540Y695960D02*
D03*
X261540D02*
D03*
X236300Y709930D02*
D03*
X246300D02*
D03*
X307260Y477520D02*
D03*
X297260D02*
D03*
X339170Y497840D02*
D03*
X349170D02*
D03*
X835740Y195580D02*
D03*
X845740D02*
D03*
X193850Y1088770D02*
D03*
X183850D02*
D03*
X244810Y1175130D02*
D03*
X254810D02*
D03*
X229570Y1189100D02*
D03*
X239570D02*
D03*
X86280Y1021080D02*
D03*
X76280D02*
D03*
X99140Y1007110D02*
D03*
X109140D02*
D03*
X99140Y1021080D02*
D03*
X109140D02*
D03*
X87710Y865460D02*
D03*
X77710D02*
D03*
X100570Y851490D02*
D03*
X110570D02*
D03*
X100570Y865460D02*
D03*
X110570D02*
D03*
X90010Y705440D02*
D03*
X80010D02*
D03*
X102870Y691470D02*
D03*
X112870D02*
D03*
X102870Y705440D02*
D03*
X112870D02*
D03*
X93900Y1178560D02*
D03*
X83900D02*
D03*
X106760Y1164590D02*
D03*
X116760D02*
D03*
X106760Y1178560D02*
D03*
X116760D02*
D03*
X248760Y871220D02*
D03*
X238760D02*
D03*
X264000Y857250D02*
D03*
X254000D02*
D03*
X193040Y770890D02*
D03*
X203040D02*
D03*
X248230Y1030670D02*
D03*
X238230D02*
D03*
X263470Y1016700D02*
D03*
X253470D02*
D03*
X192510Y930340D02*
D03*
X202510D02*
D03*
X661590Y733940D02*
D03*
X651590D02*
D03*
X661590Y898650D02*
D03*
X651590D02*
D03*
X660320Y1060450D02*
D03*
X650320D02*
D03*
X657780Y1233930D02*
D03*
X647780D02*
D03*
D22*
X248920Y664130D02*
D03*
Y654130D02*
D03*
X347980Y697150D02*
D03*
Y687150D02*
D03*
X260350Y720010D02*
D03*
Y710010D02*
D03*
X325120Y500300D02*
D03*
Y490300D02*
D03*
X323850Y528240D02*
D03*
Y518240D02*
D03*
X341630Y521890D02*
D03*
Y511890D02*
D03*
X246380Y514430D02*
D03*
Y524430D02*
D03*
X330200Y477440D02*
D03*
Y467440D02*
D03*
X242190Y1143300D02*
D03*
Y1133300D02*
D03*
X341250Y1176320D02*
D03*
Y1166320D02*
D03*
X253620Y1199180D02*
D03*
Y1189180D02*
D03*
X120650Y983060D02*
D03*
Y993060D02*
D03*
X122080Y827440D02*
D03*
Y837440D02*
D03*
X124380Y667420D02*
D03*
Y677420D02*
D03*
X128270Y1140540D02*
D03*
Y1150540D02*
D03*
X171450Y568880D02*
D03*
Y558880D02*
D03*
X176530Y722550D02*
D03*
Y712550D02*
D03*
X175260Y881300D02*
D03*
Y871300D02*
D03*
X171450Y1036240D02*
D03*
Y1026240D02*
D03*
X262810Y871300D02*
D03*
Y881300D02*
D03*
X350440Y848440D02*
D03*
Y858440D02*
D03*
X251380Y815420D02*
D03*
Y825420D02*
D03*
X262280Y1030750D02*
D03*
Y1040750D02*
D03*
X349910Y1007890D02*
D03*
Y1017890D02*
D03*
X250850Y974870D02*
D03*
Y984870D02*
D03*
X647700Y452200D02*
D03*
Y462200D02*
D03*
X355600Y75010D02*
D03*
Y85010D02*
D03*
X486410Y105330D02*
D03*
Y95330D02*
D03*
Y66120D02*
D03*
Y76120D02*
D03*
X472440Y54690D02*
D03*
Y64690D02*
D03*
X284480Y1266270D02*
D03*
Y1276270D02*
D03*
D23*
X198120Y580010D02*
D03*
Y596010D02*
D03*
X191390Y1059180D02*
D03*
Y1075180D02*
D03*
X200580Y757300D02*
D03*
Y741300D02*
D03*
X200050Y916750D02*
D03*
Y900750D02*
D03*
X681990Y704350D02*
D03*
Y720350D02*
D03*
Y869060D02*
D03*
Y885060D02*
D03*
X680720Y1030860D02*
D03*
Y1046860D02*
D03*
X678180Y1204340D02*
D03*
Y1220340D02*
D03*
X203200Y1204850D02*
D03*
Y1220850D02*
D03*
X835660Y158370D02*
D03*
Y174370D02*
D03*
X728980Y121540D02*
D03*
Y137540D02*
D03*
X347980Y99950D02*
D03*
Y115950D02*
D03*
D24*
X350110Y464060D02*
D03*
Y480060D02*
D03*
X372110D02*
D03*
Y464060D02*
D03*
D25*
X306000Y494190D02*
D03*
Y499190D02*
D03*
Y504190D02*
D03*
Y509190D02*
D03*
Y514190D02*
D03*
X265500Y494190D02*
D03*
Y499190D02*
D03*
Y504190D02*
D03*
Y509190D02*
D03*
Y514190D02*
D03*
D26*
X311150Y116840D02*
D03*
Y91440D02*
D03*
Y66040D02*
D03*
X196650D02*
D03*
Y91440D02*
D03*
Y116840D02*
D03*
D27*
X665070Y1045320D02*
D03*
X658570D02*
D03*
X652070D02*
D03*
X645570D02*
D03*
X665070Y1012320D02*
D03*
X658570D02*
D03*
X652070D02*
D03*
X645570D02*
D03*
X646840Y685810D02*
D03*
X653340D02*
D03*
X659840D02*
D03*
X666340D02*
D03*
X646840Y718810D02*
D03*
X653340D02*
D03*
X659840D02*
D03*
X666340D02*
D03*
X646840Y850520D02*
D03*
X653340D02*
D03*
X659840D02*
D03*
X666340D02*
D03*
X646840Y883520D02*
D03*
X653340D02*
D03*
X659840D02*
D03*
X666340D02*
D03*
X643030Y1185800D02*
D03*
X649530D02*
D03*
X656030D02*
D03*
X662530D02*
D03*
X643030Y1218800D02*
D03*
X649530D02*
D03*
X656030D02*
D03*
X662530D02*
D03*
D28*
X655320Y1036320D02*
D03*
X656590Y709810D02*
D03*
Y874520D02*
D03*
X652780Y1209800D02*
D03*
D29*
X655320Y1020320D02*
D03*
X656590Y693810D02*
D03*
Y858520D02*
D03*
X652780Y1193800D02*
D03*
D30*
X81440Y941660D02*
D03*
X86440D02*
D03*
X91440D02*
D03*
X96440D02*
D03*
X101440D02*
D03*
X81440Y983660D02*
D03*
X86440D02*
D03*
X91440D02*
D03*
X96440D02*
D03*
X101440D02*
D03*
X82870Y786040D02*
D03*
X87870D02*
D03*
X92870D02*
D03*
X97870D02*
D03*
X102870D02*
D03*
X82870Y828040D02*
D03*
X87870D02*
D03*
X92870D02*
D03*
X97870D02*
D03*
X102870D02*
D03*
X85170Y626020D02*
D03*
X90170D02*
D03*
X95170D02*
D03*
X100170D02*
D03*
X105170D02*
D03*
X85170Y668020D02*
D03*
X90170D02*
D03*
X95170D02*
D03*
X100170D02*
D03*
X105170D02*
D03*
X89060Y1099140D02*
D03*
X94060D02*
D03*
X99060D02*
D03*
X104060D02*
D03*
X109060D02*
D03*
X89060Y1141140D02*
D03*
X94060D02*
D03*
X99060D02*
D03*
X104060D02*
D03*
X109060D02*
D03*
D31*
X135030Y559390D02*
D03*
X141530D02*
D03*
X148030D02*
D03*
X154530D02*
D03*
X135030Y601390D02*
D03*
X141530D02*
D03*
X148030D02*
D03*
X154530D02*
D03*
X140110Y713060D02*
D03*
X146610D02*
D03*
X153110D02*
D03*
X159610D02*
D03*
X140110Y755060D02*
D03*
X146610D02*
D03*
X153110D02*
D03*
X159610D02*
D03*
X138840Y871810D02*
D03*
X145340D02*
D03*
X151840D02*
D03*
X158340D02*
D03*
X138840Y913810D02*
D03*
X145340D02*
D03*
X151840D02*
D03*
X158340D02*
D03*
X135030Y1026750D02*
D03*
X141530D02*
D03*
X148030D02*
D03*
X154530D02*
D03*
X135030Y1068750D02*
D03*
X141530D02*
D03*
X148030D02*
D03*
X154530D02*
D03*
D32*
X684910Y667900D02*
D03*
X668910D02*
D03*
X684910Y832610D02*
D03*
X668910D02*
D03*
X683640Y994410D02*
D03*
X667640D02*
D03*
X681100Y1167890D02*
D03*
X665100D02*
D03*
X691260Y618490D02*
D03*
X675260D02*
D03*
X691260Y599440D02*
D03*
X675260D02*
D03*
X689990Y458470D02*
D03*
X673990D02*
D03*
X689990Y439420D02*
D03*
X673990D02*
D03*
X140590Y1182370D02*
D03*
X156590D02*
D03*
X583310Y105410D02*
D03*
X567310D02*
D03*
X584580Y80010D02*
D03*
X568580D02*
D03*
X318390Y1256030D02*
D03*
X334390D02*
D03*
D33*
X648970Y480320D02*
D03*
X661670D02*
D03*
X674370D02*
D03*
X687070D02*
D03*
X648970Y576320D02*
D03*
X661670D02*
D03*
X674370D02*
D03*
X687070D02*
D03*
D34*
X178750Y1203350D02*
D03*
Y1222350D02*
D03*
X158750Y1212850D02*
D03*
D35*
X813050Y161290D02*
D03*
D36*
X749050Y138290D02*
D03*
Y161290D02*
D03*
Y184290D02*
D03*
D37*
X373630Y114300D02*
D03*
X405130D02*
D03*
D38*
X441960Y115060D02*
D03*
Y83060D02*
D03*
D39*
X164340Y177800D02*
D03*
X196340D02*
D03*
X257050Y179070D02*
D03*
X289050D02*
D03*
D40*
X553065Y67310D02*
D03*
Y80010D02*
D03*
Y92710D02*
D03*
Y105410D02*
D03*
X501035Y67310D02*
D03*
Y80010D02*
D03*
Y92710D02*
D03*
Y105410D02*
D03*
D41*
X527050Y86360D02*
D03*
D42*
X175270Y325120D02*
D03*
X208270D02*
D03*
X256550D02*
D03*
X289550D02*
D03*
D43*
X328230Y1275740D02*
D03*
Y1285240D02*
D03*
Y1294740D02*
D03*
X304230D02*
D03*
Y1285240D02*
D03*
Y1275740D02*
D03*
D82*
X213360Y657860D02*
D03*
X206630Y1137030D02*
D03*
X215820Y819150D02*
D03*
X215290Y978600D02*
D03*
D83*
X292100Y647700D02*
D03*
X304800Y703580D02*
D03*
X285370Y1126870D02*
D03*
X298070Y1182750D02*
D03*
X307260Y864870D02*
D03*
X294560Y808990D02*
D03*
X306730Y1024320D02*
D03*
X294030Y968440D02*
D03*
X228600Y1270000D02*
D03*
D84*
X534595Y152400D02*
X551105Y168910D01*
X342900Y182880D02*
X373380Y152400D01*
X534595D01*
X233670Y481340D02*
X350520Y364490D01*
X151130Y481340D02*
X233670D01*
X350520Y198120D02*
Y364490D01*
X845740Y195580D02*
Y215820D01*
X857250Y227330D01*
X791511Y237791D02*
X821389D01*
X781050Y227330D02*
X791511Y237791D01*
X821389D02*
X831850Y227330D01*
Y210833D02*
X835740Y206943D01*
Y195580D02*
Y206943D01*
X831850Y210833D02*
Y227330D01*
X835700Y195540D02*
X835740Y195580D01*
X835660Y174370D02*
X835700Y174410D01*
Y195540D01*
X215900Y332750D02*
Y372110D01*
X256550Y325120D02*
Y372120D01*
X208270Y325120D02*
X215900Y332750D01*
X204940Y321790D02*
X208270Y325120D01*
X256550D02*
X261620Y320050D01*
X289550Y325120D02*
X316230D01*
X147320D02*
X175270D01*
X847980Y174370D02*
X855980Y166370D01*
X835660Y174370D02*
X847980D01*
X151130Y434340D02*
X259080D01*
X342900Y182880D02*
Y350520D01*
X259080Y434340D02*
X342900Y350520D01*
X382270Y166370D02*
X398780D01*
X350520Y198120D02*
X382270Y166370D01*
X551105Y168910D02*
X624840D01*
X471170Y166370D02*
X487492Y182692D01*
X636458D01*
X650240Y168910D01*
X409201Y176791D02*
X460038D01*
X398780Y166370D02*
X409201Y176791D01*
X460038D02*
X470459Y166370D01*
X471170D01*
X168910Y127000D02*
X185745Y143835D01*
Y171955D01*
X168910Y73660D02*
Y127000D01*
Y73660D02*
X176530Y66040D01*
X185745Y171955D02*
X191590Y177800D01*
X196340D01*
X176530Y66040D02*
X196650D01*
X218592Y151283D02*
X224513D01*
X196650Y129340D02*
X218592Y151283D01*
X252300Y179070D02*
X257050D01*
X224513Y151283D02*
X252300Y179070D01*
X196650Y116840D02*
Y129340D01*
X405130Y114300D02*
X441200D01*
X441960Y115060D01*
X565955Y106515D02*
X567310Y105160D01*
X565955Y106515D02*
Y116125D01*
X393811Y130481D02*
X551599D01*
X377630Y114300D02*
X393811Y130481D01*
X373630Y114300D02*
X377630D01*
X551599Y130481D02*
X565955Y116125D01*
X371980Y115950D02*
X373630Y114300D01*
X347980Y115950D02*
X371980D01*
X312040D02*
X347980D01*
X311150Y116840D02*
X312040Y115950D01*
X486450Y105370D02*
X500995D01*
X486410Y105330D02*
X486450Y105370D01*
X500995D02*
X501035Y105410D01*
X485910Y105330D02*
X486410D01*
X441960Y83060D02*
X463640D01*
X485910Y105330D01*
X355600Y75010D02*
X436115D01*
X441960Y80855D01*
Y83060D01*
X346130Y66040D02*
X355100Y75010D01*
X355600D01*
X311150Y66040D02*
X346130D01*
X570155Y108505D02*
X570405D01*
X567310Y105660D02*
X570155Y108505D01*
X615570Y153670D02*
X660400D01*
X570405Y108505D02*
X615570Y153670D01*
X660400D02*
X675640Y168910D01*
X813050Y168775D02*
X818645Y174370D01*
X813050Y161290D02*
Y168775D01*
X818645Y174370D02*
X835660D01*
X749050Y161290D02*
X813050D01*
X728980Y137540D02*
X748300D01*
X749050Y138290D01*
X707010Y137540D02*
X728980D01*
X675640Y168910D02*
X707010Y137540D01*
X261620Y248920D02*
Y320050D01*
X204940Y248920D02*
Y321790D01*
X261620Y248920D02*
X289050Y221490D01*
Y179070D02*
Y221490D01*
X164340Y177800D02*
Y208320D01*
X204940Y248920D01*
D85*
X183260Y580010D02*
X198120D01*
X184530Y596010D02*
X198120D01*
X260350Y710010D02*
X260390Y709970D01*
X223520Y709930D02*
X236300D01*
X260310Y709970D02*
X260350Y710010D01*
X246340Y709970D02*
X260310D01*
X246300Y709930D02*
X246340Y709970D01*
X353060Y702583D02*
Y725170D01*
X349710Y699233D02*
X353060Y702583D01*
X334010Y744220D02*
X353060Y725170D01*
X349710Y698380D02*
Y699233D01*
X348480Y697150D02*
X349710Y698380D01*
X347940Y697190D02*
X347980Y697150D01*
X348480D01*
X260350Y730250D02*
X274320Y744220D01*
X334010D01*
X260350Y720010D02*
Y730250D01*
X260581Y695001D02*
X262175Y696595D01*
X260581Y691111D02*
Y695001D01*
X248920Y679450D02*
X260581Y691111D01*
X248920Y664130D02*
Y679450D01*
X278550Y722630D02*
Y735750D01*
X260390Y709970D02*
X278510D01*
X278550Y709930D01*
X277915Y696595D02*
X278550Y697230D01*
X262175Y696595D02*
X277915D01*
X268490Y684530D02*
X278550D01*
X264680Y680720D02*
X268490Y684530D01*
X264160Y680720D02*
X264680D01*
X331050Y722630D02*
Y735750D01*
Y709930D02*
X344170D01*
X331090Y697190D02*
X347940D01*
X331050Y697230D02*
X331090Y697190D01*
X318350Y616370D02*
Y628650D01*
X347980Y670560D02*
Y687150D01*
X331758Y654338D02*
X347980Y670560D01*
X318638Y654338D02*
X331758D01*
X318350Y654050D02*
X318638Y654338D01*
X318350Y666750D02*
X332740D01*
X265850Y615100D02*
Y628650D01*
X252730Y641350D02*
X265850D01*
X265810Y654090D02*
X265850Y654050D01*
X248960Y654090D02*
X265810D01*
X248920Y654130D02*
X248960Y654090D01*
X179920Y631610D02*
X194310D01*
X232410D02*
X244690D01*
X194310Y684110D02*
Y697230D01*
X207010Y684110D02*
Y697230D01*
X228060Y695960D02*
X251540D01*
X210820Y704850D02*
X218230Y697440D01*
X219710Y687610D02*
X228060Y695960D01*
X219710Y684110D02*
Y687610D01*
X218230Y685590D02*
Y697440D01*
Y685590D02*
X219710Y684110D01*
X189230Y704850D02*
X210820D01*
X207010Y628110D02*
Y631610D01*
X171450Y687070D02*
X189230Y704850D01*
X171450Y628650D02*
Y687070D01*
X199930Y621030D02*
X207010Y628110D01*
X171450Y628650D02*
X179070Y621030D01*
X199930D01*
X219405Y631305D02*
X219710Y631610D01*
X219405Y609205D02*
Y631305D01*
X219100Y608900D02*
X219405Y609205D01*
X218400Y609600D02*
X219100Y608900D01*
X200580Y609600D02*
X218400D01*
X247650Y619760D02*
X251460Y623570D01*
X230088Y619760D02*
X247650D01*
X228600Y618272D02*
X230088Y619760D01*
X228600Y608900D02*
Y618272D01*
X247080Y608900D02*
X255270Y600710D01*
X238100Y608900D02*
X247080D01*
X238100Y584900D02*
X255840D01*
X228600Y567690D02*
Y584900D01*
X219100Y582240D02*
Y584900D01*
X216870Y580010D02*
X219100Y582240D01*
X198120Y580010D02*
X216870D01*
X687070Y480320D02*
Y497840D01*
X339026Y532916D02*
Y533798D01*
X335280Y529170D02*
X339026Y532916D01*
X372110Y450850D02*
Y464060D01*
X385320D01*
X351110Y480060D02*
X362380Y468790D01*
X367380D02*
X372110Y464060D01*
X350110Y480060D02*
X351110D01*
X362380Y468790D02*
X367380D01*
X356870Y506040D02*
Y509270D01*
X349170Y498340D02*
X356870Y506040D01*
X349170Y497840D02*
Y498340D01*
X315914Y499006D02*
X324620Y490300D01*
X306000Y499190D02*
X306184Y499006D01*
X324620Y490300D02*
X325120D01*
X306184Y499006D02*
X315914D01*
X325620Y490300D02*
X330200Y485720D01*
X325120Y490300D02*
X325620D01*
X330200Y477440D02*
Y485720D01*
X331430Y476210D02*
X336960D01*
X349110Y464060D02*
X350110D01*
X336960Y476210D02*
X349110Y464060D01*
X330200Y477440D02*
X331430Y476210D01*
X339170Y497340D02*
X346060Y490450D01*
X371110Y480060D02*
X372110D01*
X339170Y497340D02*
Y497840D01*
X346060Y490450D02*
X360720D01*
X371110Y480060D01*
X337210Y500300D02*
X339170Y498340D01*
Y497840D02*
Y498340D01*
X325120Y500300D02*
X337210D01*
X324620D02*
X325120D01*
X306000Y504190D02*
X320730D01*
X324620Y500300D01*
X284480Y477520D02*
X297260D01*
X307260D02*
X318770D01*
X307260D02*
Y478020D01*
X306000Y479280D02*
Y494190D01*
Y479280D02*
X307260Y478020D01*
X246380Y501650D02*
X248920Y504190D01*
X265500D01*
X235030Y514430D02*
X246380D01*
X257730Y524430D02*
X260350Y527050D01*
X246380Y524430D02*
X257730D01*
X246880Y514430D02*
X252120Y509190D01*
X265500D01*
X246380Y514430D02*
X246880D01*
X306000Y509190D02*
X324980D01*
X327680Y511890D02*
X341630D01*
X324980Y509190D02*
X327680Y511890D01*
X341630Y528320D02*
X347980Y534670D01*
X341630Y521890D02*
Y528320D01*
X323850Y528240D02*
Y539750D01*
Y518240D02*
X324350D01*
X335280Y529170D01*
X306000Y514190D02*
X312500D01*
X316550Y518240D01*
X323850D01*
X339026Y533798D02*
X345613Y540385D01*
X356235D02*
X395861Y500759D01*
X345613Y540385D02*
X356235D01*
X395861Y419254D02*
Y500759D01*
X387350Y410743D02*
X395861Y419254D01*
X387350Y332775D02*
Y410743D01*
X409876Y218843D02*
Y310249D01*
X391563Y217504D02*
X408537D01*
X409876Y218843D01*
X380920Y221060D02*
X388007D01*
X391563Y217504D01*
X387350Y332775D02*
X409876Y310249D01*
X374650Y227330D02*
X380920Y221060D01*
X359500Y267880D02*
Y420460D01*
X391670Y452630D02*
Y493520D01*
X359500Y420460D02*
X391670Y452630D01*
X354330Y519430D02*
X365760D01*
X391670Y493520D01*
X347191Y512291D02*
X354330Y519430D01*
X342031Y512291D02*
X347191D01*
X341630Y511890D02*
X342031Y512291D01*
X359500Y267880D02*
X400050Y227330D01*
X850980Y411400D02*
Y417750D01*
Y411400D02*
X857250Y405130D01*
X779780Y488950D02*
X850980Y417750D01*
X628650Y443650D02*
X647835Y462835D01*
X648335D01*
X628650Y405130D02*
Y443650D01*
X661670Y439420D02*
X673990D01*
X660400Y461010D02*
X661670Y462280D01*
Y480320D01*
X647700Y439420D02*
Y452200D01*
X648970Y576320D02*
Y593090D01*
X689990Y458470D02*
X699135D01*
X689990Y439420D02*
X699135D01*
X330200Y457200D02*
Y467440D01*
X318350Y641350D02*
X321850D01*
X326886Y616824D02*
Y636314D01*
X319447Y609385D02*
X326886Y616824D01*
X263483Y609385D02*
X319447D01*
X257175Y615693D02*
Y627207D01*
X247015Y637367D02*
X257175Y627207D01*
X247015Y637367D02*
Y645854D01*
X321850Y641350D02*
X326886Y636314D01*
X247015Y645854D02*
X248920Y647759D01*
Y654130D01*
X257175Y615693D02*
X263483Y609385D01*
X251420Y815380D02*
X251460Y815340D01*
X251380Y815420D02*
X251420Y815380D01*
X324310Y802640D02*
X329346Y797604D01*
Y778114D02*
Y797604D01*
X321907Y770675D02*
X329346Y778114D01*
X265943Y770675D02*
X321907D01*
X320810Y802640D02*
X324310D01*
X259635Y776983D02*
X265943Y770675D01*
X259635Y776983D02*
Y788497D01*
X249475Y798657D02*
X259635Y788497D01*
X249475Y798657D02*
Y806239D01*
X251460Y808224D01*
Y815340D01*
X321377Y930125D02*
X328816Y937564D01*
X265413Y930125D02*
X321377D01*
X259105Y936433D02*
X265413Y930125D01*
X259105Y936433D02*
Y947947D01*
X248945Y958107D02*
X259105Y947947D01*
X248945Y958107D02*
Y964921D01*
X320280Y962090D02*
X323780D01*
X248945Y964921D02*
X250850Y966826D01*
X328816Y937564D02*
Y957054D01*
X250850Y966826D02*
Y974870D01*
X323780Y962090D02*
X328816Y957054D01*
X315120Y1120520D02*
X320156Y1115484D01*
X312717Y1088555D02*
X320156Y1095994D01*
X256753Y1088555D02*
X312717D01*
X320156Y1095994D02*
Y1115484D01*
X250445Y1094863D02*
X256753Y1088555D01*
X240460Y1131570D02*
Y1132070D01*
X240285Y1131395D02*
X240460Y1131570D01*
X311620Y1120520D02*
X315120D01*
X240460Y1132070D02*
X241690Y1133300D01*
X240285Y1116537D02*
X250445Y1106377D01*
X241690Y1133300D02*
X242190D01*
X240285Y1116537D02*
Y1131395D01*
X250445Y1094863D02*
Y1106377D01*
X216790Y1189100D02*
X229570D01*
X212370Y1088070D02*
X212675Y1088375D01*
Y1110475D01*
X212980Y1110780D01*
X211670Y1088770D02*
X212370Y1088070D01*
X193850Y1088770D02*
X211670D01*
X240920Y1098930D02*
X244730Y1102740D01*
X223358Y1098930D02*
X240920D01*
X221870Y1088070D02*
Y1097442D01*
X223358Y1098930D01*
X240350Y1088070D02*
X248540Y1079880D01*
X231370Y1088070D02*
X240350D01*
X231370Y1064070D02*
X249110D01*
X177800Y1075180D02*
X191390D01*
X176530Y1059180D02*
X191390D01*
X212370Y1061410D02*
Y1064070D01*
X210140Y1059180D02*
X212370Y1061410D01*
X191390Y1059180D02*
X210140D01*
X221870Y1046860D02*
Y1064070D01*
X164720Y1107820D02*
X172340Y1100200D01*
X193200D02*
X200280Y1107280D01*
X172340Y1100200D02*
X193200D01*
X164720Y1107820D02*
Y1166240D01*
X182500Y1184020D01*
X204090D01*
X211500Y1176610D01*
Y1164760D02*
Y1176610D01*
Y1164760D02*
X212980Y1163280D01*
X200280Y1107280D02*
Y1110780D01*
X173190D02*
X187580D01*
Y1163280D02*
Y1176400D01*
X200280Y1163280D02*
Y1176400D01*
X221330Y1175130D02*
X244810D01*
X212980Y1163280D02*
Y1166780D01*
X221330Y1175130D01*
X225680Y1110780D02*
X237960D01*
X267590Y1223390D02*
X327280D01*
X253620Y1209420D02*
X267590Y1223390D01*
X253620Y1199180D02*
Y1209420D01*
X327280Y1223390D02*
X346330Y1204340D01*
Y1181753D02*
Y1204340D01*
X341250Y1176320D02*
X341750D01*
X342980Y1178403D02*
X346330Y1181753D01*
X341750Y1176320D02*
X342980Y1177550D01*
Y1178403D01*
X253660Y1189140D02*
X271780D01*
X271820Y1189100D01*
X253620Y1189180D02*
X253660Y1189140D01*
X239610D02*
X253580D01*
X253620Y1189180D01*
X239570Y1189100D02*
X239610Y1189140D01*
X341250Y1149730D02*
Y1166320D01*
X311908Y1133508D02*
X325028D01*
X341250Y1149730D01*
X341210Y1176360D02*
X341250Y1176320D01*
X324320Y1176400D02*
X324360Y1176360D01*
X341210D01*
X311620Y1133220D02*
X311908Y1133508D01*
X253851Y1170281D02*
Y1174171D01*
X242190Y1143300D02*
Y1158620D01*
X253851Y1170281D01*
Y1174171D02*
X255445Y1175765D01*
X271185D01*
X271820Y1176400D01*
X261760Y1163700D02*
X271820D01*
X257950Y1159890D02*
X261760Y1163700D01*
X257430Y1159890D02*
X257950D01*
X259080Y1133260D02*
X259120Y1133220D01*
X242230Y1133260D02*
X259080D01*
X242190Y1133300D02*
X242230Y1133260D01*
X246000Y1120520D02*
X259120D01*
Y1094270D02*
Y1107820D01*
X311620Y1095540D02*
Y1107820D01*
Y1145920D02*
X326010D01*
X324320Y1189100D02*
X337440D01*
X324320Y1201800D02*
Y1214920D01*
X271820Y1201800D02*
Y1214920D01*
X191850Y558880D02*
X201930Y568960D01*
X171450Y558880D02*
X191850D01*
X176530Y712550D02*
X196930D01*
X193120Y871300D02*
X198120Y876300D01*
X175260Y871300D02*
X193120D01*
X191960Y1033780D02*
X201930D01*
X184420Y1026240D02*
X191960Y1033780D01*
X171450Y1026240D02*
X184420D01*
X154530Y1072825D02*
X155435Y1073730D01*
X160685D01*
X175725Y1088770D01*
X154530Y1068750D02*
Y1072825D01*
X175725Y1088770D02*
X183850D01*
X148030Y1068750D02*
Y1084332D01*
X109060Y1099140D02*
X133222D01*
X148030Y1084332D01*
X158340Y917885D02*
X159245Y918790D01*
X180215Y930340D02*
X192510D01*
X158340Y913810D02*
Y917885D01*
X159245Y918790D02*
X168665D01*
X180215Y930340D01*
X151840Y913810D02*
Y929392D01*
X101440Y941660D02*
X139572D01*
X151840Y929392D01*
X159610Y755060D02*
X169113D01*
X184943Y770890D01*
X193040D01*
X137712Y786040D02*
X153110Y770642D01*
Y755060D02*
Y770642D01*
X102870Y786040D02*
X137712D01*
X154530Y605465D02*
X155435Y606370D01*
X169955D02*
X173185Y609600D01*
X190580D01*
X154530Y601390D02*
Y605465D01*
X155435Y606370D02*
X169955D01*
X105170Y626020D02*
X138982D01*
X148030Y616972D01*
Y601390D02*
Y616972D01*
X203200Y1192530D02*
Y1204850D01*
X140110Y681580D02*
X149860Y671830D01*
X408789Y1166320D02*
X415599Y1159510D01*
X341250Y1166320D02*
X408789D01*
X415599Y1159510D02*
X416560D01*
X349910Y1007890D02*
X364980D01*
X416560Y956310D01*
X348480Y687150D02*
X349710Y685920D01*
Y685420D02*
Y685920D01*
X347980Y687150D02*
X348480D01*
X349710Y685420D02*
X416560Y618570D01*
Y549910D02*
Y618570D01*
X350940Y848440D02*
X352170Y847210D01*
X350440Y848440D02*
X350940D01*
X352170Y846710D02*
Y847210D01*
Y846710D02*
X416560Y782320D01*
Y753110D02*
Y782320D01*
X67355Y1153205D02*
X78740Y1164590D01*
X67355Y1056707D02*
Y1153205D01*
Y1056707D02*
X70565Y1053497D01*
Y1007665D02*
Y1053497D01*
Y1007665D02*
X71120Y1007110D01*
X59735Y995725D02*
X71120Y1007110D01*
X59735Y904682D02*
X71995Y892422D01*
Y852045D02*
Y892422D01*
Y852045D02*
X72550Y851490D01*
X59735Y904682D02*
Y995725D01*
X61165Y780845D02*
Y840105D01*
X72550Y851490D01*
X61165Y780845D02*
X74295Y767715D01*
Y692025D02*
Y767715D01*
Y692025D02*
X74850Y691470D01*
X62230Y600710D02*
Y678850D01*
X74850Y691470D01*
X62230Y600710D02*
X133350Y529590D01*
X209550D01*
X244950Y494190D01*
X265500D01*
X181610Y91440D02*
X196650D01*
X728980Y109220D02*
Y121540D01*
X347980Y92130D02*
X355100Y85010D01*
X355600D01*
X347980Y92130D02*
Y99950D01*
X495131Y95330D02*
X497751Y92710D01*
X501035D01*
X486410Y95330D02*
X495131D01*
X474170Y65920D02*
Y66420D01*
X485180Y74890D02*
X486410Y76120D01*
X472940Y64690D02*
X474170Y65920D01*
X472440Y64690D02*
X472940D01*
X482640Y74890D02*
X485180D01*
X474170Y66420D02*
X482640Y74890D01*
X472440Y54690D02*
X485060D01*
X500440Y66715D02*
X501035Y67310D01*
X486410Y66120D02*
X487005Y66715D01*
X500440D01*
X486910Y76120D02*
X490800Y80010D01*
X486410Y76120D02*
X486910D01*
X490800Y80010D02*
X501035D01*
X835660Y146050D02*
Y158370D01*
X731520Y173990D02*
X737090Y179560D01*
X744320D01*
X749050Y184290D01*
X583310Y105410D02*
X595630D01*
X553065D02*
Y120035D01*
X579760Y92710D02*
X598170D01*
X567310Y105160D02*
X579760Y92710D01*
X598170D02*
X605790Y85090D01*
X553065Y67310D02*
X596900D01*
X605790Y76200D01*
Y85090D01*
X554860Y92710D02*
X567310Y105160D01*
X553065Y92710D02*
X554860D01*
X584580Y80010D02*
X596900D01*
X553065D02*
X568580D01*
X443230Y676910D02*
X480060Y640080D01*
X416560Y676910D02*
X443230D01*
X480060Y640080D02*
X715010D01*
X256869Y1220850D02*
X284480Y1248461D01*
Y1266270D01*
X203200Y1220850D02*
X256869D01*
X168910Y1184910D02*
X178750Y1194750D01*
Y1203350D01*
X201700Y1222350D02*
X203200Y1220850D01*
X178750Y1222350D02*
X201700D01*
X156590Y1182370D02*
Y1211120D01*
X158320Y1212850D01*
X158750D01*
X133350Y1196340D02*
X137110Y1192580D01*
Y1185850D02*
X140590Y1182370D01*
X137110Y1185850D02*
Y1192580D01*
X153670Y1167130D02*
X156590Y1170050D01*
Y1182370D01*
X130810Y541020D02*
X135030Y545240D01*
Y559390D01*
X141530Y536650D02*
Y559390D01*
X148030Y545390D02*
X153670Y539750D01*
X148030Y545390D02*
Y559390D01*
X140110Y681580D02*
Y713060D01*
X146610Y690320D02*
X156210Y680720D01*
X146610Y690320D02*
Y713060D01*
X153110Y699060D02*
X160020Y692150D01*
X153110Y699060D02*
Y713060D01*
X138840Y839060D02*
X144780Y833120D01*
X138840Y839060D02*
Y871810D01*
X145340Y849070D02*
X152400Y842010D01*
X145340Y849070D02*
Y871810D01*
X151840Y859080D02*
X160020Y850900D01*
X151840Y859080D02*
Y871810D01*
X135030Y999080D02*
X140970Y993140D01*
X135030Y999080D02*
Y1026750D01*
X141530Y1006550D02*
X147320Y1000760D01*
X141530Y1006550D02*
Y1026750D01*
X148030Y1014020D02*
X156210Y1005840D01*
X148030Y1014020D02*
Y1026750D01*
X625990Y733940D02*
X651590D01*
X568960Y676910D02*
X625990Y733940D01*
X621540Y1233930D02*
X647780D01*
X568960Y1286510D02*
X621540Y1233930D01*
X568960Y1083310D02*
X591820Y1060450D01*
X650320D01*
X568960Y880110D02*
X587500Y898650D01*
X651590D01*
X416560Y880110D02*
X491490Y805180D01*
X715010D01*
X529590Y970280D02*
X715010D01*
X416560Y1083310D02*
X529590Y970280D01*
X661590Y733440D02*
X667644Y727386D01*
X697896D01*
X715010Y710272D01*
Y665480D02*
Y710272D01*
X661590Y898150D02*
X667644Y892096D01*
X697896D02*
X715010Y874982D01*
Y830580D02*
Y874982D01*
X667644Y892096D02*
X697896D01*
X660320Y1059950D02*
X666374Y1053896D01*
X696626D01*
X715010Y1035512D01*
Y995680D02*
Y1035512D01*
X688032Y1233430D02*
X715010Y1206452D01*
X657780Y1233430D02*
X688032D01*
X715010Y1160780D02*
Y1206452D01*
X567690Y1135380D02*
X715010D01*
X416560Y1286510D02*
X567690Y1135380D01*
X176530Y1266190D02*
X185420Y1275080D01*
X176530Y1248410D02*
Y1266190D01*
Y1248410D02*
X185420Y1239520D01*
X276007Y1259840D02*
X277495Y1258352D01*
Y1246505D02*
Y1258352D01*
X262160Y1259840D02*
X276007D01*
X258350Y1263650D02*
X262160Y1259840D01*
X186451Y1275080D02*
X187721Y1276350D01*
X202350D01*
X185420Y1275080D02*
X186451D01*
X185420Y1239520D02*
X270510D01*
X277495Y1246505D01*
X186690Y1250950D02*
X202350D01*
X254850Y1263650D02*
X258350D01*
X254850Y1250950D02*
X270510D01*
X254890Y1276310D02*
X284440D01*
X254850Y1276350D02*
X254890Y1276310D01*
X284440D02*
X284480Y1276270D01*
X303965Y1276005D02*
X304230Y1275740D01*
X284745Y1276005D02*
X303965D01*
X284480Y1276270D02*
X284745Y1276005D01*
X306070Y1256030D02*
X318390D01*
X334390D02*
X345440D01*
X328230Y1262440D02*
X334390Y1256280D01*
X328230Y1262440D02*
Y1275740D01*
X334390Y1256030D02*
Y1256280D01*
X328230Y1294740D02*
X328560Y1295070D01*
X346380D01*
X346710Y1295400D01*
X328230Y1285240D02*
X346710D01*
X285750Y1300480D02*
X291490Y1294740D01*
X304230D01*
X284480Y1289050D02*
X288290Y1285240D01*
X304230D01*
X254850Y1289050D02*
Y1302600D01*
X186690Y1263650D02*
X202350D01*
X661670Y570820D02*
X666956Y565534D01*
X681784D02*
X687070Y570820D01*
X661670D02*
Y576320D01*
X666956Y565534D02*
X681784D01*
X687070Y570820D02*
Y576320D01*
X648970D02*
X661670D01*
X648335Y462835D02*
Y479685D01*
X648970Y480320D01*
X673990Y439420D02*
Y458470D01*
X674370Y458850D01*
Y480320D01*
X691260Y599440D02*
X704850D01*
X691260Y618490D02*
X703580D01*
X675260D02*
Y632840D01*
Y599440D02*
Y618490D01*
X674370Y598550D02*
X675260Y599440D01*
X674370Y576320D02*
Y598550D01*
X687070Y576320D02*
X705860D01*
X661670D02*
Y593090D01*
X185720Y741300D02*
X200580D01*
X186990Y757300D02*
X200580D01*
X262810Y871300D02*
X262850Y871260D01*
X225980Y871220D02*
X238760D01*
X262770Y871260D02*
X262810Y871300D01*
X248800Y871260D02*
X262770D01*
X248760Y871220D02*
X248800Y871260D01*
X355520Y863873D02*
Y886460D01*
X352170Y860523D02*
X355520Y863873D01*
X336470Y905510D02*
X355520Y886460D01*
X352170Y859670D02*
Y860523D01*
X350940Y858440D02*
X352170Y859670D01*
X350400Y858480D02*
X350440Y858440D01*
X350940D01*
X262810Y891540D02*
X276780Y905510D01*
X336470D01*
X262810Y881300D02*
Y891540D01*
X263041Y856291D02*
X264635Y857885D01*
X263041Y852401D02*
Y856291D01*
X251380Y840740D02*
X263041Y852401D01*
X251380Y825420D02*
Y840740D01*
X281010Y883920D02*
Y897040D01*
X262850Y871260D02*
X280970D01*
X281010Y871220D01*
X280375Y857885D02*
X281010Y858520D01*
X264635Y857885D02*
X280375D01*
X270950Y845820D02*
X281010D01*
X267140Y842010D02*
X270950Y845820D01*
X266620Y842010D02*
X267140D01*
X333510Y883920D02*
Y897040D01*
Y871220D02*
X346630D01*
X333550Y858480D02*
X350400D01*
X333510Y858520D02*
X333550Y858480D01*
X320810Y777660D02*
Y789940D01*
X350440Y831850D02*
Y848440D01*
X334218Y815628D02*
X350440Y831850D01*
X321098Y815628D02*
X334218D01*
X320810Y815340D02*
X321098Y815628D01*
X320810Y828040D02*
X335200D01*
X268310Y776390D02*
Y789940D01*
X255190Y802640D02*
X268310D01*
X268270Y815380D02*
X268310Y815340D01*
X251420Y815380D02*
X268270D01*
X182380Y792900D02*
X196770D01*
X234870D02*
X247150D01*
X196770Y845400D02*
Y858520D01*
X209470Y845400D02*
Y858520D01*
X230520Y857250D02*
X254000D01*
X213280Y866140D02*
X220690Y858730D01*
X222170Y848900D02*
X230520Y857250D01*
X222170Y845400D02*
Y848900D01*
X220690Y846880D02*
Y858730D01*
Y846880D02*
X222170Y845400D01*
X191690Y866140D02*
X213280D01*
X209470Y789400D02*
Y792900D01*
X173910Y848360D02*
X191690Y866140D01*
X173910Y789940D02*
Y848360D01*
X202390Y782320D02*
X209470Y789400D01*
X173910Y789940D02*
X181530Y782320D01*
X202390D01*
X221865Y792595D02*
X222170Y792900D01*
X221865Y770495D02*
Y792595D01*
X221560Y770190D02*
X221865Y770495D01*
X220860Y770890D02*
X221560Y770190D01*
X203040Y770890D02*
X220860D01*
X250110Y781050D02*
X253920Y784860D01*
X232548Y781050D02*
X250110D01*
X231060Y779562D02*
X232548Y781050D01*
X231060Y770190D02*
Y779562D01*
X249540Y770190D02*
X257730Y762000D01*
X240560Y770190D02*
X249540D01*
X240560Y746190D02*
X258300D01*
X231060Y728980D02*
Y746190D01*
X221560Y743530D02*
Y746190D01*
X219330Y741300D02*
X221560Y743530D01*
X200580Y741300D02*
X219330D01*
X185190Y900750D02*
X200050D01*
X186460Y916750D02*
X200050D01*
X262280Y1030750D02*
X262320Y1030710D01*
X225450Y1030670D02*
X238230D01*
X262240Y1030710D02*
X262280Y1030750D01*
X248270Y1030710D02*
X262240D01*
X248230Y1030670D02*
X248270Y1030710D01*
X354990Y1023323D02*
Y1045910D01*
X351640Y1019973D02*
X354990Y1023323D01*
X335940Y1064960D02*
X354990Y1045910D01*
X351640Y1019120D02*
Y1019973D01*
X350410Y1017890D02*
X351640Y1019120D01*
X349870Y1017930D02*
X349910Y1017890D01*
X350410D01*
X262280Y1050990D02*
X276250Y1064960D01*
X335940D01*
X262280Y1040750D02*
Y1050990D01*
X262511Y1015741D02*
X264105Y1017335D01*
X262511Y1011851D02*
Y1015741D01*
X250850Y1000190D02*
X262511Y1011851D01*
X250850Y984870D02*
Y1000190D01*
X280480Y1043370D02*
Y1056490D01*
X262320Y1030710D02*
X280440D01*
X280480Y1030670D01*
X279845Y1017335D02*
X280480Y1017970D01*
X264105Y1017335D02*
X279845D01*
X270420Y1005270D02*
X280480D01*
X266090Y1001460D02*
X266610D01*
X270420Y1005270D01*
X332980Y1043370D02*
Y1056490D01*
Y1030670D02*
X346100D01*
X333020Y1017930D02*
X349870D01*
X332980Y1017970D02*
X333020Y1017930D01*
X320280Y937110D02*
Y949390D01*
X349910Y991300D02*
Y1007890D01*
X333688Y975078D02*
X349910Y991300D01*
X320568Y975078D02*
X333688D01*
X320280Y974790D02*
X320568Y975078D01*
X320280Y987490D02*
X334670D01*
X267780Y935840D02*
Y949390D01*
X254660Y962090D02*
X267780D01*
X267740Y974830D02*
X267780Y974790D01*
X250890Y974830D02*
X267740D01*
X250850Y974870D02*
X250890Y974830D01*
X181850Y952350D02*
X196240D01*
X234340D02*
X246620D01*
X196240Y1004850D02*
Y1017970D01*
X208940Y1004850D02*
Y1017970D01*
X229990Y1016700D02*
X253470D01*
X212750Y1025590D02*
X220160Y1018180D01*
X221640Y1008350D02*
X229990Y1016700D01*
X221640Y1004850D02*
Y1008350D01*
X220160Y1006330D02*
Y1018180D01*
Y1006330D02*
X221640Y1004850D01*
X191160Y1025590D02*
X212750D01*
X208940Y948850D02*
Y952350D01*
X173380Y1007810D02*
X191160Y1025590D01*
X173380Y949390D02*
Y1007810D01*
X201860Y941770D02*
X208940Y948850D01*
X173380Y949390D02*
X181000Y941770D01*
X201860D01*
X221335Y952045D02*
X221640Y952350D01*
X221335Y929945D02*
Y952045D01*
X221030Y929640D02*
X221335Y929945D01*
X220330Y930340D02*
X221030Y929640D01*
X202510Y930340D02*
X220330D01*
X249580Y940500D02*
X253390Y944310D01*
X232018Y940500D02*
X249580D01*
X230530Y939012D02*
X232018Y940500D01*
X230530Y929640D02*
Y939012D01*
X249010Y929640D02*
X257200Y921450D01*
X240030Y929640D02*
X249010D01*
X240030Y905640D02*
X257770D01*
X230530Y888430D02*
Y905640D01*
X221030Y902980D02*
Y905640D01*
X218800Y900750D02*
X221030Y902980D01*
X200050Y900750D02*
X218800D01*
X680450Y718810D02*
X681990Y720350D01*
X696850D01*
X681990Y692030D02*
Y704350D01*
X668910Y654820D02*
Y667900D01*
X684910Y654310D02*
Y667900D01*
X659840Y731690D02*
X661590Y733440D01*
X666340Y718810D02*
X680450D01*
X659840D02*
Y731690D01*
X652325Y727130D02*
X653340Y726115D01*
Y718810D02*
Y726115D01*
X651590Y733940D02*
X652325Y733205D01*
Y727130D02*
Y733205D01*
X633840Y718810D02*
X646840D01*
X666340Y670470D02*
X668910Y667900D01*
X666340Y670470D02*
Y685810D01*
X659840Y672420D02*
Y685810D01*
X655320Y667900D02*
X659840Y672420D01*
X642620Y669170D02*
X653340Y679890D01*
Y685810D01*
X633860D02*
X646840D01*
X635000Y709810D02*
X656590D01*
X633730Y708540D02*
X635000Y709810D01*
X638300Y693810D02*
X656590D01*
X633730Y698380D02*
X638300Y693810D01*
X681990Y885060D02*
X696850D01*
X681990Y856740D02*
Y869060D01*
X668910Y819530D02*
Y832610D01*
X684910Y819020D02*
Y832610D01*
X659840Y896400D02*
X661590Y898150D01*
X680450Y883520D02*
X681990Y885060D01*
X666340Y883520D02*
X680450D01*
X659840D02*
Y896400D01*
X653340Y883520D02*
Y890825D01*
X652325Y891840D02*
X653340Y890825D01*
X652325Y891840D02*
Y897915D01*
X651590Y898650D02*
X652325Y897915D01*
X633840Y883520D02*
X646840D01*
X666340Y835180D02*
X668910Y832610D01*
X666340Y835180D02*
Y850520D01*
X659840Y837130D02*
Y850520D01*
X655320Y832610D02*
X659840Y837130D01*
X642620Y833880D02*
X653340Y844600D01*
Y850520D01*
X633860D02*
X646840D01*
X635000Y874520D02*
X656590D01*
X633730Y873250D02*
X635000Y874520D01*
X638300Y858520D02*
X656590D01*
X633730Y863090D02*
X638300Y858520D01*
X679180Y1045320D02*
X680720Y1046860D01*
X695580D01*
X680720Y1018540D02*
Y1030860D01*
X667640Y981330D02*
Y994410D01*
X683640Y980820D02*
Y994410D01*
X658570Y1058200D02*
X660320Y1059950D01*
X665070Y1045320D02*
X679180D01*
X658570D02*
Y1058200D01*
X651055Y1053640D02*
X652070Y1052625D01*
Y1045320D02*
Y1052625D01*
X651055Y1053640D02*
Y1059715D01*
X650320Y1060450D02*
X651055Y1059715D01*
X632570Y1045320D02*
X645570D01*
X665070Y996980D02*
Y1012320D01*
Y996980D02*
X667640Y994410D01*
X658570Y998930D02*
Y1012320D01*
X654050Y994410D02*
X658570Y998930D01*
X641350Y995680D02*
X652070Y1006400D01*
Y1012320D01*
X632590D02*
X645570D01*
X633730Y1036320D02*
X655320D01*
X632460Y1035050D02*
X633730Y1036320D01*
X637030Y1020320D02*
X655320D01*
X632460Y1024890D02*
X637030Y1020320D01*
X681100Y1154300D02*
Y1167890D01*
X638810Y1169160D02*
X649530Y1179880D01*
Y1185800D01*
X651510Y1167890D02*
X656030Y1172410D01*
Y1185800D01*
X629920Y1198370D02*
X634490Y1193800D01*
X652780D01*
X629920Y1208530D02*
X631190Y1209800D01*
X652780D01*
X678180Y1192020D02*
Y1204340D01*
Y1220340D02*
X693040D01*
X676640Y1218800D02*
X678180Y1220340D01*
X662530Y1218800D02*
X676640D01*
X665100Y1154810D02*
Y1167890D01*
X662530Y1170460D02*
Y1185800D01*
Y1170460D02*
X665100Y1167890D01*
X630050Y1185800D02*
X643030D01*
X630030Y1218800D02*
X643030D01*
X648515Y1227120D02*
Y1233195D01*
Y1227120D02*
X649530Y1226105D01*
Y1218800D02*
Y1226105D01*
X647780Y1233930D02*
X648515Y1233195D01*
X656030Y1231680D02*
X657780Y1233430D01*
X656030Y1218800D02*
Y1231680D01*
X124380Y655910D02*
Y667420D01*
X102870Y705440D02*
Y716790D01*
X112870Y705440D02*
X124380D01*
X102870Y690970D02*
Y691470D01*
Y705440D01*
X112870Y691470D02*
X124380D01*
X80010Y705440D02*
Y716790D01*
X69180Y626020D02*
X85170D01*
X90082Y625932D02*
X90170Y626020D01*
X82470Y603840D02*
X90082Y611452D01*
Y625932D01*
X93900Y600030D02*
Y601061D01*
X95170Y602331D01*
Y626020D01*
X104060Y605110D02*
Y606141D01*
X100170Y610031D02*
X104060Y606141D01*
X100170Y610031D02*
Y626020D01*
X85170Y668020D02*
Y681150D01*
X74850Y691470D02*
X85170Y681150D01*
X86280Y692740D02*
X90170Y688850D01*
Y668020D02*
Y688850D01*
X95170Y668020D02*
Y699780D01*
X90010Y704940D02*
X95170Y699780D01*
X90010Y704940D02*
Y705440D01*
X100170Y668020D02*
Y688270D01*
X102870Y690970D01*
X105382Y675250D02*
X112252D01*
X114422Y677420D01*
X105170Y668020D02*
Y675038D01*
X105382Y675250D01*
X114422Y677420D02*
X124380D01*
X122080Y815930D02*
Y827440D01*
X100570Y865460D02*
Y876810D01*
X110570Y865460D02*
X122080D01*
X100570Y850990D02*
Y851490D01*
Y865460D01*
X110570Y851490D02*
X122080D01*
X77710Y865460D02*
Y876810D01*
X66880Y786040D02*
X82870D01*
X87782Y785952D02*
X87870Y786040D01*
X87782Y771472D02*
Y785952D01*
X80170Y763860D02*
X87782Y771472D01*
X91600Y760050D02*
Y761081D01*
X92870Y762351D01*
Y786040D01*
X101760Y765130D02*
Y766161D01*
X97870Y770051D02*
X101760Y766161D01*
X97870Y770051D02*
Y786040D01*
X82870Y828040D02*
Y841170D01*
X72550Y851490D02*
X82870Y841170D01*
X83980Y852760D02*
X87870Y848870D01*
Y828040D02*
Y848870D01*
X92870Y828040D02*
Y859800D01*
X87710Y864960D02*
X92870Y859800D01*
X87710Y864960D02*
Y865460D01*
X97870Y848290D02*
X100570Y850990D01*
X97870Y828040D02*
Y848290D01*
X103083Y835270D02*
X109952D01*
X112122Y837440D01*
X102870Y828040D02*
Y835058D01*
X103083Y835270D01*
X112122Y837440D02*
X122080D01*
X120650Y971550D02*
Y983060D01*
X99140Y1021080D02*
Y1032430D01*
X109140Y1021080D02*
X120650D01*
X99140Y1006610D02*
Y1007110D01*
Y1021080D01*
X109140Y1007110D02*
X120650D01*
X76280Y1021080D02*
Y1032430D01*
X65450Y941660D02*
X81440D01*
X86352Y927092D02*
Y941572D01*
X86440Y941660D01*
X78740Y919480D02*
X86352Y927092D01*
X90170Y915670D02*
Y916701D01*
X91440Y917971D01*
Y941660D01*
X100330Y920750D02*
Y921781D01*
X96440Y925671D02*
X100330Y921781D01*
X96440Y925671D02*
Y941660D01*
X81440Y983660D02*
Y996790D01*
X71120Y1007110D02*
X81440Y996790D01*
X86440Y983660D02*
Y1004490D01*
X82550Y1008380D02*
X86440Y1004490D01*
X91440Y983660D02*
Y1015420D01*
X86280Y1020580D02*
X91440Y1015420D01*
X86280Y1020580D02*
Y1021080D01*
X96440Y983660D02*
Y1003910D01*
X99140Y1006610D01*
X101652Y990890D02*
X108522D01*
X110692Y993060D01*
X101440Y983660D02*
Y990677D01*
X101652Y990890D01*
X110692Y993060D02*
X120650D01*
X86360Y1076960D02*
X93972Y1084572D01*
Y1099052D02*
X94060Y1099140D01*
X93972Y1084572D02*
Y1099052D01*
X99060Y1075451D02*
Y1099140D01*
X97790Y1073150D02*
Y1074181D01*
X99060Y1075451D01*
X104060Y1083151D02*
Y1099140D01*
Y1083151D02*
X107950Y1079261D01*
Y1078230D02*
Y1079261D01*
X73070Y1099140D02*
X89060D01*
X78740Y1164590D02*
X89060Y1154270D01*
Y1141140D02*
Y1154270D01*
X116760Y1178560D02*
X128270D01*
X116760Y1164590D02*
X128270D01*
X118312Y1150540D02*
X128270D01*
Y1129030D02*
Y1140540D01*
X93900Y1178060D02*
Y1178560D01*
Y1178060D02*
X99060Y1172900D01*
Y1141140D02*
Y1172900D01*
X94060Y1141140D02*
Y1161970D01*
X90170Y1165860D02*
X94060Y1161970D01*
X109060Y1148158D02*
X109272Y1148370D01*
X104060Y1141140D02*
Y1161390D01*
X116142Y1148370D02*
X118312Y1150540D01*
X109060Y1141140D02*
Y1148158D01*
X109272Y1148370D02*
X116142D01*
X104060Y1161390D02*
X106760Y1164090D01*
Y1164590D01*
Y1178560D01*
X83900D02*
Y1189910D01*
X106760Y1178560D02*
Y1189910D01*
X138430Y618490D02*
X141530Y615390D01*
X142240Y930910D02*
X145340Y927810D01*
X143510Y772160D02*
X146610Y769060D01*
X171450Y568880D02*
Y580390D01*
X141530Y601390D02*
Y615390D01*
X121240Y601390D02*
X135030D01*
X155040Y558880D02*
X171450D01*
X154530Y559390D02*
X155040Y558880D01*
X176530Y722550D02*
Y734060D01*
X146610Y755060D02*
Y769060D01*
X126320Y755060D02*
X140110D01*
X160120Y712550D02*
X176530D01*
X159610Y713060D02*
X160120Y712550D01*
X175260Y881300D02*
Y892810D01*
X145340Y913810D02*
Y927810D01*
X125050Y913810D02*
X138840D01*
X158850Y871300D02*
X175260D01*
X158340Y871810D02*
X158850Y871300D01*
X138430Y1085850D02*
X141530Y1082750D01*
Y1068750D02*
Y1082750D01*
X121240Y1068750D02*
X135030D01*
X171450Y1036240D02*
Y1047750D01*
X155040Y1026240D02*
X171450D01*
X154530Y1026750D02*
X155040Y1026240D01*
D86*
X779780Y514350D02*
D03*
Y488950D02*
D03*
Y463550D02*
D03*
X830580Y514350D02*
D03*
Y463550D02*
D03*
X204940Y248920D02*
D03*
X154940D02*
D03*
X311620D02*
D03*
X261620D02*
D03*
D87*
X568960Y676910D02*
D03*
Y549910D02*
D03*
X492760Y676910D02*
D03*
Y549910D02*
D03*
X416560Y676910D02*
D03*
Y549910D02*
D03*
X568960Y880110D02*
D03*
Y753110D02*
D03*
X492760Y880110D02*
D03*
Y753110D02*
D03*
X416560Y880110D02*
D03*
Y753110D02*
D03*
X568960Y1083310D02*
D03*
Y956310D02*
D03*
X492760Y1083310D02*
D03*
Y956310D02*
D03*
X416560Y1083310D02*
D03*
Y956310D02*
D03*
X568960Y1286510D02*
D03*
Y1159510D02*
D03*
X492760Y1286510D02*
D03*
Y1159510D02*
D03*
X416560Y1286510D02*
D03*
Y1159510D02*
D03*
X715010Y1160780D02*
D03*
Y1135380D02*
D03*
Y665480D02*
D03*
Y640080D02*
D03*
Y995680D02*
D03*
Y970280D02*
D03*
Y830580D02*
D03*
Y805180D02*
D03*
D88*
X662940Y67310D02*
D03*
D89*
X624840Y168910D02*
D03*
X650240D02*
D03*
X675640D02*
D03*
X701040D02*
D03*
D90*
X398780Y166370D02*
D03*
D91*
X424180D02*
D03*
D92*
X151130Y481340D02*
D03*
Y434340D02*
D03*
Y387340D02*
D03*
X24130Y408940D02*
D03*
Y459740D02*
D03*
D93*
X857250Y405130D02*
D03*
X831850D02*
D03*
X806450D02*
D03*
X781050D02*
D03*
X755650D02*
D03*
X730250D02*
D03*
X704850D02*
D03*
X679450D02*
D03*
X654050D02*
D03*
X628650D02*
D03*
X603250D02*
D03*
X577850D02*
D03*
X552450D02*
D03*
X527050D02*
D03*
X501650D02*
D03*
X476250D02*
D03*
X450850D02*
D03*
X425450D02*
D03*
X400050D02*
D03*
X374650D02*
D03*
X857250Y227330D02*
D03*
X831850D02*
D03*
X806450D02*
D03*
X781050D02*
D03*
X755650D02*
D03*
X730250D02*
D03*
X704850D02*
D03*
X679450D02*
D03*
X654050D02*
D03*
X628650D02*
D03*
X603250D02*
D03*
X577850D02*
D03*
X552450D02*
D03*
X527050D02*
D03*
X501650D02*
D03*
X476250D02*
D03*
X450850D02*
D03*
X425450D02*
D03*
X400050D02*
D03*
X374650D02*
D03*
D94*
X824230Y67310D02*
D03*
X72390Y72390D02*
D03*
Y1270000D02*
D03*
X824230D02*
D03*
D95*
X765810Y1186180D02*
D03*
Y1084580D02*
D03*
Y690880D02*
D03*
Y589280D02*
D03*
Y1021080D02*
D03*
Y919480D02*
D03*
Y855980D02*
D03*
Y754380D02*
D03*
D96*
X183260Y580010D02*
D03*
X184530Y596010D02*
D03*
X223520Y709930D02*
D03*
X278550Y735750D02*
D03*
X264160Y680720D02*
D03*
X331050Y735750D02*
D03*
X344170Y709930D02*
D03*
X318350Y616370D02*
D03*
X332740Y666750D02*
D03*
X265850Y615100D02*
D03*
X252730Y641350D02*
D03*
X179920Y631610D02*
D03*
X244690D02*
D03*
X194310Y697230D02*
D03*
X207010D02*
D03*
X251460Y623570D02*
D03*
X255270Y600710D02*
D03*
X255840Y584900D02*
D03*
X228600Y567690D02*
D03*
X687070Y497840D02*
D03*
X372110Y450850D02*
D03*
X385320Y464060D02*
D03*
X356870Y509270D02*
D03*
X284480Y477520D02*
D03*
X318770D02*
D03*
X246380Y501650D02*
D03*
X235030Y514430D02*
D03*
X260350Y527050D02*
D03*
X347980Y534670D02*
D03*
X323850Y539750D02*
D03*
X661670Y439420D02*
D03*
X660400Y461010D02*
D03*
X647700Y439420D02*
D03*
X648970Y593090D02*
D03*
X699135Y439420D02*
D03*
Y458470D02*
D03*
X330200Y457200D02*
D03*
X216790Y1189100D02*
D03*
X244730Y1102740D02*
D03*
X248540Y1079880D02*
D03*
X249110Y1064070D02*
D03*
X177800Y1075180D02*
D03*
X176530Y1059180D02*
D03*
X221870Y1046860D02*
D03*
X173190Y1110780D02*
D03*
X187580Y1176400D02*
D03*
X200280D02*
D03*
X237960Y1110780D02*
D03*
X257430Y1159890D02*
D03*
X246000Y1120520D02*
D03*
X259120Y1094270D02*
D03*
X311620Y1095540D02*
D03*
X326010Y1145920D02*
D03*
X337440Y1189100D02*
D03*
X324320Y1214920D02*
D03*
X271820Y1214920D02*
D03*
X201930Y568960D02*
D03*
X196930Y712550D02*
D03*
X198120Y876300D02*
D03*
X201930Y1033780D02*
D03*
X203200Y1192530D02*
D03*
X149860Y671830D02*
D03*
X181610Y91440D02*
D03*
X728980Y109220D02*
D03*
X485060Y54690D02*
D03*
X835660Y146050D02*
D03*
X731520Y173990D02*
D03*
X595630Y105410D02*
D03*
X553065Y120035D02*
D03*
X596900Y80010D02*
D03*
X168910Y1184910D02*
D03*
X133350Y1196340D02*
D03*
X153670Y1167130D02*
D03*
X130810Y541020D02*
D03*
X141530Y536650D02*
D03*
X153670Y539750D02*
D03*
X156210Y680720D02*
D03*
X160020Y692150D02*
D03*
X144780Y833120D02*
D03*
X152400Y842010D02*
D03*
X160020Y850900D02*
D03*
X140970Y993140D02*
D03*
X147320Y1000760D02*
D03*
X156210Y1005840D02*
D03*
X185420Y1275080D02*
D03*
X186690Y1250950D02*
D03*
X270510D02*
D03*
X306070Y1256030D02*
D03*
X345440D02*
D03*
X346710Y1295400D02*
D03*
Y1285240D02*
D03*
X285750Y1300480D02*
D03*
X284480Y1289050D02*
D03*
X254850Y1302600D02*
D03*
X186690Y1263650D02*
D03*
X704850Y599440D02*
D03*
X703580Y618490D02*
D03*
X675260Y632840D02*
D03*
X705860Y576320D02*
D03*
X661670Y593090D02*
D03*
X185720Y741300D02*
D03*
X186990Y757300D02*
D03*
X225980Y871220D02*
D03*
X281010Y897040D02*
D03*
X266620Y842010D02*
D03*
X333510Y897040D02*
D03*
X346630Y871220D02*
D03*
X320810Y777660D02*
D03*
X335200Y828040D02*
D03*
X268310Y776390D02*
D03*
X255190Y802640D02*
D03*
X182380Y792900D02*
D03*
X247150D02*
D03*
X196770Y858520D02*
D03*
X209470D02*
D03*
X253920Y784860D02*
D03*
X257730Y762000D02*
D03*
X258300Y746190D02*
D03*
X231060Y728980D02*
D03*
X185190Y900750D02*
D03*
X186460Y916750D02*
D03*
X225450Y1030670D02*
D03*
X280480Y1056490D02*
D03*
X266090Y1001460D02*
D03*
X332980Y1056490D02*
D03*
X346100Y1030670D02*
D03*
X320280Y937110D02*
D03*
X334670Y987490D02*
D03*
X267780Y935840D02*
D03*
X254660Y962090D02*
D03*
X181850Y952350D02*
D03*
X246620D02*
D03*
X196240Y1017970D02*
D03*
X208940D02*
D03*
X253390Y944310D02*
D03*
X257200Y921450D02*
D03*
X257770Y905640D02*
D03*
X230530Y888430D02*
D03*
X696850Y720350D02*
D03*
X681990Y692030D02*
D03*
X668910Y654820D02*
D03*
X684910Y654310D02*
D03*
X633840Y718810D02*
D03*
X655320Y667900D02*
D03*
X642620Y669170D02*
D03*
X633860Y685810D02*
D03*
X633730Y708540D02*
D03*
Y698380D02*
D03*
X696850Y885060D02*
D03*
X681990Y856740D02*
D03*
X668910Y819530D02*
D03*
X684910Y819020D02*
D03*
X633840Y883520D02*
D03*
X655320Y832610D02*
D03*
X642620Y833880D02*
D03*
X633860Y850520D02*
D03*
X633730Y873250D02*
D03*
Y863090D02*
D03*
X695580Y1046860D02*
D03*
X680720Y1018540D02*
D03*
X667640Y981330D02*
D03*
X683640Y980820D02*
D03*
X632570Y1045320D02*
D03*
X654050Y994410D02*
D03*
X641350Y995680D02*
D03*
X632590Y1012320D02*
D03*
X632460Y1035050D02*
D03*
Y1024890D02*
D03*
X681100Y1154300D02*
D03*
X638810Y1169160D02*
D03*
X651510Y1167890D02*
D03*
X629920Y1198370D02*
D03*
Y1208530D02*
D03*
X678180Y1192020D02*
D03*
X693040Y1220340D02*
D03*
X665100Y1154810D02*
D03*
X630050Y1185800D02*
D03*
X630030Y1218800D02*
D03*
X124380Y655910D02*
D03*
X102870Y716790D02*
D03*
X124380Y705440D02*
D03*
Y691470D02*
D03*
X80010Y716790D02*
D03*
X69180Y626020D02*
D03*
X82470Y603840D02*
D03*
X93900Y600030D02*
D03*
X104060Y605110D02*
D03*
X74850Y691470D02*
D03*
X86280Y692740D02*
D03*
X122080Y815930D02*
D03*
X100570Y876810D02*
D03*
X122080Y865460D02*
D03*
Y851490D02*
D03*
X77710Y876810D02*
D03*
X66880Y786040D02*
D03*
X80170Y763860D02*
D03*
X91600Y760050D02*
D03*
X101760Y765130D02*
D03*
X72550Y851490D02*
D03*
X83980Y852760D02*
D03*
X120650Y971550D02*
D03*
X99140Y1032430D02*
D03*
X120650Y1021080D02*
D03*
Y1007110D02*
D03*
X76280Y1032430D02*
D03*
X65450Y941660D02*
D03*
X78740Y919480D02*
D03*
X90170Y915670D02*
D03*
X100330Y920750D02*
D03*
X71120Y1007110D02*
D03*
X82550Y1008380D02*
D03*
X86360Y1076960D02*
D03*
X97790Y1073150D02*
D03*
X107950Y1078230D02*
D03*
X73070Y1099140D02*
D03*
X78740Y1164590D02*
D03*
X128270Y1178560D02*
D03*
X106760Y1189910D02*
D03*
X83900Y1189910D02*
D03*
X90170Y1165860D02*
D03*
X128270Y1164590D02*
D03*
Y1129030D02*
D03*
X138430Y618490D02*
D03*
X121240Y601390D02*
D03*
X142240Y930910D02*
D03*
X143510Y772160D02*
D03*
X126320Y755060D02*
D03*
X125050Y913810D02*
D03*
X171450Y580390D02*
D03*
X176530Y734060D02*
D03*
X175260Y892810D02*
D03*
X138430Y1085850D02*
D03*
X121240Y1068750D02*
D03*
X171450Y1047750D02*
D03*
D97*
X193860Y664360D02*
D03*
Y651360D02*
D03*
X232860Y664360D02*
D03*
Y651360D02*
D03*
X219860Y664360D02*
D03*
Y651360D02*
D03*
X206860Y664360D02*
D03*
Y651360D02*
D03*
X285600Y628200D02*
D03*
X298600D02*
D03*
X285600Y667200D02*
D03*
X298600D02*
D03*
X285600Y654200D02*
D03*
X298600D02*
D03*
X285600Y641200D02*
D03*
X298600D02*
D03*
X311300Y723080D02*
D03*
X298300D02*
D03*
X311300Y684080D02*
D03*
X298300D02*
D03*
X311300Y697080D02*
D03*
X298300D02*
D03*
X311300Y710080D02*
D03*
X298300D02*
D03*
X187130Y1143530D02*
D03*
Y1130530D02*
D03*
X226130Y1143530D02*
D03*
Y1130530D02*
D03*
X213130Y1143530D02*
D03*
Y1130530D02*
D03*
X200130Y1143530D02*
D03*
Y1130530D02*
D03*
X278870Y1107370D02*
D03*
X291870D02*
D03*
X278870Y1146370D02*
D03*
X291870D02*
D03*
X278870Y1133370D02*
D03*
X291870D02*
D03*
X278870Y1120370D02*
D03*
X291870D02*
D03*
X304570Y1202250D02*
D03*
X291570D02*
D03*
X304570Y1163250D02*
D03*
X291570D02*
D03*
X304570Y1176250D02*
D03*
X291570D02*
D03*
X304570Y1189250D02*
D03*
X291570D02*
D03*
X181610Y495300D02*
D03*
X168910Y496570D02*
D03*
X181610Y466090D02*
D03*
X168910Y467360D02*
D03*
X176530Y506730D02*
D03*
X166370Y509270D02*
D03*
X185420Y518160D02*
D03*
X173990Y519430D02*
D03*
X438512Y565540D02*
D03*
X456114Y546266D02*
D03*
X453574Y534836D02*
D03*
X457384Y515786D02*
D03*
X418014Y500546D02*
D03*
X400234Y508166D02*
D03*
X414204Y514516D02*
D03*
X421824Y529756D02*
D03*
X407822Y527920D02*
D03*
X439604Y542456D02*
D03*
X435794Y510706D02*
D03*
X437064Y529756D02*
D03*
X335464Y564046D02*
D03*
X322764Y558966D02*
D03*
X324034Y574206D02*
D03*
X310064Y570396D02*
D03*
X307524Y556426D02*
D03*
X292100Y552450D02*
D03*
X298450Y574040D02*
D03*
X300760Y871370D02*
D03*
X313760D02*
D03*
X300760Y858370D02*
D03*
X313760D02*
D03*
X300760Y845370D02*
D03*
X313760D02*
D03*
X300760Y884370D02*
D03*
X313760D02*
D03*
X209320Y812650D02*
D03*
Y825650D02*
D03*
X222320Y812650D02*
D03*
Y825650D02*
D03*
X235320Y812650D02*
D03*
Y825650D02*
D03*
X196320Y812650D02*
D03*
Y825650D02*
D03*
X301060Y802490D02*
D03*
X288060D02*
D03*
X301060Y815490D02*
D03*
X288060D02*
D03*
X301060Y828490D02*
D03*
X288060D02*
D03*
X301060Y789490D02*
D03*
X288060D02*
D03*
X300230Y1030820D02*
D03*
X313230D02*
D03*
X300230Y1017820D02*
D03*
X313230D02*
D03*
X300230Y1004820D02*
D03*
X313230D02*
D03*
X300230Y1043820D02*
D03*
X313230D02*
D03*
X208790Y972100D02*
D03*
Y985100D02*
D03*
X221790Y972100D02*
D03*
Y985100D02*
D03*
X234790Y972100D02*
D03*
Y985100D02*
D03*
X195790Y972100D02*
D03*
Y985100D02*
D03*
X300530Y961940D02*
D03*
X287530D02*
D03*
X300530Y974940D02*
D03*
X287530D02*
D03*
X300530Y987940D02*
D03*
X287530D02*
D03*
X300530Y948940D02*
D03*
X287530D02*
D03*
X532550Y75360D02*
D03*
X521550D02*
D03*
X532550Y86360D02*
D03*
X521550D02*
D03*
X532550Y97360D02*
D03*
X521550D02*
D03*
X235100Y1263500D02*
D03*
X222100D02*
D03*
X235100Y1276500D02*
D03*
X222100D02*
D03*
X235100Y1289500D02*
D03*
X222100D02*
D03*
X235100Y1250500D02*
D03*
X222100D02*
D03*
D98*
X215900Y372110D02*
D03*
X256550Y372120D02*
D03*
X316230Y325120D02*
D03*
X147320D02*
D03*
X855980Y166370D02*
D03*
D99*
X510374Y166667D02*
D03*
X471170Y166370D02*
D03*
M02*
