G04*
G04 #@! TF.GenerationSoftware,Altium Limited,Altium Designer,22.9.1 (49)*
G04*
G04 Layer_Color=16711935*
%FSLAX44Y44*%
%MOMM*%
G71*
G04*
G04 #@! TF.SameCoordinates,4F58AA59-1FC8-4CD4-8C03-AE197A2B088C*
G04*
G04*
G04 #@! TF.FilePolarity,Negative*
G04*
G01*
G75*
%ADD68C,1.2500*%
%ADD69C,1.4500*%
%ADD70O,3.3499X3.3500*%
%ADD71C,1.9280*%
%ADD72R,1.6500X1.6500*%
%ADD73C,1.6500*%
%ADD74C,2.4500*%
%ADD75R,1.6580X1.6580*%
%ADD76C,7.6500*%
%ADD77C,2.6500*%
%ADD78C,0.7850*%
%ADD79C,0.6500*%
%ADD80C,1.4200*%
%ADD81C,2.0550*%
D68*
X779780Y514350D02*
D03*
Y488950D02*
D03*
Y463550D02*
D03*
X830580Y514350D02*
D03*
Y463550D02*
D03*
X204940Y248920D02*
D03*
X154940D02*
D03*
X311620D02*
D03*
X261620D02*
D03*
D69*
X568960Y676910D02*
D03*
Y549910D02*
D03*
X492760Y676910D02*
D03*
Y549910D02*
D03*
X416560Y676910D02*
D03*
Y549910D02*
D03*
X568960Y880110D02*
D03*
Y753110D02*
D03*
X492760Y880110D02*
D03*
Y753110D02*
D03*
X416560Y880110D02*
D03*
Y753110D02*
D03*
X568960Y1083310D02*
D03*
Y956310D02*
D03*
X492760Y1083310D02*
D03*
Y956310D02*
D03*
X416560Y1083310D02*
D03*
Y956310D02*
D03*
X568960Y1286510D02*
D03*
Y1159510D02*
D03*
X492760Y1286510D02*
D03*
Y1159510D02*
D03*
X416560Y1286510D02*
D03*
Y1159510D02*
D03*
X715010Y1160780D02*
D03*
Y1135380D02*
D03*
Y665480D02*
D03*
Y640080D02*
D03*
Y995680D02*
D03*
Y970280D02*
D03*
Y830580D02*
D03*
Y805180D02*
D03*
D70*
X662940Y67310D02*
D03*
D71*
X624840Y168910D02*
D03*
X650240D02*
D03*
X675640D02*
D03*
X701040D02*
D03*
D72*
X398780Y166370D02*
D03*
D73*
X424180D02*
D03*
D74*
X151130Y481340D02*
D03*
Y434340D02*
D03*
Y387340D02*
D03*
X24130Y408940D02*
D03*
Y459740D02*
D03*
D75*
X857250Y405130D02*
D03*
X831850D02*
D03*
X806450D02*
D03*
X781050D02*
D03*
X755650D02*
D03*
X730250D02*
D03*
X704850D02*
D03*
X679450D02*
D03*
X654050D02*
D03*
X628650D02*
D03*
X603250D02*
D03*
X577850D02*
D03*
X552450D02*
D03*
X527050D02*
D03*
X501650D02*
D03*
X476250D02*
D03*
X450850D02*
D03*
X425450D02*
D03*
X400050D02*
D03*
X374650D02*
D03*
X857250Y227330D02*
D03*
X831850D02*
D03*
X806450D02*
D03*
X781050D02*
D03*
X755650D02*
D03*
X730250D02*
D03*
X704850D02*
D03*
X679450D02*
D03*
X654050D02*
D03*
X628650D02*
D03*
X603250D02*
D03*
X577850D02*
D03*
X552450D02*
D03*
X527050D02*
D03*
X501650D02*
D03*
X476250D02*
D03*
X450850D02*
D03*
X425450D02*
D03*
X400050D02*
D03*
X374650D02*
D03*
D76*
X824230Y67310D02*
D03*
X72390Y72390D02*
D03*
Y1270000D02*
D03*
X824230D02*
D03*
D77*
X765810Y1186180D02*
D03*
Y1084580D02*
D03*
Y690880D02*
D03*
Y589280D02*
D03*
Y1021080D02*
D03*
Y919480D02*
D03*
Y855980D02*
D03*
Y754380D02*
D03*
D78*
X183260Y580010D02*
D03*
X184530Y596010D02*
D03*
X223520Y709930D02*
D03*
X278550Y735750D02*
D03*
X264160Y680720D02*
D03*
X331050Y735750D02*
D03*
X344170Y709930D02*
D03*
X318350Y616370D02*
D03*
X332740Y666750D02*
D03*
X265850Y615100D02*
D03*
X252730Y641350D02*
D03*
X179920Y631610D02*
D03*
X244690D02*
D03*
X194310Y697230D02*
D03*
X207010D02*
D03*
X251460Y623570D02*
D03*
X255270Y600710D02*
D03*
X255840Y584900D02*
D03*
X228600Y567690D02*
D03*
X687070Y497840D02*
D03*
X372110Y450850D02*
D03*
X385320Y464060D02*
D03*
X356870Y509270D02*
D03*
X284480Y477520D02*
D03*
X318770D02*
D03*
X246380Y501650D02*
D03*
X235030Y514430D02*
D03*
X260350Y527050D02*
D03*
X347980Y534670D02*
D03*
X323850Y539750D02*
D03*
X661670Y439420D02*
D03*
X660400Y461010D02*
D03*
X647700Y439420D02*
D03*
X648970Y593090D02*
D03*
X699135Y439420D02*
D03*
Y458470D02*
D03*
X330200Y457200D02*
D03*
X216790Y1189100D02*
D03*
X244730Y1102740D02*
D03*
X248540Y1079880D02*
D03*
X249110Y1064070D02*
D03*
X177800Y1075180D02*
D03*
X176530Y1059180D02*
D03*
X221870Y1046860D02*
D03*
X173190Y1110780D02*
D03*
X187580Y1176400D02*
D03*
X200280D02*
D03*
X237960Y1110780D02*
D03*
X257430Y1159890D02*
D03*
X246000Y1120520D02*
D03*
X259120Y1094270D02*
D03*
X311620Y1095540D02*
D03*
X326010Y1145920D02*
D03*
X337440Y1189100D02*
D03*
X324320Y1214920D02*
D03*
X271820Y1214920D02*
D03*
X201930Y568960D02*
D03*
X196930Y712550D02*
D03*
X198120Y876300D02*
D03*
X201930Y1033780D02*
D03*
X203200Y1192530D02*
D03*
X149860Y671830D02*
D03*
X181610Y91440D02*
D03*
X728980Y109220D02*
D03*
X485060Y54690D02*
D03*
X835660Y146050D02*
D03*
X731520Y173990D02*
D03*
X595630Y105410D02*
D03*
X553065Y120035D02*
D03*
X596900Y80010D02*
D03*
X168910Y1184910D02*
D03*
X133350Y1196340D02*
D03*
X153670Y1167130D02*
D03*
X130810Y541020D02*
D03*
X141530Y536650D02*
D03*
X153670Y539750D02*
D03*
X156210Y680720D02*
D03*
X160020Y692150D02*
D03*
X144780Y833120D02*
D03*
X152400Y842010D02*
D03*
X160020Y850900D02*
D03*
X140970Y993140D02*
D03*
X147320Y1000760D02*
D03*
X156210Y1005840D02*
D03*
X185420Y1275080D02*
D03*
X186690Y1250950D02*
D03*
X270510D02*
D03*
X306070Y1256030D02*
D03*
X345440D02*
D03*
X346710Y1295400D02*
D03*
Y1285240D02*
D03*
X285750Y1300480D02*
D03*
X284480Y1289050D02*
D03*
X254850Y1302600D02*
D03*
X186690Y1263650D02*
D03*
X704850Y599440D02*
D03*
X703580Y618490D02*
D03*
X675260Y632840D02*
D03*
X705860Y576320D02*
D03*
X661670Y593090D02*
D03*
X185720Y741300D02*
D03*
X186990Y757300D02*
D03*
X225980Y871220D02*
D03*
X281010Y897040D02*
D03*
X266620Y842010D02*
D03*
X333510Y897040D02*
D03*
X346630Y871220D02*
D03*
X320810Y777660D02*
D03*
X335200Y828040D02*
D03*
X268310Y776390D02*
D03*
X255190Y802640D02*
D03*
X182380Y792900D02*
D03*
X247150D02*
D03*
X196770Y858520D02*
D03*
X209470D02*
D03*
X253920Y784860D02*
D03*
X257730Y762000D02*
D03*
X258300Y746190D02*
D03*
X231060Y728980D02*
D03*
X185190Y900750D02*
D03*
X186460Y916750D02*
D03*
X225450Y1030670D02*
D03*
X280480Y1056490D02*
D03*
X266090Y1001460D02*
D03*
X332980Y1056490D02*
D03*
X346100Y1030670D02*
D03*
X320280Y937110D02*
D03*
X334670Y987490D02*
D03*
X267780Y935840D02*
D03*
X254660Y962090D02*
D03*
X181850Y952350D02*
D03*
X246620D02*
D03*
X196240Y1017970D02*
D03*
X208940D02*
D03*
X253390Y944310D02*
D03*
X257200Y921450D02*
D03*
X257770Y905640D02*
D03*
X230530Y888430D02*
D03*
X696850Y720350D02*
D03*
X681990Y692030D02*
D03*
X668910Y654820D02*
D03*
X684910Y654310D02*
D03*
X633840Y718810D02*
D03*
X655320Y667900D02*
D03*
X642620Y669170D02*
D03*
X633860Y685810D02*
D03*
X633730Y708540D02*
D03*
Y698380D02*
D03*
X696850Y885060D02*
D03*
X681990Y856740D02*
D03*
X668910Y819530D02*
D03*
X684910Y819020D02*
D03*
X633840Y883520D02*
D03*
X655320Y832610D02*
D03*
X642620Y833880D02*
D03*
X633860Y850520D02*
D03*
X633730Y873250D02*
D03*
Y863090D02*
D03*
X695580Y1046860D02*
D03*
X680720Y1018540D02*
D03*
X667640Y981330D02*
D03*
X683640Y980820D02*
D03*
X632570Y1045320D02*
D03*
X654050Y994410D02*
D03*
X641350Y995680D02*
D03*
X632590Y1012320D02*
D03*
X632460Y1035050D02*
D03*
Y1024890D02*
D03*
X681100Y1154300D02*
D03*
X638810Y1169160D02*
D03*
X651510Y1167890D02*
D03*
X629920Y1198370D02*
D03*
Y1208530D02*
D03*
X678180Y1192020D02*
D03*
X693040Y1220340D02*
D03*
X665100Y1154810D02*
D03*
X630050Y1185800D02*
D03*
X630030Y1218800D02*
D03*
X124380Y655910D02*
D03*
X102870Y716790D02*
D03*
X124380Y705440D02*
D03*
Y691470D02*
D03*
X80010Y716790D02*
D03*
X69180Y626020D02*
D03*
X82470Y603840D02*
D03*
X93900Y600030D02*
D03*
X104060Y605110D02*
D03*
X74850Y691470D02*
D03*
X86280Y692740D02*
D03*
X122080Y815930D02*
D03*
X100570Y876810D02*
D03*
X122080Y865460D02*
D03*
Y851490D02*
D03*
X77710Y876810D02*
D03*
X66880Y786040D02*
D03*
X80170Y763860D02*
D03*
X91600Y760050D02*
D03*
X101760Y765130D02*
D03*
X72550Y851490D02*
D03*
X83980Y852760D02*
D03*
X120650Y971550D02*
D03*
X99140Y1032430D02*
D03*
X120650Y1021080D02*
D03*
Y1007110D02*
D03*
X76280Y1032430D02*
D03*
X65450Y941660D02*
D03*
X78740Y919480D02*
D03*
X90170Y915670D02*
D03*
X100330Y920750D02*
D03*
X71120Y1007110D02*
D03*
X82550Y1008380D02*
D03*
X86360Y1076960D02*
D03*
X97790Y1073150D02*
D03*
X107950Y1078230D02*
D03*
X73070Y1099140D02*
D03*
X78740Y1164590D02*
D03*
X128270Y1178560D02*
D03*
X106760Y1189910D02*
D03*
X83900Y1189910D02*
D03*
X90170Y1165860D02*
D03*
X128270Y1164590D02*
D03*
Y1129030D02*
D03*
X138430Y618490D02*
D03*
X121240Y601390D02*
D03*
X142240Y930910D02*
D03*
X143510Y772160D02*
D03*
X126320Y755060D02*
D03*
X125050Y913810D02*
D03*
X171450Y580390D02*
D03*
X176530Y734060D02*
D03*
X175260Y892810D02*
D03*
X138430Y1085850D02*
D03*
X121240Y1068750D02*
D03*
X171450Y1047750D02*
D03*
D79*
X219860Y664360D02*
D03*
Y651360D02*
D03*
X206860Y664360D02*
D03*
Y651360D02*
D03*
X285600Y654200D02*
D03*
X298600D02*
D03*
X285600Y641200D02*
D03*
X298600D02*
D03*
X311300Y697080D02*
D03*
X298300D02*
D03*
X311300Y710080D02*
D03*
X298300D02*
D03*
X213130Y1143530D02*
D03*
Y1130530D02*
D03*
X200130Y1143530D02*
D03*
Y1130530D02*
D03*
X278870Y1133370D02*
D03*
X291870D02*
D03*
X278870Y1120370D02*
D03*
X291870D02*
D03*
X304570Y1176250D02*
D03*
X291570D02*
D03*
X304570Y1189250D02*
D03*
X291570D02*
D03*
X181610Y495300D02*
D03*
X168910Y496570D02*
D03*
X181610Y466090D02*
D03*
X168910Y467360D02*
D03*
X176530Y506730D02*
D03*
X166370Y509270D02*
D03*
X185420Y518160D02*
D03*
X173990Y519430D02*
D03*
X438512Y565540D02*
D03*
X456114Y546266D02*
D03*
X453574Y534836D02*
D03*
X457384Y515786D02*
D03*
X418014Y500546D02*
D03*
X400234Y508166D02*
D03*
X414204Y514516D02*
D03*
X421824Y529756D02*
D03*
X407822Y527920D02*
D03*
X439604Y542456D02*
D03*
X435794Y510706D02*
D03*
X437064Y529756D02*
D03*
X335464Y564046D02*
D03*
X322764Y558966D02*
D03*
X324034Y574206D02*
D03*
X310064Y570396D02*
D03*
X307524Y556426D02*
D03*
X292100Y552450D02*
D03*
X298450Y574040D02*
D03*
X300760Y871370D02*
D03*
X313760D02*
D03*
X300760Y858370D02*
D03*
X313760D02*
D03*
X209320Y812650D02*
D03*
Y825650D02*
D03*
X222320Y812650D02*
D03*
Y825650D02*
D03*
X301060Y802490D02*
D03*
X288060D02*
D03*
X301060Y815490D02*
D03*
X288060D02*
D03*
X300230Y1030820D02*
D03*
X313230D02*
D03*
X300230Y1017820D02*
D03*
X313230D02*
D03*
X208790Y972100D02*
D03*
Y985100D02*
D03*
X221790Y972100D02*
D03*
Y985100D02*
D03*
X300530Y961940D02*
D03*
X287530D02*
D03*
X300530Y974940D02*
D03*
X287530D02*
D03*
X532550Y75360D02*
D03*
X521550D02*
D03*
X532550Y86360D02*
D03*
X521550D02*
D03*
X532550Y97360D02*
D03*
X521550D02*
D03*
X235100Y1263500D02*
D03*
X222100D02*
D03*
X235100Y1276500D02*
D03*
X222100D02*
D03*
D80*
X215900Y372110D02*
D03*
X256550Y372120D02*
D03*
X316230Y325120D02*
D03*
X147320D02*
D03*
X855980Y166370D02*
D03*
D81*
X510374Y166667D02*
D03*
X471170Y166370D02*
D03*
M02*
