G04*
G04 #@! TF.GenerationSoftware,Altium Limited,Altium Designer,22.9.1 (49)*
G04*
G04 Layer_Color=16711935*
%FSLAX44Y44*%
%MOMM*%
G71*
G04*
G04 #@! TF.SameCoordinates,4F58AA59-1FC8-4CD4-8C03-AE197A2B088C*
G04*
G04*
G04 #@! TF.FilePolarity,Positive*
G04*
G01*
G75*
%ADD13C,0.2000*%
%ADD102C,0.1270*%
D13*
X740550Y126790D02*
Y195790D01*
Y126790D02*
X821550D01*
Y195790D01*
X740550D02*
X821550D01*
D102*
X237826Y676126D02*
G03*
X236565Y677386I-1270J-10D01*
G01*
X188804Y639658D02*
G03*
X190065Y638397I1270J10D01*
G01*
Y677386D02*
G03*
X188804Y676126I9J-1270D01*
G01*
X195408Y651542D02*
G03*
X201758Y651542I3175J0D01*
G01*
X236565Y638397D02*
G03*
X237826Y639658I-9J1270D01*
G01*
X201758Y651542D02*
G03*
X195408Y651542I-3175J0D01*
G01*
X273834Y672166D02*
G03*
X272574Y670905I10J-1270D01*
G01*
X310302Y623144D02*
G03*
X311563Y624405I-10J1270D01*
G01*
X272574D02*
G03*
X273834Y623144I1270J9D01*
G01*
X298419Y629748D02*
G03*
X298419Y636098I0J3175D01*
G01*
X311563Y670905D02*
G03*
X310302Y672166I-1270J-9D01*
G01*
X298419Y636098D02*
G03*
X298419Y629748I0J-3175D01*
G01*
X323066Y679114D02*
G03*
X324326Y680375I-10J1270D01*
G01*
X286598Y728136D02*
G03*
X285337Y726875I10J-1270D01*
G01*
X324326D02*
G03*
X323066Y728136I-1270J-9D01*
G01*
X298482Y721532D02*
G03*
X298482Y715182I0J-3175D01*
G01*
X285337Y680375D02*
G03*
X286598Y679114I1270J9D01*
G01*
X298482Y715182D02*
G03*
X298482Y721532I0J3175D01*
G01*
X231096Y1155296D02*
G03*
X229835Y1156556I-1270J-10D01*
G01*
X182074Y1118828D02*
G03*
X183335Y1117567I1270J10D01*
G01*
Y1156556D02*
G03*
X182074Y1155296I9J-1270D01*
G01*
X188678Y1130712D02*
G03*
X195028Y1130712I3175J0D01*
G01*
X229835Y1117567D02*
G03*
X231096Y1118828I-9J1270D01*
G01*
X195028Y1130712D02*
G03*
X188678Y1130712I-3175J0D01*
G01*
X267104Y1151336D02*
G03*
X265844Y1150075I10J-1270D01*
G01*
X303572Y1102314D02*
G03*
X304833Y1103575I-10J1270D01*
G01*
X265844D02*
G03*
X267104Y1102314I1270J9D01*
G01*
X291688Y1108918D02*
G03*
X291688Y1115268I0J3175D01*
G01*
X304833Y1150075D02*
G03*
X303572Y1151336I-1270J-9D01*
G01*
X291688Y1115268D02*
G03*
X291688Y1108918I0J-3175D01*
G01*
X316336Y1158284D02*
G03*
X317596Y1159545I-10J1270D01*
G01*
X279868Y1207306D02*
G03*
X278607Y1206045I10J-1270D01*
G01*
X317596D02*
G03*
X316336Y1207306I-1270J-9D01*
G01*
X291751Y1200702D02*
G03*
X291751Y1194352I0J-3175D01*
G01*
X278607Y1159545D02*
G03*
X279868Y1158284I1270J9D01*
G01*
X291751Y1194352D02*
G03*
X291751Y1200702I0J3175D01*
G01*
X300942Y876472D02*
G03*
X300942Y882822I0J3175D01*
G01*
X287797Y841665D02*
G03*
X289058Y840404I1270J9D01*
G01*
X300942Y882822D02*
G03*
X300942Y876472I0J-3175D01*
G01*
X326786Y888165D02*
G03*
X325526Y889426I-1270J-9D01*
G01*
X289058D02*
G03*
X287797Y888165I10J-1270D01*
G01*
X325526Y840404D02*
G03*
X326786Y841665I-10J1270D01*
G01*
X204218Y812831D02*
G03*
X197868Y812831I-3175J0D01*
G01*
X239025Y799687D02*
G03*
X240286Y800948I-9J1270D01*
G01*
X197868Y812831D02*
G03*
X204218Y812831I3175J0D01*
G01*
X192525Y838676D02*
G03*
X191264Y837416I9J-1270D01*
G01*
Y800948D02*
G03*
X192525Y799687I1270J10D01*
G01*
X240286Y837416D02*
G03*
X239025Y838676I-1270J-10D01*
G01*
X300879Y797388D02*
G03*
X300879Y791038I0J-3175D01*
G01*
X314023Y832195D02*
G03*
X312762Y833456I-1270J-9D01*
G01*
X300879Y791038D02*
G03*
X300879Y797388I0J3175D01*
G01*
X275034Y785695D02*
G03*
X276294Y784434I1270J9D01*
G01*
X312762D02*
G03*
X314023Y785695I-10J1270D01*
G01*
X276294Y833456D02*
G03*
X275034Y832195I10J-1270D01*
G01*
X300411Y1035922D02*
G03*
X300411Y1042272I0J3175D01*
G01*
X287267Y1001115D02*
G03*
X288528Y999854I1270J9D01*
G01*
X300411Y1042272D02*
G03*
X300411Y1035922I0J-3175D01*
G01*
X326256Y1047615D02*
G03*
X324996Y1048876I-1270J-9D01*
G01*
X288528D02*
G03*
X287267Y1047615I10J-1270D01*
G01*
X324996Y999854D02*
G03*
X326256Y1001115I-10J1270D01*
G01*
X203688Y972281D02*
G03*
X197338Y972281I-3175J0D01*
G01*
X238495Y959137D02*
G03*
X239756Y960398I-9J1270D01*
G01*
X197338Y972281D02*
G03*
X203688Y972281I3175J0D01*
G01*
X191995Y998126D02*
G03*
X190734Y996866I9J-1270D01*
G01*
Y960398D02*
G03*
X191995Y959137I1270J10D01*
G01*
X239756Y996866D02*
G03*
X238495Y998126I-1270J-10D01*
G01*
X300348Y956838D02*
G03*
X300348Y950488I0J-3175D01*
G01*
X313493Y991645D02*
G03*
X312232Y992906I-1270J-9D01*
G01*
X300348Y950488D02*
G03*
X300348Y956838I0J3175D01*
G01*
X274504Y945145D02*
G03*
X275764Y943884I1270J9D01*
G01*
X312232D02*
G03*
X313493Y945145I-10J1270D01*
G01*
X275764Y992906D02*
G03*
X274504Y991645I10J-1270D01*
G01*
X234918Y1258398D02*
G03*
X234918Y1252048I0J-3175D01*
G01*
X248063Y1293205D02*
G03*
X246802Y1294466I-1270J-9D01*
G01*
X234918Y1252048D02*
G03*
X234918Y1258398I0J3175D01*
G01*
X209074Y1246705D02*
G03*
X210334Y1245444I1270J9D01*
G01*
X246802D02*
G03*
X248063Y1246705I-10J1270D01*
G01*
X210334Y1294466D02*
G03*
X209074Y1293205I10J-1270D01*
G01*
X192360Y684065D02*
Y687673D01*
X196170Y677386D02*
Y679364D01*
X192360Y677386D02*
X196170D01*
Y682653D02*
Y682889D01*
X192360Y677386D02*
Y679364D01*
X196170D02*
Y682653D01*
Y682889D02*
Y684065D01*
X192360Y682653D02*
Y682889D01*
Y684065D01*
Y679364D02*
Y682653D01*
Y687673D02*
X196170D01*
Y684065D02*
Y687673D01*
X205060Y684065D02*
Y687673D01*
X208870Y677386D02*
Y679364D01*
X205060Y677386D02*
X208870D01*
Y682653D02*
Y682889D01*
X205060Y677386D02*
Y679364D01*
X208870D02*
Y682653D01*
Y682889D02*
Y684065D01*
X205060Y682653D02*
Y682889D01*
Y684065D01*
Y679364D02*
Y682653D01*
Y687673D02*
X208870D01*
Y684065D02*
Y687673D01*
X217760Y684065D02*
Y687673D01*
X221570Y677386D02*
Y679364D01*
X217760Y677386D02*
X221570D01*
Y682653D02*
Y682889D01*
X217760Y677386D02*
Y679364D01*
X221570D02*
Y682653D01*
Y682889D02*
Y684065D01*
X217760Y682653D02*
Y682889D01*
Y684065D01*
Y679364D02*
Y682653D01*
Y687673D02*
X221570D01*
Y684065D02*
Y687673D01*
X230460Y684065D02*
Y687673D01*
X234270Y677386D02*
Y679364D01*
X230460Y677386D02*
X234270D01*
Y682653D02*
Y682889D01*
X230460Y677386D02*
Y679364D01*
X234270D02*
Y682653D01*
Y682889D02*
Y684065D01*
X230460Y682653D02*
Y682889D01*
Y684065D01*
Y679364D02*
Y682653D01*
Y687673D02*
X234270D01*
Y684065D02*
Y687673D01*
X196170Y628110D02*
Y631718D01*
X192360Y636420D02*
Y638397D01*
X196170D01*
X192360Y632894D02*
Y633130D01*
X196170Y636420D02*
Y638397D01*
X192360Y633130D02*
Y636420D01*
Y631718D02*
Y632894D01*
X196170D02*
Y633130D01*
Y631718D02*
Y632894D01*
Y633130D02*
Y636420D01*
X192360Y628110D02*
X196170D01*
X192360D02*
Y631718D01*
X208870Y628110D02*
Y631718D01*
X205060Y636420D02*
Y638397D01*
X208870D01*
X205060Y632894D02*
Y633130D01*
X208870Y636420D02*
Y638397D01*
X205060Y633130D02*
Y636420D01*
Y631718D02*
Y632894D01*
X208870D02*
Y633130D01*
Y631718D02*
Y632894D01*
Y633130D02*
Y636420D01*
X205060Y628110D02*
X208870D01*
X205060D02*
Y631718D01*
X221570Y628110D02*
Y631718D01*
X217760Y636420D02*
Y638397D01*
X221570D01*
X217760Y632894D02*
Y633130D01*
X221570Y636420D02*
Y638397D01*
X217760Y633130D02*
Y636420D01*
Y631718D02*
Y632894D01*
X221570D02*
Y633130D01*
Y631718D02*
Y632894D01*
Y633130D02*
Y636420D01*
X217760Y628110D02*
X221570D01*
X217760D02*
Y631718D01*
X234270Y628110D02*
Y631718D01*
X230460Y636420D02*
Y638397D01*
X234270D01*
X230460Y632894D02*
Y633130D01*
X234270Y636420D02*
Y638397D01*
X230460Y633130D02*
Y636420D01*
Y631718D02*
Y632894D01*
X234270D02*
Y633130D01*
Y631718D02*
Y632894D01*
Y633130D02*
Y636420D01*
X230460Y628110D02*
X234270D01*
X230460D02*
Y631718D01*
X190065Y677386D02*
X190074D01*
X188804Y676116D02*
Y676126D01*
X190065Y638397D02*
X190074Y638397D01*
X188804Y639667D02*
Y676116D01*
X190074Y638397D02*
X236556D01*
X188804Y639658D02*
Y639667D01*
X237826Y676116D02*
Y676126D01*
Y639658D02*
Y639667D01*
Y676116D01*
X236556Y638397D02*
X236565Y638397D01*
X190074Y677386D02*
X236556D01*
X236565D01*
X262287Y626700D02*
X265895D01*
X270596Y630510D02*
X272574D01*
Y626700D02*
Y630510D01*
X267071D02*
X267307D01*
X270596Y626700D02*
X272574D01*
X267307Y630510D02*
X270596D01*
X265895D02*
X267071D01*
Y626700D02*
X267307D01*
X265895D02*
X267071D01*
X267307D02*
X270596D01*
X262287D02*
Y630510D01*
X265895D01*
X262287Y639400D02*
X265895D01*
X270596Y643210D02*
X272574D01*
Y639400D02*
Y643210D01*
X267071D02*
X267307D01*
X270596Y639400D02*
X272574D01*
X267307Y643210D02*
X270596D01*
X265895D02*
X267071D01*
Y639400D02*
X267307D01*
X265895D02*
X267071D01*
X267307D02*
X270596D01*
X262287D02*
Y643210D01*
X265895D01*
X262287Y652100D02*
X265895D01*
X270596Y655910D02*
X272574D01*
Y652100D02*
Y655910D01*
X267071D02*
X267307D01*
X270596Y652100D02*
X272574D01*
X267307Y655910D02*
X270596D01*
X265895D02*
X267071D01*
Y652100D02*
X267307D01*
X265895D02*
X267071D01*
X267307D02*
X270596D01*
X262287D02*
Y655910D01*
X265895D01*
X262287Y664800D02*
X265895D01*
X270596Y668610D02*
X272574D01*
Y664800D02*
Y668610D01*
X267071D02*
X267307D01*
X270596Y664800D02*
X272574D01*
X267307Y668610D02*
X270596D01*
X265895D02*
X267071D01*
Y664800D02*
X267307D01*
X265895D02*
X267071D01*
X267307D02*
X270596D01*
X262287D02*
Y668610D01*
X265895D01*
X318242Y630510D02*
X321850D01*
X311563Y626700D02*
X313540D01*
X311563D02*
Y630510D01*
X316830Y626700D02*
X317066D01*
X311563Y630510D02*
X313540D01*
Y626700D02*
X316830D01*
X317066D02*
X318242D01*
X316830Y630510D02*
X317066D01*
X318242D01*
X313540D02*
X316830D01*
X321850Y626700D02*
Y630510D01*
X318242Y626700D02*
X321850D01*
X318242Y643210D02*
X321850D01*
X311563Y639400D02*
X313540D01*
X311563D02*
Y643210D01*
X316830Y639400D02*
X317066D01*
X311563Y643210D02*
X313540D01*
Y639400D02*
X316830D01*
X317066D02*
X318242D01*
X316830Y643210D02*
X317066D01*
X318242D01*
X313540D02*
X316830D01*
X321850Y639400D02*
Y643210D01*
X318242Y639400D02*
X321850D01*
X318242Y655910D02*
X321850D01*
X311563Y652100D02*
X313540D01*
X311563D02*
Y655910D01*
X316830Y652100D02*
X317066D01*
X311563Y655910D02*
X313540D01*
Y652100D02*
X316830D01*
X317066D02*
X318242D01*
X316830Y655910D02*
X317066D01*
X318242D01*
X313540D02*
X316830D01*
X321850Y652100D02*
Y655910D01*
X318242Y652100D02*
X321850D01*
X318242Y668610D02*
X321850D01*
X311563Y664800D02*
X313540D01*
X311563D02*
Y668610D01*
X316830Y664800D02*
X317066D01*
X311563Y668610D02*
X313540D01*
Y664800D02*
X316830D01*
X317066D02*
X318242D01*
X316830Y668610D02*
X317066D01*
X318242D01*
X313540D02*
X316830D01*
X321850Y664800D02*
Y668610D01*
X318242Y664800D02*
X321850D01*
X272574Y624405D02*
Y624414D01*
X273834Y623144D02*
X273844D01*
X311563Y624405D02*
X311563Y624414D01*
X273844Y623144D02*
X310293D01*
X311563Y624414D02*
Y670896D01*
X310293Y623144D02*
X310302D01*
X273834Y672166D02*
X273844D01*
X310293D02*
X310302D01*
X273844D02*
X310293D01*
X311563Y670905D02*
X311563Y670896D01*
X272574Y624414D02*
Y670896D01*
Y670905D01*
X331005Y724580D02*
X334613D01*
X324326Y720770D02*
X326304D01*
X324326D02*
Y724580D01*
X329593Y720770D02*
X329829D01*
X324326Y724580D02*
X326304D01*
Y720770D02*
X329593D01*
X329829D02*
X331005D01*
X329593Y724580D02*
X329829D01*
X331005D01*
X326304D02*
X329593D01*
X334613Y720770D02*
Y724580D01*
X331005Y720770D02*
X334613D01*
X331005Y711880D02*
X334613D01*
X324326Y708070D02*
X326304D01*
X324326D02*
Y711880D01*
X329593Y708070D02*
X329829D01*
X324326Y711880D02*
X326304D01*
Y708070D02*
X329593D01*
X329829D02*
X331005D01*
X329593Y711880D02*
X329829D01*
X331005D01*
X326304D02*
X329593D01*
X334613Y708070D02*
Y711880D01*
X331005Y708070D02*
X334613D01*
X331005Y699180D02*
X334613D01*
X324326Y695370D02*
X326304D01*
X324326D02*
Y699180D01*
X329593Y695370D02*
X329829D01*
X324326Y699180D02*
X326304D01*
Y695370D02*
X329593D01*
X329829D02*
X331005D01*
X329593Y699180D02*
X329829D01*
X331005D01*
X326304D02*
X329593D01*
X334613Y695370D02*
Y699180D01*
X331005Y695370D02*
X334613D01*
X331005Y686480D02*
X334613D01*
X324326Y682670D02*
X326304D01*
X324326D02*
Y686480D01*
X329593Y682670D02*
X329829D01*
X324326Y686480D02*
X326304D01*
Y682670D02*
X329593D01*
X329829D02*
X331005D01*
X329593Y686480D02*
X329829D01*
X331005D01*
X326304D02*
X329593D01*
X334613Y682670D02*
Y686480D01*
X331005Y682670D02*
X334613D01*
X275050Y720770D02*
X278658D01*
X283360Y724580D02*
X285337D01*
Y720770D02*
Y724580D01*
X279834D02*
X280070D01*
X283360Y720770D02*
X285337D01*
X280070Y724580D02*
X283360D01*
X278658D02*
X279834D01*
Y720770D02*
X280070D01*
X278658D02*
X279834D01*
X280070D02*
X283360D01*
X275050D02*
Y724580D01*
X278658D01*
X275050Y708070D02*
X278658D01*
X283360Y711880D02*
X285337D01*
Y708070D02*
Y711880D01*
X279834D02*
X280070D01*
X283360Y708070D02*
X285337D01*
X280070Y711880D02*
X283360D01*
X278658D02*
X279834D01*
Y708070D02*
X280070D01*
X278658D02*
X279834D01*
X280070D02*
X283360D01*
X275050D02*
Y711880D01*
X278658D01*
X275050Y695370D02*
X278658D01*
X283360Y699180D02*
X285337D01*
Y695370D02*
Y699180D01*
X279834D02*
X280070D01*
X283360Y695370D02*
X285337D01*
X280070Y699180D02*
X283360D01*
X278658D02*
X279834D01*
Y695370D02*
X280070D01*
X278658D02*
X279834D01*
X280070D02*
X283360D01*
X275050D02*
Y699180D01*
X278658D01*
X275050Y682670D02*
X278658D01*
X283360Y686480D02*
X285337D01*
Y682670D02*
Y686480D01*
X279834D02*
X280070D01*
X283360Y682670D02*
X285337D01*
X280070Y686480D02*
X283360D01*
X278658D02*
X279834D01*
Y682670D02*
X280070D01*
X278658D02*
X279834D01*
X280070D02*
X283360D01*
X275050D02*
Y686480D01*
X278658D01*
X324326Y726866D02*
Y726875D01*
X323056Y728136D02*
X323066D01*
X285337Y726866D02*
X285337Y726875D01*
X286607Y728136D02*
X323056D01*
X285337Y680384D02*
Y726866D01*
X286598Y728136D02*
X286607D01*
X323056Y679114D02*
X323066D01*
X286598D02*
X286607D01*
X323056D01*
X285337Y680384D02*
X285337Y680375D01*
X324326Y680384D02*
Y726866D01*
Y680375D02*
Y680384D01*
X185630Y1163235D02*
Y1166843D01*
X189440Y1156556D02*
Y1158534D01*
X185630Y1156556D02*
X189440D01*
Y1161823D02*
Y1162059D01*
X185630Y1156556D02*
Y1158534D01*
X189440D02*
Y1161823D01*
Y1162059D02*
Y1163235D01*
X185630Y1161823D02*
Y1162059D01*
Y1163235D01*
Y1158534D02*
Y1161823D01*
Y1166843D02*
X189440D01*
Y1163235D02*
Y1166843D01*
X198330Y1163235D02*
Y1166843D01*
X202140Y1156556D02*
Y1158534D01*
X198330Y1156556D02*
X202140D01*
Y1161823D02*
Y1162059D01*
X198330Y1156556D02*
Y1158534D01*
X202140D02*
Y1161823D01*
Y1162059D02*
Y1163235D01*
X198330Y1161823D02*
Y1162059D01*
Y1163235D01*
Y1158534D02*
Y1161823D01*
Y1166843D02*
X202140D01*
Y1163235D02*
Y1166843D01*
X211030Y1163235D02*
Y1166843D01*
X214840Y1156556D02*
Y1158534D01*
X211030Y1156556D02*
X214840D01*
Y1161823D02*
Y1162059D01*
X211030Y1156556D02*
Y1158534D01*
X214840D02*
Y1161823D01*
Y1162059D02*
Y1163235D01*
X211030Y1161823D02*
Y1162059D01*
Y1163235D01*
Y1158534D02*
Y1161823D01*
Y1166843D02*
X214840D01*
Y1163235D02*
Y1166843D01*
X223730Y1163235D02*
Y1166843D01*
X227540Y1156556D02*
Y1158534D01*
X223730Y1156556D02*
X227540D01*
Y1161823D02*
Y1162059D01*
X223730Y1156556D02*
Y1158534D01*
X227540D02*
Y1161823D01*
Y1162059D02*
Y1163235D01*
X223730Y1161823D02*
Y1162059D01*
Y1163235D01*
Y1158534D02*
Y1161823D01*
Y1166843D02*
X227540D01*
Y1163235D02*
Y1166843D01*
X189440Y1107280D02*
Y1110888D01*
X185630Y1115590D02*
Y1117567D01*
X189440D01*
X185630Y1112064D02*
Y1112300D01*
X189440Y1115590D02*
Y1117567D01*
X185630Y1112300D02*
Y1115590D01*
Y1110888D02*
Y1112064D01*
X189440D02*
Y1112300D01*
Y1110888D02*
Y1112064D01*
Y1112300D02*
Y1115590D01*
X185630Y1107280D02*
X189440D01*
X185630D02*
Y1110888D01*
X202140Y1107280D02*
Y1110888D01*
X198330Y1115590D02*
Y1117567D01*
X202140D01*
X198330Y1112064D02*
Y1112300D01*
X202140Y1115590D02*
Y1117567D01*
X198330Y1112300D02*
Y1115590D01*
Y1110888D02*
Y1112064D01*
X202140D02*
Y1112300D01*
Y1110888D02*
Y1112064D01*
Y1112300D02*
Y1115590D01*
X198330Y1107280D02*
X202140D01*
X198330D02*
Y1110888D01*
X214840Y1107280D02*
Y1110888D01*
X211030Y1115590D02*
Y1117567D01*
X214840D01*
X211030Y1112064D02*
Y1112300D01*
X214840Y1115590D02*
Y1117567D01*
X211030Y1112300D02*
Y1115590D01*
Y1110888D02*
Y1112064D01*
X214840D02*
Y1112300D01*
Y1110888D02*
Y1112064D01*
Y1112300D02*
Y1115590D01*
X211030Y1107280D02*
X214840D01*
X211030D02*
Y1110888D01*
X227540Y1107280D02*
Y1110888D01*
X223730Y1115590D02*
Y1117567D01*
X227540D01*
X223730Y1112064D02*
Y1112300D01*
X227540Y1115590D02*
Y1117567D01*
X223730Y1112300D02*
Y1115590D01*
Y1110888D02*
Y1112064D01*
X227540D02*
Y1112300D01*
Y1110888D02*
Y1112064D01*
Y1112300D02*
Y1115590D01*
X223730Y1107280D02*
X227540D01*
X223730D02*
Y1110888D01*
X183335Y1156556D02*
X183344D01*
X182074Y1155286D02*
Y1155296D01*
X183335Y1117567D02*
X183344Y1117567D01*
X182074Y1118837D02*
Y1155286D01*
X183344Y1117567D02*
X229826D01*
X182074Y1118828D02*
Y1118837D01*
X231096Y1155286D02*
Y1155296D01*
Y1118828D02*
Y1118837D01*
Y1155286D01*
X229826Y1117567D02*
X229835Y1117567D01*
X183344Y1156556D02*
X229826D01*
X229835D01*
X255557Y1105870D02*
X259165D01*
X263866Y1109680D02*
X265844D01*
Y1105870D02*
Y1109680D01*
X260341D02*
X260577D01*
X263866Y1105870D02*
X265844D01*
X260577Y1109680D02*
X263866D01*
X259165D02*
X260341D01*
Y1105870D02*
X260577D01*
X259165D02*
X260341D01*
X260577D02*
X263866D01*
X255557D02*
Y1109680D01*
X259165D01*
X255557Y1118570D02*
X259165D01*
X263866Y1122380D02*
X265844D01*
Y1118570D02*
Y1122380D01*
X260341D02*
X260577D01*
X263866Y1118570D02*
X265844D01*
X260577Y1122380D02*
X263866D01*
X259165D02*
X260341D01*
Y1118570D02*
X260577D01*
X259165D02*
X260341D01*
X260577D02*
X263866D01*
X255557D02*
Y1122380D01*
X259165D01*
X255557Y1131270D02*
X259165D01*
X263866Y1135080D02*
X265844D01*
Y1131270D02*
Y1135080D01*
X260341D02*
X260577D01*
X263866Y1131270D02*
X265844D01*
X260577Y1135080D02*
X263866D01*
X259165D02*
X260341D01*
Y1131270D02*
X260577D01*
X259165D02*
X260341D01*
X260577D02*
X263866D01*
X255557D02*
Y1135080D01*
X259165D01*
X255557Y1143970D02*
X259165D01*
X263866Y1147780D02*
X265844D01*
Y1143970D02*
Y1147780D01*
X260341D02*
X260577D01*
X263866Y1143970D02*
X265844D01*
X260577Y1147780D02*
X263866D01*
X259165D02*
X260341D01*
Y1143970D02*
X260577D01*
X259165D02*
X260341D01*
X260577D02*
X263866D01*
X255557D02*
Y1147780D01*
X259165D01*
X311512Y1109680D02*
X315120D01*
X304833Y1105870D02*
X306810D01*
X304833D02*
Y1109680D01*
X310100Y1105870D02*
X310336D01*
X304833Y1109680D02*
X306810D01*
Y1105870D02*
X310100D01*
X310336D02*
X311512D01*
X310100Y1109680D02*
X310336D01*
X311512D01*
X306810D02*
X310100D01*
X315120Y1105870D02*
Y1109680D01*
X311512Y1105870D02*
X315120D01*
X311512Y1122380D02*
X315120D01*
X304833Y1118570D02*
X306810D01*
X304833D02*
Y1122380D01*
X310100Y1118570D02*
X310336D01*
X304833Y1122380D02*
X306810D01*
Y1118570D02*
X310100D01*
X310336D02*
X311512D01*
X310100Y1122380D02*
X310336D01*
X311512D01*
X306810D02*
X310100D01*
X315120Y1118570D02*
Y1122380D01*
X311512Y1118570D02*
X315120D01*
X311512Y1135080D02*
X315120D01*
X304833Y1131270D02*
X306810D01*
X304833D02*
Y1135080D01*
X310100Y1131270D02*
X310336D01*
X304833Y1135080D02*
X306810D01*
Y1131270D02*
X310100D01*
X310336D02*
X311512D01*
X310100Y1135080D02*
X310336D01*
X311512D01*
X306810D02*
X310100D01*
X315120Y1131270D02*
Y1135080D01*
X311512Y1131270D02*
X315120D01*
X311512Y1147780D02*
X315120D01*
X304833Y1143970D02*
X306810D01*
X304833D02*
Y1147780D01*
X310100Y1143970D02*
X310336D01*
X304833Y1147780D02*
X306810D01*
Y1143970D02*
X310100D01*
X310336D02*
X311512D01*
X310100Y1147780D02*
X310336D01*
X311512D01*
X306810D02*
X310100D01*
X315120Y1143970D02*
Y1147780D01*
X311512Y1143970D02*
X315120D01*
X265844Y1103575D02*
Y1103584D01*
X267104Y1102314D02*
X267114D01*
X304833Y1103575D02*
X304833Y1103584D01*
X267114Y1102314D02*
X303563D01*
X304833Y1103584D02*
Y1150066D01*
X303563Y1102314D02*
X303572D01*
X267104Y1151336D02*
X267114D01*
X303563D02*
X303572D01*
X267114D02*
X303563D01*
X304833Y1150075D02*
X304833Y1150066D01*
X265844Y1103584D02*
Y1150066D01*
Y1150075D01*
X324276Y1203750D02*
X327883D01*
X317596Y1199940D02*
X319574D01*
X317596D02*
Y1203750D01*
X322863Y1199940D02*
X323099D01*
X317596Y1203750D02*
X319574D01*
Y1199940D02*
X322863D01*
X323099D02*
X324276D01*
X322863Y1203750D02*
X323099D01*
X324276D01*
X319574D02*
X322863D01*
X327883Y1199940D02*
Y1203750D01*
X324276Y1199940D02*
X327883D01*
X324276Y1191050D02*
X327883D01*
X317596Y1187240D02*
X319574D01*
X317596D02*
Y1191050D01*
X322863Y1187240D02*
X323099D01*
X317596Y1191050D02*
X319574D01*
Y1187240D02*
X322863D01*
X323099D02*
X324276D01*
X322863Y1191050D02*
X323099D01*
X324276D01*
X319574D02*
X322863D01*
X327883Y1187240D02*
Y1191050D01*
X324276Y1187240D02*
X327883D01*
X324276Y1178350D02*
X327883D01*
X317596Y1174540D02*
X319574D01*
X317596D02*
Y1178350D01*
X322863Y1174540D02*
X323099D01*
X317596Y1178350D02*
X319574D01*
Y1174540D02*
X322863D01*
X323099D02*
X324276D01*
X322863Y1178350D02*
X323099D01*
X324276D01*
X319574D02*
X322863D01*
X327883Y1174540D02*
Y1178350D01*
X324276Y1174540D02*
X327883D01*
X324276Y1165650D02*
X327883D01*
X317596Y1161840D02*
X319574D01*
X317596D02*
Y1165650D01*
X322863Y1161840D02*
X323099D01*
X317596Y1165650D02*
X319574D01*
Y1161840D02*
X322863D01*
X323099D02*
X324276D01*
X322863Y1165650D02*
X323099D01*
X324276D01*
X319574D02*
X322863D01*
X327883Y1161840D02*
Y1165650D01*
X324276Y1161840D02*
X327883D01*
X268320Y1199940D02*
X271928D01*
X276630Y1203750D02*
X278607D01*
Y1199940D02*
Y1203750D01*
X273104D02*
X273340D01*
X276630Y1199940D02*
X278607D01*
X273340Y1203750D02*
X276630D01*
X271928D02*
X273104D01*
Y1199940D02*
X273340D01*
X271928D02*
X273104D01*
X273340D02*
X276630D01*
X268320D02*
Y1203750D01*
X271928D01*
X268320Y1187240D02*
X271928D01*
X276630Y1191050D02*
X278607D01*
Y1187240D02*
Y1191050D01*
X273104D02*
X273340D01*
X276630Y1187240D02*
X278607D01*
X273340Y1191050D02*
X276630D01*
X271928D02*
X273104D01*
Y1187240D02*
X273340D01*
X271928D02*
X273104D01*
X273340D02*
X276630D01*
X268320D02*
Y1191050D01*
X271928D01*
X268320Y1174540D02*
X271928D01*
X276630Y1178350D02*
X278607D01*
Y1174540D02*
Y1178350D01*
X273104D02*
X273340D01*
X276630Y1174540D02*
X278607D01*
X273340Y1178350D02*
X276630D01*
X271928D02*
X273104D01*
Y1174540D02*
X273340D01*
X271928D02*
X273104D01*
X273340D02*
X276630D01*
X268320D02*
Y1178350D01*
X271928D01*
X268320Y1161840D02*
X271928D01*
X276630Y1165650D02*
X278607D01*
Y1161840D02*
Y1165650D01*
X273104D02*
X273340D01*
X276630Y1161840D02*
X278607D01*
X273340Y1165650D02*
X276630D01*
X271928D02*
X273104D01*
Y1161840D02*
X273340D01*
X271928D02*
X273104D01*
X273340D02*
X276630D01*
X268320D02*
Y1165650D01*
X271928D01*
X317596Y1206036D02*
Y1206045D01*
X316326Y1207306D02*
X316336D01*
X278607Y1206036D02*
X278607Y1206045D01*
X279877Y1207306D02*
X316326D01*
X278607Y1159554D02*
Y1206036D01*
X279868Y1207306D02*
X279877D01*
X316326Y1158284D02*
X316336D01*
X279868D02*
X279877D01*
X316326D01*
X278607Y1159554D02*
X278607Y1159545D01*
X317596Y1159554D02*
Y1206036D01*
Y1159545D02*
Y1159554D01*
X326786Y841665D02*
Y841674D01*
Y888156D01*
X287797Y841674D02*
X287797Y841665D01*
X289067Y840404D02*
X325516D01*
X289058D02*
X289067D01*
X325516D02*
X325526D01*
X289058Y889426D02*
X289067D01*
X287797Y841674D02*
Y888156D01*
X289067Y889426D02*
X325516D01*
X287797Y888156D02*
X287797Y888165D01*
X325516Y889426D02*
X325526D01*
X326786Y888156D02*
Y888165D01*
X277510Y847770D02*
X281118D01*
X277510Y843960D02*
Y847770D01*
X282530Y843960D02*
X285820D01*
X281118D02*
X282294D01*
X282530D01*
X281118Y847770D02*
X282294D01*
X282530D02*
X285820D01*
Y843960D02*
X287797D01*
X282294Y847770D02*
X282530D01*
X287797Y843960D02*
Y847770D01*
X285820D02*
X287797D01*
X277510Y843960D02*
X281118D01*
X277510Y860470D02*
X281118D01*
X277510Y856660D02*
Y860470D01*
X282530Y856660D02*
X285820D01*
X281118D02*
X282294D01*
X282530D01*
X281118Y860470D02*
X282294D01*
X282530D02*
X285820D01*
Y856660D02*
X287797D01*
X282294Y860470D02*
X282530D01*
X287797Y856660D02*
Y860470D01*
X285820D02*
X287797D01*
X277510Y856660D02*
X281118D01*
X277510Y873170D02*
X281118D01*
X277510Y869360D02*
Y873170D01*
X282530Y869360D02*
X285820D01*
X281118D02*
X282294D01*
X282530D01*
X281118Y873170D02*
X282294D01*
X282530D02*
X285820D01*
Y869360D02*
X287797D01*
X282294Y873170D02*
X282530D01*
X287797Y869360D02*
Y873170D01*
X285820D02*
X287797D01*
X277510Y869360D02*
X281118D01*
X277510Y885870D02*
X281118D01*
X277510Y882060D02*
Y885870D01*
X282530Y882060D02*
X285820D01*
X281118D02*
X282294D01*
X282530D01*
X281118Y885870D02*
X282294D01*
X282530D02*
X285820D01*
Y882060D02*
X287797D01*
X282294Y885870D02*
X282530D01*
X287797Y882060D02*
Y885870D01*
X285820D02*
X287797D01*
X277510Y882060D02*
X281118D01*
X333465Y843960D02*
X337073D01*
Y847770D01*
X328764D02*
X332053D01*
X332289D02*
X333465D01*
X332053D02*
X332289D01*
Y843960D02*
X333465D01*
X328764D02*
X332053D01*
X326786Y847770D02*
X328764D01*
X332053Y843960D02*
X332289D01*
X326786D02*
Y847770D01*
Y843960D02*
X328764D01*
X333465Y847770D02*
X337073D01*
X333465Y856660D02*
X337073D01*
Y860470D01*
X328764D02*
X332053D01*
X332289D02*
X333465D01*
X332053D02*
X332289D01*
Y856660D02*
X333465D01*
X328764D02*
X332053D01*
X326786Y860470D02*
X328764D01*
X332053Y856660D02*
X332289D01*
X326786D02*
Y860470D01*
Y856660D02*
X328764D01*
X333465Y860470D02*
X337073D01*
X333465Y869360D02*
X337073D01*
Y873170D01*
X328764D02*
X332053D01*
X332289D02*
X333465D01*
X332053D02*
X332289D01*
Y869360D02*
X333465D01*
X328764D02*
X332053D01*
X326786Y873170D02*
X328764D01*
X332053Y869360D02*
X332289D01*
X326786D02*
Y873170D01*
Y869360D02*
X328764D01*
X333465Y873170D02*
X337073D01*
X333465Y882060D02*
X337073D01*
Y885870D01*
X328764D02*
X332053D01*
X332289D02*
X333465D01*
X332053D02*
X332289D01*
Y882060D02*
X333465D01*
X328764D02*
X332053D01*
X326786Y885870D02*
X328764D01*
X332053Y882060D02*
X332289D01*
X326786D02*
Y885870D01*
Y882060D02*
X328764D01*
X333465Y885870D02*
X337073D01*
X239016Y838676D02*
X239025D01*
X192534D02*
X239016D01*
Y799687D02*
X239025Y799687D01*
X240286Y800957D02*
Y837406D01*
Y800948D02*
Y800957D01*
Y837406D02*
Y837416D01*
X191264Y800948D02*
Y800957D01*
X192534Y799687D02*
X239016D01*
X191264Y800957D02*
Y837406D01*
X192525Y799687D02*
X192534Y799687D01*
X191264Y837406D02*
Y837416D01*
X192525Y838676D02*
X192534D01*
X232920Y789400D02*
Y793008D01*
Y789400D02*
X236730D01*
Y794420D02*
Y797710D01*
Y793008D02*
Y794184D01*
Y794420D01*
X232920Y793008D02*
Y794184D01*
Y794420D02*
Y797710D01*
X236730D02*
Y799687D01*
X232920Y794184D02*
Y794420D01*
Y799687D02*
X236730D01*
X232920Y797710D02*
Y799687D01*
X236730Y789400D02*
Y793008D01*
X220220Y789400D02*
Y793008D01*
Y789400D02*
X224030D01*
Y794420D02*
Y797710D01*
Y793008D02*
Y794184D01*
Y794420D01*
X220220Y793008D02*
Y794184D01*
Y794420D02*
Y797710D01*
X224030D02*
Y799687D01*
X220220Y794184D02*
Y794420D01*
Y799687D02*
X224030D01*
X220220Y797710D02*
Y799687D01*
X224030Y789400D02*
Y793008D01*
X207520Y789400D02*
Y793008D01*
Y789400D02*
X211330D01*
Y794420D02*
Y797710D01*
Y793008D02*
Y794184D01*
Y794420D01*
X207520Y793008D02*
Y794184D01*
Y794420D02*
Y797710D01*
X211330D02*
Y799687D01*
X207520Y794184D02*
Y794420D01*
Y799687D02*
X211330D01*
X207520Y797710D02*
Y799687D01*
X211330Y789400D02*
Y793008D01*
X194820Y789400D02*
Y793008D01*
Y789400D02*
X198630D01*
Y794420D02*
Y797710D01*
Y793008D02*
Y794184D01*
Y794420D01*
X194820Y793008D02*
Y794184D01*
Y794420D02*
Y797710D01*
X198630D02*
Y799687D01*
X194820Y794184D02*
Y794420D01*
Y799687D02*
X198630D01*
X194820Y797710D02*
Y799687D01*
X198630Y789400D02*
Y793008D01*
X236730Y845355D02*
Y848963D01*
X232920D02*
X236730D01*
X232920Y840654D02*
Y843943D01*
Y844179D02*
Y845355D01*
Y843943D02*
Y844179D01*
X236730D02*
Y845355D01*
Y840654D02*
Y843943D01*
X232920Y838676D02*
Y840654D01*
X236730Y843943D02*
Y844179D01*
X232920Y838676D02*
X236730D01*
Y840654D01*
X232920Y845355D02*
Y848963D01*
X224030Y845355D02*
Y848963D01*
X220220D02*
X224030D01*
X220220Y840654D02*
Y843943D01*
Y844179D02*
Y845355D01*
Y843943D02*
Y844179D01*
X224030D02*
Y845355D01*
Y840654D02*
Y843943D01*
X220220Y838676D02*
Y840654D01*
X224030Y843943D02*
Y844179D01*
X220220Y838676D02*
X224030D01*
Y840654D01*
X220220Y845355D02*
Y848963D01*
X211330Y845355D02*
Y848963D01*
X207520D02*
X211330D01*
X207520Y840654D02*
Y843943D01*
Y844179D02*
Y845355D01*
Y843943D02*
Y844179D01*
X211330D02*
Y845355D01*
Y840654D02*
Y843943D01*
X207520Y838676D02*
Y840654D01*
X211330Y843943D02*
Y844179D01*
X207520Y838676D02*
X211330D01*
Y840654D01*
X207520Y845355D02*
Y848963D01*
X198630Y845355D02*
Y848963D01*
X194820D02*
X198630D01*
X194820Y840654D02*
Y843943D01*
Y844179D02*
Y845355D01*
Y843943D02*
Y844179D01*
X198630D02*
Y845355D01*
Y840654D02*
Y843943D01*
X194820Y838676D02*
Y840654D01*
X198630Y843943D02*
Y844179D01*
X194820Y838676D02*
X198630D01*
Y840654D01*
X194820Y845355D02*
Y848963D01*
X275034Y832186D02*
Y832195D01*
Y785704D02*
Y832186D01*
X314023Y832195D02*
X314023Y832186D01*
X276304Y833456D02*
X312753D01*
X312762D01*
X276294D02*
X276304D01*
X312753Y784434D02*
X312762D01*
X314023Y785704D02*
Y832186D01*
X276304Y784434D02*
X312753D01*
X314023Y785695D02*
X314023Y785704D01*
X276294Y784434D02*
X276304D01*
X275034Y785695D02*
Y785704D01*
X320702Y826090D02*
X324310D01*
Y829900D01*
X316000D02*
X319290D01*
X319526D02*
X320702D01*
X319290D02*
X319526D01*
Y826090D02*
X320702D01*
X316000D02*
X319290D01*
X314023Y829900D02*
X316000D01*
X319290Y826090D02*
X319526D01*
X314023D02*
Y829900D01*
Y826090D02*
X316000D01*
X320702Y829900D02*
X324310D01*
X320702Y813390D02*
X324310D01*
Y817200D01*
X316000D02*
X319290D01*
X319526D02*
X320702D01*
X319290D02*
X319526D01*
Y813390D02*
X320702D01*
X316000D02*
X319290D01*
X314023Y817200D02*
X316000D01*
X319290Y813390D02*
X319526D01*
X314023D02*
Y817200D01*
Y813390D02*
X316000D01*
X320702Y817200D02*
X324310D01*
X320702Y800690D02*
X324310D01*
Y804500D01*
X316000D02*
X319290D01*
X319526D02*
X320702D01*
X319290D02*
X319526D01*
Y800690D02*
X320702D01*
X316000D02*
X319290D01*
X314023Y804500D02*
X316000D01*
X319290Y800690D02*
X319526D01*
X314023D02*
Y804500D01*
Y800690D02*
X316000D01*
X320702Y804500D02*
X324310D01*
X320702Y787990D02*
X324310D01*
Y791800D01*
X316000D02*
X319290D01*
X319526D02*
X320702D01*
X319290D02*
X319526D01*
Y787990D02*
X320702D01*
X316000D02*
X319290D01*
X314023Y791800D02*
X316000D01*
X319290Y787990D02*
X319526D01*
X314023D02*
Y791800D01*
Y787990D02*
X316000D01*
X320702Y791800D02*
X324310D01*
X264747Y829900D02*
X268355D01*
X264747Y826090D02*
Y829900D01*
X269767Y826090D02*
X273056D01*
X268355D02*
X269531D01*
X269767D01*
X268355Y829900D02*
X269531D01*
X269767D02*
X273056D01*
Y826090D02*
X275034D01*
X269531Y829900D02*
X269767D01*
X275034Y826090D02*
Y829900D01*
X273056D02*
X275034D01*
X264747Y826090D02*
X268355D01*
X264747Y817200D02*
X268355D01*
X264747Y813390D02*
Y817200D01*
X269767Y813390D02*
X273056D01*
X268355D02*
X269531D01*
X269767D01*
X268355Y817200D02*
X269531D01*
X269767D02*
X273056D01*
Y813390D02*
X275034D01*
X269531Y817200D02*
X269767D01*
X275034Y813390D02*
Y817200D01*
X273056D02*
X275034D01*
X264747Y813390D02*
X268355D01*
X264747Y804500D02*
X268355D01*
X264747Y800690D02*
Y804500D01*
X269767Y800690D02*
X273056D01*
X268355D02*
X269531D01*
X269767D01*
X268355Y804500D02*
X269531D01*
X269767D02*
X273056D01*
Y800690D02*
X275034D01*
X269531Y804500D02*
X269767D01*
X275034Y800690D02*
Y804500D01*
X273056D02*
X275034D01*
X264747Y800690D02*
X268355D01*
X264747Y791800D02*
X268355D01*
X264747Y787990D02*
Y791800D01*
X269767Y787990D02*
X273056D01*
X268355D02*
X269531D01*
X269767D01*
X268355Y791800D02*
X269531D01*
X269767D02*
X273056D01*
Y787990D02*
X275034D01*
X269531Y791800D02*
X269767D01*
X275034Y787990D02*
Y791800D01*
X273056D02*
X275034D01*
X264747Y787990D02*
X268355D01*
X326256Y1001115D02*
Y1001124D01*
Y1047606D01*
X287267Y1001124D02*
X287267Y1001115D01*
X288537Y999854D02*
X324986D01*
X288528D02*
X288537D01*
X324986D02*
X324996D01*
X288528Y1048876D02*
X288537D01*
X287267Y1001124D02*
Y1047606D01*
X288537Y1048876D02*
X324986D01*
X287267Y1047606D02*
X287267Y1047615D01*
X324986Y1048876D02*
X324996D01*
X326256Y1047606D02*
Y1047615D01*
X276980Y1007220D02*
X280588D01*
X276980Y1003410D02*
Y1007220D01*
X282000Y1003410D02*
X285290D01*
X280588D02*
X281764D01*
X282000D01*
X280588Y1007220D02*
X281764D01*
X282000D02*
X285290D01*
Y1003410D02*
X287267D01*
X281764Y1007220D02*
X282000D01*
X287267Y1003410D02*
Y1007220D01*
X285290D02*
X287267D01*
X276980Y1003410D02*
X280588D01*
X276980Y1019920D02*
X280588D01*
X276980Y1016110D02*
Y1019920D01*
X282000Y1016110D02*
X285290D01*
X280588D02*
X281764D01*
X282000D01*
X280588Y1019920D02*
X281764D01*
X282000D02*
X285290D01*
Y1016110D02*
X287267D01*
X281764Y1019920D02*
X282000D01*
X287267Y1016110D02*
Y1019920D01*
X285290D02*
X287267D01*
X276980Y1016110D02*
X280588D01*
X276980Y1032620D02*
X280588D01*
X276980Y1028810D02*
Y1032620D01*
X282000Y1028810D02*
X285290D01*
X280588D02*
X281764D01*
X282000D01*
X280588Y1032620D02*
X281764D01*
X282000D02*
X285290D01*
Y1028810D02*
X287267D01*
X281764Y1032620D02*
X282000D01*
X287267Y1028810D02*
Y1032620D01*
X285290D02*
X287267D01*
X276980Y1028810D02*
X280588D01*
X276980Y1045320D02*
X280588D01*
X276980Y1041510D02*
Y1045320D01*
X282000Y1041510D02*
X285290D01*
X280588D02*
X281764D01*
X282000D01*
X280588Y1045320D02*
X281764D01*
X282000D02*
X285290D01*
Y1041510D02*
X287267D01*
X281764Y1045320D02*
X282000D01*
X287267Y1041510D02*
Y1045320D01*
X285290D02*
X287267D01*
X276980Y1041510D02*
X280588D01*
X332935Y1003410D02*
X336543D01*
Y1007220D01*
X328234D02*
X331523D01*
X331759D02*
X332935D01*
X331523D02*
X331759D01*
Y1003410D02*
X332935D01*
X328234D02*
X331523D01*
X326256Y1007220D02*
X328234D01*
X331523Y1003410D02*
X331759D01*
X326256D02*
Y1007220D01*
Y1003410D02*
X328234D01*
X332935Y1007220D02*
X336543D01*
X332935Y1016110D02*
X336543D01*
Y1019920D01*
X328234D02*
X331523D01*
X331759D02*
X332935D01*
X331523D02*
X331759D01*
Y1016110D02*
X332935D01*
X328234D02*
X331523D01*
X326256Y1019920D02*
X328234D01*
X331523Y1016110D02*
X331759D01*
X326256D02*
Y1019920D01*
Y1016110D02*
X328234D01*
X332935Y1019920D02*
X336543D01*
X332935Y1028810D02*
X336543D01*
Y1032620D01*
X328234D02*
X331523D01*
X331759D02*
X332935D01*
X331523D02*
X331759D01*
Y1028810D02*
X332935D01*
X328234D02*
X331523D01*
X326256Y1032620D02*
X328234D01*
X331523Y1028810D02*
X331759D01*
X326256D02*
Y1032620D01*
Y1028810D02*
X328234D01*
X332935Y1032620D02*
X336543D01*
X332935Y1041510D02*
X336543D01*
Y1045320D01*
X328234D02*
X331523D01*
X331759D02*
X332935D01*
X331523D02*
X331759D01*
Y1041510D02*
X332935D01*
X328234D02*
X331523D01*
X326256Y1045320D02*
X328234D01*
X331523Y1041510D02*
X331759D01*
X326256D02*
Y1045320D01*
Y1041510D02*
X328234D01*
X332935Y1045320D02*
X336543D01*
X238486Y998126D02*
X238495D01*
X192004D02*
X238486D01*
Y959137D02*
X238495Y959137D01*
X239756Y960407D02*
Y996856D01*
Y960398D02*
Y960407D01*
Y996856D02*
Y996866D01*
X190734Y960398D02*
Y960407D01*
X192004Y959137D02*
X238486D01*
X190734Y960407D02*
Y996856D01*
X191995Y959137D02*
X192004Y959137D01*
X190734Y996856D02*
Y996866D01*
X191995Y998126D02*
X192004D01*
X232390Y948850D02*
Y952458D01*
Y948850D02*
X236200D01*
Y953870D02*
Y957160D01*
Y952458D02*
Y953634D01*
Y953870D01*
X232390Y952458D02*
Y953634D01*
Y953870D02*
Y957160D01*
X236200D02*
Y959137D01*
X232390Y953634D02*
Y953870D01*
Y959137D02*
X236200D01*
X232390Y957160D02*
Y959137D01*
X236200Y948850D02*
Y952458D01*
X219690Y948850D02*
Y952458D01*
Y948850D02*
X223500D01*
Y953870D02*
Y957160D01*
Y952458D02*
Y953634D01*
Y953870D01*
X219690Y952458D02*
Y953634D01*
Y953870D02*
Y957160D01*
X223500D02*
Y959137D01*
X219690Y953634D02*
Y953870D01*
Y959137D02*
X223500D01*
X219690Y957160D02*
Y959137D01*
X223500Y948850D02*
Y952458D01*
X206990Y948850D02*
Y952458D01*
Y948850D02*
X210800D01*
Y953870D02*
Y957160D01*
Y952458D02*
Y953634D01*
Y953870D01*
X206990Y952458D02*
Y953634D01*
Y953870D02*
Y957160D01*
X210800D02*
Y959137D01*
X206990Y953634D02*
Y953870D01*
Y959137D02*
X210800D01*
X206990Y957160D02*
Y959137D01*
X210800Y948850D02*
Y952458D01*
X194290Y948850D02*
Y952458D01*
Y948850D02*
X198100D01*
Y953870D02*
Y957160D01*
Y952458D02*
Y953634D01*
Y953870D01*
X194290Y952458D02*
Y953634D01*
Y953870D02*
Y957160D01*
X198100D02*
Y959137D01*
X194290Y953634D02*
Y953870D01*
Y959137D02*
X198100D01*
X194290Y957160D02*
Y959137D01*
X198100Y948850D02*
Y952458D01*
X236200Y1004805D02*
Y1008413D01*
X232390D02*
X236200D01*
X232390Y1000104D02*
Y1003393D01*
Y1003629D02*
Y1004805D01*
Y1003393D02*
Y1003629D01*
X236200D02*
Y1004805D01*
Y1000104D02*
Y1003393D01*
X232390Y998126D02*
Y1000104D01*
X236200Y1003393D02*
Y1003629D01*
X232390Y998126D02*
X236200D01*
Y1000104D01*
X232390Y1004805D02*
Y1008413D01*
X223500Y1004805D02*
Y1008413D01*
X219690D02*
X223500D01*
X219690Y1000104D02*
Y1003393D01*
Y1003629D02*
Y1004805D01*
Y1003393D02*
Y1003629D01*
X223500D02*
Y1004805D01*
Y1000104D02*
Y1003393D01*
X219690Y998126D02*
Y1000104D01*
X223500Y1003393D02*
Y1003629D01*
X219690Y998126D02*
X223500D01*
Y1000104D01*
X219690Y1004805D02*
Y1008413D01*
X210800Y1004805D02*
Y1008413D01*
X206990D02*
X210800D01*
X206990Y1000104D02*
Y1003393D01*
Y1003629D02*
Y1004805D01*
Y1003393D02*
Y1003629D01*
X210800D02*
Y1004805D01*
Y1000104D02*
Y1003393D01*
X206990Y998126D02*
Y1000104D01*
X210800Y1003393D02*
Y1003629D01*
X206990Y998126D02*
X210800D01*
Y1000104D01*
X206990Y1004805D02*
Y1008413D01*
X198100Y1004805D02*
Y1008413D01*
X194290D02*
X198100D01*
X194290Y1000104D02*
Y1003393D01*
Y1003629D02*
Y1004805D01*
Y1003393D02*
Y1003629D01*
X198100D02*
Y1004805D01*
Y1000104D02*
Y1003393D01*
X194290Y998126D02*
Y1000104D01*
X198100Y1003393D02*
Y1003629D01*
X194290Y998126D02*
X198100D01*
Y1000104D01*
X194290Y1004805D02*
Y1008413D01*
X274504Y991636D02*
Y991645D01*
Y945154D02*
Y991636D01*
X313493Y991645D02*
X313493Y991636D01*
X275774Y992906D02*
X312223D01*
X312232D01*
X275764D02*
X275774D01*
X312223Y943884D02*
X312232D01*
X313493Y945154D02*
Y991636D01*
X275774Y943884D02*
X312223D01*
X313493Y945145D02*
X313493Y945154D01*
X275764Y943884D02*
X275774D01*
X274504Y945145D02*
Y945154D01*
X320172Y985540D02*
X323780D01*
Y989350D01*
X315470D02*
X318760D01*
X318996D02*
X320172D01*
X318760D02*
X318996D01*
Y985540D02*
X320172D01*
X315470D02*
X318760D01*
X313493Y989350D02*
X315470D01*
X318760Y985540D02*
X318996D01*
X313493D02*
Y989350D01*
Y985540D02*
X315470D01*
X320172Y989350D02*
X323780D01*
X320172Y972840D02*
X323780D01*
Y976650D01*
X315470D02*
X318760D01*
X318996D02*
X320172D01*
X318760D02*
X318996D01*
Y972840D02*
X320172D01*
X315470D02*
X318760D01*
X313493Y976650D02*
X315470D01*
X318760Y972840D02*
X318996D01*
X313493D02*
Y976650D01*
Y972840D02*
X315470D01*
X320172Y976650D02*
X323780D01*
X320172Y960140D02*
X323780D01*
Y963950D01*
X315470D02*
X318760D01*
X318996D02*
X320172D01*
X318760D02*
X318996D01*
Y960140D02*
X320172D01*
X315470D02*
X318760D01*
X313493Y963950D02*
X315470D01*
X318760Y960140D02*
X318996D01*
X313493D02*
Y963950D01*
Y960140D02*
X315470D01*
X320172Y963950D02*
X323780D01*
X320172Y947440D02*
X323780D01*
Y951250D01*
X315470D02*
X318760D01*
X318996D02*
X320172D01*
X318760D02*
X318996D01*
Y947440D02*
X320172D01*
X315470D02*
X318760D01*
X313493Y951250D02*
X315470D01*
X318760Y947440D02*
X318996D01*
X313493D02*
Y951250D01*
Y947440D02*
X315470D01*
X320172Y951250D02*
X323780D01*
X264217Y989350D02*
X267825D01*
X264217Y985540D02*
Y989350D01*
X269237Y985540D02*
X272526D01*
X267825D02*
X269001D01*
X269237D01*
X267825Y989350D02*
X269001D01*
X269237D02*
X272526D01*
Y985540D02*
X274504D01*
X269001Y989350D02*
X269237D01*
X274504Y985540D02*
Y989350D01*
X272526D02*
X274504D01*
X264217Y985540D02*
X267825D01*
X264217Y976650D02*
X267825D01*
X264217Y972840D02*
Y976650D01*
X269237Y972840D02*
X272526D01*
X267825D02*
X269001D01*
X269237D01*
X267825Y976650D02*
X269001D01*
X269237D02*
X272526D01*
Y972840D02*
X274504D01*
X269001Y976650D02*
X269237D01*
X274504Y972840D02*
Y976650D01*
X272526D02*
X274504D01*
X264217Y972840D02*
X267825D01*
X264217Y963950D02*
X267825D01*
X264217Y960140D02*
Y963950D01*
X269237Y960140D02*
X272526D01*
X267825D02*
X269001D01*
X269237D01*
X267825Y963950D02*
X269001D01*
X269237D02*
X272526D01*
Y960140D02*
X274504D01*
X269001Y963950D02*
X269237D01*
X274504Y960140D02*
Y963950D01*
X272526D02*
X274504D01*
X264217Y960140D02*
X267825D01*
X264217Y951250D02*
X267825D01*
X264217Y947440D02*
Y951250D01*
X269237Y947440D02*
X272526D01*
X267825D02*
X269001D01*
X269237D01*
X267825Y951250D02*
X269001D01*
X269237D02*
X272526D01*
Y947440D02*
X274504D01*
X269001Y951250D02*
X269237D01*
X274504Y947440D02*
Y951250D01*
X272526D02*
X274504D01*
X264217Y947440D02*
X267825D01*
X209074Y1293196D02*
Y1293205D01*
Y1246714D02*
Y1293196D01*
X248063Y1293205D02*
X248063Y1293196D01*
X210344Y1294466D02*
X246793D01*
X246802D01*
X210334D02*
X210344D01*
X246793Y1245444D02*
X246802D01*
X248063Y1246714D02*
Y1293196D01*
X210344Y1245444D02*
X246793D01*
X248063Y1246705D02*
X248063Y1246714D01*
X210334Y1245444D02*
X210344D01*
X209074Y1246705D02*
Y1246714D01*
X254742Y1287100D02*
X258350D01*
Y1290910D01*
X250040D02*
X253330D01*
X253566D02*
X254742D01*
X253330D02*
X253566D01*
Y1287100D02*
X254742D01*
X250040D02*
X253330D01*
X248063Y1290910D02*
X250040D01*
X253330Y1287100D02*
X253566D01*
X248063D02*
Y1290910D01*
Y1287100D02*
X250040D01*
X254742Y1290910D02*
X258350D01*
X254742Y1274400D02*
X258350D01*
Y1278210D01*
X250040D02*
X253330D01*
X253566D02*
X254742D01*
X253330D02*
X253566D01*
Y1274400D02*
X254742D01*
X250040D02*
X253330D01*
X248063Y1278210D02*
X250040D01*
X253330Y1274400D02*
X253566D01*
X248063D02*
Y1278210D01*
Y1274400D02*
X250040D01*
X254742Y1278210D02*
X258350D01*
X254742Y1261700D02*
X258350D01*
Y1265510D01*
X250040D02*
X253330D01*
X253566D02*
X254742D01*
X253330D02*
X253566D01*
Y1261700D02*
X254742D01*
X250040D02*
X253330D01*
X248063Y1265510D02*
X250040D01*
X253330Y1261700D02*
X253566D01*
X248063D02*
Y1265510D01*
Y1261700D02*
X250040D01*
X254742Y1265510D02*
X258350D01*
X254742Y1249000D02*
X258350D01*
Y1252810D01*
X250040D02*
X253330D01*
X253566D02*
X254742D01*
X253330D02*
X253566D01*
Y1249000D02*
X254742D01*
X250040D02*
X253330D01*
X248063Y1252810D02*
X250040D01*
X253330Y1249000D02*
X253566D01*
X248063D02*
Y1252810D01*
Y1249000D02*
X250040D01*
X254742Y1252810D02*
X258350D01*
X198787Y1290910D02*
X202395D01*
X198787Y1287100D02*
Y1290910D01*
X203807Y1287100D02*
X207096D01*
X202395D02*
X203571D01*
X203807D01*
X202395Y1290910D02*
X203571D01*
X203807D02*
X207096D01*
Y1287100D02*
X209074D01*
X203571Y1290910D02*
X203807D01*
X209074Y1287100D02*
Y1290910D01*
X207096D02*
X209074D01*
X198787Y1287100D02*
X202395D01*
X198787Y1278210D02*
X202395D01*
X198787Y1274400D02*
Y1278210D01*
X203807Y1274400D02*
X207096D01*
X202395D02*
X203571D01*
X203807D01*
X202395Y1278210D02*
X203571D01*
X203807D02*
X207096D01*
Y1274400D02*
X209074D01*
X203571Y1278210D02*
X203807D01*
X209074Y1274400D02*
Y1278210D01*
X207096D02*
X209074D01*
X198787Y1274400D02*
X202395D01*
X198787Y1265510D02*
X202395D01*
X198787Y1261700D02*
Y1265510D01*
X203807Y1261700D02*
X207096D01*
X202395D02*
X203571D01*
X203807D01*
X202395Y1265510D02*
X203571D01*
X203807D02*
X207096D01*
Y1261700D02*
X209074D01*
X203571Y1265510D02*
X203807D01*
X209074Y1261700D02*
Y1265510D01*
X207096D02*
X209074D01*
X198787Y1261700D02*
X202395D01*
X198787Y1252810D02*
X202395D01*
X198787Y1249000D02*
Y1252810D01*
X203807Y1249000D02*
X207096D01*
X202395D02*
X203571D01*
X203807D01*
X202395Y1252810D02*
X203571D01*
X203807D02*
X207096D01*
Y1249000D02*
X209074D01*
X203571Y1252810D02*
X203807D01*
X209074Y1249000D02*
Y1252810D01*
X207096D02*
X209074D01*
X198787Y1249000D02*
X202395D01*
M02*
