G04*
G04 #@! TF.GenerationSoftware,Altium Limited,Altium Designer,22.9.1 (49)*
G04*
G04 Layer_Physical_Order=2*
G04 Layer_Color=8242323*
%FSLAX44Y44*%
%MOMM*%
G71*
G04*
G04 #@! TF.SameCoordinates,8F63C570-54D5-4499-9E48-9139C11257B1*
G04*
G04*
G04 #@! TF.FilePolarity,Positive*
G04*
G01*
G75*
%ADD22C,1.5000*%
%ADD23R,1.5000X1.5000*%
%ADD24C,0.6350*%
G36*
X210820Y25400D02*
X22462D01*
X21655Y25866D01*
X19102Y26550D01*
X16458D01*
X13905Y25866D01*
X13098Y25400D01*
X5469D01*
X4983Y26573D01*
X5080Y26670D01*
Y181610D01*
X210820D01*
Y25400D01*
D02*
G37*
%LPC*%
G36*
X19102Y153550D02*
X16458D01*
X13905Y152866D01*
X11615Y151544D01*
X9746Y149675D01*
X8424Y147385D01*
X7740Y144832D01*
Y142188D01*
X8424Y139635D01*
X9746Y137345D01*
X11615Y135476D01*
X13905Y134154D01*
X16458Y133470D01*
X19102D01*
X21655Y134154D01*
X23945Y135476D01*
X25814Y137345D01*
X27136Y139635D01*
X27820Y142188D01*
Y144832D01*
X27136Y147385D01*
X25814Y149675D01*
X23945Y151544D01*
X21655Y152866D01*
X19102Y153550D01*
D02*
G37*
G36*
Y128150D02*
X16458D01*
X13905Y127466D01*
X11615Y126144D01*
X9746Y124275D01*
X8424Y121985D01*
X7740Y119432D01*
Y116788D01*
X8424Y114235D01*
X9746Y111945D01*
X11615Y110076D01*
X13905Y108754D01*
X16458Y108070D01*
X19102D01*
X21655Y108754D01*
X23945Y110076D01*
X25814Y111945D01*
X27136Y114235D01*
X27820Y116788D01*
Y119432D01*
X27136Y121985D01*
X25814Y124275D01*
X23945Y126144D01*
X21655Y127466D01*
X19102Y128150D01*
D02*
G37*
G36*
Y102750D02*
X16458D01*
X13905Y102066D01*
X11615Y100744D01*
X9746Y98875D01*
X8424Y96585D01*
X7740Y94032D01*
Y91388D01*
X8424Y88835D01*
X9746Y86545D01*
X11615Y84676D01*
X13905Y83354D01*
X16458Y82670D01*
X19102D01*
X21655Y83354D01*
X23945Y84676D01*
X25814Y86545D01*
X27136Y88835D01*
X27820Y91388D01*
Y94032D01*
X27136Y96585D01*
X25814Y98875D01*
X23945Y100744D01*
X21655Y102066D01*
X19102Y102750D01*
D02*
G37*
G36*
Y77350D02*
X16458D01*
X13905Y76666D01*
X11615Y75344D01*
X9746Y73475D01*
X8424Y71185D01*
X7740Y68632D01*
Y65988D01*
X8424Y63435D01*
X9746Y61145D01*
X11615Y59276D01*
X13905Y57954D01*
X16458Y57270D01*
X19102D01*
X21655Y57954D01*
X23945Y59276D01*
X25814Y61145D01*
X27136Y63435D01*
X27820Y65988D01*
Y68632D01*
X27136Y71185D01*
X25814Y73475D01*
X23945Y75344D01*
X21655Y76666D01*
X19102Y77350D01*
D02*
G37*
G36*
Y51950D02*
X16458D01*
X13905Y51266D01*
X11615Y49944D01*
X9746Y48075D01*
X8424Y45785D01*
X7740Y43232D01*
Y40588D01*
X8424Y38035D01*
X9746Y35745D01*
X11615Y33876D01*
X13905Y32554D01*
X16458Y31870D01*
X19102D01*
X21655Y32554D01*
X23945Y33876D01*
X25814Y35745D01*
X27136Y38035D01*
X27820Y40588D01*
Y43232D01*
X27136Y45785D01*
X25814Y48075D01*
X23945Y49944D01*
X21655Y51266D01*
X19102Y51950D01*
D02*
G37*
%LPD*%
D22*
X17780Y16510D02*
D03*
Y41910D02*
D03*
Y67310D02*
D03*
Y92710D02*
D03*
Y143510D02*
D03*
Y118110D02*
D03*
D23*
Y168910D02*
D03*
D24*
X180340Y61040D02*
D03*
X195580Y60960D02*
D03*
X83820Y83820D02*
D03*
X195580Y119380D02*
D03*
X180340Y102870D02*
D03*
M02*
