G04*
G04 #@! TF.GenerationSoftware,Altium Limited,Altium Designer,22.9.1 (49)*
G04*
G04 Layer_Physical_Order=1*
G04 Layer_Color=10066410*
%FSLAX44Y44*%
%MOMM*%
G71*
G04*
G04 #@! TF.SameCoordinates,8F63C570-54D5-4499-9E48-9139C11257B1*
G04*
G04*
G04 #@! TF.FilePolarity,Positive*
G04*
G01*
G75*
%ADD13O,2.0000X0.3000*%
%ADD14R,0.6000X0.5000*%
%ADD20C,0.3810*%
%ADD21C,0.2540*%
%ADD22C,1.5000*%
%ADD23R,1.5000X1.5000*%
%ADD24C,0.6350*%
D13*
X156890Y82710D02*
D03*
Y87710D02*
D03*
Y92710D02*
D03*
Y97710D02*
D03*
Y102710D02*
D03*
X114890Y82710D02*
D03*
Y87710D02*
D03*
Y92710D02*
D03*
Y97710D02*
D03*
Y102710D02*
D03*
D14*
X156210Y63420D02*
D03*
Y53420D02*
D03*
X180340Y73740D02*
D03*
Y83740D02*
D03*
X195580Y73740D02*
D03*
Y83740D02*
D03*
Y107870D02*
D03*
Y97870D02*
D03*
D20*
X197961Y83145D02*
X203200Y77906D01*
Y57804D02*
Y77906D01*
X198736Y53340D02*
X203200Y57804D01*
X178061Y53340D02*
X198736D01*
X177981Y53420D02*
X178061Y53340D01*
X156210Y53420D02*
X177981D01*
X196175Y83145D02*
X197961D01*
X195580Y83740D02*
X196175Y83145D01*
X17780Y16510D02*
X118800D01*
X155710Y53420D01*
X156210D01*
D21*
X180340Y61040D02*
Y73740D01*
X195580Y60960D02*
Y73740D01*
X17780Y143510D02*
X129540D01*
X156890Y116160D01*
Y102710D02*
Y116160D01*
X83820Y83820D02*
X87400Y87400D01*
X114580D02*
X114890Y87710D01*
X87400Y87400D02*
X114580D01*
X195580Y107870D02*
Y119380D01*
X175180Y97710D02*
X180340Y102870D01*
X156890Y87710D02*
X175870D01*
X156890Y92710D02*
X189920D01*
X179840Y83740D02*
X180340D01*
X175870Y87710D02*
X179840Y83740D01*
X189920Y92710D02*
X195080Y97870D01*
X180340Y83740D02*
X195580D01*
X156890Y97710D02*
X175180D01*
X195080Y97870D02*
X195580D01*
X156210Y63420D02*
X156890Y64100D01*
Y82710D01*
X17780Y41910D02*
X55880D01*
X96680Y82710D01*
X33180Y102710D02*
X114890D01*
X17780Y118110D02*
X33180Y102710D01*
X21152Y92710D02*
X26152Y97710D01*
X114890D01*
X17780Y92710D02*
X21152D01*
X17780Y67310D02*
X43180Y92710D01*
X114890D01*
X96680Y82710D02*
X114890D01*
D22*
X17780Y16510D02*
D03*
Y41910D02*
D03*
Y67310D02*
D03*
Y92710D02*
D03*
Y143510D02*
D03*
Y118110D02*
D03*
D23*
Y168910D02*
D03*
D24*
X180340Y61040D02*
D03*
X195580Y60960D02*
D03*
X83820Y83820D02*
D03*
X195580Y119380D02*
D03*
X180340Y102870D02*
D03*
M02*
