G04*
G04 #@! TF.GenerationSoftware,Altium Limited,Altium Designer,22.9.1 (49)*
G04*
G04 Layer_Color=65535*
%FSLAX44Y44*%
%MOMM*%
G71*
G04*
G04 #@! TF.SameCoordinates,8F63C570-54D5-4499-9E48-9139C11257B1*
G04*
G04*
G04 #@! TF.FilePolarity,Positive*
G04*
G01*
G75*
%ADD10C,0.2500*%
%ADD11C,0.2000*%
%ADD12C,0.0500*%
D10*
X158140Y75710D02*
G03*
X158140Y75710I-1250J0D01*
G01*
X38741Y17302D02*
X40407Y18968D01*
X43739D01*
X45406Y17302D01*
Y15636D01*
X43739Y13970D01*
X42073D01*
X43739D01*
X45406Y12304D01*
Y10638D01*
X43739Y8972D01*
X40407D01*
X38741Y10638D01*
X48738Y18968D02*
Y12304D01*
X52070Y8972D01*
X55402Y12304D01*
Y18968D01*
X58734Y17302D02*
X60401Y18968D01*
X63733D01*
X65399Y17302D01*
Y15636D01*
X63733Y13970D01*
X62067D01*
X63733D01*
X65399Y12304D01*
Y10638D01*
X63733Y8972D01*
X60401D01*
X58734Y10638D01*
X42469Y44368D02*
X39137D01*
X37471Y42702D01*
Y36038D01*
X39137Y34372D01*
X42469D01*
X44135Y36038D01*
Y42702D01*
X42469Y44368D01*
X47468D02*
Y36038D01*
X49134Y34372D01*
X52466D01*
X54132Y36038D01*
Y44368D01*
X57464D02*
X64129D01*
X60797D01*
Y34372D01*
X44299Y72308D02*
X37634D01*
Y67310D01*
X40966D01*
X37634D01*
Y62312D01*
X54296Y70642D02*
X52629Y72308D01*
X49297D01*
X47631Y70642D01*
Y68976D01*
X49297Y67310D01*
X52629D01*
X54296Y65644D01*
Y63978D01*
X52629Y62312D01*
X49297D01*
X47631Y63978D01*
X57628Y72308D02*
Y70642D01*
X60960Y67310D01*
X64292Y70642D01*
Y72308D01*
X60960Y67310D02*
Y62312D01*
X67625D02*
Y72308D01*
X74289Y62312D01*
Y72308D01*
X84286Y70642D02*
X82620Y72308D01*
X79287D01*
X77621Y70642D01*
Y63978D01*
X79287Y62312D01*
X82620D01*
X84286Y63978D01*
X44217Y97312D02*
X42551Y98978D01*
X39219D01*
X37553Y97312D01*
Y95646D01*
X39219Y93980D01*
X42551D01*
X44217Y92314D01*
Y90648D01*
X42551Y88982D01*
X39219D01*
X37553Y90648D01*
X54214Y97312D02*
X52548Y98978D01*
X49215D01*
X47549Y97312D01*
Y90648D01*
X49215Y88982D01*
X52548D01*
X54214Y90648D01*
X57546Y98978D02*
Y88982D01*
X64211D01*
X67543Y98978D02*
Y88982D01*
Y92314D01*
X74207Y98978D01*
X69209Y93980D01*
X74207Y88982D01*
X44217Y122712D02*
X42551Y124378D01*
X39219D01*
X37553Y122712D01*
Y121046D01*
X39219Y119380D01*
X42551D01*
X44217Y117714D01*
Y116048D01*
X42551Y114382D01*
X39219D01*
X37553Y116048D01*
X47549Y124378D02*
Y114382D01*
X52548D01*
X54214Y116048D01*
Y122712D01*
X52548Y124378D01*
X47549D01*
X57546Y114382D02*
Y121046D01*
X60878Y124378D01*
X64211Y121046D01*
Y114382D01*
Y119380D01*
X57546D01*
X67543Y124378D02*
X74207D01*
X70875D01*
Y114382D01*
X37634Y148071D02*
Y138075D01*
X42633D01*
X44299Y139741D01*
Y146405D01*
X42633Y148071D01*
X37634D01*
X47631Y136409D02*
X54296D01*
X64292Y146405D02*
X62626Y148071D01*
X59294D01*
X57628Y146405D01*
Y139741D01*
X59294Y138075D01*
X62626D01*
X64292Y139741D01*
X67625Y148071D02*
Y138075D01*
X74289D01*
X77621Y148071D02*
Y138075D01*
Y141407D01*
X84286Y148071D01*
X79287Y143073D01*
X84286Y138075D01*
X44135Y172242D02*
X42469Y173908D01*
X39137D01*
X37471Y172242D01*
Y165578D01*
X39137Y163912D01*
X42469D01*
X44135Y165578D01*
Y168910D01*
X40803D01*
X47468Y163912D02*
Y173908D01*
X54132Y163912D01*
Y173908D01*
X57464D02*
Y163912D01*
X62463D01*
X64129Y165578D01*
Y172242D01*
X62463Y173908D01*
X57464D01*
X105969Y128188D02*
Y119858D01*
X107635Y118192D01*
X110968D01*
X112634Y119858D01*
Y128188D01*
X115966Y126522D02*
X117632Y128188D01*
X120964D01*
X122631Y126522D01*
Y124856D01*
X120964Y123190D01*
X122631Y121524D01*
Y119858D01*
X120964Y118192D01*
X117632D01*
X115966Y119858D01*
Y121524D01*
X117632Y123190D01*
X115966Y124856D01*
Y126522D01*
X117632Y123190D02*
X120964D01*
X151608Y21275D02*
X149942Y19609D01*
Y16277D01*
X151608Y14611D01*
X158272D01*
X159938Y16277D01*
Y19609D01*
X158272Y21275D01*
X159938Y31272D02*
Y24608D01*
X153274Y31272D01*
X151608D01*
X149942Y29606D01*
Y26274D01*
X151608Y24608D01*
X149942Y34604D02*
Y41269D01*
X151608D01*
X158272Y34604D01*
X159938D01*
X177008Y32706D02*
X175342Y31039D01*
Y27707D01*
X177008Y26041D01*
X183672D01*
X185338Y27707D01*
Y31039D01*
X183672Y32706D01*
X185338Y42702D02*
Y36038D01*
X178674Y42702D01*
X177008D01*
X175342Y41036D01*
Y37704D01*
X177008Y36038D01*
X183672Y46034D02*
X185338Y47701D01*
Y51033D01*
X183672Y52699D01*
X177008D01*
X175342Y51033D01*
Y47701D01*
X177008Y46034D01*
X178674D01*
X180340Y47701D01*
Y52699D01*
X192248Y32706D02*
X190582Y31039D01*
Y27707D01*
X192248Y26041D01*
X198912D01*
X200578Y27707D01*
Y31039D01*
X198912Y32706D01*
X200578Y42702D02*
Y36038D01*
X193914Y42702D01*
X192248D01*
X190582Y41036D01*
Y37704D01*
X192248Y36038D01*
Y46034D02*
X190582Y47701D01*
Y51033D01*
X192248Y52699D01*
X193914D01*
X195580Y51033D01*
X197246Y52699D01*
X198912D01*
X200578Y51033D01*
Y47701D01*
X198912Y46034D01*
X197246D01*
X195580Y47701D01*
X193914Y46034D01*
X192248D01*
X195580Y47701D02*
Y51033D01*
X192248Y140655D02*
X190582Y138989D01*
Y135657D01*
X192248Y133991D01*
X198912D01*
X200578Y135657D01*
Y138989D01*
X198912Y140655D01*
X192248Y143988D02*
X190582Y145654D01*
Y148986D01*
X192248Y150652D01*
X193914D01*
X195580Y148986D01*
Y147320D01*
Y148986D01*
X197246Y150652D01*
X198912D01*
X200578Y148986D01*
Y145654D01*
X198912Y143988D01*
X192248Y153984D02*
X190582Y155651D01*
Y158983D01*
X192248Y160649D01*
X198912D01*
X200578Y158983D01*
Y155651D01*
X198912Y153984D01*
X192248D01*
D11*
X142890Y77210D02*
Y108210D01*
X128890Y77210D02*
Y108210D01*
Y77210D02*
X142890D01*
X128890Y108210D02*
X142890D01*
X30480Y3810D02*
Y181610D01*
X5080D02*
X30480D01*
X5080Y3810D02*
Y181610D01*
Y3810D02*
X30480D01*
D12*
X150210Y68920D02*
X156210D01*
X150210Y47920D02*
Y68920D01*
Y47920D02*
X162210D01*
Y68920D01*
X156210D02*
X162210D01*
X180340Y68240D02*
X186340D01*
Y89240D01*
X174340D02*
X186340D01*
X174340Y68240D02*
Y89240D01*
Y68240D02*
X180340D01*
X195580D02*
X201580D01*
Y89240D01*
X189580D02*
X201580D01*
X189580Y68240D02*
Y89240D01*
Y68240D02*
X195580D01*
X189580Y113370D02*
X195580D01*
X189580Y92370D02*
Y113370D01*
Y92370D02*
X201580D01*
Y113370D01*
X195580D02*
X201580D01*
M02*
