G04*
G04 #@! TF.GenerationSoftware,Altium Limited,Altium Designer,22.9.1 (49)*
G04*
G04 Layer_Color=65535*
%FSLAX44Y44*%
%MOMM*%
G71*
G04*
G04 #@! TF.SameCoordinates,B494E0AD-35FF-4286-8297-05C0B8817D61*
G04*
G04*
G04 #@! TF.FilePolarity,Positive*
G04*
G01*
G75*
%ADD10C,0.2500*%
%ADD11C,0.0500*%
%ADD12C,0.2000*%
%ADD13C,0.1016*%
%ADD14C,0.2540*%
D10*
X214740Y247870D02*
G03*
X214740Y247870I-1250J0D01*
G01*
X290515Y50718D02*
X297180Y40722D01*
Y50718D02*
X290515Y40722D01*
X300512D02*
X303845D01*
X302178D01*
Y50718D01*
X300512Y49052D01*
X318456Y83902D02*
Y93898D01*
X323454D01*
X325120Y92232D01*
Y88900D01*
X323454Y87234D01*
X318456D01*
X321788D02*
X325120Y83902D01*
X328452D02*
X331785D01*
X330118D01*
Y93898D01*
X328452Y92232D01*
X213603Y269310D02*
Y260979D01*
X215269Y259313D01*
X218601D01*
X220268Y260979D01*
Y269310D01*
X223600Y259313D02*
X226932D01*
X225266D01*
Y269310D01*
X223600Y267644D01*
X145339Y246462D02*
Y256458D01*
X150338D01*
X152004Y254792D01*
Y251460D01*
X150338Y249794D01*
X145339D01*
X148672D02*
X152004Y246462D01*
X162001D02*
X155336D01*
X162001Y253126D01*
Y254792D01*
X160334Y256458D01*
X157002D01*
X155336Y254792D01*
X212649Y110572D02*
Y120568D01*
X217648D01*
X219314Y118902D01*
Y115570D01*
X217648Y113904D01*
X212649D01*
X215982D02*
X219314Y110572D01*
X222646Y118902D02*
X224312Y120568D01*
X227645D01*
X229311Y118902D01*
Y117236D01*
X227645Y115570D01*
X225978D01*
X227645D01*
X229311Y113904D01*
Y112238D01*
X227645Y110572D01*
X224312D01*
X222646Y112238D01*
X339649Y92792D02*
Y102788D01*
X344648D01*
X346314Y101122D01*
Y97790D01*
X344648Y96124D01*
X339649D01*
X342982D02*
X346314Y92792D01*
X354645D02*
Y102788D01*
X349646Y97790D01*
X356311D01*
X359410Y162082D02*
X357744Y163748D01*
X354412D01*
X352746Y162082D01*
Y155418D01*
X354412Y153752D01*
X357744D01*
X359410Y155418D01*
X362742Y153752D02*
X366074D01*
X364408D01*
Y163748D01*
X362742Y162082D01*
X311709Y157562D02*
Y167558D01*
X316708D01*
X318374Y165892D01*
Y162560D01*
X316708Y160894D01*
X311709D01*
X315042D02*
X318374Y157562D01*
X328371Y167558D02*
X321706D01*
Y162560D01*
X325038Y164226D01*
X326704D01*
X328371Y162560D01*
Y159228D01*
X326704Y157562D01*
X323372D01*
X321706Y159228D01*
X156769Y261702D02*
Y271698D01*
X161768D01*
X163434Y270032D01*
Y266700D01*
X161768Y265034D01*
X156769D01*
X160102D02*
X163434Y261702D01*
X173431Y271698D02*
X170098Y270032D01*
X166766Y266700D01*
Y263368D01*
X168432Y261702D01*
X171765D01*
X173431Y263368D01*
Y265034D01*
X171765Y266700D01*
X166766D01*
X207528Y290352D02*
X205862Y292018D01*
X202530D01*
X200864Y290352D01*
Y283688D01*
X202530Y282022D01*
X205862D01*
X207528Y283688D01*
X210861Y282022D02*
X214193D01*
X212527D01*
Y292018D01*
X210861Y290352D01*
X225856Y292018D02*
X219191D01*
Y287020D01*
X222524Y288686D01*
X224190D01*
X225856Y287020D01*
Y283688D01*
X224190Y282022D01*
X220858D01*
X219191Y283688D01*
X173239Y126522D02*
X171572Y128188D01*
X168240D01*
X166574Y126522D01*
Y119858D01*
X168240Y118192D01*
X171572D01*
X173239Y119858D01*
X176571Y118192D02*
X179903D01*
X178237D01*
Y128188D01*
X176571Y126522D01*
X189900Y118192D02*
Y128188D01*
X184902Y123190D01*
X191566D01*
X333259Y304322D02*
X331592Y305988D01*
X328260D01*
X326594Y304322D01*
Y297658D01*
X328260Y295992D01*
X331592D01*
X333259Y297658D01*
X336591Y295992D02*
X339923D01*
X338257D01*
Y305988D01*
X336591Y304322D01*
X344921D02*
X346588Y305988D01*
X349920D01*
X351586Y304322D01*
Y302656D01*
X349920Y300990D01*
X348254D01*
X349920D01*
X351586Y299324D01*
Y297658D01*
X349920Y295992D01*
X346588D01*
X344921Y297658D01*
X384058Y254792D02*
X382392Y256458D01*
X379060D01*
X377394Y254792D01*
Y248128D01*
X379060Y246462D01*
X382392D01*
X384058Y248128D01*
X387391Y246462D02*
X390723D01*
X389057D01*
Y256458D01*
X387391Y254792D01*
X402386Y246462D02*
X395722D01*
X402386Y253126D01*
Y254792D01*
X400720Y256458D01*
X397388D01*
X395722Y254792D01*
X353975Y284002D02*
X352309Y285668D01*
X348976D01*
X347310Y284002D01*
Y277338D01*
X348976Y275672D01*
X352309D01*
X353975Y277338D01*
X357307Y275672D02*
X360639D01*
X358973D01*
Y285668D01*
X357307Y284002D01*
X365638Y275672D02*
X368970D01*
X367304D01*
Y285668D01*
X365638Y284002D01*
X367548Y212882D02*
X365882Y214548D01*
X362550D01*
X360884Y212882D01*
Y206218D01*
X362550Y204552D01*
X365882D01*
X367548Y206218D01*
X370881Y204552D02*
X374213D01*
X372547D01*
Y214548D01*
X370881Y212882D01*
X379212D02*
X380878Y214548D01*
X384210D01*
X385876Y212882D01*
Y206218D01*
X384210Y204552D01*
X380878D01*
X379212Y206218D01*
Y212882D01*
X367904Y187482D02*
X366238Y189148D01*
X362906D01*
X361239Y187482D01*
Y180818D01*
X362906Y179152D01*
X366238D01*
X367904Y180818D01*
X371236D02*
X372902Y179152D01*
X376235D01*
X377901Y180818D01*
Y187482D01*
X376235Y189148D01*
X372902D01*
X371236Y187482D01*
Y185816D01*
X372902Y184150D01*
X377901D01*
X265034Y99852D02*
X263368Y101518D01*
X260035D01*
X258369Y99852D01*
Y93188D01*
X260035Y91522D01*
X263368D01*
X265034Y93188D01*
X268366Y99852D02*
X270032Y101518D01*
X273365D01*
X275031Y99852D01*
Y98186D01*
X273365Y96520D01*
X275031Y94854D01*
Y93188D01*
X273365Y91522D01*
X270032D01*
X268366Y93188D01*
Y94854D01*
X270032Y96520D01*
X268366Y98186D01*
Y99852D01*
X270032Y96520D02*
X273365D01*
X345044Y132872D02*
X343378Y134538D01*
X340046D01*
X338379Y132872D01*
Y126208D01*
X340046Y124542D01*
X343378D01*
X345044Y126208D01*
X348376Y134538D02*
X355041D01*
Y132872D01*
X348376Y126208D01*
Y124542D01*
X242174Y110012D02*
X240508Y111678D01*
X237176D01*
X235509Y110012D01*
Y103348D01*
X237176Y101682D01*
X240508D01*
X242174Y103348D01*
X252171Y111678D02*
X248838Y110012D01*
X245506Y106680D01*
Y103348D01*
X247172Y101682D01*
X250504D01*
X252171Y103348D01*
Y105014D01*
X250504Y106680D01*
X245506D01*
X153274Y170972D02*
X151608Y172638D01*
X148275D01*
X146609Y170972D01*
Y164308D01*
X148275Y162642D01*
X151608D01*
X153274Y164308D01*
X163271Y172638D02*
X156606D01*
Y167640D01*
X159938Y169306D01*
X161604D01*
X163271Y167640D01*
Y164308D01*
X161604Y162642D01*
X158272D01*
X156606Y164308D01*
X154544Y205262D02*
X152878Y206928D01*
X149545D01*
X147879Y205262D01*
Y198598D01*
X149545Y196932D01*
X152878D01*
X154544Y198598D01*
X162875Y196932D02*
Y206928D01*
X157876Y201930D01*
X164541D01*
X138034Y238282D02*
X136368Y239948D01*
X133035D01*
X131369Y238282D01*
Y231618D01*
X133035Y229952D01*
X136368D01*
X138034Y231618D01*
X141366Y238282D02*
X143032Y239948D01*
X146364D01*
X148031Y238282D01*
Y236616D01*
X146364Y234950D01*
X144698D01*
X146364D01*
X148031Y233284D01*
Y231618D01*
X146364Y229952D01*
X143032D01*
X141366Y231618D01*
X284084Y308132D02*
X282418Y309798D01*
X279086D01*
X277419Y308132D01*
Y301468D01*
X279086Y299802D01*
X282418D01*
X284084Y301468D01*
X294081Y299802D02*
X287416D01*
X294081Y306466D01*
Y308132D01*
X292414Y309798D01*
X289082D01*
X287416Y308132D01*
D11*
X305140Y97790D02*
Y103790D01*
X284140D02*
X305140D01*
X284140Y91790D02*
Y103790D01*
Y91790D02*
X305140D01*
Y97790D01*
X202270Y232410D02*
Y238410D01*
X181270D02*
X202270D01*
X181270Y226410D02*
Y238410D01*
Y226410D02*
X202270D01*
Y232410D01*
X225140Y147660D02*
X231140D01*
X225140Y126660D02*
Y147660D01*
Y126660D02*
X237140D01*
Y147660D01*
X231140D02*
X237140D01*
X329270Y109220D02*
Y115220D01*
X308270D02*
X329270D01*
X308270Y103220D02*
Y115220D01*
Y103220D02*
X329270D01*
Y109220D01*
X326050Y141320D02*
Y147320D01*
Y141320D02*
X347050D01*
Y153320D01*
X326050D02*
X347050D01*
X326050Y147320D02*
Y153320D01*
X303190Y141320D02*
Y147320D01*
Y141320D02*
X324190D01*
Y153320D01*
X303190D02*
X324190D01*
X303190Y147320D02*
Y153320D01*
X186350Y239110D02*
Y245110D01*
Y239110D02*
X207350D01*
Y251110D01*
X186350D02*
X207350D01*
X186350Y245110D02*
Y251110D01*
X187620Y264510D02*
Y270510D01*
Y264510D02*
X208620D01*
Y276510D01*
X187620D02*
X208620D01*
X187620Y270510D02*
Y276510D01*
X204470Y129200D02*
X210470D01*
Y150200D01*
X198470D02*
X210470D01*
X198470Y129200D02*
Y150200D01*
Y129200D02*
X204470D01*
X321650Y288290D02*
Y294290D01*
X300650D02*
X321650D01*
X300650Y282290D02*
Y294290D01*
Y282290D02*
X321650D01*
Y288290D01*
X353410Y253070D02*
X359410D01*
X353410Y232070D02*
Y253070D01*
Y232070D02*
X365410D01*
Y253070D01*
X359410D02*
X365410D01*
X333090Y268310D02*
X339090D01*
X333090Y247310D02*
Y268310D01*
Y247310D02*
X345090D01*
Y268310D01*
X339090D02*
X345090D01*
X331820Y212430D02*
X337820D01*
X331820Y191430D02*
Y212430D01*
Y191430D02*
X343820D01*
Y212430D01*
X337820D02*
X343820D01*
X331820Y190840D02*
X337820D01*
X331820Y169840D02*
Y190840D01*
Y169840D02*
X343820D01*
Y190840D01*
X337820D02*
X343820D01*
X283550Y120650D02*
Y126650D01*
X262550D02*
X283550D01*
X262550Y114650D02*
Y126650D01*
Y114650D02*
X283550D01*
Y120650D01*
X316230Y119040D02*
X322230D01*
Y140040D01*
X310230D02*
X322230D01*
X310230Y119040D02*
Y140040D01*
Y119040D02*
X316230D01*
X238420Y127350D02*
Y133350D01*
Y127350D02*
X259420D01*
Y139350D01*
X238420D02*
X259420D01*
X238420Y133350D02*
Y139350D01*
X186690Y163490D02*
X192690D01*
Y184490D01*
X180690D02*
X192690D01*
X180690Y163490D02*
Y184490D01*
Y163490D02*
X186690D01*
X187960Y199130D02*
X193960D01*
Y220130D01*
X181960D02*
X193960D01*
X181960Y199130D02*
Y220130D01*
Y199130D02*
X187960D01*
X167990Y237830D02*
X173990D01*
X167990Y216830D02*
Y237830D01*
Y216830D02*
X179990D01*
Y237830D01*
X173990D02*
X179990D01*
X258160Y298790D02*
X264160D01*
X258160Y277790D02*
Y298790D01*
Y277790D02*
X270160D01*
Y298790D01*
X264160D02*
X270160D01*
D12*
X69850Y267970D02*
Y344170D01*
Y267970D02*
X95250D01*
Y344170D01*
X69850D02*
X95250D01*
X441960Y114300D02*
X467360D01*
X441960D02*
Y165100D01*
X467360D01*
Y114300D02*
Y165100D01*
X299740Y249370D02*
X303990D01*
Y245120D02*
Y249370D01*
X299740Y165370D02*
X303990D01*
Y169620D01*
X219990Y165370D02*
X224240D01*
X219990D02*
Y169620D01*
Y249370D02*
X224240D01*
X219990Y245120D02*
Y249370D01*
X441960Y190500D02*
X467360D01*
X441960D02*
Y241300D01*
X467360D01*
Y190500D02*
Y241300D01*
X15240Y162560D02*
X40640D01*
X15240D02*
Y213360D01*
X40640D01*
Y162560D02*
Y213360D01*
X15240Y91440D02*
X40640D01*
X15240D02*
Y142240D01*
X40640D01*
Y91440D02*
Y142240D01*
X161290Y364490D02*
Y389890D01*
X364490D01*
Y364490D02*
Y389890D01*
X161290Y364490D02*
X364490D01*
X441960Y259080D02*
X467360D01*
X441960D02*
Y360680D01*
X467360Y259080D02*
Y360680D01*
X441960D02*
X467360D01*
D13*
X483448Y346711D02*
Y351789D01*
X485987D01*
X486834Y350943D01*
Y349250D01*
X485987Y348404D01*
X483448D01*
X488526Y350943D02*
X489373Y351789D01*
X491066D01*
X491912Y350943D01*
Y350096D01*
X491066Y349250D01*
X490219D01*
X491066D01*
X491912Y348404D01*
Y347557D01*
X491066Y346711D01*
X489373D01*
X488526Y347557D01*
X482178Y321311D02*
Y326389D01*
X484717D01*
X485564Y325543D01*
Y323850D01*
X484717Y323004D01*
X482178D01*
X490642Y321311D02*
X487256D01*
X490642Y324696D01*
Y325543D01*
X489796Y326389D01*
X488103D01*
X487256Y325543D01*
X483024Y294641D02*
Y299719D01*
X485564D01*
X486410Y298873D01*
Y297180D01*
X485564Y296334D01*
X483024D01*
X488103Y294641D02*
X489796D01*
X488949D01*
Y299719D01*
X488103Y298873D01*
X482178Y269241D02*
Y274319D01*
X484717D01*
X485564Y273473D01*
Y271780D01*
X484717Y270934D01*
X482178D01*
X487256Y273473D02*
X488103Y274319D01*
X489796D01*
X490642Y273473D01*
Y270087D01*
X489796Y269241D01*
X488103D01*
X487256Y270087D01*
Y273473D01*
X480907Y215901D02*
X480061Y215054D01*
Y213362D01*
X480907Y212515D01*
X484293D01*
X485139Y213362D01*
Y215054D01*
X484293Y215901D01*
X480061Y217594D02*
X485139D01*
X482600D01*
Y220979D01*
X480061D01*
X485139D01*
Y222672D02*
Y224365D01*
Y223518D01*
X480061D01*
X480907Y222672D01*
X475827Y138855D02*
X474981Y138008D01*
Y136315D01*
X475827Y135469D01*
X479213D01*
X480059Y136315D01*
Y138008D01*
X479213Y138855D01*
X474981Y140547D02*
X480059D01*
X477520D01*
Y143933D01*
X474981D01*
X480059D01*
X475827Y145626D02*
X474981Y146472D01*
Y148165D01*
X475827Y149011D01*
X479213D01*
X480059Y148165D01*
Y146472D01*
X479213Y145626D01*
X475827D01*
X51647Y115994D02*
X50801Y115148D01*
Y113455D01*
X51647Y112609D01*
X55033D01*
X55879Y113455D01*
Y115148D01*
X55033Y115994D01*
X50801Y117687D02*
X55879D01*
X53340D01*
Y121073D01*
X50801D01*
X55879D01*
X51647Y122766D02*
X50801Y123612D01*
Y125305D01*
X51647Y126151D01*
X52494D01*
X53340Y125305D01*
Y124458D01*
Y125305D01*
X54186Y126151D01*
X55033D01*
X55879Y125305D01*
Y123612D01*
X55033Y122766D01*
X50377Y184574D02*
X49531Y183728D01*
Y182035D01*
X50377Y181189D01*
X53763D01*
X54609Y182035D01*
Y183728D01*
X53763Y184574D01*
X49531Y186267D02*
X54609D01*
X52070D01*
Y189653D01*
X49531D01*
X54609D01*
Y194731D02*
Y191346D01*
X51224Y194731D01*
X50377D01*
X49531Y193885D01*
Y192192D01*
X50377Y191346D01*
X46144Y281093D02*
X45298Y281939D01*
X43605D01*
X42759Y281093D01*
Y277707D01*
X43605Y276861D01*
X45298D01*
X46144Y277707D01*
Y279400D01*
X44452D01*
X47837Y276861D02*
Y281939D01*
X51223Y276861D01*
Y281939D01*
X52916D02*
Y276861D01*
X55455D01*
X56301Y277707D01*
Y281093D01*
X55455Y281939D01*
X52916D01*
X43182Y302261D02*
X44875D01*
X44029D01*
Y307339D01*
X43182Y306493D01*
X47414Y307339D02*
Y303954D01*
X49107Y302261D01*
X50800Y303954D01*
Y307339D01*
X52492Y306493D02*
X53339Y307339D01*
X55032D01*
X55878Y306493D01*
Y305646D01*
X55032Y304800D01*
X55878Y303954D01*
Y303107D01*
X55032Y302261D01*
X53339D01*
X52492Y303107D01*
Y303954D01*
X53339Y304800D01*
X52492Y305646D01*
Y306493D01*
X53339Y304800D02*
X55032D01*
X41489Y333163D02*
X42335Y334009D01*
X44028D01*
X44874Y333163D01*
Y332316D01*
X44028Y331470D01*
X43182D01*
X44028D01*
X44874Y330624D01*
Y329777D01*
X44028Y328931D01*
X42335D01*
X41489Y329777D01*
X46567Y334009D02*
Y330624D01*
X48260Y328931D01*
X49953Y330624D01*
Y334009D01*
X51646Y333163D02*
X52492Y334009D01*
X54185D01*
X55031Y333163D01*
Y332316D01*
X54185Y331470D01*
X53338D01*
X54185D01*
X55031Y330624D01*
Y329777D01*
X54185Y328931D01*
X52492D01*
X51646Y329777D01*
D14*
X0Y0D02*
X502920D01*
X0Y405130D02*
X502920D01*
Y0D02*
Y405130D01*
X0Y0D02*
Y405130D01*
M02*
