G04*
G04 #@! TF.GenerationSoftware,Altium Limited,Altium Designer,22.9.1 (49)*
G04*
G04 Layer_Color=2752767*
%FSLAX44Y44*%
%MOMM*%
G71*
G04*
G04 #@! TF.SameCoordinates,B494E0AD-35FF-4286-8297-05C0B8817D61*
G04*
G04*
G04 #@! TF.FilePolarity,Positive*
G04*
G01*
G75*
%ADD14C,0.2540*%
%ADD40C,0.0508*%
%ADD41C,0.0677*%
D14*
X0Y0D02*
X502920D01*
X0Y405130D02*
X502920D01*
Y0D02*
Y405130D01*
X0Y0D02*
Y405130D01*
D40*
X80518Y329438D02*
Y333502D01*
X84582D01*
Y329438D01*
X80518D01*
Y304038D02*
Y308102D01*
X84582D01*
Y304038D01*
X80518D01*
Y278638D02*
Y282702D01*
X84582D01*
Y278638D01*
X80518D01*
X452628Y150368D02*
Y154432D01*
X456692D01*
Y150368D01*
X452628D01*
Y124968D02*
Y129032D01*
X456692D01*
Y124968D01*
X452628D01*
Y226568D02*
Y230632D01*
X456692D01*
Y226568D01*
X452628D01*
Y201168D02*
Y205232D01*
X456692D01*
Y201168D01*
X452628D01*
X25908Y198628D02*
Y202692D01*
X29972D01*
Y198628D01*
X25908D01*
Y173228D02*
Y177292D01*
X29972D01*
Y173228D01*
X25908D01*
Y127508D02*
Y131572D01*
X29972D01*
Y127508D01*
X25908D01*
Y102108D02*
Y106172D01*
X29972D01*
Y102108D01*
X25908D01*
X349758Y375158D02*
Y379222D01*
X353822D01*
Y375158D01*
X349758D01*
X324358D02*
Y379222D01*
X328422D01*
Y375158D01*
X324358D01*
X298958D02*
Y379222D01*
X303022D01*
Y375158D01*
X298958D01*
X273558D02*
Y379222D01*
X277622D01*
Y375158D01*
X273558D01*
X248158D02*
Y379222D01*
X252222D01*
Y375158D01*
X248158D01*
X222758D02*
Y379222D01*
X226822D01*
Y375158D01*
X222758D01*
X197358D02*
Y379222D01*
X201422D01*
Y375158D01*
X197358D01*
X171958D02*
Y379222D01*
X176022D01*
Y375158D01*
X171958D01*
X452628Y345948D02*
Y350012D01*
X456692D01*
Y345948D01*
X452628D01*
Y320548D02*
Y324612D01*
X456692D01*
Y320548D01*
X452628D01*
Y295148D02*
Y299212D01*
X456692D01*
Y295148D01*
X452628D01*
Y269748D02*
Y273812D01*
X456692D01*
Y269748D01*
X452628D01*
X175260Y293878D02*
X173228Y297942D01*
X177292D01*
X175260Y293878D01*
X313690Y319278D02*
X311658Y323342D01*
X315722D01*
X313690Y319278D01*
X383540Y265938D02*
X381508Y270002D01*
X385572D01*
X383540Y265938D01*
Y231648D02*
X381508Y235712D01*
X385572D01*
X383540Y231648D01*
X368220Y194898D02*
X366188Y198962D01*
X370252D01*
X368220Y194898D01*
X368300Y169418D02*
X366268Y173482D01*
X370332D01*
X368300Y169418D01*
Y145288D02*
X366268Y149352D01*
X370332D01*
X368300Y145288D01*
X368220Y132508D02*
X366188Y136572D01*
X370252D01*
X368220Y132508D01*
X372110Y107188D02*
X370078Y111252D01*
X374142D01*
X372110Y107188D01*
X233680Y72898D02*
X231648Y76962D01*
X235712D01*
X233680Y72898D01*
X218440Y88138D02*
X216408Y92202D01*
X220472D01*
X218440Y88138D01*
X165100Y133858D02*
X163068Y137922D01*
X167132D01*
X165100Y133858D01*
X142240Y179578D02*
X140208Y183642D01*
X144272D01*
X142240Y179578D01*
X135890Y206248D02*
X133858Y210312D01*
X137922D01*
X135890Y206248D01*
X134700Y220298D02*
X132668Y224362D01*
X136732D01*
X134700Y220298D01*
X264160Y302768D02*
X262128Y306832D01*
X266192D01*
X264160Y302768D01*
X276780Y281258D02*
X274748Y285322D01*
X278812D01*
X276780Y281258D01*
X181610Y268478D02*
X179578Y272542D01*
X183642D01*
X181610Y268478D01*
X204470Y255778D02*
X202438Y259842D01*
X206502D01*
X204470Y255778D01*
X316150Y298878D02*
X314118Y302942D01*
X318182D01*
X316150Y298878D01*
X307340Y271018D02*
X305308Y275082D01*
X309372D01*
X307340Y271018D01*
X198120Y184658D02*
X196088Y188722D01*
X200152D01*
X198120Y184658D01*
X202170Y213760D02*
X200138Y217824D01*
X204202D01*
X202170Y213760D01*
X173830Y202598D02*
X171798Y206662D01*
X175862D01*
X173830Y202598D01*
X351710Y204898D02*
X349678Y208962D01*
X353742D01*
X351710Y204898D01*
X198120Y166878D02*
X196088Y170942D01*
X200152D01*
X198120Y166878D01*
X204470Y121158D02*
X202438Y125222D01*
X206502D01*
X204470Y121158D01*
X367030Y257048D02*
X364998Y261112D01*
X369062D01*
X367030Y257048D01*
X325120Y199898D02*
X323088Y203962D01*
X327152D01*
X325120Y199898D01*
X339090Y237998D02*
X337058Y242062D01*
X341122D01*
X339090Y237998D01*
X350440Y260778D02*
X348408Y264842D01*
X352472D01*
X350440Y260778D01*
X325120Y182118D02*
X323088Y186182D01*
X327152D01*
X325120Y182118D01*
X350440Y183308D02*
X348408Y187372D01*
X352472D01*
X350440Y183308D01*
X287020Y145288D02*
X284988Y149352D01*
X289052D01*
X287020Y145288D01*
X241300Y144018D02*
X239268Y148082D01*
X243332D01*
X241300Y144018D01*
X255614Y146968D02*
X253582Y151032D01*
X257646D01*
X255614Y146968D01*
X243920Y118698D02*
X241888Y122762D01*
X245952D01*
X243920Y118698D01*
X218520Y130128D02*
X216488Y134192D01*
X220552D01*
X218520Y130128D01*
X217170Y149098D02*
X215138Y153162D01*
X219202D01*
X217170Y149098D01*
X268730Y78738D02*
X266698Y82802D01*
X270762D01*
X268730Y78738D01*
X320040Y62738D02*
X318008Y66802D01*
X322072D01*
X320040Y62738D01*
X278050Y107268D02*
X276018Y111332D01*
X280082D01*
X278050Y107268D01*
X328850Y122508D02*
X326818Y126572D01*
X330882D01*
X328850Y122508D01*
X304800Y156718D02*
X302768Y160782D01*
X306832D01*
X304800Y156718D01*
X171530Y166958D02*
X169498Y171022D01*
X173562D01*
X171530Y166958D01*
X160100Y230298D02*
X158068Y234362D01*
X162132D01*
X160100Y230298D01*
X170180Y245618D02*
X168148Y249682D01*
X172212D01*
X170180Y245618D01*
X191850Y256968D02*
X189818Y261032D01*
X193882D01*
X191850Y256968D01*
D41*
X242022Y229370D02*
G03*
X242022Y229370I-2032J0D01*
G01*
X253022D02*
G03*
X253022Y229370I-2032J0D01*
G01*
X264022D02*
G03*
X264022Y229370I-2032J0D01*
G01*
X275022D02*
G03*
X275022Y229370I-2032J0D01*
G01*
X286022D02*
G03*
X286022Y229370I-2032J0D01*
G01*
X242022Y218370D02*
G03*
X242022Y218370I-2032J0D01*
G01*
X253022D02*
G03*
X253022Y218370I-2032J0D01*
G01*
X264022D02*
G03*
X264022Y218370I-2032J0D01*
G01*
X275022D02*
G03*
X275022Y218370I-2032J0D01*
G01*
X286022D02*
G03*
X286022Y218370I-2032J0D01*
G01*
X242022Y207370D02*
G03*
X242022Y207370I-2032J0D01*
G01*
X253022D02*
G03*
X253022Y207370I-2032J0D01*
G01*
X264022D02*
G03*
X264022Y207370I-2032J0D01*
G01*
X275022D02*
G03*
X275022Y207370I-2032J0D01*
G01*
X286022D02*
G03*
X286022Y207370I-2032J0D01*
G01*
X242022Y196370D02*
G03*
X242022Y196370I-2032J0D01*
G01*
X253022D02*
G03*
X253022Y196370I-2032J0D01*
G01*
X264022D02*
G03*
X264022Y196370I-2032J0D01*
G01*
X275022D02*
G03*
X275022Y196370I-2032J0D01*
G01*
X286022D02*
G03*
X286022Y196370I-2032J0D01*
G01*
X242022Y185370D02*
G03*
X242022Y185370I-2032J0D01*
G01*
X253022D02*
G03*
X253022Y185370I-2032J0D01*
G01*
X264022D02*
G03*
X264022Y185370I-2032J0D01*
G01*
X275022D02*
G03*
X275022Y185370I-2032J0D01*
G01*
X286022D02*
G03*
X286022Y185370I-2032J0D01*
G01*
M02*
