G04*
G04 #@! TF.GenerationSoftware,Altium Limited,Altium Designer,22.9.1 (49)*
G04*
G04 Layer_Color=8388736*
%FSLAX44Y44*%
%MOMM*%
G71*
G04*
G04 #@! TF.SameCoordinates,B494E0AD-35FF-4286-8297-05C0B8817D61*
G04*
G04*
G04 #@! TF.FilePolarity,Negative*
G04*
G01*
G75*
%ADD14C,0.2540*%
%ADD21R,1.6032X1.4032*%
%ADD22R,0.7032X0.8032*%
%ADD23O,1.0032X0.4532*%
%ADD24O,0.4532X1.0032*%
%ADD25R,6.3032X6.3032*%
%ADD26R,0.8032X0.7032*%
%ADD27R,1.7032X1.7032*%
%ADD28C,1.7032*%
%ADD29R,1.7032X1.7032*%
%ADD30C,0.8382*%
%ADD31C,0.7032*%
D14*
X0Y0D02*
X502920D01*
X0Y405130D02*
X502920D01*
Y0D02*
Y405130D01*
X0Y0D02*
Y405130D01*
D21*
X283210Y80770D02*
D03*
Y64770D02*
D03*
X305210D02*
D03*
Y80770D02*
D03*
D22*
X299640Y97790D02*
D03*
X289640D02*
D03*
X196770Y232410D02*
D03*
X186770D02*
D03*
X323770Y109220D02*
D03*
X313770D02*
D03*
X331550Y147320D02*
D03*
X341550D02*
D03*
X308690D02*
D03*
X318690D02*
D03*
X191850Y245110D02*
D03*
X201850D02*
D03*
X193120Y270510D02*
D03*
X203120D02*
D03*
X316150Y288290D02*
D03*
X306150D02*
D03*
X278050Y120650D02*
D03*
X268050D02*
D03*
X243920Y133350D02*
D03*
X253920D02*
D03*
D23*
X222990Y239870D02*
D03*
Y234870D02*
D03*
Y229870D02*
D03*
Y224870D02*
D03*
Y219870D02*
D03*
Y214870D02*
D03*
Y209870D02*
D03*
Y204870D02*
D03*
Y199870D02*
D03*
Y194870D02*
D03*
Y189870D02*
D03*
Y184870D02*
D03*
Y179870D02*
D03*
Y174870D02*
D03*
X300990D02*
D03*
Y179870D02*
D03*
Y184870D02*
D03*
Y189870D02*
D03*
Y194870D02*
D03*
Y199870D02*
D03*
Y204870D02*
D03*
Y209870D02*
D03*
Y214870D02*
D03*
Y219870D02*
D03*
Y224870D02*
D03*
Y229870D02*
D03*
Y234870D02*
D03*
Y239870D02*
D03*
D24*
X229490Y168370D02*
D03*
X234490D02*
D03*
X239490D02*
D03*
X244490D02*
D03*
X249490D02*
D03*
X254490D02*
D03*
X259490D02*
D03*
X264490D02*
D03*
X269490D02*
D03*
X274490D02*
D03*
X279490D02*
D03*
X284490D02*
D03*
X289490D02*
D03*
X294490D02*
D03*
Y246370D02*
D03*
X289490D02*
D03*
X284490D02*
D03*
X279490D02*
D03*
X274490D02*
D03*
X269490D02*
D03*
X264490D02*
D03*
X259490D02*
D03*
X254490D02*
D03*
X249490D02*
D03*
X244490D02*
D03*
X239490D02*
D03*
X234490D02*
D03*
X229490D02*
D03*
D25*
X261990Y207370D02*
D03*
D26*
X231140Y142160D02*
D03*
Y132160D02*
D03*
X204470Y134700D02*
D03*
Y144700D02*
D03*
X359410Y247570D02*
D03*
Y237570D02*
D03*
X339090Y262810D02*
D03*
Y252810D02*
D03*
X337820Y206930D02*
D03*
Y196930D02*
D03*
Y185340D02*
D03*
Y175340D02*
D03*
X316230Y124540D02*
D03*
Y134540D02*
D03*
X186690Y168990D02*
D03*
Y178990D02*
D03*
X187960Y204630D02*
D03*
Y214630D02*
D03*
X173990Y232330D02*
D03*
Y222330D02*
D03*
X264160Y293290D02*
D03*
Y283290D02*
D03*
D27*
X82550Y331470D02*
D03*
X454660Y152400D02*
D03*
Y228600D02*
D03*
X27940Y200660D02*
D03*
Y129540D02*
D03*
X454660Y271780D02*
D03*
D28*
X82550Y306070D02*
D03*
Y280670D02*
D03*
X454660Y127000D02*
D03*
Y203200D02*
D03*
X27940Y175260D02*
D03*
Y104140D02*
D03*
X326390Y377190D02*
D03*
X300990D02*
D03*
X275590D02*
D03*
X250190D02*
D03*
X224790D02*
D03*
X199390D02*
D03*
X173990D02*
D03*
X454660Y347980D02*
D03*
Y322580D02*
D03*
Y297180D02*
D03*
D29*
X351790Y377190D02*
D03*
D30*
X175260Y295910D02*
D03*
X313690Y321310D02*
D03*
X383540Y267970D02*
D03*
Y233680D02*
D03*
X368220Y196930D02*
D03*
X368300Y171450D02*
D03*
Y147320D02*
D03*
X368220Y134540D02*
D03*
X372110Y109220D02*
D03*
X233680Y74930D02*
D03*
X218440Y90170D02*
D03*
X165100Y135890D02*
D03*
X142240Y181610D02*
D03*
X135890Y208280D02*
D03*
X134700Y222330D02*
D03*
X264160Y304800D02*
D03*
X276780Y283290D02*
D03*
X181610Y270510D02*
D03*
X204470Y257810D02*
D03*
X316150Y300910D02*
D03*
X307340Y273050D02*
D03*
X198120Y186690D02*
D03*
X202170Y215792D02*
D03*
X173830Y204630D02*
D03*
X351710Y206930D02*
D03*
X198120Y168910D02*
D03*
X204470Y123190D02*
D03*
X367030Y259080D02*
D03*
X325120Y201930D02*
D03*
X339090Y240030D02*
D03*
X350440Y262810D02*
D03*
X325120Y184150D02*
D03*
X350440Y185340D02*
D03*
X287020Y147320D02*
D03*
X241300Y146050D02*
D03*
X255614Y149000D02*
D03*
X243920Y120730D02*
D03*
X218520Y132160D02*
D03*
X217170Y151130D02*
D03*
X268730Y80770D02*
D03*
X320040Y64770D02*
D03*
X278050Y109300D02*
D03*
X328850Y124540D02*
D03*
X304800Y158750D02*
D03*
X171530Y168990D02*
D03*
X160100Y232330D02*
D03*
X170180Y247650D02*
D03*
X191850Y259000D02*
D03*
D31*
X239990Y229370D02*
D03*
X250990D02*
D03*
X261990D02*
D03*
X272990D02*
D03*
X283990D02*
D03*
X239990Y218370D02*
D03*
X250990D02*
D03*
X261990D02*
D03*
X272990D02*
D03*
X283990D02*
D03*
X239990Y207370D02*
D03*
X250990D02*
D03*
X261990D02*
D03*
X272990D02*
D03*
X283990D02*
D03*
X239990Y196370D02*
D03*
X250990D02*
D03*
X261990D02*
D03*
X272990D02*
D03*
X283990D02*
D03*
X239990Y185370D02*
D03*
X250990D02*
D03*
X261990D02*
D03*
X272990D02*
D03*
X283990D02*
D03*
M02*
