G04*
G04 #@! TF.GenerationSoftware,Altium Limited,Altium Designer,22.9.1 (49)*
G04*
G04 Layer_Color=128*
%FSLAX44Y44*%
%MOMM*%
G71*
G04*
G04 #@! TF.SameCoordinates,B494E0AD-35FF-4286-8297-05C0B8817D61*
G04*
G04*
G04 #@! TF.FilePolarity,Positive*
G04*
G01*
G75*
%ADD14C,0.2540*%
%ADD40C,0.0508*%
D14*
X0Y0D02*
X502920D01*
X0Y405130D02*
X502920D01*
Y0D02*
Y405130D01*
X0Y0D02*
Y405130D01*
D40*
X78050Y331470D02*
X87050D01*
X82550Y326970D02*
Y335970D01*
X78050Y306070D02*
X87050D01*
X82550Y301570D02*
Y310570D01*
X78050Y280670D02*
X87050D01*
X82550Y276170D02*
Y285170D01*
X450160Y152400D02*
X459160D01*
X454660Y147900D02*
Y156900D01*
X450160Y127000D02*
X459160D01*
X454660Y122500D02*
Y131500D01*
X450160Y228600D02*
X459160D01*
X454660Y224100D02*
Y233100D01*
X450160Y203200D02*
X459160D01*
X454660Y198700D02*
Y207700D01*
X23440Y200660D02*
X32440D01*
X27940Y196160D02*
Y205160D01*
X23440Y175260D02*
X32440D01*
X27940Y170760D02*
Y179760D01*
X23440Y129540D02*
X32440D01*
X27940Y125040D02*
Y134040D01*
X23440Y104140D02*
X32440D01*
X27940Y99640D02*
Y108640D01*
X347290Y377190D02*
X356290D01*
X351790Y372690D02*
Y381690D01*
X321890Y377190D02*
X330890D01*
X326390Y372690D02*
Y381690D01*
X296490Y377190D02*
X305490D01*
X300990Y372690D02*
Y381690D01*
X271090Y377190D02*
X280090D01*
X275590Y372690D02*
Y381690D01*
X245690Y377190D02*
X254690D01*
X250190Y372690D02*
Y381690D01*
X220290Y377190D02*
X229290D01*
X224790Y372690D02*
Y381690D01*
X194890Y377190D02*
X203890D01*
X199390Y372690D02*
Y381690D01*
X169490Y377190D02*
X178490D01*
X173990Y372690D02*
Y381690D01*
X450160Y347980D02*
X459160D01*
X454660Y343480D02*
Y352480D01*
X450160Y322580D02*
X459160D01*
X454660Y318080D02*
Y327080D01*
X450160Y297180D02*
X459160D01*
X454660Y292680D02*
Y301680D01*
X450160Y271780D02*
X459160D01*
X454660Y267280D02*
Y276280D01*
X173355Y295910D02*
X177165D01*
X175260Y294005D02*
Y297815D01*
X311785Y321310D02*
X315595D01*
X313690Y319405D02*
Y323215D01*
X381635Y267970D02*
X385445D01*
X383540Y266065D02*
Y269875D01*
X381635Y233680D02*
X385445D01*
X383540Y231775D02*
Y235585D01*
X366315Y196930D02*
X370125D01*
X368220Y195025D02*
Y198835D01*
X366395Y171450D02*
X370205D01*
X368300Y169545D02*
Y173355D01*
X366395Y147320D02*
X370205D01*
X368300Y145415D02*
Y149225D01*
X366315Y134540D02*
X370125D01*
X368220Y132635D02*
Y136445D01*
X370205Y109220D02*
X374015D01*
X372110Y107315D02*
Y111125D01*
X231775Y74930D02*
X235585D01*
X233680Y73025D02*
Y76835D01*
X216535Y90170D02*
X220345D01*
X218440Y88265D02*
Y92075D01*
X163195Y135890D02*
X167005D01*
X165100Y133985D02*
Y137795D01*
X140335Y181610D02*
X144145D01*
X142240Y179705D02*
Y183515D01*
X133985Y208280D02*
X137795D01*
X135890Y206375D02*
Y210185D01*
X132795Y222330D02*
X136605D01*
X134700Y220425D02*
Y224235D01*
X262255Y304800D02*
X266065D01*
X264160Y302895D02*
Y306705D01*
X274875Y283290D02*
X278685D01*
X276780Y281385D02*
Y285195D01*
X179705Y270510D02*
X183515D01*
X181610Y268605D02*
Y272415D01*
X202565Y257810D02*
X206375D01*
X204470Y255905D02*
Y259715D01*
X314245Y300910D02*
X318055D01*
X316150Y299005D02*
Y302815D01*
X305435Y273050D02*
X309245D01*
X307340Y271145D02*
Y274955D01*
X196215Y186690D02*
X200025D01*
X198120Y184785D02*
Y188595D01*
X200265Y215792D02*
X204075D01*
X202170Y213887D02*
Y217697D01*
X171925Y204630D02*
X175735D01*
X173830Y202725D02*
Y206535D01*
X349805Y206930D02*
X353615D01*
X351710Y205025D02*
Y208835D01*
X196215Y168910D02*
X200025D01*
X198120Y167005D02*
Y170815D01*
X202565Y123190D02*
X206375D01*
X204470Y121285D02*
Y125095D01*
X365125Y259080D02*
X368935D01*
X367030Y257175D02*
Y260985D01*
X323215Y201930D02*
X327025D01*
X325120Y200025D02*
Y203835D01*
X337185Y240030D02*
X340995D01*
X339090Y238125D02*
Y241935D01*
X348535Y262810D02*
X352345D01*
X350440Y260905D02*
Y264715D01*
X323215Y184150D02*
X327025D01*
X325120Y182245D02*
Y186055D01*
X348535Y185340D02*
X352345D01*
X350440Y183435D02*
Y187245D01*
X285115Y147320D02*
X288925D01*
X287020Y145415D02*
Y149225D01*
X239395Y146050D02*
X243205D01*
X241300Y144145D02*
Y147955D01*
X253709Y149000D02*
X257519D01*
X255614Y147095D02*
Y150905D01*
X242015Y120730D02*
X245825D01*
X243920Y118825D02*
Y122635D01*
X216615Y132160D02*
X220425D01*
X218520Y130255D02*
Y134065D01*
X215265Y151130D02*
X219075D01*
X217170Y149225D02*
Y153035D01*
X266825Y80770D02*
X270635D01*
X268730Y78865D02*
Y82675D01*
X318135Y64770D02*
X321945D01*
X320040Y62865D02*
Y66675D01*
X276145Y109300D02*
X279955D01*
X278050Y107395D02*
Y111205D01*
X326945Y124540D02*
X330755D01*
X328850Y122635D02*
Y126445D01*
X302895Y158750D02*
X306705D01*
X304800Y156845D02*
Y160655D01*
X169625Y168990D02*
X173435D01*
X171530Y167085D02*
Y170895D01*
X158195Y232330D02*
X162005D01*
X160100Y230425D02*
Y234235D01*
X168275Y247650D02*
X172085D01*
X170180Y245745D02*
Y249555D01*
X189945Y259000D02*
X193755D01*
X191850Y257095D02*
Y260905D01*
X238990Y229370D02*
X240990D01*
X239990Y228370D02*
Y230370D01*
X249990Y229370D02*
X251990D01*
X250990Y228370D02*
Y230370D01*
X260990Y229370D02*
X262990D01*
X261990Y228370D02*
Y230370D01*
X271990Y229370D02*
X273990D01*
X272990Y228370D02*
Y230370D01*
X282990Y229370D02*
X284990D01*
X283990Y228370D02*
Y230370D01*
X238990Y218370D02*
X240990D01*
X239990Y217370D02*
Y219370D01*
X249990Y218370D02*
X251990D01*
X250990Y217370D02*
Y219370D01*
X260990Y218370D02*
X262990D01*
X261990Y217370D02*
Y219370D01*
X271990Y218370D02*
X273990D01*
X272990Y217370D02*
Y219370D01*
X282990Y218370D02*
X284990D01*
X283990Y217370D02*
Y219370D01*
X238990Y207370D02*
X240990D01*
X239990Y206370D02*
Y208370D01*
X249990Y207370D02*
X251990D01*
X250990Y206370D02*
Y208370D01*
X260990Y207370D02*
X262990D01*
X261990Y206370D02*
Y208370D01*
X271990Y207370D02*
X273990D01*
X272990Y206370D02*
Y208370D01*
X282990Y207370D02*
X284990D01*
X283990Y206370D02*
Y208370D01*
X238990Y196370D02*
X240990D01*
X239990Y195370D02*
Y197370D01*
X249990Y196370D02*
X251990D01*
X250990Y195370D02*
Y197370D01*
X260990Y196370D02*
X262990D01*
X261990Y195370D02*
Y197370D01*
X271990Y196370D02*
X273990D01*
X272990Y195370D02*
Y197370D01*
X282990Y196370D02*
X284990D01*
X283990Y195370D02*
Y197370D01*
X238990Y185370D02*
X240990D01*
X239990Y184370D02*
Y186370D01*
X249990Y185370D02*
X251990D01*
X250990Y184370D02*
Y186370D01*
X260990Y185370D02*
X262990D01*
X261990Y184370D02*
Y186370D01*
X271990Y185370D02*
X273990D01*
X272990Y184370D02*
Y186370D01*
X282990Y185370D02*
X284990D01*
X283990Y184370D02*
Y186370D01*
M02*
