G04*
G04 #@! TF.GenerationSoftware,Altium Limited,Altium Designer,22.9.1 (49)*
G04*
G04 Layer_Color=32768*
%FSLAX44Y44*%
%MOMM*%
G71*
G04*
G04 #@! TF.SameCoordinates,56138900-265E-4636-842D-A07DDEB023E3*
G04*
G04*
G04 #@! TF.FilePolarity,Positive*
G04*
G01*
G75*
%ADD12C,0.1000*%
%ADD13C,0.0500*%
D12*
X1527500Y327500D02*
X1537500D01*
X1532500Y322500D02*
Y332500D01*
X1603000Y342500D02*
X1612000D01*
X1607500Y338000D02*
Y347000D01*
X1603000Y312500D02*
X1612000D01*
X1607500Y308000D02*
Y317000D01*
X1435500Y325000D02*
X1444500D01*
X1440000Y320500D02*
Y329500D01*
X1435500Y295000D02*
X1444500D01*
X1440000Y290500D02*
Y299500D01*
X1536500Y417500D02*
X1546500D01*
X1541500Y412500D02*
Y422500D01*
D13*
X1473750Y294500D02*
Y360500D01*
X1591250Y294500D02*
Y360500D01*
X1473750D02*
X1591250D01*
X1473750Y294500D02*
X1591250D01*
X1600000Y329500D02*
Y355500D01*
X1615000Y329500D02*
Y355500D01*
X1600000Y329500D02*
X1615000D01*
X1600000Y355500D02*
X1615000D01*
X1615000Y299500D02*
Y325500D01*
X1600000Y299500D02*
Y325500D01*
X1615000D01*
X1600000Y299500D02*
X1615000D01*
X1432500Y312000D02*
Y338000D01*
X1447500Y312000D02*
Y338000D01*
X1432500Y312000D02*
X1447500D01*
X1432500Y338000D02*
X1447500D01*
X1432500Y282000D02*
Y308000D01*
X1447500Y282000D02*
Y308000D01*
X1432500Y282000D02*
X1447500D01*
X1432500Y308000D02*
X1447500D01*
X1517950Y401000D02*
Y434000D01*
X1565050Y401000D02*
Y434000D01*
X1517950D02*
X1565050D01*
X1517950Y401000D02*
X1565050D01*
M02*
