G04*
G04 #@! TF.GenerationSoftware,Altium Limited,Altium Designer,22.9.1 (49)*
G04*
G04 Layer_Physical_Order=2*
G04 Layer_Color=8242323*
%FSLAX44Y44*%
%MOMM*%
G71*
G04*
G04 #@! TF.SameCoordinates,56138900-265E-4636-842D-A07DDEB023E3*
G04*
G04*
G04 #@! TF.FilePolarity,Positive*
G04*
G01*
G75*
%ADD35C,1.5240*%
%ADD36C,1.4986*%
%ADD37C,0.7000*%
%ADD38C,0.6350*%
G36*
X1632500Y395000D02*
X1562500D01*
X1547500Y410000D01*
X1507500D01*
Y397856D01*
X1505218Y397005D01*
X1504557Y397312D01*
X1503738Y398130D01*
X1501422Y399468D01*
X1498838Y400160D01*
X1496162D01*
X1493578Y399468D01*
X1491262Y398130D01*
X1489370Y396238D01*
X1488032Y393922D01*
X1487340Y391338D01*
Y388662D01*
X1488032Y386078D01*
X1489370Y383762D01*
X1491262Y381870D01*
X1493578Y380532D01*
X1496162Y379840D01*
X1498838D01*
X1501422Y380532D01*
X1503738Y381870D01*
X1504557Y382688D01*
X1505218Y382995D01*
X1507500Y382144D01*
Y247500D01*
X1415000D01*
Y467500D01*
X1496003D01*
X1496179Y465033D01*
X1493627Y464349D01*
X1491340Y463028D01*
X1489472Y461160D01*
X1488151Y458873D01*
X1487467Y456321D01*
Y453679D01*
X1488151Y451127D01*
X1489472Y448840D01*
X1491340Y446972D01*
X1493627Y445651D01*
X1496179Y444967D01*
X1498821D01*
X1501373Y445651D01*
X1503660Y446972D01*
X1504491Y447802D01*
X1506249Y448511D01*
X1507850Y447781D01*
X1508762Y446870D01*
X1511078Y445532D01*
X1513662Y444840D01*
X1516338D01*
X1518922Y445532D01*
X1521238Y446870D01*
X1522057Y447688D01*
X1523750Y448474D01*
X1525443Y447688D01*
X1526262Y446870D01*
X1528578Y445532D01*
X1531162Y444840D01*
X1533838D01*
X1536422Y445532D01*
X1538738Y446870D01*
X1539557Y447688D01*
X1541250Y448474D01*
X1542943Y447688D01*
X1543762Y446870D01*
X1546078Y445532D01*
X1548662Y444840D01*
X1551338D01*
X1553922Y445532D01*
X1556238Y446870D01*
X1558130Y448762D01*
X1559468Y451078D01*
X1560160Y453662D01*
Y456338D01*
X1559468Y458922D01*
X1558130Y461238D01*
X1556238Y463130D01*
X1553922Y464468D01*
X1552084Y464960D01*
X1552418Y467500D01*
X1632500D01*
Y395000D01*
D02*
G37*
G36*
X1560000Y390000D02*
X1632500D01*
Y247500D01*
X1515000D01*
Y379840D01*
X1516338D01*
X1518922Y380532D01*
X1521238Y381870D01*
X1523130Y383762D01*
X1523534Y384460D01*
X1526467D01*
X1526870Y383762D01*
X1528762Y381870D01*
X1531078Y380532D01*
X1533663Y379840D01*
X1533730D01*
Y390000D01*
Y400160D01*
X1533663D01*
X1531078Y399468D01*
X1528762Y398130D01*
X1526870Y396238D01*
X1526467Y395540D01*
X1523534D01*
X1523130Y396238D01*
X1521238Y398130D01*
X1518922Y399468D01*
X1516338Y400160D01*
X1515000D01*
Y407410D01*
X1542590D01*
X1560000Y390000D01*
D02*
G37*
%LPC*%
G36*
X1576270Y413160D02*
Y408770D01*
X1580660D01*
X1579845Y410737D01*
X1578237Y412345D01*
X1576270Y413160D01*
D02*
G37*
G36*
X1573730D02*
X1571763Y412345D01*
X1570155Y410737D01*
X1569340Y408770D01*
X1573730D01*
Y413160D01*
D02*
G37*
G36*
X1580660Y406230D02*
X1576270D01*
Y401840D01*
X1578237Y402655D01*
X1579845Y404263D01*
X1580660Y406230D01*
D02*
G37*
G36*
X1573730D02*
X1569340D01*
X1570155Y404263D01*
X1571763Y402655D01*
X1573730Y401840D01*
Y406230D01*
D02*
G37*
G36*
X1426520Y338762D02*
Y334020D01*
X1431262D01*
X1430370Y336171D01*
X1428671Y337870D01*
X1426520Y338762D01*
D02*
G37*
G36*
X1423980D02*
X1421829Y337870D01*
X1420130Y336171D01*
X1419238Y334020D01*
X1423980D01*
Y338762D01*
D02*
G37*
G36*
X1431262Y331480D02*
X1426520D01*
Y326738D01*
X1428671Y327630D01*
X1430370Y329329D01*
X1431262Y331480D01*
D02*
G37*
G36*
X1423980D02*
X1419238D01*
X1420130Y329329D01*
X1421829Y327630D01*
X1423980Y326738D01*
Y331480D01*
D02*
G37*
G36*
X1456270Y303512D02*
Y298770D01*
X1461012D01*
X1460121Y300921D01*
X1458421Y302621D01*
X1456270Y303512D01*
D02*
G37*
G36*
X1453730D02*
X1451579Y302621D01*
X1449880Y300921D01*
X1448988Y298770D01*
X1453730D01*
Y303512D01*
D02*
G37*
G36*
X1461012Y296230D02*
X1456270D01*
Y291488D01*
X1458421Y292380D01*
X1460121Y294079D01*
X1461012Y296230D01*
D02*
G37*
G36*
X1453730D02*
X1448988D01*
X1449880Y294079D01*
X1451579Y292380D01*
X1453730Y291488D01*
Y296230D01*
D02*
G37*
G36*
X1456338Y277660D02*
X1453662D01*
X1451078Y276968D01*
X1448762Y275630D01*
X1446870Y273738D01*
X1445532Y271422D01*
X1444840Y268838D01*
Y266162D01*
X1445532Y263578D01*
X1446870Y261262D01*
X1448762Y259370D01*
X1451078Y258032D01*
X1453662Y257340D01*
X1456338D01*
X1458922Y258032D01*
X1461238Y259370D01*
X1463130Y261262D01*
X1464468Y263578D01*
X1465160Y266162D01*
Y268838D01*
X1464468Y271422D01*
X1463130Y273738D01*
X1461238Y275630D01*
X1458922Y276968D01*
X1456338Y277660D01*
D02*
G37*
G36*
X1536338Y400160D02*
X1536270D01*
Y391270D01*
X1545160D01*
Y391338D01*
X1544468Y393922D01*
X1543130Y396238D01*
X1541238Y398130D01*
X1538922Y399468D01*
X1536338Y400160D01*
D02*
G37*
G36*
X1545160Y388730D02*
X1536270D01*
Y379840D01*
X1536338D01*
X1538922Y380532D01*
X1541238Y381870D01*
X1543130Y383762D01*
X1544468Y386078D01*
X1545160Y388662D01*
Y388730D01*
D02*
G37*
G36*
X1583730Y277660D02*
X1583663D01*
X1581078Y276968D01*
X1578762Y275630D01*
X1576870Y273738D01*
X1575532Y271422D01*
X1574840Y268838D01*
Y268770D01*
X1583730D01*
Y277660D01*
D02*
G37*
G36*
X1586338D02*
X1586270D01*
Y267500D01*
Y257340D01*
X1586338D01*
X1588922Y258032D01*
X1591238Y259370D01*
X1593130Y261262D01*
X1593607Y262087D01*
X1596540D01*
X1596972Y261340D01*
X1598840Y259472D01*
X1601127Y258151D01*
X1603679Y257467D01*
X1606321D01*
X1608873Y258151D01*
X1611160Y259472D01*
X1613028Y261340D01*
X1614349Y263627D01*
X1615033Y266179D01*
Y268821D01*
X1614349Y271373D01*
X1613028Y273660D01*
X1611160Y275528D01*
X1608873Y276849D01*
X1606321Y277533D01*
X1603679D01*
X1601127Y276849D01*
X1598840Y275528D01*
X1596972Y273660D01*
X1596540Y272913D01*
X1593607D01*
X1593130Y273738D01*
X1591238Y275630D01*
X1588922Y276968D01*
X1586338Y277660D01*
D02*
G37*
G36*
X1583730Y266230D02*
X1574840D01*
Y266162D01*
X1575532Y263578D01*
X1576870Y261262D01*
X1578762Y259370D01*
X1581078Y258032D01*
X1583663Y257340D01*
X1583730D01*
Y266230D01*
D02*
G37*
%LPD*%
D35*
X1535000Y390000D02*
D03*
X1585000Y267500D02*
D03*
X1455000D02*
D03*
X1515000Y390000D02*
D03*
X1497500D02*
D03*
X1550000Y455000D02*
D03*
X1515000D02*
D03*
X1532500D02*
D03*
D36*
X1605000Y267500D02*
D03*
X1497500Y455000D02*
D03*
D37*
X1607500Y362500D02*
D03*
X1455000Y297500D02*
D03*
X1425250Y332750D02*
D03*
D38*
X1575000Y407500D02*
D03*
M02*
